%TF.GenerationSoftware,KiCad,Pcbnew,9.0.3*%
%TF.CreationDate,2026-09-12T01:27:38-04:00*%
%TF.ProjectId,Hydra_Driver,48796472-615f-4447-9269-7665722e6b69,rev?*%
%TF.SameCoordinates,Original*%
%TF.FileFunction,Legend,Top*%
%TF.FilePolarity,Positive*%
%FSLAX46Y46*%
G04 Gerber Fmt 4.6, Leading zero omitted, Abs format (unit mm)*
G04 Created by KiCad (PCBNEW 9.0.3) date 2026-09-12 01:27:38*
%MOMM*%
%LPD*%
G01*
G04 APERTURE LIST*
%ADD10C,0.150000*%
%ADD11C,0.508000*%
%ADD12C,0.152400*%
%ADD13C,0.120000*%
%ADD14C,0.200000*%
%ADD15C,0.100000*%
%ADD16C,0.127000*%
%ADD17C,0.250000*%
%ADD18C,0.000000*%
G04 APERTURE END LIST*
D10*
X20673319Y-11563220D02*
X19673319Y-11563220D01*
X19673319Y-11563220D02*
X20387604Y-11229887D01*
X20387604Y-11229887D02*
X19673319Y-10896554D01*
X19673319Y-10896554D02*
X20673319Y-10896554D01*
X20673319Y-10420363D02*
X19673319Y-10420363D01*
X20625700Y-9991792D02*
X20673319Y-9848935D01*
X20673319Y-9848935D02*
X20673319Y-9610840D01*
X20673319Y-9610840D02*
X20625700Y-9515602D01*
X20625700Y-9515602D02*
X20578080Y-9467983D01*
X20578080Y-9467983D02*
X20482842Y-9420364D01*
X20482842Y-9420364D02*
X20387604Y-9420364D01*
X20387604Y-9420364D02*
X20292366Y-9467983D01*
X20292366Y-9467983D02*
X20244747Y-9515602D01*
X20244747Y-9515602D02*
X20197128Y-9610840D01*
X20197128Y-9610840D02*
X20149509Y-9801316D01*
X20149509Y-9801316D02*
X20101890Y-9896554D01*
X20101890Y-9896554D02*
X20054271Y-9944173D01*
X20054271Y-9944173D02*
X19959033Y-9991792D01*
X19959033Y-9991792D02*
X19863795Y-9991792D01*
X19863795Y-9991792D02*
X19768557Y-9944173D01*
X19768557Y-9944173D02*
X19720938Y-9896554D01*
X19720938Y-9896554D02*
X19673319Y-9801316D01*
X19673319Y-9801316D02*
X19673319Y-9563221D01*
X19673319Y-9563221D02*
X19720938Y-9420364D01*
X19673319Y-8801316D02*
X19673319Y-8610840D01*
X19673319Y-8610840D02*
X19720938Y-8515602D01*
X19720938Y-8515602D02*
X19816176Y-8420364D01*
X19816176Y-8420364D02*
X20006652Y-8372745D01*
X20006652Y-8372745D02*
X20339985Y-8372745D01*
X20339985Y-8372745D02*
X20530461Y-8420364D01*
X20530461Y-8420364D02*
X20625700Y-8515602D01*
X20625700Y-8515602D02*
X20673319Y-8610840D01*
X20673319Y-8610840D02*
X20673319Y-8801316D01*
X20673319Y-8801316D02*
X20625700Y-8896554D01*
X20625700Y-8896554D02*
X20530461Y-8991792D01*
X20530461Y-8991792D02*
X20339985Y-9039411D01*
X20339985Y-9039411D02*
X20006652Y-9039411D01*
X20006652Y-9039411D02*
X19816176Y-8991792D01*
X19816176Y-8991792D02*
X19720938Y-8896554D01*
X19720938Y-8896554D02*
X19673319Y-8801316D01*
X23078080Y-10191792D02*
X23125700Y-10239411D01*
X23125700Y-10239411D02*
X23173319Y-10382268D01*
X23173319Y-10382268D02*
X23173319Y-10477506D01*
X23173319Y-10477506D02*
X23125700Y-10620363D01*
X23125700Y-10620363D02*
X23030461Y-10715601D01*
X23030461Y-10715601D02*
X22935223Y-10763220D01*
X22935223Y-10763220D02*
X22744747Y-10810839D01*
X22744747Y-10810839D02*
X22601890Y-10810839D01*
X22601890Y-10810839D02*
X22411414Y-10763220D01*
X22411414Y-10763220D02*
X22316176Y-10715601D01*
X22316176Y-10715601D02*
X22220938Y-10620363D01*
X22220938Y-10620363D02*
X22173319Y-10477506D01*
X22173319Y-10477506D02*
X22173319Y-10382268D01*
X22173319Y-10382268D02*
X22220938Y-10239411D01*
X22220938Y-10239411D02*
X22268557Y-10191792D01*
X23173319Y-9287030D02*
X23173319Y-9763220D01*
X23173319Y-9763220D02*
X22173319Y-9763220D01*
X23173319Y-8953696D02*
X22173319Y-8953696D01*
X23173319Y-8382268D02*
X22601890Y-8810839D01*
X22173319Y-8382268D02*
X22744747Y-8953696D01*
X18073319Y-11563220D02*
X17073319Y-11563220D01*
X17073319Y-11563220D02*
X17787604Y-11229887D01*
X17787604Y-11229887D02*
X17073319Y-10896554D01*
X17073319Y-10896554D02*
X18073319Y-10896554D01*
X17073319Y-10229887D02*
X17073319Y-10039411D01*
X17073319Y-10039411D02*
X17120938Y-9944173D01*
X17120938Y-9944173D02*
X17216176Y-9848935D01*
X17216176Y-9848935D02*
X17406652Y-9801316D01*
X17406652Y-9801316D02*
X17739985Y-9801316D01*
X17739985Y-9801316D02*
X17930461Y-9848935D01*
X17930461Y-9848935D02*
X18025700Y-9944173D01*
X18025700Y-9944173D02*
X18073319Y-10039411D01*
X18073319Y-10039411D02*
X18073319Y-10229887D01*
X18073319Y-10229887D02*
X18025700Y-10325125D01*
X18025700Y-10325125D02*
X17930461Y-10420363D01*
X17930461Y-10420363D02*
X17739985Y-10467982D01*
X17739985Y-10467982D02*
X17406652Y-10467982D01*
X17406652Y-10467982D02*
X17216176Y-10420363D01*
X17216176Y-10420363D02*
X17120938Y-10325125D01*
X17120938Y-10325125D02*
X17073319Y-10229887D01*
X18025700Y-9420363D02*
X18073319Y-9277506D01*
X18073319Y-9277506D02*
X18073319Y-9039411D01*
X18073319Y-9039411D02*
X18025700Y-8944173D01*
X18025700Y-8944173D02*
X17978080Y-8896554D01*
X17978080Y-8896554D02*
X17882842Y-8848935D01*
X17882842Y-8848935D02*
X17787604Y-8848935D01*
X17787604Y-8848935D02*
X17692366Y-8896554D01*
X17692366Y-8896554D02*
X17644747Y-8944173D01*
X17644747Y-8944173D02*
X17597128Y-9039411D01*
X17597128Y-9039411D02*
X17549509Y-9229887D01*
X17549509Y-9229887D02*
X17501890Y-9325125D01*
X17501890Y-9325125D02*
X17454271Y-9372744D01*
X17454271Y-9372744D02*
X17359033Y-9420363D01*
X17359033Y-9420363D02*
X17263795Y-9420363D01*
X17263795Y-9420363D02*
X17168557Y-9372744D01*
X17168557Y-9372744D02*
X17120938Y-9325125D01*
X17120938Y-9325125D02*
X17073319Y-9229887D01*
X17073319Y-9229887D02*
X17073319Y-8991792D01*
X17073319Y-8991792D02*
X17120938Y-8848935D01*
X18073319Y-8420363D02*
X17073319Y-8420363D01*
X28178080Y-11291792D02*
X28225700Y-11339411D01*
X28225700Y-11339411D02*
X28273319Y-11482268D01*
X28273319Y-11482268D02*
X28273319Y-11577506D01*
X28273319Y-11577506D02*
X28225700Y-11720363D01*
X28225700Y-11720363D02*
X28130461Y-11815601D01*
X28130461Y-11815601D02*
X28035223Y-11863220D01*
X28035223Y-11863220D02*
X27844747Y-11910839D01*
X27844747Y-11910839D02*
X27701890Y-11910839D01*
X27701890Y-11910839D02*
X27511414Y-11863220D01*
X27511414Y-11863220D02*
X27416176Y-11815601D01*
X27416176Y-11815601D02*
X27320938Y-11720363D01*
X27320938Y-11720363D02*
X27273319Y-11577506D01*
X27273319Y-11577506D02*
X27273319Y-11482268D01*
X27273319Y-11482268D02*
X27320938Y-11339411D01*
X27320938Y-11339411D02*
X27368557Y-11291792D01*
X28225700Y-10910839D02*
X28273319Y-10767982D01*
X28273319Y-10767982D02*
X28273319Y-10529887D01*
X28273319Y-10529887D02*
X28225700Y-10434649D01*
X28225700Y-10434649D02*
X28178080Y-10387030D01*
X28178080Y-10387030D02*
X28082842Y-10339411D01*
X28082842Y-10339411D02*
X27987604Y-10339411D01*
X27987604Y-10339411D02*
X27892366Y-10387030D01*
X27892366Y-10387030D02*
X27844747Y-10434649D01*
X27844747Y-10434649D02*
X27797128Y-10529887D01*
X27797128Y-10529887D02*
X27749509Y-10720363D01*
X27749509Y-10720363D02*
X27701890Y-10815601D01*
X27701890Y-10815601D02*
X27654271Y-10863220D01*
X27654271Y-10863220D02*
X27559033Y-10910839D01*
X27559033Y-10910839D02*
X27463795Y-10910839D01*
X27463795Y-10910839D02*
X27368557Y-10863220D01*
X27368557Y-10863220D02*
X27320938Y-10815601D01*
X27320938Y-10815601D02*
X27273319Y-10720363D01*
X27273319Y-10720363D02*
X27273319Y-10482268D01*
X27273319Y-10482268D02*
X27320938Y-10339411D01*
X28178080Y-9339411D02*
X28225700Y-9387030D01*
X28225700Y-9387030D02*
X28273319Y-9529887D01*
X28273319Y-9529887D02*
X28273319Y-9625125D01*
X28273319Y-9625125D02*
X28225700Y-9767982D01*
X28225700Y-9767982D02*
X28130461Y-9863220D01*
X28130461Y-9863220D02*
X28035223Y-9910839D01*
X28035223Y-9910839D02*
X27844747Y-9958458D01*
X27844747Y-9958458D02*
X27701890Y-9958458D01*
X27701890Y-9958458D02*
X27511414Y-9910839D01*
X27511414Y-9910839D02*
X27416176Y-9863220D01*
X27416176Y-9863220D02*
X27320938Y-9767982D01*
X27320938Y-9767982D02*
X27273319Y-9625125D01*
X27273319Y-9625125D02*
X27273319Y-9529887D01*
X27273319Y-9529887D02*
X27320938Y-9387030D01*
X27320938Y-9387030D02*
X27368557Y-9339411D01*
X28273319Y-8910839D02*
X27273319Y-8910839D01*
X28273319Y-8339411D02*
X27701890Y-8767982D01*
X27273319Y-8339411D02*
X27844747Y-8910839D01*
X25678080Y-10791792D02*
X25725700Y-10839411D01*
X25725700Y-10839411D02*
X25773319Y-10982268D01*
X25773319Y-10982268D02*
X25773319Y-11077506D01*
X25773319Y-11077506D02*
X25725700Y-11220363D01*
X25725700Y-11220363D02*
X25630461Y-11315601D01*
X25630461Y-11315601D02*
X25535223Y-11363220D01*
X25535223Y-11363220D02*
X25344747Y-11410839D01*
X25344747Y-11410839D02*
X25201890Y-11410839D01*
X25201890Y-11410839D02*
X25011414Y-11363220D01*
X25011414Y-11363220D02*
X24916176Y-11315601D01*
X24916176Y-11315601D02*
X24820938Y-11220363D01*
X24820938Y-11220363D02*
X24773319Y-11077506D01*
X24773319Y-11077506D02*
X24773319Y-10982268D01*
X24773319Y-10982268D02*
X24820938Y-10839411D01*
X24820938Y-10839411D02*
X24868557Y-10791792D01*
X25725700Y-10410839D02*
X25773319Y-10267982D01*
X25773319Y-10267982D02*
X25773319Y-10029887D01*
X25773319Y-10029887D02*
X25725700Y-9934649D01*
X25725700Y-9934649D02*
X25678080Y-9887030D01*
X25678080Y-9887030D02*
X25582842Y-9839411D01*
X25582842Y-9839411D02*
X25487604Y-9839411D01*
X25487604Y-9839411D02*
X25392366Y-9887030D01*
X25392366Y-9887030D02*
X25344747Y-9934649D01*
X25344747Y-9934649D02*
X25297128Y-10029887D01*
X25297128Y-10029887D02*
X25249509Y-10220363D01*
X25249509Y-10220363D02*
X25201890Y-10315601D01*
X25201890Y-10315601D02*
X25154271Y-10363220D01*
X25154271Y-10363220D02*
X25059033Y-10410839D01*
X25059033Y-10410839D02*
X24963795Y-10410839D01*
X24963795Y-10410839D02*
X24868557Y-10363220D01*
X24868557Y-10363220D02*
X24820938Y-10315601D01*
X24820938Y-10315601D02*
X24773319Y-10220363D01*
X24773319Y-10220363D02*
X24773319Y-9982268D01*
X24773319Y-9982268D02*
X24820938Y-9839411D01*
X24773319Y-9220363D02*
X24773319Y-9029887D01*
X24773319Y-9029887D02*
X24820938Y-8934649D01*
X24820938Y-8934649D02*
X24916176Y-8839411D01*
X24916176Y-8839411D02*
X25106652Y-8791792D01*
X25106652Y-8791792D02*
X25439985Y-8791792D01*
X25439985Y-8791792D02*
X25630461Y-8839411D01*
X25630461Y-8839411D02*
X25725700Y-8934649D01*
X25725700Y-8934649D02*
X25773319Y-9029887D01*
X25773319Y-9029887D02*
X25773319Y-9220363D01*
X25773319Y-9220363D02*
X25725700Y-9315601D01*
X25725700Y-9315601D02*
X25630461Y-9410839D01*
X25630461Y-9410839D02*
X25439985Y-9458458D01*
X25439985Y-9458458D02*
X25106652Y-9458458D01*
X25106652Y-9458458D02*
X24916176Y-9410839D01*
X24916176Y-9410839D02*
X24820938Y-9315601D01*
X24820938Y-9315601D02*
X24773319Y-9220363D01*
X24773319Y-8363220D02*
X25582842Y-8363220D01*
X25582842Y-8363220D02*
X25678080Y-8315601D01*
X25678080Y-8315601D02*
X25725700Y-8267982D01*
X25725700Y-8267982D02*
X25773319Y-8172744D01*
X25773319Y-8172744D02*
X25773319Y-7982268D01*
X25773319Y-7982268D02*
X25725700Y-7887030D01*
X25725700Y-7887030D02*
X25678080Y-7839411D01*
X25678080Y-7839411D02*
X25582842Y-7791792D01*
X25582842Y-7791792D02*
X24773319Y-7791792D01*
X24773319Y-7458458D02*
X24773319Y-6887030D01*
X25773319Y-7172744D02*
X24773319Y-7172744D01*
X12592366Y-11063220D02*
X12592366Y-10301316D01*
X12973319Y-10682268D02*
X12211414Y-10682268D01*
X11973319Y-9348935D02*
X11973319Y-9825125D01*
X11973319Y-9825125D02*
X12449509Y-9872744D01*
X12449509Y-9872744D02*
X12401890Y-9825125D01*
X12401890Y-9825125D02*
X12354271Y-9729887D01*
X12354271Y-9729887D02*
X12354271Y-9491792D01*
X12354271Y-9491792D02*
X12401890Y-9396554D01*
X12401890Y-9396554D02*
X12449509Y-9348935D01*
X12449509Y-9348935D02*
X12544747Y-9301316D01*
X12544747Y-9301316D02*
X12782842Y-9301316D01*
X12782842Y-9301316D02*
X12878080Y-9348935D01*
X12878080Y-9348935D02*
X12925700Y-9396554D01*
X12925700Y-9396554D02*
X12973319Y-9491792D01*
X12973319Y-9491792D02*
X12973319Y-9729887D01*
X12973319Y-9729887D02*
X12925700Y-9825125D01*
X12925700Y-9825125D02*
X12878080Y-9872744D01*
X11973319Y-9015601D02*
X12973319Y-8682268D01*
X12973319Y-8682268D02*
X11973319Y-8348935D01*
X14620938Y-10439411D02*
X14573319Y-10534649D01*
X14573319Y-10534649D02*
X14573319Y-10677506D01*
X14573319Y-10677506D02*
X14620938Y-10820363D01*
X14620938Y-10820363D02*
X14716176Y-10915601D01*
X14716176Y-10915601D02*
X14811414Y-10963220D01*
X14811414Y-10963220D02*
X15001890Y-11010839D01*
X15001890Y-11010839D02*
X15144747Y-11010839D01*
X15144747Y-11010839D02*
X15335223Y-10963220D01*
X15335223Y-10963220D02*
X15430461Y-10915601D01*
X15430461Y-10915601D02*
X15525700Y-10820363D01*
X15525700Y-10820363D02*
X15573319Y-10677506D01*
X15573319Y-10677506D02*
X15573319Y-10582268D01*
X15573319Y-10582268D02*
X15525700Y-10439411D01*
X15525700Y-10439411D02*
X15478080Y-10391792D01*
X15478080Y-10391792D02*
X15144747Y-10391792D01*
X15144747Y-10391792D02*
X15144747Y-10582268D01*
X15573319Y-9963220D02*
X14573319Y-9963220D01*
X14573319Y-9963220D02*
X15573319Y-9391792D01*
X15573319Y-9391792D02*
X14573319Y-9391792D01*
X15573319Y-8915601D02*
X14573319Y-8915601D01*
X14573319Y-8915601D02*
X14573319Y-8677506D01*
X14573319Y-8677506D02*
X14620938Y-8534649D01*
X14620938Y-8534649D02*
X14716176Y-8439411D01*
X14716176Y-8439411D02*
X14811414Y-8391792D01*
X14811414Y-8391792D02*
X15001890Y-8344173D01*
X15001890Y-8344173D02*
X15144747Y-8344173D01*
X15144747Y-8344173D02*
X15335223Y-8391792D01*
X15335223Y-8391792D02*
X15430461Y-8439411D01*
X15430461Y-8439411D02*
X15525700Y-8534649D01*
X15525700Y-8534649D02*
X15573319Y-8677506D01*
X15573319Y-8677506D02*
X15573319Y-8915601D01*
X51369819Y-12463220D02*
X50369819Y-12463220D01*
X50465057Y-12034649D02*
X50417438Y-11987030D01*
X50417438Y-11987030D02*
X50369819Y-11891792D01*
X50369819Y-11891792D02*
X50369819Y-11653697D01*
X50369819Y-11653697D02*
X50417438Y-11558459D01*
X50417438Y-11558459D02*
X50465057Y-11510840D01*
X50465057Y-11510840D02*
X50560295Y-11463221D01*
X50560295Y-11463221D02*
X50655533Y-11463221D01*
X50655533Y-11463221D02*
X50798390Y-11510840D01*
X50798390Y-11510840D02*
X51369819Y-12082268D01*
X51369819Y-12082268D02*
X51369819Y-11463221D01*
X51274580Y-10463221D02*
X51322200Y-10510840D01*
X51322200Y-10510840D02*
X51369819Y-10653697D01*
X51369819Y-10653697D02*
X51369819Y-10748935D01*
X51369819Y-10748935D02*
X51322200Y-10891792D01*
X51322200Y-10891792D02*
X51226961Y-10987030D01*
X51226961Y-10987030D02*
X51131723Y-11034649D01*
X51131723Y-11034649D02*
X50941247Y-11082268D01*
X50941247Y-11082268D02*
X50798390Y-11082268D01*
X50798390Y-11082268D02*
X50607914Y-11034649D01*
X50607914Y-11034649D02*
X50512676Y-10987030D01*
X50512676Y-10987030D02*
X50417438Y-10891792D01*
X50417438Y-10891792D02*
X50369819Y-10748935D01*
X50369819Y-10748935D02*
X50369819Y-10653697D01*
X50369819Y-10653697D02*
X50417438Y-10510840D01*
X50417438Y-10510840D02*
X50465057Y-10463221D01*
X50369819Y-9844173D02*
X50369819Y-9748935D01*
X50369819Y-9748935D02*
X50417438Y-9653697D01*
X50417438Y-9653697D02*
X50465057Y-9606078D01*
X50465057Y-9606078D02*
X50560295Y-9558459D01*
X50560295Y-9558459D02*
X50750771Y-9510840D01*
X50750771Y-9510840D02*
X50988866Y-9510840D01*
X50988866Y-9510840D02*
X51179342Y-9558459D01*
X51179342Y-9558459D02*
X51274580Y-9606078D01*
X51274580Y-9606078D02*
X51322200Y-9653697D01*
X51322200Y-9653697D02*
X51369819Y-9748935D01*
X51369819Y-9748935D02*
X51369819Y-9844173D01*
X51369819Y-9844173D02*
X51322200Y-9939411D01*
X51322200Y-9939411D02*
X51274580Y-9987030D01*
X51274580Y-9987030D02*
X51179342Y-10034649D01*
X51179342Y-10034649D02*
X50988866Y-10082268D01*
X50988866Y-10082268D02*
X50750771Y-10082268D01*
X50750771Y-10082268D02*
X50560295Y-10034649D01*
X50560295Y-10034649D02*
X50465057Y-9987030D01*
X50465057Y-9987030D02*
X50417438Y-9939411D01*
X50417438Y-9939411D02*
X50369819Y-9844173D01*
X51269819Y-6063220D02*
X50269819Y-6063220D01*
X50365057Y-5634649D02*
X50317438Y-5587030D01*
X50317438Y-5587030D02*
X50269819Y-5491792D01*
X50269819Y-5491792D02*
X50269819Y-5253697D01*
X50269819Y-5253697D02*
X50317438Y-5158459D01*
X50317438Y-5158459D02*
X50365057Y-5110840D01*
X50365057Y-5110840D02*
X50460295Y-5063221D01*
X50460295Y-5063221D02*
X50555533Y-5063221D01*
X50555533Y-5063221D02*
X50698390Y-5110840D01*
X50698390Y-5110840D02*
X51269819Y-5682268D01*
X51269819Y-5682268D02*
X51269819Y-5063221D01*
X51174580Y-4063221D02*
X51222200Y-4110840D01*
X51222200Y-4110840D02*
X51269819Y-4253697D01*
X51269819Y-4253697D02*
X51269819Y-4348935D01*
X51269819Y-4348935D02*
X51222200Y-4491792D01*
X51222200Y-4491792D02*
X51126961Y-4587030D01*
X51126961Y-4587030D02*
X51031723Y-4634649D01*
X51031723Y-4634649D02*
X50841247Y-4682268D01*
X50841247Y-4682268D02*
X50698390Y-4682268D01*
X50698390Y-4682268D02*
X50507914Y-4634649D01*
X50507914Y-4634649D02*
X50412676Y-4587030D01*
X50412676Y-4587030D02*
X50317438Y-4491792D01*
X50317438Y-4491792D02*
X50269819Y-4348935D01*
X50269819Y-4348935D02*
X50269819Y-4253697D01*
X50269819Y-4253697D02*
X50317438Y-4110840D01*
X50317438Y-4110840D02*
X50365057Y-4063221D01*
X51269819Y-3110840D02*
X51269819Y-3682268D01*
X51269819Y-3396554D02*
X50269819Y-3396554D01*
X50269819Y-3396554D02*
X50412676Y-3491792D01*
X50412676Y-3491792D02*
X50507914Y-3587030D01*
X50507914Y-3587030D02*
X50555533Y-3682268D01*
X30312969Y-7869819D02*
X29836779Y-7869819D01*
X29836779Y-7869819D02*
X29836779Y-6869819D01*
X30646303Y-7346009D02*
X30979636Y-7346009D01*
X31122493Y-7869819D02*
X30646303Y-7869819D01*
X30646303Y-7869819D02*
X30646303Y-6869819D01*
X30646303Y-6869819D02*
X31122493Y-6869819D01*
X31551065Y-7869819D02*
X31551065Y-6869819D01*
X31551065Y-6869819D02*
X31789160Y-6869819D01*
X31789160Y-6869819D02*
X31932017Y-6917438D01*
X31932017Y-6917438D02*
X32027255Y-7012676D01*
X32027255Y-7012676D02*
X32074874Y-7107914D01*
X32074874Y-7107914D02*
X32122493Y-7298390D01*
X32122493Y-7298390D02*
X32122493Y-7441247D01*
X32122493Y-7441247D02*
X32074874Y-7631723D01*
X32074874Y-7631723D02*
X32027255Y-7726961D01*
X32027255Y-7726961D02*
X31932017Y-7822200D01*
X31932017Y-7822200D02*
X31789160Y-7869819D01*
X31789160Y-7869819D02*
X31551065Y-7869819D01*
X29536779Y-6369819D02*
X29536779Y-5369819D01*
X29536779Y-5369819D02*
X29917731Y-5369819D01*
X29917731Y-5369819D02*
X30012969Y-5417438D01*
X30012969Y-5417438D02*
X30060588Y-5465057D01*
X30060588Y-5465057D02*
X30108207Y-5560295D01*
X30108207Y-5560295D02*
X30108207Y-5703152D01*
X30108207Y-5703152D02*
X30060588Y-5798390D01*
X30060588Y-5798390D02*
X30012969Y-5846009D01*
X30012969Y-5846009D02*
X29917731Y-5893628D01*
X29917731Y-5893628D02*
X29536779Y-5893628D01*
X30441541Y-5369819D02*
X30679636Y-6369819D01*
X30679636Y-6369819D02*
X30870112Y-5655533D01*
X30870112Y-5655533D02*
X31060588Y-6369819D01*
X31060588Y-6369819D02*
X31298684Y-5369819D01*
X32251064Y-6369819D02*
X31917731Y-5893628D01*
X31679636Y-6369819D02*
X31679636Y-5369819D01*
X31679636Y-5369819D02*
X32060588Y-5369819D01*
X32060588Y-5369819D02*
X32155826Y-5417438D01*
X32155826Y-5417438D02*
X32203445Y-5465057D01*
X32203445Y-5465057D02*
X32251064Y-5560295D01*
X32251064Y-5560295D02*
X32251064Y-5703152D01*
X32251064Y-5703152D02*
X32203445Y-5798390D01*
X32203445Y-5798390D02*
X32155826Y-5846009D01*
X32155826Y-5846009D02*
X32060588Y-5893628D01*
X32060588Y-5893628D02*
X31679636Y-5893628D01*
X40969819Y-21963220D02*
X39969819Y-21963220D01*
X39969819Y-21963220D02*
X40684104Y-21629887D01*
X40684104Y-21629887D02*
X39969819Y-21296554D01*
X39969819Y-21296554D02*
X40969819Y-21296554D01*
X39969819Y-20963220D02*
X39969819Y-20391792D01*
X40969819Y-20677506D02*
X39969819Y-20677506D01*
X40969819Y-19487030D02*
X40493628Y-19820363D01*
X40969819Y-20058458D02*
X39969819Y-20058458D01*
X39969819Y-20058458D02*
X39969819Y-19677506D01*
X39969819Y-19677506D02*
X40017438Y-19582268D01*
X40017438Y-19582268D02*
X40065057Y-19534649D01*
X40065057Y-19534649D02*
X40160295Y-19487030D01*
X40160295Y-19487030D02*
X40303152Y-19487030D01*
X40303152Y-19487030D02*
X40398390Y-19534649D01*
X40398390Y-19534649D02*
X40446009Y-19582268D01*
X40446009Y-19582268D02*
X40493628Y-19677506D01*
X40493628Y-19677506D02*
X40493628Y-20058458D01*
X40969819Y-18534649D02*
X40969819Y-19106077D01*
X40969819Y-18820363D02*
X39969819Y-18820363D01*
X39969819Y-18820363D02*
X40112676Y-18915601D01*
X40112676Y-18915601D02*
X40207914Y-19010839D01*
X40207914Y-19010839D02*
X40255533Y-19106077D01*
X40969819Y-35363220D02*
X39969819Y-35363220D01*
X39969819Y-35363220D02*
X40684104Y-35029887D01*
X40684104Y-35029887D02*
X39969819Y-34696554D01*
X39969819Y-34696554D02*
X40969819Y-34696554D01*
X39969819Y-34363220D02*
X39969819Y-33791792D01*
X40969819Y-34077506D02*
X39969819Y-34077506D01*
X40969819Y-32887030D02*
X40493628Y-33220363D01*
X40969819Y-33458458D02*
X39969819Y-33458458D01*
X39969819Y-33458458D02*
X39969819Y-33077506D01*
X39969819Y-33077506D02*
X40017438Y-32982268D01*
X40017438Y-32982268D02*
X40065057Y-32934649D01*
X40065057Y-32934649D02*
X40160295Y-32887030D01*
X40160295Y-32887030D02*
X40303152Y-32887030D01*
X40303152Y-32887030D02*
X40398390Y-32934649D01*
X40398390Y-32934649D02*
X40446009Y-32982268D01*
X40446009Y-32982268D02*
X40493628Y-33077506D01*
X40493628Y-33077506D02*
X40493628Y-33458458D01*
X39969819Y-32267982D02*
X39969819Y-32172744D01*
X39969819Y-32172744D02*
X40017438Y-32077506D01*
X40017438Y-32077506D02*
X40065057Y-32029887D01*
X40065057Y-32029887D02*
X40160295Y-31982268D01*
X40160295Y-31982268D02*
X40350771Y-31934649D01*
X40350771Y-31934649D02*
X40588866Y-31934649D01*
X40588866Y-31934649D02*
X40779342Y-31982268D01*
X40779342Y-31982268D02*
X40874580Y-32029887D01*
X40874580Y-32029887D02*
X40922200Y-32077506D01*
X40922200Y-32077506D02*
X40969819Y-32172744D01*
X40969819Y-32172744D02*
X40969819Y-32267982D01*
X40969819Y-32267982D02*
X40922200Y-32363220D01*
X40922200Y-32363220D02*
X40874580Y-32410839D01*
X40874580Y-32410839D02*
X40779342Y-32458458D01*
X40779342Y-32458458D02*
X40588866Y-32506077D01*
X40588866Y-32506077D02*
X40350771Y-32506077D01*
X40350771Y-32506077D02*
X40160295Y-32458458D01*
X40160295Y-32458458D02*
X40065057Y-32410839D01*
X40065057Y-32410839D02*
X40017438Y-32363220D01*
X40017438Y-32363220D02*
X39969819Y-32267982D01*
X19546009Y-23063220D02*
X19546009Y-22729887D01*
X20069819Y-22587030D02*
X20069819Y-23063220D01*
X20069819Y-23063220D02*
X19069819Y-23063220D01*
X19069819Y-23063220D02*
X19069819Y-22587030D01*
X20022200Y-22206077D02*
X20069819Y-22063220D01*
X20069819Y-22063220D02*
X20069819Y-21825125D01*
X20069819Y-21825125D02*
X20022200Y-21729887D01*
X20022200Y-21729887D02*
X19974580Y-21682268D01*
X19974580Y-21682268D02*
X19879342Y-21634649D01*
X19879342Y-21634649D02*
X19784104Y-21634649D01*
X19784104Y-21634649D02*
X19688866Y-21682268D01*
X19688866Y-21682268D02*
X19641247Y-21729887D01*
X19641247Y-21729887D02*
X19593628Y-21825125D01*
X19593628Y-21825125D02*
X19546009Y-22015601D01*
X19546009Y-22015601D02*
X19498390Y-22110839D01*
X19498390Y-22110839D02*
X19450771Y-22158458D01*
X19450771Y-22158458D02*
X19355533Y-22206077D01*
X19355533Y-22206077D02*
X19260295Y-22206077D01*
X19260295Y-22206077D02*
X19165057Y-22158458D01*
X19165057Y-22158458D02*
X19117438Y-22110839D01*
X19117438Y-22110839D02*
X19069819Y-22015601D01*
X19069819Y-22015601D02*
X19069819Y-21777506D01*
X19069819Y-21777506D02*
X19117438Y-21634649D01*
X20069819Y-21206077D02*
X19069819Y-21206077D01*
X19069819Y-21206077D02*
X19069819Y-20825125D01*
X19069819Y-20825125D02*
X19117438Y-20729887D01*
X19117438Y-20729887D02*
X19165057Y-20682268D01*
X19165057Y-20682268D02*
X19260295Y-20634649D01*
X19260295Y-20634649D02*
X19403152Y-20634649D01*
X19403152Y-20634649D02*
X19498390Y-20682268D01*
X19498390Y-20682268D02*
X19546009Y-20729887D01*
X19546009Y-20729887D02*
X19593628Y-20825125D01*
X19593628Y-20825125D02*
X19593628Y-21206077D01*
X19069819Y-20301315D02*
X19069819Y-19682268D01*
X19069819Y-19682268D02*
X19450771Y-20015601D01*
X19450771Y-20015601D02*
X19450771Y-19872744D01*
X19450771Y-19872744D02*
X19498390Y-19777506D01*
X19498390Y-19777506D02*
X19546009Y-19729887D01*
X19546009Y-19729887D02*
X19641247Y-19682268D01*
X19641247Y-19682268D02*
X19879342Y-19682268D01*
X19879342Y-19682268D02*
X19974580Y-19729887D01*
X19974580Y-19729887D02*
X20022200Y-19777506D01*
X20022200Y-19777506D02*
X20069819Y-19872744D01*
X20069819Y-19872744D02*
X20069819Y-20158458D01*
X20069819Y-20158458D02*
X20022200Y-20253696D01*
X20022200Y-20253696D02*
X19974580Y-20301315D01*
X19165057Y-19301315D02*
X19117438Y-19253696D01*
X19117438Y-19253696D02*
X19069819Y-19158458D01*
X19069819Y-19158458D02*
X19069819Y-18920363D01*
X19069819Y-18920363D02*
X19117438Y-18825125D01*
X19117438Y-18825125D02*
X19165057Y-18777506D01*
X19165057Y-18777506D02*
X19260295Y-18729887D01*
X19260295Y-18729887D02*
X19355533Y-18729887D01*
X19355533Y-18729887D02*
X19498390Y-18777506D01*
X19498390Y-18777506D02*
X20069819Y-19348934D01*
X20069819Y-19348934D02*
X20069819Y-18729887D01*
X16236779Y-41146009D02*
X16570112Y-41146009D01*
X16712969Y-41669819D02*
X16236779Y-41669819D01*
X16236779Y-41669819D02*
X16236779Y-40669819D01*
X16236779Y-40669819D02*
X16712969Y-40669819D01*
X17141541Y-41669819D02*
X17141541Y-40669819D01*
X17141541Y-40669819D02*
X17712969Y-41669819D01*
X17712969Y-41669819D02*
X17712969Y-40669819D01*
X15470112Y-946009D02*
X15612969Y-993628D01*
X15612969Y-993628D02*
X15660588Y-1041247D01*
X15660588Y-1041247D02*
X15708207Y-1136485D01*
X15708207Y-1136485D02*
X15708207Y-1279342D01*
X15708207Y-1279342D02*
X15660588Y-1374580D01*
X15660588Y-1374580D02*
X15612969Y-1422200D01*
X15612969Y-1422200D02*
X15517731Y-1469819D01*
X15517731Y-1469819D02*
X15136779Y-1469819D01*
X15136779Y-1469819D02*
X15136779Y-469819D01*
X15136779Y-469819D02*
X15470112Y-469819D01*
X15470112Y-469819D02*
X15565350Y-517438D01*
X15565350Y-517438D02*
X15612969Y-565057D01*
X15612969Y-565057D02*
X15660588Y-660295D01*
X15660588Y-660295D02*
X15660588Y-755533D01*
X15660588Y-755533D02*
X15612969Y-850771D01*
X15612969Y-850771D02*
X15565350Y-898390D01*
X15565350Y-898390D02*
X15470112Y-946009D01*
X15470112Y-946009D02*
X15136779Y-946009D01*
X16327255Y-469819D02*
X16517731Y-469819D01*
X16517731Y-469819D02*
X16612969Y-517438D01*
X16612969Y-517438D02*
X16708207Y-612676D01*
X16708207Y-612676D02*
X16755826Y-803152D01*
X16755826Y-803152D02*
X16755826Y-1136485D01*
X16755826Y-1136485D02*
X16708207Y-1326961D01*
X16708207Y-1326961D02*
X16612969Y-1422200D01*
X16612969Y-1422200D02*
X16517731Y-1469819D01*
X16517731Y-1469819D02*
X16327255Y-1469819D01*
X16327255Y-1469819D02*
X16232017Y-1422200D01*
X16232017Y-1422200D02*
X16136779Y-1326961D01*
X16136779Y-1326961D02*
X16089160Y-1136485D01*
X16089160Y-1136485D02*
X16089160Y-803152D01*
X16089160Y-803152D02*
X16136779Y-612676D01*
X16136779Y-612676D02*
X16232017Y-517438D01*
X16232017Y-517438D02*
X16327255Y-469819D01*
X17374874Y-469819D02*
X17565350Y-469819D01*
X17565350Y-469819D02*
X17660588Y-517438D01*
X17660588Y-517438D02*
X17755826Y-612676D01*
X17755826Y-612676D02*
X17803445Y-803152D01*
X17803445Y-803152D02*
X17803445Y-1136485D01*
X17803445Y-1136485D02*
X17755826Y-1326961D01*
X17755826Y-1326961D02*
X17660588Y-1422200D01*
X17660588Y-1422200D02*
X17565350Y-1469819D01*
X17565350Y-1469819D02*
X17374874Y-1469819D01*
X17374874Y-1469819D02*
X17279636Y-1422200D01*
X17279636Y-1422200D02*
X17184398Y-1326961D01*
X17184398Y-1326961D02*
X17136779Y-1136485D01*
X17136779Y-1136485D02*
X17136779Y-803152D01*
X17136779Y-803152D02*
X17184398Y-612676D01*
X17184398Y-612676D02*
X17279636Y-517438D01*
X17279636Y-517438D02*
X17374874Y-469819D01*
X18089160Y-469819D02*
X18660588Y-469819D01*
X18374874Y-1469819D02*
X18374874Y-469819D01*
X40546009Y-27929887D02*
X40546009Y-28263220D01*
X41069819Y-28263220D02*
X40069819Y-28263220D01*
X40069819Y-28263220D02*
X40069819Y-27787030D01*
X40784104Y-27453696D02*
X40784104Y-26977506D01*
X41069819Y-27548934D02*
X40069819Y-27215601D01*
X40069819Y-27215601D02*
X41069819Y-26882268D01*
X40069819Y-26548934D02*
X40879342Y-26548934D01*
X40879342Y-26548934D02*
X40974580Y-26501315D01*
X40974580Y-26501315D02*
X41022200Y-26453696D01*
X41022200Y-26453696D02*
X41069819Y-26358458D01*
X41069819Y-26358458D02*
X41069819Y-26167982D01*
X41069819Y-26167982D02*
X41022200Y-26072744D01*
X41022200Y-26072744D02*
X40974580Y-26025125D01*
X40974580Y-26025125D02*
X40879342Y-25977506D01*
X40879342Y-25977506D02*
X40069819Y-25977506D01*
X41069819Y-25025125D02*
X41069819Y-25501315D01*
X41069819Y-25501315D02*
X40069819Y-25501315D01*
X40069819Y-24834648D02*
X40069819Y-24263220D01*
X41069819Y-24548934D02*
X40069819Y-24548934D01*
X40546009Y-14529887D02*
X40546009Y-14863220D01*
X41069819Y-14863220D02*
X40069819Y-14863220D01*
X40069819Y-14863220D02*
X40069819Y-14387030D01*
X40784104Y-14053696D02*
X40784104Y-13577506D01*
X41069819Y-14148934D02*
X40069819Y-13815601D01*
X40069819Y-13815601D02*
X41069819Y-13482268D01*
X40069819Y-13148934D02*
X40879342Y-13148934D01*
X40879342Y-13148934D02*
X40974580Y-13101315D01*
X40974580Y-13101315D02*
X41022200Y-13053696D01*
X41022200Y-13053696D02*
X41069819Y-12958458D01*
X41069819Y-12958458D02*
X41069819Y-12767982D01*
X41069819Y-12767982D02*
X41022200Y-12672744D01*
X41022200Y-12672744D02*
X40974580Y-12625125D01*
X40974580Y-12625125D02*
X40879342Y-12577506D01*
X40879342Y-12577506D02*
X40069819Y-12577506D01*
X41069819Y-11625125D02*
X41069819Y-12101315D01*
X41069819Y-12101315D02*
X40069819Y-12101315D01*
X40069819Y-11434648D02*
X40069819Y-10863220D01*
X41069819Y-11148934D02*
X40069819Y-11148934D01*
X9480952Y-18454819D02*
X9147619Y-17978628D01*
X8909524Y-18454819D02*
X8909524Y-17454819D01*
X8909524Y-17454819D02*
X9290476Y-17454819D01*
X9290476Y-17454819D02*
X9385714Y-17502438D01*
X9385714Y-17502438D02*
X9433333Y-17550057D01*
X9433333Y-17550057D02*
X9480952Y-17645295D01*
X9480952Y-17645295D02*
X9480952Y-17788152D01*
X9480952Y-17788152D02*
X9433333Y-17883390D01*
X9433333Y-17883390D02*
X9385714Y-17931009D01*
X9385714Y-17931009D02*
X9290476Y-17978628D01*
X9290476Y-17978628D02*
X8909524Y-17978628D01*
X10433333Y-18454819D02*
X9861905Y-18454819D01*
X10147619Y-18454819D02*
X10147619Y-17454819D01*
X10147619Y-17454819D02*
X10052381Y-17597676D01*
X10052381Y-17597676D02*
X9957143Y-17692914D01*
X9957143Y-17692914D02*
X9861905Y-17740533D01*
X11052381Y-17454819D02*
X11147619Y-17454819D01*
X11147619Y-17454819D02*
X11242857Y-17502438D01*
X11242857Y-17502438D02*
X11290476Y-17550057D01*
X11290476Y-17550057D02*
X11338095Y-17645295D01*
X11338095Y-17645295D02*
X11385714Y-17835771D01*
X11385714Y-17835771D02*
X11385714Y-18073866D01*
X11385714Y-18073866D02*
X11338095Y-18264342D01*
X11338095Y-18264342D02*
X11290476Y-18359580D01*
X11290476Y-18359580D02*
X11242857Y-18407200D01*
X11242857Y-18407200D02*
X11147619Y-18454819D01*
X11147619Y-18454819D02*
X11052381Y-18454819D01*
X11052381Y-18454819D02*
X10957143Y-18407200D01*
X10957143Y-18407200D02*
X10909524Y-18359580D01*
X10909524Y-18359580D02*
X10861905Y-18264342D01*
X10861905Y-18264342D02*
X10814286Y-18073866D01*
X10814286Y-18073866D02*
X10814286Y-17835771D01*
X10814286Y-17835771D02*
X10861905Y-17645295D01*
X10861905Y-17645295D02*
X10909524Y-17550057D01*
X10909524Y-17550057D02*
X10957143Y-17502438D01*
X10957143Y-17502438D02*
X11052381Y-17454819D01*
X11766667Y-17550057D02*
X11814286Y-17502438D01*
X11814286Y-17502438D02*
X11909524Y-17454819D01*
X11909524Y-17454819D02*
X12147619Y-17454819D01*
X12147619Y-17454819D02*
X12242857Y-17502438D01*
X12242857Y-17502438D02*
X12290476Y-17550057D01*
X12290476Y-17550057D02*
X12338095Y-17645295D01*
X12338095Y-17645295D02*
X12338095Y-17740533D01*
X12338095Y-17740533D02*
X12290476Y-17883390D01*
X12290476Y-17883390D02*
X11719048Y-18454819D01*
X11719048Y-18454819D02*
X12338095Y-18454819D01*
X25854180Y-3119047D02*
X25901800Y-3166666D01*
X25901800Y-3166666D02*
X25949419Y-3309523D01*
X25949419Y-3309523D02*
X25949419Y-3404761D01*
X25949419Y-3404761D02*
X25901800Y-3547618D01*
X25901800Y-3547618D02*
X25806561Y-3642856D01*
X25806561Y-3642856D02*
X25711323Y-3690475D01*
X25711323Y-3690475D02*
X25520847Y-3738094D01*
X25520847Y-3738094D02*
X25377990Y-3738094D01*
X25377990Y-3738094D02*
X25187514Y-3690475D01*
X25187514Y-3690475D02*
X25092276Y-3642856D01*
X25092276Y-3642856D02*
X24997038Y-3547618D01*
X24997038Y-3547618D02*
X24949419Y-3404761D01*
X24949419Y-3404761D02*
X24949419Y-3309523D01*
X24949419Y-3309523D02*
X24997038Y-3166666D01*
X24997038Y-3166666D02*
X25044657Y-3119047D01*
X25949419Y-2166666D02*
X25949419Y-2738094D01*
X25949419Y-2452380D02*
X24949419Y-2452380D01*
X24949419Y-2452380D02*
X25092276Y-2547618D01*
X25092276Y-2547618D02*
X25187514Y-2642856D01*
X25187514Y-2642856D02*
X25235133Y-2738094D01*
X25949419Y-1214285D02*
X25949419Y-1785713D01*
X25949419Y-1499999D02*
X24949419Y-1499999D01*
X24949419Y-1499999D02*
X25092276Y-1595237D01*
X25092276Y-1595237D02*
X25187514Y-1690475D01*
X25187514Y-1690475D02*
X25235133Y-1785713D01*
X25949419Y-261904D02*
X25949419Y-833332D01*
X25949419Y-547618D02*
X24949419Y-547618D01*
X24949419Y-547618D02*
X25092276Y-642856D01*
X25092276Y-642856D02*
X25187514Y-738094D01*
X25187514Y-738094D02*
X25235133Y-833332D01*
X38159580Y-3196883D02*
X38207200Y-3244502D01*
X38207200Y-3244502D02*
X38254819Y-3387359D01*
X38254819Y-3387359D02*
X38254819Y-3482597D01*
X38254819Y-3482597D02*
X38207200Y-3625454D01*
X38207200Y-3625454D02*
X38111961Y-3720692D01*
X38111961Y-3720692D02*
X38016723Y-3768311D01*
X38016723Y-3768311D02*
X37826247Y-3815930D01*
X37826247Y-3815930D02*
X37683390Y-3815930D01*
X37683390Y-3815930D02*
X37492914Y-3768311D01*
X37492914Y-3768311D02*
X37397676Y-3720692D01*
X37397676Y-3720692D02*
X37302438Y-3625454D01*
X37302438Y-3625454D02*
X37254819Y-3482597D01*
X37254819Y-3482597D02*
X37254819Y-3387359D01*
X37254819Y-3387359D02*
X37302438Y-3244502D01*
X37302438Y-3244502D02*
X37350057Y-3196883D01*
X38254819Y-2244502D02*
X38254819Y-2815930D01*
X38254819Y-2530216D02*
X37254819Y-2530216D01*
X37254819Y-2530216D02*
X37397676Y-2625454D01*
X37397676Y-2625454D02*
X37492914Y-2720692D01*
X37492914Y-2720692D02*
X37540533Y-2815930D01*
X37254819Y-1625454D02*
X37254819Y-1530216D01*
X37254819Y-1530216D02*
X37302438Y-1434978D01*
X37302438Y-1434978D02*
X37350057Y-1387359D01*
X37350057Y-1387359D02*
X37445295Y-1339740D01*
X37445295Y-1339740D02*
X37635771Y-1292121D01*
X37635771Y-1292121D02*
X37873866Y-1292121D01*
X37873866Y-1292121D02*
X38064342Y-1339740D01*
X38064342Y-1339740D02*
X38159580Y-1387359D01*
X38159580Y-1387359D02*
X38207200Y-1434978D01*
X38207200Y-1434978D02*
X38254819Y-1530216D01*
X38254819Y-1530216D02*
X38254819Y-1625454D01*
X38254819Y-1625454D02*
X38207200Y-1720692D01*
X38207200Y-1720692D02*
X38159580Y-1768311D01*
X38159580Y-1768311D02*
X38064342Y-1815930D01*
X38064342Y-1815930D02*
X37873866Y-1863549D01*
X37873866Y-1863549D02*
X37635771Y-1863549D01*
X37635771Y-1863549D02*
X37445295Y-1815930D01*
X37445295Y-1815930D02*
X37350057Y-1768311D01*
X37350057Y-1768311D02*
X37302438Y-1720692D01*
X37302438Y-1720692D02*
X37254819Y-1625454D01*
X38254819Y-815930D02*
X38254819Y-625454D01*
X38254819Y-625454D02*
X38207200Y-530216D01*
X38207200Y-530216D02*
X38159580Y-482597D01*
X38159580Y-482597D02*
X38016723Y-387359D01*
X38016723Y-387359D02*
X37826247Y-339740D01*
X37826247Y-339740D02*
X37445295Y-339740D01*
X37445295Y-339740D02*
X37350057Y-387359D01*
X37350057Y-387359D02*
X37302438Y-434978D01*
X37302438Y-434978D02*
X37254819Y-530216D01*
X37254819Y-530216D02*
X37254819Y-720692D01*
X37254819Y-720692D02*
X37302438Y-815930D01*
X37302438Y-815930D02*
X37350057Y-863549D01*
X37350057Y-863549D02*
X37445295Y-911168D01*
X37445295Y-911168D02*
X37683390Y-911168D01*
X37683390Y-911168D02*
X37778628Y-863549D01*
X37778628Y-863549D02*
X37826247Y-815930D01*
X37826247Y-815930D02*
X37873866Y-720692D01*
X37873866Y-720692D02*
X37873866Y-530216D01*
X37873866Y-530216D02*
X37826247Y-434978D01*
X37826247Y-434978D02*
X37778628Y-387359D01*
X37778628Y-387359D02*
X37683390Y-339740D01*
X3178571Y-34564700D02*
X4321429Y-34564700D01*
X3750000Y-35136128D02*
X3750000Y-33993271D01*
X8178571Y-34614700D02*
X9321429Y-34614700D01*
X1580952Y-28459580D02*
X1533333Y-28507200D01*
X1533333Y-28507200D02*
X1390476Y-28554819D01*
X1390476Y-28554819D02*
X1295238Y-28554819D01*
X1295238Y-28554819D02*
X1152381Y-28507200D01*
X1152381Y-28507200D02*
X1057143Y-28411961D01*
X1057143Y-28411961D02*
X1009524Y-28316723D01*
X1009524Y-28316723D02*
X961905Y-28126247D01*
X961905Y-28126247D02*
X961905Y-27983390D01*
X961905Y-27983390D02*
X1009524Y-27792914D01*
X1009524Y-27792914D02*
X1057143Y-27697676D01*
X1057143Y-27697676D02*
X1152381Y-27602438D01*
X1152381Y-27602438D02*
X1295238Y-27554819D01*
X1295238Y-27554819D02*
X1390476Y-27554819D01*
X1390476Y-27554819D02*
X1533333Y-27602438D01*
X1533333Y-27602438D02*
X1580952Y-27650057D01*
X2533333Y-28554819D02*
X1961905Y-28554819D01*
X2247619Y-28554819D02*
X2247619Y-27554819D01*
X2247619Y-27554819D02*
X2152381Y-27697676D01*
X2152381Y-27697676D02*
X2057143Y-27792914D01*
X2057143Y-27792914D02*
X1961905Y-27840533D01*
X3152381Y-27554819D02*
X3247619Y-27554819D01*
X3247619Y-27554819D02*
X3342857Y-27602438D01*
X3342857Y-27602438D02*
X3390476Y-27650057D01*
X3390476Y-27650057D02*
X3438095Y-27745295D01*
X3438095Y-27745295D02*
X3485714Y-27935771D01*
X3485714Y-27935771D02*
X3485714Y-28173866D01*
X3485714Y-28173866D02*
X3438095Y-28364342D01*
X3438095Y-28364342D02*
X3390476Y-28459580D01*
X3390476Y-28459580D02*
X3342857Y-28507200D01*
X3342857Y-28507200D02*
X3247619Y-28554819D01*
X3247619Y-28554819D02*
X3152381Y-28554819D01*
X3152381Y-28554819D02*
X3057143Y-28507200D01*
X3057143Y-28507200D02*
X3009524Y-28459580D01*
X3009524Y-28459580D02*
X2961905Y-28364342D01*
X2961905Y-28364342D02*
X2914286Y-28173866D01*
X2914286Y-28173866D02*
X2914286Y-27935771D01*
X2914286Y-27935771D02*
X2961905Y-27745295D01*
X2961905Y-27745295D02*
X3009524Y-27650057D01*
X3009524Y-27650057D02*
X3057143Y-27602438D01*
X3057143Y-27602438D02*
X3152381Y-27554819D01*
X4390476Y-27554819D02*
X3914286Y-27554819D01*
X3914286Y-27554819D02*
X3866667Y-28031009D01*
X3866667Y-28031009D02*
X3914286Y-27983390D01*
X3914286Y-27983390D02*
X4009524Y-27935771D01*
X4009524Y-27935771D02*
X4247619Y-27935771D01*
X4247619Y-27935771D02*
X4342857Y-27983390D01*
X4342857Y-27983390D02*
X4390476Y-28031009D01*
X4390476Y-28031009D02*
X4438095Y-28126247D01*
X4438095Y-28126247D02*
X4438095Y-28364342D01*
X4438095Y-28364342D02*
X4390476Y-28459580D01*
X4390476Y-28459580D02*
X4342857Y-28507200D01*
X4342857Y-28507200D02*
X4247619Y-28554819D01*
X4247619Y-28554819D02*
X4009524Y-28554819D01*
X4009524Y-28554819D02*
X3914286Y-28507200D01*
X3914286Y-28507200D02*
X3866667Y-28459580D01*
X29385714Y-4054819D02*
X29385714Y-4864342D01*
X29385714Y-4864342D02*
X29433333Y-4959580D01*
X29433333Y-4959580D02*
X29480952Y-5007200D01*
X29480952Y-5007200D02*
X29576190Y-5054819D01*
X29576190Y-5054819D02*
X29766666Y-5054819D01*
X29766666Y-5054819D02*
X29861904Y-5007200D01*
X29861904Y-5007200D02*
X29909523Y-4959580D01*
X29909523Y-4959580D02*
X29957142Y-4864342D01*
X29957142Y-4864342D02*
X29957142Y-4054819D01*
X30957142Y-5054819D02*
X30385714Y-5054819D01*
X30671428Y-5054819D02*
X30671428Y-4054819D01*
X30671428Y-4054819D02*
X30576190Y-4197676D01*
X30576190Y-4197676D02*
X30480952Y-4292914D01*
X30480952Y-4292914D02*
X30385714Y-4340533D01*
X31576190Y-4054819D02*
X31671428Y-4054819D01*
X31671428Y-4054819D02*
X31766666Y-4102438D01*
X31766666Y-4102438D02*
X31814285Y-4150057D01*
X31814285Y-4150057D02*
X31861904Y-4245295D01*
X31861904Y-4245295D02*
X31909523Y-4435771D01*
X31909523Y-4435771D02*
X31909523Y-4673866D01*
X31909523Y-4673866D02*
X31861904Y-4864342D01*
X31861904Y-4864342D02*
X31814285Y-4959580D01*
X31814285Y-4959580D02*
X31766666Y-5007200D01*
X31766666Y-5007200D02*
X31671428Y-5054819D01*
X31671428Y-5054819D02*
X31576190Y-5054819D01*
X31576190Y-5054819D02*
X31480952Y-5007200D01*
X31480952Y-5007200D02*
X31433333Y-4959580D01*
X31433333Y-4959580D02*
X31385714Y-4864342D01*
X31385714Y-4864342D02*
X31338095Y-4673866D01*
X31338095Y-4673866D02*
X31338095Y-4435771D01*
X31338095Y-4435771D02*
X31385714Y-4245295D01*
X31385714Y-4245295D02*
X31433333Y-4150057D01*
X31433333Y-4150057D02*
X31480952Y-4102438D01*
X31480952Y-4102438D02*
X31576190Y-4054819D01*
X32290476Y-4150057D02*
X32338095Y-4102438D01*
X32338095Y-4102438D02*
X32433333Y-4054819D01*
X32433333Y-4054819D02*
X32671428Y-4054819D01*
X32671428Y-4054819D02*
X32766666Y-4102438D01*
X32766666Y-4102438D02*
X32814285Y-4150057D01*
X32814285Y-4150057D02*
X32861904Y-4245295D01*
X32861904Y-4245295D02*
X32861904Y-4340533D01*
X32861904Y-4340533D02*
X32814285Y-4483390D01*
X32814285Y-4483390D02*
X32242857Y-5054819D01*
X32242857Y-5054819D02*
X32861904Y-5054819D01*
X33117098Y-4245180D02*
X33117098Y-4007085D01*
X33355193Y-4102323D02*
X33117098Y-4007085D01*
X33117098Y-4007085D02*
X32879003Y-4102323D01*
X33259955Y-3816609D02*
X33117098Y-4007085D01*
X33117098Y-4007085D02*
X32974241Y-3816609D01*
X33117098Y-4245180D02*
X33117098Y-4007085D01*
X33355193Y-4102323D02*
X33117098Y-4007085D01*
X33117098Y-4007085D02*
X32879003Y-4102323D01*
X33259955Y-3816609D02*
X33117098Y-4007085D01*
X33117098Y-4007085D02*
X32974241Y-3816609D01*
X48139580Y-9719047D02*
X48187200Y-9766666D01*
X48187200Y-9766666D02*
X48234819Y-9909523D01*
X48234819Y-9909523D02*
X48234819Y-10004761D01*
X48234819Y-10004761D02*
X48187200Y-10147618D01*
X48187200Y-10147618D02*
X48091961Y-10242856D01*
X48091961Y-10242856D02*
X47996723Y-10290475D01*
X47996723Y-10290475D02*
X47806247Y-10338094D01*
X47806247Y-10338094D02*
X47663390Y-10338094D01*
X47663390Y-10338094D02*
X47472914Y-10290475D01*
X47472914Y-10290475D02*
X47377676Y-10242856D01*
X47377676Y-10242856D02*
X47282438Y-10147618D01*
X47282438Y-10147618D02*
X47234819Y-10004761D01*
X47234819Y-10004761D02*
X47234819Y-9909523D01*
X47234819Y-9909523D02*
X47282438Y-9766666D01*
X47282438Y-9766666D02*
X47330057Y-9719047D01*
X47234819Y-9385713D02*
X47234819Y-8766666D01*
X47234819Y-8766666D02*
X47615771Y-9099999D01*
X47615771Y-9099999D02*
X47615771Y-8957142D01*
X47615771Y-8957142D02*
X47663390Y-8861904D01*
X47663390Y-8861904D02*
X47711009Y-8814285D01*
X47711009Y-8814285D02*
X47806247Y-8766666D01*
X47806247Y-8766666D02*
X48044342Y-8766666D01*
X48044342Y-8766666D02*
X48139580Y-8814285D01*
X48139580Y-8814285D02*
X48187200Y-8861904D01*
X48187200Y-8861904D02*
X48234819Y-8957142D01*
X48234819Y-8957142D02*
X48234819Y-9242856D01*
X48234819Y-9242856D02*
X48187200Y-9338094D01*
X48187200Y-9338094D02*
X48139580Y-9385713D01*
X47234819Y-8147618D02*
X47234819Y-8052380D01*
X47234819Y-8052380D02*
X47282438Y-7957142D01*
X47282438Y-7957142D02*
X47330057Y-7909523D01*
X47330057Y-7909523D02*
X47425295Y-7861904D01*
X47425295Y-7861904D02*
X47615771Y-7814285D01*
X47615771Y-7814285D02*
X47853866Y-7814285D01*
X47853866Y-7814285D02*
X48044342Y-7861904D01*
X48044342Y-7861904D02*
X48139580Y-7909523D01*
X48139580Y-7909523D02*
X48187200Y-7957142D01*
X48187200Y-7957142D02*
X48234819Y-8052380D01*
X48234819Y-8052380D02*
X48234819Y-8147618D01*
X48234819Y-8147618D02*
X48187200Y-8242856D01*
X48187200Y-8242856D02*
X48139580Y-8290475D01*
X48139580Y-8290475D02*
X48044342Y-8338094D01*
X48044342Y-8338094D02*
X47853866Y-8385713D01*
X47853866Y-8385713D02*
X47615771Y-8385713D01*
X47615771Y-8385713D02*
X47425295Y-8338094D01*
X47425295Y-8338094D02*
X47330057Y-8290475D01*
X47330057Y-8290475D02*
X47282438Y-8242856D01*
X47282438Y-8242856D02*
X47234819Y-8147618D01*
X47663390Y-7242856D02*
X47615771Y-7338094D01*
X47615771Y-7338094D02*
X47568152Y-7385713D01*
X47568152Y-7385713D02*
X47472914Y-7433332D01*
X47472914Y-7433332D02*
X47425295Y-7433332D01*
X47425295Y-7433332D02*
X47330057Y-7385713D01*
X47330057Y-7385713D02*
X47282438Y-7338094D01*
X47282438Y-7338094D02*
X47234819Y-7242856D01*
X47234819Y-7242856D02*
X47234819Y-7052380D01*
X47234819Y-7052380D02*
X47282438Y-6957142D01*
X47282438Y-6957142D02*
X47330057Y-6909523D01*
X47330057Y-6909523D02*
X47425295Y-6861904D01*
X47425295Y-6861904D02*
X47472914Y-6861904D01*
X47472914Y-6861904D02*
X47568152Y-6909523D01*
X47568152Y-6909523D02*
X47615771Y-6957142D01*
X47615771Y-6957142D02*
X47663390Y-7052380D01*
X47663390Y-7052380D02*
X47663390Y-7242856D01*
X47663390Y-7242856D02*
X47711009Y-7338094D01*
X47711009Y-7338094D02*
X47758628Y-7385713D01*
X47758628Y-7385713D02*
X47853866Y-7433332D01*
X47853866Y-7433332D02*
X48044342Y-7433332D01*
X48044342Y-7433332D02*
X48139580Y-7385713D01*
X48139580Y-7385713D02*
X48187200Y-7338094D01*
X48187200Y-7338094D02*
X48234819Y-7242856D01*
X48234819Y-7242856D02*
X48234819Y-7052380D01*
X48234819Y-7052380D02*
X48187200Y-6957142D01*
X48187200Y-6957142D02*
X48139580Y-6909523D01*
X48139580Y-6909523D02*
X48044342Y-6861904D01*
X48044342Y-6861904D02*
X47853866Y-6861904D01*
X47853866Y-6861904D02*
X47758628Y-6909523D01*
X47758628Y-6909523D02*
X47711009Y-6957142D01*
X47711009Y-6957142D02*
X47663390Y-7052380D01*
X20380952Y-41359580D02*
X20333333Y-41407200D01*
X20333333Y-41407200D02*
X20190476Y-41454819D01*
X20190476Y-41454819D02*
X20095238Y-41454819D01*
X20095238Y-41454819D02*
X19952381Y-41407200D01*
X19952381Y-41407200D02*
X19857143Y-41311961D01*
X19857143Y-41311961D02*
X19809524Y-41216723D01*
X19809524Y-41216723D02*
X19761905Y-41026247D01*
X19761905Y-41026247D02*
X19761905Y-40883390D01*
X19761905Y-40883390D02*
X19809524Y-40692914D01*
X19809524Y-40692914D02*
X19857143Y-40597676D01*
X19857143Y-40597676D02*
X19952381Y-40502438D01*
X19952381Y-40502438D02*
X20095238Y-40454819D01*
X20095238Y-40454819D02*
X20190476Y-40454819D01*
X20190476Y-40454819D02*
X20333333Y-40502438D01*
X20333333Y-40502438D02*
X20380952Y-40550057D01*
X21333333Y-41454819D02*
X20761905Y-41454819D01*
X21047619Y-41454819D02*
X21047619Y-40454819D01*
X21047619Y-40454819D02*
X20952381Y-40597676D01*
X20952381Y-40597676D02*
X20857143Y-40692914D01*
X20857143Y-40692914D02*
X20761905Y-40740533D01*
X22285714Y-41454819D02*
X21714286Y-41454819D01*
X22000000Y-41454819D02*
X22000000Y-40454819D01*
X22000000Y-40454819D02*
X21904762Y-40597676D01*
X21904762Y-40597676D02*
X21809524Y-40692914D01*
X21809524Y-40692914D02*
X21714286Y-40740533D01*
X22904762Y-40454819D02*
X23000000Y-40454819D01*
X23000000Y-40454819D02*
X23095238Y-40502438D01*
X23095238Y-40502438D02*
X23142857Y-40550057D01*
X23142857Y-40550057D02*
X23190476Y-40645295D01*
X23190476Y-40645295D02*
X23238095Y-40835771D01*
X23238095Y-40835771D02*
X23238095Y-41073866D01*
X23238095Y-41073866D02*
X23190476Y-41264342D01*
X23190476Y-41264342D02*
X23142857Y-41359580D01*
X23142857Y-41359580D02*
X23095238Y-41407200D01*
X23095238Y-41407200D02*
X23000000Y-41454819D01*
X23000000Y-41454819D02*
X22904762Y-41454819D01*
X22904762Y-41454819D02*
X22809524Y-41407200D01*
X22809524Y-41407200D02*
X22761905Y-41359580D01*
X22761905Y-41359580D02*
X22714286Y-41264342D01*
X22714286Y-41264342D02*
X22666667Y-41073866D01*
X22666667Y-41073866D02*
X22666667Y-40835771D01*
X22666667Y-40835771D02*
X22714286Y-40645295D01*
X22714286Y-40645295D02*
X22761905Y-40550057D01*
X22761905Y-40550057D02*
X22809524Y-40502438D01*
X22809524Y-40502438D02*
X22904762Y-40454819D01*
X18480952Y-31659580D02*
X18433333Y-31707200D01*
X18433333Y-31707200D02*
X18290476Y-31754819D01*
X18290476Y-31754819D02*
X18195238Y-31754819D01*
X18195238Y-31754819D02*
X18052381Y-31707200D01*
X18052381Y-31707200D02*
X17957143Y-31611961D01*
X17957143Y-31611961D02*
X17909524Y-31516723D01*
X17909524Y-31516723D02*
X17861905Y-31326247D01*
X17861905Y-31326247D02*
X17861905Y-31183390D01*
X17861905Y-31183390D02*
X17909524Y-30992914D01*
X17909524Y-30992914D02*
X17957143Y-30897676D01*
X17957143Y-30897676D02*
X18052381Y-30802438D01*
X18052381Y-30802438D02*
X18195238Y-30754819D01*
X18195238Y-30754819D02*
X18290476Y-30754819D01*
X18290476Y-30754819D02*
X18433333Y-30802438D01*
X18433333Y-30802438D02*
X18480952Y-30850057D01*
X19433333Y-31754819D02*
X18861905Y-31754819D01*
X19147619Y-31754819D02*
X19147619Y-30754819D01*
X19147619Y-30754819D02*
X19052381Y-30897676D01*
X19052381Y-30897676D02*
X18957143Y-30992914D01*
X18957143Y-30992914D02*
X18861905Y-31040533D01*
X20052381Y-30754819D02*
X20147619Y-30754819D01*
X20147619Y-30754819D02*
X20242857Y-30802438D01*
X20242857Y-30802438D02*
X20290476Y-30850057D01*
X20290476Y-30850057D02*
X20338095Y-30945295D01*
X20338095Y-30945295D02*
X20385714Y-31135771D01*
X20385714Y-31135771D02*
X20385714Y-31373866D01*
X20385714Y-31373866D02*
X20338095Y-31564342D01*
X20338095Y-31564342D02*
X20290476Y-31659580D01*
X20290476Y-31659580D02*
X20242857Y-31707200D01*
X20242857Y-31707200D02*
X20147619Y-31754819D01*
X20147619Y-31754819D02*
X20052381Y-31754819D01*
X20052381Y-31754819D02*
X19957143Y-31707200D01*
X19957143Y-31707200D02*
X19909524Y-31659580D01*
X19909524Y-31659580D02*
X19861905Y-31564342D01*
X19861905Y-31564342D02*
X19814286Y-31373866D01*
X19814286Y-31373866D02*
X19814286Y-31135771D01*
X19814286Y-31135771D02*
X19861905Y-30945295D01*
X19861905Y-30945295D02*
X19909524Y-30850057D01*
X19909524Y-30850057D02*
X19957143Y-30802438D01*
X19957143Y-30802438D02*
X20052381Y-30754819D01*
X20766667Y-30850057D02*
X20814286Y-30802438D01*
X20814286Y-30802438D02*
X20909524Y-30754819D01*
X20909524Y-30754819D02*
X21147619Y-30754819D01*
X21147619Y-30754819D02*
X21242857Y-30802438D01*
X21242857Y-30802438D02*
X21290476Y-30850057D01*
X21290476Y-30850057D02*
X21338095Y-30945295D01*
X21338095Y-30945295D02*
X21338095Y-31040533D01*
X21338095Y-31040533D02*
X21290476Y-31183390D01*
X21290476Y-31183390D02*
X20719048Y-31754819D01*
X20719048Y-31754819D02*
X21338095Y-31754819D01*
X12454819Y-16190475D02*
X11454819Y-16190475D01*
X11454819Y-16190475D02*
X11454819Y-15952380D01*
X11454819Y-15952380D02*
X11502438Y-15809523D01*
X11502438Y-15809523D02*
X11597676Y-15714285D01*
X11597676Y-15714285D02*
X11692914Y-15666666D01*
X11692914Y-15666666D02*
X11883390Y-15619047D01*
X11883390Y-15619047D02*
X12026247Y-15619047D01*
X12026247Y-15619047D02*
X12216723Y-15666666D01*
X12216723Y-15666666D02*
X12311961Y-15714285D01*
X12311961Y-15714285D02*
X12407200Y-15809523D01*
X12407200Y-15809523D02*
X12454819Y-15952380D01*
X12454819Y-15952380D02*
X12454819Y-16190475D01*
X12454819Y-14666666D02*
X12454819Y-15238094D01*
X12454819Y-14952380D02*
X11454819Y-14952380D01*
X11454819Y-14952380D02*
X11597676Y-15047618D01*
X11597676Y-15047618D02*
X11692914Y-15142856D01*
X11692914Y-15142856D02*
X11740533Y-15238094D01*
X11454819Y-14047618D02*
X11454819Y-13952380D01*
X11454819Y-13952380D02*
X11502438Y-13857142D01*
X11502438Y-13857142D02*
X11550057Y-13809523D01*
X11550057Y-13809523D02*
X11645295Y-13761904D01*
X11645295Y-13761904D02*
X11835771Y-13714285D01*
X11835771Y-13714285D02*
X12073866Y-13714285D01*
X12073866Y-13714285D02*
X12264342Y-13761904D01*
X12264342Y-13761904D02*
X12359580Y-13809523D01*
X12359580Y-13809523D02*
X12407200Y-13857142D01*
X12407200Y-13857142D02*
X12454819Y-13952380D01*
X12454819Y-13952380D02*
X12454819Y-14047618D01*
X12454819Y-14047618D02*
X12407200Y-14142856D01*
X12407200Y-14142856D02*
X12359580Y-14190475D01*
X12359580Y-14190475D02*
X12264342Y-14238094D01*
X12264342Y-14238094D02*
X12073866Y-14285713D01*
X12073866Y-14285713D02*
X11835771Y-14285713D01*
X11835771Y-14285713D02*
X11645295Y-14238094D01*
X11645295Y-14238094D02*
X11550057Y-14190475D01*
X11550057Y-14190475D02*
X11502438Y-14142856D01*
X11502438Y-14142856D02*
X11454819Y-14047618D01*
X12454819Y-12761904D02*
X12454819Y-13333332D01*
X12454819Y-13047618D02*
X11454819Y-13047618D01*
X11454819Y-13047618D02*
X11597676Y-13142856D01*
X11597676Y-13142856D02*
X11692914Y-13238094D01*
X11692914Y-13238094D02*
X11740533Y-13333332D01*
X880952Y-25454819D02*
X547619Y-24978628D01*
X309524Y-25454819D02*
X309524Y-24454819D01*
X309524Y-24454819D02*
X690476Y-24454819D01*
X690476Y-24454819D02*
X785714Y-24502438D01*
X785714Y-24502438D02*
X833333Y-24550057D01*
X833333Y-24550057D02*
X880952Y-24645295D01*
X880952Y-24645295D02*
X880952Y-24788152D01*
X880952Y-24788152D02*
X833333Y-24883390D01*
X833333Y-24883390D02*
X785714Y-24931009D01*
X785714Y-24931009D02*
X690476Y-24978628D01*
X690476Y-24978628D02*
X309524Y-24978628D01*
X1833333Y-25454819D02*
X1261905Y-25454819D01*
X1547619Y-25454819D02*
X1547619Y-24454819D01*
X1547619Y-24454819D02*
X1452381Y-24597676D01*
X1452381Y-24597676D02*
X1357143Y-24692914D01*
X1357143Y-24692914D02*
X1261905Y-24740533D01*
X2452381Y-24454819D02*
X2547619Y-24454819D01*
X2547619Y-24454819D02*
X2642857Y-24502438D01*
X2642857Y-24502438D02*
X2690476Y-24550057D01*
X2690476Y-24550057D02*
X2738095Y-24645295D01*
X2738095Y-24645295D02*
X2785714Y-24835771D01*
X2785714Y-24835771D02*
X2785714Y-25073866D01*
X2785714Y-25073866D02*
X2738095Y-25264342D01*
X2738095Y-25264342D02*
X2690476Y-25359580D01*
X2690476Y-25359580D02*
X2642857Y-25407200D01*
X2642857Y-25407200D02*
X2547619Y-25454819D01*
X2547619Y-25454819D02*
X2452381Y-25454819D01*
X2452381Y-25454819D02*
X2357143Y-25407200D01*
X2357143Y-25407200D02*
X2309524Y-25359580D01*
X2309524Y-25359580D02*
X2261905Y-25264342D01*
X2261905Y-25264342D02*
X2214286Y-25073866D01*
X2214286Y-25073866D02*
X2214286Y-24835771D01*
X2214286Y-24835771D02*
X2261905Y-24645295D01*
X2261905Y-24645295D02*
X2309524Y-24550057D01*
X2309524Y-24550057D02*
X2357143Y-24502438D01*
X2357143Y-24502438D02*
X2452381Y-24454819D01*
X3690476Y-24454819D02*
X3214286Y-24454819D01*
X3214286Y-24454819D02*
X3166667Y-24931009D01*
X3166667Y-24931009D02*
X3214286Y-24883390D01*
X3214286Y-24883390D02*
X3309524Y-24835771D01*
X3309524Y-24835771D02*
X3547619Y-24835771D01*
X3547619Y-24835771D02*
X3642857Y-24883390D01*
X3642857Y-24883390D02*
X3690476Y-24931009D01*
X3690476Y-24931009D02*
X3738095Y-25026247D01*
X3738095Y-25026247D02*
X3738095Y-25264342D01*
X3738095Y-25264342D02*
X3690476Y-25359580D01*
X3690476Y-25359580D02*
X3642857Y-25407200D01*
X3642857Y-25407200D02*
X3547619Y-25454819D01*
X3547619Y-25454819D02*
X3309524Y-25454819D01*
X3309524Y-25454819D02*
X3214286Y-25407200D01*
X3214286Y-25407200D02*
X3166667Y-25359580D01*
X27180952Y-41359580D02*
X27133333Y-41407200D01*
X27133333Y-41407200D02*
X26990476Y-41454819D01*
X26990476Y-41454819D02*
X26895238Y-41454819D01*
X26895238Y-41454819D02*
X26752381Y-41407200D01*
X26752381Y-41407200D02*
X26657143Y-41311961D01*
X26657143Y-41311961D02*
X26609524Y-41216723D01*
X26609524Y-41216723D02*
X26561905Y-41026247D01*
X26561905Y-41026247D02*
X26561905Y-40883390D01*
X26561905Y-40883390D02*
X26609524Y-40692914D01*
X26609524Y-40692914D02*
X26657143Y-40597676D01*
X26657143Y-40597676D02*
X26752381Y-40502438D01*
X26752381Y-40502438D02*
X26895238Y-40454819D01*
X26895238Y-40454819D02*
X26990476Y-40454819D01*
X26990476Y-40454819D02*
X27133333Y-40502438D01*
X27133333Y-40502438D02*
X27180952Y-40550057D01*
X28133333Y-41454819D02*
X27561905Y-41454819D01*
X27847619Y-41454819D02*
X27847619Y-40454819D01*
X27847619Y-40454819D02*
X27752381Y-40597676D01*
X27752381Y-40597676D02*
X27657143Y-40692914D01*
X27657143Y-40692914D02*
X27561905Y-40740533D01*
X29085714Y-41454819D02*
X28514286Y-41454819D01*
X28800000Y-41454819D02*
X28800000Y-40454819D01*
X28800000Y-40454819D02*
X28704762Y-40597676D01*
X28704762Y-40597676D02*
X28609524Y-40692914D01*
X28609524Y-40692914D02*
X28514286Y-40740533D01*
X29419048Y-40454819D02*
X30038095Y-40454819D01*
X30038095Y-40454819D02*
X29704762Y-40835771D01*
X29704762Y-40835771D02*
X29847619Y-40835771D01*
X29847619Y-40835771D02*
X29942857Y-40883390D01*
X29942857Y-40883390D02*
X29990476Y-40931009D01*
X29990476Y-40931009D02*
X30038095Y-41026247D01*
X30038095Y-41026247D02*
X30038095Y-41264342D01*
X30038095Y-41264342D02*
X29990476Y-41359580D01*
X29990476Y-41359580D02*
X29942857Y-41407200D01*
X29942857Y-41407200D02*
X29847619Y-41454819D01*
X29847619Y-41454819D02*
X29561905Y-41454819D01*
X29561905Y-41454819D02*
X29466667Y-41407200D01*
X29466667Y-41407200D02*
X29419048Y-41359580D01*
X28545180Y-36785714D02*
X27735657Y-36785714D01*
X27735657Y-36785714D02*
X27640419Y-36833333D01*
X27640419Y-36833333D02*
X27592800Y-36880952D01*
X27592800Y-36880952D02*
X27545180Y-36976190D01*
X27545180Y-36976190D02*
X27545180Y-37166666D01*
X27545180Y-37166666D02*
X27592800Y-37261904D01*
X27592800Y-37261904D02*
X27640419Y-37309523D01*
X27640419Y-37309523D02*
X27735657Y-37357142D01*
X27735657Y-37357142D02*
X28545180Y-37357142D01*
X27545180Y-38357142D02*
X27545180Y-37785714D01*
X27545180Y-38071428D02*
X28545180Y-38071428D01*
X28545180Y-38071428D02*
X28402323Y-37976190D01*
X28402323Y-37976190D02*
X28307085Y-37880952D01*
X28307085Y-37880952D02*
X28259466Y-37785714D01*
X28545180Y-38976190D02*
X28545180Y-39071428D01*
X28545180Y-39071428D02*
X28497561Y-39166666D01*
X28497561Y-39166666D02*
X28449942Y-39214285D01*
X28449942Y-39214285D02*
X28354704Y-39261904D01*
X28354704Y-39261904D02*
X28164228Y-39309523D01*
X28164228Y-39309523D02*
X27926133Y-39309523D01*
X27926133Y-39309523D02*
X27735657Y-39261904D01*
X27735657Y-39261904D02*
X27640419Y-39214285D01*
X27640419Y-39214285D02*
X27592800Y-39166666D01*
X27592800Y-39166666D02*
X27545180Y-39071428D01*
X27545180Y-39071428D02*
X27545180Y-38976190D01*
X27545180Y-38976190D02*
X27592800Y-38880952D01*
X27592800Y-38880952D02*
X27640419Y-38833333D01*
X27640419Y-38833333D02*
X27735657Y-38785714D01*
X27735657Y-38785714D02*
X27926133Y-38738095D01*
X27926133Y-38738095D02*
X28164228Y-38738095D01*
X28164228Y-38738095D02*
X28354704Y-38785714D01*
X28354704Y-38785714D02*
X28449942Y-38833333D01*
X28449942Y-38833333D02*
X28497561Y-38880952D01*
X28497561Y-38880952D02*
X28545180Y-38976190D01*
X28545180Y-39642857D02*
X28545180Y-40261904D01*
X28545180Y-40261904D02*
X28164228Y-39928571D01*
X28164228Y-39928571D02*
X28164228Y-40071428D01*
X28164228Y-40071428D02*
X28116609Y-40166666D01*
X28116609Y-40166666D02*
X28068990Y-40214285D01*
X28068990Y-40214285D02*
X27973752Y-40261904D01*
X27973752Y-40261904D02*
X27735657Y-40261904D01*
X27735657Y-40261904D02*
X27640419Y-40214285D01*
X27640419Y-40214285D02*
X27592800Y-40166666D01*
X27592800Y-40166666D02*
X27545180Y-40071428D01*
X27545180Y-40071428D02*
X27545180Y-39785714D01*
X27545180Y-39785714D02*
X27592800Y-39690476D01*
X27592800Y-39690476D02*
X27640419Y-39642857D01*
X26399999Y-40445180D02*
X26399999Y-40207085D01*
X26638094Y-40302323D02*
X26399999Y-40207085D01*
X26399999Y-40207085D02*
X26161904Y-40302323D01*
X26542856Y-40016609D02*
X26399999Y-40207085D01*
X26399999Y-40207085D02*
X26257142Y-40016609D01*
X26399999Y-40445180D02*
X26399999Y-40207085D01*
X26638094Y-40302323D02*
X26399999Y-40207085D01*
X26399999Y-40207085D02*
X26161904Y-40302323D01*
X26542856Y-40016609D02*
X26399999Y-40207085D01*
X26399999Y-40207085D02*
X26257142Y-40016609D01*
X26880952Y-33754819D02*
X26547619Y-33278628D01*
X26309524Y-33754819D02*
X26309524Y-32754819D01*
X26309524Y-32754819D02*
X26690476Y-32754819D01*
X26690476Y-32754819D02*
X26785714Y-32802438D01*
X26785714Y-32802438D02*
X26833333Y-32850057D01*
X26833333Y-32850057D02*
X26880952Y-32945295D01*
X26880952Y-32945295D02*
X26880952Y-33088152D01*
X26880952Y-33088152D02*
X26833333Y-33183390D01*
X26833333Y-33183390D02*
X26785714Y-33231009D01*
X26785714Y-33231009D02*
X26690476Y-33278628D01*
X26690476Y-33278628D02*
X26309524Y-33278628D01*
X27833333Y-33754819D02*
X27261905Y-33754819D01*
X27547619Y-33754819D02*
X27547619Y-32754819D01*
X27547619Y-32754819D02*
X27452381Y-32897676D01*
X27452381Y-32897676D02*
X27357143Y-32992914D01*
X27357143Y-32992914D02*
X27261905Y-33040533D01*
X28785714Y-33754819D02*
X28214286Y-33754819D01*
X28500000Y-33754819D02*
X28500000Y-32754819D01*
X28500000Y-32754819D02*
X28404762Y-32897676D01*
X28404762Y-32897676D02*
X28309524Y-32992914D01*
X28309524Y-32992914D02*
X28214286Y-33040533D01*
X29404762Y-32754819D02*
X29500000Y-32754819D01*
X29500000Y-32754819D02*
X29595238Y-32802438D01*
X29595238Y-32802438D02*
X29642857Y-32850057D01*
X29642857Y-32850057D02*
X29690476Y-32945295D01*
X29690476Y-32945295D02*
X29738095Y-33135771D01*
X29738095Y-33135771D02*
X29738095Y-33373866D01*
X29738095Y-33373866D02*
X29690476Y-33564342D01*
X29690476Y-33564342D02*
X29642857Y-33659580D01*
X29642857Y-33659580D02*
X29595238Y-33707200D01*
X29595238Y-33707200D02*
X29500000Y-33754819D01*
X29500000Y-33754819D02*
X29404762Y-33754819D01*
X29404762Y-33754819D02*
X29309524Y-33707200D01*
X29309524Y-33707200D02*
X29261905Y-33659580D01*
X29261905Y-33659580D02*
X29214286Y-33564342D01*
X29214286Y-33564342D02*
X29166667Y-33373866D01*
X29166667Y-33373866D02*
X29166667Y-33135771D01*
X29166667Y-33135771D02*
X29214286Y-32945295D01*
X29214286Y-32945295D02*
X29261905Y-32850057D01*
X29261905Y-32850057D02*
X29309524Y-32802438D01*
X29309524Y-32802438D02*
X29404762Y-32754819D01*
X25780952Y-4759580D02*
X25733333Y-4807200D01*
X25733333Y-4807200D02*
X25590476Y-4854819D01*
X25590476Y-4854819D02*
X25495238Y-4854819D01*
X25495238Y-4854819D02*
X25352381Y-4807200D01*
X25352381Y-4807200D02*
X25257143Y-4711961D01*
X25257143Y-4711961D02*
X25209524Y-4616723D01*
X25209524Y-4616723D02*
X25161905Y-4426247D01*
X25161905Y-4426247D02*
X25161905Y-4283390D01*
X25161905Y-4283390D02*
X25209524Y-4092914D01*
X25209524Y-4092914D02*
X25257143Y-3997676D01*
X25257143Y-3997676D02*
X25352381Y-3902438D01*
X25352381Y-3902438D02*
X25495238Y-3854819D01*
X25495238Y-3854819D02*
X25590476Y-3854819D01*
X25590476Y-3854819D02*
X25733333Y-3902438D01*
X25733333Y-3902438D02*
X25780952Y-3950057D01*
X26733333Y-4854819D02*
X26161905Y-4854819D01*
X26447619Y-4854819D02*
X26447619Y-3854819D01*
X26447619Y-3854819D02*
X26352381Y-3997676D01*
X26352381Y-3997676D02*
X26257143Y-4092914D01*
X26257143Y-4092914D02*
X26161905Y-4140533D01*
X27685714Y-4854819D02*
X27114286Y-4854819D01*
X27400000Y-4854819D02*
X27400000Y-3854819D01*
X27400000Y-3854819D02*
X27304762Y-3997676D01*
X27304762Y-3997676D02*
X27209524Y-4092914D01*
X27209524Y-4092914D02*
X27114286Y-4140533D01*
X28066667Y-3950057D02*
X28114286Y-3902438D01*
X28114286Y-3902438D02*
X28209524Y-3854819D01*
X28209524Y-3854819D02*
X28447619Y-3854819D01*
X28447619Y-3854819D02*
X28542857Y-3902438D01*
X28542857Y-3902438D02*
X28590476Y-3950057D01*
X28590476Y-3950057D02*
X28638095Y-4045295D01*
X28638095Y-4045295D02*
X28638095Y-4140533D01*
X28638095Y-4140533D02*
X28590476Y-4283390D01*
X28590476Y-4283390D02*
X28019048Y-4854819D01*
X28019048Y-4854819D02*
X28638095Y-4854819D01*
X880952Y-27354819D02*
X547619Y-26878628D01*
X309524Y-27354819D02*
X309524Y-26354819D01*
X309524Y-26354819D02*
X690476Y-26354819D01*
X690476Y-26354819D02*
X785714Y-26402438D01*
X785714Y-26402438D02*
X833333Y-26450057D01*
X833333Y-26450057D02*
X880952Y-26545295D01*
X880952Y-26545295D02*
X880952Y-26688152D01*
X880952Y-26688152D02*
X833333Y-26783390D01*
X833333Y-26783390D02*
X785714Y-26831009D01*
X785714Y-26831009D02*
X690476Y-26878628D01*
X690476Y-26878628D02*
X309524Y-26878628D01*
X1833333Y-27354819D02*
X1261905Y-27354819D01*
X1547619Y-27354819D02*
X1547619Y-26354819D01*
X1547619Y-26354819D02*
X1452381Y-26497676D01*
X1452381Y-26497676D02*
X1357143Y-26592914D01*
X1357143Y-26592914D02*
X1261905Y-26640533D01*
X2452381Y-26354819D02*
X2547619Y-26354819D01*
X2547619Y-26354819D02*
X2642857Y-26402438D01*
X2642857Y-26402438D02*
X2690476Y-26450057D01*
X2690476Y-26450057D02*
X2738095Y-26545295D01*
X2738095Y-26545295D02*
X2785714Y-26735771D01*
X2785714Y-26735771D02*
X2785714Y-26973866D01*
X2785714Y-26973866D02*
X2738095Y-27164342D01*
X2738095Y-27164342D02*
X2690476Y-27259580D01*
X2690476Y-27259580D02*
X2642857Y-27307200D01*
X2642857Y-27307200D02*
X2547619Y-27354819D01*
X2547619Y-27354819D02*
X2452381Y-27354819D01*
X2452381Y-27354819D02*
X2357143Y-27307200D01*
X2357143Y-27307200D02*
X2309524Y-27259580D01*
X2309524Y-27259580D02*
X2261905Y-27164342D01*
X2261905Y-27164342D02*
X2214286Y-26973866D01*
X2214286Y-26973866D02*
X2214286Y-26735771D01*
X2214286Y-26735771D02*
X2261905Y-26545295D01*
X2261905Y-26545295D02*
X2309524Y-26450057D01*
X2309524Y-26450057D02*
X2357143Y-26402438D01*
X2357143Y-26402438D02*
X2452381Y-26354819D01*
X3642857Y-26688152D02*
X3642857Y-27354819D01*
X3404762Y-26307200D02*
X3166667Y-27021485D01*
X3166667Y-27021485D02*
X3785714Y-27021485D01*
X18380952Y-37354819D02*
X18047619Y-36878628D01*
X17809524Y-37354819D02*
X17809524Y-36354819D01*
X17809524Y-36354819D02*
X18190476Y-36354819D01*
X18190476Y-36354819D02*
X18285714Y-36402438D01*
X18285714Y-36402438D02*
X18333333Y-36450057D01*
X18333333Y-36450057D02*
X18380952Y-36545295D01*
X18380952Y-36545295D02*
X18380952Y-36688152D01*
X18380952Y-36688152D02*
X18333333Y-36783390D01*
X18333333Y-36783390D02*
X18285714Y-36831009D01*
X18285714Y-36831009D02*
X18190476Y-36878628D01*
X18190476Y-36878628D02*
X17809524Y-36878628D01*
X19333333Y-37354819D02*
X18761905Y-37354819D01*
X19047619Y-37354819D02*
X19047619Y-36354819D01*
X19047619Y-36354819D02*
X18952381Y-36497676D01*
X18952381Y-36497676D02*
X18857143Y-36592914D01*
X18857143Y-36592914D02*
X18761905Y-36640533D01*
X19952381Y-36354819D02*
X20047619Y-36354819D01*
X20047619Y-36354819D02*
X20142857Y-36402438D01*
X20142857Y-36402438D02*
X20190476Y-36450057D01*
X20190476Y-36450057D02*
X20238095Y-36545295D01*
X20238095Y-36545295D02*
X20285714Y-36735771D01*
X20285714Y-36735771D02*
X20285714Y-36973866D01*
X20285714Y-36973866D02*
X20238095Y-37164342D01*
X20238095Y-37164342D02*
X20190476Y-37259580D01*
X20190476Y-37259580D02*
X20142857Y-37307200D01*
X20142857Y-37307200D02*
X20047619Y-37354819D01*
X20047619Y-37354819D02*
X19952381Y-37354819D01*
X19952381Y-37354819D02*
X19857143Y-37307200D01*
X19857143Y-37307200D02*
X19809524Y-37259580D01*
X19809524Y-37259580D02*
X19761905Y-37164342D01*
X19761905Y-37164342D02*
X19714286Y-36973866D01*
X19714286Y-36973866D02*
X19714286Y-36735771D01*
X19714286Y-36735771D02*
X19761905Y-36545295D01*
X19761905Y-36545295D02*
X19809524Y-36450057D01*
X19809524Y-36450057D02*
X19857143Y-36402438D01*
X19857143Y-36402438D02*
X19952381Y-36354819D01*
X20619048Y-36354819D02*
X21285714Y-36354819D01*
X21285714Y-36354819D02*
X20857143Y-37354819D01*
X35479192Y-6704819D02*
X35145859Y-6228628D01*
X34907764Y-6704819D02*
X34907764Y-5704819D01*
X34907764Y-5704819D02*
X35288716Y-5704819D01*
X35288716Y-5704819D02*
X35383954Y-5752438D01*
X35383954Y-5752438D02*
X35431573Y-5800057D01*
X35431573Y-5800057D02*
X35479192Y-5895295D01*
X35479192Y-5895295D02*
X35479192Y-6038152D01*
X35479192Y-6038152D02*
X35431573Y-6133390D01*
X35431573Y-6133390D02*
X35383954Y-6181009D01*
X35383954Y-6181009D02*
X35288716Y-6228628D01*
X35288716Y-6228628D02*
X34907764Y-6228628D01*
X36431573Y-6704819D02*
X35860145Y-6704819D01*
X36145859Y-6704819D02*
X36145859Y-5704819D01*
X36145859Y-5704819D02*
X36050621Y-5847676D01*
X36050621Y-5847676D02*
X35955383Y-5942914D01*
X35955383Y-5942914D02*
X35860145Y-5990533D01*
X37050621Y-5704819D02*
X37145859Y-5704819D01*
X37145859Y-5704819D02*
X37241097Y-5752438D01*
X37241097Y-5752438D02*
X37288716Y-5800057D01*
X37288716Y-5800057D02*
X37336335Y-5895295D01*
X37336335Y-5895295D02*
X37383954Y-6085771D01*
X37383954Y-6085771D02*
X37383954Y-6323866D01*
X37383954Y-6323866D02*
X37336335Y-6514342D01*
X37336335Y-6514342D02*
X37288716Y-6609580D01*
X37288716Y-6609580D02*
X37241097Y-6657200D01*
X37241097Y-6657200D02*
X37145859Y-6704819D01*
X37145859Y-6704819D02*
X37050621Y-6704819D01*
X37050621Y-6704819D02*
X36955383Y-6657200D01*
X36955383Y-6657200D02*
X36907764Y-6609580D01*
X36907764Y-6609580D02*
X36860145Y-6514342D01*
X36860145Y-6514342D02*
X36812526Y-6323866D01*
X36812526Y-6323866D02*
X36812526Y-6085771D01*
X36812526Y-6085771D02*
X36860145Y-5895295D01*
X36860145Y-5895295D02*
X36907764Y-5800057D01*
X36907764Y-5800057D02*
X36955383Y-5752438D01*
X36955383Y-5752438D02*
X37050621Y-5704819D01*
X37955383Y-6133390D02*
X37860145Y-6085771D01*
X37860145Y-6085771D02*
X37812526Y-6038152D01*
X37812526Y-6038152D02*
X37764907Y-5942914D01*
X37764907Y-5942914D02*
X37764907Y-5895295D01*
X37764907Y-5895295D02*
X37812526Y-5800057D01*
X37812526Y-5800057D02*
X37860145Y-5752438D01*
X37860145Y-5752438D02*
X37955383Y-5704819D01*
X37955383Y-5704819D02*
X38145859Y-5704819D01*
X38145859Y-5704819D02*
X38241097Y-5752438D01*
X38241097Y-5752438D02*
X38288716Y-5800057D01*
X38288716Y-5800057D02*
X38336335Y-5895295D01*
X38336335Y-5895295D02*
X38336335Y-5942914D01*
X38336335Y-5942914D02*
X38288716Y-6038152D01*
X38288716Y-6038152D02*
X38241097Y-6085771D01*
X38241097Y-6085771D02*
X38145859Y-6133390D01*
X38145859Y-6133390D02*
X37955383Y-6133390D01*
X37955383Y-6133390D02*
X37860145Y-6181009D01*
X37860145Y-6181009D02*
X37812526Y-6228628D01*
X37812526Y-6228628D02*
X37764907Y-6323866D01*
X37764907Y-6323866D02*
X37764907Y-6514342D01*
X37764907Y-6514342D02*
X37812526Y-6609580D01*
X37812526Y-6609580D02*
X37860145Y-6657200D01*
X37860145Y-6657200D02*
X37955383Y-6704819D01*
X37955383Y-6704819D02*
X38145859Y-6704819D01*
X38145859Y-6704819D02*
X38241097Y-6657200D01*
X38241097Y-6657200D02*
X38288716Y-6609580D01*
X38288716Y-6609580D02*
X38336335Y-6514342D01*
X38336335Y-6514342D02*
X38336335Y-6323866D01*
X38336335Y-6323866D02*
X38288716Y-6228628D01*
X38288716Y-6228628D02*
X38241097Y-6181009D01*
X38241097Y-6181009D02*
X38145859Y-6133390D01*
X3228571Y-7264700D02*
X4371429Y-7264700D01*
X3800000Y-7836128D02*
X3800000Y-6693271D01*
X8228571Y-7314700D02*
X9371429Y-7314700D01*
X23204819Y-4379047D02*
X22728628Y-4712380D01*
X23204819Y-4950475D02*
X22204819Y-4950475D01*
X22204819Y-4950475D02*
X22204819Y-4569523D01*
X22204819Y-4569523D02*
X22252438Y-4474285D01*
X22252438Y-4474285D02*
X22300057Y-4426666D01*
X22300057Y-4426666D02*
X22395295Y-4379047D01*
X22395295Y-4379047D02*
X22538152Y-4379047D01*
X22538152Y-4379047D02*
X22633390Y-4426666D01*
X22633390Y-4426666D02*
X22681009Y-4474285D01*
X22681009Y-4474285D02*
X22728628Y-4569523D01*
X22728628Y-4569523D02*
X22728628Y-4950475D01*
X23204819Y-3426666D02*
X23204819Y-3998094D01*
X23204819Y-3712380D02*
X22204819Y-3712380D01*
X22204819Y-3712380D02*
X22347676Y-3807618D01*
X22347676Y-3807618D02*
X22442914Y-3902856D01*
X22442914Y-3902856D02*
X22490533Y-3998094D01*
X22204819Y-2807618D02*
X22204819Y-2712380D01*
X22204819Y-2712380D02*
X22252438Y-2617142D01*
X22252438Y-2617142D02*
X22300057Y-2569523D01*
X22300057Y-2569523D02*
X22395295Y-2521904D01*
X22395295Y-2521904D02*
X22585771Y-2474285D01*
X22585771Y-2474285D02*
X22823866Y-2474285D01*
X22823866Y-2474285D02*
X23014342Y-2521904D01*
X23014342Y-2521904D02*
X23109580Y-2569523D01*
X23109580Y-2569523D02*
X23157200Y-2617142D01*
X23157200Y-2617142D02*
X23204819Y-2712380D01*
X23204819Y-2712380D02*
X23204819Y-2807618D01*
X23204819Y-2807618D02*
X23157200Y-2902856D01*
X23157200Y-2902856D02*
X23109580Y-2950475D01*
X23109580Y-2950475D02*
X23014342Y-2998094D01*
X23014342Y-2998094D02*
X22823866Y-3045713D01*
X22823866Y-3045713D02*
X22585771Y-3045713D01*
X22585771Y-3045713D02*
X22395295Y-2998094D01*
X22395295Y-2998094D02*
X22300057Y-2950475D01*
X22300057Y-2950475D02*
X22252438Y-2902856D01*
X22252438Y-2902856D02*
X22204819Y-2807618D01*
X22204819Y-1617142D02*
X22204819Y-1807618D01*
X22204819Y-1807618D02*
X22252438Y-1902856D01*
X22252438Y-1902856D02*
X22300057Y-1950475D01*
X22300057Y-1950475D02*
X22442914Y-2045713D01*
X22442914Y-2045713D02*
X22633390Y-2093332D01*
X22633390Y-2093332D02*
X23014342Y-2093332D01*
X23014342Y-2093332D02*
X23109580Y-2045713D01*
X23109580Y-2045713D02*
X23157200Y-1998094D01*
X23157200Y-1998094D02*
X23204819Y-1902856D01*
X23204819Y-1902856D02*
X23204819Y-1712380D01*
X23204819Y-1712380D02*
X23157200Y-1617142D01*
X23157200Y-1617142D02*
X23109580Y-1569523D01*
X23109580Y-1569523D02*
X23014342Y-1521904D01*
X23014342Y-1521904D02*
X22776247Y-1521904D01*
X22776247Y-1521904D02*
X22681009Y-1569523D01*
X22681009Y-1569523D02*
X22633390Y-1617142D01*
X22633390Y-1617142D02*
X22585771Y-1712380D01*
X22585771Y-1712380D02*
X22585771Y-1902856D01*
X22585771Y-1902856D02*
X22633390Y-1998094D01*
X22633390Y-1998094D02*
X22681009Y-2045713D01*
X22681009Y-2045713D02*
X22776247Y-2093332D01*
X9480952Y-21454819D02*
X9147619Y-20978628D01*
X8909524Y-21454819D02*
X8909524Y-20454819D01*
X8909524Y-20454819D02*
X9290476Y-20454819D01*
X9290476Y-20454819D02*
X9385714Y-20502438D01*
X9385714Y-20502438D02*
X9433333Y-20550057D01*
X9433333Y-20550057D02*
X9480952Y-20645295D01*
X9480952Y-20645295D02*
X9480952Y-20788152D01*
X9480952Y-20788152D02*
X9433333Y-20883390D01*
X9433333Y-20883390D02*
X9385714Y-20931009D01*
X9385714Y-20931009D02*
X9290476Y-20978628D01*
X9290476Y-20978628D02*
X8909524Y-20978628D01*
X10433333Y-21454819D02*
X9861905Y-21454819D01*
X10147619Y-21454819D02*
X10147619Y-20454819D01*
X10147619Y-20454819D02*
X10052381Y-20597676D01*
X10052381Y-20597676D02*
X9957143Y-20692914D01*
X9957143Y-20692914D02*
X9861905Y-20740533D01*
X11052381Y-20454819D02*
X11147619Y-20454819D01*
X11147619Y-20454819D02*
X11242857Y-20502438D01*
X11242857Y-20502438D02*
X11290476Y-20550057D01*
X11290476Y-20550057D02*
X11338095Y-20645295D01*
X11338095Y-20645295D02*
X11385714Y-20835771D01*
X11385714Y-20835771D02*
X11385714Y-21073866D01*
X11385714Y-21073866D02*
X11338095Y-21264342D01*
X11338095Y-21264342D02*
X11290476Y-21359580D01*
X11290476Y-21359580D02*
X11242857Y-21407200D01*
X11242857Y-21407200D02*
X11147619Y-21454819D01*
X11147619Y-21454819D02*
X11052381Y-21454819D01*
X11052381Y-21454819D02*
X10957143Y-21407200D01*
X10957143Y-21407200D02*
X10909524Y-21359580D01*
X10909524Y-21359580D02*
X10861905Y-21264342D01*
X10861905Y-21264342D02*
X10814286Y-21073866D01*
X10814286Y-21073866D02*
X10814286Y-20835771D01*
X10814286Y-20835771D02*
X10861905Y-20645295D01*
X10861905Y-20645295D02*
X10909524Y-20550057D01*
X10909524Y-20550057D02*
X10957143Y-20502438D01*
X10957143Y-20502438D02*
X11052381Y-20454819D01*
X11719048Y-20454819D02*
X12338095Y-20454819D01*
X12338095Y-20454819D02*
X12004762Y-20835771D01*
X12004762Y-20835771D02*
X12147619Y-20835771D01*
X12147619Y-20835771D02*
X12242857Y-20883390D01*
X12242857Y-20883390D02*
X12290476Y-20931009D01*
X12290476Y-20931009D02*
X12338095Y-21026247D01*
X12338095Y-21026247D02*
X12338095Y-21264342D01*
X12338095Y-21264342D02*
X12290476Y-21359580D01*
X12290476Y-21359580D02*
X12242857Y-21407200D01*
X12242857Y-21407200D02*
X12147619Y-21454819D01*
X12147619Y-21454819D02*
X11861905Y-21454819D01*
X11861905Y-21454819D02*
X11766667Y-21407200D01*
X11766667Y-21407200D02*
X11719048Y-21359580D01*
X36480952Y-8954819D02*
X36147619Y-8478628D01*
X35909524Y-8954819D02*
X35909524Y-7954819D01*
X35909524Y-7954819D02*
X36290476Y-7954819D01*
X36290476Y-7954819D02*
X36385714Y-8002438D01*
X36385714Y-8002438D02*
X36433333Y-8050057D01*
X36433333Y-8050057D02*
X36480952Y-8145295D01*
X36480952Y-8145295D02*
X36480952Y-8288152D01*
X36480952Y-8288152D02*
X36433333Y-8383390D01*
X36433333Y-8383390D02*
X36385714Y-8431009D01*
X36385714Y-8431009D02*
X36290476Y-8478628D01*
X36290476Y-8478628D02*
X35909524Y-8478628D01*
X37433333Y-8954819D02*
X36861905Y-8954819D01*
X37147619Y-8954819D02*
X37147619Y-7954819D01*
X37147619Y-7954819D02*
X37052381Y-8097676D01*
X37052381Y-8097676D02*
X36957143Y-8192914D01*
X36957143Y-8192914D02*
X36861905Y-8240533D01*
X38052381Y-7954819D02*
X38147619Y-7954819D01*
X38147619Y-7954819D02*
X38242857Y-8002438D01*
X38242857Y-8002438D02*
X38290476Y-8050057D01*
X38290476Y-8050057D02*
X38338095Y-8145295D01*
X38338095Y-8145295D02*
X38385714Y-8335771D01*
X38385714Y-8335771D02*
X38385714Y-8573866D01*
X38385714Y-8573866D02*
X38338095Y-8764342D01*
X38338095Y-8764342D02*
X38290476Y-8859580D01*
X38290476Y-8859580D02*
X38242857Y-8907200D01*
X38242857Y-8907200D02*
X38147619Y-8954819D01*
X38147619Y-8954819D02*
X38052381Y-8954819D01*
X38052381Y-8954819D02*
X37957143Y-8907200D01*
X37957143Y-8907200D02*
X37909524Y-8859580D01*
X37909524Y-8859580D02*
X37861905Y-8764342D01*
X37861905Y-8764342D02*
X37814286Y-8573866D01*
X37814286Y-8573866D02*
X37814286Y-8335771D01*
X37814286Y-8335771D02*
X37861905Y-8145295D01*
X37861905Y-8145295D02*
X37909524Y-8050057D01*
X37909524Y-8050057D02*
X37957143Y-8002438D01*
X37957143Y-8002438D02*
X38052381Y-7954819D01*
X38861905Y-8954819D02*
X39052381Y-8954819D01*
X39052381Y-8954819D02*
X39147619Y-8907200D01*
X39147619Y-8907200D02*
X39195238Y-8859580D01*
X39195238Y-8859580D02*
X39290476Y-8716723D01*
X39290476Y-8716723D02*
X39338095Y-8526247D01*
X39338095Y-8526247D02*
X39338095Y-8145295D01*
X39338095Y-8145295D02*
X39290476Y-8050057D01*
X39290476Y-8050057D02*
X39242857Y-8002438D01*
X39242857Y-8002438D02*
X39147619Y-7954819D01*
X39147619Y-7954819D02*
X38957143Y-7954819D01*
X38957143Y-7954819D02*
X38861905Y-8002438D01*
X38861905Y-8002438D02*
X38814286Y-8050057D01*
X38814286Y-8050057D02*
X38766667Y-8145295D01*
X38766667Y-8145295D02*
X38766667Y-8383390D01*
X38766667Y-8383390D02*
X38814286Y-8478628D01*
X38814286Y-8478628D02*
X38861905Y-8526247D01*
X38861905Y-8526247D02*
X38957143Y-8573866D01*
X38957143Y-8573866D02*
X39147619Y-8573866D01*
X39147619Y-8573866D02*
X39242857Y-8526247D01*
X39242857Y-8526247D02*
X39290476Y-8478628D01*
X39290476Y-8478628D02*
X39338095Y-8383390D01*
X34180952Y-4259580D02*
X34133333Y-4307200D01*
X34133333Y-4307200D02*
X33990476Y-4354819D01*
X33990476Y-4354819D02*
X33895238Y-4354819D01*
X33895238Y-4354819D02*
X33752381Y-4307200D01*
X33752381Y-4307200D02*
X33657143Y-4211961D01*
X33657143Y-4211961D02*
X33609524Y-4116723D01*
X33609524Y-4116723D02*
X33561905Y-3926247D01*
X33561905Y-3926247D02*
X33561905Y-3783390D01*
X33561905Y-3783390D02*
X33609524Y-3592914D01*
X33609524Y-3592914D02*
X33657143Y-3497676D01*
X33657143Y-3497676D02*
X33752381Y-3402438D01*
X33752381Y-3402438D02*
X33895238Y-3354819D01*
X33895238Y-3354819D02*
X33990476Y-3354819D01*
X33990476Y-3354819D02*
X34133333Y-3402438D01*
X34133333Y-3402438D02*
X34180952Y-3450057D01*
X35133333Y-4354819D02*
X34561905Y-4354819D01*
X34847619Y-4354819D02*
X34847619Y-3354819D01*
X34847619Y-3354819D02*
X34752381Y-3497676D01*
X34752381Y-3497676D02*
X34657143Y-3592914D01*
X34657143Y-3592914D02*
X34561905Y-3640533D01*
X35752381Y-3354819D02*
X35847619Y-3354819D01*
X35847619Y-3354819D02*
X35942857Y-3402438D01*
X35942857Y-3402438D02*
X35990476Y-3450057D01*
X35990476Y-3450057D02*
X36038095Y-3545295D01*
X36038095Y-3545295D02*
X36085714Y-3735771D01*
X36085714Y-3735771D02*
X36085714Y-3973866D01*
X36085714Y-3973866D02*
X36038095Y-4164342D01*
X36038095Y-4164342D02*
X35990476Y-4259580D01*
X35990476Y-4259580D02*
X35942857Y-4307200D01*
X35942857Y-4307200D02*
X35847619Y-4354819D01*
X35847619Y-4354819D02*
X35752381Y-4354819D01*
X35752381Y-4354819D02*
X35657143Y-4307200D01*
X35657143Y-4307200D02*
X35609524Y-4259580D01*
X35609524Y-4259580D02*
X35561905Y-4164342D01*
X35561905Y-4164342D02*
X35514286Y-3973866D01*
X35514286Y-3973866D02*
X35514286Y-3735771D01*
X35514286Y-3735771D02*
X35561905Y-3545295D01*
X35561905Y-3545295D02*
X35609524Y-3450057D01*
X35609524Y-3450057D02*
X35657143Y-3402438D01*
X35657143Y-3402438D02*
X35752381Y-3354819D01*
X36657143Y-3783390D02*
X36561905Y-3735771D01*
X36561905Y-3735771D02*
X36514286Y-3688152D01*
X36514286Y-3688152D02*
X36466667Y-3592914D01*
X36466667Y-3592914D02*
X36466667Y-3545295D01*
X36466667Y-3545295D02*
X36514286Y-3450057D01*
X36514286Y-3450057D02*
X36561905Y-3402438D01*
X36561905Y-3402438D02*
X36657143Y-3354819D01*
X36657143Y-3354819D02*
X36847619Y-3354819D01*
X36847619Y-3354819D02*
X36942857Y-3402438D01*
X36942857Y-3402438D02*
X36990476Y-3450057D01*
X36990476Y-3450057D02*
X37038095Y-3545295D01*
X37038095Y-3545295D02*
X37038095Y-3592914D01*
X37038095Y-3592914D02*
X36990476Y-3688152D01*
X36990476Y-3688152D02*
X36942857Y-3735771D01*
X36942857Y-3735771D02*
X36847619Y-3783390D01*
X36847619Y-3783390D02*
X36657143Y-3783390D01*
X36657143Y-3783390D02*
X36561905Y-3831009D01*
X36561905Y-3831009D02*
X36514286Y-3878628D01*
X36514286Y-3878628D02*
X36466667Y-3973866D01*
X36466667Y-3973866D02*
X36466667Y-4164342D01*
X36466667Y-4164342D02*
X36514286Y-4259580D01*
X36514286Y-4259580D02*
X36561905Y-4307200D01*
X36561905Y-4307200D02*
X36657143Y-4354819D01*
X36657143Y-4354819D02*
X36847619Y-4354819D01*
X36847619Y-4354819D02*
X36942857Y-4307200D01*
X36942857Y-4307200D02*
X36990476Y-4259580D01*
X36990476Y-4259580D02*
X37038095Y-4164342D01*
X37038095Y-4164342D02*
X37038095Y-3973866D01*
X37038095Y-3973866D02*
X36990476Y-3878628D01*
X36990476Y-3878628D02*
X36942857Y-3831009D01*
X36942857Y-3831009D02*
X36847619Y-3783390D01*
X20620952Y-34054819D02*
X20287619Y-33578628D01*
X20049524Y-34054819D02*
X20049524Y-33054819D01*
X20049524Y-33054819D02*
X20430476Y-33054819D01*
X20430476Y-33054819D02*
X20525714Y-33102438D01*
X20525714Y-33102438D02*
X20573333Y-33150057D01*
X20573333Y-33150057D02*
X20620952Y-33245295D01*
X20620952Y-33245295D02*
X20620952Y-33388152D01*
X20620952Y-33388152D02*
X20573333Y-33483390D01*
X20573333Y-33483390D02*
X20525714Y-33531009D01*
X20525714Y-33531009D02*
X20430476Y-33578628D01*
X20430476Y-33578628D02*
X20049524Y-33578628D01*
X21573333Y-34054819D02*
X21001905Y-34054819D01*
X21287619Y-34054819D02*
X21287619Y-33054819D01*
X21287619Y-33054819D02*
X21192381Y-33197676D01*
X21192381Y-33197676D02*
X21097143Y-33292914D01*
X21097143Y-33292914D02*
X21001905Y-33340533D01*
X22192381Y-33054819D02*
X22287619Y-33054819D01*
X22287619Y-33054819D02*
X22382857Y-33102438D01*
X22382857Y-33102438D02*
X22430476Y-33150057D01*
X22430476Y-33150057D02*
X22478095Y-33245295D01*
X22478095Y-33245295D02*
X22525714Y-33435771D01*
X22525714Y-33435771D02*
X22525714Y-33673866D01*
X22525714Y-33673866D02*
X22478095Y-33864342D01*
X22478095Y-33864342D02*
X22430476Y-33959580D01*
X22430476Y-33959580D02*
X22382857Y-34007200D01*
X22382857Y-34007200D02*
X22287619Y-34054819D01*
X22287619Y-34054819D02*
X22192381Y-34054819D01*
X22192381Y-34054819D02*
X22097143Y-34007200D01*
X22097143Y-34007200D02*
X22049524Y-33959580D01*
X22049524Y-33959580D02*
X22001905Y-33864342D01*
X22001905Y-33864342D02*
X21954286Y-33673866D01*
X21954286Y-33673866D02*
X21954286Y-33435771D01*
X21954286Y-33435771D02*
X22001905Y-33245295D01*
X22001905Y-33245295D02*
X22049524Y-33150057D01*
X22049524Y-33150057D02*
X22097143Y-33102438D01*
X22097143Y-33102438D02*
X22192381Y-33054819D01*
X23478095Y-34054819D02*
X22906667Y-34054819D01*
X23192381Y-34054819D02*
X23192381Y-33054819D01*
X23192381Y-33054819D02*
X23097143Y-33197676D01*
X23097143Y-33197676D02*
X23001905Y-33292914D01*
X23001905Y-33292914D02*
X22906667Y-33340533D01*
X14480952Y-31159580D02*
X14433333Y-31207200D01*
X14433333Y-31207200D02*
X14290476Y-31254819D01*
X14290476Y-31254819D02*
X14195238Y-31254819D01*
X14195238Y-31254819D02*
X14052381Y-31207200D01*
X14052381Y-31207200D02*
X13957143Y-31111961D01*
X13957143Y-31111961D02*
X13909524Y-31016723D01*
X13909524Y-31016723D02*
X13861905Y-30826247D01*
X13861905Y-30826247D02*
X13861905Y-30683390D01*
X13861905Y-30683390D02*
X13909524Y-30492914D01*
X13909524Y-30492914D02*
X13957143Y-30397676D01*
X13957143Y-30397676D02*
X14052381Y-30302438D01*
X14052381Y-30302438D02*
X14195238Y-30254819D01*
X14195238Y-30254819D02*
X14290476Y-30254819D01*
X14290476Y-30254819D02*
X14433333Y-30302438D01*
X14433333Y-30302438D02*
X14480952Y-30350057D01*
X15433333Y-31254819D02*
X14861905Y-31254819D01*
X15147619Y-31254819D02*
X15147619Y-30254819D01*
X15147619Y-30254819D02*
X15052381Y-30397676D01*
X15052381Y-30397676D02*
X14957143Y-30492914D01*
X14957143Y-30492914D02*
X14861905Y-30540533D01*
X16052381Y-30254819D02*
X16147619Y-30254819D01*
X16147619Y-30254819D02*
X16242857Y-30302438D01*
X16242857Y-30302438D02*
X16290476Y-30350057D01*
X16290476Y-30350057D02*
X16338095Y-30445295D01*
X16338095Y-30445295D02*
X16385714Y-30635771D01*
X16385714Y-30635771D02*
X16385714Y-30873866D01*
X16385714Y-30873866D02*
X16338095Y-31064342D01*
X16338095Y-31064342D02*
X16290476Y-31159580D01*
X16290476Y-31159580D02*
X16242857Y-31207200D01*
X16242857Y-31207200D02*
X16147619Y-31254819D01*
X16147619Y-31254819D02*
X16052381Y-31254819D01*
X16052381Y-31254819D02*
X15957143Y-31207200D01*
X15957143Y-31207200D02*
X15909524Y-31159580D01*
X15909524Y-31159580D02*
X15861905Y-31064342D01*
X15861905Y-31064342D02*
X15814286Y-30873866D01*
X15814286Y-30873866D02*
X15814286Y-30635771D01*
X15814286Y-30635771D02*
X15861905Y-30445295D01*
X15861905Y-30445295D02*
X15909524Y-30350057D01*
X15909524Y-30350057D02*
X15957143Y-30302438D01*
X15957143Y-30302438D02*
X16052381Y-30254819D01*
X16719048Y-30254819D02*
X17338095Y-30254819D01*
X17338095Y-30254819D02*
X17004762Y-30635771D01*
X17004762Y-30635771D02*
X17147619Y-30635771D01*
X17147619Y-30635771D02*
X17242857Y-30683390D01*
X17242857Y-30683390D02*
X17290476Y-30731009D01*
X17290476Y-30731009D02*
X17338095Y-30826247D01*
X17338095Y-30826247D02*
X17338095Y-31064342D01*
X17338095Y-31064342D02*
X17290476Y-31159580D01*
X17290476Y-31159580D02*
X17242857Y-31207200D01*
X17242857Y-31207200D02*
X17147619Y-31254819D01*
X17147619Y-31254819D02*
X16861905Y-31254819D01*
X16861905Y-31254819D02*
X16766667Y-31207200D01*
X16766667Y-31207200D02*
X16719048Y-31159580D01*
X18080952Y-5959580D02*
X18033333Y-6007200D01*
X18033333Y-6007200D02*
X17890476Y-6054819D01*
X17890476Y-6054819D02*
X17795238Y-6054819D01*
X17795238Y-6054819D02*
X17652381Y-6007200D01*
X17652381Y-6007200D02*
X17557143Y-5911961D01*
X17557143Y-5911961D02*
X17509524Y-5816723D01*
X17509524Y-5816723D02*
X17461905Y-5626247D01*
X17461905Y-5626247D02*
X17461905Y-5483390D01*
X17461905Y-5483390D02*
X17509524Y-5292914D01*
X17509524Y-5292914D02*
X17557143Y-5197676D01*
X17557143Y-5197676D02*
X17652381Y-5102438D01*
X17652381Y-5102438D02*
X17795238Y-5054819D01*
X17795238Y-5054819D02*
X17890476Y-5054819D01*
X17890476Y-5054819D02*
X18033333Y-5102438D01*
X18033333Y-5102438D02*
X18080952Y-5150057D01*
X19033333Y-6054819D02*
X18461905Y-6054819D01*
X18747619Y-6054819D02*
X18747619Y-5054819D01*
X18747619Y-5054819D02*
X18652381Y-5197676D01*
X18652381Y-5197676D02*
X18557143Y-5292914D01*
X18557143Y-5292914D02*
X18461905Y-5340533D01*
X19652381Y-5054819D02*
X19747619Y-5054819D01*
X19747619Y-5054819D02*
X19842857Y-5102438D01*
X19842857Y-5102438D02*
X19890476Y-5150057D01*
X19890476Y-5150057D02*
X19938095Y-5245295D01*
X19938095Y-5245295D02*
X19985714Y-5435771D01*
X19985714Y-5435771D02*
X19985714Y-5673866D01*
X19985714Y-5673866D02*
X19938095Y-5864342D01*
X19938095Y-5864342D02*
X19890476Y-5959580D01*
X19890476Y-5959580D02*
X19842857Y-6007200D01*
X19842857Y-6007200D02*
X19747619Y-6054819D01*
X19747619Y-6054819D02*
X19652381Y-6054819D01*
X19652381Y-6054819D02*
X19557143Y-6007200D01*
X19557143Y-6007200D02*
X19509524Y-5959580D01*
X19509524Y-5959580D02*
X19461905Y-5864342D01*
X19461905Y-5864342D02*
X19414286Y-5673866D01*
X19414286Y-5673866D02*
X19414286Y-5435771D01*
X19414286Y-5435771D02*
X19461905Y-5245295D01*
X19461905Y-5245295D02*
X19509524Y-5150057D01*
X19509524Y-5150057D02*
X19557143Y-5102438D01*
X19557143Y-5102438D02*
X19652381Y-5054819D01*
X20319048Y-5054819D02*
X20985714Y-5054819D01*
X20985714Y-5054819D02*
X20557143Y-6054819D01*
X22980952Y-31759580D02*
X22933333Y-31807200D01*
X22933333Y-31807200D02*
X22790476Y-31854819D01*
X22790476Y-31854819D02*
X22695238Y-31854819D01*
X22695238Y-31854819D02*
X22552381Y-31807200D01*
X22552381Y-31807200D02*
X22457143Y-31711961D01*
X22457143Y-31711961D02*
X22409524Y-31616723D01*
X22409524Y-31616723D02*
X22361905Y-31426247D01*
X22361905Y-31426247D02*
X22361905Y-31283390D01*
X22361905Y-31283390D02*
X22409524Y-31092914D01*
X22409524Y-31092914D02*
X22457143Y-30997676D01*
X22457143Y-30997676D02*
X22552381Y-30902438D01*
X22552381Y-30902438D02*
X22695238Y-30854819D01*
X22695238Y-30854819D02*
X22790476Y-30854819D01*
X22790476Y-30854819D02*
X22933333Y-30902438D01*
X22933333Y-30902438D02*
X22980952Y-30950057D01*
X23933333Y-31854819D02*
X23361905Y-31854819D01*
X23647619Y-31854819D02*
X23647619Y-30854819D01*
X23647619Y-30854819D02*
X23552381Y-30997676D01*
X23552381Y-30997676D02*
X23457143Y-31092914D01*
X23457143Y-31092914D02*
X23361905Y-31140533D01*
X24552381Y-30854819D02*
X24647619Y-30854819D01*
X24647619Y-30854819D02*
X24742857Y-30902438D01*
X24742857Y-30902438D02*
X24790476Y-30950057D01*
X24790476Y-30950057D02*
X24838095Y-31045295D01*
X24838095Y-31045295D02*
X24885714Y-31235771D01*
X24885714Y-31235771D02*
X24885714Y-31473866D01*
X24885714Y-31473866D02*
X24838095Y-31664342D01*
X24838095Y-31664342D02*
X24790476Y-31759580D01*
X24790476Y-31759580D02*
X24742857Y-31807200D01*
X24742857Y-31807200D02*
X24647619Y-31854819D01*
X24647619Y-31854819D02*
X24552381Y-31854819D01*
X24552381Y-31854819D02*
X24457143Y-31807200D01*
X24457143Y-31807200D02*
X24409524Y-31759580D01*
X24409524Y-31759580D02*
X24361905Y-31664342D01*
X24361905Y-31664342D02*
X24314286Y-31473866D01*
X24314286Y-31473866D02*
X24314286Y-31235771D01*
X24314286Y-31235771D02*
X24361905Y-31045295D01*
X24361905Y-31045295D02*
X24409524Y-30950057D01*
X24409524Y-30950057D02*
X24457143Y-30902438D01*
X24457143Y-30902438D02*
X24552381Y-30854819D01*
X25838095Y-31854819D02*
X25266667Y-31854819D01*
X25552381Y-31854819D02*
X25552381Y-30854819D01*
X25552381Y-30854819D02*
X25457143Y-30997676D01*
X25457143Y-30997676D02*
X25361905Y-31092914D01*
X25361905Y-31092914D02*
X25266667Y-31140533D01*
X7035714Y-23204819D02*
X7035714Y-24014342D01*
X7035714Y-24014342D02*
X7083333Y-24109580D01*
X7083333Y-24109580D02*
X7130952Y-24157200D01*
X7130952Y-24157200D02*
X7226190Y-24204819D01*
X7226190Y-24204819D02*
X7416666Y-24204819D01*
X7416666Y-24204819D02*
X7511904Y-24157200D01*
X7511904Y-24157200D02*
X7559523Y-24109580D01*
X7559523Y-24109580D02*
X7607142Y-24014342D01*
X7607142Y-24014342D02*
X7607142Y-23204819D01*
X8607142Y-24204819D02*
X8035714Y-24204819D01*
X8321428Y-24204819D02*
X8321428Y-23204819D01*
X8321428Y-23204819D02*
X8226190Y-23347676D01*
X8226190Y-23347676D02*
X8130952Y-23442914D01*
X8130952Y-23442914D02*
X8035714Y-23490533D01*
X9226190Y-23204819D02*
X9321428Y-23204819D01*
X9321428Y-23204819D02*
X9416666Y-23252438D01*
X9416666Y-23252438D02*
X9464285Y-23300057D01*
X9464285Y-23300057D02*
X9511904Y-23395295D01*
X9511904Y-23395295D02*
X9559523Y-23585771D01*
X9559523Y-23585771D02*
X9559523Y-23823866D01*
X9559523Y-23823866D02*
X9511904Y-24014342D01*
X9511904Y-24014342D02*
X9464285Y-24109580D01*
X9464285Y-24109580D02*
X9416666Y-24157200D01*
X9416666Y-24157200D02*
X9321428Y-24204819D01*
X9321428Y-24204819D02*
X9226190Y-24204819D01*
X9226190Y-24204819D02*
X9130952Y-24157200D01*
X9130952Y-24157200D02*
X9083333Y-24109580D01*
X9083333Y-24109580D02*
X9035714Y-24014342D01*
X9035714Y-24014342D02*
X8988095Y-23823866D01*
X8988095Y-23823866D02*
X8988095Y-23585771D01*
X8988095Y-23585771D02*
X9035714Y-23395295D01*
X9035714Y-23395295D02*
X9083333Y-23300057D01*
X9083333Y-23300057D02*
X9130952Y-23252438D01*
X9130952Y-23252438D02*
X9226190Y-23204819D01*
X10511904Y-24204819D02*
X9940476Y-24204819D01*
X10226190Y-24204819D02*
X10226190Y-23204819D01*
X10226190Y-23204819D02*
X10130952Y-23347676D01*
X10130952Y-23347676D02*
X10035714Y-23442914D01*
X10035714Y-23442914D02*
X9940476Y-23490533D01*
X31535721Y-31754819D02*
X31535721Y-32564342D01*
X31535721Y-32564342D02*
X31583340Y-32659580D01*
X31583340Y-32659580D02*
X31630959Y-32707200D01*
X31630959Y-32707200D02*
X31726197Y-32754819D01*
X31726197Y-32754819D02*
X31916673Y-32754819D01*
X31916673Y-32754819D02*
X32011911Y-32707200D01*
X32011911Y-32707200D02*
X32059530Y-32659580D01*
X32059530Y-32659580D02*
X32107149Y-32564342D01*
X32107149Y-32564342D02*
X32107149Y-31754819D01*
X32535721Y-31850057D02*
X32583340Y-31802438D01*
X32583340Y-31802438D02*
X32678578Y-31754819D01*
X32678578Y-31754819D02*
X32916673Y-31754819D01*
X32916673Y-31754819D02*
X33011911Y-31802438D01*
X33011911Y-31802438D02*
X33059530Y-31850057D01*
X33059530Y-31850057D02*
X33107149Y-31945295D01*
X33107149Y-31945295D02*
X33107149Y-32040533D01*
X33107149Y-32040533D02*
X33059530Y-32183390D01*
X33059530Y-32183390D02*
X32488102Y-32754819D01*
X32488102Y-32754819D02*
X33107149Y-32754819D01*
X33726197Y-31754819D02*
X33821435Y-31754819D01*
X33821435Y-31754819D02*
X33916673Y-31802438D01*
X33916673Y-31802438D02*
X33964292Y-31850057D01*
X33964292Y-31850057D02*
X34011911Y-31945295D01*
X34011911Y-31945295D02*
X34059530Y-32135771D01*
X34059530Y-32135771D02*
X34059530Y-32373866D01*
X34059530Y-32373866D02*
X34011911Y-32564342D01*
X34011911Y-32564342D02*
X33964292Y-32659580D01*
X33964292Y-32659580D02*
X33916673Y-32707200D01*
X33916673Y-32707200D02*
X33821435Y-32754819D01*
X33821435Y-32754819D02*
X33726197Y-32754819D01*
X33726197Y-32754819D02*
X33630959Y-32707200D01*
X33630959Y-32707200D02*
X33583340Y-32659580D01*
X33583340Y-32659580D02*
X33535721Y-32564342D01*
X33535721Y-32564342D02*
X33488102Y-32373866D01*
X33488102Y-32373866D02*
X33488102Y-32135771D01*
X33488102Y-32135771D02*
X33535721Y-31945295D01*
X33535721Y-31945295D02*
X33583340Y-31850057D01*
X33583340Y-31850057D02*
X33630959Y-31802438D01*
X33630959Y-31802438D02*
X33726197Y-31754819D01*
X35011911Y-32754819D02*
X34440483Y-32754819D01*
X34726197Y-32754819D02*
X34726197Y-31754819D01*
X34726197Y-31754819D02*
X34630959Y-31897676D01*
X34630959Y-31897676D02*
X34535721Y-31992914D01*
X34535721Y-31992914D02*
X34440483Y-32040533D01*
X35900000Y-40254819D02*
X35900000Y-40492914D01*
X35661905Y-40397676D02*
X35900000Y-40492914D01*
X35900000Y-40492914D02*
X36138095Y-40397676D01*
X35757143Y-40683390D02*
X35900000Y-40492914D01*
X35900000Y-40492914D02*
X36042857Y-40683390D01*
X35900000Y-40254819D02*
X35900000Y-40492914D01*
X35661905Y-40397676D02*
X35900000Y-40492914D01*
X35900000Y-40492914D02*
X36138095Y-40397676D01*
X35757143Y-40683390D02*
X35900000Y-40492914D01*
X35900000Y-40492914D02*
X36042857Y-40683390D01*
X39269580Y-37169047D02*
X39317200Y-37216666D01*
X39317200Y-37216666D02*
X39364819Y-37359523D01*
X39364819Y-37359523D02*
X39364819Y-37454761D01*
X39364819Y-37454761D02*
X39317200Y-37597618D01*
X39317200Y-37597618D02*
X39221961Y-37692856D01*
X39221961Y-37692856D02*
X39126723Y-37740475D01*
X39126723Y-37740475D02*
X38936247Y-37788094D01*
X38936247Y-37788094D02*
X38793390Y-37788094D01*
X38793390Y-37788094D02*
X38602914Y-37740475D01*
X38602914Y-37740475D02*
X38507676Y-37692856D01*
X38507676Y-37692856D02*
X38412438Y-37597618D01*
X38412438Y-37597618D02*
X38364819Y-37454761D01*
X38364819Y-37454761D02*
X38364819Y-37359523D01*
X38364819Y-37359523D02*
X38412438Y-37216666D01*
X38412438Y-37216666D02*
X38460057Y-37169047D01*
X38460057Y-36788094D02*
X38412438Y-36740475D01*
X38412438Y-36740475D02*
X38364819Y-36645237D01*
X38364819Y-36645237D02*
X38364819Y-36407142D01*
X38364819Y-36407142D02*
X38412438Y-36311904D01*
X38412438Y-36311904D02*
X38460057Y-36264285D01*
X38460057Y-36264285D02*
X38555295Y-36216666D01*
X38555295Y-36216666D02*
X38650533Y-36216666D01*
X38650533Y-36216666D02*
X38793390Y-36264285D01*
X38793390Y-36264285D02*
X39364819Y-36835713D01*
X39364819Y-36835713D02*
X39364819Y-36216666D01*
X38364819Y-35597618D02*
X38364819Y-35502380D01*
X38364819Y-35502380D02*
X38412438Y-35407142D01*
X38412438Y-35407142D02*
X38460057Y-35359523D01*
X38460057Y-35359523D02*
X38555295Y-35311904D01*
X38555295Y-35311904D02*
X38745771Y-35264285D01*
X38745771Y-35264285D02*
X38983866Y-35264285D01*
X38983866Y-35264285D02*
X39174342Y-35311904D01*
X39174342Y-35311904D02*
X39269580Y-35359523D01*
X39269580Y-35359523D02*
X39317200Y-35407142D01*
X39317200Y-35407142D02*
X39364819Y-35502380D01*
X39364819Y-35502380D02*
X39364819Y-35597618D01*
X39364819Y-35597618D02*
X39317200Y-35692856D01*
X39317200Y-35692856D02*
X39269580Y-35740475D01*
X39269580Y-35740475D02*
X39174342Y-35788094D01*
X39174342Y-35788094D02*
X38983866Y-35835713D01*
X38983866Y-35835713D02*
X38745771Y-35835713D01*
X38745771Y-35835713D02*
X38555295Y-35788094D01*
X38555295Y-35788094D02*
X38460057Y-35740475D01*
X38460057Y-35740475D02*
X38412438Y-35692856D01*
X38412438Y-35692856D02*
X38364819Y-35597618D01*
X38793390Y-34692856D02*
X38745771Y-34788094D01*
X38745771Y-34788094D02*
X38698152Y-34835713D01*
X38698152Y-34835713D02*
X38602914Y-34883332D01*
X38602914Y-34883332D02*
X38555295Y-34883332D01*
X38555295Y-34883332D02*
X38460057Y-34835713D01*
X38460057Y-34835713D02*
X38412438Y-34788094D01*
X38412438Y-34788094D02*
X38364819Y-34692856D01*
X38364819Y-34692856D02*
X38364819Y-34502380D01*
X38364819Y-34502380D02*
X38412438Y-34407142D01*
X38412438Y-34407142D02*
X38460057Y-34359523D01*
X38460057Y-34359523D02*
X38555295Y-34311904D01*
X38555295Y-34311904D02*
X38602914Y-34311904D01*
X38602914Y-34311904D02*
X38698152Y-34359523D01*
X38698152Y-34359523D02*
X38745771Y-34407142D01*
X38745771Y-34407142D02*
X38793390Y-34502380D01*
X38793390Y-34502380D02*
X38793390Y-34692856D01*
X38793390Y-34692856D02*
X38841009Y-34788094D01*
X38841009Y-34788094D02*
X38888628Y-34835713D01*
X38888628Y-34835713D02*
X38983866Y-34883332D01*
X38983866Y-34883332D02*
X39174342Y-34883332D01*
X39174342Y-34883332D02*
X39269580Y-34835713D01*
X39269580Y-34835713D02*
X39317200Y-34788094D01*
X39317200Y-34788094D02*
X39364819Y-34692856D01*
X39364819Y-34692856D02*
X39364819Y-34502380D01*
X39364819Y-34502380D02*
X39317200Y-34407142D01*
X39317200Y-34407142D02*
X39269580Y-34359523D01*
X39269580Y-34359523D02*
X39174342Y-34311904D01*
X39174342Y-34311904D02*
X38983866Y-34311904D01*
X38983866Y-34311904D02*
X38888628Y-34359523D01*
X38888628Y-34359523D02*
X38841009Y-34407142D01*
X38841009Y-34407142D02*
X38793390Y-34502380D01*
X1580952Y-24159580D02*
X1533333Y-24207200D01*
X1533333Y-24207200D02*
X1390476Y-24254819D01*
X1390476Y-24254819D02*
X1295238Y-24254819D01*
X1295238Y-24254819D02*
X1152381Y-24207200D01*
X1152381Y-24207200D02*
X1057143Y-24111961D01*
X1057143Y-24111961D02*
X1009524Y-24016723D01*
X1009524Y-24016723D02*
X961905Y-23826247D01*
X961905Y-23826247D02*
X961905Y-23683390D01*
X961905Y-23683390D02*
X1009524Y-23492914D01*
X1009524Y-23492914D02*
X1057143Y-23397676D01*
X1057143Y-23397676D02*
X1152381Y-23302438D01*
X1152381Y-23302438D02*
X1295238Y-23254819D01*
X1295238Y-23254819D02*
X1390476Y-23254819D01*
X1390476Y-23254819D02*
X1533333Y-23302438D01*
X1533333Y-23302438D02*
X1580952Y-23350057D01*
X2533333Y-24254819D02*
X1961905Y-24254819D01*
X2247619Y-24254819D02*
X2247619Y-23254819D01*
X2247619Y-23254819D02*
X2152381Y-23397676D01*
X2152381Y-23397676D02*
X2057143Y-23492914D01*
X2057143Y-23492914D02*
X1961905Y-23540533D01*
X3152381Y-23254819D02*
X3247619Y-23254819D01*
X3247619Y-23254819D02*
X3342857Y-23302438D01*
X3342857Y-23302438D02*
X3390476Y-23350057D01*
X3390476Y-23350057D02*
X3438095Y-23445295D01*
X3438095Y-23445295D02*
X3485714Y-23635771D01*
X3485714Y-23635771D02*
X3485714Y-23873866D01*
X3485714Y-23873866D02*
X3438095Y-24064342D01*
X3438095Y-24064342D02*
X3390476Y-24159580D01*
X3390476Y-24159580D02*
X3342857Y-24207200D01*
X3342857Y-24207200D02*
X3247619Y-24254819D01*
X3247619Y-24254819D02*
X3152381Y-24254819D01*
X3152381Y-24254819D02*
X3057143Y-24207200D01*
X3057143Y-24207200D02*
X3009524Y-24159580D01*
X3009524Y-24159580D02*
X2961905Y-24064342D01*
X2961905Y-24064342D02*
X2914286Y-23873866D01*
X2914286Y-23873866D02*
X2914286Y-23635771D01*
X2914286Y-23635771D02*
X2961905Y-23445295D01*
X2961905Y-23445295D02*
X3009524Y-23350057D01*
X3009524Y-23350057D02*
X3057143Y-23302438D01*
X3057143Y-23302438D02*
X3152381Y-23254819D01*
X4342857Y-23254819D02*
X4152381Y-23254819D01*
X4152381Y-23254819D02*
X4057143Y-23302438D01*
X4057143Y-23302438D02*
X4009524Y-23350057D01*
X4009524Y-23350057D02*
X3914286Y-23492914D01*
X3914286Y-23492914D02*
X3866667Y-23683390D01*
X3866667Y-23683390D02*
X3866667Y-24064342D01*
X3866667Y-24064342D02*
X3914286Y-24159580D01*
X3914286Y-24159580D02*
X3961905Y-24207200D01*
X3961905Y-24207200D02*
X4057143Y-24254819D01*
X4057143Y-24254819D02*
X4247619Y-24254819D01*
X4247619Y-24254819D02*
X4342857Y-24207200D01*
X4342857Y-24207200D02*
X4390476Y-24159580D01*
X4390476Y-24159580D02*
X4438095Y-24064342D01*
X4438095Y-24064342D02*
X4438095Y-23826247D01*
X4438095Y-23826247D02*
X4390476Y-23731009D01*
X4390476Y-23731009D02*
X4342857Y-23683390D01*
X4342857Y-23683390D02*
X4247619Y-23635771D01*
X4247619Y-23635771D02*
X4057143Y-23635771D01*
X4057143Y-23635771D02*
X3961905Y-23683390D01*
X3961905Y-23683390D02*
X3914286Y-23731009D01*
X3914286Y-23731009D02*
X3866667Y-23826247D01*
X7380952Y-28859580D02*
X7333333Y-28907200D01*
X7333333Y-28907200D02*
X7190476Y-28954819D01*
X7190476Y-28954819D02*
X7095238Y-28954819D01*
X7095238Y-28954819D02*
X6952381Y-28907200D01*
X6952381Y-28907200D02*
X6857143Y-28811961D01*
X6857143Y-28811961D02*
X6809524Y-28716723D01*
X6809524Y-28716723D02*
X6761905Y-28526247D01*
X6761905Y-28526247D02*
X6761905Y-28383390D01*
X6761905Y-28383390D02*
X6809524Y-28192914D01*
X6809524Y-28192914D02*
X6857143Y-28097676D01*
X6857143Y-28097676D02*
X6952381Y-28002438D01*
X6952381Y-28002438D02*
X7095238Y-27954819D01*
X7095238Y-27954819D02*
X7190476Y-27954819D01*
X7190476Y-27954819D02*
X7333333Y-28002438D01*
X7333333Y-28002438D02*
X7380952Y-28050057D01*
X8333333Y-28954819D02*
X7761905Y-28954819D01*
X8047619Y-28954819D02*
X8047619Y-27954819D01*
X8047619Y-27954819D02*
X7952381Y-28097676D01*
X7952381Y-28097676D02*
X7857143Y-28192914D01*
X7857143Y-28192914D02*
X7761905Y-28240533D01*
X8952381Y-27954819D02*
X9047619Y-27954819D01*
X9047619Y-27954819D02*
X9142857Y-28002438D01*
X9142857Y-28002438D02*
X9190476Y-28050057D01*
X9190476Y-28050057D02*
X9238095Y-28145295D01*
X9238095Y-28145295D02*
X9285714Y-28335771D01*
X9285714Y-28335771D02*
X9285714Y-28573866D01*
X9285714Y-28573866D02*
X9238095Y-28764342D01*
X9238095Y-28764342D02*
X9190476Y-28859580D01*
X9190476Y-28859580D02*
X9142857Y-28907200D01*
X9142857Y-28907200D02*
X9047619Y-28954819D01*
X9047619Y-28954819D02*
X8952381Y-28954819D01*
X8952381Y-28954819D02*
X8857143Y-28907200D01*
X8857143Y-28907200D02*
X8809524Y-28859580D01*
X8809524Y-28859580D02*
X8761905Y-28764342D01*
X8761905Y-28764342D02*
X8714286Y-28573866D01*
X8714286Y-28573866D02*
X8714286Y-28335771D01*
X8714286Y-28335771D02*
X8761905Y-28145295D01*
X8761905Y-28145295D02*
X8809524Y-28050057D01*
X8809524Y-28050057D02*
X8857143Y-28002438D01*
X8857143Y-28002438D02*
X8952381Y-27954819D01*
X10142857Y-28288152D02*
X10142857Y-28954819D01*
X9904762Y-27907200D02*
X9666667Y-28621485D01*
X9666667Y-28621485D02*
X10285714Y-28621485D01*
X40535708Y-8154819D02*
X40535708Y-8964342D01*
X40535708Y-8964342D02*
X40583327Y-9059580D01*
X40583327Y-9059580D02*
X40630946Y-9107200D01*
X40630946Y-9107200D02*
X40726184Y-9154819D01*
X40726184Y-9154819D02*
X40916660Y-9154819D01*
X40916660Y-9154819D02*
X41011898Y-9107200D01*
X41011898Y-9107200D02*
X41059517Y-9059580D01*
X41059517Y-9059580D02*
X41107136Y-8964342D01*
X41107136Y-8964342D02*
X41107136Y-8154819D01*
X41488089Y-8154819D02*
X42107136Y-8154819D01*
X42107136Y-8154819D02*
X41773803Y-8535771D01*
X41773803Y-8535771D02*
X41916660Y-8535771D01*
X41916660Y-8535771D02*
X42011898Y-8583390D01*
X42011898Y-8583390D02*
X42059517Y-8631009D01*
X42059517Y-8631009D02*
X42107136Y-8726247D01*
X42107136Y-8726247D02*
X42107136Y-8964342D01*
X42107136Y-8964342D02*
X42059517Y-9059580D01*
X42059517Y-9059580D02*
X42011898Y-9107200D01*
X42011898Y-9107200D02*
X41916660Y-9154819D01*
X41916660Y-9154819D02*
X41630946Y-9154819D01*
X41630946Y-9154819D02*
X41535708Y-9107200D01*
X41535708Y-9107200D02*
X41488089Y-9059580D01*
X42726184Y-8154819D02*
X42821422Y-8154819D01*
X42821422Y-8154819D02*
X42916660Y-8202438D01*
X42916660Y-8202438D02*
X42964279Y-8250057D01*
X42964279Y-8250057D02*
X43011898Y-8345295D01*
X43011898Y-8345295D02*
X43059517Y-8535771D01*
X43059517Y-8535771D02*
X43059517Y-8773866D01*
X43059517Y-8773866D02*
X43011898Y-8964342D01*
X43011898Y-8964342D02*
X42964279Y-9059580D01*
X42964279Y-9059580D02*
X42916660Y-9107200D01*
X42916660Y-9107200D02*
X42821422Y-9154819D01*
X42821422Y-9154819D02*
X42726184Y-9154819D01*
X42726184Y-9154819D02*
X42630946Y-9107200D01*
X42630946Y-9107200D02*
X42583327Y-9059580D01*
X42583327Y-9059580D02*
X42535708Y-8964342D01*
X42535708Y-8964342D02*
X42488089Y-8773866D01*
X42488089Y-8773866D02*
X42488089Y-8535771D01*
X42488089Y-8535771D02*
X42535708Y-8345295D01*
X42535708Y-8345295D02*
X42583327Y-8250057D01*
X42583327Y-8250057D02*
X42630946Y-8202438D01*
X42630946Y-8202438D02*
X42726184Y-8154819D01*
X44011898Y-9154819D02*
X43440470Y-9154819D01*
X43726184Y-9154819D02*
X43726184Y-8154819D01*
X43726184Y-8154819D02*
X43630946Y-8297676D01*
X43630946Y-8297676D02*
X43535708Y-8392914D01*
X43535708Y-8392914D02*
X43440470Y-8440533D01*
X45200000Y-7854819D02*
X45200000Y-8092914D01*
X44961905Y-7997676D02*
X45200000Y-8092914D01*
X45200000Y-8092914D02*
X45438095Y-7997676D01*
X45057143Y-8283390D02*
X45200000Y-8092914D01*
X45200000Y-8092914D02*
X45342857Y-8283390D01*
X45200000Y-7854819D02*
X45200000Y-8092914D01*
X44961905Y-7997676D02*
X45200000Y-8092914D01*
X45200000Y-8092914D02*
X45438095Y-7997676D01*
X45057143Y-8283390D02*
X45200000Y-8092914D01*
X45200000Y-8092914D02*
X45342857Y-8283390D01*
D11*
%TO.C,J104*%
X53329500Y-8652200D02*
G75*
G02*
X52567500Y-8652200I-381000J0D01*
G01*
X52567500Y-8652200D02*
G75*
G02*
X53329500Y-8652200I381000J0D01*
G01*
D12*
X57603499Y-5620359D02*
X57603499Y-1879641D01*
X55539059Y-625800D02*
X52396500Y-625800D01*
X52396500Y-6874200D02*
X55539059Y-6874200D01*
X52396500Y-5887540D02*
X52396500Y-6874200D01*
X52396500Y-625800D02*
X52396500Y-1612460D01*
D13*
%TO.C,R102*%
X9956359Y-16370000D02*
X10263641Y-16370000D01*
X9956359Y-17130000D02*
X10263641Y-17130000D01*
D14*
%TO.C,IC101*%
X12690000Y-12000000D02*
X12690000Y-30000000D01*
X12690000Y-30000000D02*
X19240000Y-30000000D01*
X19240000Y-12000000D02*
X12690000Y-12000000D01*
D15*
X20180000Y-31000000D02*
X20180000Y-31000000D01*
X20180000Y-31100000D02*
X20180000Y-31100000D01*
D14*
X37440000Y-30000000D02*
X38190000Y-30000000D01*
X38190000Y-12000000D02*
X37440000Y-12000000D01*
X38190000Y-13200000D02*
X38190000Y-12000000D01*
X38190000Y-30000000D02*
X38190000Y-28800000D01*
D15*
X20180000Y-31000000D02*
G75*
G02*
X20180000Y-31100000I0J-50000D01*
G01*
X20180000Y-31100000D02*
G75*
G02*
X20180000Y-31000000I0J50000D01*
G01*
D13*
%TO.C,C111*%
X26294600Y-2107836D02*
X26294600Y-1892164D01*
X27014600Y-2107836D02*
X27014600Y-1892164D01*
%TO.C,C109*%
X36544600Y-2077836D02*
X36544600Y-1862164D01*
X37264600Y-2077836D02*
X37264600Y-1862164D01*
%TO.C,R207*%
X42106359Y-24520000D02*
X42413641Y-24520000D01*
X42106359Y-25280000D02*
X42413641Y-25280000D01*
D12*
%TO.C,J107*%
X52396500Y-8125800D02*
X52396500Y-9112460D01*
X52396500Y-13387540D02*
X52396500Y-14374200D01*
X52396500Y-14374200D02*
X55539059Y-14374200D01*
X55539059Y-8125800D02*
X52396500Y-8125800D01*
X57603499Y-13120359D02*
X57603499Y-9379641D01*
D11*
X53329500Y-16152200D02*
G75*
G02*
X52567500Y-16152200I-381000J0D01*
G01*
X52567500Y-16152200D02*
G75*
G02*
X53329500Y-16152200I381000J0D01*
G01*
D13*
%TO.C,R206*%
X56596359Y-31620000D02*
X56903641Y-31620000D01*
X56596359Y-32380000D02*
X56903641Y-32380000D01*
%TO.C,D201*%
X41987500Y-27135000D02*
X44272500Y-27135000D01*
X44272500Y-25665000D02*
X41987500Y-25665000D01*
X44272500Y-27135000D02*
X44272500Y-25665000D01*
%TO.C,C307*%
X47587836Y-24140000D02*
X47372164Y-24140000D01*
X47587836Y-24860000D02*
X47372164Y-24860000D01*
%TO.C,R311*%
X45336359Y-12770000D02*
X45643641Y-12770000D01*
X45336359Y-13530000D02*
X45643641Y-13530000D01*
%TO.C,J102*%
X11460000Y-39660000D02*
X11460000Y-36840000D01*
X11460000Y-39660000D02*
X9760000Y-40960000D01*
X11460000Y-36840000D02*
X9760000Y-35540000D01*
X9760000Y-40960000D02*
X1040000Y-40960000D01*
X9760000Y-35540000D02*
X1040000Y-35540000D01*
X1040000Y-40960000D02*
X1040000Y-35540000D01*
%TO.C,C105*%
X5662836Y-27640000D02*
X5447164Y-27640000D01*
X5662836Y-28360000D02*
X5447164Y-28360000D01*
D12*
%TO.C,U102*%
X30721300Y-1886739D02*
X30721300Y-2613261D01*
X30721300Y-3926400D02*
X32778700Y-3926400D01*
X32778700Y-573600D02*
X30721300Y-573600D01*
D13*
%TO.C,C308*%
X47060000Y-5837836D02*
X47060000Y-5622164D01*
X47780000Y-5837836D02*
X47780000Y-5622164D01*
%TO.C,R214*%
X53272936Y-29090000D02*
X54727064Y-29090000D01*
X53272936Y-30910000D02*
X54727064Y-30910000D01*
%TO.C,R305*%
X52763641Y-17870000D02*
X52456359Y-17870000D01*
X52763641Y-18630000D02*
X52456359Y-18630000D01*
%TO.C,C110*%
X21140000Y-38892164D02*
X21140000Y-39107836D01*
X21860000Y-38892164D02*
X21860000Y-39107836D01*
%TO.C,R208*%
X42106359Y-27520000D02*
X42413641Y-27520000D01*
X42106359Y-28280000D02*
X42413641Y-28280000D01*
%TO.C,C102*%
X19662164Y-32140000D02*
X19877836Y-32140000D01*
X19662164Y-32860000D02*
X19877836Y-32860000D01*
%TO.C,D101*%
X9400000Y-12940000D02*
X9400000Y-15600000D01*
X11100000Y-12940000D02*
X9400000Y-12940000D01*
X11100000Y-12940000D02*
X11100000Y-15600000D01*
%TO.C,R203*%
X52763641Y-35620000D02*
X52456359Y-35620000D01*
X52763641Y-36380000D02*
X52456359Y-36380000D01*
%TO.C,R105*%
X5371359Y-24520000D02*
X5678641Y-24520000D01*
X5371359Y-25280000D02*
X5678641Y-25280000D01*
%TO.C,C113*%
X24392164Y-40640000D02*
X24607836Y-40640000D01*
X24392164Y-41360000D02*
X24607836Y-41360000D01*
%TO.C,R211*%
X45086359Y-26120000D02*
X45393641Y-26120000D01*
X45086359Y-26880000D02*
X45393641Y-26880000D01*
%TO.C,R313*%
X53272936Y-19590000D02*
X54727064Y-19590000D01*
X53272936Y-21410000D02*
X54727064Y-21410000D01*
D12*
%TO.C,U103*%
X24373700Y-38162139D02*
X24373700Y-38837861D01*
X24947484Y-40024000D02*
X25552516Y-40024000D01*
X25552516Y-36976000D02*
X24947484Y-36976000D01*
X25125128Y-39745953D02*
G75*
G02*
X25374872Y-39745953I124872J-278049D01*
G01*
D14*
%TO.C,J101*%
X400000Y-22360000D02*
X1680000Y-22360000D01*
X1680000Y-13420000D02*
X400000Y-13420000D01*
X5650000Y-13420000D02*
X4400000Y-13420000D01*
X5650000Y-22360000D02*
X4400000Y-22360000D01*
X9100000Y-14640000D02*
G75*
G02*
X8900000Y-14640000I-100000J0D01*
G01*
X8900000Y-14640000D02*
G75*
G02*
X9100000Y-14640000I100000J0D01*
G01*
D13*
%TO.C,C309*%
X47587836Y-15640000D02*
X47372164Y-15640000D01*
X47587836Y-16360000D02*
X47372164Y-16360000D01*
%TO.C,C201*%
X45367836Y-37540000D02*
X45152164Y-37540000D01*
X45367836Y-38260000D02*
X45152164Y-38260000D01*
%TO.C,R110*%
X27846359Y-31720000D02*
X28153641Y-31720000D01*
X27846359Y-32480000D02*
X28153641Y-32480000D01*
%TO.C,C302*%
X47127836Y-25140000D02*
X46912164Y-25140000D01*
X47127836Y-25860000D02*
X46912164Y-25860000D01*
%TO.C,C112*%
X27669600Y-2261252D02*
X27669600Y-1738748D01*
X29139600Y-2261252D02*
X29139600Y-1738748D01*
D16*
%TO.C,SW102*%
X15500000Y-37750000D02*
X18500000Y-37750000D01*
X15500000Y-40250000D02*
X18500000Y-40250000D01*
D14*
X14400000Y-38800000D02*
G75*
G02*
X14200000Y-38800000I-100000J0D01*
G01*
X14200000Y-38800000D02*
G75*
G02*
X14400000Y-38800000I100000J0D01*
G01*
D17*
%TO.C,IC201*%
X42375000Y-37000000D02*
G75*
G02*
X42125000Y-37000000I-125000J0D01*
G01*
X42125000Y-37000000D02*
G75*
G02*
X42375000Y-37000000I125000J0D01*
G01*
D13*
%TO.C,R301*%
X52763641Y-26370000D02*
X52456359Y-26370000D01*
X52763641Y-27130000D02*
X52456359Y-27130000D01*
%TO.C,C305*%
X54857836Y-17890000D02*
X54642164Y-17890000D01*
X54857836Y-18610000D02*
X54642164Y-18610000D01*
%TO.C,R213*%
X53272936Y-33090000D02*
X54727064Y-33090000D01*
X53272936Y-34910000D02*
X54727064Y-34910000D01*
%TO.C,D301*%
X41987500Y-13885000D02*
X44272500Y-13885000D01*
X44272500Y-12415000D02*
X41987500Y-12415000D01*
X44272500Y-13885000D02*
X44272500Y-12415000D01*
%TO.C,R104*%
X5371359Y-26520000D02*
X5678641Y-26520000D01*
X5371359Y-27280000D02*
X5678641Y-27280000D01*
%TO.C,C203*%
X54857836Y-39890000D02*
X54642164Y-39890000D01*
X54857836Y-40610000D02*
X54642164Y-40610000D01*
%TO.C,C210*%
X45337836Y-29040000D02*
X45122164Y-29040000D01*
X45337836Y-29760000D02*
X45122164Y-29760000D01*
%TO.C,C206*%
X48561252Y-26665000D02*
X48038748Y-26665000D01*
X48561252Y-28135000D02*
X48038748Y-28135000D01*
%TO.C,R107*%
X19870000Y-39153641D02*
X19870000Y-38846359D01*
X20630000Y-39153641D02*
X20630000Y-38846359D01*
D16*
%TO.C,SW101*%
X15500000Y-2000000D02*
X18500000Y-2000000D01*
X15500000Y-4500000D02*
X18500000Y-4500000D01*
D14*
X14400000Y-3050000D02*
G75*
G02*
X14200000Y-3050000I-100000J0D01*
G01*
X14200000Y-3050000D02*
G75*
G02*
X14400000Y-3050000I100000J0D01*
G01*
D13*
%TO.C,C209*%
X47587836Y-29040000D02*
X47372164Y-29040000D01*
X47587836Y-29760000D02*
X47372164Y-29760000D01*
%TO.C,D103*%
X33117099Y-7985000D02*
X35402099Y-7985000D01*
X35402099Y-6515000D02*
X33117099Y-6515000D01*
X35402099Y-7985000D02*
X35402099Y-6515000D01*
%TO.C,R303*%
X52763641Y-22120000D02*
X52456359Y-22120000D01*
X52763641Y-22880000D02*
X52456359Y-22880000D01*
D17*
%TO.C,IC301*%
X42375000Y-23600000D02*
G75*
G02*
X42125000Y-23600000I-125000J0D01*
G01*
X42125000Y-23600000D02*
G75*
G02*
X42375000Y-23600000I125000J0D01*
G01*
D13*
%TO.C,R108*%
X36290958Y-4870000D02*
X36598240Y-4870000D01*
X36290958Y-5630000D02*
X36598240Y-5630000D01*
%TO.C,J109*%
X11460000Y-5160000D02*
X11460000Y-2340000D01*
X11460000Y-5160000D02*
X9760000Y-6460000D01*
X11460000Y-2340000D02*
X9760000Y-1040000D01*
X9760000Y-6460000D02*
X1040000Y-6460000D01*
X9760000Y-1040000D02*
X1040000Y-1040000D01*
X1040000Y-6460000D02*
X1040000Y-1040000D01*
%TO.C,R314*%
X53272936Y-15590000D02*
X54727064Y-15590000D01*
X53272936Y-17410000D02*
X54727064Y-17410000D01*
%TO.C,C202*%
X47127836Y-38540000D02*
X46912164Y-38540000D01*
X47127836Y-39260000D02*
X46912164Y-39260000D01*
%TO.C,C301*%
X45377836Y-24140000D02*
X45162164Y-24140000D01*
X45377836Y-24860000D02*
X45162164Y-24860000D01*
%TO.C,R106*%
X21120000Y-3403641D02*
X21120000Y-3096359D01*
X21880000Y-3403641D02*
X21880000Y-3096359D01*
%TO.C,C207*%
X47587836Y-37540000D02*
X47372164Y-37540000D01*
X47587836Y-38260000D02*
X47372164Y-38260000D01*
%TO.C,R103*%
X9556359Y-19220000D02*
X9863641Y-19220000D01*
X9556359Y-19980000D02*
X9863641Y-19980000D01*
%TO.C,R109*%
X36310958Y-6870000D02*
X36618240Y-6870000D01*
X36310958Y-7630000D02*
X36618240Y-7630000D01*
%TO.C,C303*%
X54857836Y-26390000D02*
X54642164Y-26390000D01*
X54857836Y-27110000D02*
X54642164Y-27110000D01*
%TO.C,R309*%
X42413641Y-15620000D02*
X42106359Y-15620000D01*
X42413641Y-16380000D02*
X42106359Y-16380000D01*
%TO.C,R310*%
X43370000Y-15663641D02*
X43370000Y-15356359D01*
X44130000Y-15663641D02*
X44130000Y-15356359D01*
%TO.C,R306*%
X56596359Y-17870000D02*
X56903641Y-17870000D01*
X56596359Y-18630000D02*
X56903641Y-18630000D01*
%TO.C,C108*%
X34419600Y-2261252D02*
X34419600Y-1738748D01*
X35889600Y-2261252D02*
X35889600Y-1738748D01*
%TO.C,R302*%
X56596359Y-26370000D02*
X56903641Y-26370000D01*
X56596359Y-27130000D02*
X56903641Y-27130000D01*
%TO.C,R101*%
X21586359Y-32120000D02*
X21893641Y-32120000D01*
X21586359Y-32880000D02*
X21893641Y-32880000D01*
%TO.C,R201*%
X52763641Y-39870000D02*
X52456359Y-39870000D01*
X52763641Y-40630000D02*
X52456359Y-40630000D01*
%TO.C,R202*%
X56596359Y-39870000D02*
X56903641Y-39870000D01*
X56596359Y-40630000D02*
X56903641Y-40630000D01*
%TO.C,C205*%
X54857836Y-31640000D02*
X54642164Y-31640000D01*
X54857836Y-32360000D02*
X54642164Y-32360000D01*
%TO.C,R209*%
X42413641Y-29020000D02*
X42106359Y-29020000D01*
X42413641Y-29780000D02*
X42106359Y-29780000D01*
%TO.C,R204*%
X56596359Y-35620000D02*
X56903641Y-35620000D01*
X56596359Y-36380000D02*
X56903641Y-36380000D01*
%TO.C,R304*%
X56596359Y-22120000D02*
X56903641Y-22120000D01*
X56596359Y-22880000D02*
X56903641Y-22880000D01*
%TO.C,C103*%
X15538748Y-31765000D02*
X16061252Y-31765000D01*
X15538748Y-33235000D02*
X16061252Y-33235000D01*
%TO.C,C107*%
X19890000Y-3142164D02*
X19890000Y-3357836D01*
X20610000Y-3142164D02*
X20610000Y-3357836D01*
%TO.C,C101*%
X23622164Y-32140000D02*
X23837836Y-32140000D01*
X23622164Y-32860000D02*
X23837836Y-32860000D01*
%TO.C,R205*%
X52763641Y-31620000D02*
X52456359Y-31620000D01*
X52763641Y-32380000D02*
X52456359Y-32380000D01*
%TO.C,R308*%
X42086359Y-14270000D02*
X42393641Y-14270000D01*
X42086359Y-15030000D02*
X42393641Y-15030000D01*
%TO.C,R212*%
X53272936Y-37340000D02*
X54727064Y-37340000D01*
X53272936Y-39160000D02*
X54727064Y-39160000D01*
%TO.C,R312*%
X53272936Y-23840000D02*
X54727064Y-23840000D01*
X53272936Y-25660000D02*
X54727064Y-25660000D01*
%TO.C,D102*%
X33117099Y-5985000D02*
X35402099Y-5985000D01*
X35402099Y-4515000D02*
X33117099Y-4515000D01*
X35402099Y-5985000D02*
X35402099Y-4515000D01*
%TO.C,C306*%
X48561252Y-13265000D02*
X48038748Y-13265000D01*
X48561252Y-14735000D02*
X48038748Y-14735000D01*
%TO.C,U101*%
X8697500Y-24390000D02*
X7897500Y-24390000D01*
X8697500Y-24390000D02*
X9497500Y-24390000D01*
X8697500Y-27510000D02*
X7897500Y-27510000D01*
X8697500Y-27510000D02*
X9497500Y-27510000D01*
X10237500Y-27790000D02*
X9757500Y-27790000D01*
X9997500Y-27460000D01*
X10237500Y-27790000D01*
G36*
X10237500Y-27790000D02*
G01*
X9757500Y-27790000D01*
X9997500Y-27460000D01*
X10237500Y-27790000D01*
G37*
D12*
%TO.C,U201*%
X31131236Y-40179000D02*
X35368751Y-40179000D01*
X35368764Y-33321000D02*
X31131249Y-33321000D01*
D18*
G36*
X29338400Y-39865498D02*
G01*
X29084400Y-39865498D01*
X29084400Y-39484498D01*
X29338400Y-39484498D01*
X29338400Y-39865498D01*
G37*
G36*
X37415600Y-34015502D02*
G01*
X37161600Y-34015502D01*
X37161600Y-33634502D01*
X37415600Y-33634502D01*
X37415600Y-34015502D01*
G37*
D13*
%TO.C,R307*%
X42086359Y-11270000D02*
X42393641Y-11270000D01*
X42086359Y-12030000D02*
X42393641Y-12030000D01*
%TO.C,C208*%
X37390000Y-36142164D02*
X37390000Y-36357836D01*
X38110000Y-36142164D02*
X38110000Y-36357836D01*
%TO.C,C106*%
X5587836Y-23440000D02*
X5372164Y-23440000D01*
X5587836Y-24160000D02*
X5372164Y-24160000D01*
%TO.C,C104*%
X8288748Y-29265000D02*
X8811252Y-29265000D01*
X8288748Y-30735000D02*
X8811252Y-30735000D01*
%TO.C,R210*%
X43370000Y-29063641D02*
X43370000Y-28756359D01*
X44130000Y-29063641D02*
X44130000Y-28756359D01*
%TO.C,C204*%
X54857836Y-35640000D02*
X54642164Y-35640000D01*
X54857836Y-36360000D02*
X54642164Y-36360000D01*
D12*
%TO.C,U301*%
X40131236Y-7679000D02*
X44368751Y-7679000D01*
X44368764Y-821000D02*
X40131249Y-821000D01*
D18*
G36*
X38338400Y-7365498D02*
G01*
X38084400Y-7365498D01*
X38084400Y-6984498D01*
X38338400Y-6984498D01*
X38338400Y-7365498D01*
G37*
G36*
X46415600Y-1515502D02*
G01*
X46161600Y-1515502D01*
X46161600Y-1134502D01*
X46415600Y-1134502D01*
X46415600Y-1515502D01*
G37*
D13*
%TO.C,C310*%
X45337836Y-15640000D02*
X45122164Y-15640000D01*
X45337836Y-16360000D02*
X45122164Y-16360000D01*
%TO.C,C304*%
X54837836Y-22140000D02*
X54622164Y-22140000D01*
X54837836Y-22860000D02*
X54622164Y-22860000D01*
%TD*%
M02*
