%TF.GenerationSoftware,KiCad,Pcbnew,9.0.3*%
%TF.CreationDate,2026-09-10T02:19:06-04:00*%
%TF.ProjectId,Hydra_Driver,48796472-615f-4447-9269-7665722e6b69,rev?*%
%TF.SameCoordinates,Original*%
%TF.FileFunction,Copper,L2,Bot*%
%TF.FilePolarity,Positive*%
%FSLAX46Y46*%
G04 Gerber Fmt 4.6, Leading zero omitted, Abs format (unit mm)*
G04 Created by KiCad (PCBNEW 9.0.3) date 2026-09-10 02:19:06*
%MOMM*%
%LPD*%
G01*
G04 APERTURE LIST*
G04 Aperture macros list*
%AMRoundRect*
0 Rectangle with rounded corners*
0 $1 Rounding radius*
0 $2 $3 $4 $5 $6 $7 $8 $9 X,Y pos of 4 corners*
0 Add a 4 corners polygon primitive as box body*
4,1,4,$2,$3,$4,$5,$6,$7,$8,$9,$2,$3,0*
0 Add four circle primitives for the rounded corners*
1,1,$1+$1,$2,$3*
1,1,$1+$1,$4,$5*
1,1,$1+$1,$6,$7*
1,1,$1+$1,$8,$9*
0 Add four rect primitives between the rounded corners*
20,1,$1+$1,$2,$3,$4,$5,0*
20,1,$1+$1,$4,$5,$6,$7,0*
20,1,$1+$1,$6,$7,$8,$9,0*
20,1,$1+$1,$8,$9,$2,$3,0*%
G04 Aperture macros list end*
%TA.AperFunction,ComponentPad*%
%ADD10RoundRect,0.760000X-1.140000X-1.140000X1.140000X-1.140000X1.140000X1.140000X-1.140000X1.140000X0*%
%TD*%
%TA.AperFunction,ComponentPad*%
%ADD11C,4.000000*%
%TD*%
%TA.AperFunction,ComponentPad*%
%ADD12O,2.100000X1.000000*%
%TD*%
%TA.AperFunction,ComponentPad*%
%ADD13O,1.800000X1.000000*%
%TD*%
%TA.AperFunction,ComponentPad*%
%ADD14RoundRect,0.250000X-0.725000X0.600000X-0.725000X-0.600000X0.725000X-0.600000X0.725000X0.600000X0*%
%TD*%
%TA.AperFunction,ComponentPad*%
%ADD15O,1.950000X1.700000*%
%TD*%
%TA.AperFunction,ComponentPad*%
%ADD16R,1.700000X1.700000*%
%TD*%
%TA.AperFunction,ComponentPad*%
%ADD17C,1.700000*%
%TD*%
%TA.AperFunction,ViaPad*%
%ADD18C,0.600000*%
%TD*%
%TA.AperFunction,ViaPad*%
%ADD19C,0.800000*%
%TD*%
%TA.AperFunction,Conductor*%
%ADD20C,0.300000*%
%TD*%
%TA.AperFunction,Conductor*%
%ADD21C,1.000000*%
%TD*%
%TA.AperFunction,Conductor*%
%ADD22C,0.200000*%
%TD*%
G04 APERTURE END LIST*
D10*
%TO.P,J102,1,Pin_1*%
%TO.N,VMOT*%
X3750000Y-38250000D03*
D11*
%TO.P,J102,2,Pin_2*%
%TO.N,GND*%
X8750000Y-38250000D03*
%TD*%
D12*
%TO.P,J101,SH1,SHELL_GND*%
%TO.N,GND*%
X7180000Y-13570000D03*
%TO.P,J101,SH2,SHELL_GND__1*%
X7180000Y-22210000D03*
D13*
%TO.P,J101,SH3,SHELL_GND__2*%
X3000000Y-13570000D03*
%TO.P,J101,SH4,SHELL_GND__3*%
X3000000Y-22210000D03*
%TD*%
D10*
%TO.P,J109,1,Pin_1*%
%TO.N,VMOT*%
X3750000Y-3750000D03*
D11*
%TO.P,J109,2,Pin_2*%
%TO.N,GND*%
X8750000Y-3750000D03*
%TD*%
D14*
%TO.P,J105,1,Pin_1*%
%TO.N,/OUT3A*%
X50250000Y-31250000D03*
D15*
%TO.P,J105,2,Pin_2*%
%TO.N,/OUT2A*%
X50250000Y-33750000D03*
%TO.P,J105,3,Pin_3*%
%TO.N,/OUT1A*%
X50250000Y-36250000D03*
%TD*%
D14*
%TO.P,J108,1,Pin_1*%
%TO.N,/OUT3B*%
X50250000Y-17750000D03*
D15*
%TO.P,J108,2,Pin_2*%
%TO.N,/OUT2B*%
X50250000Y-20250000D03*
%TO.P,J108,3,Pin_3*%
%TO.N,/OUT1B*%
X50250000Y-22750000D03*
%TD*%
D16*
%TO.P,J110,1,Pin_1*%
%TO.N,/CSCK*%
X27750000Y-7250000D03*
D17*
%TO.P,J110,2,Pin_2*%
%TO.N,/CSOUT*%
X25210000Y-7250000D03*
%TO.P,J110,3,Pin_3*%
%TO.N,/CLK*%
X22670000Y-7250000D03*
%TO.P,J110,4,Pin_4*%
%TO.N,/MISO*%
X20130000Y-7250000D03*
%TO.P,J110,5,Pin_5*%
%TO.N,/MOSI*%
X17590000Y-7250000D03*
%TO.P,J110,6,Pin_6*%
%TO.N,GND*%
X15050000Y-7250000D03*
%TO.P,J110,7,Pin_7*%
%TO.N,+5V*%
X12510000Y-7250000D03*
%TD*%
D16*
%TO.P,J103,1,Pin_1*%
%TO.N,/CSCK*%
X27750000Y-35000000D03*
D17*
%TO.P,J103,2,Pin_2*%
%TO.N,/CSIN*%
X25210000Y-35000000D03*
%TO.P,J103,3,Pin_3*%
%TO.N,/CLK*%
X22670000Y-35000000D03*
%TO.P,J103,4,Pin_4*%
%TO.N,/MISO*%
X20130000Y-35000000D03*
%TO.P,J103,5,Pin_5*%
%TO.N,/MOSI*%
X17590000Y-35000000D03*
%TO.P,J103,6,Pin_6*%
%TO.N,GND*%
X15050000Y-35000000D03*
%TO.P,J103,7,Pin_7*%
%TO.N,+5V*%
X12510000Y-35000000D03*
%TD*%
D18*
%TO.N,GND*%
X20500000Y-13750000D03*
X37779599Y-7258050D03*
X48335707Y-6334293D03*
X46260000Y-32300000D03*
X46250000Y-7750000D03*
X11002000Y-17626033D03*
X14250000Y-39250000D03*
X25600000Y-21100000D03*
X44100000Y-10000000D03*
D19*
X56750000Y-16500000D03*
D18*
X22000000Y-40250000D03*
D19*
X56600000Y-38260000D03*
D18*
X45500000Y-12250000D03*
X48573952Y-37316660D03*
X5114013Y-23100000D03*
X46390000Y-18880000D03*
X50500000Y-14500000D03*
X41700000Y-40100000D03*
X15600000Y-41300000D03*
X35000000Y-34500000D03*
X13750000Y-22250000D03*
X33500000Y-26200000D03*
X51582815Y-11417185D03*
X29524600Y-620000D03*
X11000000Y-26000000D03*
X43968191Y-24500000D03*
X30200000Y-21100000D03*
X8800000Y-21400000D03*
X38000000Y-1750000D03*
D19*
X57000000Y-29000000D03*
D18*
X43660000Y-18890000D03*
X13750000Y-13500000D03*
X18400000Y-32100000D03*
X50250000Y-27500000D03*
X6600000Y-30400000D03*
X27000000Y-36750000D03*
X13750000Y-28250000D03*
X40949736Y-32550264D03*
X43783564Y-37800402D03*
X26000000Y-41000000D03*
X22700000Y-17900000D03*
X20500000Y-28200000D03*
X30200000Y-23900000D03*
X40900000Y-10000000D03*
X48750000Y-24500000D03*
X14250000Y-3250000D03*
X37750000Y-34750000D03*
X49500000Y-15790000D03*
X5000000Y-28800000D03*
X26750000Y-750000D03*
X25500000Y-23900000D03*
X29101415Y-34852670D03*
D19*
X56540000Y-34020000D03*
D18*
X46500000Y-1750000D03*
X37779599Y-5258050D03*
X15600000Y-17500000D03*
X41242521Y-19291477D03*
X43800000Y-8200000D03*
X20250000Y-4750000D03*
X51500000Y-4250000D03*
X8800000Y-14400000D03*
D19*
X56630000Y-20500000D03*
D18*
X10200000Y-20400000D03*
X17250000Y-25000000D03*
X13600000Y-32200000D03*
X46280000Y-34920000D03*
X50000000Y-8250000D03*
X36600000Y-40400000D03*
X46400000Y-21600000D03*
D19*
X56640000Y-24750000D03*
D18*
X29000000Y-37000000D03*
X43640000Y-21660000D03*
X43700000Y-32360000D03*
X24250000Y-31500000D03*
X48750000Y-29250000D03*
X52250000Y-7000000D03*
X42200000Y-8000000D03*
X38000000Y-4500000D03*
X36754600Y-750000D03*
X45500000Y-25500000D03*
%TO.N,+3.3V*%
X51500000Y-5250000D03*
X21200000Y-4770000D03*
X16300000Y-8600000D03*
X32250000Y-5250000D03*
X30415380Y-3915380D03*
D19*
%TO.N,VMOT*%
X47750000Y-36750000D03*
X47750000Y-30750000D03*
X47750000Y-23250000D03*
X48000000Y-17250000D03*
D18*
%TO.N,/Driver_Unit/SGND1*%
X49630354Y-37619646D03*
X48960000Y-35390000D03*
%TO.N,/Driver_Unit1/SGND1*%
X48808258Y-21900000D03*
X51500000Y-24750000D03*
%TO.N,/GPIO0*%
X22250000Y-2750000D03*
X37900000Y-13000000D03*
%TO.N,/RESET*%
X31325735Y-14924265D03*
X44624265Y-15025735D03*
X44568191Y-28590786D03*
%TO.N,/SLEEP*%
X31875000Y-15875000D03*
X42500000Y-16750000D03*
X42500000Y-30250000D03*
%TO.N,/MISO*%
X36750000Y-21750000D03*
%TO.N,/D+*%
X4250000Y-27000000D03*
X36250000Y-28500000D03*
%TO.N,/MOSI*%
X34780000Y-22480000D03*
%TO.N,/SENSE1A*%
X34023765Y-34175235D03*
X34800000Y-38800000D03*
%TO.N,/D-*%
X4250000Y-25000000D03*
X35250000Y-28500000D03*
%TO.N,/CLK*%
X36500000Y-19095000D03*
X28848528Y-13499999D03*
%TO.N,/LED*%
X20665000Y-9183530D03*
X22013486Y-11001000D03*
%TO.N,/EN3B*%
X41204000Y-20650000D03*
X36698439Y-15826482D03*
%TO.N,/Driver_Unit/IN+2*%
X34900000Y-36600000D03*
X53925734Y-36725737D03*
%TO.N,/Driver_Unit/IN-2*%
X54750000Y-36750000D03*
X34328965Y-37271035D03*
%TO.N,/Driver_Unit/IN+3*%
X53500000Y-32750000D03*
X34062500Y-35400000D03*
%TO.N,/Driver_Unit/IN-3*%
X54295177Y-32837734D03*
X33175735Y-35825999D03*
%TO.N,/Driver_Unit1/IN+1*%
X53247108Y-23319998D03*
X46524263Y-5675734D03*
%TO.N,/Driver_Unit1/IN-1*%
X54085946Y-23309895D03*
X46500000Y-6500000D03*
%TO.N,/Driver_Unit1/IN-2*%
X54093810Y-19059498D03*
X46370142Y-3174999D03*
%TO.N,/Driver_Unit1/IN+2*%
X46369635Y-3975001D03*
X53000000Y-19086437D03*
%TO.N,/Driver_Unit1/IN-3*%
X50650000Y-12850000D03*
X41713488Y-4417983D03*
%TO.N,/Driver_Unit1/IN+3*%
X41400000Y-5457199D03*
X50650000Y-13650003D03*
%TO.N,/CSOUT*%
X24060000Y-36750000D03*
%TO.N,/Driver_Unit/L3V3*%
X41800000Y-30800000D03*
X37100000Y-32000000D03*
%TO.N,/Driver_Unit1/L3V3*%
X44000000Y-4750000D03*
X43600000Y-11700000D03*
%TD*%
D20*
%TO.N,+3.3V*%
X46639796Y-2523999D02*
X34976001Y-2523999D01*
X34976001Y-2523999D02*
X32250000Y-5250000D01*
X16300000Y-8600000D02*
X16300000Y-6841529D01*
X49365797Y-5250000D02*
X46639796Y-2523999D01*
X32250000Y-5250000D02*
X31750000Y-5250000D01*
X17740529Y-5401000D02*
X20569000Y-5401000D01*
X31750000Y-5250000D02*
X30415380Y-3915380D01*
X16300000Y-6841529D02*
X17740529Y-5401000D01*
X20569000Y-5401000D02*
X21200000Y-4770000D01*
X51500000Y-5250000D02*
X49365797Y-5250000D01*
D21*
%TO.N,VMOT*%
X48000000Y-17250000D02*
X47750000Y-17500000D01*
X31250000Y-36165628D02*
X28166628Y-39249000D01*
X38023230Y-33000000D02*
X35014158Y-33000000D01*
X42300000Y-33800000D02*
X38823230Y-33800000D01*
X3750000Y-38250000D02*
X1050000Y-35550000D01*
X3750000Y-3750000D02*
X6500000Y-1000000D01*
X40639110Y-14023482D02*
X47101566Y-14023482D01*
X47750000Y-36750000D02*
X47700000Y-36800000D01*
X25284373Y-1000000D02*
X35883373Y-11599000D01*
X34514158Y-33250000D02*
X34438393Y-33174235D01*
X13964628Y-40951000D02*
X6451000Y-40951000D01*
X48000000Y-14921916D02*
X48000000Y-17250000D01*
X33000000Y-33250000D02*
X31250000Y-35000000D01*
X44530392Y-35997402D02*
X44497402Y-35997402D01*
X6451000Y-40951000D02*
X3750000Y-38250000D01*
X1050000Y-35550000D02*
X1050000Y-6450000D01*
X34764158Y-33250000D02*
X34514158Y-33250000D01*
X34438393Y-33174235D02*
X33609137Y-33174235D01*
X47750000Y-30750000D02*
X47750000Y-36750000D01*
X33533372Y-33250000D02*
X33000000Y-33250000D01*
X35883373Y-11599000D02*
X38214628Y-11599000D01*
X45332990Y-36800000D02*
X44530392Y-35997402D01*
X35014158Y-33000000D02*
X34764158Y-33250000D01*
X47700000Y-36800000D02*
X45332990Y-36800000D01*
X47750000Y-23250000D02*
X47750000Y-30750000D01*
X47101566Y-14023482D02*
X48000000Y-14921916D01*
X1050000Y-6450000D02*
X3750000Y-3750000D01*
X28166628Y-39249000D02*
X15666628Y-39249000D01*
X44497402Y-35997402D02*
X42300000Y-33800000D01*
X47750000Y-17500000D02*
X47750000Y-23250000D01*
X38823230Y-33800000D02*
X38023230Y-33000000D01*
X33609137Y-33174235D02*
X33533372Y-33250000D01*
X15666628Y-39249000D02*
X13964628Y-40951000D01*
X6500000Y-1000000D02*
X25284373Y-1000000D01*
X31250000Y-35000000D02*
X31250000Y-36165628D01*
X38214628Y-11599000D02*
X40639110Y-14023482D01*
D20*
%TO.N,/Driver_Unit/SGND1*%
X49630354Y-37619646D02*
X49398660Y-37387952D01*
X49398660Y-37387952D02*
X49398660Y-37222130D01*
X49398660Y-37222130D02*
X48924000Y-36747470D01*
X48924000Y-36747470D02*
X48924000Y-35426000D01*
X48924000Y-35426000D02*
X48960000Y-35390000D01*
%TO.N,/Driver_Unit1/SGND1*%
X48808258Y-23131728D02*
X50426530Y-24750000D01*
X50426530Y-24750000D02*
X51500000Y-24750000D01*
X48808258Y-21900000D02*
X48808258Y-23131728D01*
D22*
%TO.N,/GPIO0*%
X37900000Y-13000000D02*
X35800000Y-13000000D01*
X25550000Y-2750000D02*
X22250000Y-2750000D01*
X35800000Y-13000000D02*
X25550000Y-2750000D01*
%TO.N,/RESET*%
X31425518Y-14824482D02*
X44423012Y-14824482D01*
X44568191Y-15081809D02*
X44568191Y-28590786D01*
X31325735Y-14924265D02*
X31425518Y-14824482D01*
X44423012Y-14824482D02*
X44624265Y-15025735D01*
X44624265Y-15025735D02*
X44568191Y-15081809D01*
%TO.N,/SLEEP*%
X36947382Y-15225482D02*
X36971900Y-15250000D01*
X38573400Y-16723457D02*
X42473457Y-16723457D01*
X42500000Y-16750000D02*
X41973457Y-16750000D01*
X41750000Y-20346057D02*
X41805000Y-20401057D01*
X32500000Y-15250000D02*
X36424978Y-15250000D01*
X31875000Y-15875000D02*
X32500000Y-15250000D01*
X41750000Y-20953943D02*
X41750000Y-29500000D01*
X41750000Y-16973457D02*
X41750000Y-18949013D01*
X41750000Y-18949013D02*
X41843521Y-19042534D01*
X37099943Y-15250000D02*
X38573400Y-16723457D01*
X41750000Y-19633941D02*
X41750000Y-20346057D01*
X41750000Y-29500000D02*
X42500000Y-30250000D01*
X41973457Y-16750000D02*
X41750000Y-16973457D01*
X36449496Y-15225482D02*
X36947382Y-15225482D01*
X41843521Y-19540420D02*
X41750000Y-19633941D01*
X42473457Y-16723457D02*
X42500000Y-16750000D01*
X36971900Y-15250000D02*
X37099943Y-15250000D01*
X41805000Y-20898943D02*
X41750000Y-20953943D01*
X41805000Y-20401057D02*
X41805000Y-20898943D01*
X36424978Y-15250000D02*
X36449496Y-15225482D01*
X41843521Y-19042534D02*
X41843521Y-19540420D01*
%TO.N,/MISO*%
X37200000Y-28967043D02*
X37252000Y-28915043D01*
X20130000Y-35000000D02*
X22380000Y-32750000D01*
X26161000Y-32089000D02*
X26674800Y-32089000D01*
X37200000Y-24332900D02*
X37200000Y-22200000D01*
X27777800Y-32088000D02*
X29537800Y-30328000D01*
X26675800Y-32088000D02*
X27777800Y-32088000D01*
X31374818Y-30337000D02*
X36081700Y-30337000D01*
X25500000Y-32750000D02*
X26161000Y-32089000D01*
X22380000Y-32750000D02*
X25500000Y-32750000D01*
X37252000Y-24384900D02*
X37200000Y-24332900D01*
X37200000Y-22200000D02*
X36750000Y-21750000D01*
X34080000Y-21750000D02*
X19580000Y-7250000D01*
X37200000Y-29218700D02*
X37200000Y-28967043D01*
X37252000Y-28915043D02*
X37252000Y-24384900D01*
X36750000Y-21750000D02*
X34080000Y-21750000D01*
X29537800Y-30328000D02*
X31365818Y-30328000D01*
X26674800Y-32089000D02*
X26675800Y-32088000D01*
X31365818Y-30328000D02*
X31374818Y-30337000D01*
X36081700Y-30337000D02*
X37200000Y-29218700D01*
%TO.N,/D+*%
X36250000Y-28500000D02*
X35349000Y-29401000D01*
X35349000Y-29401000D02*
X6651000Y-29401000D01*
X6651000Y-29401000D02*
X4250000Y-27000000D01*
%TO.N,/MOSI*%
X17590000Y-35000000D02*
X20489000Y-32101000D01*
X36851000Y-24551000D02*
X34780000Y-22480000D01*
X27611700Y-31687000D02*
X29497700Y-29801000D01*
X25995900Y-31687000D02*
X27611700Y-31687000D01*
X25581900Y-32101000D02*
X25995900Y-31687000D01*
X29497700Y-29801000D02*
X35798943Y-29801000D01*
X17590000Y-7490000D02*
X32580000Y-22480000D01*
X36851000Y-28748943D02*
X36851000Y-24551000D01*
X20489000Y-32101000D02*
X25581900Y-32101000D01*
X32580000Y-22480000D02*
X34780000Y-22480000D01*
X17590000Y-7250000D02*
X17590000Y-7490000D01*
X35798943Y-29801000D02*
X36851000Y-28748943D01*
%TO.N,/SENSE1A*%
X33069386Y-35180614D02*
X32601029Y-35180614D01*
X32500000Y-36500000D02*
X34800000Y-38800000D01*
X34023765Y-34226235D02*
X33069386Y-35180614D01*
X32500000Y-35281643D02*
X32500000Y-36500000D01*
X32601029Y-35180614D02*
X32500000Y-35281643D01*
X34023765Y-34175235D02*
X34023765Y-34226235D01*
%TO.N,/D-*%
X8250000Y-29000000D02*
X4250000Y-25000000D01*
X35250000Y-28500000D02*
X34750000Y-29000000D01*
X34750000Y-29000000D02*
X8250000Y-29000000D01*
%TO.N,/CLK*%
X26327100Y-32490000D02*
X26840900Y-32490000D01*
X26840900Y-32490000D02*
X26841900Y-32489000D01*
X31199718Y-30729000D02*
X31208718Y-30738000D01*
X22660000Y-35000000D02*
X24509000Y-33151000D01*
X26841900Y-32489000D02*
X27943900Y-32489000D01*
X37700000Y-29285800D02*
X37700000Y-20295000D01*
X31208718Y-30738000D02*
X36247800Y-30738000D01*
X36247800Y-30738000D02*
X37700000Y-29285800D01*
X24509000Y-33151000D02*
X25666100Y-33151000D01*
X28848528Y-13499999D02*
X22598530Y-7250000D01*
X37700000Y-20295000D02*
X36500000Y-19095000D01*
X27943900Y-32489000D02*
X29703900Y-30729000D01*
X22598530Y-7250000D02*
X22120000Y-7250000D01*
X25666100Y-33151000D02*
X26327100Y-32490000D01*
X29703900Y-30729000D02*
X31199718Y-30729000D01*
%TO.N,/LED*%
X22013486Y-11001000D02*
X22013486Y-10986515D01*
X20665000Y-9638029D02*
X20665000Y-9183530D01*
X22013486Y-10986515D02*
X20665000Y-9638029D01*
%TO.N,/EN3B*%
X41204000Y-20204000D02*
X41204000Y-20650000D01*
X36698439Y-15826482D02*
X36826482Y-15826482D01*
X36826482Y-15826482D02*
X41204000Y-20204000D01*
%TO.N,/Driver_Unit/IN+2*%
X34900000Y-36600000D02*
X40000000Y-36600000D01*
X42699000Y-39299000D02*
X50601057Y-39299000D01*
X40000000Y-36600000D02*
X42699000Y-39299000D01*
X50601057Y-39299000D02*
X53174320Y-36725737D01*
X53174320Y-36725737D02*
X53925734Y-36725737D01*
%TO.N,/Driver_Unit/IN-2*%
X54100000Y-37400000D02*
X53067157Y-37400000D01*
X54750000Y-36750000D02*
X54100000Y-37400000D01*
X50767157Y-39700000D02*
X42400000Y-39700000D01*
X40071035Y-37271035D02*
X34328965Y-37271035D01*
X42049000Y-39249000D02*
X40071035Y-37271035D01*
X42400000Y-39700000D02*
X42049000Y-39349000D01*
X42049000Y-39349000D02*
X42049000Y-39249000D01*
X53067157Y-37400000D02*
X50767157Y-39700000D01*
%TO.N,/Driver_Unit/IN+3*%
X39967100Y-35400000D02*
X43064100Y-38497000D01*
X34062500Y-35400000D02*
X39967100Y-35400000D01*
X49755760Y-38497000D02*
X53500000Y-34752760D01*
X53500000Y-34752760D02*
X53500000Y-32750000D01*
X43064100Y-38497000D02*
X49755760Y-38497000D01*
%TO.N,/Driver_Unit/IN-3*%
X34651057Y-35999000D02*
X35148943Y-35999000D01*
X40000000Y-36000000D02*
X42898000Y-38898000D01*
X35148943Y-35999000D02*
X35149943Y-36000000D01*
X33175735Y-35825999D02*
X33349736Y-36000000D01*
X54295177Y-34524683D02*
X54295177Y-32837734D01*
X42898000Y-38898000D02*
X49921860Y-38898000D01*
X35149943Y-36000000D02*
X40000000Y-36000000D01*
X34650057Y-36000000D02*
X34651057Y-35999000D01*
X33349736Y-36000000D02*
X34650057Y-36000000D01*
X49921860Y-38898000D02*
X54295177Y-34524683D01*
%TO.N,/Driver_Unit1/IN+1*%
X50500000Y-11182900D02*
X50500000Y-9651471D01*
X52400000Y-13082900D02*
X50500000Y-11182900D01*
X46747529Y-5899000D02*
X46524263Y-5675734D01*
X52400000Y-22650000D02*
X52400000Y-13082900D01*
X46748943Y-5899000D02*
X46747529Y-5899000D01*
X53247108Y-23318584D02*
X53228393Y-23299869D01*
X47101000Y-6252471D02*
X47101000Y-6251057D01*
X53247108Y-23319998D02*
X53247108Y-23318584D01*
X53049869Y-23299869D02*
X52400000Y-22650000D01*
X47101000Y-6251057D02*
X46748943Y-5899000D01*
X50500000Y-9651471D02*
X47101000Y-6252471D01*
X53228393Y-23299869D02*
X53049869Y-23299869D01*
%TO.N,/Driver_Unit1/IN-1*%
X50000000Y-11250000D02*
X50000000Y-10010000D01*
X46500000Y-6510000D02*
X46500000Y-6500000D01*
X54085946Y-23309895D02*
X54026051Y-23250000D01*
X50000000Y-10010000D02*
X46500000Y-6510000D01*
X51999000Y-13249000D02*
X50000000Y-11250000D01*
X53849524Y-23250000D02*
X53849524Y-23568943D01*
X52998165Y-23920998D02*
X52646108Y-23568941D01*
X53849524Y-23568943D02*
X53497467Y-23921000D01*
X52646108Y-23568941D02*
X52646108Y-23463208D01*
X52999579Y-23920998D02*
X52998165Y-23920998D01*
X52646108Y-23463208D02*
X51999000Y-22816100D01*
X54026051Y-23250000D02*
X53849524Y-23250000D01*
X52999581Y-23921000D02*
X52999579Y-23920998D01*
X53497467Y-23921000D02*
X52999581Y-23921000D01*
X51999000Y-22816100D02*
X51999000Y-13249000D01*
%TO.N,/Driver_Unit1/IN-2*%
X53901000Y-10483957D02*
X46592042Y-3174999D01*
X54094065Y-19059243D02*
X54094065Y-19053803D01*
X54093810Y-19059498D02*
X54094065Y-19059243D01*
X54094065Y-19053803D02*
X53901000Y-18860738D01*
X53901000Y-18860738D02*
X53901000Y-10483957D01*
X46592042Y-3174999D02*
X46370142Y-3174999D01*
%TO.N,/Driver_Unit1/IN+2*%
X46824944Y-3975001D02*
X46369635Y-3975001D01*
X53000000Y-19086437D02*
X53345068Y-19086437D01*
X53500000Y-10650057D02*
X46824944Y-3975001D01*
X53500000Y-18931505D02*
X53500000Y-10650057D01*
X53345068Y-19086437D02*
X53500000Y-18931505D01*
%TO.N,/Driver_Unit1/IN-3*%
X41713488Y-4463488D02*
X50100000Y-12850000D01*
X50100000Y-12850000D02*
X50650000Y-12850000D01*
X41713488Y-4417983D02*
X41713488Y-4463488D01*
%TO.N,/Driver_Unit1/IN+3*%
X41400000Y-5457199D02*
X42140099Y-5457199D01*
X42140099Y-5457199D02*
X49933900Y-13251000D01*
X50350003Y-13650003D02*
X50650000Y-13650003D01*
X49933900Y-13251000D02*
X49951000Y-13251000D01*
X49951000Y-13251000D02*
X50350003Y-13650003D01*
%TO.N,/CSCK*%
X36788493Y-17966450D02*
X38501000Y-19678957D01*
X30036100Y-31531000D02*
X28276100Y-33291000D01*
X32283550Y-17966450D02*
X36788493Y-17966450D01*
X36580000Y-31540000D02*
X30700000Y-31540000D01*
X38501000Y-29619000D02*
X36580000Y-31540000D01*
X38501000Y-19678957D02*
X38501000Y-29619000D01*
X30700000Y-31540000D02*
X30691000Y-31531000D01*
X28276100Y-33291000D02*
X28209000Y-33291000D01*
X27200000Y-7250000D02*
X30500000Y-10550000D01*
X30691000Y-31531000D02*
X30036100Y-31531000D01*
X28209000Y-33291000D02*
X27200000Y-34300000D01*
X30500000Y-16182900D02*
X32283550Y-17966450D01*
X30500000Y-10550000D02*
X30500000Y-16182900D01*
X27200000Y-34300000D02*
X27200000Y-35000000D01*
%TO.N,/CSOUT*%
X31033618Y-31130000D02*
X31042618Y-31139000D01*
X25250000Y-36750000D02*
X26500000Y-35500000D01*
X28110000Y-32890000D02*
X29870000Y-31130000D01*
X29870000Y-31130000D02*
X31033618Y-31130000D01*
X38100000Y-19845057D02*
X36622393Y-18367450D01*
X29449528Y-15699528D02*
X29449528Y-12039528D01*
X36622393Y-18367450D02*
X32117450Y-18367450D01*
X38100000Y-29452900D02*
X38100000Y-19845057D01*
X36413900Y-31139000D02*
X38100000Y-29452900D01*
X32117450Y-18367450D02*
X29449528Y-15699528D01*
X31042618Y-31139000D02*
X36413900Y-31139000D01*
X27008000Y-32890000D02*
X28110000Y-32890000D01*
X26500000Y-33398000D02*
X27008000Y-32890000D01*
X29449528Y-12039528D02*
X24660000Y-7250000D01*
X24060000Y-36750000D02*
X25250000Y-36750000D01*
X26500000Y-35500000D02*
X26500000Y-33398000D01*
D20*
%TO.N,/Driver_Unit/L3V3*%
X41200000Y-31400000D02*
X41800000Y-30800000D01*
X37100000Y-32000000D02*
X37700000Y-31400000D01*
X37700000Y-31400000D02*
X41200000Y-31400000D01*
D22*
%TO.N,/Driver_Unit1/L3V3*%
X40799000Y-5706142D02*
X40799000Y-5208256D01*
X41112488Y-4169040D02*
X41464545Y-3816983D01*
X43600000Y-11700000D02*
X43000000Y-11100000D01*
D20*
X44008949Y-4758949D02*
X44000000Y-4750000D01*
D22*
X43066983Y-3816983D02*
X44000000Y-4750000D01*
X41258199Y-6058199D02*
X41151057Y-6058199D01*
X41151057Y-6058199D02*
X40799000Y-5706142D01*
X43000000Y-11100000D02*
X43000000Y-7800000D01*
X41112488Y-4587512D02*
X41112488Y-4169040D01*
X41100000Y-4600000D02*
X41112488Y-4587512D01*
X41100000Y-4907256D02*
X41100000Y-4600000D01*
X40799000Y-5208256D02*
X41100000Y-4907256D01*
X43000000Y-7800000D02*
X41258199Y-6058199D01*
X41464545Y-3816983D02*
X43066983Y-3816983D01*
%TD*%
%TA.AperFunction,Conductor*%
%TO.N,GND*%
G36*
X57742539Y-220185D02*
G01*
X57788294Y-272989D01*
X57799500Y-324500D01*
X57799500Y-41675500D01*
X57779815Y-41742539D01*
X57727011Y-41788294D01*
X57675500Y-41799500D01*
X14454395Y-41799500D01*
X14387356Y-41779815D01*
X14341601Y-41727011D01*
X14331657Y-41657853D01*
X14360682Y-41594297D01*
X14385505Y-41572397D01*
X14395880Y-41565464D01*
X14443044Y-41533952D01*
X15941176Y-40035818D01*
X16002499Y-40002334D01*
X16028857Y-39999500D01*
X28240548Y-39999500D01*
X28338090Y-39980096D01*
X28385541Y-39970658D01*
X28522123Y-39914084D01*
X28571357Y-39881186D01*
X28645044Y-39831952D01*
X31832952Y-36644043D01*
X31888936Y-36560256D01*
X31915084Y-36521123D01*
X31917664Y-36514893D01*
X31923408Y-36505838D01*
X31941934Y-36489589D01*
X31957396Y-36470401D01*
X31967740Y-36466957D01*
X31975938Y-36459768D01*
X32000307Y-36456115D01*
X32023689Y-36448332D01*
X32034253Y-36451027D01*
X32045036Y-36449412D01*
X32067513Y-36459515D01*
X32091389Y-36465608D01*
X32098818Y-36473586D01*
X32108764Y-36478057D01*
X32122210Y-36498707D01*
X32139003Y-36516742D01*
X32146071Y-36535353D01*
X32146888Y-36536608D01*
X32146893Y-36537518D01*
X32147897Y-36540161D01*
X32162229Y-36593652D01*
X32173384Y-36635283D01*
X32173387Y-36635290D01*
X32219527Y-36715208D01*
X32219531Y-36715213D01*
X34213181Y-38708863D01*
X34246666Y-38770186D01*
X34249500Y-38796544D01*
X34249500Y-38872475D01*
X34287016Y-39012485D01*
X34287017Y-39012488D01*
X34359488Y-39138011D01*
X34359490Y-39138013D01*
X34359491Y-39138015D01*
X34461985Y-39240509D01*
X34461986Y-39240510D01*
X34461988Y-39240511D01*
X34587511Y-39312982D01*
X34587512Y-39312982D01*
X34587515Y-39312984D01*
X34727525Y-39350500D01*
X34727528Y-39350500D01*
X34872472Y-39350500D01*
X34872475Y-39350500D01*
X35012485Y-39312984D01*
X35138015Y-39240509D01*
X35240509Y-39138015D01*
X35312984Y-39012485D01*
X35350500Y-38872475D01*
X35350500Y-38727525D01*
X35312984Y-38587515D01*
X35240509Y-38461985D01*
X35138015Y-38359491D01*
X35138013Y-38359490D01*
X35138011Y-38359488D01*
X35012488Y-38287017D01*
X35012489Y-38287017D01*
X35001006Y-38283940D01*
X34872475Y-38249500D01*
X34872472Y-38249500D01*
X34796544Y-38249500D01*
X34729505Y-38229815D01*
X34708863Y-38213181D01*
X34486883Y-37991201D01*
X34453398Y-37929878D01*
X34458382Y-37860186D01*
X34500254Y-37804253D01*
X34534207Y-37787759D01*
X34533946Y-37787127D01*
X34541444Y-37784020D01*
X34541450Y-37784019D01*
X34666980Y-37711544D01*
X34720670Y-37657854D01*
X34781993Y-37624369D01*
X34808351Y-37621535D01*
X39874491Y-37621535D01*
X39903931Y-37630179D01*
X39933918Y-37636703D01*
X39938933Y-37640457D01*
X39941530Y-37641220D01*
X39962172Y-37657854D01*
X39992137Y-37687819D01*
X40025622Y-37749142D01*
X40020638Y-37818834D01*
X39978766Y-37874767D01*
X39913302Y-37899184D01*
X39904456Y-37899500D01*
X39893713Y-37899500D01*
X39845042Y-37907208D01*
X39683760Y-37932753D01*
X39683757Y-37932754D01*
X39503877Y-37991201D01*
X39481585Y-37998444D01*
X39292179Y-38094951D01*
X39120213Y-38219890D01*
X38969890Y-38370213D01*
X38844951Y-38542179D01*
X38748444Y-38731585D01*
X38748443Y-38731587D01*
X38748443Y-38731588D01*
X38735902Y-38770186D01*
X38682753Y-38933760D01*
X38649500Y-39143713D01*
X38649500Y-39356286D01*
X38682431Y-39564208D01*
X38682754Y-39566243D01*
X38693722Y-39600000D01*
X38748444Y-39768414D01*
X38844951Y-39957820D01*
X38969890Y-40129786D01*
X39120213Y-40280109D01*
X39292179Y-40405048D01*
X39292181Y-40405049D01*
X39292184Y-40405051D01*
X39481588Y-40501557D01*
X39683757Y-40567246D01*
X39893713Y-40600500D01*
X39893714Y-40600500D01*
X40106286Y-40600500D01*
X40106287Y-40600500D01*
X40316243Y-40567246D01*
X40518412Y-40501557D01*
X40707816Y-40405051D01*
X40813735Y-40328097D01*
X40879786Y-40280109D01*
X40879788Y-40280106D01*
X40879792Y-40280104D01*
X41030104Y-40129792D01*
X41030106Y-40129788D01*
X41030109Y-40129786D01*
X41155048Y-39957820D01*
X41155047Y-39957820D01*
X41155051Y-39957816D01*
X41251557Y-39768412D01*
X41317246Y-39566243D01*
X41350500Y-39356287D01*
X41350500Y-39345544D01*
X41356738Y-39324298D01*
X41358318Y-39302210D01*
X41366390Y-39291426D01*
X41370185Y-39278505D01*
X41386918Y-39264005D01*
X41400190Y-39246277D01*
X41412810Y-39241569D01*
X41422989Y-39232750D01*
X41444906Y-39229598D01*
X41465654Y-39221860D01*
X41478814Y-39224722D01*
X41492147Y-39222806D01*
X41512290Y-39232005D01*
X41533927Y-39236712D01*
X41551652Y-39249980D01*
X41555703Y-39251831D01*
X41562181Y-39257863D01*
X41674653Y-39370335D01*
X41706747Y-39425923D01*
X41718769Y-39470790D01*
X41722385Y-39484286D01*
X41722387Y-39484290D01*
X41768527Y-39564208D01*
X41768529Y-39564211D01*
X41768530Y-39564212D01*
X42184788Y-39980470D01*
X42264712Y-40026614D01*
X42353856Y-40050500D01*
X42353858Y-40050500D01*
X50813299Y-40050500D01*
X50813301Y-40050500D01*
X50902445Y-40026614D01*
X50982369Y-39980470D01*
X53176020Y-37786819D01*
X53237343Y-37753334D01*
X53263701Y-37750500D01*
X54146142Y-37750500D01*
X54146144Y-37750500D01*
X54235288Y-37726614D01*
X54241946Y-37722769D01*
X54266779Y-37708433D01*
X54266780Y-37708432D01*
X54315212Y-37680470D01*
X54658863Y-37336819D01*
X54720186Y-37303334D01*
X54746544Y-37300500D01*
X54822472Y-37300500D01*
X54822475Y-37300500D01*
X54962485Y-37262984D01*
X55088015Y-37190509D01*
X55190509Y-37088015D01*
X55262984Y-36962485D01*
X55300500Y-36822475D01*
X55300500Y-36677525D01*
X55262984Y-36537515D01*
X55262460Y-36536608D01*
X55190511Y-36411988D01*
X55190506Y-36411982D01*
X55088017Y-36309493D01*
X55088011Y-36309488D01*
X54962488Y-36237017D01*
X54962489Y-36237017D01*
X54927751Y-36227709D01*
X54822475Y-36199500D01*
X54677525Y-36199500D01*
X54579108Y-36225870D01*
X54537510Y-36237017D01*
X54537507Y-36237018D01*
X54415788Y-36307293D01*
X54347888Y-36323766D01*
X54281861Y-36300913D01*
X54266108Y-36287587D01*
X54263751Y-36285230D01*
X54263745Y-36285225D01*
X54138222Y-36212754D01*
X54138223Y-36212754D01*
X54100335Y-36202602D01*
X53998209Y-36175237D01*
X53853259Y-36175237D01*
X53751133Y-36202602D01*
X53713245Y-36212754D01*
X53587722Y-36285225D01*
X53587716Y-36285230D01*
X53534029Y-36338918D01*
X53507101Y-36353621D01*
X53481283Y-36370214D01*
X53475082Y-36371105D01*
X53472706Y-36372403D01*
X53446348Y-36375237D01*
X53239667Y-36375237D01*
X53172628Y-36355552D01*
X53126873Y-36302748D01*
X53116929Y-36233590D01*
X53145954Y-36170034D01*
X53151986Y-36163556D01*
X53849617Y-35465925D01*
X54575647Y-34739895D01*
X54621791Y-34659971D01*
X54626098Y-34643897D01*
X54630730Y-34626613D01*
X54638203Y-34598720D01*
X54645677Y-34570827D01*
X54645677Y-33317120D01*
X54665362Y-33250081D01*
X54681996Y-33229439D01*
X54708407Y-33203028D01*
X54735686Y-33175749D01*
X54808161Y-33050219D01*
X54845677Y-32910209D01*
X54845677Y-32765259D01*
X54808161Y-32625249D01*
X54774091Y-32566239D01*
X54735688Y-32499722D01*
X54735683Y-32499716D01*
X54633194Y-32397227D01*
X54633188Y-32397222D01*
X54507665Y-32324751D01*
X54507666Y-32324751D01*
X54496183Y-32321674D01*
X54367652Y-32287234D01*
X54222702Y-32287234D01*
X54124285Y-32313604D01*
X54082687Y-32324751D01*
X54082684Y-32324752D01*
X54019646Y-32361148D01*
X53951746Y-32377621D01*
X53885719Y-32354768D01*
X53869966Y-32341442D01*
X53838017Y-32309493D01*
X53838011Y-32309488D01*
X53712488Y-32237017D01*
X53712489Y-32237017D01*
X53698647Y-32233308D01*
X53572475Y-32199500D01*
X53427525Y-32199500D01*
X53301353Y-32233308D01*
X53287511Y-32237017D01*
X53161988Y-32309488D01*
X53161982Y-32309493D01*
X53059493Y-32411982D01*
X53059488Y-32411988D01*
X52987017Y-32537511D01*
X52987016Y-32537515D01*
X52949500Y-32677525D01*
X52949500Y-32822475D01*
X52985765Y-32957816D01*
X52987017Y-32962488D01*
X53059488Y-33088011D01*
X53059493Y-33088017D01*
X53113181Y-33141705D01*
X53146666Y-33203028D01*
X53149500Y-33229386D01*
X53149500Y-34556216D01*
X53129815Y-34623255D01*
X53113181Y-34643897D01*
X51663743Y-36093334D01*
X51602420Y-36126819D01*
X51532728Y-36121835D01*
X51476795Y-36079963D01*
X51453589Y-36025053D01*
X51448402Y-35992299D01*
X51394873Y-35827555D01*
X51316232Y-35673212D01*
X51214414Y-35533072D01*
X51091928Y-35410586D01*
X50951788Y-35308768D01*
X50875907Y-35270105D01*
X50797447Y-35230128D01*
X50797446Y-35230127D01*
X50797445Y-35230127D01*
X50632701Y-35176598D01*
X50632699Y-35176597D01*
X50632698Y-35176597D01*
X50501271Y-35155781D01*
X50461611Y-35149500D01*
X50038389Y-35149500D01*
X49998728Y-35155781D01*
X49867302Y-35176597D01*
X49867299Y-35176598D01*
X49751795Y-35214128D01*
X49702549Y-35230129D01*
X49649401Y-35257209D01*
X49580732Y-35270105D01*
X49515991Y-35243828D01*
X49475735Y-35186721D01*
X49473340Y-35178846D01*
X49472984Y-35177515D01*
X49456809Y-35149500D01*
X49400511Y-35051988D01*
X49400506Y-35051982D01*
X49298017Y-34949493D01*
X49298011Y-34949488D01*
X49172488Y-34877017D01*
X49172489Y-34877017D01*
X49161006Y-34873940D01*
X49032475Y-34839500D01*
X48887525Y-34839500D01*
X48758993Y-34873940D01*
X48747511Y-34877017D01*
X48686500Y-34912242D01*
X48618599Y-34928715D01*
X48552572Y-34905862D01*
X48509382Y-34850941D01*
X48500500Y-34804855D01*
X48500500Y-33663389D01*
X49024500Y-33663389D01*
X49024500Y-33836610D01*
X49047463Y-33981597D01*
X49051598Y-34007701D01*
X49105127Y-34172445D01*
X49183768Y-34326788D01*
X49285586Y-34466928D01*
X49408072Y-34589414D01*
X49548212Y-34691232D01*
X49702555Y-34769873D01*
X49867299Y-34823402D01*
X50038389Y-34850500D01*
X50038390Y-34850500D01*
X50461610Y-34850500D01*
X50461611Y-34850500D01*
X50632701Y-34823402D01*
X50797445Y-34769873D01*
X50951788Y-34691232D01*
X51091928Y-34589414D01*
X51214414Y-34466928D01*
X51316232Y-34326788D01*
X51394873Y-34172445D01*
X51448402Y-34007701D01*
X51475500Y-33836611D01*
X51475500Y-33663389D01*
X51448402Y-33492299D01*
X51394873Y-33327555D01*
X51316232Y-33173212D01*
X51214414Y-33033072D01*
X51091928Y-32910586D01*
X50951788Y-32808768D01*
X50797445Y-32730127D01*
X50632701Y-32676598D01*
X50632699Y-32676597D01*
X50632698Y-32676597D01*
X50501271Y-32655781D01*
X50461611Y-32649500D01*
X50038389Y-32649500D01*
X49998728Y-32655781D01*
X49867302Y-32676597D01*
X49702552Y-32730128D01*
X49548211Y-32808768D01*
X49468256Y-32866859D01*
X49408072Y-32910586D01*
X49408070Y-32910588D01*
X49408069Y-32910588D01*
X49285588Y-33033069D01*
X49285588Y-33033070D01*
X49285586Y-33033072D01*
X49273128Y-33050219D01*
X49183768Y-33173211D01*
X49105128Y-33327552D01*
X49051597Y-33492302D01*
X49024500Y-33663389D01*
X48500500Y-33663389D01*
X48500500Y-30602135D01*
X49024500Y-30602135D01*
X49024500Y-31897870D01*
X49024501Y-31897876D01*
X49030908Y-31957483D01*
X49081202Y-32092328D01*
X49081206Y-32092335D01*
X49167452Y-32207544D01*
X49167455Y-32207547D01*
X49282664Y-32293793D01*
X49282671Y-32293797D01*
X49417517Y-32344091D01*
X49417516Y-32344091D01*
X49424444Y-32344835D01*
X49477127Y-32350500D01*
X51022872Y-32350499D01*
X51082483Y-32344091D01*
X51217331Y-32293796D01*
X51332546Y-32207546D01*
X51418796Y-32092331D01*
X51469091Y-31957483D01*
X51475500Y-31897873D01*
X51475499Y-30602128D01*
X51469091Y-30542517D01*
X51439053Y-30461982D01*
X51418797Y-30407671D01*
X51418793Y-30407664D01*
X51332547Y-30292455D01*
X51332544Y-30292452D01*
X51217335Y-30206206D01*
X51217328Y-30206202D01*
X51082482Y-30155908D01*
X51082483Y-30155908D01*
X51022883Y-30149501D01*
X51022881Y-30149500D01*
X51022873Y-30149500D01*
X51022864Y-30149500D01*
X49477129Y-30149500D01*
X49477123Y-30149501D01*
X49417516Y-30155908D01*
X49282671Y-30206202D01*
X49282664Y-30206206D01*
X49167455Y-30292452D01*
X49167452Y-30292455D01*
X49081206Y-30407664D01*
X49081202Y-30407671D01*
X49030908Y-30542517D01*
X49026017Y-30588015D01*
X49024501Y-30602123D01*
X49024500Y-30602135D01*
X48500500Y-30602135D01*
X48500500Y-23689725D01*
X48520185Y-23622686D01*
X48572989Y-23576931D01*
X48642147Y-23566987D01*
X48705703Y-23596012D01*
X48712181Y-23602044D01*
X50180617Y-25070480D01*
X50271942Y-25123207D01*
X50373803Y-25150500D01*
X51070614Y-25150500D01*
X51137653Y-25170185D01*
X51158295Y-25186819D01*
X51161985Y-25190509D01*
X51161986Y-25190510D01*
X51161988Y-25190511D01*
X51287511Y-25262982D01*
X51287512Y-25262982D01*
X51287515Y-25262984D01*
X51427525Y-25300500D01*
X51427528Y-25300500D01*
X51572472Y-25300500D01*
X51572475Y-25300500D01*
X51712485Y-25262984D01*
X51838015Y-25190509D01*
X51940509Y-25088015D01*
X52012984Y-24962485D01*
X52050500Y-24822475D01*
X52050500Y-24677525D01*
X52012984Y-24537515D01*
X51983828Y-24487016D01*
X51940511Y-24411988D01*
X51940506Y-24411982D01*
X51838017Y-24309493D01*
X51838011Y-24309488D01*
X51712488Y-24237017D01*
X51712489Y-24237017D01*
X51701006Y-24233940D01*
X51572475Y-24199500D01*
X51427525Y-24199500D01*
X51298993Y-24233940D01*
X51287511Y-24237017D01*
X51161988Y-24309488D01*
X51161982Y-24309493D01*
X51158295Y-24313181D01*
X51096972Y-24346666D01*
X51070614Y-24349500D01*
X50643785Y-24349500D01*
X50576746Y-24329815D01*
X50556104Y-24313181D01*
X50305104Y-24062181D01*
X50271619Y-24000858D01*
X50276603Y-23931166D01*
X50318475Y-23875233D01*
X50383939Y-23850816D01*
X50392785Y-23850500D01*
X50461610Y-23850500D01*
X50461611Y-23850500D01*
X50632701Y-23823402D01*
X50797445Y-23769873D01*
X50951788Y-23691232D01*
X51091928Y-23589414D01*
X51214414Y-23466928D01*
X51316232Y-23326788D01*
X51394873Y-23172445D01*
X51448402Y-23007701D01*
X51448840Y-23004933D01*
X51449298Y-23003966D01*
X51449540Y-23002961D01*
X51449751Y-23003011D01*
X51478766Y-22941797D01*
X51538076Y-22904864D01*
X51607939Y-22905858D01*
X51666173Y-22944465D01*
X51678701Y-22962327D01*
X51718525Y-23031305D01*
X51718531Y-23031313D01*
X52269662Y-23582444D01*
X52301756Y-23638031D01*
X52316539Y-23693203D01*
X52319493Y-23704227D01*
X52319495Y-23704232D01*
X52365635Y-23784149D01*
X52365637Y-23784152D01*
X52365638Y-23784153D01*
X52782953Y-24201468D01*
X52782954Y-24201469D01*
X52782956Y-24201470D01*
X52822915Y-24224540D01*
X52862877Y-24247612D01*
X52952021Y-24271498D01*
X52952027Y-24271498D01*
X52952038Y-24271500D01*
X52953437Y-24271500D01*
X53543609Y-24271500D01*
X53543611Y-24271500D01*
X53632755Y-24247614D01*
X53651111Y-24237016D01*
X53712679Y-24201470D01*
X54017435Y-23896714D01*
X54078758Y-23863229D01*
X54105116Y-23860395D01*
X54158418Y-23860395D01*
X54158421Y-23860395D01*
X54298431Y-23822879D01*
X54423961Y-23750404D01*
X54526455Y-23647910D01*
X54598930Y-23522380D01*
X54636446Y-23382370D01*
X54636446Y-23237420D01*
X54598930Y-23097410D01*
X54581268Y-23066819D01*
X54526457Y-22971883D01*
X54526452Y-22971877D01*
X54423963Y-22869388D01*
X54423957Y-22869383D01*
X54298434Y-22796912D01*
X54298435Y-22796912D01*
X54282193Y-22792560D01*
X54158421Y-22759395D01*
X54013471Y-22759395D01*
X53873461Y-22796911D01*
X53873459Y-22796911D01*
X53873459Y-22796912D01*
X53856660Y-22806611D01*
X53747931Y-22869386D01*
X53747930Y-22869386D01*
X53747923Y-22869391D01*
X53741476Y-22874338D01*
X53740584Y-22873176D01*
X53687087Y-22902382D01*
X53617395Y-22897391D01*
X53592222Y-22883449D01*
X53592162Y-22883553D01*
X53586324Y-22880182D01*
X53585258Y-22879592D01*
X53585125Y-22879490D01*
X53459596Y-22807015D01*
X53459597Y-22807015D01*
X53421892Y-22796912D01*
X53319583Y-22769498D01*
X53174633Y-22769498D01*
X53174631Y-22769498D01*
X53118026Y-22784665D01*
X53048176Y-22783002D01*
X52998253Y-22752571D01*
X52786819Y-22541137D01*
X52753334Y-22479814D01*
X52750500Y-22453456D01*
X52750500Y-19751102D01*
X52770185Y-19684063D01*
X52822989Y-19638308D01*
X52892147Y-19628364D01*
X52906576Y-19631323D01*
X52927525Y-19636937D01*
X52927528Y-19636937D01*
X53072472Y-19636937D01*
X53072475Y-19636937D01*
X53212485Y-19599421D01*
X53338015Y-19526946D01*
X53418008Y-19446952D01*
X53451768Y-19422973D01*
X53462295Y-19417890D01*
X53480356Y-19413051D01*
X53521423Y-19389340D01*
X53525532Y-19387357D01*
X53555663Y-19382363D01*
X53585346Y-19375162D01*
X53589806Y-19376705D01*
X53594462Y-19375934D01*
X53622510Y-19388024D01*
X53651373Y-19398013D01*
X53657283Y-19403012D01*
X53658625Y-19403591D01*
X53659495Y-19404883D01*
X53667129Y-19411341D01*
X53755795Y-19500007D01*
X53755796Y-19500008D01*
X53755798Y-19500009D01*
X53881321Y-19572480D01*
X53881322Y-19572480D01*
X53881325Y-19572482D01*
X54021335Y-19609998D01*
X54021338Y-19609998D01*
X54166282Y-19609998D01*
X54166285Y-19609998D01*
X54306295Y-19572482D01*
X54431825Y-19500007D01*
X54534319Y-19397513D01*
X54606794Y-19271983D01*
X54644310Y-19131973D01*
X54644310Y-18987023D01*
X54606794Y-18847013D01*
X54595425Y-18827322D01*
X54534321Y-18721486D01*
X54534316Y-18721480D01*
X54431827Y-18618991D01*
X54431825Y-18618989D01*
X54313499Y-18550673D01*
X54265284Y-18500105D01*
X54251500Y-18443286D01*
X54251500Y-10437815D01*
X54251500Y-10437813D01*
X54227614Y-10348669D01*
X54219600Y-10334788D01*
X54181470Y-10268745D01*
X49774906Y-5862181D01*
X49741421Y-5800858D01*
X49746405Y-5731166D01*
X49788277Y-5675233D01*
X49853741Y-5650816D01*
X49862587Y-5650500D01*
X51070614Y-5650500D01*
X51137653Y-5670185D01*
X51158295Y-5686819D01*
X51161985Y-5690509D01*
X51161986Y-5690510D01*
X51161988Y-5690511D01*
X51287511Y-5762982D01*
X51287512Y-5762982D01*
X51287515Y-5762984D01*
X51427525Y-5800500D01*
X51427528Y-5800500D01*
X51572472Y-5800500D01*
X51572475Y-5800500D01*
X51712485Y-5762984D01*
X51838015Y-5690509D01*
X51940509Y-5588015D01*
X52012984Y-5462485D01*
X52050500Y-5322475D01*
X52050500Y-5177525D01*
X52012984Y-5037515D01*
X51991956Y-5001094D01*
X51940511Y-4911988D01*
X51940506Y-4911982D01*
X51838017Y-4809493D01*
X51838011Y-4809488D01*
X51712488Y-4737017D01*
X51712489Y-4737017D01*
X51694456Y-4732185D01*
X51572475Y-4699500D01*
X51427525Y-4699500D01*
X51305544Y-4732185D01*
X51287511Y-4737017D01*
X51161988Y-4809488D01*
X51161982Y-4809493D01*
X51158295Y-4813181D01*
X51096972Y-4846666D01*
X51070614Y-4849500D01*
X49583051Y-4849500D01*
X49516012Y-4829815D01*
X49495370Y-4813181D01*
X48984601Y-4302412D01*
X48951116Y-4241089D01*
X48956100Y-4171397D01*
X48997972Y-4115464D01*
X49063436Y-4091047D01*
X49091673Y-4092257D01*
X49143713Y-4100500D01*
X49143715Y-4100500D01*
X49356286Y-4100500D01*
X49356287Y-4100500D01*
X49566243Y-4067246D01*
X49768412Y-4001557D01*
X49957816Y-3905051D01*
X49999890Y-3874483D01*
X50129786Y-3780109D01*
X50129788Y-3780106D01*
X50129792Y-3780104D01*
X50280104Y-3629792D01*
X50280106Y-3629788D01*
X50280109Y-3629786D01*
X50405048Y-3457820D01*
X50405047Y-3457820D01*
X50405051Y-3457816D01*
X50501557Y-3268412D01*
X50567246Y-3066243D01*
X50600500Y-2856287D01*
X50600500Y-2643713D01*
X50567246Y-2433757D01*
X50501557Y-2231588D01*
X50405051Y-2042184D01*
X50405049Y-2042181D01*
X50405048Y-2042179D01*
X50280109Y-1870213D01*
X50129786Y-1719890D01*
X49957820Y-1594951D01*
X49768414Y-1498444D01*
X49768413Y-1498443D01*
X49768412Y-1498443D01*
X49566243Y-1432754D01*
X49566241Y-1432753D01*
X49566240Y-1432753D01*
X49404957Y-1407208D01*
X49356287Y-1399500D01*
X49143713Y-1399500D01*
X49095042Y-1407208D01*
X48933760Y-1432753D01*
X48731585Y-1498444D01*
X48542179Y-1594951D01*
X48370213Y-1719890D01*
X48219890Y-1870213D01*
X48094951Y-2042179D01*
X47998444Y-2231585D01*
X47932753Y-2433760D01*
X47899500Y-2643713D01*
X47899500Y-2856286D01*
X47907741Y-2908318D01*
X47898786Y-2977612D01*
X47853790Y-3031064D01*
X47787039Y-3051703D01*
X47719725Y-3032978D01*
X47697587Y-3015397D01*
X46885711Y-2203521D01*
X46885709Y-2203519D01*
X46840046Y-2177155D01*
X46794385Y-2150792D01*
X46743453Y-2137145D01*
X46692523Y-2123499D01*
X46692522Y-2123499D01*
X35044052Y-2123499D01*
X35028732Y-2123499D01*
X35028728Y-2123498D01*
X34923274Y-2123498D01*
X34826236Y-2149500D01*
X34821414Y-2150792D01*
X34820328Y-2151418D01*
X34820327Y-2151419D01*
X34730086Y-2203520D01*
X32270426Y-4663181D01*
X32209103Y-4696666D01*
X32182745Y-4699500D01*
X32177525Y-4699500D01*
X32055544Y-4732185D01*
X32037511Y-4737017D01*
X31971498Y-4775130D01*
X31903597Y-4791603D01*
X31837571Y-4768750D01*
X31821817Y-4755424D01*
X31002199Y-3935806D01*
X30968714Y-3874483D01*
X30965880Y-3848125D01*
X30965880Y-3842907D01*
X30965880Y-3842905D01*
X30928364Y-3702895D01*
X30894218Y-3643753D01*
X30855891Y-3577368D01*
X30855886Y-3577362D01*
X30753397Y-3474873D01*
X30753391Y-3474868D01*
X30627868Y-3402397D01*
X30627869Y-3402397D01*
X30616386Y-3399320D01*
X30487855Y-3364880D01*
X30342905Y-3364880D01*
X30214373Y-3399320D01*
X30202891Y-3402397D01*
X30077368Y-3474868D01*
X30077362Y-3474873D01*
X29974873Y-3577362D01*
X29974868Y-3577368D01*
X29902397Y-3702891D01*
X29902396Y-3702895D01*
X29864880Y-3842905D01*
X29864880Y-3987855D01*
X29895882Y-4103554D01*
X29902397Y-4127868D01*
X29974868Y-4253391D01*
X29974870Y-4253393D01*
X29974871Y-4253395D01*
X30077365Y-4355889D01*
X30077366Y-4355890D01*
X30077368Y-4355891D01*
X30202891Y-4428362D01*
X30202892Y-4428362D01*
X30202895Y-4428364D01*
X30342905Y-4465880D01*
X30348125Y-4465880D01*
X30415164Y-4485565D01*
X30435806Y-4502199D01*
X30931274Y-4997666D01*
X31429518Y-5495910D01*
X31429520Y-5495913D01*
X31504087Y-5570480D01*
X31560862Y-5603259D01*
X31595413Y-5623207D01*
X31697273Y-5650501D01*
X31697275Y-5650501D01*
X31810323Y-5650501D01*
X31810339Y-5650500D01*
X31820614Y-5650500D01*
X31887653Y-5670185D01*
X31908295Y-5686819D01*
X31911985Y-5690509D01*
X31911986Y-5690510D01*
X31911988Y-5690511D01*
X32037511Y-5762982D01*
X32037512Y-5762982D01*
X32037515Y-5762984D01*
X32177525Y-5800500D01*
X32177528Y-5800500D01*
X32322472Y-5800500D01*
X32322475Y-5800500D01*
X32462485Y-5762984D01*
X32588015Y-5690509D01*
X32690509Y-5588015D01*
X32762984Y-5462485D01*
X32800500Y-5322475D01*
X32800500Y-5317254D01*
X32820185Y-5250215D01*
X32836819Y-5229573D01*
X35105574Y-2960818D01*
X35166897Y-2927333D01*
X35193255Y-2924499D01*
X45705744Y-2924499D01*
X45772783Y-2944184D01*
X45818538Y-2996988D01*
X45828482Y-3066146D01*
X45825519Y-3080587D01*
X45819642Y-3102524D01*
X45819642Y-3247474D01*
X45857158Y-3387484D01*
X45929371Y-3512561D01*
X45945844Y-3580459D01*
X45929371Y-3636560D01*
X45856652Y-3762512D01*
X45856651Y-3762516D01*
X45819135Y-3902526D01*
X45819135Y-4047476D01*
X45851291Y-4167483D01*
X45856652Y-4187489D01*
X45929123Y-4313012D01*
X45929125Y-4313014D01*
X45929126Y-4313016D01*
X46031620Y-4415510D01*
X46031621Y-4415511D01*
X46031623Y-4415512D01*
X46157146Y-4487983D01*
X46157147Y-4487983D01*
X46157150Y-4487985D01*
X46297160Y-4525501D01*
X46297163Y-4525501D01*
X46442107Y-4525501D01*
X46442110Y-4525501D01*
X46582120Y-4487985D01*
X46582122Y-4487983D01*
X46582124Y-4487983D01*
X46582125Y-4487982D01*
X46586312Y-4485565D01*
X46664631Y-4440346D01*
X46732531Y-4423873D01*
X46798558Y-4446725D01*
X46814313Y-4460052D01*
X53113181Y-10758920D01*
X53146666Y-10820243D01*
X53149500Y-10846601D01*
X53149500Y-18411937D01*
X53148099Y-18416706D01*
X53149125Y-18421570D01*
X53138352Y-18449899D01*
X53129815Y-18478976D01*
X53126059Y-18482230D01*
X53124292Y-18486878D01*
X53099909Y-18504889D01*
X53077011Y-18524731D01*
X53070999Y-18526245D01*
X53068093Y-18528392D01*
X53049157Y-18531746D01*
X53033559Y-18535675D01*
X53029536Y-18535937D01*
X52927525Y-18535937D01*
X52894770Y-18544713D01*
X52882559Y-18545509D01*
X52859928Y-18540435D01*
X52836743Y-18539883D01*
X52826477Y-18532934D01*
X52814382Y-18530223D01*
X52798087Y-18513719D01*
X52778881Y-18500720D01*
X52774001Y-18489324D01*
X52765292Y-18480504D01*
X52760506Y-18457811D01*
X52751377Y-18436492D01*
X52750500Y-18421771D01*
X52750500Y-13036758D01*
X52750500Y-13036756D01*
X52726614Y-12947612D01*
X52716339Y-12929814D01*
X52715017Y-12927524D01*
X52715017Y-12927525D01*
X52680470Y-12867688D01*
X50886819Y-11074037D01*
X50853334Y-11012714D01*
X50850500Y-10986356D01*
X50850500Y-9605329D01*
X50850500Y-9605327D01*
X50826614Y-9516183D01*
X50824152Y-9511920D01*
X50818853Y-9502740D01*
X50818851Y-9502738D01*
X50780470Y-9436259D01*
X47391879Y-6047668D01*
X47381800Y-6036175D01*
X47111082Y-5765457D01*
X47077597Y-5704134D01*
X47074763Y-5677776D01*
X47074763Y-5603261D01*
X47074763Y-5603259D01*
X47037247Y-5463249D01*
X47031976Y-5454120D01*
X46964774Y-5337722D01*
X46964769Y-5337716D01*
X46862280Y-5235227D01*
X46862274Y-5235222D01*
X46736751Y-5162751D01*
X46736752Y-5162751D01*
X46708157Y-5155089D01*
X46596738Y-5125234D01*
X46451788Y-5125234D01*
X46340369Y-5155089D01*
X46311774Y-5162751D01*
X46186251Y-5235222D01*
X46186245Y-5235227D01*
X46083756Y-5337716D01*
X46083751Y-5337722D01*
X46011280Y-5463245D01*
X46011279Y-5463249D01*
X45973763Y-5603259D01*
X45973763Y-5748209D01*
X46011279Y-5888219D01*
X46081557Y-6009944D01*
X46098030Y-6077842D01*
X46075178Y-6143869D01*
X46061857Y-6159618D01*
X46059491Y-6161985D01*
X45987016Y-6287515D01*
X45949500Y-6427525D01*
X45949500Y-6572475D01*
X45986149Y-6709249D01*
X45987017Y-6712488D01*
X46059488Y-6838011D01*
X46059490Y-6838013D01*
X46059491Y-6838015D01*
X46161985Y-6940509D01*
X46161986Y-6940510D01*
X46161988Y-6940511D01*
X46287511Y-7012982D01*
X46287512Y-7012982D01*
X46287515Y-7012984D01*
X46427525Y-7050500D01*
X46493456Y-7050500D01*
X46560495Y-7070185D01*
X46581137Y-7086819D01*
X49613181Y-10118863D01*
X49646666Y-10180186D01*
X49649500Y-10206544D01*
X49649500Y-11296145D01*
X49671989Y-11380079D01*
X49673384Y-11385284D01*
X49673386Y-11385288D01*
X49719527Y-11465208D01*
X49719531Y-11465213D01*
X50420763Y-12166445D01*
X50432378Y-12187717D01*
X50447604Y-12206579D01*
X50448823Y-12217833D01*
X50454248Y-12227768D01*
X50452519Y-12251943D01*
X50455130Y-12276042D01*
X50450071Y-12286168D01*
X50449264Y-12297460D01*
X50434738Y-12316862D01*
X50423907Y-12338547D01*
X50410522Y-12349211D01*
X50407392Y-12353393D01*
X50396443Y-12360716D01*
X50395682Y-12361168D01*
X50311985Y-12409491D01*
X50308457Y-12413018D01*
X50297404Y-12419589D01*
X50270375Y-12426511D01*
X50244356Y-12436569D01*
X50236998Y-12435059D01*
X50229719Y-12436924D01*
X50203241Y-12428135D01*
X50175911Y-12422529D01*
X50167406Y-12416240D01*
X50163407Y-12414913D01*
X50160143Y-12410870D01*
X50146362Y-12400680D01*
X42300307Y-4554625D01*
X42266822Y-4493302D01*
X42263988Y-4466944D01*
X42263988Y-4345510D01*
X42263988Y-4345508D01*
X42258111Y-4323575D01*
X42259774Y-4253726D01*
X42298937Y-4195864D01*
X42363165Y-4168360D01*
X42377886Y-4167483D01*
X42870439Y-4167483D01*
X42937478Y-4187168D01*
X42958120Y-4203802D01*
X43413181Y-4658862D01*
X43446666Y-4720185D01*
X43449500Y-4746543D01*
X43449500Y-4822475D01*
X43480894Y-4939636D01*
X43487017Y-4962488D01*
X43559488Y-5088011D01*
X43559490Y-5088013D01*
X43559491Y-5088015D01*
X43661985Y-5190509D01*
X43661986Y-5190510D01*
X43661988Y-5190511D01*
X43787511Y-5262982D01*
X43787512Y-5262982D01*
X43787515Y-5262984D01*
X43927525Y-5300500D01*
X43927528Y-5300500D01*
X44072472Y-5300500D01*
X44072475Y-5300500D01*
X44212485Y-5262984D01*
X44338015Y-5190509D01*
X44440509Y-5088015D01*
X44512984Y-4962485D01*
X44550500Y-4822475D01*
X44550500Y-4677525D01*
X44512984Y-4537515D01*
X44498495Y-4512420D01*
X44440511Y-4411988D01*
X44440506Y-4411982D01*
X44338017Y-4309493D01*
X44338011Y-4309488D01*
X44212488Y-4237017D01*
X44212489Y-4237017D01*
X44201006Y-4233940D01*
X44072475Y-4199500D01*
X44072472Y-4199500D01*
X43996543Y-4199500D01*
X43929504Y-4179815D01*
X43908862Y-4163181D01*
X43601928Y-3856247D01*
X43282195Y-3536513D01*
X43282194Y-3536512D01*
X43282191Y-3536510D01*
X43202273Y-3490370D01*
X43202272Y-3490369D01*
X43202271Y-3490369D01*
X43113127Y-3466483D01*
X41510689Y-3466483D01*
X41418401Y-3466483D01*
X41329257Y-3490369D01*
X41329254Y-3490370D01*
X41249336Y-3536510D01*
X41249331Y-3536514D01*
X40832019Y-3953826D01*
X40832017Y-3953829D01*
X40812374Y-3987853D01*
X40812373Y-3987855D01*
X40785874Y-4033750D01*
X40761988Y-4122896D01*
X40761988Y-4490925D01*
X40761788Y-4497959D01*
X40761064Y-4510697D01*
X40749500Y-4553856D01*
X40749500Y-4714226D01*
X40749300Y-4717746D01*
X40738704Y-4747477D01*
X40729815Y-4777751D01*
X40726409Y-4781977D01*
X40725845Y-4783561D01*
X40723962Y-4785013D01*
X40713181Y-4798393D01*
X40518531Y-4993042D01*
X40518529Y-4993045D01*
X40481780Y-5056698D01*
X40481778Y-5056701D01*
X40472386Y-5072966D01*
X40458381Y-5125234D01*
X40448500Y-5162112D01*
X40448500Y-5752286D01*
X40469409Y-5830321D01*
X40472386Y-5841430D01*
X40518530Y-5921354D01*
X40935845Y-6338669D01*
X41015769Y-6384813D01*
X41083891Y-6403066D01*
X41139477Y-6435159D01*
X42613181Y-7908863D01*
X42646666Y-7970186D01*
X42649500Y-7996544D01*
X42649500Y-11146143D01*
X42664963Y-11203855D01*
X42673384Y-11235283D01*
X42673387Y-11235290D01*
X42719527Y-11315208D01*
X42719531Y-11315213D01*
X43013181Y-11608863D01*
X43046666Y-11670186D01*
X43049500Y-11696544D01*
X43049500Y-11772475D01*
X43084807Y-11904240D01*
X43087017Y-11912488D01*
X43159488Y-12038011D01*
X43159490Y-12038013D01*
X43159491Y-12038015D01*
X43261985Y-12140509D01*
X43261986Y-12140510D01*
X43261988Y-12140511D01*
X43387511Y-12212982D01*
X43387512Y-12212982D01*
X43387515Y-12212984D01*
X43527525Y-12250500D01*
X43527528Y-12250500D01*
X43672472Y-12250500D01*
X43672475Y-12250500D01*
X43812485Y-12212984D01*
X43938015Y-12140509D01*
X44040509Y-12038015D01*
X44112984Y-11912485D01*
X44150500Y-11772475D01*
X44150500Y-11627525D01*
X44112984Y-11487515D01*
X44100107Y-11465212D01*
X44040511Y-11361988D01*
X44040506Y-11361982D01*
X43938017Y-11259493D01*
X43938011Y-11259488D01*
X43812488Y-11187017D01*
X43812489Y-11187017D01*
X43801006Y-11183940D01*
X43672475Y-11149500D01*
X43672472Y-11149500D01*
X43596544Y-11149500D01*
X43567103Y-11140855D01*
X43537117Y-11134332D01*
X43532101Y-11130577D01*
X43529505Y-11129815D01*
X43508863Y-11113181D01*
X43386819Y-10991137D01*
X43353334Y-10929814D01*
X43350500Y-10903456D01*
X43350500Y-7753858D01*
X43350500Y-7753856D01*
X43326614Y-7664712D01*
X43280470Y-7584788D01*
X41753383Y-6057701D01*
X41749044Y-6049755D01*
X41741796Y-6044329D01*
X41732561Y-6019569D01*
X41719898Y-5996378D01*
X41720543Y-5987347D01*
X41717380Y-5978864D01*
X41722996Y-5953045D01*
X41724882Y-5926686D01*
X41730701Y-5917630D01*
X41732233Y-5910592D01*
X41753381Y-5882341D01*
X41791706Y-5844017D01*
X41853029Y-5810532D01*
X41879386Y-5807699D01*
X41943555Y-5807699D01*
X42010594Y-5827384D01*
X42031236Y-5844018D01*
X49718688Y-13531470D01*
X49745009Y-13546666D01*
X49770691Y-13566373D01*
X50134790Y-13930472D01*
X50167860Y-13949565D01*
X50168161Y-13949739D01*
X50204644Y-13981700D01*
X50209488Y-13988013D01*
X50209491Y-13988018D01*
X50311985Y-14090512D01*
X50311986Y-14090513D01*
X50311988Y-14090514D01*
X50437511Y-14162985D01*
X50437512Y-14162985D01*
X50437515Y-14162987D01*
X50577525Y-14200503D01*
X50577528Y-14200503D01*
X50722472Y-14200503D01*
X50722475Y-14200503D01*
X50862485Y-14162987D01*
X50988015Y-14090512D01*
X51090509Y-13988018D01*
X51162984Y-13862488D01*
X51200500Y-13722478D01*
X51200500Y-13577528D01*
X51162984Y-13437518D01*
X51090515Y-13311998D01*
X51087685Y-13300335D01*
X51080722Y-13290556D01*
X51079600Y-13267011D01*
X51074043Y-13244102D01*
X51077886Y-13231011D01*
X51077399Y-13220765D01*
X51090515Y-13188003D01*
X51125340Y-13127686D01*
X51138487Y-13104916D01*
X51189054Y-13056701D01*
X51257662Y-13043479D01*
X51322526Y-13069447D01*
X51333554Y-13079236D01*
X51612181Y-13357863D01*
X51645666Y-13419186D01*
X51648500Y-13445544D01*
X51648500Y-16842512D01*
X51628815Y-16909551D01*
X51576011Y-16955306D01*
X51506853Y-16965250D01*
X51443297Y-16936225D01*
X51425292Y-16913885D01*
X51424112Y-16914769D01*
X51332547Y-16792455D01*
X51332544Y-16792452D01*
X51217335Y-16706206D01*
X51217328Y-16706202D01*
X51082482Y-16655908D01*
X51082483Y-16655908D01*
X51022883Y-16649501D01*
X51022881Y-16649500D01*
X51022873Y-16649500D01*
X51022864Y-16649500D01*
X49477129Y-16649500D01*
X49477123Y-16649501D01*
X49417516Y-16655908D01*
X49282671Y-16706202D01*
X49282664Y-16706206D01*
X49167455Y-16792452D01*
X49167452Y-16792455D01*
X49081206Y-16907664D01*
X49081202Y-16907671D01*
X49030908Y-17042517D01*
X49024501Y-17102116D01*
X49024500Y-17102135D01*
X49024500Y-18397870D01*
X49024501Y-18397876D01*
X49030908Y-18457483D01*
X49081202Y-18592328D01*
X49081206Y-18592335D01*
X49167452Y-18707544D01*
X49167455Y-18707547D01*
X49282664Y-18793793D01*
X49282671Y-18793797D01*
X49417517Y-18844091D01*
X49417516Y-18844091D01*
X49424444Y-18844835D01*
X49477127Y-18850500D01*
X51022872Y-18850499D01*
X51082483Y-18844091D01*
X51217331Y-18793796D01*
X51332546Y-18707546D01*
X51370020Y-18657487D01*
X51424112Y-18585231D01*
X51426620Y-18587108D01*
X51465068Y-18548657D01*
X51533341Y-18533803D01*
X51598806Y-18558217D01*
X51640680Y-18614148D01*
X51648500Y-18657487D01*
X51648500Y-19825234D01*
X51628815Y-19892273D01*
X51576011Y-19938028D01*
X51506853Y-19947972D01*
X51443297Y-19918947D01*
X51406570Y-19863554D01*
X51394873Y-19827555D01*
X51316232Y-19673212D01*
X51214414Y-19533072D01*
X51091928Y-19410586D01*
X50951788Y-19308768D01*
X50797445Y-19230127D01*
X50632701Y-19176598D01*
X50632699Y-19176597D01*
X50632698Y-19176597D01*
X50501271Y-19155781D01*
X50461611Y-19149500D01*
X50038389Y-19149500D01*
X49998728Y-19155781D01*
X49867302Y-19176597D01*
X49702552Y-19230128D01*
X49548211Y-19308768D01*
X49496936Y-19346022D01*
X49408072Y-19410586D01*
X49408070Y-19410588D01*
X49408069Y-19410588D01*
X49285588Y-19533069D01*
X49285588Y-19533070D01*
X49285586Y-19533072D01*
X49246723Y-19586562D01*
X49183768Y-19673211D01*
X49105128Y-19827552D01*
X49051597Y-19992302D01*
X49024500Y-20163389D01*
X49024500Y-20336611D01*
X49032677Y-20388239D01*
X49040481Y-20437515D01*
X49051598Y-20507701D01*
X49105127Y-20672445D01*
X49183768Y-20826788D01*
X49285586Y-20966928D01*
X49408072Y-21089414D01*
X49548212Y-21191232D01*
X49702555Y-21269873D01*
X49867299Y-21323402D01*
X50038389Y-21350500D01*
X50038390Y-21350500D01*
X50461610Y-21350500D01*
X50461611Y-21350500D01*
X50632701Y-21323402D01*
X50797445Y-21269873D01*
X50951788Y-21191232D01*
X51091928Y-21089414D01*
X51214414Y-20966928D01*
X51316232Y-20826788D01*
X51394873Y-20672445D01*
X51406570Y-20636445D01*
X51446006Y-20578772D01*
X51510365Y-20551573D01*
X51579211Y-20563487D01*
X51630687Y-20610731D01*
X51648500Y-20674765D01*
X51648500Y-22325234D01*
X51628815Y-22392273D01*
X51576011Y-22438028D01*
X51506853Y-22447972D01*
X51443297Y-22418947D01*
X51406570Y-22363554D01*
X51394873Y-22327555D01*
X51316232Y-22173212D01*
X51214414Y-22033072D01*
X51091928Y-21910586D01*
X50951788Y-21808768D01*
X50797445Y-21730127D01*
X50632701Y-21676598D01*
X50632699Y-21676597D01*
X50632698Y-21676597D01*
X50501271Y-21655781D01*
X50461611Y-21649500D01*
X50038389Y-21649500D01*
X49998728Y-21655781D01*
X49867302Y-21676597D01*
X49702552Y-21730128D01*
X49548207Y-21808770D01*
X49531386Y-21820992D01*
X49465580Y-21844472D01*
X49397526Y-21828646D01*
X49348831Y-21778540D01*
X49338728Y-21752773D01*
X49321242Y-21687515D01*
X49315474Y-21677525D01*
X49248769Y-21561988D01*
X49248764Y-21561982D01*
X49146275Y-21459493D01*
X49146269Y-21459488D01*
X49020746Y-21387017D01*
X49020747Y-21387017D01*
X49009264Y-21383940D01*
X48880733Y-21349500D01*
X48735783Y-21349500D01*
X48656593Y-21370719D01*
X48586743Y-21369056D01*
X48528881Y-21329893D01*
X48501377Y-21265665D01*
X48500500Y-21250944D01*
X48500500Y-17862229D01*
X48520185Y-17795190D01*
X48536820Y-17774547D01*
X48582948Y-17728419D01*
X48582951Y-17728416D01*
X48665084Y-17605495D01*
X48721658Y-17468913D01*
X48750500Y-17323918D01*
X48750500Y-17176083D01*
X48750500Y-14847998D01*
X48736644Y-14778339D01*
X48721659Y-14703004D01*
X48688518Y-14622996D01*
X48686308Y-14617660D01*
X48665085Y-14566422D01*
X48665083Y-14566419D01*
X48582954Y-14443504D01*
X48582953Y-14443503D01*
X48582951Y-14443500D01*
X48478416Y-14338965D01*
X48269766Y-14130315D01*
X47579987Y-13440534D01*
X47579986Y-13440533D01*
X47579953Y-13440511D01*
X47473727Y-13369534D01*
X47473727Y-13369533D01*
X47457061Y-13358398D01*
X47457056Y-13358395D01*
X47320483Y-13301825D01*
X47320473Y-13301822D01*
X47175486Y-13272982D01*
X47175484Y-13272982D01*
X41001339Y-13272982D01*
X40934300Y-13253297D01*
X40913658Y-13236663D01*
X38693049Y-11016052D01*
X38693046Y-11016049D01*
X38616213Y-10964712D01*
X38581247Y-10941349D01*
X38570123Y-10933916D01*
X38570120Y-10933914D01*
X38570119Y-10933914D01*
X38433545Y-10877343D01*
X38433535Y-10877340D01*
X38288548Y-10848500D01*
X38288546Y-10848500D01*
X36245602Y-10848500D01*
X36178563Y-10828815D01*
X36157921Y-10812181D01*
X25758482Y-412740D01*
X25760353Y-410868D01*
X25727479Y-362595D01*
X25725616Y-292751D01*
X25761809Y-232986D01*
X25824568Y-202276D01*
X25845482Y-200500D01*
X57675500Y-200500D01*
X57742539Y-220185D01*
G37*
%TD.AperFunction*%
%TA.AperFunction,Conductor*%
G36*
X7361516Y-1770185D02*
G01*
X7407271Y-1822989D01*
X7417215Y-1892147D01*
X7388190Y-1955703D01*
X7369963Y-1972876D01*
X7345331Y-1991776D01*
X7345331Y-1991777D01*
X7988282Y-2634728D01*
X7870534Y-2720278D01*
X7720278Y-2870534D01*
X7634728Y-2988282D01*
X6991777Y-2345331D01*
X6991775Y-2345331D01*
X6875185Y-2497276D01*
X6875174Y-2497292D01*
X6727709Y-2752707D01*
X6727704Y-2752718D01*
X6614838Y-3025199D01*
X6614835Y-3025209D01*
X6538499Y-3310102D01*
X6538496Y-3310115D01*
X6500001Y-3602516D01*
X6500000Y-3602533D01*
X6500000Y-3897466D01*
X6500001Y-3897483D01*
X6538496Y-4189884D01*
X6538499Y-4189897D01*
X6614835Y-4474790D01*
X6614838Y-4474800D01*
X6727704Y-4747281D01*
X6727709Y-4747292D01*
X6875174Y-5002707D01*
X6875180Y-5002715D01*
X6991777Y-5154667D01*
X7634728Y-4511716D01*
X7720278Y-4629466D01*
X7870534Y-4779722D01*
X7988282Y-4865270D01*
X7345331Y-5508221D01*
X7497284Y-5624819D01*
X7497292Y-5624825D01*
X7752707Y-5772290D01*
X7752718Y-5772295D01*
X8025199Y-5885161D01*
X8025209Y-5885164D01*
X8310102Y-5961500D01*
X8310115Y-5961503D01*
X8602516Y-5999998D01*
X8602534Y-6000000D01*
X8897466Y-6000000D01*
X8897483Y-5999998D01*
X9189884Y-5961503D01*
X9189897Y-5961500D01*
X9474790Y-5885164D01*
X9474800Y-5885161D01*
X9747281Y-5772295D01*
X9747292Y-5772290D01*
X10002707Y-5624825D01*
X10002725Y-5624813D01*
X10154667Y-5508222D01*
X10154667Y-5508220D01*
X9511717Y-4865271D01*
X9629466Y-4779722D01*
X9779722Y-4629466D01*
X9865271Y-4511717D01*
X10508220Y-5154667D01*
X10508222Y-5154667D01*
X10624813Y-5002725D01*
X10624825Y-5002707D01*
X10772290Y-4747292D01*
X10772295Y-4747281D01*
X10885161Y-4474800D01*
X10885164Y-4474790D01*
X10961500Y-4189897D01*
X10961503Y-4189884D01*
X10999998Y-3897483D01*
X11000000Y-3897466D01*
X11000000Y-3602533D01*
X10999998Y-3602516D01*
X10961503Y-3310115D01*
X10961500Y-3310102D01*
X10885164Y-3025209D01*
X10885161Y-3025199D01*
X10772295Y-2752718D01*
X10772290Y-2752707D01*
X10624825Y-2497292D01*
X10624819Y-2497284D01*
X10508221Y-2345331D01*
X9865270Y-2988281D01*
X9779722Y-2870534D01*
X9629466Y-2720278D01*
X9511716Y-2634728D01*
X10154667Y-1991777D01*
X10130035Y-1972876D01*
X10088833Y-1916448D01*
X10084678Y-1846702D01*
X10118891Y-1785781D01*
X10180608Y-1753029D01*
X10205522Y-1750500D01*
X24922143Y-1750500D01*
X24989182Y-1770185D01*
X25009824Y-1786819D01*
X25410824Y-2187819D01*
X25444309Y-2249142D01*
X25439325Y-2318834D01*
X25397453Y-2374767D01*
X25331989Y-2399184D01*
X25323143Y-2399500D01*
X22729386Y-2399500D01*
X22662347Y-2379815D01*
X22641705Y-2363181D01*
X22588017Y-2309493D01*
X22588011Y-2309488D01*
X22462488Y-2237017D01*
X22462489Y-2237017D01*
X22451006Y-2233940D01*
X22322475Y-2199500D01*
X22177525Y-2199500D01*
X22048993Y-2233940D01*
X22037511Y-2237017D01*
X21911988Y-2309488D01*
X21911982Y-2309493D01*
X21809493Y-2411982D01*
X21809488Y-2411988D01*
X21737017Y-2537511D01*
X21737016Y-2537515D01*
X21699500Y-2677525D01*
X21699500Y-2822475D01*
X21737016Y-2962485D01*
X21737017Y-2962488D01*
X21809488Y-3088011D01*
X21809490Y-3088013D01*
X21809491Y-3088015D01*
X21911985Y-3190509D01*
X21911986Y-3190510D01*
X21911988Y-3190511D01*
X22037511Y-3262982D01*
X22037512Y-3262982D01*
X22037515Y-3262984D01*
X22177525Y-3300500D01*
X22177528Y-3300500D01*
X22322472Y-3300500D01*
X22322475Y-3300500D01*
X22462485Y-3262984D01*
X22588015Y-3190509D01*
X22641705Y-3136819D01*
X22703028Y-3103334D01*
X22729386Y-3100500D01*
X25353456Y-3100500D01*
X25420495Y-3120185D01*
X25441137Y-3136819D01*
X28242137Y-5937819D01*
X28275622Y-5999142D01*
X28270638Y-6068834D01*
X28228766Y-6124767D01*
X28163302Y-6149184D01*
X28154456Y-6149500D01*
X26875323Y-6149500D01*
X26802264Y-6164032D01*
X26802260Y-6164033D01*
X26719399Y-6219399D01*
X26664033Y-6302260D01*
X26664032Y-6302264D01*
X26649500Y-6375321D01*
X26649500Y-8124678D01*
X26664032Y-8197735D01*
X26664033Y-8197739D01*
X26664034Y-8197740D01*
X26719399Y-8280601D01*
X26785145Y-8324530D01*
X26802260Y-8335966D01*
X26802264Y-8335967D01*
X26875321Y-8350499D01*
X26875324Y-8350500D01*
X26875326Y-8350500D01*
X27753456Y-8350500D01*
X27820495Y-8370185D01*
X27841137Y-8386819D01*
X30113181Y-10658863D01*
X30146666Y-10720186D01*
X30149500Y-10746544D01*
X30149500Y-15604456D01*
X30143261Y-15625701D01*
X30141682Y-15647790D01*
X30133609Y-15658573D01*
X30129815Y-15671495D01*
X30113081Y-15685994D01*
X30099810Y-15703723D01*
X30087189Y-15708430D01*
X30077011Y-15717250D01*
X30055093Y-15720401D01*
X30034346Y-15728140D01*
X30021185Y-15725277D01*
X30007853Y-15727194D01*
X29987709Y-15717994D01*
X29966073Y-15713288D01*
X29948347Y-15700019D01*
X29944297Y-15698169D01*
X29937819Y-15692137D01*
X29836347Y-15590665D01*
X29802862Y-15529342D01*
X29800028Y-15502984D01*
X29800028Y-11993386D01*
X29800028Y-11993384D01*
X29776142Y-11904240D01*
X29729997Y-11824315D01*
X26048693Y-8143011D01*
X26015208Y-8081688D01*
X26020192Y-8011996D01*
X26046589Y-7970921D01*
X26046250Y-7970632D01*
X26048374Y-7968144D01*
X26048693Y-7967649D01*
X26049414Y-7966928D01*
X26151232Y-7826788D01*
X26229873Y-7672445D01*
X26283402Y-7507701D01*
X26310500Y-7336611D01*
X26310500Y-7163389D01*
X26283402Y-6992299D01*
X26229873Y-6827555D01*
X26151232Y-6673212D01*
X26049414Y-6533072D01*
X25926928Y-6410586D01*
X25786788Y-6308768D01*
X25632445Y-6230127D01*
X25467701Y-6176598D01*
X25467699Y-6176597D01*
X25467698Y-6176597D01*
X25308190Y-6151334D01*
X25296611Y-6149500D01*
X25123389Y-6149500D01*
X25111810Y-6151334D01*
X24952302Y-6176597D01*
X24787552Y-6230128D01*
X24633211Y-6308768D01*
X24592054Y-6338671D01*
X24493072Y-6410586D01*
X24493070Y-6410588D01*
X24493069Y-6410588D01*
X24370588Y-6533069D01*
X24370588Y-6533070D01*
X24370586Y-6533072D01*
X24361061Y-6546182D01*
X24268768Y-6673211D01*
X24190128Y-6827552D01*
X24136597Y-6992302D01*
X24127380Y-7050500D01*
X24109500Y-7163389D01*
X24109500Y-7336611D01*
X24136598Y-7507701D01*
X24190127Y-7672445D01*
X24268768Y-7826788D01*
X24370586Y-7966928D01*
X24493072Y-8089414D01*
X24633212Y-8191232D01*
X24787555Y-8269873D01*
X24952299Y-8323402D01*
X25123389Y-8350500D01*
X25213456Y-8350500D01*
X25280495Y-8370185D01*
X25301137Y-8386819D01*
X29062709Y-12148391D01*
X29096194Y-12209714D01*
X29099028Y-12236072D01*
X29099028Y-12835601D01*
X29079343Y-12902640D01*
X29026539Y-12948395D01*
X28965418Y-12959228D01*
X28953999Y-12958340D01*
X28921003Y-12949499D01*
X28840260Y-12949499D01*
X28835462Y-12949126D01*
X28807119Y-12938354D01*
X28778033Y-12929814D01*
X28772130Y-12925057D01*
X28770150Y-12924305D01*
X28768609Y-12922219D01*
X28757391Y-12913180D01*
X23695109Y-7850898D01*
X23661624Y-7789575D01*
X23666608Y-7719883D01*
X23672299Y-7706935D01*
X23689873Y-7672445D01*
X23743402Y-7507701D01*
X23770500Y-7336611D01*
X23770500Y-7163389D01*
X23743402Y-6992299D01*
X23689873Y-6827555D01*
X23611232Y-6673212D01*
X23509414Y-6533072D01*
X23386928Y-6410586D01*
X23246788Y-6308768D01*
X23092445Y-6230127D01*
X22927701Y-6176598D01*
X22927699Y-6176597D01*
X22927698Y-6176597D01*
X22768190Y-6151334D01*
X22756611Y-6149500D01*
X22583389Y-6149500D01*
X22571810Y-6151334D01*
X22412302Y-6176597D01*
X22247552Y-6230128D01*
X22093211Y-6308768D01*
X22052054Y-6338671D01*
X21953072Y-6410586D01*
X21953070Y-6410588D01*
X21953069Y-6410588D01*
X21830588Y-6533069D01*
X21830588Y-6533070D01*
X21830586Y-6533072D01*
X21821061Y-6546182D01*
X21728768Y-6673211D01*
X21650128Y-6827552D01*
X21596597Y-6992302D01*
X21587380Y-7050500D01*
X21569500Y-7163389D01*
X21569500Y-7336611D01*
X21596598Y-7507701D01*
X21650127Y-7672445D01*
X21728768Y-7826788D01*
X21830586Y-7966928D01*
X21953072Y-8089414D01*
X22093212Y-8191232D01*
X22247555Y-8269873D01*
X22412299Y-8323402D01*
X22583389Y-8350500D01*
X22583390Y-8350500D01*
X22756610Y-8350500D01*
X22756611Y-8350500D01*
X22927701Y-8323402D01*
X23043030Y-8285928D01*
X23112869Y-8283934D01*
X23169027Y-8316179D01*
X28261709Y-13408861D01*
X28295194Y-13470184D01*
X28298028Y-13496542D01*
X28298028Y-13572474D01*
X28328393Y-13685796D01*
X28335545Y-13712487D01*
X28408016Y-13838010D01*
X28408018Y-13838012D01*
X28408019Y-13838014D01*
X28510513Y-13940508D01*
X28510514Y-13940509D01*
X28510516Y-13940510D01*
X28636039Y-14012981D01*
X28636040Y-14012981D01*
X28636043Y-14012983D01*
X28776053Y-14050499D01*
X28776056Y-14050499D01*
X28921000Y-14050499D01*
X28921003Y-14050499D01*
X28942935Y-14044622D01*
X29012781Y-14046283D01*
X29070645Y-14085444D01*
X29098151Y-14149671D01*
X29099028Y-14164396D01*
X29099028Y-15745672D01*
X29106553Y-15773755D01*
X29122914Y-15834817D01*
X29122915Y-15834818D01*
X29169055Y-15914736D01*
X29169057Y-15914739D01*
X29169058Y-15914740D01*
X31902237Y-18647919D01*
X31902238Y-18647920D01*
X31902240Y-18647921D01*
X31937956Y-18668541D01*
X31937958Y-18668543D01*
X31937959Y-18668543D01*
X31982162Y-18694064D01*
X32071306Y-18717950D01*
X35869602Y-18717950D01*
X35936641Y-18737635D01*
X35982396Y-18790439D01*
X35992340Y-18859597D01*
X35988271Y-18874437D01*
X35989120Y-18874665D01*
X35987017Y-18882513D01*
X35987016Y-18882515D01*
X35949500Y-19022525D01*
X35949500Y-19167475D01*
X35977504Y-19271986D01*
X35987017Y-19307488D01*
X36059488Y-19433011D01*
X36059490Y-19433013D01*
X36059491Y-19433015D01*
X36161985Y-19535509D01*
X36161986Y-19535510D01*
X36161988Y-19535511D01*
X36287511Y-19607982D01*
X36287512Y-19607982D01*
X36287515Y-19607984D01*
X36427525Y-19645500D01*
X36503456Y-19645500D01*
X36570495Y-19665185D01*
X36591137Y-19681819D01*
X37313181Y-20403862D01*
X37346666Y-20465185D01*
X37349500Y-20491543D01*
X37349500Y-21271614D01*
X37329815Y-21338653D01*
X37277011Y-21384408D01*
X37207853Y-21394352D01*
X37144297Y-21365327D01*
X37137819Y-21359295D01*
X37088017Y-21309493D01*
X37088011Y-21309488D01*
X36962488Y-21237017D01*
X36962489Y-21237017D01*
X36951006Y-21233940D01*
X36822475Y-21199500D01*
X36677525Y-21199500D01*
X36548993Y-21233940D01*
X36537511Y-21237017D01*
X36411988Y-21309488D01*
X36411982Y-21309493D01*
X36358295Y-21363181D01*
X36296972Y-21396666D01*
X36270614Y-21399500D01*
X34276544Y-21399500D01*
X34209505Y-21379815D01*
X34188863Y-21363181D01*
X20968693Y-8143011D01*
X20935208Y-8081688D01*
X20940192Y-8011996D01*
X20966589Y-7970921D01*
X20966250Y-7970632D01*
X20968374Y-7968144D01*
X20968693Y-7967649D01*
X20969414Y-7966928D01*
X21071232Y-7826788D01*
X21149873Y-7672445D01*
X21203402Y-7507701D01*
X21230500Y-7336611D01*
X21230500Y-7163389D01*
X21203402Y-6992299D01*
X21149873Y-6827555D01*
X21071232Y-6673212D01*
X20969414Y-6533072D01*
X20846928Y-6410586D01*
X20706788Y-6308768D01*
X20552445Y-6230127D01*
X20387701Y-6176598D01*
X20387699Y-6176597D01*
X20387698Y-6176597D01*
X20228190Y-6151334D01*
X20216611Y-6149500D01*
X20043389Y-6149500D01*
X20031810Y-6151334D01*
X19872302Y-6176597D01*
X19707552Y-6230128D01*
X19553211Y-6308768D01*
X19512054Y-6338671D01*
X19413072Y-6410586D01*
X19413070Y-6410588D01*
X19413069Y-6410588D01*
X19290588Y-6533069D01*
X19290588Y-6533070D01*
X19290586Y-6533072D01*
X19281061Y-6546182D01*
X19188768Y-6673211D01*
X19110128Y-6827552D01*
X19056597Y-6992302D01*
X19047380Y-7050500D01*
X19029500Y-7163389D01*
X19029500Y-7336611D01*
X19056598Y-7507701D01*
X19110127Y-7672445D01*
X19188768Y-7826788D01*
X19290586Y-7966928D01*
X19413072Y-8089414D01*
X19553212Y-8191232D01*
X19707555Y-8269873D01*
X19872299Y-8323402D01*
X20043389Y-8350500D01*
X20133456Y-8350500D01*
X20162896Y-8359144D01*
X20192883Y-8365668D01*
X20197898Y-8369422D01*
X20200495Y-8370185D01*
X20221137Y-8386819D01*
X20371434Y-8537116D01*
X20404919Y-8598439D01*
X20399935Y-8668131D01*
X20358063Y-8724064D01*
X20345757Y-8732182D01*
X20326988Y-8743018D01*
X20326982Y-8743023D01*
X20224493Y-8845512D01*
X20224488Y-8845518D01*
X20152017Y-8971041D01*
X20152016Y-8971045D01*
X20114500Y-9111055D01*
X20114500Y-9111057D01*
X20114500Y-9219457D01*
X20094815Y-9286496D01*
X20042011Y-9332251D01*
X19972853Y-9342195D01*
X19909297Y-9313170D01*
X19902819Y-9307138D01*
X18558224Y-7962543D01*
X18524739Y-7901220D01*
X18529723Y-7831528D01*
X18535415Y-7818578D01*
X18609873Y-7672445D01*
X18663402Y-7507701D01*
X18690500Y-7336611D01*
X18690500Y-7163389D01*
X18663402Y-6992299D01*
X18609873Y-6827555D01*
X18531232Y-6673212D01*
X18429414Y-6533072D01*
X18306928Y-6410586D01*
X18166788Y-6308768D01*
X18012445Y-6230127D01*
X17847701Y-6176598D01*
X17847699Y-6176597D01*
X17847697Y-6176597D01*
X17814947Y-6171410D01*
X17803570Y-6166017D01*
X17791011Y-6165119D01*
X17772596Y-6151334D01*
X17751812Y-6141481D01*
X17745156Y-6130791D01*
X17735078Y-6123247D01*
X17727040Y-6101696D01*
X17714881Y-6082169D01*
X17715060Y-6069579D01*
X17710661Y-6057783D01*
X17715550Y-6035306D01*
X17715879Y-6012306D01*
X17723192Y-6000178D01*
X17725513Y-5989510D01*
X17746658Y-5961262D01*
X17870104Y-5837816D01*
X17931425Y-5804334D01*
X17957783Y-5801500D01*
X20621725Y-5801500D01*
X20621727Y-5801500D01*
X20723588Y-5774207D01*
X20814913Y-5721480D01*
X21179573Y-5356818D01*
X21240896Y-5323334D01*
X21267254Y-5320500D01*
X21272472Y-5320500D01*
X21272475Y-5320500D01*
X21412485Y-5282984D01*
X21538015Y-5210509D01*
X21640509Y-5108015D01*
X21712984Y-4982485D01*
X21750500Y-4842475D01*
X21750500Y-4697525D01*
X21712984Y-4557515D01*
X21711315Y-4554625D01*
X21640511Y-4431988D01*
X21640506Y-4431982D01*
X21538017Y-4329493D01*
X21538011Y-4329488D01*
X21412488Y-4257017D01*
X21412489Y-4257017D01*
X21398956Y-4253391D01*
X21272475Y-4219500D01*
X21127525Y-4219500D01*
X21001044Y-4253391D01*
X20987511Y-4257017D01*
X20861988Y-4329488D01*
X20861982Y-4329493D01*
X20759493Y-4431982D01*
X20759488Y-4431988D01*
X20687017Y-4557511D01*
X20687016Y-4557515D01*
X20649500Y-4697525D01*
X20649500Y-4697527D01*
X20649500Y-4702745D01*
X20640855Y-4732185D01*
X20634332Y-4762172D01*
X20630577Y-4767187D01*
X20629815Y-4769784D01*
X20613181Y-4790426D01*
X20439426Y-4964181D01*
X20378103Y-4997666D01*
X20351745Y-5000500D01*
X17800868Y-5000500D01*
X17800852Y-5000499D01*
X17793256Y-5000499D01*
X17687802Y-5000499D01*
X17627378Y-5016690D01*
X17585941Y-5027793D01*
X17535877Y-5056698D01*
X17507697Y-5072968D01*
X17494613Y-5080522D01*
X15979522Y-6595613D01*
X15979518Y-6595619D01*
X15926792Y-6686941D01*
X15922567Y-6702711D01*
X15922566Y-6702710D01*
X15922566Y-6702711D01*
X15922565Y-6702720D01*
X15920815Y-6709249D01*
X15888724Y-6764827D01*
X15532962Y-7120590D01*
X15515925Y-7057007D01*
X15450099Y-6942993D01*
X15357007Y-6849901D01*
X15242993Y-6784075D01*
X15179409Y-6767037D01*
X15632737Y-6313709D01*
X15626525Y-6309196D01*
X15472259Y-6230592D01*
X15307584Y-6177085D01*
X15136571Y-6150000D01*
X14963429Y-6150000D01*
X14792415Y-6177085D01*
X14627740Y-6230592D01*
X14473480Y-6309193D01*
X14473463Y-6309203D01*
X14467261Y-6313708D01*
X14467261Y-6313709D01*
X14920590Y-6767037D01*
X14857007Y-6784075D01*
X14742993Y-6849901D01*
X14649901Y-6942993D01*
X14584075Y-7057007D01*
X14567037Y-7120590D01*
X14113709Y-6667261D01*
X14113708Y-6667261D01*
X14109203Y-6673463D01*
X14109193Y-6673480D01*
X14030592Y-6827740D01*
X13977085Y-6992415D01*
X13950000Y-7163428D01*
X13950000Y-7336571D01*
X13977085Y-7507584D01*
X14030592Y-7672259D01*
X14109196Y-7826525D01*
X14113709Y-7832736D01*
X14113709Y-7832737D01*
X14567037Y-7379409D01*
X14584075Y-7442993D01*
X14649901Y-7557007D01*
X14742993Y-7650099D01*
X14857007Y-7715925D01*
X14920590Y-7732962D01*
X14467261Y-8186289D01*
X14467262Y-8186290D01*
X14473471Y-8190801D01*
X14627742Y-8269408D01*
X14792415Y-8322914D01*
X14963429Y-8350000D01*
X15136571Y-8350000D01*
X15307584Y-8322914D01*
X15472257Y-8269408D01*
X15626521Y-8190805D01*
X15626638Y-8190721D01*
X15626694Y-8190700D01*
X15630681Y-8188258D01*
X15631193Y-8189094D01*
X15692441Y-8167231D01*
X15760497Y-8183046D01*
X15809200Y-8233144D01*
X15823086Y-8301620D01*
X15806927Y-8353027D01*
X15787017Y-8387512D01*
X15787017Y-8387513D01*
X15787016Y-8387515D01*
X15749500Y-8527525D01*
X15749500Y-8672475D01*
X15787016Y-8812485D01*
X15787017Y-8812488D01*
X15859488Y-8938011D01*
X15859490Y-8938013D01*
X15859491Y-8938015D01*
X15961985Y-9040509D01*
X15961986Y-9040510D01*
X15961988Y-9040511D01*
X16087511Y-9112982D01*
X16087512Y-9112982D01*
X16087515Y-9112984D01*
X16227525Y-9150500D01*
X16227528Y-9150500D01*
X16372472Y-9150500D01*
X16372475Y-9150500D01*
X16512485Y-9112984D01*
X16638015Y-9040509D01*
X16740509Y-8938015D01*
X16812984Y-8812485D01*
X16850500Y-8672475D01*
X16850500Y-8527525D01*
X16812984Y-8387515D01*
X16764784Y-8304030D01*
X16748312Y-8236134D01*
X16771164Y-8170107D01*
X16826085Y-8126916D01*
X16895638Y-8120274D01*
X16945057Y-8141714D01*
X17013212Y-8191232D01*
X17167555Y-8269873D01*
X17332299Y-8323402D01*
X17503389Y-8350500D01*
X17503390Y-8350500D01*
X17676610Y-8350500D01*
X17676611Y-8350500D01*
X17768375Y-8335966D01*
X17852513Y-8322640D01*
X17852812Y-8324530D01*
X17914469Y-8327606D01*
X17961332Y-8357014D01*
X25133661Y-15529342D01*
X32299531Y-22695212D01*
X32364788Y-22760469D01*
X32364791Y-22760470D01*
X32364794Y-22760473D01*
X32444706Y-22806611D01*
X32444707Y-22806611D01*
X32444712Y-22806614D01*
X32533856Y-22830500D01*
X34300614Y-22830500D01*
X34367653Y-22850185D01*
X34388295Y-22866819D01*
X34441985Y-22920509D01*
X34441986Y-22920510D01*
X34441988Y-22920511D01*
X34567511Y-22992982D01*
X34567512Y-22992982D01*
X34567515Y-22992984D01*
X34707525Y-23030500D01*
X34783456Y-23030500D01*
X34850495Y-23050185D01*
X34871137Y-23066819D01*
X36464181Y-24659862D01*
X36497666Y-24721185D01*
X36500500Y-24747543D01*
X36500500Y-27835602D01*
X36480815Y-27902641D01*
X36428011Y-27948396D01*
X36358853Y-27958340D01*
X36344411Y-27955377D01*
X36322475Y-27949500D01*
X36177525Y-27949500D01*
X36048993Y-27983940D01*
X36037511Y-27987017D01*
X35911988Y-28059488D01*
X35911982Y-28059493D01*
X35837681Y-28133795D01*
X35776358Y-28167280D01*
X35706666Y-28162296D01*
X35662319Y-28133795D01*
X35588017Y-28059493D01*
X35588011Y-28059488D01*
X35462488Y-27987017D01*
X35462489Y-27987017D01*
X35451006Y-27983940D01*
X35322475Y-27949500D01*
X35177525Y-27949500D01*
X35048993Y-27983940D01*
X35037511Y-27987017D01*
X34911988Y-28059488D01*
X34911982Y-28059493D01*
X34809493Y-28161982D01*
X34809488Y-28161988D01*
X34737017Y-28287511D01*
X34737016Y-28287515D01*
X34699500Y-28427525D01*
X34699500Y-28427527D01*
X34699500Y-28503456D01*
X34690855Y-28532896D01*
X34684332Y-28562883D01*
X34680577Y-28567898D01*
X34679815Y-28570495D01*
X34663181Y-28591137D01*
X34641137Y-28613181D01*
X34579814Y-28646666D01*
X34553456Y-28649500D01*
X8446543Y-28649500D01*
X8379504Y-28629815D01*
X8358862Y-28613181D01*
X4836819Y-25091137D01*
X4803334Y-25029814D01*
X4800500Y-25003456D01*
X4800500Y-24927527D01*
X4800500Y-24927525D01*
X4762984Y-24787515D01*
X4724688Y-24721185D01*
X4690511Y-24661988D01*
X4690506Y-24661982D01*
X4588017Y-24559493D01*
X4588011Y-24559488D01*
X4462488Y-24487017D01*
X4462489Y-24487017D01*
X4451006Y-24483940D01*
X4322475Y-24449500D01*
X4177525Y-24449500D01*
X4048993Y-24483940D01*
X4037511Y-24487017D01*
X3911988Y-24559488D01*
X3911982Y-24559493D01*
X3809493Y-24661982D01*
X3809488Y-24661988D01*
X3737017Y-24787511D01*
X3737016Y-24787515D01*
X3699500Y-24927525D01*
X3699500Y-25072475D01*
X3731128Y-25190511D01*
X3737017Y-25212488D01*
X3809488Y-25338011D01*
X3809490Y-25338013D01*
X3809491Y-25338015D01*
X3911985Y-25440509D01*
X3911986Y-25440510D01*
X3911988Y-25440511D01*
X4037511Y-25512982D01*
X4037512Y-25512982D01*
X4037515Y-25512984D01*
X4177525Y-25550500D01*
X4253456Y-25550500D01*
X4320495Y-25570185D01*
X4341137Y-25586819D01*
X7593138Y-28838819D01*
X7626623Y-28900142D01*
X7621639Y-28969834D01*
X7579767Y-29025767D01*
X7514303Y-29050184D01*
X7505457Y-29050500D01*
X6847544Y-29050500D01*
X6780505Y-29030815D01*
X6759863Y-29014181D01*
X4836819Y-27091137D01*
X4803334Y-27029814D01*
X4800500Y-27003456D01*
X4800500Y-26927527D01*
X4800500Y-26927525D01*
X4762984Y-26787515D01*
X4690509Y-26661985D01*
X4588015Y-26559491D01*
X4588013Y-26559490D01*
X4588011Y-26559488D01*
X4462488Y-26487017D01*
X4462489Y-26487017D01*
X4451006Y-26483940D01*
X4322475Y-26449500D01*
X4177525Y-26449500D01*
X4048993Y-26483940D01*
X4037511Y-26487017D01*
X3911988Y-26559488D01*
X3911982Y-26559493D01*
X3809493Y-26661982D01*
X3809488Y-26661988D01*
X3737017Y-26787511D01*
X3737016Y-26787515D01*
X3699500Y-26927525D01*
X3699500Y-27072475D01*
X3704501Y-27091137D01*
X3737017Y-27212488D01*
X3809488Y-27338011D01*
X3809490Y-27338013D01*
X3809491Y-27338015D01*
X3911985Y-27440509D01*
X3911986Y-27440510D01*
X3911988Y-27440511D01*
X4037511Y-27512982D01*
X4037512Y-27512982D01*
X4037515Y-27512984D01*
X4177525Y-27550500D01*
X4253456Y-27550500D01*
X4320495Y-27570185D01*
X4341137Y-27586819D01*
X6435788Y-29681470D01*
X6435789Y-29681471D01*
X6435791Y-29681472D01*
X6467017Y-29699500D01*
X6515712Y-29727614D01*
X6604856Y-29751500D01*
X6604857Y-29751500D01*
X6697144Y-29751500D01*
X28752156Y-29751500D01*
X28819195Y-29771185D01*
X28864950Y-29823989D01*
X28874894Y-29893147D01*
X28845869Y-29956703D01*
X28839837Y-29963181D01*
X27502837Y-31300181D01*
X27441514Y-31333666D01*
X27415156Y-31336500D01*
X25949756Y-31336500D01*
X25860612Y-31360386D01*
X25860611Y-31360386D01*
X25860609Y-31360387D01*
X25860606Y-31360388D01*
X25780694Y-31406526D01*
X25780685Y-31406533D01*
X25473037Y-31714181D01*
X25411714Y-31747666D01*
X25385356Y-31750500D01*
X20442856Y-31750500D01*
X20358111Y-31773207D01*
X20358110Y-31773206D01*
X20353717Y-31774384D01*
X20353709Y-31774387D01*
X20273791Y-31820527D01*
X20273786Y-31820531D01*
X18142969Y-33951347D01*
X18081646Y-33984832D01*
X18016970Y-33981597D01*
X17847698Y-33926597D01*
X17707788Y-33904438D01*
X17676611Y-33899500D01*
X17503389Y-33899500D01*
X17472212Y-33904438D01*
X17332302Y-33926597D01*
X17167552Y-33980128D01*
X17013211Y-34058768D01*
X16952662Y-34102760D01*
X16873072Y-34160586D01*
X16873070Y-34160588D01*
X16873069Y-34160588D01*
X16750588Y-34283069D01*
X16750588Y-34283070D01*
X16750586Y-34283072D01*
X16706859Y-34343256D01*
X16648768Y-34423211D01*
X16570128Y-34577552D01*
X16516597Y-34742302D01*
X16489500Y-34913389D01*
X16489500Y-35086610D01*
X16514400Y-35243828D01*
X16516598Y-35257701D01*
X16570127Y-35422445D01*
X16648768Y-35576788D01*
X16750586Y-35716928D01*
X16873072Y-35839414D01*
X17013212Y-35941232D01*
X17167555Y-36019873D01*
X17332299Y-36073402D01*
X17503389Y-36100500D01*
X17503390Y-36100500D01*
X17676610Y-36100500D01*
X17676611Y-36100500D01*
X17847701Y-36073402D01*
X18012445Y-36019873D01*
X18166788Y-35941232D01*
X18306928Y-35839414D01*
X18429414Y-35716928D01*
X18531232Y-35576788D01*
X18609873Y-35422445D01*
X18663402Y-35257701D01*
X18690500Y-35086611D01*
X18690500Y-34913389D01*
X18663402Y-34742299D01*
X18609873Y-34577555D01*
X18609869Y-34577547D01*
X18608401Y-34573029D01*
X18606406Y-34503188D01*
X18638649Y-34447031D01*
X20597863Y-32487819D01*
X20659186Y-32454334D01*
X20685544Y-32451500D01*
X21883456Y-32451500D01*
X21950495Y-32471185D01*
X21996250Y-32523989D01*
X22006194Y-32593147D01*
X21977169Y-32656703D01*
X21971137Y-32663181D01*
X20682969Y-33951347D01*
X20621646Y-33984832D01*
X20556970Y-33981597D01*
X20387698Y-33926597D01*
X20247788Y-33904438D01*
X20216611Y-33899500D01*
X20043389Y-33899500D01*
X20012212Y-33904438D01*
X19872302Y-33926597D01*
X19707552Y-33980128D01*
X19553211Y-34058768D01*
X19492662Y-34102760D01*
X19413072Y-34160586D01*
X19413070Y-34160588D01*
X19413069Y-34160588D01*
X19290588Y-34283069D01*
X19290588Y-34283070D01*
X19290586Y-34283072D01*
X19246859Y-34343256D01*
X19188768Y-34423211D01*
X19110128Y-34577552D01*
X19056597Y-34742302D01*
X19029500Y-34913389D01*
X19029500Y-35086610D01*
X19054400Y-35243828D01*
X19056598Y-35257701D01*
X19110127Y-35422445D01*
X19188768Y-35576788D01*
X19290586Y-35716928D01*
X19413072Y-35839414D01*
X19553212Y-35941232D01*
X19707555Y-36019873D01*
X19872299Y-36073402D01*
X20043389Y-36100500D01*
X20043390Y-36100500D01*
X20216610Y-36100500D01*
X20216611Y-36100500D01*
X20387701Y-36073402D01*
X20552445Y-36019873D01*
X20706788Y-35941232D01*
X20846928Y-35839414D01*
X20969414Y-35716928D01*
X21071232Y-35576788D01*
X21149873Y-35422445D01*
X21203402Y-35257701D01*
X21230500Y-35086611D01*
X21230500Y-34913389D01*
X21203402Y-34742299D01*
X21149873Y-34577555D01*
X21149869Y-34577547D01*
X21148401Y-34573029D01*
X21146406Y-34503188D01*
X21178649Y-34447031D01*
X22488863Y-33136819D01*
X22550186Y-33103334D01*
X22576544Y-33100500D01*
X23764456Y-33100500D01*
X23831495Y-33120185D01*
X23877250Y-33172989D01*
X23887194Y-33242147D01*
X23858169Y-33305703D01*
X23852137Y-33312181D01*
X23215422Y-33948894D01*
X23154099Y-33982379D01*
X23089424Y-33979144D01*
X22927702Y-33926598D01*
X22927698Y-33926597D01*
X22787788Y-33904438D01*
X22756611Y-33899500D01*
X22583389Y-33899500D01*
X22552212Y-33904438D01*
X22412302Y-33926597D01*
X22247552Y-33980128D01*
X22093211Y-34058768D01*
X22032662Y-34102760D01*
X21953072Y-34160586D01*
X21953070Y-34160588D01*
X21953069Y-34160588D01*
X21830588Y-34283069D01*
X21830588Y-34283070D01*
X21830586Y-34283072D01*
X21786859Y-34343256D01*
X21728768Y-34423211D01*
X21650128Y-34577552D01*
X21596597Y-34742302D01*
X21569500Y-34913389D01*
X21569500Y-35086610D01*
X21594400Y-35243828D01*
X21596598Y-35257701D01*
X21650127Y-35422445D01*
X21728768Y-35576788D01*
X21830586Y-35716928D01*
X21953072Y-35839414D01*
X22093212Y-35941232D01*
X22247555Y-36019873D01*
X22412299Y-36073402D01*
X22583389Y-36100500D01*
X22583390Y-36100500D01*
X22756610Y-36100500D01*
X22756611Y-36100500D01*
X22927701Y-36073402D01*
X23092445Y-36019873D01*
X23246788Y-35941232D01*
X23386928Y-35839414D01*
X23509414Y-35716928D01*
X23611232Y-35576788D01*
X23689873Y-35422445D01*
X23743402Y-35257701D01*
X23770500Y-35086611D01*
X23770500Y-34913389D01*
X23743402Y-34742299D01*
X23689873Y-34577555D01*
X23689871Y-34577552D01*
X23689869Y-34577544D01*
X23688845Y-34575071D01*
X23688736Y-34574056D01*
X23688367Y-34572921D01*
X23688605Y-34572843D01*
X23681384Y-34505601D01*
X23712665Y-34443125D01*
X23715700Y-34439980D01*
X24617863Y-33537819D01*
X24679186Y-33504334D01*
X24705544Y-33501500D01*
X25712242Y-33501500D01*
X25712244Y-33501500D01*
X25801388Y-33477614D01*
X25881312Y-33431470D01*
X25937819Y-33374963D01*
X25999142Y-33341478D01*
X26068834Y-33346462D01*
X26124767Y-33388334D01*
X26149184Y-33453798D01*
X26149500Y-33462644D01*
X26149500Y-34083796D01*
X26129815Y-34150835D01*
X26077011Y-34196590D01*
X26007853Y-34206534D01*
X25944297Y-34177509D01*
X25937819Y-34171477D01*
X25926930Y-34160588D01*
X25926928Y-34160586D01*
X25786788Y-34058768D01*
X25693222Y-34011094D01*
X25632447Y-33980128D01*
X25632446Y-33980127D01*
X25632445Y-33980127D01*
X25467701Y-33926598D01*
X25467699Y-33926597D01*
X25467698Y-33926597D01*
X25327788Y-33904438D01*
X25296611Y-33899500D01*
X25123389Y-33899500D01*
X25092212Y-33904438D01*
X24952302Y-33926597D01*
X24787552Y-33980128D01*
X24633211Y-34058768D01*
X24572662Y-34102760D01*
X24493072Y-34160586D01*
X24493070Y-34160588D01*
X24493069Y-34160588D01*
X24370588Y-34283069D01*
X24370588Y-34283070D01*
X24370586Y-34283072D01*
X24326859Y-34343256D01*
X24268768Y-34423211D01*
X24190128Y-34577552D01*
X24136597Y-34742302D01*
X24109500Y-34913389D01*
X24109500Y-35086610D01*
X24134400Y-35243828D01*
X24136598Y-35257701D01*
X24190127Y-35422445D01*
X24268768Y-35576788D01*
X24370586Y-35716928D01*
X24493072Y-35839414D01*
X24633212Y-35941232D01*
X24787555Y-36019873D01*
X24952299Y-36073402D01*
X25123389Y-36100500D01*
X25123391Y-36100500D01*
X25125108Y-36100772D01*
X25136484Y-36106164D01*
X25149042Y-36107063D01*
X25167455Y-36120847D01*
X25188242Y-36130701D01*
X25194897Y-36141389D01*
X25204976Y-36148934D01*
X25213013Y-36170483D01*
X25225174Y-36190012D01*
X25224994Y-36202602D01*
X25229394Y-36214398D01*
X25224504Y-36236875D01*
X25224176Y-36259875D01*
X25216864Y-36272000D01*
X25214543Y-36282671D01*
X25193392Y-36310925D01*
X25141138Y-36363180D01*
X25079815Y-36396666D01*
X25053456Y-36399500D01*
X24539386Y-36399500D01*
X24472347Y-36379815D01*
X24451705Y-36363181D01*
X24398017Y-36309493D01*
X24398011Y-36309488D01*
X24272488Y-36237017D01*
X24272489Y-36237017D01*
X24237751Y-36227709D01*
X24132475Y-36199500D01*
X23987525Y-36199500D01*
X23882249Y-36227709D01*
X23847511Y-36237017D01*
X23721988Y-36309488D01*
X23721982Y-36309493D01*
X23619493Y-36411982D01*
X23619488Y-36411988D01*
X23547017Y-36537511D01*
X23547016Y-36537515D01*
X23509500Y-36677525D01*
X23509500Y-36822475D01*
X23547016Y-36962485D01*
X23547017Y-36962488D01*
X23619488Y-37088011D01*
X23619490Y-37088013D01*
X23619491Y-37088015D01*
X23721985Y-37190509D01*
X23721986Y-37190510D01*
X23721988Y-37190511D01*
X23847511Y-37262982D01*
X23847512Y-37262982D01*
X23847515Y-37262984D01*
X23987525Y-37300500D01*
X23987528Y-37300500D01*
X24132472Y-37300500D01*
X24132475Y-37300500D01*
X24272485Y-37262984D01*
X24398015Y-37190509D01*
X24451705Y-37136819D01*
X24513028Y-37103334D01*
X24539386Y-37100500D01*
X25296142Y-37100500D01*
X25296144Y-37100500D01*
X25385288Y-37076614D01*
X25398223Y-37069146D01*
X25398224Y-37069146D01*
X25465205Y-37030474D01*
X25465204Y-37030474D01*
X25465212Y-37030470D01*
X26510695Y-35984986D01*
X26572016Y-35951503D01*
X26641708Y-35956487D01*
X26697641Y-35998359D01*
X26701475Y-36003777D01*
X26719397Y-36030599D01*
X26719398Y-36030599D01*
X26719399Y-36030601D01*
X26793054Y-36079815D01*
X26802260Y-36085966D01*
X26802264Y-36085967D01*
X26875321Y-36100499D01*
X26875324Y-36100500D01*
X26875326Y-36100500D01*
X28624676Y-36100500D01*
X28624677Y-36100499D01*
X28697740Y-36085966D01*
X28780601Y-36030601D01*
X28835966Y-35947740D01*
X28850500Y-35874674D01*
X28850500Y-34125326D01*
X28850500Y-34125323D01*
X28850499Y-34125321D01*
X28835967Y-34052264D01*
X28835966Y-34052260D01*
X28834311Y-34049783D01*
X28780601Y-33969399D01*
X28699316Y-33915087D01*
X28697739Y-33914033D01*
X28697735Y-33914032D01*
X28624677Y-33899500D01*
X28624674Y-33899500D01*
X28395543Y-33899500D01*
X28374297Y-33893261D01*
X28352211Y-33891682D01*
X28341427Y-33883609D01*
X28328504Y-33879815D01*
X28314005Y-33863082D01*
X28296277Y-33849812D01*
X28291568Y-33837189D01*
X28282749Y-33827011D01*
X28279597Y-33805095D01*
X28271859Y-33784348D01*
X28274722Y-33771185D01*
X28272805Y-33757853D01*
X28282003Y-33737710D01*
X28286710Y-33716075D01*
X28299980Y-33698345D01*
X28301830Y-33694297D01*
X28307843Y-33687837D01*
X28342378Y-33653302D01*
X28397967Y-33621209D01*
X28411388Y-33617614D01*
X28491312Y-33571470D01*
X30144963Y-31917819D01*
X30206286Y-31884334D01*
X30232644Y-31881500D01*
X30603943Y-31881500D01*
X30636035Y-31885725D01*
X30653856Y-31890500D01*
X36425500Y-31890500D01*
X36428849Y-31891483D01*
X36432247Y-31890684D01*
X36462128Y-31901255D01*
X36492539Y-31910185D01*
X36494824Y-31912822D01*
X36498116Y-31913987D01*
X36517543Y-31939042D01*
X36538294Y-31962989D01*
X36539422Y-31967257D01*
X36540930Y-31969202D01*
X36543433Y-31982435D01*
X36549016Y-32003557D01*
X36549500Y-32009020D01*
X36549500Y-32072475D01*
X36557898Y-32103818D01*
X36558850Y-32114557D01*
X36554031Y-32138671D01*
X36553446Y-32163257D01*
X36547305Y-32172329D01*
X36545159Y-32183072D01*
X36528067Y-32200753D01*
X36514283Y-32221119D01*
X36504211Y-32225431D01*
X36496598Y-32233308D01*
X36472663Y-32238941D01*
X36450055Y-32248623D01*
X36435334Y-32249500D01*
X34940238Y-32249500D01*
X34795250Y-32278340D01*
X34795240Y-32278343D01*
X34658669Y-32334912D01*
X34658656Y-32334919D01*
X34557012Y-32402837D01*
X34490335Y-32423715D01*
X34488121Y-32423735D01*
X33535217Y-32423735D01*
X33390229Y-32452575D01*
X33390223Y-32452577D01*
X33345300Y-32471185D01*
X33305143Y-32487819D01*
X33299730Y-32490061D01*
X33252277Y-32499500D01*
X32926082Y-32499500D01*
X32903022Y-32504087D01*
X32903021Y-32504087D01*
X32781095Y-32528338D01*
X32781095Y-32528339D01*
X32781092Y-32528340D01*
X32781088Y-32528341D01*
X32701080Y-32561481D01*
X32701078Y-32561481D01*
X32644506Y-32584915D01*
X32607666Y-32609531D01*
X32607665Y-32609530D01*
X32521585Y-32667046D01*
X32521578Y-32667052D01*
X30667050Y-34521580D01*
X30667044Y-34521588D01*
X30617812Y-34595268D01*
X30617813Y-34595269D01*
X30584921Y-34644496D01*
X30584914Y-34644508D01*
X30528342Y-34781086D01*
X30528340Y-34781092D01*
X30499500Y-34926079D01*
X30499500Y-35803398D01*
X30479815Y-35870437D01*
X30463181Y-35891079D01*
X27892079Y-38462181D01*
X27830756Y-38495666D01*
X27804398Y-38498500D01*
X15592708Y-38498500D01*
X15447720Y-38527340D01*
X15447710Y-38527343D01*
X15311139Y-38583912D01*
X15311126Y-38583919D01*
X15188212Y-38666048D01*
X15188208Y-38666051D01*
X13690079Y-40164181D01*
X13628756Y-40197666D01*
X13602398Y-40200500D01*
X10269378Y-40200500D01*
X10202339Y-40180815D01*
X10156584Y-40128011D01*
X10146640Y-40058853D01*
X10152138Y-40046813D01*
X10154667Y-40008220D01*
X9511717Y-39365271D01*
X9629466Y-39279722D01*
X9779722Y-39129466D01*
X9865271Y-39011717D01*
X10508220Y-39654667D01*
X10508222Y-39654667D01*
X10624813Y-39502725D01*
X10624825Y-39502707D01*
X10772290Y-39247292D01*
X10772295Y-39247281D01*
X10885161Y-38974800D01*
X10885164Y-38974790D01*
X10961500Y-38689897D01*
X10961503Y-38689884D01*
X10999998Y-38397483D01*
X11000000Y-38397466D01*
X11000000Y-38102533D01*
X10999998Y-38102516D01*
X10961503Y-37810115D01*
X10961500Y-37810102D01*
X10885164Y-37525209D01*
X10885161Y-37525199D01*
X10772295Y-37252718D01*
X10772290Y-37252707D01*
X10624825Y-36997292D01*
X10624819Y-36997284D01*
X10508221Y-36845331D01*
X9865270Y-37488281D01*
X9779722Y-37370534D01*
X9629466Y-37220278D01*
X9511716Y-37134728D01*
X10154667Y-36491777D01*
X10002715Y-36375180D01*
X10002707Y-36375174D01*
X9747292Y-36227709D01*
X9747281Y-36227704D01*
X9474800Y-36114838D01*
X9474790Y-36114835D01*
X9189897Y-36038499D01*
X9189884Y-36038496D01*
X8897483Y-36000001D01*
X8897466Y-36000000D01*
X8602534Y-36000000D01*
X8602516Y-36000001D01*
X8310115Y-36038496D01*
X8310102Y-36038499D01*
X8025209Y-36114835D01*
X8025199Y-36114838D01*
X7752718Y-36227704D01*
X7752707Y-36227709D01*
X7497292Y-36375174D01*
X7497276Y-36375185D01*
X7345331Y-36491775D01*
X7345331Y-36491777D01*
X7988282Y-37134728D01*
X7870534Y-37220278D01*
X7720278Y-37370534D01*
X7634728Y-37488282D01*
X6991777Y-36845331D01*
X6991775Y-36845331D01*
X6875185Y-36997276D01*
X6875174Y-36997292D01*
X6727709Y-37252707D01*
X6727704Y-37252718D01*
X6614838Y-37525199D01*
X6614835Y-37525209D01*
X6538499Y-37810102D01*
X6538496Y-37810115D01*
X6500001Y-38102516D01*
X6500000Y-38102533D01*
X6500000Y-38397466D01*
X6500001Y-38397483D01*
X6538496Y-38689884D01*
X6538499Y-38689897D01*
X6614835Y-38974790D01*
X6614838Y-38974800D01*
X6727704Y-39247281D01*
X6727709Y-39247292D01*
X6875174Y-39502707D01*
X6875180Y-39502715D01*
X6991777Y-39654667D01*
X7634728Y-39011716D01*
X7720278Y-39129466D01*
X7870534Y-39279722D01*
X7988282Y-39365270D01*
X7345331Y-40008221D01*
X7347032Y-40034169D01*
X7347309Y-40034549D01*
X7351466Y-40104295D01*
X7317255Y-40165216D01*
X7255538Y-40197971D01*
X7230621Y-40200500D01*
X6813230Y-40200500D01*
X6746191Y-40180815D01*
X6725549Y-40164181D01*
X5936819Y-39375451D01*
X5903334Y-39314128D01*
X5900500Y-39287770D01*
X5900500Y-37060363D01*
X5900500Y-37060360D01*
X5885879Y-36911907D01*
X5828097Y-36721427D01*
X5813834Y-36694743D01*
X5762223Y-36598185D01*
X5762222Y-36598184D01*
X5734265Y-36545880D01*
X5678604Y-36478057D01*
X5607988Y-36392011D01*
X5454121Y-36265735D01*
X5454114Y-36265731D01*
X5278574Y-36171903D01*
X5088095Y-36114121D01*
X5007302Y-36106164D01*
X4939640Y-36099500D01*
X4939637Y-36099500D01*
X2712230Y-36099500D01*
X2645191Y-36079815D01*
X2624549Y-36063181D01*
X1836819Y-35275451D01*
X1803334Y-35214128D01*
X1800500Y-35187770D01*
X1800500Y-34913389D01*
X11409500Y-34913389D01*
X11409500Y-35086610D01*
X11434400Y-35243828D01*
X11436598Y-35257701D01*
X11490127Y-35422445D01*
X11568768Y-35576788D01*
X11670586Y-35716928D01*
X11793072Y-35839414D01*
X11933212Y-35941232D01*
X12087555Y-36019873D01*
X12252299Y-36073402D01*
X12423389Y-36100500D01*
X12423390Y-36100500D01*
X12596610Y-36100500D01*
X12596611Y-36100500D01*
X12767701Y-36073402D01*
X12932445Y-36019873D01*
X13086788Y-35941232D01*
X13226928Y-35839414D01*
X13349414Y-35716928D01*
X13451232Y-35576788D01*
X13529873Y-35422445D01*
X13583402Y-35257701D01*
X13610500Y-35086611D01*
X13610500Y-34913428D01*
X13950000Y-34913428D01*
X13950000Y-35086571D01*
X13977085Y-35257584D01*
X14030592Y-35422259D01*
X14109196Y-35576525D01*
X14113709Y-35582736D01*
X14113709Y-35582737D01*
X14567037Y-35129409D01*
X14584075Y-35192993D01*
X14649901Y-35307007D01*
X14742993Y-35400099D01*
X14857007Y-35465925D01*
X14920589Y-35482962D01*
X14467261Y-35936289D01*
X14467262Y-35936290D01*
X14473471Y-35940801D01*
X14627742Y-36019408D01*
X14792415Y-36072914D01*
X14963429Y-36100000D01*
X15136571Y-36100000D01*
X15307584Y-36072914D01*
X15472257Y-36019408D01*
X15626525Y-35940803D01*
X15632736Y-35936289D01*
X15632737Y-35936289D01*
X15179410Y-35482962D01*
X15242993Y-35465925D01*
X15357007Y-35400099D01*
X15450099Y-35307007D01*
X15515925Y-35192993D01*
X15532962Y-35129409D01*
X15986289Y-35582736D01*
X15990803Y-35576525D01*
X16069408Y-35422257D01*
X16122914Y-35257584D01*
X16150000Y-35086571D01*
X16150000Y-34913428D01*
X16122914Y-34742415D01*
X16069408Y-34577742D01*
X15990801Y-34423471D01*
X15986290Y-34417262D01*
X15986289Y-34417261D01*
X15532962Y-34870589D01*
X15515925Y-34807007D01*
X15450099Y-34692993D01*
X15357007Y-34599901D01*
X15242993Y-34534075D01*
X15179409Y-34517037D01*
X15632737Y-34063709D01*
X15626525Y-34059196D01*
X15472259Y-33980592D01*
X15307584Y-33927085D01*
X15136571Y-33900000D01*
X14963429Y-33900000D01*
X14792415Y-33927085D01*
X14627740Y-33980592D01*
X14473480Y-34059193D01*
X14473463Y-34059203D01*
X14467261Y-34063708D01*
X14467261Y-34063709D01*
X14920590Y-34517037D01*
X14857007Y-34534075D01*
X14742993Y-34599901D01*
X14649901Y-34692993D01*
X14584075Y-34807007D01*
X14567037Y-34870590D01*
X14113709Y-34417261D01*
X14113708Y-34417261D01*
X14109203Y-34423463D01*
X14109193Y-34423480D01*
X14030592Y-34577740D01*
X13977085Y-34742415D01*
X13950000Y-34913428D01*
X13610500Y-34913428D01*
X13610500Y-34913389D01*
X13583402Y-34742299D01*
X13529873Y-34577555D01*
X13451232Y-34423212D01*
X13349414Y-34283072D01*
X13226928Y-34160586D01*
X13086788Y-34058768D01*
X12993222Y-34011094D01*
X12932447Y-33980128D01*
X12932446Y-33980127D01*
X12932445Y-33980127D01*
X12767701Y-33926598D01*
X12767699Y-33926597D01*
X12767698Y-33926597D01*
X12627788Y-33904438D01*
X12596611Y-33899500D01*
X12423389Y-33899500D01*
X12392212Y-33904438D01*
X12252302Y-33926597D01*
X12087552Y-33980128D01*
X11933211Y-34058768D01*
X11872662Y-34102760D01*
X11793072Y-34160586D01*
X11793070Y-34160588D01*
X11793069Y-34160588D01*
X11670588Y-34283069D01*
X11670588Y-34283070D01*
X11670586Y-34283072D01*
X11626859Y-34343256D01*
X11568768Y-34423211D01*
X11490128Y-34577552D01*
X11436597Y-34742302D01*
X11409500Y-34913389D01*
X1800500Y-34913389D01*
X1800500Y-32143713D01*
X2649500Y-32143713D01*
X2649500Y-32356286D01*
X2681999Y-32561481D01*
X2682754Y-32566243D01*
X2747419Y-32765261D01*
X2748444Y-32768414D01*
X2844951Y-32957820D01*
X2969890Y-33129786D01*
X3120213Y-33280109D01*
X3292179Y-33405048D01*
X3292181Y-33405049D01*
X3292184Y-33405051D01*
X3481588Y-33501557D01*
X3683757Y-33567246D01*
X3893713Y-33600500D01*
X3893714Y-33600500D01*
X4106286Y-33600500D01*
X4106287Y-33600500D01*
X4316243Y-33567246D01*
X4518412Y-33501557D01*
X4707816Y-33405051D01*
X4781033Y-33351856D01*
X4879786Y-33280109D01*
X4879788Y-33280106D01*
X4879792Y-33280104D01*
X5030104Y-33129792D01*
X5030106Y-33129788D01*
X5030109Y-33129786D01*
X5155048Y-32957820D01*
X5155047Y-32957820D01*
X5155051Y-32957816D01*
X5251557Y-32768412D01*
X5317246Y-32566243D01*
X5350500Y-32356287D01*
X5350500Y-32143713D01*
X5317246Y-31933757D01*
X5251557Y-31731588D01*
X5155051Y-31542184D01*
X5155049Y-31542181D01*
X5155048Y-31542179D01*
X5030109Y-31370213D01*
X4879786Y-31219890D01*
X4707820Y-31094951D01*
X4518414Y-30998444D01*
X4518413Y-30998443D01*
X4518412Y-30998443D01*
X4316243Y-30932754D01*
X4316241Y-30932753D01*
X4316240Y-30932753D01*
X4154957Y-30907208D01*
X4106287Y-30899500D01*
X3893713Y-30899500D01*
X3845042Y-30907208D01*
X3683760Y-30932753D01*
X3481585Y-30998444D01*
X3292179Y-31094951D01*
X3120213Y-31219890D01*
X2969890Y-31370213D01*
X2844951Y-31542179D01*
X2748444Y-31731585D01*
X2682753Y-31933760D01*
X2649500Y-32143713D01*
X1800500Y-32143713D01*
X1800500Y-22770315D01*
X1820185Y-22703276D01*
X1872989Y-22657521D01*
X1942147Y-22647577D01*
X2005703Y-22676602D01*
X2012910Y-22684008D01*
X2013129Y-22683790D01*
X2121899Y-22792560D01*
X2121903Y-22792563D01*
X2244735Y-22874637D01*
X2244745Y-22874642D01*
X2381232Y-22931177D01*
X2381240Y-22931179D01*
X2526126Y-22959999D01*
X2526129Y-22960000D01*
X2750000Y-22960000D01*
X2750000Y-22510000D01*
X3250000Y-22510000D01*
X3250000Y-22960000D01*
X3473871Y-22960000D01*
X3473873Y-22959999D01*
X3618759Y-22931179D01*
X3618767Y-22931177D01*
X3755254Y-22874642D01*
X3755264Y-22874637D01*
X3878096Y-22792563D01*
X3878100Y-22792560D01*
X3982560Y-22688100D01*
X3982563Y-22688096D01*
X4064637Y-22565264D01*
X4064642Y-22565254D01*
X4108241Y-22460000D01*
X3566988Y-22460000D01*
X3584205Y-22450060D01*
X3640060Y-22394205D01*
X3679556Y-22325796D01*
X3700000Y-22249496D01*
X3700000Y-22170504D01*
X3679556Y-22094204D01*
X3640060Y-22025795D01*
X3584205Y-21969940D01*
X3566988Y-21960000D01*
X4108241Y-21960000D01*
X4108240Y-21959999D01*
X5921759Y-21959999D01*
X5921759Y-21960000D01*
X6463012Y-21960000D01*
X6445795Y-21969940D01*
X6389940Y-22025795D01*
X6350444Y-22094204D01*
X6330000Y-22170504D01*
X6330000Y-22249496D01*
X6350444Y-22325796D01*
X6389940Y-22394205D01*
X6445795Y-22450060D01*
X6463012Y-22460000D01*
X5921759Y-22460000D01*
X5965357Y-22565254D01*
X5965362Y-22565264D01*
X6047436Y-22688096D01*
X6047439Y-22688100D01*
X6151899Y-22792560D01*
X6151903Y-22792563D01*
X6274735Y-22874637D01*
X6274745Y-22874642D01*
X6411232Y-22931177D01*
X6411240Y-22931179D01*
X6556126Y-22959999D01*
X6556129Y-22960000D01*
X6930000Y-22960000D01*
X6930000Y-22510000D01*
X7430000Y-22510000D01*
X7430000Y-22960000D01*
X7803871Y-22960000D01*
X7803873Y-22959999D01*
X7948759Y-22931179D01*
X7948767Y-22931177D01*
X8085254Y-22874642D01*
X8085264Y-22874637D01*
X8208096Y-22792563D01*
X8208100Y-22792560D01*
X8312560Y-22688100D01*
X8312563Y-22688096D01*
X8394637Y-22565264D01*
X8394642Y-22565254D01*
X8438241Y-22460000D01*
X7896988Y-22460000D01*
X7914205Y-22450060D01*
X7970060Y-22394205D01*
X8009556Y-22325796D01*
X8030000Y-22249496D01*
X8030000Y-22170504D01*
X8009556Y-22094204D01*
X7970060Y-22025795D01*
X7914205Y-21969940D01*
X7896988Y-21960000D01*
X8438241Y-21960000D01*
X8438240Y-21959999D01*
X8394642Y-21854745D01*
X8394637Y-21854735D01*
X8312563Y-21731903D01*
X8312560Y-21731899D01*
X8208100Y-21627439D01*
X8208096Y-21627436D01*
X8085264Y-21545362D01*
X8085254Y-21545357D01*
X7948767Y-21488822D01*
X7948759Y-21488820D01*
X7803872Y-21460000D01*
X7430000Y-21460000D01*
X7430000Y-21910000D01*
X6930000Y-21910000D01*
X6930000Y-21449230D01*
X6909469Y-21411631D01*
X6914453Y-21341939D01*
X6956325Y-21286006D01*
X6968618Y-21277896D01*
X7033365Y-21240515D01*
X7140515Y-21133365D01*
X7216281Y-21002135D01*
X7255500Y-20855766D01*
X7255500Y-20704234D01*
X7216281Y-20557865D01*
X7140515Y-20426635D01*
X7033365Y-20319485D01*
X6940325Y-20265768D01*
X6902136Y-20243719D01*
X6828950Y-20224109D01*
X6755766Y-20204500D01*
X6604234Y-20204500D01*
X6457863Y-20243719D01*
X6326635Y-20319485D01*
X6326632Y-20319487D01*
X6219487Y-20426632D01*
X6219485Y-20426635D01*
X6143719Y-20557863D01*
X6122663Y-20636447D01*
X6104500Y-20704234D01*
X6104500Y-20855766D01*
X6106301Y-20862488D01*
X6143719Y-21002136D01*
X6162250Y-21034232D01*
X6219485Y-21133365D01*
X6326635Y-21240515D01*
X6393714Y-21279243D01*
X6394635Y-21279775D01*
X6442850Y-21330343D01*
X6456072Y-21398950D01*
X6430104Y-21463814D01*
X6380087Y-21501723D01*
X6274745Y-21545357D01*
X6274735Y-21545362D01*
X6151903Y-21627436D01*
X6151899Y-21627439D01*
X6047439Y-21731899D01*
X6047436Y-21731903D01*
X5965362Y-21854735D01*
X5965357Y-21854745D01*
X5921759Y-21959999D01*
X4108240Y-21959999D01*
X4064642Y-21854745D01*
X4064637Y-21854735D01*
X3982563Y-21731903D01*
X3982560Y-21731899D01*
X3878100Y-21627439D01*
X3878096Y-21627436D01*
X3755264Y-21545362D01*
X3755254Y-21545357D01*
X3618767Y-21488822D01*
X3618759Y-21488820D01*
X3473872Y-21460000D01*
X3250000Y-21460000D01*
X3250000Y-21910000D01*
X2750000Y-21910000D01*
X2750000Y-21460000D01*
X2526128Y-21460000D01*
X2381240Y-21488820D01*
X2381232Y-21488822D01*
X2244745Y-21545357D01*
X2244735Y-21545362D01*
X2121903Y-21627436D01*
X2121899Y-21627439D01*
X2013129Y-21736210D01*
X2011381Y-21734462D01*
X1962600Y-21767686D01*
X1892756Y-21769552D01*
X1832990Y-21733361D01*
X1802277Y-21670603D01*
X1800500Y-21649684D01*
X1800500Y-14130315D01*
X1820185Y-14063276D01*
X1872989Y-14017521D01*
X1942147Y-14007577D01*
X2005703Y-14036602D01*
X2012910Y-14044008D01*
X2013129Y-14043790D01*
X2121899Y-14152560D01*
X2121903Y-14152563D01*
X2244735Y-14234637D01*
X2244745Y-14234642D01*
X2381232Y-14291177D01*
X2381240Y-14291179D01*
X2526126Y-14319999D01*
X2526129Y-14320000D01*
X2750000Y-14320000D01*
X2750000Y-13870000D01*
X3250000Y-13870000D01*
X3250000Y-14320000D01*
X3473871Y-14320000D01*
X3473873Y-14319999D01*
X3618759Y-14291179D01*
X3618767Y-14291177D01*
X3755254Y-14234642D01*
X3755264Y-14234637D01*
X3878096Y-14152563D01*
X3878100Y-14152560D01*
X3982560Y-14048100D01*
X3982563Y-14048096D01*
X4064637Y-13925264D01*
X4064642Y-13925254D01*
X4108241Y-13820000D01*
X3566988Y-13820000D01*
X3584205Y-13810060D01*
X3640060Y-13754205D01*
X3679556Y-13685796D01*
X3700000Y-13609496D01*
X3700000Y-13530504D01*
X3679556Y-13454204D01*
X3640060Y-13385795D01*
X3584205Y-13329940D01*
X3566988Y-13320000D01*
X4108241Y-13320000D01*
X4108240Y-13319999D01*
X5921759Y-13319999D01*
X5921759Y-13320000D01*
X6463012Y-13320000D01*
X6445795Y-13329940D01*
X6389940Y-13385795D01*
X6350444Y-13454204D01*
X6330000Y-13530504D01*
X6330000Y-13609496D01*
X6350444Y-13685796D01*
X6389940Y-13754205D01*
X6445795Y-13810060D01*
X6463012Y-13820000D01*
X5921759Y-13820000D01*
X5965357Y-13925254D01*
X5965362Y-13925264D01*
X6047436Y-14048096D01*
X6047439Y-14048100D01*
X6151899Y-14152560D01*
X6151903Y-14152563D01*
X6274735Y-14234637D01*
X6274748Y-14234644D01*
X6380086Y-14278276D01*
X6434490Y-14322117D01*
X6456555Y-14388411D01*
X6439276Y-14456110D01*
X6394636Y-14500223D01*
X6326638Y-14539483D01*
X6326632Y-14539487D01*
X6219487Y-14646632D01*
X6219485Y-14646635D01*
X6143719Y-14777863D01*
X6104500Y-14924234D01*
X6104500Y-15075765D01*
X6143719Y-15222136D01*
X6153007Y-15238223D01*
X6219485Y-15353365D01*
X6326635Y-15460515D01*
X6457865Y-15536281D01*
X6604234Y-15575500D01*
X6604236Y-15575500D01*
X6755764Y-15575500D01*
X6755766Y-15575500D01*
X6902135Y-15536281D01*
X7033365Y-15460515D01*
X7140515Y-15353365D01*
X7216281Y-15222135D01*
X7255500Y-15075766D01*
X7255500Y-14924234D01*
X7216281Y-14777865D01*
X7214545Y-14774859D01*
X7206129Y-14760281D01*
X7140515Y-14646635D01*
X7033365Y-14539485D01*
X6968634Y-14502112D01*
X6920419Y-14451546D01*
X6907196Y-14382939D01*
X6930000Y-14325979D01*
X6930000Y-13870000D01*
X7430000Y-13870000D01*
X7430000Y-14320000D01*
X7803871Y-14320000D01*
X7803873Y-14319999D01*
X7948759Y-14291179D01*
X7948767Y-14291177D01*
X8085254Y-14234642D01*
X8085264Y-14234637D01*
X8208096Y-14152563D01*
X8208100Y-14152560D01*
X8312560Y-14048100D01*
X8312563Y-14048096D01*
X8394637Y-13925264D01*
X8394642Y-13925254D01*
X8438241Y-13820000D01*
X7896988Y-13820000D01*
X7914205Y-13810060D01*
X7970060Y-13754205D01*
X8009556Y-13685796D01*
X8030000Y-13609496D01*
X8030000Y-13530504D01*
X8009556Y-13454204D01*
X7970060Y-13385795D01*
X7914205Y-13329940D01*
X7896988Y-13320000D01*
X8438241Y-13320000D01*
X8438240Y-13319999D01*
X8394642Y-13214745D01*
X8394637Y-13214735D01*
X8312563Y-13091903D01*
X8312560Y-13091899D01*
X8208100Y-12987439D01*
X8208096Y-12987436D01*
X8085264Y-12905362D01*
X8085254Y-12905357D01*
X7948767Y-12848822D01*
X7948759Y-12848820D01*
X7803872Y-12820000D01*
X7430000Y-12820000D01*
X7430000Y-13270000D01*
X6930000Y-13270000D01*
X6930000Y-12820000D01*
X6556128Y-12820000D01*
X6411240Y-12848820D01*
X6411232Y-12848822D01*
X6274745Y-12905357D01*
X6274735Y-12905362D01*
X6151903Y-12987436D01*
X6151899Y-12987439D01*
X6047439Y-13091899D01*
X6047436Y-13091903D01*
X5965362Y-13214735D01*
X5965357Y-13214745D01*
X5921759Y-13319999D01*
X4108240Y-13319999D01*
X4064642Y-13214745D01*
X4064637Y-13214735D01*
X3982563Y-13091903D01*
X3982560Y-13091899D01*
X3878100Y-12987439D01*
X3878096Y-12987436D01*
X3755264Y-12905362D01*
X3755254Y-12905357D01*
X3618767Y-12848822D01*
X3618759Y-12848820D01*
X3473872Y-12820000D01*
X3250000Y-12820000D01*
X3250000Y-13270000D01*
X2750000Y-13270000D01*
X2750000Y-12820000D01*
X2526128Y-12820000D01*
X2381240Y-12848820D01*
X2381232Y-12848822D01*
X2244745Y-12905357D01*
X2244735Y-12905362D01*
X2121903Y-12987436D01*
X2121899Y-12987439D01*
X2013129Y-13096210D01*
X2011381Y-13094462D01*
X1962600Y-13127686D01*
X1892756Y-13129552D01*
X1832990Y-13093361D01*
X1802277Y-13030603D01*
X1800500Y-13009684D01*
X1800500Y-9643713D01*
X2649500Y-9643713D01*
X2649500Y-9856287D01*
X2682754Y-10066243D01*
X2719776Y-10180186D01*
X2748444Y-10268414D01*
X2844951Y-10457820D01*
X2969890Y-10629786D01*
X3120213Y-10780109D01*
X3292179Y-10905048D01*
X3292181Y-10905049D01*
X3292184Y-10905051D01*
X3481588Y-11001557D01*
X3683757Y-11067246D01*
X3893713Y-11100500D01*
X3893714Y-11100500D01*
X4106286Y-11100500D01*
X4106287Y-11100500D01*
X4316243Y-11067246D01*
X4518412Y-11001557D01*
X4707816Y-10905051D01*
X4745953Y-10877343D01*
X4879786Y-10780109D01*
X4879788Y-10780106D01*
X4879792Y-10780104D01*
X5030104Y-10629792D01*
X5030106Y-10629788D01*
X5030109Y-10629786D01*
X5155048Y-10457820D01*
X5155047Y-10457820D01*
X5155051Y-10457816D01*
X5251557Y-10268412D01*
X5317246Y-10066243D01*
X5350500Y-9856287D01*
X5350500Y-9643713D01*
X5317246Y-9433757D01*
X5251557Y-9231588D01*
X5155051Y-9042184D01*
X5155049Y-9042181D01*
X5155048Y-9042179D01*
X5030109Y-8870213D01*
X4879786Y-8719890D01*
X4707820Y-8594951D01*
X4518414Y-8498444D01*
X4518413Y-8498443D01*
X4518412Y-8498443D01*
X4316243Y-8432754D01*
X4316241Y-8432753D01*
X4316240Y-8432753D01*
X4154957Y-8407208D01*
X4106287Y-8399500D01*
X3893713Y-8399500D01*
X3845042Y-8407208D01*
X3683760Y-8432753D01*
X3481585Y-8498444D01*
X3292179Y-8594951D01*
X3120213Y-8719890D01*
X2969890Y-8870213D01*
X2844951Y-9042179D01*
X2748444Y-9231585D01*
X2682753Y-9433760D01*
X2649500Y-9643713D01*
X1800500Y-9643713D01*
X1800500Y-7163389D01*
X11409500Y-7163389D01*
X11409500Y-7336611D01*
X11436598Y-7507701D01*
X11490127Y-7672445D01*
X11568768Y-7826788D01*
X11670586Y-7966928D01*
X11793072Y-8089414D01*
X11933212Y-8191232D01*
X12087555Y-8269873D01*
X12252299Y-8323402D01*
X12423389Y-8350500D01*
X12423390Y-8350500D01*
X12596610Y-8350500D01*
X12596611Y-8350500D01*
X12767701Y-8323402D01*
X12932445Y-8269873D01*
X13086788Y-8191232D01*
X13226928Y-8089414D01*
X13349414Y-7966928D01*
X13451232Y-7826788D01*
X13529873Y-7672445D01*
X13583402Y-7507701D01*
X13610500Y-7336611D01*
X13610500Y-7163389D01*
X13583402Y-6992299D01*
X13529873Y-6827555D01*
X13451232Y-6673212D01*
X13349414Y-6533072D01*
X13226928Y-6410586D01*
X13086788Y-6308768D01*
X12932445Y-6230127D01*
X12767701Y-6176598D01*
X12767699Y-6176597D01*
X12767698Y-6176597D01*
X12608190Y-6151334D01*
X12596611Y-6149500D01*
X12423389Y-6149500D01*
X12411810Y-6151334D01*
X12252302Y-6176597D01*
X12087552Y-6230128D01*
X11933211Y-6308768D01*
X11892054Y-6338671D01*
X11793072Y-6410586D01*
X11793070Y-6410588D01*
X11793069Y-6410588D01*
X11670588Y-6533069D01*
X11670588Y-6533070D01*
X11670586Y-6533072D01*
X11661061Y-6546182D01*
X11568768Y-6673211D01*
X11490128Y-6827552D01*
X11436597Y-6992302D01*
X11427380Y-7050500D01*
X11409500Y-7163389D01*
X1800500Y-7163389D01*
X1800500Y-6812229D01*
X1820185Y-6745190D01*
X1836819Y-6724548D01*
X2624549Y-5936819D01*
X2685872Y-5903334D01*
X2712230Y-5900500D01*
X4939637Y-5900500D01*
X4939640Y-5900500D01*
X5088093Y-5885879D01*
X5278573Y-5828097D01*
X5454120Y-5734265D01*
X5607988Y-5607988D01*
X5734265Y-5454120D01*
X5739603Y-5444131D01*
X5762223Y-5401816D01*
X5805687Y-5320500D01*
X5828097Y-5278573D01*
X5885879Y-5088093D01*
X5900500Y-4939640D01*
X5900500Y-2712229D01*
X5920185Y-2645190D01*
X5936819Y-2624548D01*
X6774548Y-1786819D01*
X6835871Y-1753334D01*
X6862229Y-1750500D01*
X7294477Y-1750500D01*
X7361516Y-1770185D01*
G37*
%TD.AperFunction*%
%TA.AperFunction,Conductor*%
G36*
X37728039Y-33770185D02*
G01*
X37748681Y-33786819D01*
X38344814Y-34382952D01*
X38395845Y-34417049D01*
X38467735Y-34465084D01*
X38467736Y-34465084D01*
X38467737Y-34465085D01*
X38584018Y-34513250D01*
X38604317Y-34521658D01*
X38604321Y-34521658D01*
X38604322Y-34521659D01*
X38749309Y-34550500D01*
X38749312Y-34550500D01*
X38749313Y-34550500D01*
X38897148Y-34550500D01*
X41937770Y-34550500D01*
X42004809Y-34570185D01*
X42025451Y-34586819D01*
X44018988Y-36580356D01*
X44038888Y-36593652D01*
X44070408Y-36614712D01*
X44108253Y-36639999D01*
X44127038Y-36655416D01*
X44854576Y-37382954D01*
X44880118Y-37400020D01*
X44918436Y-37425622D01*
X44977495Y-37465084D01*
X44977497Y-37465085D01*
X44977501Y-37465087D01*
X45114072Y-37521656D01*
X45114077Y-37521658D01*
X45114081Y-37521658D01*
X45114082Y-37521659D01*
X45259069Y-37550500D01*
X45259072Y-37550500D01*
X47773920Y-37550500D01*
X47901061Y-37525209D01*
X47918913Y-37521658D01*
X48055495Y-37465084D01*
X48114554Y-37425622D01*
X48178416Y-37382952D01*
X48332952Y-37228415D01*
X48365878Y-37179137D01*
X48415084Y-37105495D01*
X48435085Y-37057206D01*
X48438951Y-37050432D01*
X48458715Y-37031391D01*
X48475933Y-37010025D01*
X48483514Y-37007501D01*
X48489270Y-37001957D01*
X48516189Y-36996625D01*
X48542227Y-36987959D01*
X48549970Y-36989935D01*
X48557808Y-36988383D01*
X48583334Y-36998450D01*
X48609926Y-37005237D01*
X48619602Y-37012754D01*
X48622805Y-37014017D01*
X48624804Y-37016795D01*
X48634336Y-37024199D01*
X48800648Y-37190511D01*
X48961841Y-37351703D01*
X48995326Y-37413026D01*
X48998160Y-37439384D01*
X48998160Y-37440678D01*
X49025454Y-37542543D01*
X49025455Y-37542545D01*
X49063240Y-37607989D01*
X49079854Y-37669990D01*
X49079854Y-37692121D01*
X49111471Y-37810115D01*
X49117371Y-37832134D01*
X49191484Y-37960500D01*
X49207957Y-38028400D01*
X49185105Y-38094427D01*
X49130184Y-38137617D01*
X49084097Y-38146500D01*
X43260643Y-38146500D01*
X43193604Y-38126815D01*
X43172962Y-38110181D01*
X40182313Y-35119531D01*
X40182308Y-35119527D01*
X40102391Y-35073387D01*
X40102383Y-35073384D01*
X40095664Y-35071583D01*
X40095664Y-35071584D01*
X40022529Y-35051988D01*
X40013244Y-35049500D01*
X40013243Y-35049500D01*
X34541886Y-35049500D01*
X34474847Y-35029815D01*
X34454205Y-35013181D01*
X34400517Y-34959493D01*
X34400515Y-34959491D01*
X34274985Y-34887016D01*
X34269453Y-34883822D01*
X34221238Y-34833255D01*
X34208016Y-34764647D01*
X34233984Y-34699783D01*
X34269451Y-34669049D01*
X34361780Y-34615744D01*
X34464274Y-34513250D01*
X34536749Y-34387720D01*
X34574265Y-34247710D01*
X34574265Y-34124500D01*
X34593950Y-34057461D01*
X34646754Y-34011706D01*
X34698265Y-34000500D01*
X34838078Y-34000500D01*
X34945437Y-33979144D01*
X34983071Y-33971658D01*
X35119653Y-33915084D01*
X35178543Y-33875735D01*
X35242574Y-33832952D01*
X35293322Y-33782203D01*
X35298393Y-33778101D01*
X35324865Y-33767075D01*
X35350030Y-33753334D01*
X35360579Y-33752199D01*
X35362891Y-33751237D01*
X35365388Y-33751682D01*
X35376388Y-33750500D01*
X37661000Y-33750500D01*
X37728039Y-33770185D01*
G37*
%TD.AperFunction*%
%TA.AperFunction,Conductor*%
G36*
X46806375Y-14793667D02*
G01*
X46827017Y-14810301D01*
X47213181Y-15196464D01*
X47246666Y-15257787D01*
X47249500Y-15284145D01*
X47249500Y-16887769D01*
X47229815Y-16954808D01*
X47213181Y-16975450D01*
X47167052Y-17021578D01*
X47167049Y-17021581D01*
X47130612Y-17076113D01*
X47130613Y-17076114D01*
X47084914Y-17144508D01*
X47028343Y-17281082D01*
X47028340Y-17281092D01*
X46999500Y-17426079D01*
X46999500Y-35925500D01*
X46979815Y-35992539D01*
X46927011Y-36038294D01*
X46875500Y-36049500D01*
X45695220Y-36049500D01*
X45628181Y-36029815D01*
X45607539Y-36013181D01*
X45008813Y-35414454D01*
X45008812Y-35414453D01*
X44987329Y-35400099D01*
X44919543Y-35354806D01*
X44900753Y-35339385D01*
X42778421Y-33217052D01*
X42778414Y-33217046D01*
X42678818Y-33150499D01*
X42678817Y-33150499D01*
X42655495Y-33134916D01*
X42655488Y-33134912D01*
X42518917Y-33078343D01*
X42518907Y-33078340D01*
X42373920Y-33049500D01*
X42373918Y-33049500D01*
X39185460Y-33049500D01*
X39118421Y-33029815D01*
X39097779Y-33013181D01*
X38501651Y-32417052D01*
X38501644Y-32417046D01*
X38410709Y-32356286D01*
X38410708Y-32356286D01*
X38378730Y-32334919D01*
X38378718Y-32334912D01*
X38242147Y-32278343D01*
X38242137Y-32278340D01*
X38097150Y-32249500D01*
X38097148Y-32249500D01*
X37764666Y-32249500D01*
X37746137Y-32244059D01*
X37726832Y-32243587D01*
X37713304Y-32234418D01*
X37697627Y-32229815D01*
X37684981Y-32215221D01*
X37668995Y-32204386D01*
X37662571Y-32189359D01*
X37651872Y-32177011D01*
X37649123Y-32157898D01*
X37641533Y-32140140D01*
X37643211Y-32116779D01*
X37641928Y-32107853D01*
X37642396Y-32104856D01*
X37643371Y-32099079D01*
X37650500Y-32072475D01*
X37650500Y-32056857D01*
X37652230Y-32046611D01*
X37663153Y-32024161D01*
X37670185Y-32000216D01*
X37681847Y-31985743D01*
X37682801Y-31983784D01*
X37684028Y-31983036D01*
X37686819Y-31979574D01*
X37829574Y-31836819D01*
X37890897Y-31803334D01*
X37917255Y-31800500D01*
X41252725Y-31800500D01*
X41252727Y-31800500D01*
X41354588Y-31773207D01*
X41445913Y-31720480D01*
X41779574Y-31386819D01*
X41840897Y-31353334D01*
X41867255Y-31350500D01*
X41872472Y-31350500D01*
X41872475Y-31350500D01*
X42012485Y-31312984D01*
X42138015Y-31240509D01*
X42240509Y-31138015D01*
X42312984Y-31012485D01*
X42345159Y-30892404D01*
X42381524Y-30832746D01*
X42444372Y-30802217D01*
X42464934Y-30800500D01*
X42572472Y-30800500D01*
X42572475Y-30800500D01*
X42712485Y-30762984D01*
X42838015Y-30690509D01*
X42940509Y-30588015D01*
X43012984Y-30462485D01*
X43050500Y-30322475D01*
X43050500Y-30177525D01*
X43012984Y-30037515D01*
X42940509Y-29911985D01*
X42838015Y-29809491D01*
X42838013Y-29809490D01*
X42838011Y-29809488D01*
X42712488Y-29737017D01*
X42712489Y-29737017D01*
X42701006Y-29733940D01*
X42572475Y-29699500D01*
X42572472Y-29699500D01*
X42496544Y-29699500D01*
X42429505Y-29679815D01*
X42408863Y-29663181D01*
X42136819Y-29391137D01*
X42103334Y-29329814D01*
X42100500Y-29303456D01*
X42100500Y-21121347D01*
X42117114Y-21059345D01*
X42131613Y-21034232D01*
X42131614Y-21034231D01*
X42140214Y-21002136D01*
X42140764Y-21000085D01*
X42149647Y-20966930D01*
X42155500Y-20945087D01*
X42155500Y-20354913D01*
X42131614Y-20265769D01*
X42118883Y-20243719D01*
X42118582Y-20243197D01*
X42117091Y-20240613D01*
X42117015Y-20240300D01*
X42100500Y-20178651D01*
X42100500Y-19828338D01*
X42120185Y-19761299D01*
X42123172Y-19757049D01*
X42123988Y-19755634D01*
X42123991Y-19755632D01*
X42170135Y-19675708D01*
X42187742Y-19609998D01*
X42194021Y-19586564D01*
X42194021Y-18996390D01*
X42170135Y-18907246D01*
X42167608Y-18902869D01*
X42123991Y-18827322D01*
X42123988Y-18827319D01*
X42119927Y-18820285D01*
X42121888Y-18819152D01*
X42100929Y-18764921D01*
X42100500Y-18754616D01*
X42100500Y-17369785D01*
X42120185Y-17302746D01*
X42172989Y-17256991D01*
X42242147Y-17247047D01*
X42279900Y-17260114D01*
X42280001Y-17259872D01*
X42284078Y-17261560D01*
X42286504Y-17262400D01*
X42287515Y-17262984D01*
X42427525Y-17300500D01*
X42427528Y-17300500D01*
X42572472Y-17300500D01*
X42572475Y-17300500D01*
X42712485Y-17262984D01*
X42838015Y-17190509D01*
X42940509Y-17088015D01*
X43012984Y-16962485D01*
X43050500Y-16822475D01*
X43050500Y-16677525D01*
X43012984Y-16537515D01*
X42940509Y-16411985D01*
X42838015Y-16309491D01*
X42838013Y-16309490D01*
X42838011Y-16309488D01*
X42712488Y-16237017D01*
X42712489Y-16237017D01*
X42701006Y-16233940D01*
X42572475Y-16199500D01*
X42427525Y-16199500D01*
X42298993Y-16233940D01*
X42287511Y-16237017D01*
X42161988Y-16309488D01*
X42161982Y-16309493D01*
X42134838Y-16336638D01*
X42073515Y-16370123D01*
X42047157Y-16372957D01*
X38769944Y-16372957D01*
X38702905Y-16353272D01*
X38682263Y-16336638D01*
X37732288Y-15386663D01*
X37698803Y-15325340D01*
X37703787Y-15255648D01*
X37745659Y-15199715D01*
X37811123Y-15175298D01*
X37819969Y-15174982D01*
X44003179Y-15174982D01*
X44013561Y-15178030D01*
X44024312Y-15176796D01*
X44046500Y-15187702D01*
X44070218Y-15194667D01*
X44078953Y-15203655D01*
X44087016Y-15207618D01*
X44106886Y-15232394D01*
X44109360Y-15234939D01*
X44111234Y-15238047D01*
X44111281Y-15238220D01*
X44183756Y-15363750D01*
X44192062Y-15372056D01*
X44199872Y-15385004D01*
X44205067Y-15404760D01*
X44214857Y-15422689D01*
X44217691Y-15449047D01*
X44217691Y-28111400D01*
X44198006Y-28178439D01*
X44181372Y-28199081D01*
X44127684Y-28252768D01*
X44127679Y-28252774D01*
X44055208Y-28378297D01*
X44055207Y-28378301D01*
X44017691Y-28518311D01*
X44017691Y-28663261D01*
X44055207Y-28803271D01*
X44055208Y-28803274D01*
X44127679Y-28928797D01*
X44127681Y-28928799D01*
X44127682Y-28928801D01*
X44230176Y-29031295D01*
X44230177Y-29031296D01*
X44230179Y-29031297D01*
X44355702Y-29103768D01*
X44355703Y-29103768D01*
X44355706Y-29103770D01*
X44495716Y-29141286D01*
X44495719Y-29141286D01*
X44640663Y-29141286D01*
X44640666Y-29141286D01*
X44780676Y-29103770D01*
X44906206Y-29031295D01*
X45008700Y-28928801D01*
X45081175Y-28803271D01*
X45118691Y-28663261D01*
X45118691Y-28518311D01*
X45081175Y-28378301D01*
X45015775Y-28265026D01*
X45008702Y-28252774D01*
X45008697Y-28252768D01*
X44955010Y-28199081D01*
X44921525Y-28137758D01*
X44918691Y-28111400D01*
X44918691Y-15560840D01*
X44938376Y-15493801D01*
X44957529Y-15472987D01*
X44956533Y-15471991D01*
X45005835Y-15422689D01*
X45064774Y-15363750D01*
X45137249Y-15238220D01*
X45174765Y-15098210D01*
X45174765Y-14953260D01*
X45168552Y-14930073D01*
X45170215Y-14860226D01*
X45209377Y-14802364D01*
X45273605Y-14774859D01*
X45288327Y-14773982D01*
X46739336Y-14773982D01*
X46806375Y-14793667D01*
G37*
%TD.AperFunction*%
%TA.AperFunction,Conductor*%
G36*
X41342539Y-17093642D02*
G01*
X41388294Y-17146446D01*
X41399500Y-17197957D01*
X41399500Y-18995157D01*
X41412125Y-19042273D01*
X41412580Y-19043973D01*
X41412590Y-19044013D01*
X41423384Y-19084298D01*
X41423385Y-19084299D01*
X41473593Y-19171263D01*
X41471629Y-19172396D01*
X41475636Y-19182761D01*
X41487998Y-19201996D01*
X41490912Y-19222265D01*
X41492590Y-19226604D01*
X41493021Y-19236931D01*
X41493021Y-19346022D01*
X41473336Y-19413061D01*
X41470351Y-19417305D01*
X41448898Y-19454463D01*
X41443539Y-19463748D01*
X41440965Y-19468206D01*
X41440964Y-19468207D01*
X41423387Y-19498650D01*
X41423386Y-19498653D01*
X41399500Y-19587797D01*
X41399500Y-19604456D01*
X41379815Y-19671495D01*
X41327011Y-19717250D01*
X41257853Y-19727194D01*
X41194297Y-19698169D01*
X41187819Y-19692137D01*
X38781320Y-17285638D01*
X38747835Y-17224315D01*
X38752819Y-17154623D01*
X38794691Y-17098690D01*
X38860155Y-17074273D01*
X38869001Y-17073957D01*
X41275500Y-17073957D01*
X41342539Y-17093642D01*
G37*
%TD.AperFunction*%
%TD*%
M02*
