M48
; DRILL file {KiCad 9.0.3} date 2026-09-12T01:27:39-0400
; FORMAT={-:-/ absolute / metric / decimal}
; #@! TF.CreationDate,2026-09-12T01:27:39-04:00
; #@! TF.GenerationSoftware,Kicad,Pcbnew,9.0.3
; #@! TF.FileFunction,Plated,1,2,PTH
FMAT,2
METRIC
; #@! TA.AperFunction,Plated,PTH,ViaDrill
T1C0.300
; #@! TA.AperFunction,Plated,PTH,ViaDrill
T2C0.400
; #@! TA.AperFunction,Plated,PTH,ComponentDrill
T3C0.600
; #@! TA.AperFunction,Plated,PTH,ComponentDrill
T4C0.950
; #@! TA.AperFunction,Plated,PTH,ComponentDrill
T5C1.000
; #@! TA.AperFunction,Plated,PTH,ComponentDrill
T6C2.700
%
G90
G05
T1
X4.25Y-25.0
X4.25Y-27.0
X5.0Y-28.8
X5.114Y-23.1
X6.6Y-30.4
X8.25Y-10.0
X8.8Y-14.4
X8.8Y-21.4
X9.0Y-33.0
X10.2Y-20.4
X11.0Y-26.0
X11.002Y-17.626
X13.6Y-32.2
X14.25Y-3.25
X14.25Y-39.25
X14.5Y-20.75
X14.75Y-14.25
X15.6Y-41.3
X16.0Y-26.25
X16.3Y-8.6
X18.4Y-32.1
X20.25Y-4.75
X20.5Y-13.75
X20.5Y-28.2
X20.665Y-9.184
X21.2Y-4.77
X22.0Y-40.25
X22.013Y-11.001
X22.25Y-2.75
X22.7Y-17.9
X24.06Y-36.75
X24.25Y-31.5
X25.5Y-23.9
X25.6Y-21.1
X26.0Y-41.0
X26.75Y-0.75
X27.0Y-36.75
X28.849Y-13.5
X29.0Y-37.0
X29.101Y-34.853
X29.525Y-0.62
X30.2Y-21.1
X30.2Y-23.9
X30.415Y-3.915
X31.326Y-14.924
X31.875Y-15.875
X32.25Y-5.25
X33.176Y-35.826
X33.5Y-26.2
X34.024Y-34.175
X34.062Y-35.4
X34.329Y-37.271
X34.78Y-22.48
X34.8Y-38.8
X34.9Y-36.6
X35.0Y-34.5
X35.25Y-28.5
X36.25Y-28.5
X36.5Y-19.095
X36.6Y-40.4
X36.698Y-15.826
X36.75Y-21.75
X36.755Y-0.75
X37.1Y-32.0
X37.75Y-34.75
X37.78Y-5.258
X37.78Y-7.258
X37.9Y-13.0
X38.0Y-1.75
X38.0Y-4.5
X40.9Y-10.0
X40.95Y-32.55
X41.204Y-20.65
X41.243Y-19.291
X41.4Y-5.457
X41.7Y-40.1
X41.713Y-4.418
X41.8Y-30.8
X42.2Y-8.0
X42.5Y-16.75
X42.5Y-30.25
X43.6Y-11.7
X43.64Y-21.66
X43.66Y-18.89
X43.7Y-32.36
X43.784Y-37.8
X43.8Y-8.2
X43.968Y-24.5
X44.0Y-4.75
X44.1Y-10.0
X44.568Y-28.591
X44.624Y-15.026
X45.5Y-12.25
X45.5Y-25.5
X46.25Y-7.75
X46.26Y-32.3
X46.28Y-34.92
X46.37Y-3.975
X46.37Y-3.175
X46.39Y-18.88
X46.4Y-21.6
X46.5Y-1.75
X46.5Y-6.5
X46.524Y-5.676
X48.25Y-9.75
X48.336Y-6.334
X48.574Y-37.317
X48.75Y-24.5
X48.75Y-29.25
X48.808Y-21.9
X48.96Y-35.39
X49.5Y-15.79
X49.63Y-37.62
X50.0Y-8.25
X50.25Y-27.5
X50.5Y-14.5
X50.65Y-12.85
X50.65Y-13.65
X51.5Y-24.75
X51.7Y-2.25
X51.75Y-3.25
X51.75Y-9.75
X52.25Y-7.0
X53.0Y-19.086
X53.247Y-23.32
X53.5Y-32.75
X53.926Y-36.726
X54.086Y-23.31
X54.094Y-19.059
X54.295Y-32.838
X54.75Y-36.75
T2
X47.75Y-23.25
X47.75Y-30.75
X47.75Y-36.75
X48.0Y-17.25
X56.54Y-34.02
X56.6Y-38.26
X56.63Y-20.5
X56.64Y-24.75
X56.75Y-16.5
X57.0Y-29.0
T4
X50.25Y-17.75
X50.25Y-20.25
X50.25Y-22.75
X50.25Y-31.25
X50.25Y-33.75
X50.25Y-36.25
T5
X12.51Y-7.25
X12.51Y-35.0
X15.05Y-7.25
X15.05Y-35.0
X17.59Y-7.25
X17.59Y-35.0
X20.13Y-7.25
X20.13Y-35.0
X22.67Y-7.25
X22.67Y-35.0
X25.21Y-7.25
X25.21Y-35.0
X27.75Y-7.25
X27.75Y-35.0
T6
X3.75Y-3.75
X3.75Y-38.25
X8.75Y-3.75
X8.75Y-38.25
T3
G00X3.4Y-13.57
M15
G01X2.6Y-13.57
M16
G05
G00X3.4Y-22.21
M15
G01X2.6Y-22.21
M16
G05
G00X7.73Y-13.57
M15
G01X6.63Y-13.57
M16
G05
G00X7.73Y-22.21
M15
G01X6.63Y-22.21
M16
G05
M30
