%TF.GenerationSoftware,KiCad,Pcbnew,9.0.3*%
%TF.CreationDate,2026-09-12T01:27:38-04:00*%
%TF.ProjectId,Hydra_Driver,48796472-615f-4447-9269-7665722e6b69,rev?*%
%TF.SameCoordinates,Original*%
%TF.FileFunction,Legend,Bot*%
%TF.FilePolarity,Positive*%
%FSLAX46Y46*%
G04 Gerber Fmt 4.6, Leading zero omitted, Abs format (unit mm)*
G04 Created by KiCad (PCBNEW 9.0.3) date 2026-09-12 01:27:38*
%MOMM*%
%LPD*%
G01*
G04 APERTURE LIST*
%ADD10C,0.150000*%
%ADD11C,0.300000*%
%ADD12C,0.508000*%
%ADD13C,0.120000*%
G04 APERTURE END LIST*
D10*
X48019819Y-31886779D02*
X47019819Y-31886779D01*
X47019819Y-31886779D02*
X47734104Y-32220112D01*
X47734104Y-32220112D02*
X47019819Y-32553445D01*
X47019819Y-32553445D02*
X48019819Y-32553445D01*
X47019819Y-32886779D02*
X47019819Y-33458207D01*
X48019819Y-33172493D02*
X47019819Y-33172493D01*
X48019819Y-34362969D02*
X47543628Y-34029636D01*
X48019819Y-33791541D02*
X47019819Y-33791541D01*
X47019819Y-33791541D02*
X47019819Y-34172493D01*
X47019819Y-34172493D02*
X47067438Y-34267731D01*
X47067438Y-34267731D02*
X47115057Y-34315350D01*
X47115057Y-34315350D02*
X47210295Y-34362969D01*
X47210295Y-34362969D02*
X47353152Y-34362969D01*
X47353152Y-34362969D02*
X47448390Y-34315350D01*
X47448390Y-34315350D02*
X47496009Y-34267731D01*
X47496009Y-34267731D02*
X47543628Y-34172493D01*
X47543628Y-34172493D02*
X47543628Y-33791541D01*
X47019819Y-34982017D02*
X47019819Y-35077255D01*
X47019819Y-35077255D02*
X47067438Y-35172493D01*
X47067438Y-35172493D02*
X47115057Y-35220112D01*
X47115057Y-35220112D02*
X47210295Y-35267731D01*
X47210295Y-35267731D02*
X47400771Y-35315350D01*
X47400771Y-35315350D02*
X47638866Y-35315350D01*
X47638866Y-35315350D02*
X47829342Y-35267731D01*
X47829342Y-35267731D02*
X47924580Y-35220112D01*
X47924580Y-35220112D02*
X47972200Y-35172493D01*
X47972200Y-35172493D02*
X48019819Y-35077255D01*
X48019819Y-35077255D02*
X48019819Y-34982017D01*
X48019819Y-34982017D02*
X47972200Y-34886779D01*
X47972200Y-34886779D02*
X47924580Y-34839160D01*
X47924580Y-34839160D02*
X47829342Y-34791541D01*
X47829342Y-34791541D02*
X47638866Y-34743922D01*
X47638866Y-34743922D02*
X47400771Y-34743922D01*
X47400771Y-34743922D02*
X47210295Y-34791541D01*
X47210295Y-34791541D02*
X47115057Y-34839160D01*
X47115057Y-34839160D02*
X47067438Y-34886779D01*
X47067438Y-34886779D02*
X47019819Y-34982017D01*
X48019819Y-18386779D02*
X47019819Y-18386779D01*
X47019819Y-18386779D02*
X47734104Y-18720112D01*
X47734104Y-18720112D02*
X47019819Y-19053445D01*
X47019819Y-19053445D02*
X48019819Y-19053445D01*
X47019819Y-19386779D02*
X47019819Y-19958207D01*
X48019819Y-19672493D02*
X47019819Y-19672493D01*
X48019819Y-20862969D02*
X47543628Y-20529636D01*
X48019819Y-20291541D02*
X47019819Y-20291541D01*
X47019819Y-20291541D02*
X47019819Y-20672493D01*
X47019819Y-20672493D02*
X47067438Y-20767731D01*
X47067438Y-20767731D02*
X47115057Y-20815350D01*
X47115057Y-20815350D02*
X47210295Y-20862969D01*
X47210295Y-20862969D02*
X47353152Y-20862969D01*
X47353152Y-20862969D02*
X47448390Y-20815350D01*
X47448390Y-20815350D02*
X47496009Y-20767731D01*
X47496009Y-20767731D02*
X47543628Y-20672493D01*
X47543628Y-20672493D02*
X47543628Y-20291541D01*
X48019819Y-21815350D02*
X48019819Y-21243922D01*
X48019819Y-21529636D02*
X47019819Y-21529636D01*
X47019819Y-21529636D02*
X47162676Y-21434398D01*
X47162676Y-21434398D02*
X47257914Y-21339160D01*
X47257914Y-21339160D02*
X47305533Y-21243922D01*
X20769819Y-8836779D02*
X19769819Y-8836779D01*
X19769819Y-8836779D02*
X20484104Y-9170112D01*
X20484104Y-9170112D02*
X19769819Y-9503445D01*
X19769819Y-9503445D02*
X20769819Y-9503445D01*
X20769819Y-9979636D02*
X19769819Y-9979636D01*
X20722200Y-10408207D02*
X20769819Y-10551064D01*
X20769819Y-10551064D02*
X20769819Y-10789159D01*
X20769819Y-10789159D02*
X20722200Y-10884397D01*
X20722200Y-10884397D02*
X20674580Y-10932016D01*
X20674580Y-10932016D02*
X20579342Y-10979635D01*
X20579342Y-10979635D02*
X20484104Y-10979635D01*
X20484104Y-10979635D02*
X20388866Y-10932016D01*
X20388866Y-10932016D02*
X20341247Y-10884397D01*
X20341247Y-10884397D02*
X20293628Y-10789159D01*
X20293628Y-10789159D02*
X20246009Y-10598683D01*
X20246009Y-10598683D02*
X20198390Y-10503445D01*
X20198390Y-10503445D02*
X20150771Y-10455826D01*
X20150771Y-10455826D02*
X20055533Y-10408207D01*
X20055533Y-10408207D02*
X19960295Y-10408207D01*
X19960295Y-10408207D02*
X19865057Y-10455826D01*
X19865057Y-10455826D02*
X19817438Y-10503445D01*
X19817438Y-10503445D02*
X19769819Y-10598683D01*
X19769819Y-10598683D02*
X19769819Y-10836778D01*
X19769819Y-10836778D02*
X19817438Y-10979635D01*
X19769819Y-11598683D02*
X19769819Y-11789159D01*
X19769819Y-11789159D02*
X19817438Y-11884397D01*
X19817438Y-11884397D02*
X19912676Y-11979635D01*
X19912676Y-11979635D02*
X20103152Y-12027254D01*
X20103152Y-12027254D02*
X20436485Y-12027254D01*
X20436485Y-12027254D02*
X20626961Y-11979635D01*
X20626961Y-11979635D02*
X20722200Y-11884397D01*
X20722200Y-11884397D02*
X20769819Y-11789159D01*
X20769819Y-11789159D02*
X20769819Y-11598683D01*
X20769819Y-11598683D02*
X20722200Y-11503445D01*
X20722200Y-11503445D02*
X20626961Y-11408207D01*
X20626961Y-11408207D02*
X20436485Y-11360588D01*
X20436485Y-11360588D02*
X20103152Y-11360588D01*
X20103152Y-11360588D02*
X19912676Y-11408207D01*
X19912676Y-11408207D02*
X19817438Y-11503445D01*
X19817438Y-11503445D02*
X19769819Y-11598683D01*
X23074580Y-9408207D02*
X23122200Y-9360588D01*
X23122200Y-9360588D02*
X23169819Y-9217731D01*
X23169819Y-9217731D02*
X23169819Y-9122493D01*
X23169819Y-9122493D02*
X23122200Y-8979636D01*
X23122200Y-8979636D02*
X23026961Y-8884398D01*
X23026961Y-8884398D02*
X22931723Y-8836779D01*
X22931723Y-8836779D02*
X22741247Y-8789160D01*
X22741247Y-8789160D02*
X22598390Y-8789160D01*
X22598390Y-8789160D02*
X22407914Y-8836779D01*
X22407914Y-8836779D02*
X22312676Y-8884398D01*
X22312676Y-8884398D02*
X22217438Y-8979636D01*
X22217438Y-8979636D02*
X22169819Y-9122493D01*
X22169819Y-9122493D02*
X22169819Y-9217731D01*
X22169819Y-9217731D02*
X22217438Y-9360588D01*
X22217438Y-9360588D02*
X22265057Y-9408207D01*
X23169819Y-10312969D02*
X23169819Y-9836779D01*
X23169819Y-9836779D02*
X22169819Y-9836779D01*
X23169819Y-10646303D02*
X22169819Y-10646303D01*
X23169819Y-11217731D02*
X22598390Y-10789160D01*
X22169819Y-11217731D02*
X22741247Y-10646303D01*
X18069819Y-8836779D02*
X17069819Y-8836779D01*
X17069819Y-8836779D02*
X17784104Y-9170112D01*
X17784104Y-9170112D02*
X17069819Y-9503445D01*
X17069819Y-9503445D02*
X18069819Y-9503445D01*
X17069819Y-10170112D02*
X17069819Y-10360588D01*
X17069819Y-10360588D02*
X17117438Y-10455826D01*
X17117438Y-10455826D02*
X17212676Y-10551064D01*
X17212676Y-10551064D02*
X17403152Y-10598683D01*
X17403152Y-10598683D02*
X17736485Y-10598683D01*
X17736485Y-10598683D02*
X17926961Y-10551064D01*
X17926961Y-10551064D02*
X18022200Y-10455826D01*
X18022200Y-10455826D02*
X18069819Y-10360588D01*
X18069819Y-10360588D02*
X18069819Y-10170112D01*
X18069819Y-10170112D02*
X18022200Y-10074874D01*
X18022200Y-10074874D02*
X17926961Y-9979636D01*
X17926961Y-9979636D02*
X17736485Y-9932017D01*
X17736485Y-9932017D02*
X17403152Y-9932017D01*
X17403152Y-9932017D02*
X17212676Y-9979636D01*
X17212676Y-9979636D02*
X17117438Y-10074874D01*
X17117438Y-10074874D02*
X17069819Y-10170112D01*
X18022200Y-10979636D02*
X18069819Y-11122493D01*
X18069819Y-11122493D02*
X18069819Y-11360588D01*
X18069819Y-11360588D02*
X18022200Y-11455826D01*
X18022200Y-11455826D02*
X17974580Y-11503445D01*
X17974580Y-11503445D02*
X17879342Y-11551064D01*
X17879342Y-11551064D02*
X17784104Y-11551064D01*
X17784104Y-11551064D02*
X17688866Y-11503445D01*
X17688866Y-11503445D02*
X17641247Y-11455826D01*
X17641247Y-11455826D02*
X17593628Y-11360588D01*
X17593628Y-11360588D02*
X17546009Y-11170112D01*
X17546009Y-11170112D02*
X17498390Y-11074874D01*
X17498390Y-11074874D02*
X17450771Y-11027255D01*
X17450771Y-11027255D02*
X17355533Y-10979636D01*
X17355533Y-10979636D02*
X17260295Y-10979636D01*
X17260295Y-10979636D02*
X17165057Y-11027255D01*
X17165057Y-11027255D02*
X17117438Y-11074874D01*
X17117438Y-11074874D02*
X17069819Y-11170112D01*
X17069819Y-11170112D02*
X17069819Y-11408207D01*
X17069819Y-11408207D02*
X17117438Y-11551064D01*
X18069819Y-11979636D02*
X17069819Y-11979636D01*
X28174580Y-9308207D02*
X28222200Y-9260588D01*
X28222200Y-9260588D02*
X28269819Y-9117731D01*
X28269819Y-9117731D02*
X28269819Y-9022493D01*
X28269819Y-9022493D02*
X28222200Y-8879636D01*
X28222200Y-8879636D02*
X28126961Y-8784398D01*
X28126961Y-8784398D02*
X28031723Y-8736779D01*
X28031723Y-8736779D02*
X27841247Y-8689160D01*
X27841247Y-8689160D02*
X27698390Y-8689160D01*
X27698390Y-8689160D02*
X27507914Y-8736779D01*
X27507914Y-8736779D02*
X27412676Y-8784398D01*
X27412676Y-8784398D02*
X27317438Y-8879636D01*
X27317438Y-8879636D02*
X27269819Y-9022493D01*
X27269819Y-9022493D02*
X27269819Y-9117731D01*
X27269819Y-9117731D02*
X27317438Y-9260588D01*
X27317438Y-9260588D02*
X27365057Y-9308207D01*
X28222200Y-9689160D02*
X28269819Y-9832017D01*
X28269819Y-9832017D02*
X28269819Y-10070112D01*
X28269819Y-10070112D02*
X28222200Y-10165350D01*
X28222200Y-10165350D02*
X28174580Y-10212969D01*
X28174580Y-10212969D02*
X28079342Y-10260588D01*
X28079342Y-10260588D02*
X27984104Y-10260588D01*
X27984104Y-10260588D02*
X27888866Y-10212969D01*
X27888866Y-10212969D02*
X27841247Y-10165350D01*
X27841247Y-10165350D02*
X27793628Y-10070112D01*
X27793628Y-10070112D02*
X27746009Y-9879636D01*
X27746009Y-9879636D02*
X27698390Y-9784398D01*
X27698390Y-9784398D02*
X27650771Y-9736779D01*
X27650771Y-9736779D02*
X27555533Y-9689160D01*
X27555533Y-9689160D02*
X27460295Y-9689160D01*
X27460295Y-9689160D02*
X27365057Y-9736779D01*
X27365057Y-9736779D02*
X27317438Y-9784398D01*
X27317438Y-9784398D02*
X27269819Y-9879636D01*
X27269819Y-9879636D02*
X27269819Y-10117731D01*
X27269819Y-10117731D02*
X27317438Y-10260588D01*
X28174580Y-11260588D02*
X28222200Y-11212969D01*
X28222200Y-11212969D02*
X28269819Y-11070112D01*
X28269819Y-11070112D02*
X28269819Y-10974874D01*
X28269819Y-10974874D02*
X28222200Y-10832017D01*
X28222200Y-10832017D02*
X28126961Y-10736779D01*
X28126961Y-10736779D02*
X28031723Y-10689160D01*
X28031723Y-10689160D02*
X27841247Y-10641541D01*
X27841247Y-10641541D02*
X27698390Y-10641541D01*
X27698390Y-10641541D02*
X27507914Y-10689160D01*
X27507914Y-10689160D02*
X27412676Y-10736779D01*
X27412676Y-10736779D02*
X27317438Y-10832017D01*
X27317438Y-10832017D02*
X27269819Y-10974874D01*
X27269819Y-10974874D02*
X27269819Y-11070112D01*
X27269819Y-11070112D02*
X27317438Y-11212969D01*
X27317438Y-11212969D02*
X27365057Y-11260588D01*
X28269819Y-11689160D02*
X27269819Y-11689160D01*
X28269819Y-12260588D02*
X27698390Y-11832017D01*
X27269819Y-12260588D02*
X27841247Y-11689160D01*
X25674580Y-9408207D02*
X25722200Y-9360588D01*
X25722200Y-9360588D02*
X25769819Y-9217731D01*
X25769819Y-9217731D02*
X25769819Y-9122493D01*
X25769819Y-9122493D02*
X25722200Y-8979636D01*
X25722200Y-8979636D02*
X25626961Y-8884398D01*
X25626961Y-8884398D02*
X25531723Y-8836779D01*
X25531723Y-8836779D02*
X25341247Y-8789160D01*
X25341247Y-8789160D02*
X25198390Y-8789160D01*
X25198390Y-8789160D02*
X25007914Y-8836779D01*
X25007914Y-8836779D02*
X24912676Y-8884398D01*
X24912676Y-8884398D02*
X24817438Y-8979636D01*
X24817438Y-8979636D02*
X24769819Y-9122493D01*
X24769819Y-9122493D02*
X24769819Y-9217731D01*
X24769819Y-9217731D02*
X24817438Y-9360588D01*
X24817438Y-9360588D02*
X24865057Y-9408207D01*
X25722200Y-9789160D02*
X25769819Y-9932017D01*
X25769819Y-9932017D02*
X25769819Y-10170112D01*
X25769819Y-10170112D02*
X25722200Y-10265350D01*
X25722200Y-10265350D02*
X25674580Y-10312969D01*
X25674580Y-10312969D02*
X25579342Y-10360588D01*
X25579342Y-10360588D02*
X25484104Y-10360588D01*
X25484104Y-10360588D02*
X25388866Y-10312969D01*
X25388866Y-10312969D02*
X25341247Y-10265350D01*
X25341247Y-10265350D02*
X25293628Y-10170112D01*
X25293628Y-10170112D02*
X25246009Y-9979636D01*
X25246009Y-9979636D02*
X25198390Y-9884398D01*
X25198390Y-9884398D02*
X25150771Y-9836779D01*
X25150771Y-9836779D02*
X25055533Y-9789160D01*
X25055533Y-9789160D02*
X24960295Y-9789160D01*
X24960295Y-9789160D02*
X24865057Y-9836779D01*
X24865057Y-9836779D02*
X24817438Y-9884398D01*
X24817438Y-9884398D02*
X24769819Y-9979636D01*
X24769819Y-9979636D02*
X24769819Y-10217731D01*
X24769819Y-10217731D02*
X24817438Y-10360588D01*
X24769819Y-10979636D02*
X24769819Y-11170112D01*
X24769819Y-11170112D02*
X24817438Y-11265350D01*
X24817438Y-11265350D02*
X24912676Y-11360588D01*
X24912676Y-11360588D02*
X25103152Y-11408207D01*
X25103152Y-11408207D02*
X25436485Y-11408207D01*
X25436485Y-11408207D02*
X25626961Y-11360588D01*
X25626961Y-11360588D02*
X25722200Y-11265350D01*
X25722200Y-11265350D02*
X25769819Y-11170112D01*
X25769819Y-11170112D02*
X25769819Y-10979636D01*
X25769819Y-10979636D02*
X25722200Y-10884398D01*
X25722200Y-10884398D02*
X25626961Y-10789160D01*
X25626961Y-10789160D02*
X25436485Y-10741541D01*
X25436485Y-10741541D02*
X25103152Y-10741541D01*
X25103152Y-10741541D02*
X24912676Y-10789160D01*
X24912676Y-10789160D02*
X24817438Y-10884398D01*
X24817438Y-10884398D02*
X24769819Y-10979636D01*
X24769819Y-11836779D02*
X25579342Y-11836779D01*
X25579342Y-11836779D02*
X25674580Y-11884398D01*
X25674580Y-11884398D02*
X25722200Y-11932017D01*
X25722200Y-11932017D02*
X25769819Y-12027255D01*
X25769819Y-12027255D02*
X25769819Y-12217731D01*
X25769819Y-12217731D02*
X25722200Y-12312969D01*
X25722200Y-12312969D02*
X25674580Y-12360588D01*
X25674580Y-12360588D02*
X25579342Y-12408207D01*
X25579342Y-12408207D02*
X24769819Y-12408207D01*
X24769819Y-12741541D02*
X24769819Y-13312969D01*
X25769819Y-13027255D02*
X24769819Y-13027255D01*
X12588866Y-8836779D02*
X12588866Y-9598684D01*
X12969819Y-9217731D02*
X12207914Y-9217731D01*
X11969819Y-10551064D02*
X11969819Y-10074874D01*
X11969819Y-10074874D02*
X12446009Y-10027255D01*
X12446009Y-10027255D02*
X12398390Y-10074874D01*
X12398390Y-10074874D02*
X12350771Y-10170112D01*
X12350771Y-10170112D02*
X12350771Y-10408207D01*
X12350771Y-10408207D02*
X12398390Y-10503445D01*
X12398390Y-10503445D02*
X12446009Y-10551064D01*
X12446009Y-10551064D02*
X12541247Y-10598683D01*
X12541247Y-10598683D02*
X12779342Y-10598683D01*
X12779342Y-10598683D02*
X12874580Y-10551064D01*
X12874580Y-10551064D02*
X12922200Y-10503445D01*
X12922200Y-10503445D02*
X12969819Y-10408207D01*
X12969819Y-10408207D02*
X12969819Y-10170112D01*
X12969819Y-10170112D02*
X12922200Y-10074874D01*
X12922200Y-10074874D02*
X12874580Y-10027255D01*
X11969819Y-10884398D02*
X12969819Y-11217731D01*
X12969819Y-11217731D02*
X11969819Y-11551064D01*
X14617438Y-9460588D02*
X14569819Y-9365350D01*
X14569819Y-9365350D02*
X14569819Y-9222493D01*
X14569819Y-9222493D02*
X14617438Y-9079636D01*
X14617438Y-9079636D02*
X14712676Y-8984398D01*
X14712676Y-8984398D02*
X14807914Y-8936779D01*
X14807914Y-8936779D02*
X14998390Y-8889160D01*
X14998390Y-8889160D02*
X15141247Y-8889160D01*
X15141247Y-8889160D02*
X15331723Y-8936779D01*
X15331723Y-8936779D02*
X15426961Y-8984398D01*
X15426961Y-8984398D02*
X15522200Y-9079636D01*
X15522200Y-9079636D02*
X15569819Y-9222493D01*
X15569819Y-9222493D02*
X15569819Y-9317731D01*
X15569819Y-9317731D02*
X15522200Y-9460588D01*
X15522200Y-9460588D02*
X15474580Y-9508207D01*
X15474580Y-9508207D02*
X15141247Y-9508207D01*
X15141247Y-9508207D02*
X15141247Y-9317731D01*
X15569819Y-9936779D02*
X14569819Y-9936779D01*
X14569819Y-9936779D02*
X15569819Y-10508207D01*
X15569819Y-10508207D02*
X14569819Y-10508207D01*
X15569819Y-10984398D02*
X14569819Y-10984398D01*
X14569819Y-10984398D02*
X14569819Y-11222493D01*
X14569819Y-11222493D02*
X14617438Y-11365350D01*
X14617438Y-11365350D02*
X14712676Y-11460588D01*
X14712676Y-11460588D02*
X14807914Y-11508207D01*
X14807914Y-11508207D02*
X14998390Y-11555826D01*
X14998390Y-11555826D02*
X15141247Y-11555826D01*
X15141247Y-11555826D02*
X15331723Y-11508207D01*
X15331723Y-11508207D02*
X15426961Y-11460588D01*
X15426961Y-11460588D02*
X15522200Y-11365350D01*
X15522200Y-11365350D02*
X15569819Y-11222493D01*
X15569819Y-11222493D02*
X15569819Y-10984398D01*
X28174580Y-30708207D02*
X28222200Y-30660588D01*
X28222200Y-30660588D02*
X28269819Y-30517731D01*
X28269819Y-30517731D02*
X28269819Y-30422493D01*
X28269819Y-30422493D02*
X28222200Y-30279636D01*
X28222200Y-30279636D02*
X28126961Y-30184398D01*
X28126961Y-30184398D02*
X28031723Y-30136779D01*
X28031723Y-30136779D02*
X27841247Y-30089160D01*
X27841247Y-30089160D02*
X27698390Y-30089160D01*
X27698390Y-30089160D02*
X27507914Y-30136779D01*
X27507914Y-30136779D02*
X27412676Y-30184398D01*
X27412676Y-30184398D02*
X27317438Y-30279636D01*
X27317438Y-30279636D02*
X27269819Y-30422493D01*
X27269819Y-30422493D02*
X27269819Y-30517731D01*
X27269819Y-30517731D02*
X27317438Y-30660588D01*
X27317438Y-30660588D02*
X27365057Y-30708207D01*
X28222200Y-31089160D02*
X28269819Y-31232017D01*
X28269819Y-31232017D02*
X28269819Y-31470112D01*
X28269819Y-31470112D02*
X28222200Y-31565350D01*
X28222200Y-31565350D02*
X28174580Y-31612969D01*
X28174580Y-31612969D02*
X28079342Y-31660588D01*
X28079342Y-31660588D02*
X27984104Y-31660588D01*
X27984104Y-31660588D02*
X27888866Y-31612969D01*
X27888866Y-31612969D02*
X27841247Y-31565350D01*
X27841247Y-31565350D02*
X27793628Y-31470112D01*
X27793628Y-31470112D02*
X27746009Y-31279636D01*
X27746009Y-31279636D02*
X27698390Y-31184398D01*
X27698390Y-31184398D02*
X27650771Y-31136779D01*
X27650771Y-31136779D02*
X27555533Y-31089160D01*
X27555533Y-31089160D02*
X27460295Y-31089160D01*
X27460295Y-31089160D02*
X27365057Y-31136779D01*
X27365057Y-31136779D02*
X27317438Y-31184398D01*
X27317438Y-31184398D02*
X27269819Y-31279636D01*
X27269819Y-31279636D02*
X27269819Y-31517731D01*
X27269819Y-31517731D02*
X27317438Y-31660588D01*
X28174580Y-32660588D02*
X28222200Y-32612969D01*
X28222200Y-32612969D02*
X28269819Y-32470112D01*
X28269819Y-32470112D02*
X28269819Y-32374874D01*
X28269819Y-32374874D02*
X28222200Y-32232017D01*
X28222200Y-32232017D02*
X28126961Y-32136779D01*
X28126961Y-32136779D02*
X28031723Y-32089160D01*
X28031723Y-32089160D02*
X27841247Y-32041541D01*
X27841247Y-32041541D02*
X27698390Y-32041541D01*
X27698390Y-32041541D02*
X27507914Y-32089160D01*
X27507914Y-32089160D02*
X27412676Y-32136779D01*
X27412676Y-32136779D02*
X27317438Y-32232017D01*
X27317438Y-32232017D02*
X27269819Y-32374874D01*
X27269819Y-32374874D02*
X27269819Y-32470112D01*
X27269819Y-32470112D02*
X27317438Y-32612969D01*
X27317438Y-32612969D02*
X27365057Y-32660588D01*
X28269819Y-33089160D02*
X27269819Y-33089160D01*
X28269819Y-33660588D02*
X27698390Y-33232017D01*
X27269819Y-33660588D02*
X27841247Y-33089160D01*
X25674580Y-31208207D02*
X25722200Y-31160588D01*
X25722200Y-31160588D02*
X25769819Y-31017731D01*
X25769819Y-31017731D02*
X25769819Y-30922493D01*
X25769819Y-30922493D02*
X25722200Y-30779636D01*
X25722200Y-30779636D02*
X25626961Y-30684398D01*
X25626961Y-30684398D02*
X25531723Y-30636779D01*
X25531723Y-30636779D02*
X25341247Y-30589160D01*
X25341247Y-30589160D02*
X25198390Y-30589160D01*
X25198390Y-30589160D02*
X25007914Y-30636779D01*
X25007914Y-30636779D02*
X24912676Y-30684398D01*
X24912676Y-30684398D02*
X24817438Y-30779636D01*
X24817438Y-30779636D02*
X24769819Y-30922493D01*
X24769819Y-30922493D02*
X24769819Y-31017731D01*
X24769819Y-31017731D02*
X24817438Y-31160588D01*
X24817438Y-31160588D02*
X24865057Y-31208207D01*
X25722200Y-31589160D02*
X25769819Y-31732017D01*
X25769819Y-31732017D02*
X25769819Y-31970112D01*
X25769819Y-31970112D02*
X25722200Y-32065350D01*
X25722200Y-32065350D02*
X25674580Y-32112969D01*
X25674580Y-32112969D02*
X25579342Y-32160588D01*
X25579342Y-32160588D02*
X25484104Y-32160588D01*
X25484104Y-32160588D02*
X25388866Y-32112969D01*
X25388866Y-32112969D02*
X25341247Y-32065350D01*
X25341247Y-32065350D02*
X25293628Y-31970112D01*
X25293628Y-31970112D02*
X25246009Y-31779636D01*
X25246009Y-31779636D02*
X25198390Y-31684398D01*
X25198390Y-31684398D02*
X25150771Y-31636779D01*
X25150771Y-31636779D02*
X25055533Y-31589160D01*
X25055533Y-31589160D02*
X24960295Y-31589160D01*
X24960295Y-31589160D02*
X24865057Y-31636779D01*
X24865057Y-31636779D02*
X24817438Y-31684398D01*
X24817438Y-31684398D02*
X24769819Y-31779636D01*
X24769819Y-31779636D02*
X24769819Y-32017731D01*
X24769819Y-32017731D02*
X24817438Y-32160588D01*
X25769819Y-32589160D02*
X24769819Y-32589160D01*
X25769819Y-33065350D02*
X24769819Y-33065350D01*
X24769819Y-33065350D02*
X25769819Y-33636778D01*
X25769819Y-33636778D02*
X24769819Y-33636778D01*
X23074580Y-31808207D02*
X23122200Y-31760588D01*
X23122200Y-31760588D02*
X23169819Y-31617731D01*
X23169819Y-31617731D02*
X23169819Y-31522493D01*
X23169819Y-31522493D02*
X23122200Y-31379636D01*
X23122200Y-31379636D02*
X23026961Y-31284398D01*
X23026961Y-31284398D02*
X22931723Y-31236779D01*
X22931723Y-31236779D02*
X22741247Y-31189160D01*
X22741247Y-31189160D02*
X22598390Y-31189160D01*
X22598390Y-31189160D02*
X22407914Y-31236779D01*
X22407914Y-31236779D02*
X22312676Y-31284398D01*
X22312676Y-31284398D02*
X22217438Y-31379636D01*
X22217438Y-31379636D02*
X22169819Y-31522493D01*
X22169819Y-31522493D02*
X22169819Y-31617731D01*
X22169819Y-31617731D02*
X22217438Y-31760588D01*
X22217438Y-31760588D02*
X22265057Y-31808207D01*
X23169819Y-32712969D02*
X23169819Y-32236779D01*
X23169819Y-32236779D02*
X22169819Y-32236779D01*
X23169819Y-33046303D02*
X22169819Y-33046303D01*
X23169819Y-33617731D02*
X22598390Y-33189160D01*
X22169819Y-33617731D02*
X22741247Y-33046303D01*
X20669819Y-30436779D02*
X19669819Y-30436779D01*
X19669819Y-30436779D02*
X20384104Y-30770112D01*
X20384104Y-30770112D02*
X19669819Y-31103445D01*
X19669819Y-31103445D02*
X20669819Y-31103445D01*
X20669819Y-31579636D02*
X19669819Y-31579636D01*
X20622200Y-32008207D02*
X20669819Y-32151064D01*
X20669819Y-32151064D02*
X20669819Y-32389159D01*
X20669819Y-32389159D02*
X20622200Y-32484397D01*
X20622200Y-32484397D02*
X20574580Y-32532016D01*
X20574580Y-32532016D02*
X20479342Y-32579635D01*
X20479342Y-32579635D02*
X20384104Y-32579635D01*
X20384104Y-32579635D02*
X20288866Y-32532016D01*
X20288866Y-32532016D02*
X20241247Y-32484397D01*
X20241247Y-32484397D02*
X20193628Y-32389159D01*
X20193628Y-32389159D02*
X20146009Y-32198683D01*
X20146009Y-32198683D02*
X20098390Y-32103445D01*
X20098390Y-32103445D02*
X20050771Y-32055826D01*
X20050771Y-32055826D02*
X19955533Y-32008207D01*
X19955533Y-32008207D02*
X19860295Y-32008207D01*
X19860295Y-32008207D02*
X19765057Y-32055826D01*
X19765057Y-32055826D02*
X19717438Y-32103445D01*
X19717438Y-32103445D02*
X19669819Y-32198683D01*
X19669819Y-32198683D02*
X19669819Y-32436778D01*
X19669819Y-32436778D02*
X19717438Y-32579635D01*
X19669819Y-33198683D02*
X19669819Y-33389159D01*
X19669819Y-33389159D02*
X19717438Y-33484397D01*
X19717438Y-33484397D02*
X19812676Y-33579635D01*
X19812676Y-33579635D02*
X20003152Y-33627254D01*
X20003152Y-33627254D02*
X20336485Y-33627254D01*
X20336485Y-33627254D02*
X20526961Y-33579635D01*
X20526961Y-33579635D02*
X20622200Y-33484397D01*
X20622200Y-33484397D02*
X20669819Y-33389159D01*
X20669819Y-33389159D02*
X20669819Y-33198683D01*
X20669819Y-33198683D02*
X20622200Y-33103445D01*
X20622200Y-33103445D02*
X20526961Y-33008207D01*
X20526961Y-33008207D02*
X20336485Y-32960588D01*
X20336485Y-32960588D02*
X20003152Y-32960588D01*
X20003152Y-32960588D02*
X19812676Y-33008207D01*
X19812676Y-33008207D02*
X19717438Y-33103445D01*
X19717438Y-33103445D02*
X19669819Y-33198683D01*
X18069819Y-30436779D02*
X17069819Y-30436779D01*
X17069819Y-30436779D02*
X17784104Y-30770112D01*
X17784104Y-30770112D02*
X17069819Y-31103445D01*
X17069819Y-31103445D02*
X18069819Y-31103445D01*
X17069819Y-31770112D02*
X17069819Y-31960588D01*
X17069819Y-31960588D02*
X17117438Y-32055826D01*
X17117438Y-32055826D02*
X17212676Y-32151064D01*
X17212676Y-32151064D02*
X17403152Y-32198683D01*
X17403152Y-32198683D02*
X17736485Y-32198683D01*
X17736485Y-32198683D02*
X17926961Y-32151064D01*
X17926961Y-32151064D02*
X18022200Y-32055826D01*
X18022200Y-32055826D02*
X18069819Y-31960588D01*
X18069819Y-31960588D02*
X18069819Y-31770112D01*
X18069819Y-31770112D02*
X18022200Y-31674874D01*
X18022200Y-31674874D02*
X17926961Y-31579636D01*
X17926961Y-31579636D02*
X17736485Y-31532017D01*
X17736485Y-31532017D02*
X17403152Y-31532017D01*
X17403152Y-31532017D02*
X17212676Y-31579636D01*
X17212676Y-31579636D02*
X17117438Y-31674874D01*
X17117438Y-31674874D02*
X17069819Y-31770112D01*
X18022200Y-32579636D02*
X18069819Y-32722493D01*
X18069819Y-32722493D02*
X18069819Y-32960588D01*
X18069819Y-32960588D02*
X18022200Y-33055826D01*
X18022200Y-33055826D02*
X17974580Y-33103445D01*
X17974580Y-33103445D02*
X17879342Y-33151064D01*
X17879342Y-33151064D02*
X17784104Y-33151064D01*
X17784104Y-33151064D02*
X17688866Y-33103445D01*
X17688866Y-33103445D02*
X17641247Y-33055826D01*
X17641247Y-33055826D02*
X17593628Y-32960588D01*
X17593628Y-32960588D02*
X17546009Y-32770112D01*
X17546009Y-32770112D02*
X17498390Y-32674874D01*
X17498390Y-32674874D02*
X17450771Y-32627255D01*
X17450771Y-32627255D02*
X17355533Y-32579636D01*
X17355533Y-32579636D02*
X17260295Y-32579636D01*
X17260295Y-32579636D02*
X17165057Y-32627255D01*
X17165057Y-32627255D02*
X17117438Y-32674874D01*
X17117438Y-32674874D02*
X17069819Y-32770112D01*
X17069819Y-32770112D02*
X17069819Y-33008207D01*
X17069819Y-33008207D02*
X17117438Y-33151064D01*
X18069819Y-33579636D02*
X17069819Y-33579636D01*
X14617438Y-31560588D02*
X14569819Y-31465350D01*
X14569819Y-31465350D02*
X14569819Y-31322493D01*
X14569819Y-31322493D02*
X14617438Y-31179636D01*
X14617438Y-31179636D02*
X14712676Y-31084398D01*
X14712676Y-31084398D02*
X14807914Y-31036779D01*
X14807914Y-31036779D02*
X14998390Y-30989160D01*
X14998390Y-30989160D02*
X15141247Y-30989160D01*
X15141247Y-30989160D02*
X15331723Y-31036779D01*
X15331723Y-31036779D02*
X15426961Y-31084398D01*
X15426961Y-31084398D02*
X15522200Y-31179636D01*
X15522200Y-31179636D02*
X15569819Y-31322493D01*
X15569819Y-31322493D02*
X15569819Y-31417731D01*
X15569819Y-31417731D02*
X15522200Y-31560588D01*
X15522200Y-31560588D02*
X15474580Y-31608207D01*
X15474580Y-31608207D02*
X15141247Y-31608207D01*
X15141247Y-31608207D02*
X15141247Y-31417731D01*
X15569819Y-32036779D02*
X14569819Y-32036779D01*
X14569819Y-32036779D02*
X15569819Y-32608207D01*
X15569819Y-32608207D02*
X14569819Y-32608207D01*
X15569819Y-33084398D02*
X14569819Y-33084398D01*
X14569819Y-33084398D02*
X14569819Y-33322493D01*
X14569819Y-33322493D02*
X14617438Y-33465350D01*
X14617438Y-33465350D02*
X14712676Y-33560588D01*
X14712676Y-33560588D02*
X14807914Y-33608207D01*
X14807914Y-33608207D02*
X14998390Y-33655826D01*
X14998390Y-33655826D02*
X15141247Y-33655826D01*
X15141247Y-33655826D02*
X15331723Y-33608207D01*
X15331723Y-33608207D02*
X15426961Y-33560588D01*
X15426961Y-33560588D02*
X15522200Y-33465350D01*
X15522200Y-33465350D02*
X15569819Y-33322493D01*
X15569819Y-33322493D02*
X15569819Y-33084398D01*
X12588866Y-30936779D02*
X12588866Y-31698684D01*
X12969819Y-31317731D02*
X12207914Y-31317731D01*
X11969819Y-32651064D02*
X11969819Y-32174874D01*
X11969819Y-32174874D02*
X12446009Y-32127255D01*
X12446009Y-32127255D02*
X12398390Y-32174874D01*
X12398390Y-32174874D02*
X12350771Y-32270112D01*
X12350771Y-32270112D02*
X12350771Y-32508207D01*
X12350771Y-32508207D02*
X12398390Y-32603445D01*
X12398390Y-32603445D02*
X12446009Y-32651064D01*
X12446009Y-32651064D02*
X12541247Y-32698683D01*
X12541247Y-32698683D02*
X12779342Y-32698683D01*
X12779342Y-32698683D02*
X12874580Y-32651064D01*
X12874580Y-32651064D02*
X12922200Y-32603445D01*
X12922200Y-32603445D02*
X12969819Y-32508207D01*
X12969819Y-32508207D02*
X12969819Y-32270112D01*
X12969819Y-32270112D02*
X12922200Y-32174874D01*
X12922200Y-32174874D02*
X12874580Y-32127255D01*
X11969819Y-32984398D02*
X12969819Y-33317731D01*
X12969819Y-33317731D02*
X11969819Y-33651064D01*
D11*
X29745489Y-19485912D02*
X29745489Y-17985912D01*
X29745489Y-18700198D02*
X28888346Y-18700198D01*
X28888346Y-19485912D02*
X28888346Y-17985912D01*
X28316917Y-18485912D02*
X27959774Y-19485912D01*
X27602631Y-18485912D02*
X27959774Y-19485912D01*
X27959774Y-19485912D02*
X28102631Y-19843055D01*
X28102631Y-19843055D02*
X28174060Y-19914484D01*
X28174060Y-19914484D02*
X28316917Y-19985912D01*
X26388346Y-19485912D02*
X26388346Y-17985912D01*
X26388346Y-19414484D02*
X26531203Y-19485912D01*
X26531203Y-19485912D02*
X26816917Y-19485912D01*
X26816917Y-19485912D02*
X26959774Y-19414484D01*
X26959774Y-19414484D02*
X27031203Y-19343055D01*
X27031203Y-19343055D02*
X27102631Y-19200198D01*
X27102631Y-19200198D02*
X27102631Y-18771626D01*
X27102631Y-18771626D02*
X27031203Y-18628769D01*
X27031203Y-18628769D02*
X26959774Y-18557341D01*
X26959774Y-18557341D02*
X26816917Y-18485912D01*
X26816917Y-18485912D02*
X26531203Y-18485912D01*
X26531203Y-18485912D02*
X26388346Y-18557341D01*
X25674060Y-19485912D02*
X25674060Y-18485912D01*
X25674060Y-18771626D02*
X25602631Y-18628769D01*
X25602631Y-18628769D02*
X25531203Y-18557341D01*
X25531203Y-18557341D02*
X25388345Y-18485912D01*
X25388345Y-18485912D02*
X25245488Y-18485912D01*
X24102632Y-19485912D02*
X24102632Y-18700198D01*
X24102632Y-18700198D02*
X24174060Y-18557341D01*
X24174060Y-18557341D02*
X24316917Y-18485912D01*
X24316917Y-18485912D02*
X24602632Y-18485912D01*
X24602632Y-18485912D02*
X24745489Y-18557341D01*
X24102632Y-19414484D02*
X24245489Y-19485912D01*
X24245489Y-19485912D02*
X24602632Y-19485912D01*
X24602632Y-19485912D02*
X24745489Y-19414484D01*
X24745489Y-19414484D02*
X24816917Y-19271626D01*
X24816917Y-19271626D02*
X24816917Y-19128769D01*
X24816917Y-19128769D02*
X24745489Y-18985912D01*
X24745489Y-18985912D02*
X24602632Y-18914484D01*
X24602632Y-18914484D02*
X24245489Y-18914484D01*
X24245489Y-18914484D02*
X24102632Y-18843055D01*
X22459774Y-17985912D02*
X21959774Y-19485912D01*
X21959774Y-19485912D02*
X21459774Y-17985912D01*
X21031203Y-18128769D02*
X20959775Y-18057341D01*
X20959775Y-18057341D02*
X20816918Y-17985912D01*
X20816918Y-17985912D02*
X20459775Y-17985912D01*
X20459775Y-17985912D02*
X20316918Y-18057341D01*
X20316918Y-18057341D02*
X20245489Y-18128769D01*
X20245489Y-18128769D02*
X20174060Y-18271626D01*
X20174060Y-18271626D02*
X20174060Y-18414484D01*
X20174060Y-18414484D02*
X20245489Y-18628769D01*
X20245489Y-18628769D02*
X21102632Y-19485912D01*
X21102632Y-19485912D02*
X20174060Y-19485912D01*
X28531203Y-20757971D02*
X28674060Y-20686542D01*
X28674060Y-20686542D02*
X28959774Y-20686542D01*
X28959774Y-20686542D02*
X29102632Y-20757971D01*
X29102632Y-20757971D02*
X29245489Y-20900828D01*
X29245489Y-20900828D02*
X29316917Y-21043685D01*
X29316917Y-21043685D02*
X29316917Y-21329400D01*
X29316917Y-21329400D02*
X29245489Y-21472257D01*
X29245489Y-21472257D02*
X29102632Y-21615114D01*
X29102632Y-21615114D02*
X28959774Y-21686542D01*
X28959774Y-21686542D02*
X28674060Y-21686542D01*
X28674060Y-21686542D02*
X28531203Y-21615114D01*
X28816917Y-20186542D02*
X29174060Y-20257971D01*
X29174060Y-20257971D02*
X29531203Y-20472257D01*
X29531203Y-20472257D02*
X29745489Y-20829400D01*
X29745489Y-20829400D02*
X29816917Y-21186542D01*
X29816917Y-21186542D02*
X29745489Y-21543685D01*
X29745489Y-21543685D02*
X29531203Y-21900828D01*
X29531203Y-21900828D02*
X29174060Y-22115114D01*
X29174060Y-22115114D02*
X28816917Y-22186542D01*
X28816917Y-22186542D02*
X28459774Y-22115114D01*
X28459774Y-22115114D02*
X28102632Y-21900828D01*
X28102632Y-21900828D02*
X27888346Y-21543685D01*
X27888346Y-21543685D02*
X27816917Y-21186542D01*
X27816917Y-21186542D02*
X27888346Y-20829400D01*
X27888346Y-20829400D02*
X28102632Y-20472257D01*
X28102632Y-20472257D02*
X28459774Y-20257971D01*
X28459774Y-20257971D02*
X28816917Y-20186542D01*
X26316917Y-21757971D02*
X26388345Y-21829400D01*
X26388345Y-21829400D02*
X26602631Y-21900828D01*
X26602631Y-21900828D02*
X26745488Y-21900828D01*
X26745488Y-21900828D02*
X26959774Y-21829400D01*
X26959774Y-21829400D02*
X27102631Y-21686542D01*
X27102631Y-21686542D02*
X27174060Y-21543685D01*
X27174060Y-21543685D02*
X27245488Y-21257971D01*
X27245488Y-21257971D02*
X27245488Y-21043685D01*
X27245488Y-21043685D02*
X27174060Y-20757971D01*
X27174060Y-20757971D02*
X27102631Y-20615114D01*
X27102631Y-20615114D02*
X26959774Y-20472257D01*
X26959774Y-20472257D02*
X26745488Y-20400828D01*
X26745488Y-20400828D02*
X26602631Y-20400828D01*
X26602631Y-20400828D02*
X26388345Y-20472257D01*
X26388345Y-20472257D02*
X26316917Y-20543685D01*
X24888345Y-20472257D02*
X25031203Y-20400828D01*
X25031203Y-20400828D02*
X25245488Y-20400828D01*
X25245488Y-20400828D02*
X25459774Y-20472257D01*
X25459774Y-20472257D02*
X25602631Y-20615114D01*
X25602631Y-20615114D02*
X25674060Y-20757971D01*
X25674060Y-20757971D02*
X25745488Y-21043685D01*
X25745488Y-21043685D02*
X25745488Y-21257971D01*
X25745488Y-21257971D02*
X25674060Y-21543685D01*
X25674060Y-21543685D02*
X25602631Y-21686542D01*
X25602631Y-21686542D02*
X25459774Y-21829400D01*
X25459774Y-21829400D02*
X25245488Y-21900828D01*
X25245488Y-21900828D02*
X25102631Y-21900828D01*
X25102631Y-21900828D02*
X24888345Y-21829400D01*
X24888345Y-21829400D02*
X24816917Y-21757971D01*
X24816917Y-21757971D02*
X24816917Y-21257971D01*
X24816917Y-21257971D02*
X25102631Y-21257971D01*
X23316917Y-21900828D02*
X23816917Y-21186542D01*
X24174060Y-21900828D02*
X24174060Y-20400828D01*
X24174060Y-20400828D02*
X23602631Y-20400828D01*
X23602631Y-20400828D02*
X23459774Y-20472257D01*
X23459774Y-20472257D02*
X23388345Y-20543685D01*
X23388345Y-20543685D02*
X23316917Y-20686542D01*
X23316917Y-20686542D02*
X23316917Y-20900828D01*
X23316917Y-20900828D02*
X23388345Y-21043685D01*
X23388345Y-21043685D02*
X23459774Y-21115114D01*
X23459774Y-21115114D02*
X23602631Y-21186542D01*
X23602631Y-21186542D02*
X24174060Y-21186542D01*
D10*
X29474819Y-1579285D02*
X30189104Y-1579285D01*
X30189104Y-1579285D02*
X30331961Y-1531666D01*
X30331961Y-1531666D02*
X30427200Y-1436428D01*
X30427200Y-1436428D02*
X30474819Y-1293571D01*
X30474819Y-1293571D02*
X30474819Y-1198333D01*
X30474819Y-2579285D02*
X30474819Y-2007857D01*
X30474819Y-2293571D02*
X29474819Y-2293571D01*
X29474819Y-2293571D02*
X29617676Y-2198333D01*
X29617676Y-2198333D02*
X29712914Y-2103095D01*
X29712914Y-2103095D02*
X29760533Y-2007857D01*
X30474819Y-3531666D02*
X30474819Y-2960238D01*
X30474819Y-3245952D02*
X29474819Y-3245952D01*
X29474819Y-3245952D02*
X29617676Y-3150714D01*
X29617676Y-3150714D02*
X29712914Y-3055476D01*
X29712914Y-3055476D02*
X29760533Y-2960238D01*
X29474819Y-4150714D02*
X29474819Y-4245952D01*
X29474819Y-4245952D02*
X29522438Y-4341190D01*
X29522438Y-4341190D02*
X29570057Y-4388809D01*
X29570057Y-4388809D02*
X29665295Y-4436428D01*
X29665295Y-4436428D02*
X29855771Y-4484047D01*
X29855771Y-4484047D02*
X30093866Y-4484047D01*
X30093866Y-4484047D02*
X30284342Y-4436428D01*
X30284342Y-4436428D02*
X30379580Y-4388809D01*
X30379580Y-4388809D02*
X30427200Y-4341190D01*
X30427200Y-4341190D02*
X30474819Y-4245952D01*
X30474819Y-4245952D02*
X30474819Y-4150714D01*
X30474819Y-4150714D02*
X30427200Y-4055476D01*
X30427200Y-4055476D02*
X30379580Y-4007857D01*
X30379580Y-4007857D02*
X30284342Y-3960238D01*
X30284342Y-3960238D02*
X30093866Y-3912619D01*
X30093866Y-3912619D02*
X29855771Y-3912619D01*
X29855771Y-3912619D02*
X29665295Y-3960238D01*
X29665295Y-3960238D02*
X29570057Y-4007857D01*
X29570057Y-4007857D02*
X29522438Y-4055476D01*
X29522438Y-4055476D02*
X29474819Y-4150714D01*
X29974819Y-38094285D02*
X30689104Y-38094285D01*
X30689104Y-38094285D02*
X30831961Y-38046666D01*
X30831961Y-38046666D02*
X30927200Y-37951428D01*
X30927200Y-37951428D02*
X30974819Y-37808571D01*
X30974819Y-37808571D02*
X30974819Y-37713333D01*
X30974819Y-39094285D02*
X30974819Y-38522857D01*
X30974819Y-38808571D02*
X29974819Y-38808571D01*
X29974819Y-38808571D02*
X30117676Y-38713333D01*
X30117676Y-38713333D02*
X30212914Y-38618095D01*
X30212914Y-38618095D02*
X30260533Y-38522857D01*
X29974819Y-39713333D02*
X29974819Y-39808571D01*
X29974819Y-39808571D02*
X30022438Y-39903809D01*
X30022438Y-39903809D02*
X30070057Y-39951428D01*
X30070057Y-39951428D02*
X30165295Y-39999047D01*
X30165295Y-39999047D02*
X30355771Y-40046666D01*
X30355771Y-40046666D02*
X30593866Y-40046666D01*
X30593866Y-40046666D02*
X30784342Y-39999047D01*
X30784342Y-39999047D02*
X30879580Y-39951428D01*
X30879580Y-39951428D02*
X30927200Y-39903809D01*
X30927200Y-39903809D02*
X30974819Y-39808571D01*
X30974819Y-39808571D02*
X30974819Y-39713333D01*
X30974819Y-39713333D02*
X30927200Y-39618095D01*
X30927200Y-39618095D02*
X30879580Y-39570476D01*
X30879580Y-39570476D02*
X30784342Y-39522857D01*
X30784342Y-39522857D02*
X30593866Y-39475238D01*
X30593866Y-39475238D02*
X30355771Y-39475238D01*
X30355771Y-39475238D02*
X30165295Y-39522857D01*
X30165295Y-39522857D02*
X30070057Y-39570476D01*
X30070057Y-39570476D02*
X30022438Y-39618095D01*
X30022438Y-39618095D02*
X29974819Y-39713333D01*
X29974819Y-40380000D02*
X29974819Y-40999047D01*
X29974819Y-40999047D02*
X30355771Y-40665714D01*
X30355771Y-40665714D02*
X30355771Y-40808571D01*
X30355771Y-40808571D02*
X30403390Y-40903809D01*
X30403390Y-40903809D02*
X30451009Y-40951428D01*
X30451009Y-40951428D02*
X30546247Y-40999047D01*
X30546247Y-40999047D02*
X30784342Y-40999047D01*
X30784342Y-40999047D02*
X30879580Y-40951428D01*
X30879580Y-40951428D02*
X30927200Y-40903809D01*
X30927200Y-40903809D02*
X30974819Y-40808571D01*
X30974819Y-40808571D02*
X30974819Y-40522857D01*
X30974819Y-40522857D02*
X30927200Y-40427619D01*
X30927200Y-40427619D02*
X30879580Y-40380000D01*
D12*
%TO.C,J104*%
X53329500Y-8652200D02*
G75*
G02*
X52567500Y-8652200I-381000J0D01*
G01*
X52567500Y-8652200D02*
G75*
G02*
X53329500Y-8652200I381000J0D01*
G01*
%TO.C,J107*%
X53329500Y-16152200D02*
G75*
G02*
X52567500Y-16152200I-381000J0D01*
G01*
X52567500Y-16152200D02*
G75*
G02*
X53329500Y-16152200I381000J0D01*
G01*
D13*
%TO.C,J105*%
X46240000Y-28690000D02*
X46240000Y-30110000D01*
X46240000Y-30110000D02*
X50740000Y-30110000D01*
X46240000Y-37390000D02*
X50740000Y-37390000D01*
X46240000Y-38810000D02*
X46240000Y-37390000D01*
X48150000Y-30950000D02*
X48150000Y-31550000D01*
X48150000Y-31550000D02*
X48750000Y-31250000D01*
X48750000Y-31250000D02*
X48150000Y-30950000D01*
X51850000Y-31000000D02*
X57350000Y-31000000D01*
X51850000Y-31500000D02*
X51850000Y-31000000D01*
X51850000Y-33500000D02*
X57350000Y-33500000D01*
X51850000Y-34000000D02*
X51850000Y-33500000D01*
X51850000Y-36000000D02*
X57350000Y-36000000D01*
X51850000Y-36500000D02*
X51850000Y-36000000D01*
X57350000Y-31000000D02*
X57350000Y-31500000D01*
X57350000Y-31500000D02*
X51850000Y-31500000D01*
X57350000Y-33500000D02*
X57350000Y-34000000D01*
X57350000Y-34000000D02*
X51850000Y-34000000D01*
X57350000Y-36000000D02*
X57350000Y-36500000D01*
X57350000Y-36500000D02*
X51850000Y-36500000D01*
X57960000Y-28690000D02*
X46240000Y-28690000D01*
X57960000Y-33750000D02*
X57960000Y-28690000D01*
X57960000Y-33750000D02*
X57960000Y-38810000D01*
X57960000Y-38810000D02*
X46240000Y-38810000D01*
%TO.C,J108*%
X46240000Y-15190000D02*
X46240000Y-16610000D01*
X46240000Y-16610000D02*
X50740000Y-16610000D01*
X46240000Y-23890000D02*
X50740000Y-23890000D01*
X46240000Y-25310000D02*
X46240000Y-23890000D01*
X48150000Y-17450000D02*
X48150000Y-18050000D01*
X48150000Y-18050000D02*
X48750000Y-17750000D01*
X48750000Y-17750000D02*
X48150000Y-17450000D01*
X51850000Y-17500000D02*
X57350000Y-17500000D01*
X51850000Y-18000000D02*
X51850000Y-17500000D01*
X51850000Y-20000000D02*
X57350000Y-20000000D01*
X51850000Y-20500000D02*
X51850000Y-20000000D01*
X51850000Y-22500000D02*
X57350000Y-22500000D01*
X51850000Y-23000000D02*
X51850000Y-22500000D01*
X57350000Y-17500000D02*
X57350000Y-18000000D01*
X57350000Y-18000000D02*
X51850000Y-18000000D01*
X57350000Y-20000000D02*
X57350000Y-20500000D01*
X57350000Y-20500000D02*
X51850000Y-20500000D01*
X57350000Y-22500000D02*
X57350000Y-23000000D01*
X57350000Y-23000000D02*
X51850000Y-23000000D01*
X57960000Y-15190000D02*
X46240000Y-15190000D01*
X57960000Y-20250000D02*
X57960000Y-15190000D01*
X57960000Y-20250000D02*
X57960000Y-25310000D01*
X57960000Y-25310000D02*
X46240000Y-25310000D01*
%TO.C,J110*%
X11130000Y-3100000D02*
X29130000Y-3100000D01*
X11130000Y-5860000D02*
X11130000Y-3100000D01*
X12080000Y2900000D02*
X12080000Y-3100000D01*
X12080000Y-6172642D02*
X12080000Y-5860000D01*
X12940000Y2900000D02*
X12080000Y2900000D01*
X12940000Y-3100000D02*
X12940000Y2900000D01*
X12940000Y-6172642D02*
X12940000Y-5860000D01*
X13780000Y-5860000D02*
X13780000Y-3100000D01*
X14620000Y2900000D02*
X14620000Y-3100000D01*
X14620000Y-6172642D02*
X14620000Y-5860000D01*
X15480000Y2900000D02*
X14620000Y2900000D01*
X15480000Y-3100000D02*
X15480000Y2900000D01*
X15480000Y-6172642D02*
X15480000Y-5860000D01*
X16320000Y-5860000D02*
X16320000Y-3100000D01*
X17160000Y2900000D02*
X17160000Y-3100000D01*
X17160000Y-6172642D02*
X17160000Y-5860000D01*
X18020000Y2900000D02*
X17160000Y2900000D01*
X18020000Y-3100000D02*
X18020000Y2900000D01*
X18020000Y-6172642D02*
X18020000Y-5860000D01*
X18860000Y-5860000D02*
X18860000Y-3100000D01*
X19700000Y2900000D02*
X19700000Y-3100000D01*
X19700000Y-6172642D02*
X19700000Y-5860000D01*
X20560000Y2900000D02*
X19700000Y2900000D01*
X20560000Y-3100000D02*
X20560000Y2900000D01*
X20560000Y-6172642D02*
X20560000Y-5860000D01*
X21400000Y-5860000D02*
X21400000Y-3100000D01*
X22240000Y2900000D02*
X22240000Y-3100000D01*
X22240000Y-6172642D02*
X22240000Y-5860000D01*
X23100000Y2900000D02*
X22240000Y2900000D01*
X23100000Y-3100000D02*
X23100000Y2900000D01*
X23100000Y-6172642D02*
X23100000Y-5860000D01*
X23940000Y-5860000D02*
X23940000Y-3100000D01*
X24780000Y2900000D02*
X24780000Y-3100000D01*
X24780000Y-6172642D02*
X24780000Y-5860000D01*
X25640000Y2900000D02*
X24780000Y2900000D01*
X25640000Y-3100000D02*
X25640000Y2900000D01*
X25640000Y-6172642D02*
X25640000Y-5860000D01*
X26480000Y-5860000D02*
X26480000Y-3100000D01*
X27320000Y-6090000D02*
X27320000Y-5860000D01*
X27750000Y-8520000D02*
X29020000Y-8520000D01*
X28180000Y-6090000D02*
X28180000Y-5860000D01*
X29020000Y-8520000D02*
X29020000Y-7250000D01*
X29130000Y-3100000D02*
X29130000Y-5860000D01*
X29130000Y-5860000D02*
X11130000Y-5860000D01*
X28180000Y-3100000D02*
X27320000Y-3100000D01*
X27320000Y2900000D01*
X28180000Y2900000D01*
X28180000Y-3100000D01*
G36*
X28180000Y-3100000D02*
G01*
X27320000Y-3100000D01*
X27320000Y2900000D01*
X28180000Y2900000D01*
X28180000Y-3100000D01*
G37*
%TO.C,J103*%
X11180000Y-45090000D02*
X11180000Y-36460000D01*
X12150000Y-36460000D02*
X12150000Y-36050000D01*
X12870000Y-36460000D02*
X12870000Y-36050000D01*
X13780000Y-45090000D02*
X13780000Y-36460000D01*
X14690000Y-36460000D02*
X14690000Y-36050000D01*
X15410000Y-36460000D02*
X15410000Y-36050000D01*
X16320000Y-45090000D02*
X16320000Y-36460000D01*
X17230000Y-36460000D02*
X17230000Y-36050000D01*
X17950000Y-36460000D02*
X17950000Y-36050000D01*
X18860000Y-45090000D02*
X18860000Y-36460000D01*
X19770000Y-36460000D02*
X19770000Y-36050000D01*
X20490000Y-36460000D02*
X20490000Y-36050000D01*
X21400000Y-45090000D02*
X21400000Y-36460000D01*
X22310000Y-36460000D02*
X22310000Y-36050000D01*
X23030000Y-36460000D02*
X23030000Y-36050000D01*
X23940000Y-45090000D02*
X23940000Y-36460000D01*
X24850000Y-36460000D02*
X24850000Y-36050000D01*
X25570000Y-36460000D02*
X25570000Y-36050000D01*
X26480000Y-45090000D02*
X26480000Y-36460000D01*
X26598100Y-45090000D02*
X26598100Y-36460000D01*
X26716195Y-45090000D02*
X26716195Y-36460000D01*
X26834290Y-45090000D02*
X26834290Y-36460000D01*
X26952385Y-45090000D02*
X26952385Y-36460000D01*
X27070480Y-45090000D02*
X27070480Y-36460000D01*
X27188575Y-45090000D02*
X27188575Y-36460000D01*
X27306670Y-45090000D02*
X27306670Y-36460000D01*
X27390000Y-36460000D02*
X27390000Y-36110000D01*
X27424765Y-45090000D02*
X27424765Y-36460000D01*
X27542860Y-45090000D02*
X27542860Y-36460000D01*
X27660955Y-45090000D02*
X27660955Y-36460000D01*
X27779050Y-45090000D02*
X27779050Y-36460000D01*
X27897145Y-45090000D02*
X27897145Y-36460000D01*
X28015240Y-45090000D02*
X28015240Y-36460000D01*
X28110000Y-36460000D02*
X28110000Y-36110000D01*
X28133335Y-45090000D02*
X28133335Y-36460000D01*
X28251430Y-45090000D02*
X28251430Y-36460000D01*
X28369525Y-45090000D02*
X28369525Y-36460000D01*
X28487620Y-45090000D02*
X28487620Y-36460000D01*
X28605715Y-45090000D02*
X28605715Y-36460000D01*
X28723810Y-45090000D02*
X28723810Y-36460000D01*
X28841905Y-45090000D02*
X28841905Y-36460000D01*
X28960000Y-45090000D02*
X28960000Y-36460000D01*
X29080000Y-33890000D02*
X27750000Y-33890000D01*
X29080000Y-35000000D02*
X29080000Y-33890000D01*
X29080000Y-36460000D02*
X11180000Y-36460000D01*
X29080000Y-45090000D02*
X11180000Y-45090000D01*
X29080000Y-45090000D02*
X29080000Y-36460000D01*
%TD*%
M02*
