%TF.GenerationSoftware,KiCad,Pcbnew,9.0.3*%
%TF.CreationDate,2026-09-12T01:27:38-04:00*%
%TF.ProjectId,Hydra_Driver,48796472-615f-4447-9269-7665722e6b69,rev?*%
%TF.SameCoordinates,Original*%
%TF.FileFunction,Soldermask,Top*%
%TF.FilePolarity,Negative*%
%FSLAX46Y46*%
G04 Gerber Fmt 4.6, Leading zero omitted, Abs format (unit mm)*
G04 Created by KiCad (PCBNEW 9.0.3) date 2026-09-12 01:27:38*
%MOMM*%
%LPD*%
G01*
G04 APERTURE LIST*
G04 Aperture macros list*
%AMRoundRect*
0 Rectangle with rounded corners*
0 $1 Rounding radius*
0 $2 $3 $4 $5 $6 $7 $8 $9 X,Y pos of 4 corners*
0 Add a 4 corners polygon primitive as box body*
4,1,4,$2,$3,$4,$5,$6,$7,$8,$9,$2,$3,0*
0 Add four circle primitives for the rounded corners*
1,1,$1+$1,$2,$3*
1,1,$1+$1,$4,$5*
1,1,$1+$1,$6,$7*
1,1,$1+$1,$8,$9*
0 Add four rect primitives between the rounded corners*
20,1,$1+$1,$2,$3,$4,$5,0*
20,1,$1+$1,$4,$5,$6,$7,0*
20,1,$1+$1,$6,$7,$8,$9,0*
20,1,$1+$1,$8,$9,$2,$3,0*%
G04 Aperture macros list end*
%ADD10R,1.803400X1.193800*%
%ADD11R,1.549400X0.609600*%
%ADD12RoundRect,0.135000X-0.135000X-0.185000X0.135000X-0.185000X0.135000X0.185000X-0.135000X0.185000X0*%
%ADD13R,0.900000X1.500000*%
%ADD14R,1.500000X0.900000*%
%ADD15R,0.900000X0.900000*%
%ADD16RoundRect,0.140000X0.170000X-0.140000X0.170000X0.140000X-0.170000X0.140000X-0.170000X-0.140000X0*%
%ADD17RoundRect,0.218750X0.218750X0.256250X-0.218750X0.256250X-0.218750X-0.256250X0.218750X-0.256250X0*%
%ADD18RoundRect,0.140000X0.140000X0.170000X-0.140000X0.170000X-0.140000X-0.170000X0.140000X-0.170000X0*%
%ADD19RoundRect,0.760000X1.140000X1.140000X-1.140000X1.140000X-1.140000X-1.140000X1.140000X-1.140000X0*%
%ADD20C,4.000000*%
%ADD21R,1.320800X0.508000*%
%ADD22RoundRect,0.250000X-0.312500X-0.625000X0.312500X-0.625000X0.312500X0.625000X-0.312500X0.625000X0*%
%ADD23RoundRect,0.135000X0.135000X0.185000X-0.135000X0.185000X-0.135000X-0.185000X0.135000X-0.185000X0*%
%ADD24RoundRect,0.140000X-0.170000X0.140000X-0.170000X-0.140000X0.170000X-0.140000X0.170000X0.140000X0*%
%ADD25RoundRect,0.140000X-0.140000X-0.170000X0.140000X-0.170000X0.140000X0.170000X-0.140000X0.170000X0*%
%ADD26RoundRect,0.112500X-0.112500X0.187500X-0.112500X-0.187500X0.112500X-0.187500X0.112500X0.187500X0*%
%ADD27R,1.473200X0.558800*%
%ADD28C,0.650000*%
%ADD29R,1.150000X0.600000*%
%ADD30R,1.150000X0.300000*%
%ADD31O,2.304000X1.204000*%
%ADD32O,2.004000X1.204000*%
%ADD33RoundRect,0.250000X0.475000X-0.250000X0.475000X0.250000X-0.475000X0.250000X-0.475000X-0.250000X0*%
%ADD34RoundRect,0.102000X-0.400000X-0.850000X0.400000X-0.850000X0.400000X0.850000X-0.400000X0.850000X0*%
%ADD35R,0.300000X0.900000*%
%ADD36R,0.900000X0.300000*%
%ADD37R,4.500000X4.500000*%
%ADD38RoundRect,0.250000X0.250000X0.475000X-0.250000X0.475000X-0.250000X-0.475000X0.250000X-0.475000X0*%
%ADD39RoundRect,0.135000X0.185000X-0.135000X0.185000X0.135000X-0.185000X0.135000X-0.185000X-0.135000X0*%
%ADD40C,2.200000*%
%ADD41RoundRect,0.250000X-0.250000X-0.475000X0.250000X-0.475000X0.250000X0.475000X-0.250000X0.475000X0*%
%ADD42RoundRect,0.150000X0.512500X0.150000X-0.512500X0.150000X-0.512500X-0.150000X0.512500X-0.150000X0*%
%ADD43R,1.473200X0.355600*%
%ADD44RoundRect,0.250000X-0.725000X0.600000X-0.725000X-0.600000X0.725000X-0.600000X0.725000X0.600000X0*%
%ADD45O,1.950000X1.700000*%
%ADD46R,1.700000X1.700000*%
%ADD47C,1.700000*%
G04 APERTURE END LIST*
D10*
%TO.C,J104*%
X56773499Y-950001D03*
X56773499Y-6549999D03*
D11*
X52948500Y-2250000D03*
X52948500Y-3250001D03*
X52948500Y-4249999D03*
X52948500Y-5250000D03*
%TD*%
D12*
%TO.C,R102*%
X9600000Y-16750000D03*
X10620000Y-16750000D03*
%TD*%
D13*
%TO.C,IC101*%
X20180000Y-29750000D03*
X21450000Y-29750000D03*
X22720000Y-29750000D03*
X23990000Y-29750000D03*
X25260000Y-29750000D03*
X26530000Y-29750000D03*
X27800000Y-29750000D03*
X29070000Y-29750000D03*
X30340000Y-29750000D03*
X31610000Y-29750000D03*
X32880000Y-29750000D03*
X34150000Y-29750000D03*
X35420000Y-29750000D03*
X36690000Y-29750000D03*
D14*
X37940000Y-27985000D03*
X37940000Y-26715000D03*
X37940000Y-25445000D03*
X37940000Y-24175000D03*
X37940000Y-22905000D03*
X37940000Y-21635000D03*
X37940000Y-20365000D03*
X37940000Y-19095000D03*
X37940000Y-17825000D03*
X37940000Y-16555000D03*
X37940000Y-15285000D03*
X37940000Y-14015000D03*
D13*
X36690000Y-12250000D03*
X35420000Y-12250000D03*
X34150000Y-12250000D03*
X32880000Y-12250000D03*
X31610000Y-12250000D03*
X30340000Y-12250000D03*
X29070000Y-12250000D03*
X27800000Y-12250000D03*
X26530000Y-12250000D03*
X25260000Y-12250000D03*
X23990000Y-12250000D03*
X22720000Y-12250000D03*
X21450000Y-12250000D03*
X20180000Y-12250000D03*
D15*
X27900000Y-22500000D03*
X27900000Y-21100000D03*
X26500000Y-21100000D03*
X26500000Y-22500000D03*
X26500000Y-23900000D03*
X27900000Y-23900000D03*
X29300000Y-23900000D03*
X29300000Y-22500000D03*
X29300000Y-21100000D03*
%TD*%
D16*
%TO.C,C111*%
X26654600Y-2480000D03*
X26654600Y-1520000D03*
%TD*%
%TO.C,C109*%
X36904600Y-2450000D03*
X36904600Y-1490000D03*
%TD*%
D12*
%TO.C,R207*%
X41750000Y-24900000D03*
X42770000Y-24900000D03*
%TD*%
D11*
%TO.C,J107*%
X52948500Y-12750000D03*
X52948500Y-11749999D03*
X52948500Y-10750001D03*
X52948500Y-9750000D03*
D10*
X56773499Y-14049999D03*
X56773499Y-8450001D03*
%TD*%
D12*
%TO.C,R206*%
X56240000Y-32000000D03*
X57260000Y-32000000D03*
%TD*%
D17*
%TO.C,D201*%
X43575000Y-26400000D03*
X42000000Y-26400000D03*
%TD*%
D18*
%TO.C,C307*%
X47960000Y-24500000D03*
X47000000Y-24500000D03*
%TD*%
D12*
%TO.C,R311*%
X44980000Y-13150000D03*
X46000000Y-13150000D03*
%TD*%
D19*
%TO.C,J102*%
X8750000Y-38250000D03*
D20*
X3750000Y-38250000D03*
%TD*%
D18*
%TO.C,C105*%
X6035000Y-28000000D03*
X5075000Y-28000000D03*
%TD*%
D21*
%TO.C,U102*%
X33045400Y-3200001D03*
X33045400Y-2250000D03*
X33045400Y-1299999D03*
X30454600Y-1299999D03*
X30454600Y-3200001D03*
%TD*%
D16*
%TO.C,C308*%
X47420000Y-6210000D03*
X47420000Y-5250000D03*
%TD*%
D22*
%TO.C,R214*%
X52537500Y-30000000D03*
X55462500Y-30000000D03*
%TD*%
D23*
%TO.C,R305*%
X53120000Y-18250000D03*
X52100000Y-18250000D03*
%TD*%
D24*
%TO.C,C110*%
X21500000Y-38520000D03*
X21500000Y-39480000D03*
%TD*%
D12*
%TO.C,R208*%
X41750000Y-27900000D03*
X42770000Y-27900000D03*
%TD*%
D25*
%TO.C,C102*%
X19290000Y-32500000D03*
X20250000Y-32500000D03*
%TD*%
D26*
%TO.C,D101*%
X10250000Y-13500000D03*
X10250000Y-15600000D03*
%TD*%
D23*
%TO.C,R203*%
X53120000Y-36000000D03*
X52100000Y-36000000D03*
%TD*%
D12*
%TO.C,R105*%
X5015000Y-24900000D03*
X6035000Y-24900000D03*
%TD*%
D25*
%TO.C,C113*%
X24020000Y-41000000D03*
X24980000Y-41000000D03*
%TD*%
D12*
%TO.C,R211*%
X44730000Y-26500000D03*
X45750000Y-26500000D03*
%TD*%
D22*
%TO.C,R313*%
X52537500Y-20500000D03*
X55462500Y-20500000D03*
%TD*%
D27*
%TO.C,U103*%
X26443800Y-39450001D03*
X26443800Y-38500000D03*
X26443800Y-37549999D03*
X24056200Y-37549999D03*
X24056200Y-39450001D03*
%TD*%
D28*
%TO.C,J101*%
X6680000Y-15000000D03*
X6680000Y-20780000D03*
D29*
X7755000Y-14690000D03*
X7755000Y-15490000D03*
D30*
X7755000Y-16640000D03*
X7755000Y-17640000D03*
X7755000Y-18140000D03*
X7755000Y-19140000D03*
D29*
X7755000Y-21090000D03*
X7755000Y-20290000D03*
D30*
X7755000Y-19640000D03*
X7755000Y-18640000D03*
X7755000Y-17140000D03*
X7755000Y-16140000D03*
D31*
X7180000Y-13570000D03*
X7180000Y-22210000D03*
D32*
X3000000Y-13570000D03*
X3000000Y-22210000D03*
%TD*%
D18*
%TO.C,C309*%
X47960000Y-16000000D03*
X47000000Y-16000000D03*
%TD*%
%TO.C,C201*%
X45740000Y-37900000D03*
X44780000Y-37900000D03*
%TD*%
D12*
%TO.C,R110*%
X27490000Y-32100000D03*
X28510000Y-32100000D03*
%TD*%
D18*
%TO.C,C302*%
X47500000Y-25500000D03*
X46540000Y-25500000D03*
%TD*%
D33*
%TO.C,C112*%
X28404600Y-2950000D03*
X28404600Y-1050000D03*
%TD*%
D34*
%TO.C,SW102*%
X15300000Y-39000000D03*
X18700000Y-39000000D03*
%TD*%
D35*
%TO.C,IC201*%
X43000000Y-36550000D03*
X43500000Y-36550000D03*
X44000000Y-36550000D03*
X44500000Y-36550000D03*
X45000000Y-36550000D03*
X45500000Y-36550000D03*
X46000000Y-36550000D03*
X46500000Y-36550000D03*
X47000000Y-36550000D03*
D36*
X47900000Y-35650000D03*
X47900000Y-35150000D03*
X47900000Y-34650000D03*
X47900000Y-34150000D03*
X47900000Y-33650000D03*
X47900000Y-33150000D03*
X47900000Y-32650000D03*
X47900000Y-32150000D03*
X47900000Y-31650000D03*
D35*
X47000000Y-30750000D03*
X46500000Y-30750000D03*
X46000000Y-30750000D03*
X45500000Y-30750000D03*
X45000000Y-30750000D03*
X44500000Y-30750000D03*
X44000000Y-30750000D03*
X43500000Y-30750000D03*
X43000000Y-30750000D03*
D36*
X42100000Y-31650000D03*
X42100000Y-32150000D03*
X42100000Y-32650000D03*
X42100000Y-33150000D03*
X42100000Y-33650000D03*
X42100000Y-34150000D03*
X42100000Y-34650000D03*
X42100000Y-35150000D03*
X42100000Y-35650000D03*
D37*
X45000000Y-33650000D03*
%TD*%
D23*
%TO.C,R301*%
X53120000Y-26750000D03*
X52100000Y-26750000D03*
%TD*%
D18*
%TO.C,C305*%
X55230000Y-18250000D03*
X54270000Y-18250000D03*
%TD*%
D22*
%TO.C,R213*%
X52537500Y-34000000D03*
X55462500Y-34000000D03*
%TD*%
D17*
%TO.C,D301*%
X43575000Y-13150000D03*
X42000000Y-13150000D03*
%TD*%
D12*
%TO.C,R104*%
X5015000Y-26900000D03*
X6035000Y-26900000D03*
%TD*%
D18*
%TO.C,C203*%
X55230000Y-40250000D03*
X54270000Y-40250000D03*
%TD*%
%TO.C,C210*%
X45710000Y-29400000D03*
X44750000Y-29400000D03*
%TD*%
D38*
%TO.C,C206*%
X49250000Y-27400000D03*
X47350000Y-27400000D03*
%TD*%
D39*
%TO.C,R107*%
X20250000Y-39510000D03*
X20250000Y-38490000D03*
%TD*%
D34*
%TO.C,SW101*%
X15300000Y-3250000D03*
X18700000Y-3250000D03*
%TD*%
D18*
%TO.C,C209*%
X47960000Y-29400000D03*
X47000000Y-29400000D03*
%TD*%
D17*
%TO.C,D103*%
X34704599Y-7250000D03*
X33129599Y-7250000D03*
%TD*%
D23*
%TO.C,R303*%
X53120000Y-22500000D03*
X52100000Y-22500000D03*
%TD*%
D40*
%TO.C,REF\u002A\u002A*%
X49250000Y-2750000D03*
%TD*%
D35*
%TO.C,IC301*%
X43000000Y-23150000D03*
X43500000Y-23150000D03*
X44000000Y-23150000D03*
X44500000Y-23150000D03*
X45000000Y-23150000D03*
X45500000Y-23150000D03*
X46000000Y-23150000D03*
X46500000Y-23150000D03*
X47000000Y-23150000D03*
D36*
X47900000Y-22250000D03*
X47900000Y-21750000D03*
X47900000Y-21250000D03*
X47900000Y-20750000D03*
X47900000Y-20250000D03*
X47900000Y-19750000D03*
X47900000Y-19250000D03*
X47900000Y-18750000D03*
X47900000Y-18250000D03*
D35*
X47000000Y-17350000D03*
X46500000Y-17350000D03*
X46000000Y-17350000D03*
X45500000Y-17350000D03*
X45000000Y-17350000D03*
X44500000Y-17350000D03*
X44000000Y-17350000D03*
X43500000Y-17350000D03*
X43000000Y-17350000D03*
D36*
X42100000Y-18250000D03*
X42100000Y-18750000D03*
X42100000Y-19250000D03*
X42100000Y-19750000D03*
X42100000Y-20250000D03*
X42100000Y-20750000D03*
X42100000Y-21250000D03*
X42100000Y-21750000D03*
X42100000Y-22250000D03*
D37*
X45000000Y-20250000D03*
%TD*%
D12*
%TO.C,R108*%
X35934599Y-5250000D03*
X36954599Y-5250000D03*
%TD*%
D19*
%TO.C,J109*%
X8750000Y-3750000D03*
D20*
X3750000Y-3750000D03*
%TD*%
D22*
%TO.C,R314*%
X52537500Y-16500000D03*
X55462500Y-16500000D03*
%TD*%
D18*
%TO.C,C202*%
X47500000Y-38900000D03*
X46540000Y-38900000D03*
%TD*%
%TO.C,C301*%
X45750000Y-24500000D03*
X44790000Y-24500000D03*
%TD*%
D39*
%TO.C,R106*%
X21500000Y-3760000D03*
X21500000Y-2740000D03*
%TD*%
D18*
%TO.C,C207*%
X47960000Y-37900000D03*
X47000000Y-37900000D03*
%TD*%
D12*
%TO.C,R103*%
X9200000Y-19600000D03*
X10220000Y-19600000D03*
%TD*%
%TO.C,R109*%
X35954599Y-7250000D03*
X36974599Y-7250000D03*
%TD*%
D18*
%TO.C,C303*%
X55230000Y-26750000D03*
X54270000Y-26750000D03*
%TD*%
D23*
%TO.C,R309*%
X42770000Y-16000000D03*
X41750000Y-16000000D03*
%TD*%
D39*
%TO.C,R310*%
X43750000Y-16020000D03*
X43750000Y-15000000D03*
%TD*%
D40*
%TO.C,REF\u002A\u002A*%
X40000000Y-39250000D03*
%TD*%
D12*
%TO.C,R306*%
X56240000Y-18250000D03*
X57260000Y-18250000D03*
%TD*%
D33*
%TO.C,C108*%
X35154600Y-2950000D03*
X35154600Y-1050000D03*
%TD*%
D12*
%TO.C,R302*%
X56240000Y-26750000D03*
X57260000Y-26750000D03*
%TD*%
%TO.C,R101*%
X21230000Y-32500000D03*
X22250000Y-32500000D03*
%TD*%
D23*
%TO.C,R201*%
X53120000Y-40250000D03*
X52100000Y-40250000D03*
%TD*%
D12*
%TO.C,R202*%
X56240000Y-40250000D03*
X57260000Y-40250000D03*
%TD*%
D18*
%TO.C,C205*%
X55230000Y-32000000D03*
X54270000Y-32000000D03*
%TD*%
D23*
%TO.C,R209*%
X42770000Y-29400000D03*
X41750000Y-29400000D03*
%TD*%
D12*
%TO.C,R204*%
X56240000Y-36000000D03*
X57260000Y-36000000D03*
%TD*%
%TO.C,R304*%
X56240000Y-22500000D03*
X57260000Y-22500000D03*
%TD*%
D41*
%TO.C,C103*%
X14850000Y-32500000D03*
X16750000Y-32500000D03*
%TD*%
D24*
%TO.C,C107*%
X20250000Y-2770000D03*
X20250000Y-3730000D03*
%TD*%
D25*
%TO.C,C101*%
X23250000Y-32500000D03*
X24210000Y-32500000D03*
%TD*%
D23*
%TO.C,R205*%
X53120000Y-32000000D03*
X52100000Y-32000000D03*
%TD*%
D12*
%TO.C,R308*%
X41730000Y-14650000D03*
X42750000Y-14650000D03*
%TD*%
D22*
%TO.C,R212*%
X52537500Y-38250000D03*
X55462500Y-38250000D03*
%TD*%
D40*
%TO.C,REF\u002A\u002A*%
X4000000Y-9750000D03*
%TD*%
D22*
%TO.C,R312*%
X52537500Y-24750000D03*
X55462500Y-24750000D03*
%TD*%
D17*
%TO.C,D102*%
X34704599Y-5250000D03*
X33129599Y-5250000D03*
%TD*%
D38*
%TO.C,C306*%
X49250000Y-14000000D03*
X47350000Y-14000000D03*
%TD*%
D42*
%TO.C,U101*%
X9835000Y-26900000D03*
X9835000Y-25950000D03*
X9835000Y-25000000D03*
X7560000Y-25000000D03*
X7560000Y-25950000D03*
X7560000Y-26900000D03*
%TD*%
D43*
%TO.C,U201*%
X36171000Y-39675000D03*
X36171000Y-39024999D03*
X36171000Y-38375001D03*
X36171000Y-37724999D03*
X36171000Y-37075001D03*
X36171000Y-36425002D03*
X36171000Y-35775001D03*
X36171000Y-35125002D03*
X36171000Y-34475001D03*
X36171000Y-33825002D03*
X30329000Y-33825000D03*
X30329000Y-34474998D03*
X30329000Y-35124999D03*
X30329000Y-35774998D03*
X30329000Y-36424999D03*
X30329000Y-37074998D03*
X30329000Y-37724999D03*
X30329000Y-38374998D03*
X30329000Y-39024999D03*
X30329000Y-39674998D03*
%TD*%
D12*
%TO.C,R307*%
X41730000Y-11650000D03*
X42750000Y-11650000D03*
%TD*%
D24*
%TO.C,C208*%
X37750000Y-35770000D03*
X37750000Y-36730000D03*
%TD*%
D18*
%TO.C,C106*%
X5960000Y-23800000D03*
X5000000Y-23800000D03*
%TD*%
D41*
%TO.C,C104*%
X7600000Y-30000000D03*
X9500000Y-30000000D03*
%TD*%
D39*
%TO.C,R210*%
X43750000Y-29420000D03*
X43750000Y-28400000D03*
%TD*%
D18*
%TO.C,C204*%
X55230000Y-36000000D03*
X54270000Y-36000000D03*
%TD*%
D43*
%TO.C,U301*%
X45171000Y-7175000D03*
X45171000Y-6524999D03*
X45171000Y-5875001D03*
X45171000Y-5224999D03*
X45171000Y-4575001D03*
X45171000Y-3925002D03*
X45171000Y-3275001D03*
X45171000Y-2625002D03*
X45171000Y-1975001D03*
X45171000Y-1325002D03*
X39329000Y-1325000D03*
X39329000Y-1974998D03*
X39329000Y-2624999D03*
X39329000Y-3274998D03*
X39329000Y-3924999D03*
X39329000Y-4574998D03*
X39329000Y-5224999D03*
X39329000Y-5874998D03*
X39329000Y-6524999D03*
X39329000Y-7174998D03*
%TD*%
D18*
%TO.C,C310*%
X45710000Y-16000000D03*
X44750000Y-16000000D03*
%TD*%
D40*
%TO.C,REF\u002A\u002A*%
X4000000Y-32250000D03*
%TD*%
D18*
%TO.C,C304*%
X55210000Y-22500000D03*
X54250000Y-22500000D03*
%TD*%
D44*
%TO.C,J105*%
X50250000Y-31250000D03*
D45*
X50250000Y-33750000D03*
X50250000Y-36250000D03*
%TD*%
D44*
%TO.C,J108*%
X50250000Y-17750000D03*
D45*
X50250000Y-20250000D03*
X50250000Y-22750000D03*
%TD*%
D46*
%TO.C,J110*%
X27750000Y-7250000D03*
D47*
X25210000Y-7250000D03*
X22670000Y-7250000D03*
X20130000Y-7250000D03*
X17590000Y-7250000D03*
X15050000Y-7250000D03*
X12510000Y-7250000D03*
%TD*%
D46*
%TO.C,J103*%
X27750000Y-35000000D03*
D47*
X25210000Y-35000000D03*
X22670000Y-35000000D03*
X20130000Y-35000000D03*
X17590000Y-35000000D03*
X15050000Y-35000000D03*
X12510000Y-35000000D03*
%TD*%
M02*
