M48
; DRILL file {KiCad 9.0.3} date 2026-09-12T13:30:57-0400
; FORMAT={-:-/ absolute / metric / decimal}
; #@! TF.CreationDate,2026-09-12T13:30:57-04:00
; #@! TF.GenerationSoftware,Kicad,Pcbnew,9.0.3
; #@! TF.FileFunction,Plated,1,2,PTH
FMAT,2
METRIC
; #@! TA.AperFunction,Plated,PTH,ViaDrill
T1C0.300
%
G90
G05
T1
X-33.25Y29.25
X-33.25Y15.25
X-33.25Y1.25
X-33.25Y-12.75
X-33.25Y-26.75
X-32.75Y25.25
X-32.75Y11.25
X-32.75Y-2.75
X-32.75Y-16.75
X-32.75Y-30.75
X-30.5Y25.25
X-30.5Y11.25
X-30.5Y-2.75
X-30.5Y-16.75
X-30.5Y-30.75
X-26.25Y25.25
X-26.25Y11.25
X-26.25Y-2.75
X-26.25Y-16.75
X-26.25Y-30.75
X-24.004Y29.561
X-24.004Y15.561
X-24.004Y1.561
X-24.004Y-12.439
X-24.004Y-26.439
X-19.25Y29.25
X-19.25Y15.25
X-19.25Y1.25
X-19.25Y-12.75
X-19.25Y-26.75
X-18.75Y25.25
X-18.75Y11.25
X-18.75Y-2.75
X-18.75Y-16.75
X-18.75Y-30.75
X-16.5Y25.25
X-16.5Y11.25
X-16.5Y-2.75
X-16.5Y-16.75
X-16.5Y-30.75
X-12.25Y25.25
X-12.25Y11.25
X-12.25Y-2.75
X-12.25Y-16.75
X-12.25Y-30.75
X-10.004Y29.561
X-10.004Y15.561
X-10.004Y1.561
X-10.004Y-12.439
X-10.004Y-26.439
X-5.25Y29.25
X-5.25Y15.25
X-5.25Y1.25
X-5.25Y-12.75
X-5.25Y-26.75
X-4.75Y25.25
X-4.75Y11.25
X-4.75Y-2.75
X-4.75Y-16.75
X-4.75Y-30.75
X-2.5Y25.25
X-2.5Y11.25
X-2.5Y-2.75
X-2.5Y-16.75
X-2.5Y-30.75
X1.75Y25.25
X1.75Y11.25
X1.75Y-2.75
X1.75Y-16.75
X1.75Y-30.75
X3.996Y29.561
X3.996Y15.561
X3.996Y1.561
X3.996Y-12.439
X3.996Y-26.439
X8.75Y29.25
X8.75Y15.25
X8.75Y1.25
X8.75Y-12.75
X8.75Y-26.75
X9.25Y25.25
X9.25Y11.25
X9.25Y-2.75
X9.25Y-16.75
X9.25Y-30.75
X11.5Y25.25
X11.5Y11.25
X11.5Y-2.75
X11.5Y-16.75
X11.5Y-30.75
X15.75Y25.25
X15.75Y11.25
X15.75Y-2.75
X15.75Y-16.75
X15.75Y-30.75
X17.996Y29.561
X17.996Y15.561
X17.996Y1.561
X17.996Y-12.439
X17.996Y-26.439
X22.75Y29.25
X22.75Y15.25
X22.75Y1.25
X22.75Y-12.75
X22.75Y-26.75
X23.25Y25.25
X23.25Y11.25
X23.25Y-2.75
X23.25Y-16.75
X23.25Y-30.75
X25.5Y25.25
X25.5Y11.25
X25.5Y-2.75
X25.5Y-16.75
X25.5Y-30.75
X29.75Y25.25
X29.75Y11.25
X29.75Y-2.75
X29.75Y-16.75
X29.75Y-30.75
X31.996Y29.561
X31.996Y15.561
X31.996Y1.561
X31.996Y-12.439
X31.996Y-26.439
M30
