%TF.GenerationSoftware,KiCad,Pcbnew,9.0.3*%
%TF.CreationDate,2026-09-12T13:30:55-04:00*%
%TF.ProjectId,Microcoder-panel,4d696372-6f63-46f6-9465-722d70616e65,rev?*%
%TF.SameCoordinates,Original*%
%TF.FileFunction,Copper,L2,Bot*%
%TF.FilePolarity,Positive*%
%FSLAX46Y46*%
G04 Gerber Fmt 4.6, Leading zero omitted, Abs format (unit mm)*
G04 Created by KiCad (PCBNEW 9.0.3) date 2026-09-12 13:30:55*
%MOMM*%
%LPD*%
G01*
G04 APERTURE LIST*
%TA.AperFunction,ViaPad*%
%ADD10C,0.600000*%
%TD*%
G04 APERTURE END LIST*
D10*
%TO.N,GND*%
X11500000Y-30750000D03*
X15750000Y-30750000D03*
X8750000Y-26750000D03*
X9250000Y-30750000D03*
X17996122Y-26439221D03*
X-2500000Y-30750000D03*
X1750000Y-30750000D03*
X-5250000Y-26750000D03*
X-4750000Y-30750000D03*
X3996122Y-26439221D03*
X-16500000Y-30750000D03*
X-12250000Y-30750000D03*
X-19250000Y-26750000D03*
X-18750000Y-30750000D03*
X-10003878Y-26439221D03*
X-30500000Y-30750000D03*
X-26250000Y-30750000D03*
X-33250000Y-26750000D03*
X-32750000Y-30750000D03*
X-24003878Y-26439221D03*
X25500000Y-16750000D03*
X29750000Y-16750000D03*
X22750000Y-12750000D03*
X23250000Y-16750000D03*
X31996122Y-12439221D03*
X11500000Y-16750000D03*
X15750000Y-16750000D03*
X8750000Y-12750000D03*
X9250000Y-16750000D03*
X17996122Y-12439221D03*
X-2500000Y-16750000D03*
X1750000Y-16750000D03*
X-5250000Y-12750000D03*
X-4750000Y-16750000D03*
X3996122Y-12439221D03*
X-16500000Y-16750000D03*
X-12250000Y-16750000D03*
X-19250000Y-12750000D03*
X-18750000Y-16750000D03*
X-10003878Y-12439221D03*
X-30500000Y-16750000D03*
X-26250000Y-16750000D03*
X-33250000Y-12750000D03*
X-32750000Y-16750000D03*
X-24003878Y-12439221D03*
X25500000Y-2750000D03*
X29750000Y-2750000D03*
X22750000Y1250000D03*
X23250000Y-2750000D03*
X31996122Y1560779D03*
X11500000Y-2750000D03*
X15750000Y-2750000D03*
X8750000Y1250000D03*
X9250000Y-2750000D03*
X17996122Y1560779D03*
X-2500000Y-2750000D03*
X1750000Y-2750000D03*
X-5250000Y1250000D03*
X-4750000Y-2750000D03*
X3996122Y1560779D03*
X-16500000Y-2750000D03*
X-12250000Y-2750000D03*
X-19250000Y1250000D03*
X-18750000Y-2750000D03*
X-10003878Y1560779D03*
X-30500000Y-2750000D03*
X-26250000Y-2750000D03*
X-33250000Y1250000D03*
X-32750000Y-2750000D03*
X-24003878Y1560779D03*
X25500000Y11250000D03*
X29750000Y11250000D03*
X22750000Y15250000D03*
X23250000Y11250000D03*
X31996122Y15560779D03*
X11500000Y11250000D03*
X15750000Y11250000D03*
X8750000Y15250000D03*
X9250000Y11250000D03*
X17996122Y15560779D03*
X-2500000Y11250000D03*
X1750000Y11250000D03*
X-5250000Y15250000D03*
X-4750000Y11250000D03*
X3996122Y15560779D03*
X-16500000Y11250000D03*
X-12250000Y11250000D03*
X-19250000Y15250000D03*
X-18750000Y11250000D03*
X-10003878Y15560779D03*
X-30500000Y11250000D03*
X-26250000Y11250000D03*
X-33250000Y15250000D03*
X-32750000Y11250000D03*
X-24003878Y15560779D03*
X25500000Y25250000D03*
X29750000Y25250000D03*
X22750000Y29250000D03*
X23250000Y25250000D03*
X31996122Y29560779D03*
X11500000Y25250000D03*
X15750000Y25250000D03*
X8750000Y29250000D03*
X9250000Y25250000D03*
X17996122Y29560779D03*
X-2500000Y25250000D03*
X1750000Y25250000D03*
X-5250000Y29250000D03*
X-4750000Y25250000D03*
X3996122Y29560779D03*
X-16500000Y25250000D03*
X-12250000Y25250000D03*
X-19250000Y29250000D03*
X-18750000Y25250000D03*
X-10003878Y29560779D03*
X-30500000Y25250000D03*
X-26250000Y25250000D03*
X-33250000Y29250000D03*
X-32750000Y25250000D03*
X-24003878Y29560779D03*
X23250000Y-30750000D03*
X25500000Y-30750000D03*
X29750000Y-30750000D03*
X22750000Y-26750000D03*
X31996122Y-26439221D03*
%TD*%
%TA.AperFunction,Conductor*%
%TO.N,GND*%
G36*
X33708691Y-25269407D02*
G01*
X33744655Y-25318907D01*
X33749500Y-25349500D01*
X33749500Y-29945210D01*
X33744751Y-29975505D01*
X31589479Y-36680795D01*
X31553672Y-36730408D01*
X31495541Y-36749500D01*
X24504771Y-36749500D01*
X24446580Y-36730593D01*
X24410616Y-36681093D01*
X24410520Y-36680795D01*
X22255249Y-29975505D01*
X22250500Y-29945210D01*
X22250500Y-25349500D01*
X22269407Y-25291309D01*
X22318907Y-25255345D01*
X22349500Y-25250500D01*
X33650500Y-25250500D01*
X33708691Y-25269407D01*
G37*
%TD.AperFunction*%
%TD*%
%TA.AperFunction,Conductor*%
%TO.N,GND*%
G36*
X-22291309Y30730593D02*
G01*
X-22255345Y30681093D01*
X-22250500Y30650500D01*
X-22250500Y26054790D01*
X-22255249Y26024495D01*
X-24410521Y19319205D01*
X-24446328Y19269592D01*
X-24504459Y19250500D01*
X-31495229Y19250500D01*
X-31553420Y19269407D01*
X-31589384Y19318907D01*
X-31589480Y19319205D01*
X-33744751Y26024495D01*
X-33749500Y26054790D01*
X-33749500Y30650500D01*
X-33730593Y30708691D01*
X-33681093Y30744655D01*
X-33650500Y30749500D01*
X-22349500Y30749500D01*
X-22291309Y30730593D01*
G37*
%TD.AperFunction*%
%TD*%
%TA.AperFunction,Conductor*%
%TO.N,GND*%
G36*
X-8291309Y30730593D02*
G01*
X-8255345Y30681093D01*
X-8250500Y30650500D01*
X-8250500Y26054790D01*
X-8255249Y26024495D01*
X-10410521Y19319205D01*
X-10446328Y19269592D01*
X-10504459Y19250500D01*
X-17495229Y19250500D01*
X-17553420Y19269407D01*
X-17589384Y19318907D01*
X-17589480Y19319205D01*
X-19744751Y26024495D01*
X-19749500Y26054790D01*
X-19749500Y30650500D01*
X-19730593Y30708691D01*
X-19681093Y30744655D01*
X-19650500Y30749500D01*
X-8349500Y30749500D01*
X-8291309Y30730593D01*
G37*
%TD.AperFunction*%
%TD*%
%TA.AperFunction,Conductor*%
%TO.N,GND*%
G36*
X5708691Y30730593D02*
G01*
X5744655Y30681093D01*
X5749500Y30650500D01*
X5749500Y26054790D01*
X5744751Y26024495D01*
X3589479Y19319205D01*
X3553672Y19269592D01*
X3495541Y19250500D01*
X-3495229Y19250500D01*
X-3553420Y19269407D01*
X-3589384Y19318907D01*
X-3589480Y19319205D01*
X-5744751Y26024495D01*
X-5749500Y26054790D01*
X-5749500Y30650500D01*
X-5730593Y30708691D01*
X-5681093Y30744655D01*
X-5650500Y30749500D01*
X5650500Y30749500D01*
X5708691Y30730593D01*
G37*
%TD.AperFunction*%
%TD*%
%TA.AperFunction,Conductor*%
%TO.N,GND*%
G36*
X19708691Y30730593D02*
G01*
X19744655Y30681093D01*
X19749500Y30650500D01*
X19749500Y26054790D01*
X19744751Y26024495D01*
X17589479Y19319205D01*
X17553672Y19269592D01*
X17495541Y19250500D01*
X10504771Y19250500D01*
X10446580Y19269407D01*
X10410616Y19318907D01*
X10410520Y19319205D01*
X8255249Y26024495D01*
X8250500Y26054790D01*
X8250500Y30650500D01*
X8269407Y30708691D01*
X8318907Y30744655D01*
X8349500Y30749500D01*
X19650500Y30749500D01*
X19708691Y30730593D01*
G37*
%TD.AperFunction*%
%TD*%
%TA.AperFunction,Conductor*%
%TO.N,GND*%
G36*
X33708691Y30730593D02*
G01*
X33744655Y30681093D01*
X33749500Y30650500D01*
X33749500Y26054790D01*
X33744751Y26024495D01*
X31589479Y19319205D01*
X31553672Y19269592D01*
X31495541Y19250500D01*
X24504771Y19250500D01*
X24446580Y19269407D01*
X24410616Y19318907D01*
X24410520Y19319205D01*
X22255249Y26024495D01*
X22250500Y26054790D01*
X22250500Y30650500D01*
X22269407Y30708691D01*
X22318907Y30744655D01*
X22349500Y30749500D01*
X33650500Y30749500D01*
X33708691Y30730593D01*
G37*
%TD.AperFunction*%
%TD*%
%TA.AperFunction,Conductor*%
%TO.N,GND*%
G36*
X-22291309Y16730593D02*
G01*
X-22255345Y16681093D01*
X-22250500Y16650500D01*
X-22250500Y12054790D01*
X-22255249Y12024495D01*
X-24410521Y5319205D01*
X-24446328Y5269592D01*
X-24504459Y5250500D01*
X-31495229Y5250500D01*
X-31553420Y5269407D01*
X-31589384Y5318907D01*
X-31589480Y5319205D01*
X-33744751Y12024495D01*
X-33749500Y12054790D01*
X-33749500Y16650500D01*
X-33730593Y16708691D01*
X-33681093Y16744655D01*
X-33650500Y16749500D01*
X-22349500Y16749500D01*
X-22291309Y16730593D01*
G37*
%TD.AperFunction*%
%TD*%
%TA.AperFunction,Conductor*%
%TO.N,GND*%
G36*
X-8291309Y16730593D02*
G01*
X-8255345Y16681093D01*
X-8250500Y16650500D01*
X-8250500Y12054790D01*
X-8255249Y12024495D01*
X-10410521Y5319205D01*
X-10446328Y5269592D01*
X-10504459Y5250500D01*
X-17495229Y5250500D01*
X-17553420Y5269407D01*
X-17589384Y5318907D01*
X-17589480Y5319205D01*
X-19744751Y12024495D01*
X-19749500Y12054790D01*
X-19749500Y16650500D01*
X-19730593Y16708691D01*
X-19681093Y16744655D01*
X-19650500Y16749500D01*
X-8349500Y16749500D01*
X-8291309Y16730593D01*
G37*
%TD.AperFunction*%
%TD*%
%TA.AperFunction,Conductor*%
%TO.N,GND*%
G36*
X5708691Y16730593D02*
G01*
X5744655Y16681093D01*
X5749500Y16650500D01*
X5749500Y12054790D01*
X5744751Y12024495D01*
X3589479Y5319205D01*
X3553672Y5269592D01*
X3495541Y5250500D01*
X-3495229Y5250500D01*
X-3553420Y5269407D01*
X-3589384Y5318907D01*
X-3589480Y5319205D01*
X-5744751Y12024495D01*
X-5749500Y12054790D01*
X-5749500Y16650500D01*
X-5730593Y16708691D01*
X-5681093Y16744655D01*
X-5650500Y16749500D01*
X5650500Y16749500D01*
X5708691Y16730593D01*
G37*
%TD.AperFunction*%
%TD*%
%TA.AperFunction,Conductor*%
%TO.N,GND*%
G36*
X19708691Y16730593D02*
G01*
X19744655Y16681093D01*
X19749500Y16650500D01*
X19749500Y12054790D01*
X19744751Y12024495D01*
X17589479Y5319205D01*
X17553672Y5269592D01*
X17495541Y5250500D01*
X10504771Y5250500D01*
X10446580Y5269407D01*
X10410616Y5318907D01*
X10410520Y5319205D01*
X8255249Y12024495D01*
X8250500Y12054790D01*
X8250500Y16650500D01*
X8269407Y16708691D01*
X8318907Y16744655D01*
X8349500Y16749500D01*
X19650500Y16749500D01*
X19708691Y16730593D01*
G37*
%TD.AperFunction*%
%TD*%
%TA.AperFunction,Conductor*%
%TO.N,GND*%
G36*
X33708691Y16730593D02*
G01*
X33744655Y16681093D01*
X33749500Y16650500D01*
X33749500Y12054790D01*
X33744751Y12024495D01*
X31589479Y5319205D01*
X31553672Y5269592D01*
X31495541Y5250500D01*
X24504771Y5250500D01*
X24446580Y5269407D01*
X24410616Y5318907D01*
X24410520Y5319205D01*
X22255249Y12024495D01*
X22250500Y12054790D01*
X22250500Y16650500D01*
X22269407Y16708691D01*
X22318907Y16744655D01*
X22349500Y16749500D01*
X33650500Y16749500D01*
X33708691Y16730593D01*
G37*
%TD.AperFunction*%
%TD*%
%TA.AperFunction,Conductor*%
%TO.N,GND*%
G36*
X-22291309Y2730593D02*
G01*
X-22255345Y2681093D01*
X-22250500Y2650500D01*
X-22250500Y-1945210D01*
X-22255249Y-1975505D01*
X-24410521Y-8680795D01*
X-24446328Y-8730408D01*
X-24504459Y-8749500D01*
X-31495229Y-8749500D01*
X-31553420Y-8730593D01*
X-31589384Y-8681093D01*
X-31589480Y-8680795D01*
X-33744751Y-1975505D01*
X-33749500Y-1945210D01*
X-33749500Y2650500D01*
X-33730593Y2708691D01*
X-33681093Y2744655D01*
X-33650500Y2749500D01*
X-22349500Y2749500D01*
X-22291309Y2730593D01*
G37*
%TD.AperFunction*%
%TD*%
%TA.AperFunction,Conductor*%
%TO.N,GND*%
G36*
X-8291309Y2730593D02*
G01*
X-8255345Y2681093D01*
X-8250500Y2650500D01*
X-8250500Y-1945210D01*
X-8255249Y-1975505D01*
X-10410521Y-8680795D01*
X-10446328Y-8730408D01*
X-10504459Y-8749500D01*
X-17495229Y-8749500D01*
X-17553420Y-8730593D01*
X-17589384Y-8681093D01*
X-17589480Y-8680795D01*
X-19744751Y-1975505D01*
X-19749500Y-1945210D01*
X-19749500Y2650500D01*
X-19730593Y2708691D01*
X-19681093Y2744655D01*
X-19650500Y2749500D01*
X-8349500Y2749500D01*
X-8291309Y2730593D01*
G37*
%TD.AperFunction*%
%TD*%
%TA.AperFunction,Conductor*%
%TO.N,GND*%
G36*
X5708691Y2730593D02*
G01*
X5744655Y2681093D01*
X5749500Y2650500D01*
X5749500Y-1945210D01*
X5744751Y-1975505D01*
X3589479Y-8680795D01*
X3553672Y-8730408D01*
X3495541Y-8749500D01*
X-3495229Y-8749500D01*
X-3553420Y-8730593D01*
X-3589384Y-8681093D01*
X-3589480Y-8680795D01*
X-5744751Y-1975505D01*
X-5749500Y-1945210D01*
X-5749500Y2650500D01*
X-5730593Y2708691D01*
X-5681093Y2744655D01*
X-5650500Y2749500D01*
X5650500Y2749500D01*
X5708691Y2730593D01*
G37*
%TD.AperFunction*%
%TD*%
%TA.AperFunction,Conductor*%
%TO.N,GND*%
G36*
X19708691Y2730593D02*
G01*
X19744655Y2681093D01*
X19749500Y2650500D01*
X19749500Y-1945210D01*
X19744751Y-1975505D01*
X17589479Y-8680795D01*
X17553672Y-8730408D01*
X17495541Y-8749500D01*
X10504771Y-8749500D01*
X10446580Y-8730593D01*
X10410616Y-8681093D01*
X10410520Y-8680795D01*
X8255249Y-1975505D01*
X8250500Y-1945210D01*
X8250500Y2650500D01*
X8269407Y2708691D01*
X8318907Y2744655D01*
X8349500Y2749500D01*
X19650500Y2749500D01*
X19708691Y2730593D01*
G37*
%TD.AperFunction*%
%TD*%
%TA.AperFunction,Conductor*%
%TO.N,GND*%
G36*
X33708691Y2730593D02*
G01*
X33744655Y2681093D01*
X33749500Y2650500D01*
X33749500Y-1945210D01*
X33744751Y-1975505D01*
X31589479Y-8680795D01*
X31553672Y-8730408D01*
X31495541Y-8749500D01*
X24504771Y-8749500D01*
X24446580Y-8730593D01*
X24410616Y-8681093D01*
X24410520Y-8680795D01*
X22255249Y-1975505D01*
X22250500Y-1945210D01*
X22250500Y2650500D01*
X22269407Y2708691D01*
X22318907Y2744655D01*
X22349500Y2749500D01*
X33650500Y2749500D01*
X33708691Y2730593D01*
G37*
%TD.AperFunction*%
%TD*%
%TA.AperFunction,Conductor*%
%TO.N,GND*%
G36*
X-22291309Y-11269407D02*
G01*
X-22255345Y-11318907D01*
X-22250500Y-11349500D01*
X-22250500Y-15945210D01*
X-22255249Y-15975505D01*
X-24410521Y-22680795D01*
X-24446328Y-22730408D01*
X-24504459Y-22749500D01*
X-31495229Y-22749500D01*
X-31553420Y-22730593D01*
X-31589384Y-22681093D01*
X-31589480Y-22680795D01*
X-33744751Y-15975505D01*
X-33749500Y-15945210D01*
X-33749500Y-11349500D01*
X-33730593Y-11291309D01*
X-33681093Y-11255345D01*
X-33650500Y-11250500D01*
X-22349500Y-11250500D01*
X-22291309Y-11269407D01*
G37*
%TD.AperFunction*%
%TD*%
%TA.AperFunction,Conductor*%
%TO.N,GND*%
G36*
X-8291309Y-11269407D02*
G01*
X-8255345Y-11318907D01*
X-8250500Y-11349500D01*
X-8250500Y-15945210D01*
X-8255249Y-15975505D01*
X-10410521Y-22680795D01*
X-10446328Y-22730408D01*
X-10504459Y-22749500D01*
X-17495229Y-22749500D01*
X-17553420Y-22730593D01*
X-17589384Y-22681093D01*
X-17589480Y-22680795D01*
X-19744751Y-15975505D01*
X-19749500Y-15945210D01*
X-19749500Y-11349500D01*
X-19730593Y-11291309D01*
X-19681093Y-11255345D01*
X-19650500Y-11250500D01*
X-8349500Y-11250500D01*
X-8291309Y-11269407D01*
G37*
%TD.AperFunction*%
%TD*%
%TA.AperFunction,Conductor*%
%TO.N,GND*%
G36*
X5708691Y-11269407D02*
G01*
X5744655Y-11318907D01*
X5749500Y-11349500D01*
X5749500Y-15945210D01*
X5744751Y-15975505D01*
X3589479Y-22680795D01*
X3553672Y-22730408D01*
X3495541Y-22749500D01*
X-3495229Y-22749500D01*
X-3553420Y-22730593D01*
X-3589384Y-22681093D01*
X-3589480Y-22680795D01*
X-5744751Y-15975505D01*
X-5749500Y-15945210D01*
X-5749500Y-11349500D01*
X-5730593Y-11291309D01*
X-5681093Y-11255345D01*
X-5650500Y-11250500D01*
X5650500Y-11250500D01*
X5708691Y-11269407D01*
G37*
%TD.AperFunction*%
%TD*%
%TA.AperFunction,Conductor*%
%TO.N,GND*%
G36*
X19708691Y-11269407D02*
G01*
X19744655Y-11318907D01*
X19749500Y-11349500D01*
X19749500Y-15945210D01*
X19744751Y-15975505D01*
X17589479Y-22680795D01*
X17553672Y-22730408D01*
X17495541Y-22749500D01*
X10504771Y-22749500D01*
X10446580Y-22730593D01*
X10410616Y-22681093D01*
X10410520Y-22680795D01*
X8255249Y-15975505D01*
X8250500Y-15945210D01*
X8250500Y-11349500D01*
X8269407Y-11291309D01*
X8318907Y-11255345D01*
X8349500Y-11250500D01*
X19650500Y-11250500D01*
X19708691Y-11269407D01*
G37*
%TD.AperFunction*%
%TD*%
%TA.AperFunction,Conductor*%
%TO.N,GND*%
G36*
X33708691Y-11269407D02*
G01*
X33744655Y-11318907D01*
X33749500Y-11349500D01*
X33749500Y-15945210D01*
X33744751Y-15975505D01*
X31589479Y-22680795D01*
X31553672Y-22730408D01*
X31495541Y-22749500D01*
X24504771Y-22749500D01*
X24446580Y-22730593D01*
X24410616Y-22681093D01*
X24410520Y-22680795D01*
X22255249Y-15975505D01*
X22250500Y-15945210D01*
X22250500Y-11349500D01*
X22269407Y-11291309D01*
X22318907Y-11255345D01*
X22349500Y-11250500D01*
X33650500Y-11250500D01*
X33708691Y-11269407D01*
G37*
%TD.AperFunction*%
%TD*%
%TA.AperFunction,Conductor*%
%TO.N,GND*%
G36*
X-22291309Y-25269407D02*
G01*
X-22255345Y-25318907D01*
X-22250500Y-25349500D01*
X-22250500Y-29945210D01*
X-22255249Y-29975505D01*
X-24410521Y-36680795D01*
X-24446328Y-36730408D01*
X-24504459Y-36749500D01*
X-31495229Y-36749500D01*
X-31553420Y-36730593D01*
X-31589384Y-36681093D01*
X-31589480Y-36680795D01*
X-33744751Y-29975505D01*
X-33749500Y-29945210D01*
X-33749500Y-25349500D01*
X-33730593Y-25291309D01*
X-33681093Y-25255345D01*
X-33650500Y-25250500D01*
X-22349500Y-25250500D01*
X-22291309Y-25269407D01*
G37*
%TD.AperFunction*%
%TD*%
%TA.AperFunction,Conductor*%
%TO.N,GND*%
G36*
X-8291309Y-25269407D02*
G01*
X-8255345Y-25318907D01*
X-8250500Y-25349500D01*
X-8250500Y-29945210D01*
X-8255249Y-29975505D01*
X-10410521Y-36680795D01*
X-10446328Y-36730408D01*
X-10504459Y-36749500D01*
X-17495229Y-36749500D01*
X-17553420Y-36730593D01*
X-17589384Y-36681093D01*
X-17589480Y-36680795D01*
X-19744751Y-29975505D01*
X-19749500Y-29945210D01*
X-19749500Y-25349500D01*
X-19730593Y-25291309D01*
X-19681093Y-25255345D01*
X-19650500Y-25250500D01*
X-8349500Y-25250500D01*
X-8291309Y-25269407D01*
G37*
%TD.AperFunction*%
%TD*%
%TA.AperFunction,Conductor*%
%TO.N,GND*%
G36*
X5708691Y-25269407D02*
G01*
X5744655Y-25318907D01*
X5749500Y-25349500D01*
X5749500Y-29945210D01*
X5744751Y-29975505D01*
X3589479Y-36680795D01*
X3553672Y-36730408D01*
X3495541Y-36749500D01*
X-3495229Y-36749500D01*
X-3553420Y-36730593D01*
X-3589384Y-36681093D01*
X-3589480Y-36680795D01*
X-5744751Y-29975505D01*
X-5749500Y-29945210D01*
X-5749500Y-25349500D01*
X-5730593Y-25291309D01*
X-5681093Y-25255345D01*
X-5650500Y-25250500D01*
X5650500Y-25250500D01*
X5708691Y-25269407D01*
G37*
%TD.AperFunction*%
%TD*%
%TA.AperFunction,Conductor*%
%TO.N,GND*%
G36*
X19708691Y-25269407D02*
G01*
X19744655Y-25318907D01*
X19749500Y-25349500D01*
X19749500Y-29945210D01*
X19744751Y-29975505D01*
X17589479Y-36680795D01*
X17553672Y-36730408D01*
X17495541Y-36749500D01*
X10504771Y-36749500D01*
X10446580Y-36730593D01*
X10410616Y-36681093D01*
X10410520Y-36680795D01*
X8255249Y-29975505D01*
X8250500Y-29945210D01*
X8250500Y-25349500D01*
X8269407Y-25291309D01*
X8318907Y-25255345D01*
X8349500Y-25250500D01*
X19650500Y-25250500D01*
X19708691Y-25269407D01*
G37*
%TD.AperFunction*%
%TD*%
M02*
