%TF.GenerationSoftware,KiCad,Pcbnew,9.0.3*%
%TF.CreationDate,2026-09-12T13:30:55-04:00*%
%TF.ProjectId,Microcoder-panel,4d696372-6f63-46f6-9465-722d70616e65,rev?*%
%TF.SameCoordinates,Original*%
%TF.FileFunction,Legend,Top*%
%TF.FilePolarity,Positive*%
%FSLAX46Y46*%
G04 Gerber Fmt 4.6, Leading zero omitted, Abs format (unit mm)*
G04 Created by KiCad (PCBNEW 9.0.3) date 2026-09-12 13:30:55*
%MOMM*%
%LPD*%
G01*
G04 APERTURE LIST*
%ADD10C,0.120000*%
%ADD11C,0.152400*%
%ADD12C,0.508000*%
%ADD13C,0.100000*%
G04 APERTURE END LIST*
D10*
%TO.C,C150*%
X9357836Y-25640000D02*
X9142164Y-25640000D01*
X9357836Y-26360000D02*
X9142164Y-26360000D01*
%TO.C,R149*%
X18903641Y-28370000D02*
X18596359Y-28370000D01*
X18903641Y-29130000D02*
X18596359Y-29130000D01*
D11*
%TO.C,J125*%
X10875800Y-31396500D02*
X10875800Y-34539059D01*
X11862460Y-31396500D02*
X10875800Y-31396500D01*
X12129641Y-36603499D02*
X15870359Y-36603499D01*
X17124200Y-31396500D02*
X16137540Y-31396500D01*
X17124200Y-34539059D02*
X17124200Y-31396500D01*
D12*
X9478800Y-31948500D02*
G75*
G02*
X8716800Y-31948500I-381000J0D01*
G01*
X8716800Y-31948500D02*
G75*
G02*
X9478800Y-31948500I381000J0D01*
G01*
D10*
%TO.C,IC125*%
X14000000Y-25440000D02*
X12050000Y-25440000D01*
X14000000Y-25440000D02*
X15950000Y-25440000D01*
X14000000Y-30560000D02*
X12050000Y-30560000D01*
X14000000Y-30560000D02*
X15950000Y-30560000D01*
X11300000Y-25535000D02*
X11060000Y-25205000D01*
X11540000Y-25205000D01*
X11300000Y-25535000D01*
G36*
X11300000Y-25535000D02*
G01*
X11060000Y-25205000D01*
X11540000Y-25205000D01*
X11300000Y-25535000D01*
G37*
%TO.C,R150*%
X18903641Y-26870000D02*
X18596359Y-26870000D01*
X18903641Y-27630000D02*
X18596359Y-27630000D01*
%TO.C,C149*%
X8515000Y-28488748D02*
X8515000Y-29011252D01*
X9985000Y-28488748D02*
X9985000Y-29011252D01*
%TO.C,C148*%
X-4642164Y-25640000D02*
X-4857836Y-25640000D01*
X-4642164Y-26360000D02*
X-4857836Y-26360000D01*
%TO.C,R147*%
X4903641Y-28370000D02*
X4596359Y-28370000D01*
X4903641Y-29130000D02*
X4596359Y-29130000D01*
D11*
%TO.C,J124*%
X-3124200Y-31396500D02*
X-3124200Y-34539059D01*
X-2137540Y-31396500D02*
X-3124200Y-31396500D01*
X-1870359Y-36603499D02*
X1870359Y-36603499D01*
X3124200Y-31396500D02*
X2137540Y-31396500D01*
X3124200Y-34539059D02*
X3124200Y-31396500D01*
D12*
X-4521200Y-31948500D02*
G75*
G02*
X-5283200Y-31948500I-381000J0D01*
G01*
X-5283200Y-31948500D02*
G75*
G02*
X-4521200Y-31948500I381000J0D01*
G01*
D10*
%TO.C,IC124*%
X0Y-25440000D02*
X-1950000Y-25440000D01*
X0Y-25440000D02*
X1950000Y-25440000D01*
X0Y-30560000D02*
X-1950000Y-30560000D01*
X0Y-30560000D02*
X1950000Y-30560000D01*
X-2700000Y-25535000D02*
X-2940000Y-25205000D01*
X-2460000Y-25205000D01*
X-2700000Y-25535000D01*
G36*
X-2700000Y-25535000D02*
G01*
X-2940000Y-25205000D01*
X-2460000Y-25205000D01*
X-2700000Y-25535000D01*
G37*
%TO.C,R148*%
X4903641Y-26870000D02*
X4596359Y-26870000D01*
X4903641Y-27630000D02*
X4596359Y-27630000D01*
%TO.C,C147*%
X-5485000Y-28488748D02*
X-5485000Y-29011252D01*
X-4015000Y-28488748D02*
X-4015000Y-29011252D01*
%TO.C,C146*%
X-18642164Y-25640000D02*
X-18857836Y-25640000D01*
X-18642164Y-26360000D02*
X-18857836Y-26360000D01*
%TO.C,R145*%
X-9096359Y-28370000D02*
X-9403641Y-28370000D01*
X-9096359Y-29130000D02*
X-9403641Y-29130000D01*
D11*
%TO.C,J123*%
X-17124200Y-31396500D02*
X-17124200Y-34539059D01*
X-16137540Y-31396500D02*
X-17124200Y-31396500D01*
X-15870359Y-36603499D02*
X-12129641Y-36603499D01*
X-10875800Y-31396500D02*
X-11862460Y-31396500D01*
X-10875800Y-34539059D02*
X-10875800Y-31396500D01*
D12*
X-18521200Y-31948500D02*
G75*
G02*
X-19283200Y-31948500I-381000J0D01*
G01*
X-19283200Y-31948500D02*
G75*
G02*
X-18521200Y-31948500I381000J0D01*
G01*
D10*
%TO.C,IC123*%
X-14000000Y-25440000D02*
X-15950000Y-25440000D01*
X-14000000Y-25440000D02*
X-12050000Y-25440000D01*
X-14000000Y-30560000D02*
X-15950000Y-30560000D01*
X-14000000Y-30560000D02*
X-12050000Y-30560000D01*
X-16700000Y-25535000D02*
X-16940000Y-25205000D01*
X-16460000Y-25205000D01*
X-16700000Y-25535000D01*
G36*
X-16700000Y-25535000D02*
G01*
X-16940000Y-25205000D01*
X-16460000Y-25205000D01*
X-16700000Y-25535000D01*
G37*
%TO.C,R146*%
X-9096359Y-26870000D02*
X-9403641Y-26870000D01*
X-9096359Y-27630000D02*
X-9403641Y-27630000D01*
%TO.C,C145*%
X-19485000Y-28488748D02*
X-19485000Y-29011252D01*
X-18015000Y-28488748D02*
X-18015000Y-29011252D01*
%TO.C,C144*%
X-32642164Y-25640000D02*
X-32857836Y-25640000D01*
X-32642164Y-26360000D02*
X-32857836Y-26360000D01*
%TO.C,R143*%
X-23096359Y-28370000D02*
X-23403641Y-28370000D01*
X-23096359Y-29130000D02*
X-23403641Y-29130000D01*
D11*
%TO.C,J122*%
X-31124200Y-31396500D02*
X-31124200Y-34539059D01*
X-30137540Y-31396500D02*
X-31124200Y-31396500D01*
X-29870359Y-36603499D02*
X-26129641Y-36603499D01*
X-24875800Y-31396500D02*
X-25862460Y-31396500D01*
X-24875800Y-34539059D02*
X-24875800Y-31396500D01*
D12*
X-32521200Y-31948500D02*
G75*
G02*
X-33283200Y-31948500I-381000J0D01*
G01*
X-33283200Y-31948500D02*
G75*
G02*
X-32521200Y-31948500I381000J0D01*
G01*
D10*
%TO.C,IC122*%
X-28000000Y-25440000D02*
X-29950000Y-25440000D01*
X-28000000Y-25440000D02*
X-26050000Y-25440000D01*
X-28000000Y-30560000D02*
X-29950000Y-30560000D01*
X-28000000Y-30560000D02*
X-26050000Y-30560000D01*
X-30700000Y-25535000D02*
X-30940000Y-25205000D01*
X-30460000Y-25205000D01*
X-30700000Y-25535000D01*
G36*
X-30700000Y-25535000D02*
G01*
X-30940000Y-25205000D01*
X-30460000Y-25205000D01*
X-30700000Y-25535000D01*
G37*
%TO.C,R144*%
X-23096359Y-26870000D02*
X-23403641Y-26870000D01*
X-23096359Y-27630000D02*
X-23403641Y-27630000D01*
%TO.C,C143*%
X-33485000Y-28488748D02*
X-33485000Y-29011252D01*
X-32015000Y-28488748D02*
X-32015000Y-29011252D01*
%TO.C,C142*%
X23357836Y-11640000D02*
X23142164Y-11640000D01*
X23357836Y-12360000D02*
X23142164Y-12360000D01*
%TO.C,R141*%
X32903641Y-14370000D02*
X32596359Y-14370000D01*
X32903641Y-15130000D02*
X32596359Y-15130000D01*
D11*
%TO.C,J121*%
X24875800Y-17396500D02*
X24875800Y-20539059D01*
X25862460Y-17396500D02*
X24875800Y-17396500D01*
X26129641Y-22603499D02*
X29870359Y-22603499D01*
X31124200Y-17396500D02*
X30137540Y-17396500D01*
X31124200Y-20539059D02*
X31124200Y-17396500D01*
D12*
X23478800Y-17948500D02*
G75*
G02*
X22716800Y-17948500I-381000J0D01*
G01*
X22716800Y-17948500D02*
G75*
G02*
X23478800Y-17948500I381000J0D01*
G01*
D10*
%TO.C,IC121*%
X28000000Y-11440000D02*
X26050000Y-11440000D01*
X28000000Y-11440000D02*
X29950000Y-11440000D01*
X28000000Y-16560000D02*
X26050000Y-16560000D01*
X28000000Y-16560000D02*
X29950000Y-16560000D01*
X25300000Y-11535000D02*
X25060000Y-11205000D01*
X25540000Y-11205000D01*
X25300000Y-11535000D01*
G36*
X25300000Y-11535000D02*
G01*
X25060000Y-11205000D01*
X25540000Y-11205000D01*
X25300000Y-11535000D01*
G37*
%TO.C,R142*%
X32903641Y-12870000D02*
X32596359Y-12870000D01*
X32903641Y-13630000D02*
X32596359Y-13630000D01*
%TO.C,C141*%
X22515000Y-14488748D02*
X22515000Y-15011252D01*
X23985000Y-14488748D02*
X23985000Y-15011252D01*
%TO.C,C140*%
X9357836Y-11640000D02*
X9142164Y-11640000D01*
X9357836Y-12360000D02*
X9142164Y-12360000D01*
%TO.C,R139*%
X18903641Y-14370000D02*
X18596359Y-14370000D01*
X18903641Y-15130000D02*
X18596359Y-15130000D01*
D11*
%TO.C,J120*%
X10875800Y-17396500D02*
X10875800Y-20539059D01*
X11862460Y-17396500D02*
X10875800Y-17396500D01*
X12129641Y-22603499D02*
X15870359Y-22603499D01*
X17124200Y-17396500D02*
X16137540Y-17396500D01*
X17124200Y-20539059D02*
X17124200Y-17396500D01*
D12*
X9478800Y-17948500D02*
G75*
G02*
X8716800Y-17948500I-381000J0D01*
G01*
X8716800Y-17948500D02*
G75*
G02*
X9478800Y-17948500I381000J0D01*
G01*
D10*
%TO.C,IC120*%
X14000000Y-11440000D02*
X12050000Y-11440000D01*
X14000000Y-11440000D02*
X15950000Y-11440000D01*
X14000000Y-16560000D02*
X12050000Y-16560000D01*
X14000000Y-16560000D02*
X15950000Y-16560000D01*
X11300000Y-11535000D02*
X11060000Y-11205000D01*
X11540000Y-11205000D01*
X11300000Y-11535000D01*
G36*
X11300000Y-11535000D02*
G01*
X11060000Y-11205000D01*
X11540000Y-11205000D01*
X11300000Y-11535000D01*
G37*
%TO.C,R140*%
X18903641Y-12870000D02*
X18596359Y-12870000D01*
X18903641Y-13630000D02*
X18596359Y-13630000D01*
%TO.C,C139*%
X8515000Y-14488748D02*
X8515000Y-15011252D01*
X9985000Y-14488748D02*
X9985000Y-15011252D01*
%TO.C,C138*%
X-4642164Y-11640000D02*
X-4857836Y-11640000D01*
X-4642164Y-12360000D02*
X-4857836Y-12360000D01*
%TO.C,R137*%
X4903641Y-14370000D02*
X4596359Y-14370000D01*
X4903641Y-15130000D02*
X4596359Y-15130000D01*
D11*
%TO.C,J119*%
X-3124200Y-17396500D02*
X-3124200Y-20539059D01*
X-2137540Y-17396500D02*
X-3124200Y-17396500D01*
X-1870359Y-22603499D02*
X1870359Y-22603499D01*
X3124200Y-17396500D02*
X2137540Y-17396500D01*
X3124200Y-20539059D02*
X3124200Y-17396500D01*
D12*
X-4521200Y-17948500D02*
G75*
G02*
X-5283200Y-17948500I-381000J0D01*
G01*
X-5283200Y-17948500D02*
G75*
G02*
X-4521200Y-17948500I381000J0D01*
G01*
D10*
%TO.C,IC119*%
X0Y-11440000D02*
X-1950000Y-11440000D01*
X0Y-11440000D02*
X1950000Y-11440000D01*
X0Y-16560000D02*
X-1950000Y-16560000D01*
X0Y-16560000D02*
X1950000Y-16560000D01*
X-2700000Y-11535000D02*
X-2940000Y-11205000D01*
X-2460000Y-11205000D01*
X-2700000Y-11535000D01*
G36*
X-2700000Y-11535000D02*
G01*
X-2940000Y-11205000D01*
X-2460000Y-11205000D01*
X-2700000Y-11535000D01*
G37*
%TO.C,R138*%
X4903641Y-12870000D02*
X4596359Y-12870000D01*
X4903641Y-13630000D02*
X4596359Y-13630000D01*
%TO.C,C137*%
X-5485000Y-14488748D02*
X-5485000Y-15011252D01*
X-4015000Y-14488748D02*
X-4015000Y-15011252D01*
%TO.C,C136*%
X-18642164Y-11640000D02*
X-18857836Y-11640000D01*
X-18642164Y-12360000D02*
X-18857836Y-12360000D01*
%TO.C,R135*%
X-9096359Y-14370000D02*
X-9403641Y-14370000D01*
X-9096359Y-15130000D02*
X-9403641Y-15130000D01*
D11*
%TO.C,J118*%
X-17124200Y-17396500D02*
X-17124200Y-20539059D01*
X-16137540Y-17396500D02*
X-17124200Y-17396500D01*
X-15870359Y-22603499D02*
X-12129641Y-22603499D01*
X-10875800Y-17396500D02*
X-11862460Y-17396500D01*
X-10875800Y-20539059D02*
X-10875800Y-17396500D01*
D12*
X-18521200Y-17948500D02*
G75*
G02*
X-19283200Y-17948500I-381000J0D01*
G01*
X-19283200Y-17948500D02*
G75*
G02*
X-18521200Y-17948500I381000J0D01*
G01*
D10*
%TO.C,IC118*%
X-14000000Y-11440000D02*
X-15950000Y-11440000D01*
X-14000000Y-11440000D02*
X-12050000Y-11440000D01*
X-14000000Y-16560000D02*
X-15950000Y-16560000D01*
X-14000000Y-16560000D02*
X-12050000Y-16560000D01*
X-16700000Y-11535000D02*
X-16940000Y-11205000D01*
X-16460000Y-11205000D01*
X-16700000Y-11535000D01*
G36*
X-16700000Y-11535000D02*
G01*
X-16940000Y-11205000D01*
X-16460000Y-11205000D01*
X-16700000Y-11535000D01*
G37*
%TO.C,R136*%
X-9096359Y-12870000D02*
X-9403641Y-12870000D01*
X-9096359Y-13630000D02*
X-9403641Y-13630000D01*
%TO.C,C135*%
X-19485000Y-14488748D02*
X-19485000Y-15011252D01*
X-18015000Y-14488748D02*
X-18015000Y-15011252D01*
%TO.C,C134*%
X-32642164Y-11640000D02*
X-32857836Y-11640000D01*
X-32642164Y-12360000D02*
X-32857836Y-12360000D01*
%TO.C,R133*%
X-23096359Y-14370000D02*
X-23403641Y-14370000D01*
X-23096359Y-15130000D02*
X-23403641Y-15130000D01*
D11*
%TO.C,J117*%
X-31124200Y-17396500D02*
X-31124200Y-20539059D01*
X-30137540Y-17396500D02*
X-31124200Y-17396500D01*
X-29870359Y-22603499D02*
X-26129641Y-22603499D01*
X-24875800Y-17396500D02*
X-25862460Y-17396500D01*
X-24875800Y-20539059D02*
X-24875800Y-17396500D01*
D12*
X-32521200Y-17948500D02*
G75*
G02*
X-33283200Y-17948500I-381000J0D01*
G01*
X-33283200Y-17948500D02*
G75*
G02*
X-32521200Y-17948500I381000J0D01*
G01*
D10*
%TO.C,IC117*%
X-28000000Y-11440000D02*
X-29950000Y-11440000D01*
X-28000000Y-11440000D02*
X-26050000Y-11440000D01*
X-28000000Y-16560000D02*
X-29950000Y-16560000D01*
X-28000000Y-16560000D02*
X-26050000Y-16560000D01*
X-30700000Y-11535000D02*
X-30940000Y-11205000D01*
X-30460000Y-11205000D01*
X-30700000Y-11535000D01*
G36*
X-30700000Y-11535000D02*
G01*
X-30940000Y-11205000D01*
X-30460000Y-11205000D01*
X-30700000Y-11535000D01*
G37*
%TO.C,R134*%
X-23096359Y-12870000D02*
X-23403641Y-12870000D01*
X-23096359Y-13630000D02*
X-23403641Y-13630000D01*
%TO.C,C133*%
X-33485000Y-14488748D02*
X-33485000Y-15011252D01*
X-32015000Y-14488748D02*
X-32015000Y-15011252D01*
%TO.C,C132*%
X23357836Y2360000D02*
X23142164Y2360000D01*
X23357836Y1640000D02*
X23142164Y1640000D01*
%TO.C,R131*%
X32903641Y-370000D02*
X32596359Y-370000D01*
X32903641Y-1130000D02*
X32596359Y-1130000D01*
D11*
%TO.C,J116*%
X24875800Y-3396500D02*
X24875800Y-6539059D01*
X25862460Y-3396500D02*
X24875800Y-3396500D01*
X26129641Y-8603499D02*
X29870359Y-8603499D01*
X31124200Y-3396500D02*
X30137540Y-3396500D01*
X31124200Y-6539059D02*
X31124200Y-3396500D01*
D12*
X23478800Y-3948500D02*
G75*
G02*
X22716800Y-3948500I-381000J0D01*
G01*
X22716800Y-3948500D02*
G75*
G02*
X23478800Y-3948500I381000J0D01*
G01*
D10*
%TO.C,IC116*%
X28000000Y2560000D02*
X26050000Y2560000D01*
X28000000Y2560000D02*
X29950000Y2560000D01*
X28000000Y-2560000D02*
X26050000Y-2560000D01*
X28000000Y-2560000D02*
X29950000Y-2560000D01*
X25300000Y2465000D02*
X25060000Y2795000D01*
X25540000Y2795000D01*
X25300000Y2465000D01*
G36*
X25300000Y2465000D02*
G01*
X25060000Y2795000D01*
X25540000Y2795000D01*
X25300000Y2465000D01*
G37*
%TO.C,R132*%
X32903641Y1130000D02*
X32596359Y1130000D01*
X32903641Y370000D02*
X32596359Y370000D01*
%TO.C,C131*%
X22515000Y-488748D02*
X22515000Y-1011252D01*
X23985000Y-488748D02*
X23985000Y-1011252D01*
%TO.C,C130*%
X9357836Y2360000D02*
X9142164Y2360000D01*
X9357836Y1640000D02*
X9142164Y1640000D01*
%TO.C,R129*%
X18903641Y-370000D02*
X18596359Y-370000D01*
X18903641Y-1130000D02*
X18596359Y-1130000D01*
D11*
%TO.C,J115*%
X10875800Y-3396500D02*
X10875800Y-6539059D01*
X11862460Y-3396500D02*
X10875800Y-3396500D01*
X12129641Y-8603499D02*
X15870359Y-8603499D01*
X17124200Y-3396500D02*
X16137540Y-3396500D01*
X17124200Y-6539059D02*
X17124200Y-3396500D01*
D12*
X9478800Y-3948500D02*
G75*
G02*
X8716800Y-3948500I-381000J0D01*
G01*
X8716800Y-3948500D02*
G75*
G02*
X9478800Y-3948500I381000J0D01*
G01*
D10*
%TO.C,IC115*%
X14000000Y2560000D02*
X12050000Y2560000D01*
X14000000Y2560000D02*
X15950000Y2560000D01*
X14000000Y-2560000D02*
X12050000Y-2560000D01*
X14000000Y-2560000D02*
X15950000Y-2560000D01*
X11300000Y2465000D02*
X11060000Y2795000D01*
X11540000Y2795000D01*
X11300000Y2465000D01*
G36*
X11300000Y2465000D02*
G01*
X11060000Y2795000D01*
X11540000Y2795000D01*
X11300000Y2465000D01*
G37*
%TO.C,R130*%
X18903641Y1130000D02*
X18596359Y1130000D01*
X18903641Y370000D02*
X18596359Y370000D01*
%TO.C,C129*%
X8515000Y-488748D02*
X8515000Y-1011252D01*
X9985000Y-488748D02*
X9985000Y-1011252D01*
%TO.C,C128*%
X-4642164Y2360000D02*
X-4857836Y2360000D01*
X-4642164Y1640000D02*
X-4857836Y1640000D01*
%TO.C,R127*%
X4903641Y-370000D02*
X4596359Y-370000D01*
X4903641Y-1130000D02*
X4596359Y-1130000D01*
D11*
%TO.C,J114*%
X-3124200Y-3396500D02*
X-3124200Y-6539059D01*
X-2137540Y-3396500D02*
X-3124200Y-3396500D01*
X-1870359Y-8603499D02*
X1870359Y-8603499D01*
X3124200Y-3396500D02*
X2137540Y-3396500D01*
X3124200Y-6539059D02*
X3124200Y-3396500D01*
D12*
X-4521200Y-3948500D02*
G75*
G02*
X-5283200Y-3948500I-381000J0D01*
G01*
X-5283200Y-3948500D02*
G75*
G02*
X-4521200Y-3948500I381000J0D01*
G01*
D10*
%TO.C,IC114*%
X0Y2560000D02*
X-1950000Y2560000D01*
X0Y2560000D02*
X1950000Y2560000D01*
X0Y-2560000D02*
X-1950000Y-2560000D01*
X0Y-2560000D02*
X1950000Y-2560000D01*
X-2700000Y2465000D02*
X-2940000Y2795000D01*
X-2460000Y2795000D01*
X-2700000Y2465000D01*
G36*
X-2700000Y2465000D02*
G01*
X-2940000Y2795000D01*
X-2460000Y2795000D01*
X-2700000Y2465000D01*
G37*
%TO.C,R128*%
X4903641Y1130000D02*
X4596359Y1130000D01*
X4903641Y370000D02*
X4596359Y370000D01*
%TO.C,C127*%
X-5485000Y-488748D02*
X-5485000Y-1011252D01*
X-4015000Y-488748D02*
X-4015000Y-1011252D01*
%TO.C,C126*%
X-18642164Y2360000D02*
X-18857836Y2360000D01*
X-18642164Y1640000D02*
X-18857836Y1640000D01*
%TO.C,R125*%
X-9096359Y-370000D02*
X-9403641Y-370000D01*
X-9096359Y-1130000D02*
X-9403641Y-1130000D01*
D11*
%TO.C,J113*%
X-17124200Y-3396500D02*
X-17124200Y-6539059D01*
X-16137540Y-3396500D02*
X-17124200Y-3396500D01*
X-15870359Y-8603499D02*
X-12129641Y-8603499D01*
X-10875800Y-3396500D02*
X-11862460Y-3396500D01*
X-10875800Y-6539059D02*
X-10875800Y-3396500D01*
D12*
X-18521200Y-3948500D02*
G75*
G02*
X-19283200Y-3948500I-381000J0D01*
G01*
X-19283200Y-3948500D02*
G75*
G02*
X-18521200Y-3948500I381000J0D01*
G01*
D10*
%TO.C,IC113*%
X-14000000Y2560000D02*
X-15950000Y2560000D01*
X-14000000Y2560000D02*
X-12050000Y2560000D01*
X-14000000Y-2560000D02*
X-15950000Y-2560000D01*
X-14000000Y-2560000D02*
X-12050000Y-2560000D01*
X-16700000Y2465000D02*
X-16940000Y2795000D01*
X-16460000Y2795000D01*
X-16700000Y2465000D01*
G36*
X-16700000Y2465000D02*
G01*
X-16940000Y2795000D01*
X-16460000Y2795000D01*
X-16700000Y2465000D01*
G37*
%TO.C,R126*%
X-9096359Y1130000D02*
X-9403641Y1130000D01*
X-9096359Y370000D02*
X-9403641Y370000D01*
%TO.C,C125*%
X-19485000Y-488748D02*
X-19485000Y-1011252D01*
X-18015000Y-488748D02*
X-18015000Y-1011252D01*
%TO.C,C124*%
X-32642164Y2360000D02*
X-32857836Y2360000D01*
X-32642164Y1640000D02*
X-32857836Y1640000D01*
%TO.C,R123*%
X-23096359Y-370000D02*
X-23403641Y-370000D01*
X-23096359Y-1130000D02*
X-23403641Y-1130000D01*
D11*
%TO.C,J112*%
X-31124200Y-3396500D02*
X-31124200Y-6539059D01*
X-30137540Y-3396500D02*
X-31124200Y-3396500D01*
X-29870359Y-8603499D02*
X-26129641Y-8603499D01*
X-24875800Y-3396500D02*
X-25862460Y-3396500D01*
X-24875800Y-6539059D02*
X-24875800Y-3396500D01*
D12*
X-32521200Y-3948500D02*
G75*
G02*
X-33283200Y-3948500I-381000J0D01*
G01*
X-33283200Y-3948500D02*
G75*
G02*
X-32521200Y-3948500I381000J0D01*
G01*
D10*
%TO.C,IC112*%
X-28000000Y2560000D02*
X-29950000Y2560000D01*
X-28000000Y2560000D02*
X-26050000Y2560000D01*
X-28000000Y-2560000D02*
X-29950000Y-2560000D01*
X-28000000Y-2560000D02*
X-26050000Y-2560000D01*
X-30700000Y2465000D02*
X-30940000Y2795000D01*
X-30460000Y2795000D01*
X-30700000Y2465000D01*
G36*
X-30700000Y2465000D02*
G01*
X-30940000Y2795000D01*
X-30460000Y2795000D01*
X-30700000Y2465000D01*
G37*
%TO.C,R124*%
X-23096359Y1130000D02*
X-23403641Y1130000D01*
X-23096359Y370000D02*
X-23403641Y370000D01*
%TO.C,C123*%
X-33485000Y-488748D02*
X-33485000Y-1011252D01*
X-32015000Y-488748D02*
X-32015000Y-1011252D01*
%TO.C,C122*%
X23357836Y16360000D02*
X23142164Y16360000D01*
X23357836Y15640000D02*
X23142164Y15640000D01*
%TO.C,R121*%
X32903641Y13630000D02*
X32596359Y13630000D01*
X32903641Y12870000D02*
X32596359Y12870000D01*
D11*
%TO.C,J111*%
X24875800Y10603500D02*
X24875800Y7460941D01*
X25862460Y10603500D02*
X24875800Y10603500D01*
X26129641Y5396501D02*
X29870359Y5396501D01*
X31124200Y10603500D02*
X30137540Y10603500D01*
X31124200Y7460941D02*
X31124200Y10603500D01*
D12*
X23478800Y10051500D02*
G75*
G02*
X22716800Y10051500I-381000J0D01*
G01*
X22716800Y10051500D02*
G75*
G02*
X23478800Y10051500I381000J0D01*
G01*
D10*
%TO.C,IC111*%
X28000000Y16560000D02*
X26050000Y16560000D01*
X28000000Y16560000D02*
X29950000Y16560000D01*
X28000000Y11440000D02*
X26050000Y11440000D01*
X28000000Y11440000D02*
X29950000Y11440000D01*
X25300000Y16465000D02*
X25060000Y16795000D01*
X25540000Y16795000D01*
X25300000Y16465000D01*
G36*
X25300000Y16465000D02*
G01*
X25060000Y16795000D01*
X25540000Y16795000D01*
X25300000Y16465000D01*
G37*
%TO.C,R122*%
X32903641Y15130000D02*
X32596359Y15130000D01*
X32903641Y14370000D02*
X32596359Y14370000D01*
%TO.C,C121*%
X22515000Y13511252D02*
X22515000Y12988748D01*
X23985000Y13511252D02*
X23985000Y12988748D01*
%TO.C,C120*%
X9357836Y16360000D02*
X9142164Y16360000D01*
X9357836Y15640000D02*
X9142164Y15640000D01*
%TO.C,R119*%
X18903641Y13630000D02*
X18596359Y13630000D01*
X18903641Y12870000D02*
X18596359Y12870000D01*
D11*
%TO.C,J110*%
X10875800Y10603500D02*
X10875800Y7460941D01*
X11862460Y10603500D02*
X10875800Y10603500D01*
X12129641Y5396501D02*
X15870359Y5396501D01*
X17124200Y10603500D02*
X16137540Y10603500D01*
X17124200Y7460941D02*
X17124200Y10603500D01*
D12*
X9478800Y10051500D02*
G75*
G02*
X8716800Y10051500I-381000J0D01*
G01*
X8716800Y10051500D02*
G75*
G02*
X9478800Y10051500I381000J0D01*
G01*
D10*
%TO.C,IC110*%
X14000000Y16560000D02*
X12050000Y16560000D01*
X14000000Y16560000D02*
X15950000Y16560000D01*
X14000000Y11440000D02*
X12050000Y11440000D01*
X14000000Y11440000D02*
X15950000Y11440000D01*
X11300000Y16465000D02*
X11060000Y16795000D01*
X11540000Y16795000D01*
X11300000Y16465000D01*
G36*
X11300000Y16465000D02*
G01*
X11060000Y16795000D01*
X11540000Y16795000D01*
X11300000Y16465000D01*
G37*
%TO.C,R120*%
X18903641Y15130000D02*
X18596359Y15130000D01*
X18903641Y14370000D02*
X18596359Y14370000D01*
%TO.C,C119*%
X8515000Y13511252D02*
X8515000Y12988748D01*
X9985000Y13511252D02*
X9985000Y12988748D01*
%TO.C,C118*%
X-4642164Y16360000D02*
X-4857836Y16360000D01*
X-4642164Y15640000D02*
X-4857836Y15640000D01*
%TO.C,R117*%
X4903641Y13630000D02*
X4596359Y13630000D01*
X4903641Y12870000D02*
X4596359Y12870000D01*
D11*
%TO.C,J109*%
X-3124200Y10603500D02*
X-3124200Y7460941D01*
X-2137540Y10603500D02*
X-3124200Y10603500D01*
X-1870359Y5396501D02*
X1870359Y5396501D01*
X3124200Y10603500D02*
X2137540Y10603500D01*
X3124200Y7460941D02*
X3124200Y10603500D01*
D12*
X-4521200Y10051500D02*
G75*
G02*
X-5283200Y10051500I-381000J0D01*
G01*
X-5283200Y10051500D02*
G75*
G02*
X-4521200Y10051500I381000J0D01*
G01*
D10*
%TO.C,IC109*%
X0Y16560000D02*
X-1950000Y16560000D01*
X0Y16560000D02*
X1950000Y16560000D01*
X0Y11440000D02*
X-1950000Y11440000D01*
X0Y11440000D02*
X1950000Y11440000D01*
X-2700000Y16465000D02*
X-2940000Y16795000D01*
X-2460000Y16795000D01*
X-2700000Y16465000D01*
G36*
X-2700000Y16465000D02*
G01*
X-2940000Y16795000D01*
X-2460000Y16795000D01*
X-2700000Y16465000D01*
G37*
%TO.C,R118*%
X4903641Y15130000D02*
X4596359Y15130000D01*
X4903641Y14370000D02*
X4596359Y14370000D01*
%TO.C,C117*%
X-5485000Y13511252D02*
X-5485000Y12988748D01*
X-4015000Y13511252D02*
X-4015000Y12988748D01*
%TO.C,C116*%
X-18642164Y16360000D02*
X-18857836Y16360000D01*
X-18642164Y15640000D02*
X-18857836Y15640000D01*
%TO.C,R115*%
X-9096359Y13630000D02*
X-9403641Y13630000D01*
X-9096359Y12870000D02*
X-9403641Y12870000D01*
D11*
%TO.C,J108*%
X-17124200Y10603500D02*
X-17124200Y7460941D01*
X-16137540Y10603500D02*
X-17124200Y10603500D01*
X-15870359Y5396501D02*
X-12129641Y5396501D01*
X-10875800Y10603500D02*
X-11862460Y10603500D01*
X-10875800Y7460941D02*
X-10875800Y10603500D01*
D12*
X-18521200Y10051500D02*
G75*
G02*
X-19283200Y10051500I-381000J0D01*
G01*
X-19283200Y10051500D02*
G75*
G02*
X-18521200Y10051500I381000J0D01*
G01*
D10*
%TO.C,IC108*%
X-14000000Y16560000D02*
X-15950000Y16560000D01*
X-14000000Y16560000D02*
X-12050000Y16560000D01*
X-14000000Y11440000D02*
X-15950000Y11440000D01*
X-14000000Y11440000D02*
X-12050000Y11440000D01*
X-16700000Y16465000D02*
X-16940000Y16795000D01*
X-16460000Y16795000D01*
X-16700000Y16465000D01*
G36*
X-16700000Y16465000D02*
G01*
X-16940000Y16795000D01*
X-16460000Y16795000D01*
X-16700000Y16465000D01*
G37*
%TO.C,R116*%
X-9096359Y15130000D02*
X-9403641Y15130000D01*
X-9096359Y14370000D02*
X-9403641Y14370000D01*
%TO.C,C115*%
X-19485000Y13511252D02*
X-19485000Y12988748D01*
X-18015000Y13511252D02*
X-18015000Y12988748D01*
%TO.C,C114*%
X-32642164Y16360000D02*
X-32857836Y16360000D01*
X-32642164Y15640000D02*
X-32857836Y15640000D01*
%TO.C,R113*%
X-23096359Y13630000D02*
X-23403641Y13630000D01*
X-23096359Y12870000D02*
X-23403641Y12870000D01*
D11*
%TO.C,J107*%
X-31124200Y10603500D02*
X-31124200Y7460941D01*
X-30137540Y10603500D02*
X-31124200Y10603500D01*
X-29870359Y5396501D02*
X-26129641Y5396501D01*
X-24875800Y10603500D02*
X-25862460Y10603500D01*
X-24875800Y7460941D02*
X-24875800Y10603500D01*
D12*
X-32521200Y10051500D02*
G75*
G02*
X-33283200Y10051500I-381000J0D01*
G01*
X-33283200Y10051500D02*
G75*
G02*
X-32521200Y10051500I381000J0D01*
G01*
D10*
%TO.C,IC107*%
X-28000000Y16560000D02*
X-29950000Y16560000D01*
X-28000000Y16560000D02*
X-26050000Y16560000D01*
X-28000000Y11440000D02*
X-29950000Y11440000D01*
X-28000000Y11440000D02*
X-26050000Y11440000D01*
X-30700000Y16465000D02*
X-30940000Y16795000D01*
X-30460000Y16795000D01*
X-30700000Y16465000D01*
G36*
X-30700000Y16465000D02*
G01*
X-30940000Y16795000D01*
X-30460000Y16795000D01*
X-30700000Y16465000D01*
G37*
%TO.C,R114*%
X-23096359Y15130000D02*
X-23403641Y15130000D01*
X-23096359Y14370000D02*
X-23403641Y14370000D01*
%TO.C,C113*%
X-33485000Y13511252D02*
X-33485000Y12988748D01*
X-32015000Y13511252D02*
X-32015000Y12988748D01*
%TO.C,C112*%
X23357836Y30360000D02*
X23142164Y30360000D01*
X23357836Y29640000D02*
X23142164Y29640000D01*
%TO.C,R111*%
X32903641Y27630000D02*
X32596359Y27630000D01*
X32903641Y26870000D02*
X32596359Y26870000D01*
D11*
%TO.C,J106*%
X24875800Y24603500D02*
X24875800Y21460941D01*
X25862460Y24603500D02*
X24875800Y24603500D01*
X26129641Y19396501D02*
X29870359Y19396501D01*
X31124200Y24603500D02*
X30137540Y24603500D01*
X31124200Y21460941D02*
X31124200Y24603500D01*
D12*
X23478800Y24051500D02*
G75*
G02*
X22716800Y24051500I-381000J0D01*
G01*
X22716800Y24051500D02*
G75*
G02*
X23478800Y24051500I381000J0D01*
G01*
D10*
%TO.C,IC106*%
X28000000Y30560000D02*
X26050000Y30560000D01*
X28000000Y30560000D02*
X29950000Y30560000D01*
X28000000Y25440000D02*
X26050000Y25440000D01*
X28000000Y25440000D02*
X29950000Y25440000D01*
X25300000Y30465000D02*
X25060000Y30795000D01*
X25540000Y30795000D01*
X25300000Y30465000D01*
G36*
X25300000Y30465000D02*
G01*
X25060000Y30795000D01*
X25540000Y30795000D01*
X25300000Y30465000D01*
G37*
%TO.C,R112*%
X32903641Y29130000D02*
X32596359Y29130000D01*
X32903641Y28370000D02*
X32596359Y28370000D01*
%TO.C,C111*%
X22515000Y27511252D02*
X22515000Y26988748D01*
X23985000Y27511252D02*
X23985000Y26988748D01*
%TO.C,C110*%
X9357836Y30360000D02*
X9142164Y30360000D01*
X9357836Y29640000D02*
X9142164Y29640000D01*
%TO.C,R109*%
X18903641Y27630000D02*
X18596359Y27630000D01*
X18903641Y26870000D02*
X18596359Y26870000D01*
D11*
%TO.C,J105*%
X10875800Y24603500D02*
X10875800Y21460941D01*
X11862460Y24603500D02*
X10875800Y24603500D01*
X12129641Y19396501D02*
X15870359Y19396501D01*
X17124200Y24603500D02*
X16137540Y24603500D01*
X17124200Y21460941D02*
X17124200Y24603500D01*
D12*
X9478800Y24051500D02*
G75*
G02*
X8716800Y24051500I-381000J0D01*
G01*
X8716800Y24051500D02*
G75*
G02*
X9478800Y24051500I381000J0D01*
G01*
D10*
%TO.C,IC105*%
X14000000Y30560000D02*
X12050000Y30560000D01*
X14000000Y30560000D02*
X15950000Y30560000D01*
X14000000Y25440000D02*
X12050000Y25440000D01*
X14000000Y25440000D02*
X15950000Y25440000D01*
X11300000Y30465000D02*
X11060000Y30795000D01*
X11540000Y30795000D01*
X11300000Y30465000D01*
G36*
X11300000Y30465000D02*
G01*
X11060000Y30795000D01*
X11540000Y30795000D01*
X11300000Y30465000D01*
G37*
%TO.C,R110*%
X18903641Y29130000D02*
X18596359Y29130000D01*
X18903641Y28370000D02*
X18596359Y28370000D01*
%TO.C,C109*%
X8515000Y27511252D02*
X8515000Y26988748D01*
X9985000Y27511252D02*
X9985000Y26988748D01*
%TO.C,C108*%
X-4642164Y30360000D02*
X-4857836Y30360000D01*
X-4642164Y29640000D02*
X-4857836Y29640000D01*
%TO.C,R107*%
X4903641Y27630000D02*
X4596359Y27630000D01*
X4903641Y26870000D02*
X4596359Y26870000D01*
D11*
%TO.C,J104*%
X-3124200Y24603500D02*
X-3124200Y21460941D01*
X-2137540Y24603500D02*
X-3124200Y24603500D01*
X-1870359Y19396501D02*
X1870359Y19396501D01*
X3124200Y24603500D02*
X2137540Y24603500D01*
X3124200Y21460941D02*
X3124200Y24603500D01*
D12*
X-4521200Y24051500D02*
G75*
G02*
X-5283200Y24051500I-381000J0D01*
G01*
X-5283200Y24051500D02*
G75*
G02*
X-4521200Y24051500I381000J0D01*
G01*
D10*
%TO.C,IC104*%
X0Y30560000D02*
X-1950000Y30560000D01*
X0Y30560000D02*
X1950000Y30560000D01*
X0Y25440000D02*
X-1950000Y25440000D01*
X0Y25440000D02*
X1950000Y25440000D01*
X-2700000Y30465000D02*
X-2940000Y30795000D01*
X-2460000Y30795000D01*
X-2700000Y30465000D01*
G36*
X-2700000Y30465000D02*
G01*
X-2940000Y30795000D01*
X-2460000Y30795000D01*
X-2700000Y30465000D01*
G37*
%TO.C,R108*%
X4903641Y29130000D02*
X4596359Y29130000D01*
X4903641Y28370000D02*
X4596359Y28370000D01*
%TO.C,C107*%
X-5485000Y27511252D02*
X-5485000Y26988748D01*
X-4015000Y27511252D02*
X-4015000Y26988748D01*
%TO.C,C106*%
X-18642164Y30360000D02*
X-18857836Y30360000D01*
X-18642164Y29640000D02*
X-18857836Y29640000D01*
%TO.C,R105*%
X-9096359Y27630000D02*
X-9403641Y27630000D01*
X-9096359Y26870000D02*
X-9403641Y26870000D01*
D11*
%TO.C,J103*%
X-17124200Y24603500D02*
X-17124200Y21460941D01*
X-16137540Y24603500D02*
X-17124200Y24603500D01*
X-15870359Y19396501D02*
X-12129641Y19396501D01*
X-10875800Y24603500D02*
X-11862460Y24603500D01*
X-10875800Y21460941D02*
X-10875800Y24603500D01*
D12*
X-18521200Y24051500D02*
G75*
G02*
X-19283200Y24051500I-381000J0D01*
G01*
X-19283200Y24051500D02*
G75*
G02*
X-18521200Y24051500I381000J0D01*
G01*
D10*
%TO.C,IC103*%
X-14000000Y30560000D02*
X-15950000Y30560000D01*
X-14000000Y30560000D02*
X-12050000Y30560000D01*
X-14000000Y25440000D02*
X-15950000Y25440000D01*
X-14000000Y25440000D02*
X-12050000Y25440000D01*
X-16700000Y30465000D02*
X-16940000Y30795000D01*
X-16460000Y30795000D01*
X-16700000Y30465000D01*
G36*
X-16700000Y30465000D02*
G01*
X-16940000Y30795000D01*
X-16460000Y30795000D01*
X-16700000Y30465000D01*
G37*
%TO.C,R106*%
X-9096359Y29130000D02*
X-9403641Y29130000D01*
X-9096359Y28370000D02*
X-9403641Y28370000D01*
%TO.C,C105*%
X-19485000Y27511252D02*
X-19485000Y26988748D01*
X-18015000Y27511252D02*
X-18015000Y26988748D01*
%TO.C,C104*%
X-32642164Y30360000D02*
X-32857836Y30360000D01*
X-32642164Y29640000D02*
X-32857836Y29640000D01*
%TO.C,R103*%
X-23096359Y27630000D02*
X-23403641Y27630000D01*
X-23096359Y26870000D02*
X-23403641Y26870000D01*
D11*
%TO.C,J102*%
X-31124200Y24603500D02*
X-31124200Y21460941D01*
X-30137540Y24603500D02*
X-31124200Y24603500D01*
X-29870359Y19396501D02*
X-26129641Y19396501D01*
X-24875800Y24603500D02*
X-25862460Y24603500D01*
X-24875800Y21460941D02*
X-24875800Y24603500D01*
D12*
X-32521200Y24051500D02*
G75*
G02*
X-33283200Y24051500I-381000J0D01*
G01*
X-33283200Y24051500D02*
G75*
G02*
X-32521200Y24051500I381000J0D01*
G01*
D10*
%TO.C,IC102*%
X-28000000Y30560000D02*
X-29950000Y30560000D01*
X-28000000Y30560000D02*
X-26050000Y30560000D01*
X-28000000Y25440000D02*
X-29950000Y25440000D01*
X-28000000Y25440000D02*
X-26050000Y25440000D01*
X-30700000Y30465000D02*
X-30940000Y30795000D01*
X-30460000Y30795000D01*
X-30700000Y30465000D01*
G36*
X-30700000Y30465000D02*
G01*
X-30940000Y30795000D01*
X-30460000Y30795000D01*
X-30700000Y30465000D01*
G37*
%TO.C,R104*%
X-23096359Y29130000D02*
X-23403641Y29130000D01*
X-23096359Y28370000D02*
X-23403641Y28370000D01*
%TO.C,C103*%
X-33485000Y27511252D02*
X-33485000Y26988748D01*
X-32015000Y27511252D02*
X-32015000Y26988748D01*
%TO.C,C102*%
X23357836Y-25640000D02*
X23142164Y-25640000D01*
X23357836Y-26360000D02*
X23142164Y-26360000D01*
%TO.C,IC101*%
X28000000Y-25440000D02*
X26050000Y-25440000D01*
X28000000Y-25440000D02*
X29950000Y-25440000D01*
X28000000Y-30560000D02*
X26050000Y-30560000D01*
X28000000Y-30560000D02*
X29950000Y-30560000D01*
X25300000Y-25535000D02*
X25060000Y-25205000D01*
X25540000Y-25205000D01*
X25300000Y-25535000D01*
G36*
X25300000Y-25535000D02*
G01*
X25060000Y-25205000D01*
X25540000Y-25205000D01*
X25300000Y-25535000D01*
G37*
%TO.C,R101*%
X32903641Y-28370000D02*
X32596359Y-28370000D01*
X32903641Y-29130000D02*
X32596359Y-29130000D01*
%TO.C,R102*%
X32903641Y-26870000D02*
X32596359Y-26870000D01*
X32903641Y-27630000D02*
X32596359Y-27630000D01*
D11*
%TO.C,J101*%
X24875800Y-31396500D02*
X24875800Y-34539059D01*
X25862460Y-31396500D02*
X24875800Y-31396500D01*
X26129641Y-36603499D02*
X29870359Y-36603499D01*
X31124200Y-31396500D02*
X30137540Y-31396500D01*
X31124200Y-34539059D02*
X31124200Y-31396500D01*
D12*
X23478800Y-31948500D02*
G75*
G02*
X22716800Y-31948500I-381000J0D01*
G01*
X22716800Y-31948500D02*
G75*
G02*
X23478800Y-31948500I381000J0D01*
G01*
D10*
%TO.C,C101*%
X22515000Y-28488748D02*
X22515000Y-29011252D01*
X23985000Y-28488748D02*
X23985000Y-29011252D01*
D13*
%TO.C,mouse-bite-2mm-slot7*%
X12000000Y19000000D02*
G75*
G02*
X12000000Y17000000I0J-1000000D01*
G01*
X16000000Y17000000D02*
G75*
G02*
X16000000Y19000000I0J1000000D01*
G01*
%TO.C,mouse-bite-2mm-slot9*%
X26000000Y19000000D02*
G75*
G02*
X26000000Y17000000I0J-1000000D01*
G01*
X30000000Y17000000D02*
G75*
G02*
X30000000Y19000000I0J1000000D01*
G01*
%TO.C,mouse-bite-2mm-slot30*%
X20000000Y-1500000D02*
G75*
G02*
X22000000Y-1500000I1000000J0D01*
G01*
X22000000Y2500000D02*
G75*
G02*
X20000000Y2500000I-1000000J0D01*
G01*
%TO.C,mouse-bite-2mm-slot37*%
X12000000Y-23000000D02*
G75*
G02*
X12000000Y-25000000I0J-1000000D01*
G01*
X16000000Y-25000000D02*
G75*
G02*
X16000000Y-23000000I0J1000000D01*
G01*
%TO.C,mouse-bite-2mm-slot11*%
X-30000000Y5000000D02*
G75*
G02*
X-30000000Y3000000I0J-1000000D01*
G01*
X-26000000Y3000000D02*
G75*
G02*
X-26000000Y5000000I0J1000000D01*
G01*
%TO.C,mouse-bite-2mm-slot15*%
X-2000000Y5000000D02*
G75*
G02*
X-2000000Y3000000I0J-1000000D01*
G01*
X2000000Y3000000D02*
G75*
G02*
X2000000Y5000000I0J1000000D01*
G01*
%TO.C,mouse-bite-2mm-slot36*%
X-8000000Y-15500000D02*
G75*
G02*
X-6000000Y-15500000I1000000J0D01*
G01*
X-6000000Y-11500000D02*
G75*
G02*
X-8000000Y-11500000I-1000000J0D01*
G01*
%TO.C,mouse-bite-2mm-slot39*%
X26000000Y-23000000D02*
G75*
G02*
X26000000Y-25000000I0J-1000000D01*
G01*
X30000000Y-25000000D02*
G75*
G02*
X30000000Y-23000000I0J1000000D01*
G01*
%TO.C,mouse-bite-2mm-slot*%
X26000000Y-37000000D02*
G75*
G02*
X26000000Y-39000000I0J-1000000D01*
G01*
X30000000Y-39000000D02*
G75*
G02*
X30000000Y-37000000I0J1000000D01*
G01*
%TO.C,mouse-bite-2mm-slot27*%
X12000000Y-9000000D02*
G75*
G02*
X12000000Y-11000000I0J-1000000D01*
G01*
X16000000Y-11000000D02*
G75*
G02*
X16000000Y-9000000I0J1000000D01*
G01*
%TO.C,mouse-bite-2mm-slot*%
X-30000000Y33000000D02*
G75*
G02*
X-30000000Y31000000I0J-1000000D01*
G01*
X-26000000Y31000000D02*
G75*
G02*
X-26000000Y33000000I0J1000000D01*
G01*
X20000000Y-29500000D02*
G75*
G02*
X22000000Y-29500000I1000000J0D01*
G01*
X22000000Y-25500000D02*
G75*
G02*
X20000000Y-25500000I-1000000J0D01*
G01*
%TO.C,mouse-bite-2mm-slot35*%
X-2000000Y-23000000D02*
G75*
G02*
X-2000000Y-25000000I0J-1000000D01*
G01*
X2000000Y-25000000D02*
G75*
G02*
X2000000Y-23000000I0J1000000D01*
G01*
%TO.C,mouse-bite-2mm-slot43*%
X12000000Y33000000D02*
G75*
G02*
X12000000Y31000000I0J-1000000D01*
G01*
X16000000Y31000000D02*
G75*
G02*
X16000000Y33000000I0J1000000D01*
G01*
X-16000000Y-37000000D02*
G75*
G02*
X-16000000Y-39000000I0J-1000000D01*
G01*
X-12000000Y-39000000D02*
G75*
G02*
X-12000000Y-37000000I0J1000000D01*
G01*
%TO.C,mouse-bite-2mm-slot14*%
X-22000000Y12500000D02*
G75*
G02*
X-20000000Y12500000I1000000J0D01*
G01*
X-20000000Y16500000D02*
G75*
G02*
X-22000000Y16500000I-1000000J0D01*
G01*
%TO.C,mouse-bite-2mm-slot25*%
X-2000000Y-9000000D02*
G75*
G02*
X-2000000Y-11000000I0J-1000000D01*
G01*
X2000000Y-11000000D02*
G75*
G02*
X2000000Y-9000000I0J1000000D01*
G01*
%TO.C,mouse-bite-2mm-slot31*%
X-30000000Y-23000000D02*
G75*
G02*
X-30000000Y-25000000I0J-1000000D01*
G01*
X-26000000Y-25000000D02*
G75*
G02*
X-26000000Y-23000000I0J1000000D01*
G01*
%TO.C,mouse-bite-2mm-slot21*%
X-30000000Y-9000000D02*
G75*
G02*
X-30000000Y-11000000I0J-1000000D01*
G01*
X-26000000Y-11000000D02*
G75*
G02*
X-26000000Y-9000000I0J1000000D01*
G01*
%TO.C,mouse-bite-2mm-slot40*%
X20000000Y-15500000D02*
G75*
G02*
X22000000Y-15500000I1000000J0D01*
G01*
X22000000Y-11500000D02*
G75*
G02*
X20000000Y-11500000I-1000000J0D01*
G01*
%TO.C,mouse-bite-2mm-slot41*%
X26000000Y33000000D02*
G75*
G02*
X26000000Y31000000I0J-1000000D01*
G01*
X30000000Y31000000D02*
G75*
G02*
X30000000Y33000000I0J1000000D01*
G01*
%TO.C,mouse-bite-2mm-slot44*%
X-22000000Y-29500000D02*
G75*
G02*
X-20000000Y-29500000I1000000J0D01*
G01*
X-20000000Y-25500000D02*
G75*
G02*
X-22000000Y-25500000I-1000000J0D01*
G01*
%TO.C,mouse-bite-2mm-slot34*%
X-22000000Y-15500000D02*
G75*
G02*
X-20000000Y-15500000I1000000J0D01*
G01*
X-20000000Y-11500000D02*
G75*
G02*
X-22000000Y-11500000I-1000000J0D01*
G01*
%TO.C,mouse-bite-2mm-slot28*%
X6000000Y-1500000D02*
G75*
G02*
X8000000Y-1500000I1000000J0D01*
G01*
X8000000Y2500000D02*
G75*
G02*
X6000000Y2500000I-1000000J0D01*
G01*
%TO.C,mouse-bite-2mm-slot38*%
X6000000Y-15500000D02*
G75*
G02*
X8000000Y-15500000I1000000J0D01*
G01*
X8000000Y-11500000D02*
G75*
G02*
X6000000Y-11500000I-1000000J0D01*
G01*
%TO.C,mouse-bite-2mm-slot45*%
X-2000000Y33000000D02*
G75*
G02*
X-2000000Y31000000I0J-1000000D01*
G01*
X2000000Y31000000D02*
G75*
G02*
X2000000Y33000000I0J1000000D01*
G01*
%TO.C,mouse-bite-2mm-slot48*%
X6000000Y-29500000D02*
G75*
G02*
X8000000Y-29500000I1000000J0D01*
G01*
X8000000Y-25500000D02*
G75*
G02*
X6000000Y-25500000I-1000000J0D01*
G01*
%TO.C,mouse-bite-2mm-slot5*%
X-2000000Y19000000D02*
G75*
G02*
X-2000000Y17000000I0J-1000000D01*
G01*
X2000000Y17000000D02*
G75*
G02*
X2000000Y19000000I0J1000000D01*
G01*
%TO.C,mouse-bite-2mm-slot1*%
X-30000000Y19000000D02*
G75*
G02*
X-30000000Y17000000I0J-1000000D01*
G01*
X-26000000Y17000000D02*
G75*
G02*
X-26000000Y19000000I0J1000000D01*
G01*
%TO.C,mouse-bite-2mm-slot47*%
X-16000000Y33000000D02*
G75*
G02*
X-16000000Y31000000I0J-1000000D01*
G01*
X-12000000Y31000000D02*
G75*
G02*
X-12000000Y33000000I0J1000000D01*
G01*
%TO.C,mouse-bite-2mm-slot17*%
X12000000Y5000000D02*
G75*
G02*
X12000000Y3000000I0J-1000000D01*
G01*
X16000000Y3000000D02*
G75*
G02*
X16000000Y5000000I0J1000000D01*
G01*
%TO.C,mouse-bite-2mm-slot20*%
X20000000Y12500000D02*
G75*
G02*
X22000000Y12500000I1000000J0D01*
G01*
X22000000Y16500000D02*
G75*
G02*
X20000000Y16500000I-1000000J0D01*
G01*
%TO.C,mouse-bite-2mm-slot6*%
X-8000000Y26500000D02*
G75*
G02*
X-6000000Y26500000I1000000J0D01*
G01*
X-6000000Y30500000D02*
G75*
G02*
X-8000000Y30500000I-1000000J0D01*
G01*
%TO.C,mouse-bite-2mm-slot3*%
X-16000000Y19000000D02*
G75*
G02*
X-16000000Y17000000I0J-1000000D01*
G01*
X-12000000Y17000000D02*
G75*
G02*
X-12000000Y19000000I0J1000000D01*
G01*
%TO.C,mouse-bite-2mm-slot45*%
X-2000000Y-37000000D02*
G75*
G02*
X-2000000Y-39000000I0J-1000000D01*
G01*
X2000000Y-39000000D02*
G75*
G02*
X2000000Y-37000000I0J1000000D01*
G01*
%TO.C,mouse-bite-2mm-slot47*%
X12000000Y-37000000D02*
G75*
G02*
X12000000Y-39000000I0J-1000000D01*
G01*
X16000000Y-39000000D02*
G75*
G02*
X16000000Y-37000000I0J1000000D01*
G01*
%TO.C,mouse-bite-2mm-slot29*%
X26000000Y-9000000D02*
G75*
G02*
X26000000Y-11000000I0J-1000000D01*
G01*
X30000000Y-11000000D02*
G75*
G02*
X30000000Y-9000000I0J1000000D01*
G01*
%TO.C,mouse-bite-2mm-slot10*%
X20000000Y26500000D02*
G75*
G02*
X22000000Y26500000I1000000J0D01*
G01*
X22000000Y30500000D02*
G75*
G02*
X20000000Y30500000I-1000000J0D01*
G01*
%TO.C,mouse-bite-2mm-slot33*%
X-16000000Y-23000000D02*
G75*
G02*
X-16000000Y-25000000I0J-1000000D01*
G01*
X-12000000Y-25000000D02*
G75*
G02*
X-12000000Y-23000000I0J1000000D01*
G01*
%TO.C,mouse-bite-2mm-slot19*%
X26000000Y5000000D02*
G75*
G02*
X26000000Y3000000I0J-1000000D01*
G01*
X30000000Y3000000D02*
G75*
G02*
X30000000Y5000000I0J1000000D01*
G01*
%TO.C,mouse-bite-2mm-slot4*%
X-22000000Y26500000D02*
G75*
G02*
X-20000000Y26500000I1000000J0D01*
G01*
X-20000000Y30500000D02*
G75*
G02*
X-22000000Y30500000I-1000000J0D01*
G01*
%TO.C,mouse-bite-2mm-slot46*%
X-8000000Y-29500000D02*
G75*
G02*
X-6000000Y-29500000I1000000J0D01*
G01*
X-6000000Y-25500000D02*
G75*
G02*
X-8000000Y-25500000I-1000000J0D01*
G01*
%TO.C,mouse-bite-2mm-slot8*%
X6000000Y26500000D02*
G75*
G02*
X8000000Y26500000I1000000J0D01*
G01*
X8000000Y30500000D02*
G75*
G02*
X6000000Y30500000I-1000000J0D01*
G01*
%TO.C,mouse-bite-2mm-slot18*%
X6000000Y12500000D02*
G75*
G02*
X8000000Y12500000I1000000J0D01*
G01*
X8000000Y16500000D02*
G75*
G02*
X6000000Y16500000I-1000000J0D01*
G01*
%TO.C,mouse-bite-2mm-slot41*%
X-30000000Y-37000000D02*
G75*
G02*
X-30000000Y-39000000I0J-1000000D01*
G01*
X-26000000Y-39000000D02*
G75*
G02*
X-26000000Y-37000000I0J1000000D01*
G01*
%TO.C,mouse-bite-2mm-slot24*%
X-22000000Y-1500000D02*
G75*
G02*
X-20000000Y-1500000I1000000J0D01*
G01*
X-20000000Y2500000D02*
G75*
G02*
X-22000000Y2500000I-1000000J0D01*
G01*
%TO.C,mouse-bite-2mm-slot13*%
X-16000000Y5000000D02*
G75*
G02*
X-16000000Y3000000I0J-1000000D01*
G01*
X-12000000Y3000000D02*
G75*
G02*
X-12000000Y5000000I0J1000000D01*
G01*
%TO.C,mouse-bite-2mm-slot26*%
X-8000000Y-1500000D02*
G75*
G02*
X-6000000Y-1500000I1000000J0D01*
G01*
X-6000000Y2500000D02*
G75*
G02*
X-8000000Y2500000I-1000000J0D01*
G01*
%TO.C,mouse-bite-2mm-slot16*%
X-8000000Y12500000D02*
G75*
G02*
X-6000000Y12500000I1000000J0D01*
G01*
X-6000000Y16500000D02*
G75*
G02*
X-8000000Y16500000I-1000000J0D01*
G01*
%TO.C,mouse-bite-2mm-slot23*%
X-16000000Y-9000000D02*
G75*
G02*
X-16000000Y-11000000I0J-1000000D01*
G01*
X-12000000Y-11000000D02*
G75*
G02*
X-12000000Y-9000000I0J1000000D01*
G01*
%TD*%
M02*
