%TF.GenerationSoftware,KiCad,Pcbnew,9.0.3*%
%TF.CreationDate,2026-09-10T02:15:17-04:00*%
%TF.ProjectId,EEOP_Testbed,45454f50-5f54-4657-9374-6265642e6b69,rev?*%
%TF.SameCoordinates,Original*%
%TF.FileFunction,Legend,Bot*%
%TF.FilePolarity,Positive*%
%FSLAX46Y46*%
G04 Gerber Fmt 4.6, Leading zero omitted, Abs format (unit mm)*
G04 Created by KiCad (PCBNEW 9.0.3) date 2026-09-10 02:15:17*
%MOMM*%
%LPD*%
G01*
G04 APERTURE LIST*
%ADD10C,0.150000*%
%ADD11C,0.127000*%
%ADD12C,0.200000*%
G04 APERTURE END LIST*
D10*
X93675413Y-52959143D02*
X94132556Y-52959143D01*
X94132556Y-52959143D02*
X94223984Y-52928666D01*
X94223984Y-52928666D02*
X94284937Y-52867714D01*
X94284937Y-52867714D02*
X94315413Y-52776285D01*
X94315413Y-52776285D02*
X94315413Y-52715333D01*
X93736365Y-53233428D02*
X93705889Y-53263904D01*
X93705889Y-53263904D02*
X93675413Y-53324857D01*
X93675413Y-53324857D02*
X93675413Y-53477238D01*
X93675413Y-53477238D02*
X93705889Y-53538190D01*
X93705889Y-53538190D02*
X93736365Y-53568666D01*
X93736365Y-53568666D02*
X93797317Y-53599143D01*
X93797317Y-53599143D02*
X93858270Y-53599143D01*
X93858270Y-53599143D02*
X93949698Y-53568666D01*
X93949698Y-53568666D02*
X94315413Y-53202952D01*
X94315413Y-53202952D02*
X94315413Y-53599143D01*
X93675413Y-53995333D02*
X93675413Y-54056286D01*
X93675413Y-54056286D02*
X93705889Y-54117238D01*
X93705889Y-54117238D02*
X93736365Y-54147714D01*
X93736365Y-54147714D02*
X93797317Y-54178190D01*
X93797317Y-54178190D02*
X93919222Y-54208667D01*
X93919222Y-54208667D02*
X94071603Y-54208667D01*
X94071603Y-54208667D02*
X94193508Y-54178190D01*
X94193508Y-54178190D02*
X94254460Y-54147714D01*
X94254460Y-54147714D02*
X94284937Y-54117238D01*
X94284937Y-54117238D02*
X94315413Y-54056286D01*
X94315413Y-54056286D02*
X94315413Y-53995333D01*
X94315413Y-53995333D02*
X94284937Y-53934381D01*
X94284937Y-53934381D02*
X94254460Y-53903905D01*
X94254460Y-53903905D02*
X94193508Y-53873428D01*
X94193508Y-53873428D02*
X94071603Y-53842952D01*
X94071603Y-53842952D02*
X93919222Y-53842952D01*
X93919222Y-53842952D02*
X93797317Y-53873428D01*
X93797317Y-53873428D02*
X93736365Y-53903905D01*
X93736365Y-53903905D02*
X93705889Y-53934381D01*
X93705889Y-53934381D02*
X93675413Y-53995333D01*
X94315413Y-54818191D02*
X94315413Y-54452476D01*
X94315413Y-54635333D02*
X93675413Y-54635333D01*
X93675413Y-54635333D02*
X93766841Y-54574381D01*
X93766841Y-54574381D02*
X93827794Y-54513429D01*
X93827794Y-54513429D02*
X93858270Y-54452476D01*
D11*
%TO.C,J201*%
X95683537Y-51750000D02*
X97313537Y-51750000D01*
X95683537Y-52530000D02*
X95683537Y-51750000D01*
X95683537Y-68970000D02*
X95683537Y-69750000D01*
X95683537Y-69750000D02*
X97313537Y-69750000D01*
X98583537Y-52520000D02*
X98583537Y-68980000D01*
D12*
X94333537Y-68500000D02*
G75*
G02*
X94133537Y-68500000I-100000J0D01*
G01*
X94133537Y-68500000D02*
G75*
G02*
X94333537Y-68500000I100000J0D01*
G01*
%TD*%
M02*
