%TF.GenerationSoftware,KiCad,Pcbnew,9.0.3*%
%TF.CreationDate,2026-09-10T02:15:17-04:00*%
%TF.ProjectId,EEOP_Testbed,45454f50-5f54-4657-9374-6265642e6b69,rev?*%
%TF.SameCoordinates,Original*%
%TF.FileFunction,Legend,Top*%
%TF.FilePolarity,Positive*%
%FSLAX46Y46*%
G04 Gerber Fmt 4.6, Leading zero omitted, Abs format (unit mm)*
G04 Created by KiCad (PCBNEW 9.0.3) date 2026-09-10 02:15:17*
%MOMM*%
%LPD*%
G01*
G04 APERTURE LIST*
%ADD10C,0.150000*%
%ADD11C,0.100000*%
%ADD12C,0.120000*%
%ADD13C,0.127000*%
%ADD14C,0.160000*%
%ADD15C,0.200000*%
%ADD16C,0.152400*%
G04 APERTURE END LIST*
D10*
X50460707Y-24874580D02*
X50413088Y-24922200D01*
X50413088Y-24922200D02*
X50270231Y-24969819D01*
X50270231Y-24969819D02*
X50174993Y-24969819D01*
X50174993Y-24969819D02*
X50032136Y-24922200D01*
X50032136Y-24922200D02*
X49936898Y-24826961D01*
X49936898Y-24826961D02*
X49889279Y-24731723D01*
X49889279Y-24731723D02*
X49841660Y-24541247D01*
X49841660Y-24541247D02*
X49841660Y-24398390D01*
X49841660Y-24398390D02*
X49889279Y-24207914D01*
X49889279Y-24207914D02*
X49936898Y-24112676D01*
X49936898Y-24112676D02*
X50032136Y-24017438D01*
X50032136Y-24017438D02*
X50174993Y-23969819D01*
X50174993Y-23969819D02*
X50270231Y-23969819D01*
X50270231Y-23969819D02*
X50413088Y-24017438D01*
X50413088Y-24017438D02*
X50460707Y-24065057D01*
X50889279Y-24969819D02*
X50889279Y-23969819D01*
X50889279Y-24446009D02*
X51460707Y-24446009D01*
X51460707Y-24969819D02*
X51460707Y-23969819D01*
X52508326Y-24969819D02*
X52174993Y-24493628D01*
X51936898Y-24969819D02*
X51936898Y-23969819D01*
X51936898Y-23969819D02*
X52317850Y-23969819D01*
X52317850Y-23969819D02*
X52413088Y-24017438D01*
X52413088Y-24017438D02*
X52460707Y-24065057D01*
X52460707Y-24065057D02*
X52508326Y-24160295D01*
X52508326Y-24160295D02*
X52508326Y-24303152D01*
X52508326Y-24303152D02*
X52460707Y-24398390D01*
X52460707Y-24398390D02*
X52413088Y-24446009D01*
X52413088Y-24446009D02*
X52317850Y-24493628D01*
X52317850Y-24493628D02*
X51936898Y-24493628D01*
X53460707Y-24017438D02*
X53365469Y-23969819D01*
X53365469Y-23969819D02*
X53222612Y-23969819D01*
X53222612Y-23969819D02*
X53079755Y-24017438D01*
X53079755Y-24017438D02*
X52984517Y-24112676D01*
X52984517Y-24112676D02*
X52936898Y-24207914D01*
X52936898Y-24207914D02*
X52889279Y-24398390D01*
X52889279Y-24398390D02*
X52889279Y-24541247D01*
X52889279Y-24541247D02*
X52936898Y-24731723D01*
X52936898Y-24731723D02*
X52984517Y-24826961D01*
X52984517Y-24826961D02*
X53079755Y-24922200D01*
X53079755Y-24922200D02*
X53222612Y-24969819D01*
X53222612Y-24969819D02*
X53317850Y-24969819D01*
X53317850Y-24969819D02*
X53460707Y-24922200D01*
X53460707Y-24922200D02*
X53508326Y-24874580D01*
X53508326Y-24874580D02*
X53508326Y-24541247D01*
X53508326Y-24541247D02*
X53317850Y-24541247D01*
X49889279Y-28169819D02*
X49889279Y-27169819D01*
X49889279Y-27169819D02*
X50127374Y-27169819D01*
X50127374Y-27169819D02*
X50270231Y-27217438D01*
X50270231Y-27217438D02*
X50365469Y-27312676D01*
X50365469Y-27312676D02*
X50413088Y-27407914D01*
X50413088Y-27407914D02*
X50460707Y-27598390D01*
X50460707Y-27598390D02*
X50460707Y-27741247D01*
X50460707Y-27741247D02*
X50413088Y-27931723D01*
X50413088Y-27931723D02*
X50365469Y-28026961D01*
X50365469Y-28026961D02*
X50270231Y-28122200D01*
X50270231Y-28122200D02*
X50127374Y-28169819D01*
X50127374Y-28169819D02*
X49889279Y-28169819D01*
X51079755Y-27169819D02*
X51270231Y-27169819D01*
X51270231Y-27169819D02*
X51365469Y-27217438D01*
X51365469Y-27217438D02*
X51460707Y-27312676D01*
X51460707Y-27312676D02*
X51508326Y-27503152D01*
X51508326Y-27503152D02*
X51508326Y-27836485D01*
X51508326Y-27836485D02*
X51460707Y-28026961D01*
X51460707Y-28026961D02*
X51365469Y-28122200D01*
X51365469Y-28122200D02*
X51270231Y-28169819D01*
X51270231Y-28169819D02*
X51079755Y-28169819D01*
X51079755Y-28169819D02*
X50984517Y-28122200D01*
X50984517Y-28122200D02*
X50889279Y-28026961D01*
X50889279Y-28026961D02*
X50841660Y-27836485D01*
X50841660Y-27836485D02*
X50841660Y-27503152D01*
X50841660Y-27503152D02*
X50889279Y-27312676D01*
X50889279Y-27312676D02*
X50984517Y-27217438D01*
X50984517Y-27217438D02*
X51079755Y-27169819D01*
X51936898Y-28169819D02*
X51936898Y-27169819D01*
X51936898Y-27169819D02*
X52508326Y-28169819D01*
X52508326Y-28169819D02*
X52508326Y-27169819D01*
X52984517Y-27646009D02*
X53317850Y-27646009D01*
X53460707Y-28169819D02*
X52984517Y-28169819D01*
X52984517Y-28169819D02*
X52984517Y-27169819D01*
X52984517Y-27169819D02*
X53460707Y-27169819D01*
X57589160Y-47022200D02*
X57732017Y-47069819D01*
X57732017Y-47069819D02*
X57970112Y-47069819D01*
X57970112Y-47069819D02*
X58065350Y-47022200D01*
X58065350Y-47022200D02*
X58112969Y-46974580D01*
X58112969Y-46974580D02*
X58160588Y-46879342D01*
X58160588Y-46879342D02*
X58160588Y-46784104D01*
X58160588Y-46784104D02*
X58112969Y-46688866D01*
X58112969Y-46688866D02*
X58065350Y-46641247D01*
X58065350Y-46641247D02*
X57970112Y-46593628D01*
X57970112Y-46593628D02*
X57779636Y-46546009D01*
X57779636Y-46546009D02*
X57684398Y-46498390D01*
X57684398Y-46498390D02*
X57636779Y-46450771D01*
X57636779Y-46450771D02*
X57589160Y-46355533D01*
X57589160Y-46355533D02*
X57589160Y-46260295D01*
X57589160Y-46260295D02*
X57636779Y-46165057D01*
X57636779Y-46165057D02*
X57684398Y-46117438D01*
X57684398Y-46117438D02*
X57779636Y-46069819D01*
X57779636Y-46069819D02*
X58017731Y-46069819D01*
X58017731Y-46069819D02*
X58160588Y-46117438D01*
X58589160Y-46546009D02*
X58922493Y-46546009D01*
X59065350Y-47069819D02*
X58589160Y-47069819D01*
X58589160Y-47069819D02*
X58589160Y-46069819D01*
X58589160Y-46069819D02*
X59065350Y-46069819D01*
X59493922Y-47069819D02*
X59493922Y-46069819D01*
X59493922Y-46069819D02*
X60065350Y-47069819D01*
X60065350Y-47069819D02*
X60065350Y-46069819D01*
X60493922Y-47022200D02*
X60636779Y-47069819D01*
X60636779Y-47069819D02*
X60874874Y-47069819D01*
X60874874Y-47069819D02*
X60970112Y-47022200D01*
X60970112Y-47022200D02*
X61017731Y-46974580D01*
X61017731Y-46974580D02*
X61065350Y-46879342D01*
X61065350Y-46879342D02*
X61065350Y-46784104D01*
X61065350Y-46784104D02*
X61017731Y-46688866D01*
X61017731Y-46688866D02*
X60970112Y-46641247D01*
X60970112Y-46641247D02*
X60874874Y-46593628D01*
X60874874Y-46593628D02*
X60684398Y-46546009D01*
X60684398Y-46546009D02*
X60589160Y-46498390D01*
X60589160Y-46498390D02*
X60541541Y-46450771D01*
X60541541Y-46450771D02*
X60493922Y-46355533D01*
X60493922Y-46355533D02*
X60493922Y-46260295D01*
X60493922Y-46260295D02*
X60541541Y-46165057D01*
X60541541Y-46165057D02*
X60589160Y-46117438D01*
X60589160Y-46117438D02*
X60684398Y-46069819D01*
X60684398Y-46069819D02*
X60922493Y-46069819D01*
X60922493Y-46069819D02*
X61065350Y-46117438D01*
X61493922Y-46546009D02*
X61827255Y-46546009D01*
X61970112Y-47069819D02*
X61493922Y-47069819D01*
X61493922Y-47069819D02*
X61493922Y-46069819D01*
X61493922Y-46069819D02*
X61970112Y-46069819D01*
X52108207Y-72774580D02*
X52060588Y-72822200D01*
X52060588Y-72822200D02*
X51917731Y-72869819D01*
X51917731Y-72869819D02*
X51822493Y-72869819D01*
X51822493Y-72869819D02*
X51679636Y-72822200D01*
X51679636Y-72822200D02*
X51584398Y-72726961D01*
X51584398Y-72726961D02*
X51536779Y-72631723D01*
X51536779Y-72631723D02*
X51489160Y-72441247D01*
X51489160Y-72441247D02*
X51489160Y-72298390D01*
X51489160Y-72298390D02*
X51536779Y-72107914D01*
X51536779Y-72107914D02*
X51584398Y-72012676D01*
X51584398Y-72012676D02*
X51679636Y-71917438D01*
X51679636Y-71917438D02*
X51822493Y-71869819D01*
X51822493Y-71869819D02*
X51917731Y-71869819D01*
X51917731Y-71869819D02*
X52060588Y-71917438D01*
X52060588Y-71917438D02*
X52108207Y-71965057D01*
X52965350Y-72869819D02*
X52965350Y-72346009D01*
X52965350Y-72346009D02*
X52917731Y-72250771D01*
X52917731Y-72250771D02*
X52822493Y-72203152D01*
X52822493Y-72203152D02*
X52632017Y-72203152D01*
X52632017Y-72203152D02*
X52536779Y-72250771D01*
X52965350Y-72822200D02*
X52870112Y-72869819D01*
X52870112Y-72869819D02*
X52632017Y-72869819D01*
X52632017Y-72869819D02*
X52536779Y-72822200D01*
X52536779Y-72822200D02*
X52489160Y-72726961D01*
X52489160Y-72726961D02*
X52489160Y-72631723D01*
X52489160Y-72631723D02*
X52536779Y-72536485D01*
X52536779Y-72536485D02*
X52632017Y-72488866D01*
X52632017Y-72488866D02*
X52870112Y-72488866D01*
X52870112Y-72488866D02*
X52965350Y-72441247D01*
X53441541Y-72869819D02*
X53441541Y-72203152D01*
X53441541Y-72393628D02*
X53489160Y-72298390D01*
X53489160Y-72298390D02*
X53536779Y-72250771D01*
X53536779Y-72250771D02*
X53632017Y-72203152D01*
X53632017Y-72203152D02*
X53727255Y-72203152D01*
X54012970Y-72822200D02*
X54108208Y-72869819D01*
X54108208Y-72869819D02*
X54298684Y-72869819D01*
X54298684Y-72869819D02*
X54393922Y-72822200D01*
X54393922Y-72822200D02*
X54441541Y-72726961D01*
X54441541Y-72726961D02*
X54441541Y-72679342D01*
X54441541Y-72679342D02*
X54393922Y-72584104D01*
X54393922Y-72584104D02*
X54298684Y-72536485D01*
X54298684Y-72536485D02*
X54155827Y-72536485D01*
X54155827Y-72536485D02*
X54060589Y-72488866D01*
X54060589Y-72488866D02*
X54012970Y-72393628D01*
X54012970Y-72393628D02*
X54012970Y-72346009D01*
X54012970Y-72346009D02*
X54060589Y-72250771D01*
X54060589Y-72250771D02*
X54155827Y-72203152D01*
X54155827Y-72203152D02*
X54298684Y-72203152D01*
X54298684Y-72203152D02*
X54393922Y-72250771D01*
X55012970Y-72869819D02*
X54917732Y-72822200D01*
X54917732Y-72822200D02*
X54870113Y-72774580D01*
X54870113Y-72774580D02*
X54822494Y-72679342D01*
X54822494Y-72679342D02*
X54822494Y-72393628D01*
X54822494Y-72393628D02*
X54870113Y-72298390D01*
X54870113Y-72298390D02*
X54917732Y-72250771D01*
X54917732Y-72250771D02*
X55012970Y-72203152D01*
X55012970Y-72203152D02*
X55155827Y-72203152D01*
X55155827Y-72203152D02*
X55251065Y-72250771D01*
X55251065Y-72250771D02*
X55298684Y-72298390D01*
X55298684Y-72298390D02*
X55346303Y-72393628D01*
X55346303Y-72393628D02*
X55346303Y-72679342D01*
X55346303Y-72679342D02*
X55298684Y-72774580D01*
X55298684Y-72774580D02*
X55251065Y-72822200D01*
X55251065Y-72822200D02*
X55155827Y-72869819D01*
X55155827Y-72869819D02*
X55012970Y-72869819D01*
X55774875Y-72203152D02*
X55774875Y-72869819D01*
X55774875Y-72298390D02*
X55822494Y-72250771D01*
X55822494Y-72250771D02*
X55917732Y-72203152D01*
X55917732Y-72203152D02*
X56060589Y-72203152D01*
X56060589Y-72203152D02*
X56155827Y-72250771D01*
X56155827Y-72250771D02*
X56203446Y-72346009D01*
X56203446Y-72346009D02*
X56203446Y-72869819D01*
X58012970Y-72869819D02*
X57679637Y-72393628D01*
X57441542Y-72869819D02*
X57441542Y-71869819D01*
X57441542Y-71869819D02*
X57822494Y-71869819D01*
X57822494Y-71869819D02*
X57917732Y-71917438D01*
X57917732Y-71917438D02*
X57965351Y-71965057D01*
X57965351Y-71965057D02*
X58012970Y-72060295D01*
X58012970Y-72060295D02*
X58012970Y-72203152D01*
X58012970Y-72203152D02*
X57965351Y-72298390D01*
X57965351Y-72298390D02*
X57917732Y-72346009D01*
X57917732Y-72346009D02*
X57822494Y-72393628D01*
X57822494Y-72393628D02*
X57441542Y-72393628D01*
X58441542Y-72774580D02*
X58489161Y-72822200D01*
X58489161Y-72822200D02*
X58441542Y-72869819D01*
X58441542Y-72869819D02*
X58393923Y-72822200D01*
X58393923Y-72822200D02*
X58441542Y-72774580D01*
X58441542Y-72774580D02*
X58441542Y-72869819D01*
X49746422Y-20669819D02*
X50079755Y-21669819D01*
X50079755Y-21669819D02*
X50413088Y-20669819D01*
X51317850Y-21574580D02*
X51270231Y-21622200D01*
X51270231Y-21622200D02*
X51127374Y-21669819D01*
X51127374Y-21669819D02*
X51032136Y-21669819D01*
X51032136Y-21669819D02*
X50889279Y-21622200D01*
X50889279Y-21622200D02*
X50794041Y-21526961D01*
X50794041Y-21526961D02*
X50746422Y-21431723D01*
X50746422Y-21431723D02*
X50698803Y-21241247D01*
X50698803Y-21241247D02*
X50698803Y-21098390D01*
X50698803Y-21098390D02*
X50746422Y-20907914D01*
X50746422Y-20907914D02*
X50794041Y-20812676D01*
X50794041Y-20812676D02*
X50889279Y-20717438D01*
X50889279Y-20717438D02*
X51032136Y-20669819D01*
X51032136Y-20669819D02*
X51127374Y-20669819D01*
X51127374Y-20669819D02*
X51270231Y-20717438D01*
X51270231Y-20717438D02*
X51317850Y-20765057D01*
X52317850Y-21574580D02*
X52270231Y-21622200D01*
X52270231Y-21622200D02*
X52127374Y-21669819D01*
X52127374Y-21669819D02*
X52032136Y-21669819D01*
X52032136Y-21669819D02*
X51889279Y-21622200D01*
X51889279Y-21622200D02*
X51794041Y-21526961D01*
X51794041Y-21526961D02*
X51746422Y-21431723D01*
X51746422Y-21431723D02*
X51698803Y-21241247D01*
X51698803Y-21241247D02*
X51698803Y-21098390D01*
X51698803Y-21098390D02*
X51746422Y-20907914D01*
X51746422Y-20907914D02*
X51794041Y-20812676D01*
X51794041Y-20812676D02*
X51889279Y-20717438D01*
X51889279Y-20717438D02*
X52032136Y-20669819D01*
X52032136Y-20669819D02*
X52127374Y-20669819D01*
X52127374Y-20669819D02*
X52270231Y-20717438D01*
X52270231Y-20717438D02*
X52317850Y-20765057D01*
D11*
G36*
X47177032Y-68950000D02*
G01*
X45802250Y-68950000D01*
X45802250Y-66007362D01*
X47122383Y-66007362D01*
X47122383Y-66421353D01*
X46208762Y-66421353D01*
X46208762Y-67250069D01*
X47050636Y-67250069D01*
X47050636Y-67662046D01*
X46208762Y-67662046D01*
X46208762Y-68538023D01*
X47177032Y-68538023D01*
X47177032Y-68950000D01*
G37*
G36*
X48986871Y-68950000D02*
G01*
X47612090Y-68950000D01*
X47612090Y-66007362D01*
X48932222Y-66007362D01*
X48932222Y-66421353D01*
X48018601Y-66421353D01*
X48018601Y-67250069D01*
X48860476Y-67250069D01*
X48860476Y-67662046D01*
X48018601Y-67662046D01*
X48018601Y-68538023D01*
X48986871Y-68538023D01*
X48986871Y-68950000D01*
G37*
G36*
X50675507Y-65978038D02*
G01*
X50857913Y-66028655D01*
X51021267Y-66110530D01*
X51168424Y-66223747D01*
X51301378Y-66370245D01*
X51412392Y-66539854D01*
X51499411Y-66728736D01*
X51563037Y-66939583D01*
X51602653Y-67175900D01*
X51616451Y-67441861D01*
X51601958Y-67733085D01*
X51560675Y-67987670D01*
X51494994Y-68210772D01*
X51406035Y-68406764D01*
X51293592Y-68579056D01*
X51157695Y-68727773D01*
X51006146Y-68843126D01*
X50836750Y-68926861D01*
X50646404Y-68978809D01*
X50431263Y-68996894D01*
X50220337Y-68979111D01*
X50033430Y-68927990D01*
X49866810Y-68845519D01*
X49717469Y-68731810D01*
X49583282Y-68585101D01*
X49470853Y-68414444D01*
X49382879Y-68224972D01*
X49318663Y-68014058D01*
X49278739Y-67778265D01*
X49264850Y-67513485D01*
X49266401Y-67482711D01*
X49691817Y-67482711D01*
X49706007Y-67727246D01*
X49746179Y-67936623D01*
X49809956Y-68116517D01*
X49896676Y-68271493D01*
X50007935Y-68403183D01*
X50132330Y-68495332D01*
X50272587Y-68551274D01*
X50432942Y-68570629D01*
X50605104Y-68551564D01*
X50751976Y-68497214D01*
X50878478Y-68409279D01*
X50987984Y-68285964D01*
X51072832Y-68138278D01*
X51136145Y-67960425D01*
X51176654Y-67746440D01*
X51191163Y-67488939D01*
X51176898Y-67223097D01*
X51137262Y-67003974D01*
X51075732Y-66823647D01*
X50993937Y-66675610D01*
X50887112Y-66551145D01*
X50763369Y-66462603D01*
X50619346Y-66407931D01*
X50450039Y-66388747D01*
X50287048Y-66408219D01*
X50144033Y-66464548D01*
X50016804Y-66557354D01*
X49902629Y-66689898D01*
X49813192Y-66846270D01*
X49747597Y-67027311D01*
X49706363Y-67237560D01*
X49691817Y-67482711D01*
X49266401Y-67482711D01*
X49279282Y-67227189D01*
X49320513Y-66975390D01*
X49386334Y-66753252D01*
X49475793Y-66556687D01*
X49589235Y-66382519D01*
X49725750Y-66232943D01*
X49879273Y-66116533D01*
X50052200Y-66031719D01*
X50247892Y-65978909D01*
X50470494Y-65960467D01*
X50675507Y-65978038D01*
G37*
G36*
X53022450Y-66024301D02*
G01*
X53198300Y-66071495D01*
X53343798Y-66145047D01*
X53463995Y-66243300D01*
X53563944Y-66370480D01*
X53635760Y-66520260D01*
X53680517Y-66697164D01*
X53696331Y-66907702D01*
X53680417Y-67117144D01*
X53634544Y-67300811D01*
X53559575Y-67463694D01*
X53453768Y-67609289D01*
X53326597Y-67725207D01*
X53177877Y-67809936D01*
X53003463Y-67863206D01*
X52797976Y-67882048D01*
X52471912Y-67882048D01*
X52471912Y-68950000D01*
X52067079Y-68950000D01*
X52067079Y-67484542D01*
X52471912Y-67484542D01*
X52734931Y-67484542D01*
X52905061Y-67466097D01*
X53034589Y-67416050D01*
X53132741Y-67338913D01*
X53207051Y-67231706D01*
X53252958Y-67097578D01*
X53269364Y-66928401D01*
X53254611Y-66765615D01*
X53214086Y-66640944D01*
X53149890Y-66545316D01*
X53059290Y-66473847D01*
X52935226Y-66426702D01*
X52767293Y-66409080D01*
X52471912Y-66409080D01*
X52471912Y-67484542D01*
X52067079Y-67484542D01*
X52067079Y-66007362D01*
X52810035Y-66007362D01*
X53022450Y-66024301D01*
G37*
G36*
X56642511Y-66421353D02*
G01*
X55938786Y-66421353D01*
X55938786Y-68950000D01*
X55532427Y-68950000D01*
X55532427Y-66421353D01*
X54830534Y-66421353D01*
X54830534Y-66007362D01*
X56642511Y-66007362D01*
X56642511Y-66421353D01*
G37*
G36*
X57495617Y-66823460D02*
G01*
X57643539Y-66876854D01*
X57768473Y-66962380D01*
X57874258Y-67081175D01*
X57956446Y-67224583D01*
X58017658Y-67396489D01*
X58056745Y-67602473D01*
X58070721Y-67849441D01*
X58070721Y-68031707D01*
X56878663Y-68031707D01*
X56899892Y-68216938D01*
X56950241Y-68362637D01*
X57028109Y-68477573D01*
X57130428Y-68561858D01*
X57258644Y-68615034D01*
X57419966Y-68634193D01*
X57601459Y-68612000D01*
X57771683Y-68545973D01*
X57934098Y-68434159D01*
X57934098Y-68816826D01*
X57813100Y-68891591D01*
X57670095Y-68947932D01*
X57501283Y-68984026D01*
X57302272Y-68996894D01*
X57111868Y-68977416D01*
X56950863Y-68922250D01*
X56813793Y-68833927D01*
X56696702Y-68711680D01*
X56604624Y-68562515D01*
X56536375Y-68383286D01*
X56492889Y-68167982D01*
X56477342Y-67908975D01*
X56491703Y-67695568D01*
X56878663Y-67695568D01*
X57688176Y-67695568D01*
X57674818Y-67528835D01*
X57640343Y-67398705D01*
X57587425Y-67297330D01*
X57514165Y-67219126D01*
X57424751Y-67171718D01*
X57314179Y-67154998D01*
X57205591Y-67171767D01*
X57110231Y-67220940D01*
X57024598Y-67304474D01*
X56957111Y-67411433D01*
X56908255Y-67540274D01*
X56878663Y-67695568D01*
X56491703Y-67695568D01*
X56493581Y-67667667D01*
X56540038Y-67457910D01*
X56614987Y-67274180D01*
X56718989Y-67112316D01*
X56848081Y-66976861D01*
X56989189Y-66881856D01*
X57144958Y-66824340D01*
X57319216Y-66804570D01*
X57495617Y-66823460D01*
G37*
G36*
X58339388Y-68882955D02*
G01*
X58339388Y-68445150D01*
X58494062Y-68556708D01*
X58656277Y-68622392D01*
X58829553Y-68644452D01*
X58979890Y-68630144D01*
X59078635Y-68593875D01*
X59140649Y-68542254D01*
X59176020Y-68476380D01*
X59188285Y-68391477D01*
X59180298Y-68324175D01*
X59157449Y-68269844D01*
X59122259Y-68223434D01*
X59074559Y-68180818D01*
X58951674Y-68111392D01*
X58793680Y-68041782D01*
X58599812Y-67933522D01*
X58519288Y-67870998D01*
X58456319Y-67803646D01*
X58406166Y-67725954D01*
X58370224Y-67638965D01*
X58348887Y-67542344D01*
X58341220Y-67424275D01*
X58356541Y-67280123D01*
X58400907Y-67157379D01*
X58470399Y-67051693D01*
X58561496Y-66963023D01*
X58667742Y-66894702D01*
X58790321Y-66844504D01*
X58920026Y-66814630D01*
X59055020Y-66804570D01*
X59215446Y-66814966D01*
X59359366Y-66844872D01*
X59488856Y-66892864D01*
X59488856Y-67309420D01*
X59360773Y-67225256D01*
X59220636Y-67174428D01*
X59065247Y-67157013D01*
X58929387Y-67175331D01*
X58826042Y-67226439D01*
X58787640Y-67262896D01*
X58759486Y-67304841D01*
X58741657Y-67352839D01*
X58735672Y-67405774D01*
X58741934Y-67469562D01*
X58759486Y-67520263D01*
X58788333Y-67563554D01*
X58830316Y-67603244D01*
X58943126Y-67668640D01*
X59094251Y-67732937D01*
X59296667Y-67845594D01*
X59381084Y-67907844D01*
X59449472Y-67975471D01*
X59505498Y-68053780D01*
X59546864Y-68143082D01*
X59571989Y-68243752D01*
X59581058Y-68369129D01*
X59565165Y-68520766D01*
X59519539Y-68647383D01*
X59448198Y-68755204D01*
X59355591Y-68843571D01*
X59247107Y-68910334D01*
X59118981Y-68958975D01*
X58982631Y-68987239D01*
X58836422Y-68996894D01*
X58646908Y-68983234D01*
X58482438Y-68944453D01*
X58339388Y-68882955D01*
G37*
G36*
X60877987Y-68927468D02*
G01*
X60751021Y-68977768D01*
X60572226Y-68996894D01*
X60405822Y-68977990D01*
X60281319Y-68926955D01*
X60188799Y-68848400D01*
X60121956Y-68741270D01*
X60079059Y-68599064D01*
X60063285Y-68410894D01*
X60063285Y-67224424D01*
X59771262Y-67224424D01*
X59771262Y-66851465D01*
X60063285Y-66851465D01*
X60063285Y-66365483D01*
X60459569Y-66230111D01*
X60459569Y-66851465D01*
X60877987Y-66851465D01*
X60877987Y-67224424D01*
X60459569Y-67224424D01*
X60459569Y-68273508D01*
X60467255Y-68396728D01*
X60487126Y-68482216D01*
X60515897Y-68539855D01*
X60558243Y-68581839D01*
X60618697Y-68609354D01*
X60703659Y-68619722D01*
X60798599Y-68602283D01*
X60877987Y-68551395D01*
X60877987Y-68927468D01*
G37*
G36*
X61614685Y-67222775D02*
G01*
X61621554Y-67222775D01*
X61713181Y-67068301D01*
X61816580Y-66952957D01*
X61932858Y-66871568D01*
X62064643Y-66821839D01*
X62215827Y-66804570D01*
X62377232Y-66823307D01*
X62514439Y-66876739D01*
X62632321Y-66963453D01*
X62734080Y-67085755D01*
X62812692Y-67230875D01*
X62870974Y-67401522D01*
X62907948Y-67602423D01*
X62921079Y-67839366D01*
X62906386Y-68102702D01*
X62864943Y-68326739D01*
X62799490Y-68517766D01*
X62711030Y-68680905D01*
X62596680Y-68818881D01*
X62465470Y-68916279D01*
X62314038Y-68976023D01*
X62137212Y-68996894D01*
X62004567Y-68982153D01*
X61889568Y-68939841D01*
X61788764Y-68870912D01*
X61699783Y-68773739D01*
X61621554Y-68644269D01*
X61614685Y-68644269D01*
X61614685Y-68950000D01*
X61218401Y-68950000D01*
X61218401Y-67812805D01*
X61611174Y-67812805D01*
X61611174Y-68072374D01*
X61625136Y-68219057D01*
X61665675Y-68346917D01*
X61733295Y-68460354D01*
X61821960Y-68548847D01*
X61923877Y-68601535D01*
X62043331Y-68619722D01*
X62149670Y-68606338D01*
X62240784Y-68567910D01*
X62319931Y-68504824D01*
X62389087Y-68414558D01*
X62455485Y-68269932D01*
X62498802Y-68082725D01*
X62514719Y-67841564D01*
X62500106Y-67640312D01*
X62459996Y-67482362D01*
X62397636Y-67358513D01*
X62310884Y-67261760D01*
X62207118Y-67203938D01*
X62080883Y-67183757D01*
X61946609Y-67204506D01*
X61834838Y-67264100D01*
X61740164Y-67363642D01*
X61669481Y-67491046D01*
X61626272Y-67638929D01*
X61611174Y-67812805D01*
X61218401Y-67812805D01*
X61218401Y-65843230D01*
X61614685Y-65843230D01*
X61614685Y-67222775D01*
G37*
G36*
X64231835Y-66823460D02*
G01*
X64379757Y-66876854D01*
X64504690Y-66962380D01*
X64610476Y-67081175D01*
X64692663Y-67224583D01*
X64753875Y-67396489D01*
X64792963Y-67602473D01*
X64806939Y-67849441D01*
X64806939Y-68031707D01*
X63614881Y-68031707D01*
X63636110Y-68216938D01*
X63686459Y-68362637D01*
X63764327Y-68477573D01*
X63866646Y-68561858D01*
X63994862Y-68615034D01*
X64156184Y-68634193D01*
X64337677Y-68612000D01*
X64507900Y-68545973D01*
X64670315Y-68434159D01*
X64670315Y-68816826D01*
X64549317Y-68891591D01*
X64406312Y-68947932D01*
X64237501Y-68984026D01*
X64038490Y-68996894D01*
X63848086Y-68977416D01*
X63687081Y-68922250D01*
X63550010Y-68833927D01*
X63432920Y-68711680D01*
X63340842Y-68562515D01*
X63272593Y-68383286D01*
X63229107Y-68167982D01*
X63213559Y-67908975D01*
X63227920Y-67695568D01*
X63614881Y-67695568D01*
X64424393Y-67695568D01*
X64411036Y-67528835D01*
X64376561Y-67398705D01*
X64323643Y-67297330D01*
X64250383Y-67219126D01*
X64160968Y-67171718D01*
X64050396Y-67154998D01*
X63941809Y-67171767D01*
X63846448Y-67220940D01*
X63760816Y-67304474D01*
X63693328Y-67411433D01*
X63644473Y-67540274D01*
X63614881Y-67695568D01*
X63227920Y-67695568D01*
X63229798Y-67667667D01*
X63276255Y-67457910D01*
X63351204Y-67274180D01*
X63455207Y-67112316D01*
X63584299Y-66976861D01*
X63725407Y-66881856D01*
X63881175Y-66824340D01*
X64055434Y-66804570D01*
X64231835Y-66823460D01*
G37*
G36*
X66774925Y-68950000D02*
G01*
X66378641Y-68950000D01*
X66378641Y-68590963D01*
X66371925Y-68590963D01*
X66285452Y-68739456D01*
X66185405Y-68851142D01*
X66070464Y-68930663D01*
X65937665Y-68979718D01*
X65782689Y-68996894D01*
X65625915Y-68978469D01*
X65490175Y-68925494D01*
X65371179Y-68838801D01*
X65266115Y-68715710D01*
X65184760Y-68570213D01*
X65124353Y-68397690D01*
X65085931Y-68193007D01*
X65072247Y-67949825D01*
X65073310Y-67931324D01*
X65476927Y-67931324D01*
X65492069Y-68139189D01*
X65533823Y-68304055D01*
X65599049Y-68434891D01*
X65689745Y-68537481D01*
X65797499Y-68598501D01*
X65927861Y-68619722D01*
X66056441Y-68599317D01*
X66164625Y-68540355D01*
X66257436Y-68441120D01*
X66326502Y-68314462D01*
X66368942Y-68166212D01*
X66383831Y-67990675D01*
X66383831Y-67716817D01*
X66369996Y-67574207D01*
X66329766Y-67449740D01*
X66262473Y-67339096D01*
X66174618Y-67253045D01*
X66073066Y-67201579D01*
X65953506Y-67183757D01*
X65845819Y-67196793D01*
X65753635Y-67234142D01*
X65673737Y-67295178D01*
X65604086Y-67381960D01*
X65536588Y-67521941D01*
X65492902Y-67701527D01*
X65476927Y-67931324D01*
X65073310Y-67931324D01*
X65087173Y-67690027D01*
X65129330Y-67468646D01*
X65196071Y-67279459D01*
X65286571Y-67117445D01*
X65402825Y-66980392D01*
X65534435Y-66883946D01*
X65684506Y-66825050D01*
X65857793Y-66804570D01*
X65996639Y-66819323D01*
X66114016Y-66861152D01*
X66214013Y-66928332D01*
X66299514Y-67021773D01*
X66371925Y-67144923D01*
X66378641Y-67144923D01*
X66378641Y-65843230D01*
X66774925Y-65843230D01*
X66774925Y-68950000D01*
G37*
G36*
X47721846Y-71047362D02*
G01*
X46842267Y-73990000D01*
X46388128Y-73990000D01*
X45523966Y-71047362D01*
X45967877Y-71047362D01*
X46572531Y-73279986D01*
X46597425Y-73391386D01*
X46616953Y-73528197D01*
X46623669Y-73528197D01*
X46641489Y-73409700D01*
X46673281Y-73275772D01*
X47291521Y-71047362D01*
X47721846Y-71047362D01*
G37*
G36*
X48794836Y-70988743D02*
G01*
X48794836Y-73990000D01*
X48398704Y-73990000D01*
X48398704Y-71573094D01*
X48287319Y-71658496D01*
X48167284Y-71730448D01*
X48038337Y-71789931D01*
X47884573Y-71844570D01*
X47884573Y-71438822D01*
X48075846Y-71356207D01*
X48257807Y-71259120D01*
X48438699Y-71139502D01*
X48627529Y-70988743D01*
X48794836Y-70988743D01*
G37*
D10*
X92493922Y-28169819D02*
X92827255Y-29169819D01*
X92827255Y-29169819D02*
X93160588Y-28169819D01*
X93493922Y-29169819D02*
X93493922Y-28169819D01*
X93493922Y-28169819D02*
X93874874Y-28169819D01*
X93874874Y-28169819D02*
X93970112Y-28217438D01*
X93970112Y-28217438D02*
X94017731Y-28265057D01*
X94017731Y-28265057D02*
X94065350Y-28360295D01*
X94065350Y-28360295D02*
X94065350Y-28503152D01*
X94065350Y-28503152D02*
X94017731Y-28598390D01*
X94017731Y-28598390D02*
X93970112Y-28646009D01*
X93970112Y-28646009D02*
X93874874Y-28693628D01*
X93874874Y-28693628D02*
X93493922Y-28693628D01*
X94493922Y-29169819D02*
X94493922Y-28169819D01*
X94493922Y-28169819D02*
X94874874Y-28169819D01*
X94874874Y-28169819D02*
X94970112Y-28217438D01*
X94970112Y-28217438D02*
X95017731Y-28265057D01*
X95017731Y-28265057D02*
X95065350Y-28360295D01*
X95065350Y-28360295D02*
X95065350Y-28503152D01*
X95065350Y-28503152D02*
X95017731Y-28598390D01*
X95017731Y-28598390D02*
X94970112Y-28646009D01*
X94970112Y-28646009D02*
X94874874Y-28693628D01*
X94874874Y-28693628D02*
X94493922Y-28693628D01*
X58702380Y-40150057D02*
X58607142Y-40102438D01*
X58607142Y-40102438D02*
X58511904Y-40007200D01*
X58511904Y-40007200D02*
X58369047Y-39864342D01*
X58369047Y-39864342D02*
X58273809Y-39816723D01*
X58273809Y-39816723D02*
X58178571Y-39816723D01*
X58226190Y-40054819D02*
X58130952Y-40007200D01*
X58130952Y-40007200D02*
X58035714Y-39911961D01*
X58035714Y-39911961D02*
X57988095Y-39721485D01*
X57988095Y-39721485D02*
X57988095Y-39388152D01*
X57988095Y-39388152D02*
X58035714Y-39197676D01*
X58035714Y-39197676D02*
X58130952Y-39102438D01*
X58130952Y-39102438D02*
X58226190Y-39054819D01*
X58226190Y-39054819D02*
X58416666Y-39054819D01*
X58416666Y-39054819D02*
X58511904Y-39102438D01*
X58511904Y-39102438D02*
X58607142Y-39197676D01*
X58607142Y-39197676D02*
X58654761Y-39388152D01*
X58654761Y-39388152D02*
X58654761Y-39721485D01*
X58654761Y-39721485D02*
X58607142Y-39911961D01*
X58607142Y-39911961D02*
X58511904Y-40007200D01*
X58511904Y-40007200D02*
X58416666Y-40054819D01*
X58416666Y-40054819D02*
X58226190Y-40054819D01*
X58988095Y-39054819D02*
X59607142Y-39054819D01*
X59607142Y-39054819D02*
X59273809Y-39435771D01*
X59273809Y-39435771D02*
X59416666Y-39435771D01*
X59416666Y-39435771D02*
X59511904Y-39483390D01*
X59511904Y-39483390D02*
X59559523Y-39531009D01*
X59559523Y-39531009D02*
X59607142Y-39626247D01*
X59607142Y-39626247D02*
X59607142Y-39864342D01*
X59607142Y-39864342D02*
X59559523Y-39959580D01*
X59559523Y-39959580D02*
X59511904Y-40007200D01*
X59511904Y-40007200D02*
X59416666Y-40054819D01*
X59416666Y-40054819D02*
X59130952Y-40054819D01*
X59130952Y-40054819D02*
X59035714Y-40007200D01*
X59035714Y-40007200D02*
X58988095Y-39959580D01*
X60226190Y-39054819D02*
X60321428Y-39054819D01*
X60321428Y-39054819D02*
X60416666Y-39102438D01*
X60416666Y-39102438D02*
X60464285Y-39150057D01*
X60464285Y-39150057D02*
X60511904Y-39245295D01*
X60511904Y-39245295D02*
X60559523Y-39435771D01*
X60559523Y-39435771D02*
X60559523Y-39673866D01*
X60559523Y-39673866D02*
X60511904Y-39864342D01*
X60511904Y-39864342D02*
X60464285Y-39959580D01*
X60464285Y-39959580D02*
X60416666Y-40007200D01*
X60416666Y-40007200D02*
X60321428Y-40054819D01*
X60321428Y-40054819D02*
X60226190Y-40054819D01*
X60226190Y-40054819D02*
X60130952Y-40007200D01*
X60130952Y-40007200D02*
X60083333Y-39959580D01*
X60083333Y-39959580D02*
X60035714Y-39864342D01*
X60035714Y-39864342D02*
X59988095Y-39673866D01*
X59988095Y-39673866D02*
X59988095Y-39435771D01*
X59988095Y-39435771D02*
X60035714Y-39245295D01*
X60035714Y-39245295D02*
X60083333Y-39150057D01*
X60083333Y-39150057D02*
X60130952Y-39102438D01*
X60130952Y-39102438D02*
X60226190Y-39054819D01*
X61511904Y-40054819D02*
X60940476Y-40054819D01*
X61226190Y-40054819D02*
X61226190Y-39054819D01*
X61226190Y-39054819D02*
X61130952Y-39197676D01*
X61130952Y-39197676D02*
X61035714Y-39292914D01*
X61035714Y-39292914D02*
X60940476Y-39340533D01*
X80589095Y-36053492D02*
X81399562Y-36053492D01*
X81399562Y-36053492D02*
X81494911Y-36005817D01*
X81494911Y-36005817D02*
X81542586Y-35958143D01*
X81542586Y-35958143D02*
X81590260Y-35862794D01*
X81590260Y-35862794D02*
X81590260Y-35672096D01*
X81590260Y-35672096D02*
X81542586Y-35576747D01*
X81542586Y-35576747D02*
X81494911Y-35529072D01*
X81494911Y-35529072D02*
X81399562Y-35481398D01*
X81399562Y-35481398D02*
X80589095Y-35481398D01*
X80589095Y-35100001D02*
X80589095Y-34480232D01*
X80589095Y-34480232D02*
X80970491Y-34813954D01*
X80970491Y-34813954D02*
X80970491Y-34670930D01*
X80970491Y-34670930D02*
X81018166Y-34575581D01*
X81018166Y-34575581D02*
X81065840Y-34527907D01*
X81065840Y-34527907D02*
X81161189Y-34480232D01*
X81161189Y-34480232D02*
X81399562Y-34480232D01*
X81399562Y-34480232D02*
X81494911Y-34527907D01*
X81494911Y-34527907D02*
X81542586Y-34575581D01*
X81542586Y-34575581D02*
X81590260Y-34670930D01*
X81590260Y-34670930D02*
X81590260Y-34956977D01*
X81590260Y-34956977D02*
X81542586Y-35052326D01*
X81542586Y-35052326D02*
X81494911Y-35100001D01*
X80589095Y-33860464D02*
X80589095Y-33765115D01*
X80589095Y-33765115D02*
X80636770Y-33669766D01*
X80636770Y-33669766D02*
X80684444Y-33622091D01*
X80684444Y-33622091D02*
X80779793Y-33574417D01*
X80779793Y-33574417D02*
X80970491Y-33526742D01*
X80970491Y-33526742D02*
X81208864Y-33526742D01*
X81208864Y-33526742D02*
X81399562Y-33574417D01*
X81399562Y-33574417D02*
X81494911Y-33622091D01*
X81494911Y-33622091D02*
X81542586Y-33669766D01*
X81542586Y-33669766D02*
X81590260Y-33765115D01*
X81590260Y-33765115D02*
X81590260Y-33860464D01*
X81590260Y-33860464D02*
X81542586Y-33955813D01*
X81542586Y-33955813D02*
X81494911Y-34003487D01*
X81494911Y-34003487D02*
X81399562Y-34051162D01*
X81399562Y-34051162D02*
X81208864Y-34098836D01*
X81208864Y-34098836D02*
X80970491Y-34098836D01*
X80970491Y-34098836D02*
X80779793Y-34051162D01*
X80779793Y-34051162D02*
X80684444Y-34003487D01*
X80684444Y-34003487D02*
X80636770Y-33955813D01*
X80636770Y-33955813D02*
X80589095Y-33860464D01*
X80684444Y-33145346D02*
X80636770Y-33097672D01*
X80636770Y-33097672D02*
X80589095Y-33002323D01*
X80589095Y-33002323D02*
X80589095Y-32763950D01*
X80589095Y-32763950D02*
X80636770Y-32668601D01*
X80636770Y-32668601D02*
X80684444Y-32620927D01*
X80684444Y-32620927D02*
X80779793Y-32573252D01*
X80779793Y-32573252D02*
X80875142Y-32573252D01*
X80875142Y-32573252D02*
X81018166Y-32620927D01*
X81018166Y-32620927D02*
X81590260Y-33193021D01*
X81590260Y-33193021D02*
X81590260Y-32573252D01*
X78589474Y-40935168D02*
X77589096Y-40935168D01*
X77589096Y-40935168D02*
X77589096Y-40696983D01*
X77589096Y-40696983D02*
X77636733Y-40554072D01*
X77636733Y-40554072D02*
X77732007Y-40458798D01*
X77732007Y-40458798D02*
X77827281Y-40411161D01*
X77827281Y-40411161D02*
X78017829Y-40363524D01*
X78017829Y-40363524D02*
X78160740Y-40363524D01*
X78160740Y-40363524D02*
X78351288Y-40411161D01*
X78351288Y-40411161D02*
X78446562Y-40458798D01*
X78446562Y-40458798D02*
X78541837Y-40554072D01*
X78541837Y-40554072D02*
X78589474Y-40696983D01*
X78589474Y-40696983D02*
X78589474Y-40935168D01*
X78303651Y-39982427D02*
X78303651Y-39506057D01*
X78589474Y-40077701D02*
X77589096Y-39744242D01*
X77589096Y-39744242D02*
X78589474Y-39410783D01*
X77684370Y-39124960D02*
X77636733Y-39077323D01*
X77636733Y-39077323D02*
X77589096Y-38982049D01*
X77589096Y-38982049D02*
X77589096Y-38743864D01*
X77589096Y-38743864D02*
X77636733Y-38648590D01*
X77636733Y-38648590D02*
X77684370Y-38600953D01*
X77684370Y-38600953D02*
X77779644Y-38553316D01*
X77779644Y-38553316D02*
X77874918Y-38553316D01*
X77874918Y-38553316D02*
X78017829Y-38600953D01*
X78017829Y-38600953D02*
X78589474Y-39172597D01*
X78589474Y-39172597D02*
X78589474Y-38553316D01*
X77589096Y-37934034D02*
X77589096Y-37838760D01*
X77589096Y-37838760D02*
X77636733Y-37743486D01*
X77636733Y-37743486D02*
X77684370Y-37695849D01*
X77684370Y-37695849D02*
X77779644Y-37648212D01*
X77779644Y-37648212D02*
X77970192Y-37600575D01*
X77970192Y-37600575D02*
X78208377Y-37600575D01*
X78208377Y-37600575D02*
X78398925Y-37648212D01*
X78398925Y-37648212D02*
X78494199Y-37695849D01*
X78494199Y-37695849D02*
X78541837Y-37743486D01*
X78541837Y-37743486D02*
X78589474Y-37838760D01*
X78589474Y-37838760D02*
X78589474Y-37934034D01*
X78589474Y-37934034D02*
X78541837Y-38029308D01*
X78541837Y-38029308D02*
X78494199Y-38076945D01*
X78494199Y-38076945D02*
X78398925Y-38124582D01*
X78398925Y-38124582D02*
X78208377Y-38172219D01*
X78208377Y-38172219D02*
X77970192Y-38172219D01*
X77970192Y-38172219D02*
X77779644Y-38124582D01*
X77779644Y-38124582D02*
X77684370Y-38076945D01*
X77684370Y-38076945D02*
X77636733Y-38029308D01*
X77636733Y-38029308D02*
X77589096Y-37934034D01*
X77589096Y-37267115D02*
X77589096Y-36647834D01*
X77589096Y-36647834D02*
X77970192Y-36981293D01*
X77970192Y-36981293D02*
X77970192Y-36838382D01*
X77970192Y-36838382D02*
X78017829Y-36743108D01*
X78017829Y-36743108D02*
X78065466Y-36695471D01*
X78065466Y-36695471D02*
X78160740Y-36647834D01*
X78160740Y-36647834D02*
X78398925Y-36647834D01*
X78398925Y-36647834D02*
X78494199Y-36695471D01*
X78494199Y-36695471D02*
X78541837Y-36743108D01*
X78541837Y-36743108D02*
X78589474Y-36838382D01*
X78589474Y-36838382D02*
X78589474Y-37124204D01*
X78589474Y-37124204D02*
X78541837Y-37219478D01*
X78541837Y-37219478D02*
X78494199Y-37267115D01*
X77684370Y-36266737D02*
X77636733Y-36219100D01*
X77636733Y-36219100D02*
X77589096Y-36123826D01*
X77589096Y-36123826D02*
X77589096Y-35885641D01*
X77589096Y-35885641D02*
X77636733Y-35790367D01*
X77636733Y-35790367D02*
X77684370Y-35742730D01*
X77684370Y-35742730D02*
X77779644Y-35695093D01*
X77779644Y-35695093D02*
X77874918Y-35695093D01*
X77874918Y-35695093D02*
X78017829Y-35742730D01*
X78017829Y-35742730D02*
X78589474Y-36314374D01*
X78589474Y-36314374D02*
X78589474Y-35695093D01*
X78208377Y-35266359D02*
X78208377Y-34504167D01*
X78303651Y-34075433D02*
X78303651Y-33599063D01*
X78589474Y-34170707D02*
X77589096Y-33837248D01*
X77589096Y-33837248D02*
X78589474Y-33503789D01*
X78589474Y-32693959D02*
X78589474Y-33170329D01*
X78589474Y-33170329D02*
X77589096Y-33170329D01*
X58035714Y-33224819D02*
X58035714Y-34034342D01*
X58035714Y-34034342D02*
X58083333Y-34129580D01*
X58083333Y-34129580D02*
X58130952Y-34177200D01*
X58130952Y-34177200D02*
X58226190Y-34224819D01*
X58226190Y-34224819D02*
X58416666Y-34224819D01*
X58416666Y-34224819D02*
X58511904Y-34177200D01*
X58511904Y-34177200D02*
X58559523Y-34129580D01*
X58559523Y-34129580D02*
X58607142Y-34034342D01*
X58607142Y-34034342D02*
X58607142Y-33224819D01*
X58988095Y-33224819D02*
X59607142Y-33224819D01*
X59607142Y-33224819D02*
X59273809Y-33605771D01*
X59273809Y-33605771D02*
X59416666Y-33605771D01*
X59416666Y-33605771D02*
X59511904Y-33653390D01*
X59511904Y-33653390D02*
X59559523Y-33701009D01*
X59559523Y-33701009D02*
X59607142Y-33796247D01*
X59607142Y-33796247D02*
X59607142Y-34034342D01*
X59607142Y-34034342D02*
X59559523Y-34129580D01*
X59559523Y-34129580D02*
X59511904Y-34177200D01*
X59511904Y-34177200D02*
X59416666Y-34224819D01*
X59416666Y-34224819D02*
X59130952Y-34224819D01*
X59130952Y-34224819D02*
X59035714Y-34177200D01*
X59035714Y-34177200D02*
X58988095Y-34129580D01*
X60226190Y-33224819D02*
X60321428Y-33224819D01*
X60321428Y-33224819D02*
X60416666Y-33272438D01*
X60416666Y-33272438D02*
X60464285Y-33320057D01*
X60464285Y-33320057D02*
X60511904Y-33415295D01*
X60511904Y-33415295D02*
X60559523Y-33605771D01*
X60559523Y-33605771D02*
X60559523Y-33843866D01*
X60559523Y-33843866D02*
X60511904Y-34034342D01*
X60511904Y-34034342D02*
X60464285Y-34129580D01*
X60464285Y-34129580D02*
X60416666Y-34177200D01*
X60416666Y-34177200D02*
X60321428Y-34224819D01*
X60321428Y-34224819D02*
X60226190Y-34224819D01*
X60226190Y-34224819D02*
X60130952Y-34177200D01*
X60130952Y-34177200D02*
X60083333Y-34129580D01*
X60083333Y-34129580D02*
X60035714Y-34034342D01*
X60035714Y-34034342D02*
X59988095Y-33843866D01*
X59988095Y-33843866D02*
X59988095Y-33605771D01*
X59988095Y-33605771D02*
X60035714Y-33415295D01*
X60035714Y-33415295D02*
X60083333Y-33320057D01*
X60083333Y-33320057D02*
X60130952Y-33272438D01*
X60130952Y-33272438D02*
X60226190Y-33224819D01*
X61511904Y-34224819D02*
X60940476Y-34224819D01*
X61226190Y-34224819D02*
X61226190Y-33224819D01*
X61226190Y-33224819D02*
X61130952Y-33367676D01*
X61130952Y-33367676D02*
X61035714Y-33462914D01*
X61035714Y-33462914D02*
X60940476Y-33510533D01*
X46380952Y-30954819D02*
X46047619Y-30478628D01*
X45809524Y-30954819D02*
X45809524Y-29954819D01*
X45809524Y-29954819D02*
X46190476Y-29954819D01*
X46190476Y-29954819D02*
X46285714Y-30002438D01*
X46285714Y-30002438D02*
X46333333Y-30050057D01*
X46333333Y-30050057D02*
X46380952Y-30145295D01*
X46380952Y-30145295D02*
X46380952Y-30288152D01*
X46380952Y-30288152D02*
X46333333Y-30383390D01*
X46333333Y-30383390D02*
X46285714Y-30431009D01*
X46285714Y-30431009D02*
X46190476Y-30478628D01*
X46190476Y-30478628D02*
X45809524Y-30478628D01*
X47333333Y-30954819D02*
X46761905Y-30954819D01*
X47047619Y-30954819D02*
X47047619Y-29954819D01*
X47047619Y-29954819D02*
X46952381Y-30097676D01*
X46952381Y-30097676D02*
X46857143Y-30192914D01*
X46857143Y-30192914D02*
X46761905Y-30240533D01*
X47952381Y-29954819D02*
X48047619Y-29954819D01*
X48047619Y-29954819D02*
X48142857Y-30002438D01*
X48142857Y-30002438D02*
X48190476Y-30050057D01*
X48190476Y-30050057D02*
X48238095Y-30145295D01*
X48238095Y-30145295D02*
X48285714Y-30335771D01*
X48285714Y-30335771D02*
X48285714Y-30573866D01*
X48285714Y-30573866D02*
X48238095Y-30764342D01*
X48238095Y-30764342D02*
X48190476Y-30859580D01*
X48190476Y-30859580D02*
X48142857Y-30907200D01*
X48142857Y-30907200D02*
X48047619Y-30954819D01*
X48047619Y-30954819D02*
X47952381Y-30954819D01*
X47952381Y-30954819D02*
X47857143Y-30907200D01*
X47857143Y-30907200D02*
X47809524Y-30859580D01*
X47809524Y-30859580D02*
X47761905Y-30764342D01*
X47761905Y-30764342D02*
X47714286Y-30573866D01*
X47714286Y-30573866D02*
X47714286Y-30335771D01*
X47714286Y-30335771D02*
X47761905Y-30145295D01*
X47761905Y-30145295D02*
X47809524Y-30050057D01*
X47809524Y-30050057D02*
X47857143Y-30002438D01*
X47857143Y-30002438D02*
X47952381Y-29954819D01*
X49238095Y-30954819D02*
X48666667Y-30954819D01*
X48952381Y-30954819D02*
X48952381Y-29954819D01*
X48952381Y-29954819D02*
X48857143Y-30097676D01*
X48857143Y-30097676D02*
X48761905Y-30192914D01*
X48761905Y-30192914D02*
X48666667Y-30240533D01*
X56480952Y-52054819D02*
X56147619Y-51578628D01*
X55909524Y-52054819D02*
X55909524Y-51054819D01*
X55909524Y-51054819D02*
X56290476Y-51054819D01*
X56290476Y-51054819D02*
X56385714Y-51102438D01*
X56385714Y-51102438D02*
X56433333Y-51150057D01*
X56433333Y-51150057D02*
X56480952Y-51245295D01*
X56480952Y-51245295D02*
X56480952Y-51388152D01*
X56480952Y-51388152D02*
X56433333Y-51483390D01*
X56433333Y-51483390D02*
X56385714Y-51531009D01*
X56385714Y-51531009D02*
X56290476Y-51578628D01*
X56290476Y-51578628D02*
X55909524Y-51578628D01*
X56814286Y-51054819D02*
X57433333Y-51054819D01*
X57433333Y-51054819D02*
X57100000Y-51435771D01*
X57100000Y-51435771D02*
X57242857Y-51435771D01*
X57242857Y-51435771D02*
X57338095Y-51483390D01*
X57338095Y-51483390D02*
X57385714Y-51531009D01*
X57385714Y-51531009D02*
X57433333Y-51626247D01*
X57433333Y-51626247D02*
X57433333Y-51864342D01*
X57433333Y-51864342D02*
X57385714Y-51959580D01*
X57385714Y-51959580D02*
X57338095Y-52007200D01*
X57338095Y-52007200D02*
X57242857Y-52054819D01*
X57242857Y-52054819D02*
X56957143Y-52054819D01*
X56957143Y-52054819D02*
X56861905Y-52007200D01*
X56861905Y-52007200D02*
X56814286Y-51959580D01*
X58052381Y-51054819D02*
X58147619Y-51054819D01*
X58147619Y-51054819D02*
X58242857Y-51102438D01*
X58242857Y-51102438D02*
X58290476Y-51150057D01*
X58290476Y-51150057D02*
X58338095Y-51245295D01*
X58338095Y-51245295D02*
X58385714Y-51435771D01*
X58385714Y-51435771D02*
X58385714Y-51673866D01*
X58385714Y-51673866D02*
X58338095Y-51864342D01*
X58338095Y-51864342D02*
X58290476Y-51959580D01*
X58290476Y-51959580D02*
X58242857Y-52007200D01*
X58242857Y-52007200D02*
X58147619Y-52054819D01*
X58147619Y-52054819D02*
X58052381Y-52054819D01*
X58052381Y-52054819D02*
X57957143Y-52007200D01*
X57957143Y-52007200D02*
X57909524Y-51959580D01*
X57909524Y-51959580D02*
X57861905Y-51864342D01*
X57861905Y-51864342D02*
X57814286Y-51673866D01*
X57814286Y-51673866D02*
X57814286Y-51435771D01*
X57814286Y-51435771D02*
X57861905Y-51245295D01*
X57861905Y-51245295D02*
X57909524Y-51150057D01*
X57909524Y-51150057D02*
X57957143Y-51102438D01*
X57957143Y-51102438D02*
X58052381Y-51054819D01*
X58957143Y-51483390D02*
X58861905Y-51435771D01*
X58861905Y-51435771D02*
X58814286Y-51388152D01*
X58814286Y-51388152D02*
X58766667Y-51292914D01*
X58766667Y-51292914D02*
X58766667Y-51245295D01*
X58766667Y-51245295D02*
X58814286Y-51150057D01*
X58814286Y-51150057D02*
X58861905Y-51102438D01*
X58861905Y-51102438D02*
X58957143Y-51054819D01*
X58957143Y-51054819D02*
X59147619Y-51054819D01*
X59147619Y-51054819D02*
X59242857Y-51102438D01*
X59242857Y-51102438D02*
X59290476Y-51150057D01*
X59290476Y-51150057D02*
X59338095Y-51245295D01*
X59338095Y-51245295D02*
X59338095Y-51292914D01*
X59338095Y-51292914D02*
X59290476Y-51388152D01*
X59290476Y-51388152D02*
X59242857Y-51435771D01*
X59242857Y-51435771D02*
X59147619Y-51483390D01*
X59147619Y-51483390D02*
X58957143Y-51483390D01*
X58957143Y-51483390D02*
X58861905Y-51531009D01*
X58861905Y-51531009D02*
X58814286Y-51578628D01*
X58814286Y-51578628D02*
X58766667Y-51673866D01*
X58766667Y-51673866D02*
X58766667Y-51864342D01*
X58766667Y-51864342D02*
X58814286Y-51959580D01*
X58814286Y-51959580D02*
X58861905Y-52007200D01*
X58861905Y-52007200D02*
X58957143Y-52054819D01*
X58957143Y-52054819D02*
X59147619Y-52054819D01*
X59147619Y-52054819D02*
X59242857Y-52007200D01*
X59242857Y-52007200D02*
X59290476Y-51959580D01*
X59290476Y-51959580D02*
X59338095Y-51864342D01*
X59338095Y-51864342D02*
X59338095Y-51673866D01*
X59338095Y-51673866D02*
X59290476Y-51578628D01*
X59290476Y-51578628D02*
X59242857Y-51531009D01*
X59242857Y-51531009D02*
X59147619Y-51483390D01*
X58199580Y-24369047D02*
X58247200Y-24416666D01*
X58247200Y-24416666D02*
X58294819Y-24559523D01*
X58294819Y-24559523D02*
X58294819Y-24654761D01*
X58294819Y-24654761D02*
X58247200Y-24797618D01*
X58247200Y-24797618D02*
X58151961Y-24892856D01*
X58151961Y-24892856D02*
X58056723Y-24940475D01*
X58056723Y-24940475D02*
X57866247Y-24988094D01*
X57866247Y-24988094D02*
X57723390Y-24988094D01*
X57723390Y-24988094D02*
X57532914Y-24940475D01*
X57532914Y-24940475D02*
X57437676Y-24892856D01*
X57437676Y-24892856D02*
X57342438Y-24797618D01*
X57342438Y-24797618D02*
X57294819Y-24654761D01*
X57294819Y-24654761D02*
X57294819Y-24559523D01*
X57294819Y-24559523D02*
X57342438Y-24416666D01*
X57342438Y-24416666D02*
X57390057Y-24369047D01*
X58294819Y-23416666D02*
X58294819Y-23988094D01*
X58294819Y-23702380D02*
X57294819Y-23702380D01*
X57294819Y-23702380D02*
X57437676Y-23797618D01*
X57437676Y-23797618D02*
X57532914Y-23892856D01*
X57532914Y-23892856D02*
X57580533Y-23988094D01*
X57294819Y-22797618D02*
X57294819Y-22702380D01*
X57294819Y-22702380D02*
X57342438Y-22607142D01*
X57342438Y-22607142D02*
X57390057Y-22559523D01*
X57390057Y-22559523D02*
X57485295Y-22511904D01*
X57485295Y-22511904D02*
X57675771Y-22464285D01*
X57675771Y-22464285D02*
X57913866Y-22464285D01*
X57913866Y-22464285D02*
X58104342Y-22511904D01*
X58104342Y-22511904D02*
X58199580Y-22559523D01*
X58199580Y-22559523D02*
X58247200Y-22607142D01*
X58247200Y-22607142D02*
X58294819Y-22702380D01*
X58294819Y-22702380D02*
X58294819Y-22797618D01*
X58294819Y-22797618D02*
X58247200Y-22892856D01*
X58247200Y-22892856D02*
X58199580Y-22940475D01*
X58199580Y-22940475D02*
X58104342Y-22988094D01*
X58104342Y-22988094D02*
X57913866Y-23035713D01*
X57913866Y-23035713D02*
X57675771Y-23035713D01*
X57675771Y-23035713D02*
X57485295Y-22988094D01*
X57485295Y-22988094D02*
X57390057Y-22940475D01*
X57390057Y-22940475D02*
X57342438Y-22892856D01*
X57342438Y-22892856D02*
X57294819Y-22797618D01*
X58294819Y-21511904D02*
X58294819Y-22083332D01*
X58294819Y-21797618D02*
X57294819Y-21797618D01*
X57294819Y-21797618D02*
X57437676Y-21892856D01*
X57437676Y-21892856D02*
X57532914Y-21988094D01*
X57532914Y-21988094D02*
X57580533Y-22083332D01*
X61080952Y-52054819D02*
X60747619Y-51578628D01*
X60509524Y-52054819D02*
X60509524Y-51054819D01*
X60509524Y-51054819D02*
X60890476Y-51054819D01*
X60890476Y-51054819D02*
X60985714Y-51102438D01*
X60985714Y-51102438D02*
X61033333Y-51150057D01*
X61033333Y-51150057D02*
X61080952Y-51245295D01*
X61080952Y-51245295D02*
X61080952Y-51388152D01*
X61080952Y-51388152D02*
X61033333Y-51483390D01*
X61033333Y-51483390D02*
X60985714Y-51531009D01*
X60985714Y-51531009D02*
X60890476Y-51578628D01*
X60890476Y-51578628D02*
X60509524Y-51578628D01*
X61414286Y-51054819D02*
X62033333Y-51054819D01*
X62033333Y-51054819D02*
X61700000Y-51435771D01*
X61700000Y-51435771D02*
X61842857Y-51435771D01*
X61842857Y-51435771D02*
X61938095Y-51483390D01*
X61938095Y-51483390D02*
X61985714Y-51531009D01*
X61985714Y-51531009D02*
X62033333Y-51626247D01*
X62033333Y-51626247D02*
X62033333Y-51864342D01*
X62033333Y-51864342D02*
X61985714Y-51959580D01*
X61985714Y-51959580D02*
X61938095Y-52007200D01*
X61938095Y-52007200D02*
X61842857Y-52054819D01*
X61842857Y-52054819D02*
X61557143Y-52054819D01*
X61557143Y-52054819D02*
X61461905Y-52007200D01*
X61461905Y-52007200D02*
X61414286Y-51959580D01*
X62652381Y-51054819D02*
X62747619Y-51054819D01*
X62747619Y-51054819D02*
X62842857Y-51102438D01*
X62842857Y-51102438D02*
X62890476Y-51150057D01*
X62890476Y-51150057D02*
X62938095Y-51245295D01*
X62938095Y-51245295D02*
X62985714Y-51435771D01*
X62985714Y-51435771D02*
X62985714Y-51673866D01*
X62985714Y-51673866D02*
X62938095Y-51864342D01*
X62938095Y-51864342D02*
X62890476Y-51959580D01*
X62890476Y-51959580D02*
X62842857Y-52007200D01*
X62842857Y-52007200D02*
X62747619Y-52054819D01*
X62747619Y-52054819D02*
X62652381Y-52054819D01*
X62652381Y-52054819D02*
X62557143Y-52007200D01*
X62557143Y-52007200D02*
X62509524Y-51959580D01*
X62509524Y-51959580D02*
X62461905Y-51864342D01*
X62461905Y-51864342D02*
X62414286Y-51673866D01*
X62414286Y-51673866D02*
X62414286Y-51435771D01*
X62414286Y-51435771D02*
X62461905Y-51245295D01*
X62461905Y-51245295D02*
X62509524Y-51150057D01*
X62509524Y-51150057D02*
X62557143Y-51102438D01*
X62557143Y-51102438D02*
X62652381Y-51054819D01*
X63319048Y-51054819D02*
X63985714Y-51054819D01*
X63985714Y-51054819D02*
X63557143Y-52054819D01*
X92438356Y-62464285D02*
X93247879Y-62464285D01*
X93247879Y-62464285D02*
X93343117Y-62416666D01*
X93343117Y-62416666D02*
X93390737Y-62369047D01*
X93390737Y-62369047D02*
X93438356Y-62273809D01*
X93438356Y-62273809D02*
X93438356Y-62083333D01*
X93438356Y-62083333D02*
X93390737Y-61988095D01*
X93390737Y-61988095D02*
X93343117Y-61940476D01*
X93343117Y-61940476D02*
X93247879Y-61892857D01*
X93247879Y-61892857D02*
X92438356Y-61892857D01*
X92533594Y-61464285D02*
X92485975Y-61416666D01*
X92485975Y-61416666D02*
X92438356Y-61321428D01*
X92438356Y-61321428D02*
X92438356Y-61083333D01*
X92438356Y-61083333D02*
X92485975Y-60988095D01*
X92485975Y-60988095D02*
X92533594Y-60940476D01*
X92533594Y-60940476D02*
X92628832Y-60892857D01*
X92628832Y-60892857D02*
X92724070Y-60892857D01*
X92724070Y-60892857D02*
X92866927Y-60940476D01*
X92866927Y-60940476D02*
X93438356Y-61511904D01*
X93438356Y-61511904D02*
X93438356Y-60892857D01*
X92438356Y-60273809D02*
X92438356Y-60178571D01*
X92438356Y-60178571D02*
X92485975Y-60083333D01*
X92485975Y-60083333D02*
X92533594Y-60035714D01*
X92533594Y-60035714D02*
X92628832Y-59988095D01*
X92628832Y-59988095D02*
X92819308Y-59940476D01*
X92819308Y-59940476D02*
X93057403Y-59940476D01*
X93057403Y-59940476D02*
X93247879Y-59988095D01*
X93247879Y-59988095D02*
X93343117Y-60035714D01*
X93343117Y-60035714D02*
X93390737Y-60083333D01*
X93390737Y-60083333D02*
X93438356Y-60178571D01*
X93438356Y-60178571D02*
X93438356Y-60273809D01*
X93438356Y-60273809D02*
X93390737Y-60369047D01*
X93390737Y-60369047D02*
X93343117Y-60416666D01*
X93343117Y-60416666D02*
X93247879Y-60464285D01*
X93247879Y-60464285D02*
X93057403Y-60511904D01*
X93057403Y-60511904D02*
X92819308Y-60511904D01*
X92819308Y-60511904D02*
X92628832Y-60464285D01*
X92628832Y-60464285D02*
X92533594Y-60416666D01*
X92533594Y-60416666D02*
X92485975Y-60369047D01*
X92485975Y-60369047D02*
X92438356Y-60273809D01*
X92533594Y-59559523D02*
X92485975Y-59511904D01*
X92485975Y-59511904D02*
X92438356Y-59416666D01*
X92438356Y-59416666D02*
X92438356Y-59178571D01*
X92438356Y-59178571D02*
X92485975Y-59083333D01*
X92485975Y-59083333D02*
X92533594Y-59035714D01*
X92533594Y-59035714D02*
X92628832Y-58988095D01*
X92628832Y-58988095D02*
X92724070Y-58988095D01*
X92724070Y-58988095D02*
X92866927Y-59035714D01*
X92866927Y-59035714D02*
X93438356Y-59607142D01*
X93438356Y-59607142D02*
X93438356Y-58988095D01*
X67480952Y-35359580D02*
X67433333Y-35407200D01*
X67433333Y-35407200D02*
X67290476Y-35454819D01*
X67290476Y-35454819D02*
X67195238Y-35454819D01*
X67195238Y-35454819D02*
X67052381Y-35407200D01*
X67052381Y-35407200D02*
X66957143Y-35311961D01*
X66957143Y-35311961D02*
X66909524Y-35216723D01*
X66909524Y-35216723D02*
X66861905Y-35026247D01*
X66861905Y-35026247D02*
X66861905Y-34883390D01*
X66861905Y-34883390D02*
X66909524Y-34692914D01*
X66909524Y-34692914D02*
X66957143Y-34597676D01*
X66957143Y-34597676D02*
X67052381Y-34502438D01*
X67052381Y-34502438D02*
X67195238Y-34454819D01*
X67195238Y-34454819D02*
X67290476Y-34454819D01*
X67290476Y-34454819D02*
X67433333Y-34502438D01*
X67433333Y-34502438D02*
X67480952Y-34550057D01*
X67814286Y-34454819D02*
X68433333Y-34454819D01*
X68433333Y-34454819D02*
X68100000Y-34835771D01*
X68100000Y-34835771D02*
X68242857Y-34835771D01*
X68242857Y-34835771D02*
X68338095Y-34883390D01*
X68338095Y-34883390D02*
X68385714Y-34931009D01*
X68385714Y-34931009D02*
X68433333Y-35026247D01*
X68433333Y-35026247D02*
X68433333Y-35264342D01*
X68433333Y-35264342D02*
X68385714Y-35359580D01*
X68385714Y-35359580D02*
X68338095Y-35407200D01*
X68338095Y-35407200D02*
X68242857Y-35454819D01*
X68242857Y-35454819D02*
X67957143Y-35454819D01*
X67957143Y-35454819D02*
X67861905Y-35407200D01*
X67861905Y-35407200D02*
X67814286Y-35359580D01*
X69052381Y-34454819D02*
X69147619Y-34454819D01*
X69147619Y-34454819D02*
X69242857Y-34502438D01*
X69242857Y-34502438D02*
X69290476Y-34550057D01*
X69290476Y-34550057D02*
X69338095Y-34645295D01*
X69338095Y-34645295D02*
X69385714Y-34835771D01*
X69385714Y-34835771D02*
X69385714Y-35073866D01*
X69385714Y-35073866D02*
X69338095Y-35264342D01*
X69338095Y-35264342D02*
X69290476Y-35359580D01*
X69290476Y-35359580D02*
X69242857Y-35407200D01*
X69242857Y-35407200D02*
X69147619Y-35454819D01*
X69147619Y-35454819D02*
X69052381Y-35454819D01*
X69052381Y-35454819D02*
X68957143Y-35407200D01*
X68957143Y-35407200D02*
X68909524Y-35359580D01*
X68909524Y-35359580D02*
X68861905Y-35264342D01*
X68861905Y-35264342D02*
X68814286Y-35073866D01*
X68814286Y-35073866D02*
X68814286Y-34835771D01*
X68814286Y-34835771D02*
X68861905Y-34645295D01*
X68861905Y-34645295D02*
X68909524Y-34550057D01*
X68909524Y-34550057D02*
X68957143Y-34502438D01*
X68957143Y-34502438D02*
X69052381Y-34454819D01*
X70242857Y-34788152D02*
X70242857Y-35454819D01*
X70004762Y-34407200D02*
X69766667Y-35121485D01*
X69766667Y-35121485D02*
X70385714Y-35121485D01*
X99359580Y-39626396D02*
X99407200Y-39674015D01*
X99407200Y-39674015D02*
X99454819Y-39816872D01*
X99454819Y-39816872D02*
X99454819Y-39912110D01*
X99454819Y-39912110D02*
X99407200Y-40054967D01*
X99407200Y-40054967D02*
X99311961Y-40150205D01*
X99311961Y-40150205D02*
X99216723Y-40197824D01*
X99216723Y-40197824D02*
X99026247Y-40245443D01*
X99026247Y-40245443D02*
X98883390Y-40245443D01*
X98883390Y-40245443D02*
X98692914Y-40197824D01*
X98692914Y-40197824D02*
X98597676Y-40150205D01*
X98597676Y-40150205D02*
X98502438Y-40054967D01*
X98502438Y-40054967D02*
X98454819Y-39912110D01*
X98454819Y-39912110D02*
X98454819Y-39816872D01*
X98454819Y-39816872D02*
X98502438Y-39674015D01*
X98502438Y-39674015D02*
X98550057Y-39626396D01*
X98454819Y-39293062D02*
X98454819Y-38674015D01*
X98454819Y-38674015D02*
X98835771Y-39007348D01*
X98835771Y-39007348D02*
X98835771Y-38864491D01*
X98835771Y-38864491D02*
X98883390Y-38769253D01*
X98883390Y-38769253D02*
X98931009Y-38721634D01*
X98931009Y-38721634D02*
X99026247Y-38674015D01*
X99026247Y-38674015D02*
X99264342Y-38674015D01*
X99264342Y-38674015D02*
X99359580Y-38721634D01*
X99359580Y-38721634D02*
X99407200Y-38769253D01*
X99407200Y-38769253D02*
X99454819Y-38864491D01*
X99454819Y-38864491D02*
X99454819Y-39150205D01*
X99454819Y-39150205D02*
X99407200Y-39245443D01*
X99407200Y-39245443D02*
X99359580Y-39293062D01*
X98454819Y-38054967D02*
X98454819Y-37959729D01*
X98454819Y-37959729D02*
X98502438Y-37864491D01*
X98502438Y-37864491D02*
X98550057Y-37816872D01*
X98550057Y-37816872D02*
X98645295Y-37769253D01*
X98645295Y-37769253D02*
X98835771Y-37721634D01*
X98835771Y-37721634D02*
X99073866Y-37721634D01*
X99073866Y-37721634D02*
X99264342Y-37769253D01*
X99264342Y-37769253D02*
X99359580Y-37816872D01*
X99359580Y-37816872D02*
X99407200Y-37864491D01*
X99407200Y-37864491D02*
X99454819Y-37959729D01*
X99454819Y-37959729D02*
X99454819Y-38054967D01*
X99454819Y-38054967D02*
X99407200Y-38150205D01*
X99407200Y-38150205D02*
X99359580Y-38197824D01*
X99359580Y-38197824D02*
X99264342Y-38245443D01*
X99264342Y-38245443D02*
X99073866Y-38293062D01*
X99073866Y-38293062D02*
X98835771Y-38293062D01*
X98835771Y-38293062D02*
X98645295Y-38245443D01*
X98645295Y-38245443D02*
X98550057Y-38197824D01*
X98550057Y-38197824D02*
X98502438Y-38150205D01*
X98502438Y-38150205D02*
X98454819Y-38054967D01*
X98454819Y-36816872D02*
X98454819Y-37293062D01*
X98454819Y-37293062D02*
X98931009Y-37340681D01*
X98931009Y-37340681D02*
X98883390Y-37293062D01*
X98883390Y-37293062D02*
X98835771Y-37197824D01*
X98835771Y-37197824D02*
X98835771Y-36959729D01*
X98835771Y-36959729D02*
X98883390Y-36864491D01*
X98883390Y-36864491D02*
X98931009Y-36816872D01*
X98931009Y-36816872D02*
X99026247Y-36769253D01*
X99026247Y-36769253D02*
X99264342Y-36769253D01*
X99264342Y-36769253D02*
X99359580Y-36816872D01*
X99359580Y-36816872D02*
X99407200Y-36864491D01*
X99407200Y-36864491D02*
X99454819Y-36959729D01*
X99454819Y-36959729D02*
X99454819Y-37197824D01*
X99454819Y-37197824D02*
X99407200Y-37293062D01*
X99407200Y-37293062D02*
X99359580Y-37340681D01*
X56154819Y-33119047D02*
X55678628Y-33452380D01*
X56154819Y-33690475D02*
X55154819Y-33690475D01*
X55154819Y-33690475D02*
X55154819Y-33309523D01*
X55154819Y-33309523D02*
X55202438Y-33214285D01*
X55202438Y-33214285D02*
X55250057Y-33166666D01*
X55250057Y-33166666D02*
X55345295Y-33119047D01*
X55345295Y-33119047D02*
X55488152Y-33119047D01*
X55488152Y-33119047D02*
X55583390Y-33166666D01*
X55583390Y-33166666D02*
X55631009Y-33214285D01*
X55631009Y-33214285D02*
X55678628Y-33309523D01*
X55678628Y-33309523D02*
X55678628Y-33690475D01*
X55154819Y-32785713D02*
X55154819Y-32166666D01*
X55154819Y-32166666D02*
X55535771Y-32499999D01*
X55535771Y-32499999D02*
X55535771Y-32357142D01*
X55535771Y-32357142D02*
X55583390Y-32261904D01*
X55583390Y-32261904D02*
X55631009Y-32214285D01*
X55631009Y-32214285D02*
X55726247Y-32166666D01*
X55726247Y-32166666D02*
X55964342Y-32166666D01*
X55964342Y-32166666D02*
X56059580Y-32214285D01*
X56059580Y-32214285D02*
X56107200Y-32261904D01*
X56107200Y-32261904D02*
X56154819Y-32357142D01*
X56154819Y-32357142D02*
X56154819Y-32642856D01*
X56154819Y-32642856D02*
X56107200Y-32738094D01*
X56107200Y-32738094D02*
X56059580Y-32785713D01*
X55154819Y-31547618D02*
X55154819Y-31452380D01*
X55154819Y-31452380D02*
X55202438Y-31357142D01*
X55202438Y-31357142D02*
X55250057Y-31309523D01*
X55250057Y-31309523D02*
X55345295Y-31261904D01*
X55345295Y-31261904D02*
X55535771Y-31214285D01*
X55535771Y-31214285D02*
X55773866Y-31214285D01*
X55773866Y-31214285D02*
X55964342Y-31261904D01*
X55964342Y-31261904D02*
X56059580Y-31309523D01*
X56059580Y-31309523D02*
X56107200Y-31357142D01*
X56107200Y-31357142D02*
X56154819Y-31452380D01*
X56154819Y-31452380D02*
X56154819Y-31547618D01*
X56154819Y-31547618D02*
X56107200Y-31642856D01*
X56107200Y-31642856D02*
X56059580Y-31690475D01*
X56059580Y-31690475D02*
X55964342Y-31738094D01*
X55964342Y-31738094D02*
X55773866Y-31785713D01*
X55773866Y-31785713D02*
X55535771Y-31785713D01*
X55535771Y-31785713D02*
X55345295Y-31738094D01*
X55345295Y-31738094D02*
X55250057Y-31690475D01*
X55250057Y-31690475D02*
X55202438Y-31642856D01*
X55202438Y-31642856D02*
X55154819Y-31547618D01*
X55250057Y-30833332D02*
X55202438Y-30785713D01*
X55202438Y-30785713D02*
X55154819Y-30690475D01*
X55154819Y-30690475D02*
X55154819Y-30452380D01*
X55154819Y-30452380D02*
X55202438Y-30357142D01*
X55202438Y-30357142D02*
X55250057Y-30309523D01*
X55250057Y-30309523D02*
X55345295Y-30261904D01*
X55345295Y-30261904D02*
X55440533Y-30261904D01*
X55440533Y-30261904D02*
X55583390Y-30309523D01*
X55583390Y-30309523D02*
X56154819Y-30880951D01*
X56154819Y-30880951D02*
X56154819Y-30261904D01*
X66554819Y-44519047D02*
X66078628Y-44852380D01*
X66554819Y-45090475D02*
X65554819Y-45090475D01*
X65554819Y-45090475D02*
X65554819Y-44709523D01*
X65554819Y-44709523D02*
X65602438Y-44614285D01*
X65602438Y-44614285D02*
X65650057Y-44566666D01*
X65650057Y-44566666D02*
X65745295Y-44519047D01*
X65745295Y-44519047D02*
X65888152Y-44519047D01*
X65888152Y-44519047D02*
X65983390Y-44566666D01*
X65983390Y-44566666D02*
X66031009Y-44614285D01*
X66031009Y-44614285D02*
X66078628Y-44709523D01*
X66078628Y-44709523D02*
X66078628Y-45090475D01*
X65554819Y-44185713D02*
X65554819Y-43566666D01*
X65554819Y-43566666D02*
X65935771Y-43899999D01*
X65935771Y-43899999D02*
X65935771Y-43757142D01*
X65935771Y-43757142D02*
X65983390Y-43661904D01*
X65983390Y-43661904D02*
X66031009Y-43614285D01*
X66031009Y-43614285D02*
X66126247Y-43566666D01*
X66126247Y-43566666D02*
X66364342Y-43566666D01*
X66364342Y-43566666D02*
X66459580Y-43614285D01*
X66459580Y-43614285D02*
X66507200Y-43661904D01*
X66507200Y-43661904D02*
X66554819Y-43757142D01*
X66554819Y-43757142D02*
X66554819Y-44042856D01*
X66554819Y-44042856D02*
X66507200Y-44138094D01*
X66507200Y-44138094D02*
X66459580Y-44185713D01*
X65554819Y-42947618D02*
X65554819Y-42852380D01*
X65554819Y-42852380D02*
X65602438Y-42757142D01*
X65602438Y-42757142D02*
X65650057Y-42709523D01*
X65650057Y-42709523D02*
X65745295Y-42661904D01*
X65745295Y-42661904D02*
X65935771Y-42614285D01*
X65935771Y-42614285D02*
X66173866Y-42614285D01*
X66173866Y-42614285D02*
X66364342Y-42661904D01*
X66364342Y-42661904D02*
X66459580Y-42709523D01*
X66459580Y-42709523D02*
X66507200Y-42757142D01*
X66507200Y-42757142D02*
X66554819Y-42852380D01*
X66554819Y-42852380D02*
X66554819Y-42947618D01*
X66554819Y-42947618D02*
X66507200Y-43042856D01*
X66507200Y-43042856D02*
X66459580Y-43090475D01*
X66459580Y-43090475D02*
X66364342Y-43138094D01*
X66364342Y-43138094D02*
X66173866Y-43185713D01*
X66173866Y-43185713D02*
X65935771Y-43185713D01*
X65935771Y-43185713D02*
X65745295Y-43138094D01*
X65745295Y-43138094D02*
X65650057Y-43090475D01*
X65650057Y-43090475D02*
X65602438Y-43042856D01*
X65602438Y-43042856D02*
X65554819Y-42947618D01*
X65888152Y-41757142D02*
X66554819Y-41757142D01*
X65507200Y-41995237D02*
X66221485Y-42233332D01*
X66221485Y-42233332D02*
X66221485Y-41614285D01*
X45714285Y-34024819D02*
X45714285Y-34739104D01*
X45714285Y-34739104D02*
X45666666Y-34881961D01*
X45666666Y-34881961D02*
X45571428Y-34977200D01*
X45571428Y-34977200D02*
X45428571Y-35024819D01*
X45428571Y-35024819D02*
X45333333Y-35024819D01*
X46714285Y-35024819D02*
X46142857Y-35024819D01*
X46428571Y-35024819D02*
X46428571Y-34024819D01*
X46428571Y-34024819D02*
X46333333Y-34167676D01*
X46333333Y-34167676D02*
X46238095Y-34262914D01*
X46238095Y-34262914D02*
X46142857Y-34310533D01*
X47333333Y-34024819D02*
X47428571Y-34024819D01*
X47428571Y-34024819D02*
X47523809Y-34072438D01*
X47523809Y-34072438D02*
X47571428Y-34120057D01*
X47571428Y-34120057D02*
X47619047Y-34215295D01*
X47619047Y-34215295D02*
X47666666Y-34405771D01*
X47666666Y-34405771D02*
X47666666Y-34643866D01*
X47666666Y-34643866D02*
X47619047Y-34834342D01*
X47619047Y-34834342D02*
X47571428Y-34929580D01*
X47571428Y-34929580D02*
X47523809Y-34977200D01*
X47523809Y-34977200D02*
X47428571Y-35024819D01*
X47428571Y-35024819D02*
X47333333Y-35024819D01*
X47333333Y-35024819D02*
X47238095Y-34977200D01*
X47238095Y-34977200D02*
X47190476Y-34929580D01*
X47190476Y-34929580D02*
X47142857Y-34834342D01*
X47142857Y-34834342D02*
X47095238Y-34643866D01*
X47095238Y-34643866D02*
X47095238Y-34405771D01*
X47095238Y-34405771D02*
X47142857Y-34215295D01*
X47142857Y-34215295D02*
X47190476Y-34120057D01*
X47190476Y-34120057D02*
X47238095Y-34072438D01*
X47238095Y-34072438D02*
X47333333Y-34024819D01*
X48619047Y-35024819D02*
X48047619Y-35024819D01*
X48333333Y-35024819D02*
X48333333Y-34024819D01*
X48333333Y-34024819D02*
X48238095Y-34167676D01*
X48238095Y-34167676D02*
X48142857Y-34262914D01*
X48142857Y-34262914D02*
X48047619Y-34310533D01*
X46380952Y-24454819D02*
X46047619Y-23978628D01*
X45809524Y-24454819D02*
X45809524Y-23454819D01*
X45809524Y-23454819D02*
X46190476Y-23454819D01*
X46190476Y-23454819D02*
X46285714Y-23502438D01*
X46285714Y-23502438D02*
X46333333Y-23550057D01*
X46333333Y-23550057D02*
X46380952Y-23645295D01*
X46380952Y-23645295D02*
X46380952Y-23788152D01*
X46380952Y-23788152D02*
X46333333Y-23883390D01*
X46333333Y-23883390D02*
X46285714Y-23931009D01*
X46285714Y-23931009D02*
X46190476Y-23978628D01*
X46190476Y-23978628D02*
X45809524Y-23978628D01*
X47333333Y-24454819D02*
X46761905Y-24454819D01*
X47047619Y-24454819D02*
X47047619Y-23454819D01*
X47047619Y-23454819D02*
X46952381Y-23597676D01*
X46952381Y-23597676D02*
X46857143Y-23692914D01*
X46857143Y-23692914D02*
X46761905Y-23740533D01*
X47952381Y-23454819D02*
X48047619Y-23454819D01*
X48047619Y-23454819D02*
X48142857Y-23502438D01*
X48142857Y-23502438D02*
X48190476Y-23550057D01*
X48190476Y-23550057D02*
X48238095Y-23645295D01*
X48238095Y-23645295D02*
X48285714Y-23835771D01*
X48285714Y-23835771D02*
X48285714Y-24073866D01*
X48285714Y-24073866D02*
X48238095Y-24264342D01*
X48238095Y-24264342D02*
X48190476Y-24359580D01*
X48190476Y-24359580D02*
X48142857Y-24407200D01*
X48142857Y-24407200D02*
X48047619Y-24454819D01*
X48047619Y-24454819D02*
X47952381Y-24454819D01*
X47952381Y-24454819D02*
X47857143Y-24407200D01*
X47857143Y-24407200D02*
X47809524Y-24359580D01*
X47809524Y-24359580D02*
X47761905Y-24264342D01*
X47761905Y-24264342D02*
X47714286Y-24073866D01*
X47714286Y-24073866D02*
X47714286Y-23835771D01*
X47714286Y-23835771D02*
X47761905Y-23645295D01*
X47761905Y-23645295D02*
X47809524Y-23550057D01*
X47809524Y-23550057D02*
X47857143Y-23502438D01*
X47857143Y-23502438D02*
X47952381Y-23454819D01*
X49190476Y-23454819D02*
X48714286Y-23454819D01*
X48714286Y-23454819D02*
X48666667Y-23931009D01*
X48666667Y-23931009D02*
X48714286Y-23883390D01*
X48714286Y-23883390D02*
X48809524Y-23835771D01*
X48809524Y-23835771D02*
X49047619Y-23835771D01*
X49047619Y-23835771D02*
X49142857Y-23883390D01*
X49142857Y-23883390D02*
X49190476Y-23931009D01*
X49190476Y-23931009D02*
X49238095Y-24026247D01*
X49238095Y-24026247D02*
X49238095Y-24264342D01*
X49238095Y-24264342D02*
X49190476Y-24359580D01*
X49190476Y-24359580D02*
X49142857Y-24407200D01*
X49142857Y-24407200D02*
X49047619Y-24454819D01*
X49047619Y-24454819D02*
X48809524Y-24454819D01*
X48809524Y-24454819D02*
X48714286Y-24407200D01*
X48714286Y-24407200D02*
X48666667Y-24359580D01*
X53380952Y-39789580D02*
X53333333Y-39837200D01*
X53333333Y-39837200D02*
X53190476Y-39884819D01*
X53190476Y-39884819D02*
X53095238Y-39884819D01*
X53095238Y-39884819D02*
X52952381Y-39837200D01*
X52952381Y-39837200D02*
X52857143Y-39741961D01*
X52857143Y-39741961D02*
X52809524Y-39646723D01*
X52809524Y-39646723D02*
X52761905Y-39456247D01*
X52761905Y-39456247D02*
X52761905Y-39313390D01*
X52761905Y-39313390D02*
X52809524Y-39122914D01*
X52809524Y-39122914D02*
X52857143Y-39027676D01*
X52857143Y-39027676D02*
X52952381Y-38932438D01*
X52952381Y-38932438D02*
X53095238Y-38884819D01*
X53095238Y-38884819D02*
X53190476Y-38884819D01*
X53190476Y-38884819D02*
X53333333Y-38932438D01*
X53333333Y-38932438D02*
X53380952Y-38980057D01*
X53714286Y-38884819D02*
X54333333Y-38884819D01*
X54333333Y-38884819D02*
X54000000Y-39265771D01*
X54000000Y-39265771D02*
X54142857Y-39265771D01*
X54142857Y-39265771D02*
X54238095Y-39313390D01*
X54238095Y-39313390D02*
X54285714Y-39361009D01*
X54285714Y-39361009D02*
X54333333Y-39456247D01*
X54333333Y-39456247D02*
X54333333Y-39694342D01*
X54333333Y-39694342D02*
X54285714Y-39789580D01*
X54285714Y-39789580D02*
X54238095Y-39837200D01*
X54238095Y-39837200D02*
X54142857Y-39884819D01*
X54142857Y-39884819D02*
X53857143Y-39884819D01*
X53857143Y-39884819D02*
X53761905Y-39837200D01*
X53761905Y-39837200D02*
X53714286Y-39789580D01*
X54952381Y-38884819D02*
X55047619Y-38884819D01*
X55047619Y-38884819D02*
X55142857Y-38932438D01*
X55142857Y-38932438D02*
X55190476Y-38980057D01*
X55190476Y-38980057D02*
X55238095Y-39075295D01*
X55238095Y-39075295D02*
X55285714Y-39265771D01*
X55285714Y-39265771D02*
X55285714Y-39503866D01*
X55285714Y-39503866D02*
X55238095Y-39694342D01*
X55238095Y-39694342D02*
X55190476Y-39789580D01*
X55190476Y-39789580D02*
X55142857Y-39837200D01*
X55142857Y-39837200D02*
X55047619Y-39884819D01*
X55047619Y-39884819D02*
X54952381Y-39884819D01*
X54952381Y-39884819D02*
X54857143Y-39837200D01*
X54857143Y-39837200D02*
X54809524Y-39789580D01*
X54809524Y-39789580D02*
X54761905Y-39694342D01*
X54761905Y-39694342D02*
X54714286Y-39503866D01*
X54714286Y-39503866D02*
X54714286Y-39265771D01*
X54714286Y-39265771D02*
X54761905Y-39075295D01*
X54761905Y-39075295D02*
X54809524Y-38980057D01*
X54809524Y-38980057D02*
X54857143Y-38932438D01*
X54857143Y-38932438D02*
X54952381Y-38884819D01*
X56238095Y-39884819D02*
X55666667Y-39884819D01*
X55952381Y-39884819D02*
X55952381Y-38884819D01*
X55952381Y-38884819D02*
X55857143Y-39027676D01*
X55857143Y-39027676D02*
X55761905Y-39122914D01*
X55761905Y-39122914D02*
X55666667Y-39170533D01*
X67480952Y-34204819D02*
X67147619Y-33728628D01*
X66909524Y-34204819D02*
X66909524Y-33204819D01*
X66909524Y-33204819D02*
X67290476Y-33204819D01*
X67290476Y-33204819D02*
X67385714Y-33252438D01*
X67385714Y-33252438D02*
X67433333Y-33300057D01*
X67433333Y-33300057D02*
X67480952Y-33395295D01*
X67480952Y-33395295D02*
X67480952Y-33538152D01*
X67480952Y-33538152D02*
X67433333Y-33633390D01*
X67433333Y-33633390D02*
X67385714Y-33681009D01*
X67385714Y-33681009D02*
X67290476Y-33728628D01*
X67290476Y-33728628D02*
X66909524Y-33728628D01*
X67814286Y-33204819D02*
X68433333Y-33204819D01*
X68433333Y-33204819D02*
X68100000Y-33585771D01*
X68100000Y-33585771D02*
X68242857Y-33585771D01*
X68242857Y-33585771D02*
X68338095Y-33633390D01*
X68338095Y-33633390D02*
X68385714Y-33681009D01*
X68385714Y-33681009D02*
X68433333Y-33776247D01*
X68433333Y-33776247D02*
X68433333Y-34014342D01*
X68433333Y-34014342D02*
X68385714Y-34109580D01*
X68385714Y-34109580D02*
X68338095Y-34157200D01*
X68338095Y-34157200D02*
X68242857Y-34204819D01*
X68242857Y-34204819D02*
X67957143Y-34204819D01*
X67957143Y-34204819D02*
X67861905Y-34157200D01*
X67861905Y-34157200D02*
X67814286Y-34109580D01*
X69052381Y-33204819D02*
X69147619Y-33204819D01*
X69147619Y-33204819D02*
X69242857Y-33252438D01*
X69242857Y-33252438D02*
X69290476Y-33300057D01*
X69290476Y-33300057D02*
X69338095Y-33395295D01*
X69338095Y-33395295D02*
X69385714Y-33585771D01*
X69385714Y-33585771D02*
X69385714Y-33823866D01*
X69385714Y-33823866D02*
X69338095Y-34014342D01*
X69338095Y-34014342D02*
X69290476Y-34109580D01*
X69290476Y-34109580D02*
X69242857Y-34157200D01*
X69242857Y-34157200D02*
X69147619Y-34204819D01*
X69147619Y-34204819D02*
X69052381Y-34204819D01*
X69052381Y-34204819D02*
X68957143Y-34157200D01*
X68957143Y-34157200D02*
X68909524Y-34109580D01*
X68909524Y-34109580D02*
X68861905Y-34014342D01*
X68861905Y-34014342D02*
X68814286Y-33823866D01*
X68814286Y-33823866D02*
X68814286Y-33585771D01*
X68814286Y-33585771D02*
X68861905Y-33395295D01*
X68861905Y-33395295D02*
X68909524Y-33300057D01*
X68909524Y-33300057D02*
X68957143Y-33252438D01*
X68957143Y-33252438D02*
X69052381Y-33204819D01*
X70242857Y-33204819D02*
X70052381Y-33204819D01*
X70052381Y-33204819D02*
X69957143Y-33252438D01*
X69957143Y-33252438D02*
X69909524Y-33300057D01*
X69909524Y-33300057D02*
X69814286Y-33442914D01*
X69814286Y-33442914D02*
X69766667Y-33633390D01*
X69766667Y-33633390D02*
X69766667Y-34014342D01*
X69766667Y-34014342D02*
X69814286Y-34109580D01*
X69814286Y-34109580D02*
X69861905Y-34157200D01*
X69861905Y-34157200D02*
X69957143Y-34204819D01*
X69957143Y-34204819D02*
X70147619Y-34204819D01*
X70147619Y-34204819D02*
X70242857Y-34157200D01*
X70242857Y-34157200D02*
X70290476Y-34109580D01*
X70290476Y-34109580D02*
X70338095Y-34014342D01*
X70338095Y-34014342D02*
X70338095Y-33776247D01*
X70338095Y-33776247D02*
X70290476Y-33681009D01*
X70290476Y-33681009D02*
X70242857Y-33633390D01*
X70242857Y-33633390D02*
X70147619Y-33585771D01*
X70147619Y-33585771D02*
X69957143Y-33585771D01*
X69957143Y-33585771D02*
X69861905Y-33633390D01*
X69861905Y-33633390D02*
X69814286Y-33681009D01*
X69814286Y-33681009D02*
X69766667Y-33776247D01*
X50880952Y-34784819D02*
X50547619Y-34308628D01*
X50309524Y-34784819D02*
X50309524Y-33784819D01*
X50309524Y-33784819D02*
X50690476Y-33784819D01*
X50690476Y-33784819D02*
X50785714Y-33832438D01*
X50785714Y-33832438D02*
X50833333Y-33880057D01*
X50833333Y-33880057D02*
X50880952Y-33975295D01*
X50880952Y-33975295D02*
X50880952Y-34118152D01*
X50880952Y-34118152D02*
X50833333Y-34213390D01*
X50833333Y-34213390D02*
X50785714Y-34261009D01*
X50785714Y-34261009D02*
X50690476Y-34308628D01*
X50690476Y-34308628D02*
X50309524Y-34308628D01*
X51214286Y-33784819D02*
X51833333Y-33784819D01*
X51833333Y-33784819D02*
X51500000Y-34165771D01*
X51500000Y-34165771D02*
X51642857Y-34165771D01*
X51642857Y-34165771D02*
X51738095Y-34213390D01*
X51738095Y-34213390D02*
X51785714Y-34261009D01*
X51785714Y-34261009D02*
X51833333Y-34356247D01*
X51833333Y-34356247D02*
X51833333Y-34594342D01*
X51833333Y-34594342D02*
X51785714Y-34689580D01*
X51785714Y-34689580D02*
X51738095Y-34737200D01*
X51738095Y-34737200D02*
X51642857Y-34784819D01*
X51642857Y-34784819D02*
X51357143Y-34784819D01*
X51357143Y-34784819D02*
X51261905Y-34737200D01*
X51261905Y-34737200D02*
X51214286Y-34689580D01*
X52452381Y-33784819D02*
X52547619Y-33784819D01*
X52547619Y-33784819D02*
X52642857Y-33832438D01*
X52642857Y-33832438D02*
X52690476Y-33880057D01*
X52690476Y-33880057D02*
X52738095Y-33975295D01*
X52738095Y-33975295D02*
X52785714Y-34165771D01*
X52785714Y-34165771D02*
X52785714Y-34403866D01*
X52785714Y-34403866D02*
X52738095Y-34594342D01*
X52738095Y-34594342D02*
X52690476Y-34689580D01*
X52690476Y-34689580D02*
X52642857Y-34737200D01*
X52642857Y-34737200D02*
X52547619Y-34784819D01*
X52547619Y-34784819D02*
X52452381Y-34784819D01*
X52452381Y-34784819D02*
X52357143Y-34737200D01*
X52357143Y-34737200D02*
X52309524Y-34689580D01*
X52309524Y-34689580D02*
X52261905Y-34594342D01*
X52261905Y-34594342D02*
X52214286Y-34403866D01*
X52214286Y-34403866D02*
X52214286Y-34165771D01*
X52214286Y-34165771D02*
X52261905Y-33975295D01*
X52261905Y-33975295D02*
X52309524Y-33880057D01*
X52309524Y-33880057D02*
X52357143Y-33832438D01*
X52357143Y-33832438D02*
X52452381Y-33784819D01*
X53738095Y-34784819D02*
X53166667Y-34784819D01*
X53452381Y-34784819D02*
X53452381Y-33784819D01*
X53452381Y-33784819D02*
X53357143Y-33927676D01*
X53357143Y-33927676D02*
X53261905Y-34022914D01*
X53261905Y-34022914D02*
X53166667Y-34070533D01*
X54949580Y-24369047D02*
X54997200Y-24416666D01*
X54997200Y-24416666D02*
X55044819Y-24559523D01*
X55044819Y-24559523D02*
X55044819Y-24654761D01*
X55044819Y-24654761D02*
X54997200Y-24797618D01*
X54997200Y-24797618D02*
X54901961Y-24892856D01*
X54901961Y-24892856D02*
X54806723Y-24940475D01*
X54806723Y-24940475D02*
X54616247Y-24988094D01*
X54616247Y-24988094D02*
X54473390Y-24988094D01*
X54473390Y-24988094D02*
X54282914Y-24940475D01*
X54282914Y-24940475D02*
X54187676Y-24892856D01*
X54187676Y-24892856D02*
X54092438Y-24797618D01*
X54092438Y-24797618D02*
X54044819Y-24654761D01*
X54044819Y-24654761D02*
X54044819Y-24559523D01*
X54044819Y-24559523D02*
X54092438Y-24416666D01*
X54092438Y-24416666D02*
X54140057Y-24369047D01*
X55044819Y-23416666D02*
X55044819Y-23988094D01*
X55044819Y-23702380D02*
X54044819Y-23702380D01*
X54044819Y-23702380D02*
X54187676Y-23797618D01*
X54187676Y-23797618D02*
X54282914Y-23892856D01*
X54282914Y-23892856D02*
X54330533Y-23988094D01*
X54044819Y-22797618D02*
X54044819Y-22702380D01*
X54044819Y-22702380D02*
X54092438Y-22607142D01*
X54092438Y-22607142D02*
X54140057Y-22559523D01*
X54140057Y-22559523D02*
X54235295Y-22511904D01*
X54235295Y-22511904D02*
X54425771Y-22464285D01*
X54425771Y-22464285D02*
X54663866Y-22464285D01*
X54663866Y-22464285D02*
X54854342Y-22511904D01*
X54854342Y-22511904D02*
X54949580Y-22559523D01*
X54949580Y-22559523D02*
X54997200Y-22607142D01*
X54997200Y-22607142D02*
X55044819Y-22702380D01*
X55044819Y-22702380D02*
X55044819Y-22797618D01*
X55044819Y-22797618D02*
X54997200Y-22892856D01*
X54997200Y-22892856D02*
X54949580Y-22940475D01*
X54949580Y-22940475D02*
X54854342Y-22988094D01*
X54854342Y-22988094D02*
X54663866Y-23035713D01*
X54663866Y-23035713D02*
X54425771Y-23035713D01*
X54425771Y-23035713D02*
X54235295Y-22988094D01*
X54235295Y-22988094D02*
X54140057Y-22940475D01*
X54140057Y-22940475D02*
X54092438Y-22892856D01*
X54092438Y-22892856D02*
X54044819Y-22797618D01*
X54140057Y-22083332D02*
X54092438Y-22035713D01*
X54092438Y-22035713D02*
X54044819Y-21940475D01*
X54044819Y-21940475D02*
X54044819Y-21702380D01*
X54044819Y-21702380D02*
X54092438Y-21607142D01*
X54092438Y-21607142D02*
X54140057Y-21559523D01*
X54140057Y-21559523D02*
X54235295Y-21511904D01*
X54235295Y-21511904D02*
X54330533Y-21511904D01*
X54330533Y-21511904D02*
X54473390Y-21559523D01*
X54473390Y-21559523D02*
X55044819Y-22130951D01*
X55044819Y-22130951D02*
X55044819Y-21511904D01*
X46280952Y-27654819D02*
X45947619Y-27178628D01*
X45709524Y-27654819D02*
X45709524Y-26654819D01*
X45709524Y-26654819D02*
X46090476Y-26654819D01*
X46090476Y-26654819D02*
X46185714Y-26702438D01*
X46185714Y-26702438D02*
X46233333Y-26750057D01*
X46233333Y-26750057D02*
X46280952Y-26845295D01*
X46280952Y-26845295D02*
X46280952Y-26988152D01*
X46280952Y-26988152D02*
X46233333Y-27083390D01*
X46233333Y-27083390D02*
X46185714Y-27131009D01*
X46185714Y-27131009D02*
X46090476Y-27178628D01*
X46090476Y-27178628D02*
X45709524Y-27178628D01*
X47233333Y-27654819D02*
X46661905Y-27654819D01*
X46947619Y-27654819D02*
X46947619Y-26654819D01*
X46947619Y-26654819D02*
X46852381Y-26797676D01*
X46852381Y-26797676D02*
X46757143Y-26892914D01*
X46757143Y-26892914D02*
X46661905Y-26940533D01*
X47852381Y-26654819D02*
X47947619Y-26654819D01*
X47947619Y-26654819D02*
X48042857Y-26702438D01*
X48042857Y-26702438D02*
X48090476Y-26750057D01*
X48090476Y-26750057D02*
X48138095Y-26845295D01*
X48138095Y-26845295D02*
X48185714Y-27035771D01*
X48185714Y-27035771D02*
X48185714Y-27273866D01*
X48185714Y-27273866D02*
X48138095Y-27464342D01*
X48138095Y-27464342D02*
X48090476Y-27559580D01*
X48090476Y-27559580D02*
X48042857Y-27607200D01*
X48042857Y-27607200D02*
X47947619Y-27654819D01*
X47947619Y-27654819D02*
X47852381Y-27654819D01*
X47852381Y-27654819D02*
X47757143Y-27607200D01*
X47757143Y-27607200D02*
X47709524Y-27559580D01*
X47709524Y-27559580D02*
X47661905Y-27464342D01*
X47661905Y-27464342D02*
X47614286Y-27273866D01*
X47614286Y-27273866D02*
X47614286Y-27035771D01*
X47614286Y-27035771D02*
X47661905Y-26845295D01*
X47661905Y-26845295D02*
X47709524Y-26750057D01*
X47709524Y-26750057D02*
X47757143Y-26702438D01*
X47757143Y-26702438D02*
X47852381Y-26654819D01*
X49042857Y-26654819D02*
X48852381Y-26654819D01*
X48852381Y-26654819D02*
X48757143Y-26702438D01*
X48757143Y-26702438D02*
X48709524Y-26750057D01*
X48709524Y-26750057D02*
X48614286Y-26892914D01*
X48614286Y-26892914D02*
X48566667Y-27083390D01*
X48566667Y-27083390D02*
X48566667Y-27464342D01*
X48566667Y-27464342D02*
X48614286Y-27559580D01*
X48614286Y-27559580D02*
X48661905Y-27607200D01*
X48661905Y-27607200D02*
X48757143Y-27654819D01*
X48757143Y-27654819D02*
X48947619Y-27654819D01*
X48947619Y-27654819D02*
X49042857Y-27607200D01*
X49042857Y-27607200D02*
X49090476Y-27559580D01*
X49090476Y-27559580D02*
X49138095Y-27464342D01*
X49138095Y-27464342D02*
X49138095Y-27226247D01*
X49138095Y-27226247D02*
X49090476Y-27131009D01*
X49090476Y-27131009D02*
X49042857Y-27083390D01*
X49042857Y-27083390D02*
X48947619Y-27035771D01*
X48947619Y-27035771D02*
X48757143Y-27035771D01*
X48757143Y-27035771D02*
X48661905Y-27083390D01*
X48661905Y-27083390D02*
X48614286Y-27131009D01*
X48614286Y-27131009D02*
X48566667Y-27226247D01*
X68554819Y-44619047D02*
X68078628Y-44952380D01*
X68554819Y-45190475D02*
X67554819Y-45190475D01*
X67554819Y-45190475D02*
X67554819Y-44809523D01*
X67554819Y-44809523D02*
X67602438Y-44714285D01*
X67602438Y-44714285D02*
X67650057Y-44666666D01*
X67650057Y-44666666D02*
X67745295Y-44619047D01*
X67745295Y-44619047D02*
X67888152Y-44619047D01*
X67888152Y-44619047D02*
X67983390Y-44666666D01*
X67983390Y-44666666D02*
X68031009Y-44714285D01*
X68031009Y-44714285D02*
X68078628Y-44809523D01*
X68078628Y-44809523D02*
X68078628Y-45190475D01*
X67554819Y-44285713D02*
X67554819Y-43666666D01*
X67554819Y-43666666D02*
X67935771Y-43999999D01*
X67935771Y-43999999D02*
X67935771Y-43857142D01*
X67935771Y-43857142D02*
X67983390Y-43761904D01*
X67983390Y-43761904D02*
X68031009Y-43714285D01*
X68031009Y-43714285D02*
X68126247Y-43666666D01*
X68126247Y-43666666D02*
X68364342Y-43666666D01*
X68364342Y-43666666D02*
X68459580Y-43714285D01*
X68459580Y-43714285D02*
X68507200Y-43761904D01*
X68507200Y-43761904D02*
X68554819Y-43857142D01*
X68554819Y-43857142D02*
X68554819Y-44142856D01*
X68554819Y-44142856D02*
X68507200Y-44238094D01*
X68507200Y-44238094D02*
X68459580Y-44285713D01*
X67554819Y-43047618D02*
X67554819Y-42952380D01*
X67554819Y-42952380D02*
X67602438Y-42857142D01*
X67602438Y-42857142D02*
X67650057Y-42809523D01*
X67650057Y-42809523D02*
X67745295Y-42761904D01*
X67745295Y-42761904D02*
X67935771Y-42714285D01*
X67935771Y-42714285D02*
X68173866Y-42714285D01*
X68173866Y-42714285D02*
X68364342Y-42761904D01*
X68364342Y-42761904D02*
X68459580Y-42809523D01*
X68459580Y-42809523D02*
X68507200Y-42857142D01*
X68507200Y-42857142D02*
X68554819Y-42952380D01*
X68554819Y-42952380D02*
X68554819Y-43047618D01*
X68554819Y-43047618D02*
X68507200Y-43142856D01*
X68507200Y-43142856D02*
X68459580Y-43190475D01*
X68459580Y-43190475D02*
X68364342Y-43238094D01*
X68364342Y-43238094D02*
X68173866Y-43285713D01*
X68173866Y-43285713D02*
X67935771Y-43285713D01*
X67935771Y-43285713D02*
X67745295Y-43238094D01*
X67745295Y-43238094D02*
X67650057Y-43190475D01*
X67650057Y-43190475D02*
X67602438Y-43142856D01*
X67602438Y-43142856D02*
X67554819Y-43047618D01*
X67554819Y-42380951D02*
X67554819Y-41761904D01*
X67554819Y-41761904D02*
X67935771Y-42095237D01*
X67935771Y-42095237D02*
X67935771Y-41952380D01*
X67935771Y-41952380D02*
X67983390Y-41857142D01*
X67983390Y-41857142D02*
X68031009Y-41809523D01*
X68031009Y-41809523D02*
X68126247Y-41761904D01*
X68126247Y-41761904D02*
X68364342Y-41761904D01*
X68364342Y-41761904D02*
X68459580Y-41809523D01*
X68459580Y-41809523D02*
X68507200Y-41857142D01*
X68507200Y-41857142D02*
X68554819Y-41952380D01*
X68554819Y-41952380D02*
X68554819Y-42238094D01*
X68554819Y-42238094D02*
X68507200Y-42333332D01*
X68507200Y-42333332D02*
X68459580Y-42380951D01*
X54034819Y-45369047D02*
X53558628Y-45702380D01*
X54034819Y-45940475D02*
X53034819Y-45940475D01*
X53034819Y-45940475D02*
X53034819Y-45559523D01*
X53034819Y-45559523D02*
X53082438Y-45464285D01*
X53082438Y-45464285D02*
X53130057Y-45416666D01*
X53130057Y-45416666D02*
X53225295Y-45369047D01*
X53225295Y-45369047D02*
X53368152Y-45369047D01*
X53368152Y-45369047D02*
X53463390Y-45416666D01*
X53463390Y-45416666D02*
X53511009Y-45464285D01*
X53511009Y-45464285D02*
X53558628Y-45559523D01*
X53558628Y-45559523D02*
X53558628Y-45940475D01*
X53034819Y-45035713D02*
X53034819Y-44416666D01*
X53034819Y-44416666D02*
X53415771Y-44749999D01*
X53415771Y-44749999D02*
X53415771Y-44607142D01*
X53415771Y-44607142D02*
X53463390Y-44511904D01*
X53463390Y-44511904D02*
X53511009Y-44464285D01*
X53511009Y-44464285D02*
X53606247Y-44416666D01*
X53606247Y-44416666D02*
X53844342Y-44416666D01*
X53844342Y-44416666D02*
X53939580Y-44464285D01*
X53939580Y-44464285D02*
X53987200Y-44511904D01*
X53987200Y-44511904D02*
X54034819Y-44607142D01*
X54034819Y-44607142D02*
X54034819Y-44892856D01*
X54034819Y-44892856D02*
X53987200Y-44988094D01*
X53987200Y-44988094D02*
X53939580Y-45035713D01*
X53034819Y-43797618D02*
X53034819Y-43702380D01*
X53034819Y-43702380D02*
X53082438Y-43607142D01*
X53082438Y-43607142D02*
X53130057Y-43559523D01*
X53130057Y-43559523D02*
X53225295Y-43511904D01*
X53225295Y-43511904D02*
X53415771Y-43464285D01*
X53415771Y-43464285D02*
X53653866Y-43464285D01*
X53653866Y-43464285D02*
X53844342Y-43511904D01*
X53844342Y-43511904D02*
X53939580Y-43559523D01*
X53939580Y-43559523D02*
X53987200Y-43607142D01*
X53987200Y-43607142D02*
X54034819Y-43702380D01*
X54034819Y-43702380D02*
X54034819Y-43797618D01*
X54034819Y-43797618D02*
X53987200Y-43892856D01*
X53987200Y-43892856D02*
X53939580Y-43940475D01*
X53939580Y-43940475D02*
X53844342Y-43988094D01*
X53844342Y-43988094D02*
X53653866Y-44035713D01*
X53653866Y-44035713D02*
X53415771Y-44035713D01*
X53415771Y-44035713D02*
X53225295Y-43988094D01*
X53225295Y-43988094D02*
X53130057Y-43940475D01*
X53130057Y-43940475D02*
X53082438Y-43892856D01*
X53082438Y-43892856D02*
X53034819Y-43797618D01*
X53034819Y-42559523D02*
X53034819Y-43035713D01*
X53034819Y-43035713D02*
X53511009Y-43083332D01*
X53511009Y-43083332D02*
X53463390Y-43035713D01*
X53463390Y-43035713D02*
X53415771Y-42940475D01*
X53415771Y-42940475D02*
X53415771Y-42702380D01*
X53415771Y-42702380D02*
X53463390Y-42607142D01*
X53463390Y-42607142D02*
X53511009Y-42559523D01*
X53511009Y-42559523D02*
X53606247Y-42511904D01*
X53606247Y-42511904D02*
X53844342Y-42511904D01*
X53844342Y-42511904D02*
X53939580Y-42559523D01*
X53939580Y-42559523D02*
X53987200Y-42607142D01*
X53987200Y-42607142D02*
X54034819Y-42702380D01*
X54034819Y-42702380D02*
X54034819Y-42940475D01*
X54034819Y-42940475D02*
X53987200Y-43035713D01*
X53987200Y-43035713D02*
X53939580Y-43083332D01*
X58630952Y-30929580D02*
X58583333Y-30977200D01*
X58583333Y-30977200D02*
X58440476Y-31024819D01*
X58440476Y-31024819D02*
X58345238Y-31024819D01*
X58345238Y-31024819D02*
X58202381Y-30977200D01*
X58202381Y-30977200D02*
X58107143Y-30881961D01*
X58107143Y-30881961D02*
X58059524Y-30786723D01*
X58059524Y-30786723D02*
X58011905Y-30596247D01*
X58011905Y-30596247D02*
X58011905Y-30453390D01*
X58011905Y-30453390D02*
X58059524Y-30262914D01*
X58059524Y-30262914D02*
X58107143Y-30167676D01*
X58107143Y-30167676D02*
X58202381Y-30072438D01*
X58202381Y-30072438D02*
X58345238Y-30024819D01*
X58345238Y-30024819D02*
X58440476Y-30024819D01*
X58440476Y-30024819D02*
X58583333Y-30072438D01*
X58583333Y-30072438D02*
X58630952Y-30120057D01*
X58964286Y-30024819D02*
X59583333Y-30024819D01*
X59583333Y-30024819D02*
X59250000Y-30405771D01*
X59250000Y-30405771D02*
X59392857Y-30405771D01*
X59392857Y-30405771D02*
X59488095Y-30453390D01*
X59488095Y-30453390D02*
X59535714Y-30501009D01*
X59535714Y-30501009D02*
X59583333Y-30596247D01*
X59583333Y-30596247D02*
X59583333Y-30834342D01*
X59583333Y-30834342D02*
X59535714Y-30929580D01*
X59535714Y-30929580D02*
X59488095Y-30977200D01*
X59488095Y-30977200D02*
X59392857Y-31024819D01*
X59392857Y-31024819D02*
X59107143Y-31024819D01*
X59107143Y-31024819D02*
X59011905Y-30977200D01*
X59011905Y-30977200D02*
X58964286Y-30929580D01*
X60202381Y-30024819D02*
X60297619Y-30024819D01*
X60297619Y-30024819D02*
X60392857Y-30072438D01*
X60392857Y-30072438D02*
X60440476Y-30120057D01*
X60440476Y-30120057D02*
X60488095Y-30215295D01*
X60488095Y-30215295D02*
X60535714Y-30405771D01*
X60535714Y-30405771D02*
X60535714Y-30643866D01*
X60535714Y-30643866D02*
X60488095Y-30834342D01*
X60488095Y-30834342D02*
X60440476Y-30929580D01*
X60440476Y-30929580D02*
X60392857Y-30977200D01*
X60392857Y-30977200D02*
X60297619Y-31024819D01*
X60297619Y-31024819D02*
X60202381Y-31024819D01*
X60202381Y-31024819D02*
X60107143Y-30977200D01*
X60107143Y-30977200D02*
X60059524Y-30929580D01*
X60059524Y-30929580D02*
X60011905Y-30834342D01*
X60011905Y-30834342D02*
X59964286Y-30643866D01*
X59964286Y-30643866D02*
X59964286Y-30405771D01*
X59964286Y-30405771D02*
X60011905Y-30215295D01*
X60011905Y-30215295D02*
X60059524Y-30120057D01*
X60059524Y-30120057D02*
X60107143Y-30072438D01*
X60107143Y-30072438D02*
X60202381Y-30024819D01*
X60916667Y-30120057D02*
X60964286Y-30072438D01*
X60964286Y-30072438D02*
X61059524Y-30024819D01*
X61059524Y-30024819D02*
X61297619Y-30024819D01*
X61297619Y-30024819D02*
X61392857Y-30072438D01*
X61392857Y-30072438D02*
X61440476Y-30120057D01*
X61440476Y-30120057D02*
X61488095Y-30215295D01*
X61488095Y-30215295D02*
X61488095Y-30310533D01*
X61488095Y-30310533D02*
X61440476Y-30453390D01*
X61440476Y-30453390D02*
X60869048Y-31024819D01*
X60869048Y-31024819D02*
X61488095Y-31024819D01*
X63659580Y-57619047D02*
X63707200Y-57666666D01*
X63707200Y-57666666D02*
X63754819Y-57809523D01*
X63754819Y-57809523D02*
X63754819Y-57904761D01*
X63754819Y-57904761D02*
X63707200Y-58047618D01*
X63707200Y-58047618D02*
X63611961Y-58142856D01*
X63611961Y-58142856D02*
X63516723Y-58190475D01*
X63516723Y-58190475D02*
X63326247Y-58238094D01*
X63326247Y-58238094D02*
X63183390Y-58238094D01*
X63183390Y-58238094D02*
X62992914Y-58190475D01*
X62992914Y-58190475D02*
X62897676Y-58142856D01*
X62897676Y-58142856D02*
X62802438Y-58047618D01*
X62802438Y-58047618D02*
X62754819Y-57904761D01*
X62754819Y-57904761D02*
X62754819Y-57809523D01*
X62754819Y-57809523D02*
X62802438Y-57666666D01*
X62802438Y-57666666D02*
X62850057Y-57619047D01*
X62850057Y-57238094D02*
X62802438Y-57190475D01*
X62802438Y-57190475D02*
X62754819Y-57095237D01*
X62754819Y-57095237D02*
X62754819Y-56857142D01*
X62754819Y-56857142D02*
X62802438Y-56761904D01*
X62802438Y-56761904D02*
X62850057Y-56714285D01*
X62850057Y-56714285D02*
X62945295Y-56666666D01*
X62945295Y-56666666D02*
X63040533Y-56666666D01*
X63040533Y-56666666D02*
X63183390Y-56714285D01*
X63183390Y-56714285D02*
X63754819Y-57285713D01*
X63754819Y-57285713D02*
X63754819Y-56666666D01*
X62754819Y-56047618D02*
X62754819Y-55952380D01*
X62754819Y-55952380D02*
X62802438Y-55857142D01*
X62802438Y-55857142D02*
X62850057Y-55809523D01*
X62850057Y-55809523D02*
X62945295Y-55761904D01*
X62945295Y-55761904D02*
X63135771Y-55714285D01*
X63135771Y-55714285D02*
X63373866Y-55714285D01*
X63373866Y-55714285D02*
X63564342Y-55761904D01*
X63564342Y-55761904D02*
X63659580Y-55809523D01*
X63659580Y-55809523D02*
X63707200Y-55857142D01*
X63707200Y-55857142D02*
X63754819Y-55952380D01*
X63754819Y-55952380D02*
X63754819Y-56047618D01*
X63754819Y-56047618D02*
X63707200Y-56142856D01*
X63707200Y-56142856D02*
X63659580Y-56190475D01*
X63659580Y-56190475D02*
X63564342Y-56238094D01*
X63564342Y-56238094D02*
X63373866Y-56285713D01*
X63373866Y-56285713D02*
X63135771Y-56285713D01*
X63135771Y-56285713D02*
X62945295Y-56238094D01*
X62945295Y-56238094D02*
X62850057Y-56190475D01*
X62850057Y-56190475D02*
X62802438Y-56142856D01*
X62802438Y-56142856D02*
X62754819Y-56047618D01*
X62850057Y-55333332D02*
X62802438Y-55285713D01*
X62802438Y-55285713D02*
X62754819Y-55190475D01*
X62754819Y-55190475D02*
X62754819Y-54952380D01*
X62754819Y-54952380D02*
X62802438Y-54857142D01*
X62802438Y-54857142D02*
X62850057Y-54809523D01*
X62850057Y-54809523D02*
X62945295Y-54761904D01*
X62945295Y-54761904D02*
X63040533Y-54761904D01*
X63040533Y-54761904D02*
X63183390Y-54809523D01*
X63183390Y-54809523D02*
X63754819Y-55380951D01*
X63754819Y-55380951D02*
X63754819Y-54761904D01*
X70209580Y-27619047D02*
X70257200Y-27666666D01*
X70257200Y-27666666D02*
X70304819Y-27809523D01*
X70304819Y-27809523D02*
X70304819Y-27904761D01*
X70304819Y-27904761D02*
X70257200Y-28047618D01*
X70257200Y-28047618D02*
X70161961Y-28142856D01*
X70161961Y-28142856D02*
X70066723Y-28190475D01*
X70066723Y-28190475D02*
X69876247Y-28238094D01*
X69876247Y-28238094D02*
X69733390Y-28238094D01*
X69733390Y-28238094D02*
X69542914Y-28190475D01*
X69542914Y-28190475D02*
X69447676Y-28142856D01*
X69447676Y-28142856D02*
X69352438Y-28047618D01*
X69352438Y-28047618D02*
X69304819Y-27904761D01*
X69304819Y-27904761D02*
X69304819Y-27809523D01*
X69304819Y-27809523D02*
X69352438Y-27666666D01*
X69352438Y-27666666D02*
X69400057Y-27619047D01*
X69304819Y-27285713D02*
X69304819Y-26666666D01*
X69304819Y-26666666D02*
X69685771Y-26999999D01*
X69685771Y-26999999D02*
X69685771Y-26857142D01*
X69685771Y-26857142D02*
X69733390Y-26761904D01*
X69733390Y-26761904D02*
X69781009Y-26714285D01*
X69781009Y-26714285D02*
X69876247Y-26666666D01*
X69876247Y-26666666D02*
X70114342Y-26666666D01*
X70114342Y-26666666D02*
X70209580Y-26714285D01*
X70209580Y-26714285D02*
X70257200Y-26761904D01*
X70257200Y-26761904D02*
X70304819Y-26857142D01*
X70304819Y-26857142D02*
X70304819Y-27142856D01*
X70304819Y-27142856D02*
X70257200Y-27238094D01*
X70257200Y-27238094D02*
X70209580Y-27285713D01*
X69304819Y-26047618D02*
X69304819Y-25952380D01*
X69304819Y-25952380D02*
X69352438Y-25857142D01*
X69352438Y-25857142D02*
X69400057Y-25809523D01*
X69400057Y-25809523D02*
X69495295Y-25761904D01*
X69495295Y-25761904D02*
X69685771Y-25714285D01*
X69685771Y-25714285D02*
X69923866Y-25714285D01*
X69923866Y-25714285D02*
X70114342Y-25761904D01*
X70114342Y-25761904D02*
X70209580Y-25809523D01*
X70209580Y-25809523D02*
X70257200Y-25857142D01*
X70257200Y-25857142D02*
X70304819Y-25952380D01*
X70304819Y-25952380D02*
X70304819Y-26047618D01*
X70304819Y-26047618D02*
X70257200Y-26142856D01*
X70257200Y-26142856D02*
X70209580Y-26190475D01*
X70209580Y-26190475D02*
X70114342Y-26238094D01*
X70114342Y-26238094D02*
X69923866Y-26285713D01*
X69923866Y-26285713D02*
X69685771Y-26285713D01*
X69685771Y-26285713D02*
X69495295Y-26238094D01*
X69495295Y-26238094D02*
X69400057Y-26190475D01*
X69400057Y-26190475D02*
X69352438Y-26142856D01*
X69352438Y-26142856D02*
X69304819Y-26047618D01*
X69304819Y-25380951D02*
X69304819Y-24761904D01*
X69304819Y-24761904D02*
X69685771Y-25095237D01*
X69685771Y-25095237D02*
X69685771Y-24952380D01*
X69685771Y-24952380D02*
X69733390Y-24857142D01*
X69733390Y-24857142D02*
X69781009Y-24809523D01*
X69781009Y-24809523D02*
X69876247Y-24761904D01*
X69876247Y-24761904D02*
X70114342Y-24761904D01*
X70114342Y-24761904D02*
X70209580Y-24809523D01*
X70209580Y-24809523D02*
X70257200Y-24857142D01*
X70257200Y-24857142D02*
X70304819Y-24952380D01*
X70304819Y-24952380D02*
X70304819Y-25238094D01*
X70304819Y-25238094D02*
X70257200Y-25333332D01*
X70257200Y-25333332D02*
X70209580Y-25380951D01*
X56380952Y-56259580D02*
X56333333Y-56307200D01*
X56333333Y-56307200D02*
X56190476Y-56354819D01*
X56190476Y-56354819D02*
X56095238Y-56354819D01*
X56095238Y-56354819D02*
X55952381Y-56307200D01*
X55952381Y-56307200D02*
X55857143Y-56211961D01*
X55857143Y-56211961D02*
X55809524Y-56116723D01*
X55809524Y-56116723D02*
X55761905Y-55926247D01*
X55761905Y-55926247D02*
X55761905Y-55783390D01*
X55761905Y-55783390D02*
X55809524Y-55592914D01*
X55809524Y-55592914D02*
X55857143Y-55497676D01*
X55857143Y-55497676D02*
X55952381Y-55402438D01*
X55952381Y-55402438D02*
X56095238Y-55354819D01*
X56095238Y-55354819D02*
X56190476Y-55354819D01*
X56190476Y-55354819D02*
X56333333Y-55402438D01*
X56333333Y-55402438D02*
X56380952Y-55450057D01*
X56761905Y-55450057D02*
X56809524Y-55402438D01*
X56809524Y-55402438D02*
X56904762Y-55354819D01*
X56904762Y-55354819D02*
X57142857Y-55354819D01*
X57142857Y-55354819D02*
X57238095Y-55402438D01*
X57238095Y-55402438D02*
X57285714Y-55450057D01*
X57285714Y-55450057D02*
X57333333Y-55545295D01*
X57333333Y-55545295D02*
X57333333Y-55640533D01*
X57333333Y-55640533D02*
X57285714Y-55783390D01*
X57285714Y-55783390D02*
X56714286Y-56354819D01*
X56714286Y-56354819D02*
X57333333Y-56354819D01*
X57952381Y-55354819D02*
X58047619Y-55354819D01*
X58047619Y-55354819D02*
X58142857Y-55402438D01*
X58142857Y-55402438D02*
X58190476Y-55450057D01*
X58190476Y-55450057D02*
X58238095Y-55545295D01*
X58238095Y-55545295D02*
X58285714Y-55735771D01*
X58285714Y-55735771D02*
X58285714Y-55973866D01*
X58285714Y-55973866D02*
X58238095Y-56164342D01*
X58238095Y-56164342D02*
X58190476Y-56259580D01*
X58190476Y-56259580D02*
X58142857Y-56307200D01*
X58142857Y-56307200D02*
X58047619Y-56354819D01*
X58047619Y-56354819D02*
X57952381Y-56354819D01*
X57952381Y-56354819D02*
X57857143Y-56307200D01*
X57857143Y-56307200D02*
X57809524Y-56259580D01*
X57809524Y-56259580D02*
X57761905Y-56164342D01*
X57761905Y-56164342D02*
X57714286Y-55973866D01*
X57714286Y-55973866D02*
X57714286Y-55735771D01*
X57714286Y-55735771D02*
X57761905Y-55545295D01*
X57761905Y-55545295D02*
X57809524Y-55450057D01*
X57809524Y-55450057D02*
X57857143Y-55402438D01*
X57857143Y-55402438D02*
X57952381Y-55354819D01*
X59238095Y-56354819D02*
X58666667Y-56354819D01*
X58952381Y-56354819D02*
X58952381Y-55354819D01*
X58952381Y-55354819D02*
X58857143Y-55497676D01*
X58857143Y-55497676D02*
X58761905Y-55592914D01*
X58761905Y-55592914D02*
X58666667Y-55640533D01*
X93675413Y-68540856D02*
X94132556Y-68540856D01*
X94132556Y-68540856D02*
X94223984Y-68571333D01*
X94223984Y-68571333D02*
X94284937Y-68632285D01*
X94284937Y-68632285D02*
X94315413Y-68723714D01*
X94315413Y-68723714D02*
X94315413Y-68784666D01*
X93736365Y-68266571D02*
X93705889Y-68236095D01*
X93705889Y-68236095D02*
X93675413Y-68175142D01*
X93675413Y-68175142D02*
X93675413Y-68022761D01*
X93675413Y-68022761D02*
X93705889Y-67961809D01*
X93705889Y-67961809D02*
X93736365Y-67931333D01*
X93736365Y-67931333D02*
X93797317Y-67900856D01*
X93797317Y-67900856D02*
X93858270Y-67900856D01*
X93858270Y-67900856D02*
X93949698Y-67931333D01*
X93949698Y-67931333D02*
X94315413Y-68297047D01*
X94315413Y-68297047D02*
X94315413Y-67900856D01*
X93675413Y-67504666D02*
X93675413Y-67443713D01*
X93675413Y-67443713D02*
X93705889Y-67382761D01*
X93705889Y-67382761D02*
X93736365Y-67352285D01*
X93736365Y-67352285D02*
X93797317Y-67321809D01*
X93797317Y-67321809D02*
X93919222Y-67291332D01*
X93919222Y-67291332D02*
X94071603Y-67291332D01*
X94071603Y-67291332D02*
X94193508Y-67321809D01*
X94193508Y-67321809D02*
X94254460Y-67352285D01*
X94254460Y-67352285D02*
X94284937Y-67382761D01*
X94284937Y-67382761D02*
X94315413Y-67443713D01*
X94315413Y-67443713D02*
X94315413Y-67504666D01*
X94315413Y-67504666D02*
X94284937Y-67565618D01*
X94284937Y-67565618D02*
X94254460Y-67596094D01*
X94254460Y-67596094D02*
X94193508Y-67626571D01*
X94193508Y-67626571D02*
X94071603Y-67657047D01*
X94071603Y-67657047D02*
X93919222Y-67657047D01*
X93919222Y-67657047D02*
X93797317Y-67626571D01*
X93797317Y-67626571D02*
X93736365Y-67596094D01*
X93736365Y-67596094D02*
X93705889Y-67565618D01*
X93705889Y-67565618D02*
X93675413Y-67504666D01*
X93736365Y-67047523D02*
X93705889Y-67017047D01*
X93705889Y-67017047D02*
X93675413Y-66956094D01*
X93675413Y-66956094D02*
X93675413Y-66803713D01*
X93675413Y-66803713D02*
X93705889Y-66742761D01*
X93705889Y-66742761D02*
X93736365Y-66712285D01*
X93736365Y-66712285D02*
X93797317Y-66681808D01*
X93797317Y-66681808D02*
X93858270Y-66681808D01*
X93858270Y-66681808D02*
X93949698Y-66712285D01*
X93949698Y-66712285D02*
X94315413Y-67077999D01*
X94315413Y-67077999D02*
X94315413Y-66681808D01*
X65559580Y-61519047D02*
X65607200Y-61566666D01*
X65607200Y-61566666D02*
X65654819Y-61709523D01*
X65654819Y-61709523D02*
X65654819Y-61804761D01*
X65654819Y-61804761D02*
X65607200Y-61947618D01*
X65607200Y-61947618D02*
X65511961Y-62042856D01*
X65511961Y-62042856D02*
X65416723Y-62090475D01*
X65416723Y-62090475D02*
X65226247Y-62138094D01*
X65226247Y-62138094D02*
X65083390Y-62138094D01*
X65083390Y-62138094D02*
X64892914Y-62090475D01*
X64892914Y-62090475D02*
X64797676Y-62042856D01*
X64797676Y-62042856D02*
X64702438Y-61947618D01*
X64702438Y-61947618D02*
X64654819Y-61804761D01*
X64654819Y-61804761D02*
X64654819Y-61709523D01*
X64654819Y-61709523D02*
X64702438Y-61566666D01*
X64702438Y-61566666D02*
X64750057Y-61519047D01*
X64750057Y-61138094D02*
X64702438Y-61090475D01*
X64702438Y-61090475D02*
X64654819Y-60995237D01*
X64654819Y-60995237D02*
X64654819Y-60757142D01*
X64654819Y-60757142D02*
X64702438Y-60661904D01*
X64702438Y-60661904D02*
X64750057Y-60614285D01*
X64750057Y-60614285D02*
X64845295Y-60566666D01*
X64845295Y-60566666D02*
X64940533Y-60566666D01*
X64940533Y-60566666D02*
X65083390Y-60614285D01*
X65083390Y-60614285D02*
X65654819Y-61185713D01*
X65654819Y-61185713D02*
X65654819Y-60566666D01*
X64654819Y-59947618D02*
X64654819Y-59852380D01*
X64654819Y-59852380D02*
X64702438Y-59757142D01*
X64702438Y-59757142D02*
X64750057Y-59709523D01*
X64750057Y-59709523D02*
X64845295Y-59661904D01*
X64845295Y-59661904D02*
X65035771Y-59614285D01*
X65035771Y-59614285D02*
X65273866Y-59614285D01*
X65273866Y-59614285D02*
X65464342Y-59661904D01*
X65464342Y-59661904D02*
X65559580Y-59709523D01*
X65559580Y-59709523D02*
X65607200Y-59757142D01*
X65607200Y-59757142D02*
X65654819Y-59852380D01*
X65654819Y-59852380D02*
X65654819Y-59947618D01*
X65654819Y-59947618D02*
X65607200Y-60042856D01*
X65607200Y-60042856D02*
X65559580Y-60090475D01*
X65559580Y-60090475D02*
X65464342Y-60138094D01*
X65464342Y-60138094D02*
X65273866Y-60185713D01*
X65273866Y-60185713D02*
X65035771Y-60185713D01*
X65035771Y-60185713D02*
X64845295Y-60138094D01*
X64845295Y-60138094D02*
X64750057Y-60090475D01*
X64750057Y-60090475D02*
X64702438Y-60042856D01*
X64702438Y-60042856D02*
X64654819Y-59947618D01*
X64654819Y-59280951D02*
X64654819Y-58661904D01*
X64654819Y-58661904D02*
X65035771Y-58995237D01*
X65035771Y-58995237D02*
X65035771Y-58852380D01*
X65035771Y-58852380D02*
X65083390Y-58757142D01*
X65083390Y-58757142D02*
X65131009Y-58709523D01*
X65131009Y-58709523D02*
X65226247Y-58661904D01*
X65226247Y-58661904D02*
X65464342Y-58661904D01*
X65464342Y-58661904D02*
X65559580Y-58709523D01*
X65559580Y-58709523D02*
X65607200Y-58757142D01*
X65607200Y-58757142D02*
X65654819Y-58852380D01*
X65654819Y-58852380D02*
X65654819Y-59138094D01*
X65654819Y-59138094D02*
X65607200Y-59233332D01*
X65607200Y-59233332D02*
X65559580Y-59280951D01*
X93440475Y-23455180D02*
X93440475Y-24455180D01*
X93440475Y-24455180D02*
X93202380Y-24455180D01*
X93202380Y-24455180D02*
X93059523Y-24407561D01*
X93059523Y-24407561D02*
X92964285Y-24312323D01*
X92964285Y-24312323D02*
X92916666Y-24217085D01*
X92916666Y-24217085D02*
X92869047Y-24026609D01*
X92869047Y-24026609D02*
X92869047Y-23883752D01*
X92869047Y-23883752D02*
X92916666Y-23693276D01*
X92916666Y-23693276D02*
X92964285Y-23598038D01*
X92964285Y-23598038D02*
X93059523Y-23502800D01*
X93059523Y-23502800D02*
X93202380Y-23455180D01*
X93202380Y-23455180D02*
X93440475Y-23455180D01*
X92535713Y-24455180D02*
X91916666Y-24455180D01*
X91916666Y-24455180D02*
X92249999Y-24074228D01*
X92249999Y-24074228D02*
X92107142Y-24074228D01*
X92107142Y-24074228D02*
X92011904Y-24026609D01*
X92011904Y-24026609D02*
X91964285Y-23978990D01*
X91964285Y-23978990D02*
X91916666Y-23883752D01*
X91916666Y-23883752D02*
X91916666Y-23645657D01*
X91916666Y-23645657D02*
X91964285Y-23550419D01*
X91964285Y-23550419D02*
X92011904Y-23502800D01*
X92011904Y-23502800D02*
X92107142Y-23455180D01*
X92107142Y-23455180D02*
X92392856Y-23455180D01*
X92392856Y-23455180D02*
X92488094Y-23502800D01*
X92488094Y-23502800D02*
X92535713Y-23550419D01*
X91297618Y-24455180D02*
X91202380Y-24455180D01*
X91202380Y-24455180D02*
X91107142Y-24407561D01*
X91107142Y-24407561D02*
X91059523Y-24359942D01*
X91059523Y-24359942D02*
X91011904Y-24264704D01*
X91011904Y-24264704D02*
X90964285Y-24074228D01*
X90964285Y-24074228D02*
X90964285Y-23836133D01*
X90964285Y-23836133D02*
X91011904Y-23645657D01*
X91011904Y-23645657D02*
X91059523Y-23550419D01*
X91059523Y-23550419D02*
X91107142Y-23502800D01*
X91107142Y-23502800D02*
X91202380Y-23455180D01*
X91202380Y-23455180D02*
X91297618Y-23455180D01*
X91297618Y-23455180D02*
X91392856Y-23502800D01*
X91392856Y-23502800D02*
X91440475Y-23550419D01*
X91440475Y-23550419D02*
X91488094Y-23645657D01*
X91488094Y-23645657D02*
X91535713Y-23836133D01*
X91535713Y-23836133D02*
X91535713Y-24074228D01*
X91535713Y-24074228D02*
X91488094Y-24264704D01*
X91488094Y-24264704D02*
X91440475Y-24359942D01*
X91440475Y-24359942D02*
X91392856Y-24407561D01*
X91392856Y-24407561D02*
X91297618Y-24455180D01*
X90011904Y-23455180D02*
X90583332Y-23455180D01*
X90297618Y-23455180D02*
X90297618Y-24455180D01*
X90297618Y-24455180D02*
X90392856Y-24312323D01*
X90392856Y-24312323D02*
X90488094Y-24217085D01*
X90488094Y-24217085D02*
X90583332Y-24169466D01*
X57285714Y-63754819D02*
X57285714Y-64564342D01*
X57285714Y-64564342D02*
X57333333Y-64659580D01*
X57333333Y-64659580D02*
X57380952Y-64707200D01*
X57380952Y-64707200D02*
X57476190Y-64754819D01*
X57476190Y-64754819D02*
X57666666Y-64754819D01*
X57666666Y-64754819D02*
X57761904Y-64707200D01*
X57761904Y-64707200D02*
X57809523Y-64659580D01*
X57809523Y-64659580D02*
X57857142Y-64564342D01*
X57857142Y-64564342D02*
X57857142Y-63754819D01*
X58285714Y-63850057D02*
X58333333Y-63802438D01*
X58333333Y-63802438D02*
X58428571Y-63754819D01*
X58428571Y-63754819D02*
X58666666Y-63754819D01*
X58666666Y-63754819D02*
X58761904Y-63802438D01*
X58761904Y-63802438D02*
X58809523Y-63850057D01*
X58809523Y-63850057D02*
X58857142Y-63945295D01*
X58857142Y-63945295D02*
X58857142Y-64040533D01*
X58857142Y-64040533D02*
X58809523Y-64183390D01*
X58809523Y-64183390D02*
X58238095Y-64754819D01*
X58238095Y-64754819D02*
X58857142Y-64754819D01*
X59476190Y-63754819D02*
X59571428Y-63754819D01*
X59571428Y-63754819D02*
X59666666Y-63802438D01*
X59666666Y-63802438D02*
X59714285Y-63850057D01*
X59714285Y-63850057D02*
X59761904Y-63945295D01*
X59761904Y-63945295D02*
X59809523Y-64135771D01*
X59809523Y-64135771D02*
X59809523Y-64373866D01*
X59809523Y-64373866D02*
X59761904Y-64564342D01*
X59761904Y-64564342D02*
X59714285Y-64659580D01*
X59714285Y-64659580D02*
X59666666Y-64707200D01*
X59666666Y-64707200D02*
X59571428Y-64754819D01*
X59571428Y-64754819D02*
X59476190Y-64754819D01*
X59476190Y-64754819D02*
X59380952Y-64707200D01*
X59380952Y-64707200D02*
X59333333Y-64659580D01*
X59333333Y-64659580D02*
X59285714Y-64564342D01*
X59285714Y-64564342D02*
X59238095Y-64373866D01*
X59238095Y-64373866D02*
X59238095Y-64135771D01*
X59238095Y-64135771D02*
X59285714Y-63945295D01*
X59285714Y-63945295D02*
X59333333Y-63850057D01*
X59333333Y-63850057D02*
X59380952Y-63802438D01*
X59380952Y-63802438D02*
X59476190Y-63754819D01*
X60761904Y-64754819D02*
X60190476Y-64754819D01*
X60476190Y-64754819D02*
X60476190Y-63754819D01*
X60476190Y-63754819D02*
X60380952Y-63897676D01*
X60380952Y-63897676D02*
X60285714Y-63992914D01*
X60285714Y-63992914D02*
X60190476Y-64040533D01*
X59142786Y-28099980D02*
X59142786Y-27290457D01*
X59142786Y-27290457D02*
X59095167Y-27195219D01*
X59095167Y-27195219D02*
X59047548Y-27147600D01*
X59047548Y-27147600D02*
X58952310Y-27099980D01*
X58952310Y-27099980D02*
X58761834Y-27099980D01*
X58761834Y-27099980D02*
X58666596Y-27147600D01*
X58666596Y-27147600D02*
X58618977Y-27195219D01*
X58618977Y-27195219D02*
X58571358Y-27290457D01*
X58571358Y-27290457D02*
X58571358Y-28099980D01*
X57571358Y-27099980D02*
X58142786Y-27099980D01*
X57857072Y-27099980D02*
X57857072Y-28099980D01*
X57857072Y-28099980D02*
X57952310Y-27957123D01*
X57952310Y-27957123D02*
X58047548Y-27861885D01*
X58047548Y-27861885D02*
X58142786Y-27814266D01*
X56952310Y-28099980D02*
X56857072Y-28099980D01*
X56857072Y-28099980D02*
X56761834Y-28052361D01*
X56761834Y-28052361D02*
X56714215Y-28004742D01*
X56714215Y-28004742D02*
X56666596Y-27909504D01*
X56666596Y-27909504D02*
X56618977Y-27719028D01*
X56618977Y-27719028D02*
X56618977Y-27480933D01*
X56618977Y-27480933D02*
X56666596Y-27290457D01*
X56666596Y-27290457D02*
X56714215Y-27195219D01*
X56714215Y-27195219D02*
X56761834Y-27147600D01*
X56761834Y-27147600D02*
X56857072Y-27099980D01*
X56857072Y-27099980D02*
X56952310Y-27099980D01*
X56952310Y-27099980D02*
X57047548Y-27147600D01*
X57047548Y-27147600D02*
X57095167Y-27195219D01*
X57095167Y-27195219D02*
X57142786Y-27290457D01*
X57142786Y-27290457D02*
X57190405Y-27480933D01*
X57190405Y-27480933D02*
X57190405Y-27719028D01*
X57190405Y-27719028D02*
X57142786Y-27909504D01*
X57142786Y-27909504D02*
X57095167Y-28004742D01*
X57095167Y-28004742D02*
X57047548Y-28052361D01*
X57047548Y-28052361D02*
X56952310Y-28099980D01*
X55666596Y-27099980D02*
X56238024Y-27099980D01*
X55952310Y-27099980D02*
X55952310Y-28099980D01*
X55952310Y-28099980D02*
X56047548Y-27957123D01*
X56047548Y-27957123D02*
X56142786Y-27861885D01*
X56142786Y-27861885D02*
X56238024Y-27814266D01*
D12*
%TO.C,Q301*%
X59750000Y-40440000D02*
X57800000Y-40440000D01*
X59750000Y-40440000D02*
X61700000Y-40440000D01*
X59750000Y-45560000D02*
X57800000Y-45560000D01*
X59750000Y-45560000D02*
X61700000Y-45560000D01*
X57050000Y-40535000D02*
X56810000Y-40205000D01*
X57290000Y-40205000D01*
X57050000Y-40535000D01*
G36*
X57050000Y-40535000D02*
G01*
X56810000Y-40205000D01*
X57290000Y-40205000D01*
X57050000Y-40535000D01*
G37*
D13*
%TO.C,U302*%
X70900000Y-26660000D02*
X88100000Y-26660000D01*
X70900000Y-41660000D02*
X70900000Y-26660000D01*
X88100000Y-26660000D02*
X88100000Y-41660000D01*
X88100000Y-41660000D02*
X70900000Y-41660000D01*
D14*
X87266300Y-28490000D02*
G75*
G02*
X85773700Y-28490000I-746300J0D01*
G01*
X85773700Y-28490000D02*
G75*
G02*
X87266300Y-28490000I746300J0D01*
G01*
D12*
%TO.C,U301*%
X59750000Y-34610000D02*
X58250000Y-34610000D01*
X59750000Y-34610000D02*
X61250000Y-34610000D01*
X59750000Y-37830000D02*
X58250000Y-37830000D01*
X59750000Y-37830000D02*
X61250000Y-37830000D01*
X57562500Y-34810000D02*
X57322500Y-34480000D01*
X57802500Y-34480000D01*
X57562500Y-34810000D01*
G36*
X57562500Y-34810000D02*
G01*
X57322500Y-34480000D01*
X57802500Y-34480000D01*
X57562500Y-34810000D01*
G37*
%TO.C,R101*%
X48403641Y-28940000D02*
X48096359Y-28940000D01*
X48403641Y-29700000D02*
X48096359Y-29700000D01*
%TO.C,D101*%
X49552500Y-22015000D02*
X49552500Y-23485000D01*
X49552500Y-23485000D02*
X51837500Y-23485000D01*
X51837500Y-22015000D02*
X49552500Y-22015000D01*
%TO.C,R308*%
X57846359Y-52370000D02*
X58153641Y-52370000D01*
X57846359Y-53130000D02*
X58153641Y-53130000D01*
%TO.C,C101*%
X58640000Y-23357836D02*
X58640000Y-23142164D01*
X59360000Y-23357836D02*
X59360000Y-23142164D01*
%TO.C,R307*%
X61596359Y-52370000D02*
X61903641Y-52370000D01*
X61596359Y-53130000D02*
X61903641Y-53130000D01*
%TO.C,U202*%
X69923537Y-53640000D02*
X70298537Y-53640000D01*
X69923537Y-54215000D02*
X69923537Y-53640000D01*
X69923537Y-67285000D02*
X69923537Y-67860000D01*
X69923537Y-67860000D02*
X70298537Y-67860000D01*
X90143537Y-53640000D02*
X89768537Y-53640000D01*
X90143537Y-54215000D02*
X90143537Y-53640000D01*
X90143537Y-67285000D02*
X90143537Y-67860000D01*
X90143537Y-67860000D02*
X89768537Y-67860000D01*
X90238537Y-53090000D02*
X89768537Y-52750000D01*
X90238537Y-52410000D01*
X90238537Y-53090000D01*
G36*
X90238537Y-53090000D02*
G01*
X89768537Y-52750000D01*
X90238537Y-52410000D01*
X90238537Y-53090000D01*
G37*
%TO.C,C304*%
X65107836Y-33390000D02*
X64892164Y-33390000D01*
X65107836Y-34110000D02*
X64892164Y-34110000D01*
%TO.C,C305*%
X92710000Y-39227349D02*
X89733000Y-39227349D01*
X92710000Y-39267349D02*
X89741000Y-39267349D01*
X92710000Y-39307349D02*
X89748000Y-39307349D01*
X92710000Y-39347349D02*
X89757000Y-39347349D01*
X92710000Y-39387349D02*
X89765000Y-39387349D01*
X92710000Y-39427349D02*
X89774000Y-39427349D01*
X92710000Y-39467349D02*
X89783000Y-39467349D01*
X92710000Y-39507349D02*
X89793000Y-39507349D01*
X92710000Y-39547349D02*
X89803000Y-39547349D01*
X92710000Y-39587349D02*
X89814000Y-39587349D01*
X92710000Y-39627349D02*
X89825000Y-39627349D01*
X92710000Y-39667349D02*
X89837000Y-39667349D01*
X92710000Y-39707349D02*
X89849000Y-39707349D01*
X92710000Y-39747349D02*
X89861000Y-39747349D01*
X92710000Y-39787349D02*
X89874000Y-39787349D01*
X92710000Y-39827349D02*
X89887000Y-39827349D01*
X92710000Y-39867349D02*
X89901000Y-39867349D01*
X92710000Y-39907349D02*
X89915000Y-39907349D01*
X92710000Y-39947349D02*
X89930000Y-39947349D01*
X92710000Y-39987349D02*
X89945000Y-39987349D01*
X92710000Y-40027349D02*
X89961000Y-40027349D01*
X92710000Y-40067349D02*
X89977000Y-40067349D01*
X92710000Y-40107349D02*
X89993000Y-40107349D01*
X92710000Y-40147349D02*
X90010000Y-40147349D01*
X92710000Y-40187349D02*
X90028000Y-40187349D01*
X92710000Y-40227349D02*
X90046000Y-40227349D01*
X92710000Y-40267349D02*
X90065000Y-40267349D01*
X92710000Y-40307349D02*
X90084000Y-40307349D01*
X92710000Y-40347349D02*
X90104000Y-40347349D01*
X92710000Y-40387349D02*
X90124000Y-40387349D01*
X92710000Y-40427349D02*
X90145000Y-40427349D01*
X92710000Y-40467349D02*
X90166000Y-40467349D01*
X92710000Y-40507349D02*
X90188000Y-40507349D01*
X92710000Y-40547349D02*
X90211000Y-40547349D01*
X92710000Y-40587349D02*
X90234000Y-40587349D01*
X92710000Y-40627349D02*
X90257000Y-40627349D01*
X92710000Y-40667349D02*
X90282000Y-40667349D01*
X92710000Y-40707349D02*
X90307000Y-40707349D01*
X92710000Y-40747349D02*
X90332000Y-40747349D01*
X92710000Y-40787349D02*
X90358000Y-40787349D01*
X92710000Y-40827349D02*
X90385000Y-40827349D01*
X92710000Y-40867349D02*
X90413000Y-40867349D01*
X92710000Y-40907349D02*
X90441000Y-40907349D01*
X92710000Y-40947349D02*
X90470000Y-40947349D01*
X92710000Y-40987349D02*
X90500000Y-40987349D01*
X92710000Y-41027349D02*
X90531000Y-41027349D01*
X92710000Y-41067349D02*
X90562000Y-41067349D01*
X92710000Y-41107349D02*
X90594000Y-41107349D01*
X92710000Y-41147349D02*
X90627000Y-41147349D01*
X92710000Y-41187349D02*
X90661000Y-41187349D01*
X92710000Y-41227349D02*
X90695000Y-41227349D01*
X92710000Y-41267349D02*
X90731000Y-41267349D01*
X94283000Y-42587349D02*
X93217000Y-42587349D01*
X94518000Y-42547349D02*
X92982000Y-42547349D01*
X94697000Y-42507349D02*
X92803000Y-42507349D01*
X94847000Y-42467349D02*
X92653000Y-42467349D01*
X94978000Y-42427349D02*
X92522000Y-42427349D01*
X95096000Y-42387349D02*
X92404000Y-42387349D01*
X95203000Y-42347349D02*
X92297000Y-42347349D01*
X95302000Y-42307349D02*
X92198000Y-42307349D01*
X95394000Y-42267349D02*
X92106000Y-42267349D01*
X95481000Y-42227349D02*
X92019000Y-42227349D01*
X95563000Y-42187349D02*
X91937000Y-42187349D01*
X95640000Y-42147349D02*
X91860000Y-42147349D01*
X95714000Y-42107349D02*
X91786000Y-42107349D01*
X95784000Y-42067349D02*
X91716000Y-42067349D01*
X95851000Y-42027349D02*
X91649000Y-42027349D01*
X95915000Y-41987349D02*
X91585000Y-41987349D01*
X95977000Y-41947349D02*
X91523000Y-41947349D01*
X96037000Y-41907349D02*
X91463000Y-41907349D01*
X96065000Y-34097651D02*
X96065000Y-34897651D01*
X96094000Y-41867349D02*
X91406000Y-41867349D01*
X96150000Y-41827349D02*
X91350000Y-41827349D01*
X96203000Y-41787349D02*
X91297000Y-41787349D01*
X96255000Y-41747349D02*
X91245000Y-41747349D01*
X96305000Y-41707349D02*
X91195000Y-41707349D01*
X96354000Y-41667349D02*
X91146000Y-41667349D01*
X96401000Y-41627349D02*
X91099000Y-41627349D01*
X96446000Y-41587349D02*
X91054000Y-41587349D01*
X96465000Y-34497651D02*
X95665000Y-34497651D01*
X96491000Y-41547349D02*
X91009000Y-41547349D01*
X96534000Y-41507349D02*
X90966000Y-41507349D01*
X96576000Y-41467349D02*
X90924000Y-41467349D01*
X96617000Y-41427349D02*
X90883000Y-41427349D01*
X96656000Y-41387349D02*
X90844000Y-41387349D01*
X96695000Y-41347349D02*
X90805000Y-41347349D01*
X96732000Y-41307349D02*
X90768000Y-41307349D01*
X96769000Y-41267349D02*
X94790000Y-41267349D01*
X96805000Y-41227349D02*
X94790000Y-41227349D01*
X96839000Y-41187349D02*
X94790000Y-41187349D01*
X96873000Y-41147349D02*
X94790000Y-41147349D01*
X96906000Y-41107349D02*
X94790000Y-41107349D01*
X96938000Y-41067349D02*
X94790000Y-41067349D01*
X96969000Y-41027349D02*
X94790000Y-41027349D01*
X97000000Y-40987349D02*
X94790000Y-40987349D01*
X97030000Y-40947349D02*
X94790000Y-40947349D01*
X97059000Y-40907349D02*
X94790000Y-40907349D01*
X97087000Y-40867349D02*
X94790000Y-40867349D01*
X97115000Y-40827349D02*
X94790000Y-40827349D01*
X97142000Y-40787349D02*
X94790000Y-40787349D01*
X97168000Y-40747349D02*
X94790000Y-40747349D01*
X97193000Y-40707349D02*
X94790000Y-40707349D01*
X97218000Y-40667349D02*
X94790000Y-40667349D01*
X97243000Y-40627349D02*
X94790000Y-40627349D01*
X97266000Y-40587349D02*
X94790000Y-40587349D01*
X97289000Y-40547349D02*
X94790000Y-40547349D01*
X97312000Y-40507349D02*
X94790000Y-40507349D01*
X97334000Y-40467349D02*
X94790000Y-40467349D01*
X97355000Y-40427349D02*
X94790000Y-40427349D01*
X97376000Y-40387349D02*
X94790000Y-40387349D01*
X97396000Y-40347349D02*
X94790000Y-40347349D01*
X97416000Y-40307349D02*
X94790000Y-40307349D01*
X97435000Y-40267349D02*
X94790000Y-40267349D01*
X97454000Y-40227349D02*
X94790000Y-40227349D01*
X97472000Y-40187349D02*
X94790000Y-40187349D01*
X97490000Y-40147349D02*
X94790000Y-40147349D01*
X97507000Y-40107349D02*
X94790000Y-40107349D01*
X97523000Y-40067349D02*
X94790000Y-40067349D01*
X97539000Y-40027349D02*
X94790000Y-40027349D01*
X97555000Y-39987349D02*
X94790000Y-39987349D01*
X97570000Y-39947349D02*
X94790000Y-39947349D01*
X97585000Y-39907349D02*
X94790000Y-39907349D01*
X97599000Y-39867349D02*
X94790000Y-39867349D01*
X97613000Y-39827349D02*
X94790000Y-39827349D01*
X97626000Y-39787349D02*
X94790000Y-39787349D01*
X97639000Y-39747349D02*
X94790000Y-39747349D01*
X97651000Y-39707349D02*
X94790000Y-39707349D01*
X97663000Y-39667349D02*
X94790000Y-39667349D01*
X97675000Y-39627349D02*
X94790000Y-39627349D01*
X97686000Y-39587349D02*
X94790000Y-39587349D01*
X97697000Y-39547349D02*
X94790000Y-39547349D01*
X97707000Y-39507349D02*
X94790000Y-39507349D01*
X97717000Y-39467349D02*
X94790000Y-39467349D01*
X97726000Y-39427349D02*
X94790000Y-39427349D01*
X97735000Y-39387349D02*
X94790000Y-39387349D01*
X97743000Y-39347349D02*
X94790000Y-39347349D01*
X97752000Y-39307349D02*
X94790000Y-39307349D01*
X97759000Y-39267349D02*
X94790000Y-39267349D01*
X97767000Y-39227349D02*
X94790000Y-39227349D01*
X97773000Y-39187349D02*
X89727000Y-39187349D01*
X97780000Y-39147349D02*
X89720000Y-39147349D01*
X97786000Y-39107349D02*
X89714000Y-39107349D01*
X97792000Y-39067349D02*
X89708000Y-39067349D01*
X97797000Y-39027349D02*
X89703000Y-39027349D01*
X97802000Y-38987349D02*
X89698000Y-38987349D01*
X97806000Y-38947349D02*
X89694000Y-38947349D01*
X97811000Y-38907349D02*
X89689000Y-38907349D01*
X97814000Y-38867349D02*
X89686000Y-38867349D01*
X97818000Y-38827349D02*
X89682000Y-38827349D01*
X97820000Y-38787349D02*
X89680000Y-38787349D01*
X97823000Y-38747349D02*
X89677000Y-38747349D01*
X97825000Y-38707349D02*
X89675000Y-38707349D01*
X97827000Y-38667349D02*
X89673000Y-38667349D01*
X97828000Y-38627349D02*
X89672000Y-38627349D01*
X97829000Y-38587349D02*
X89671000Y-38587349D01*
X97830000Y-38507349D02*
X89670000Y-38507349D01*
X97830000Y-38547349D02*
X89670000Y-38547349D01*
X97870000Y-38507349D02*
G75*
G02*
X89630000Y-38507349I-4120000J0D01*
G01*
X89630000Y-38507349D02*
G75*
G02*
X97870000Y-38507349I4120000J0D01*
G01*
%TO.C,TP302*%
X57650000Y-47550000D02*
X61850000Y-47550000D01*
X61850000Y-49950000D01*
X57650000Y-49950000D01*
X57650000Y-47550000D01*
%TO.C,R302*%
X55120000Y-35096359D02*
X55120000Y-35403641D01*
X55880000Y-35096359D02*
X55880000Y-35403641D01*
%TO.C,R304*%
X65620000Y-40336359D02*
X65620000Y-40643641D01*
X66380000Y-40336359D02*
X66380000Y-40643641D01*
%TO.C,J101*%
X45670000Y-38610000D02*
X45670000Y-58990000D01*
X45670000Y-38610000D02*
X48330000Y-38610000D01*
X45670000Y-58990000D02*
X48330000Y-58990000D01*
X47000000Y-36010000D02*
X48330000Y-36010000D01*
X48330000Y-36010000D02*
X48330000Y-37340000D01*
X48330000Y-38610000D02*
X48330000Y-58990000D01*
%TO.C,R105*%
X48403641Y-22370000D02*
X48096359Y-22370000D01*
X48403641Y-23130000D02*
X48096359Y-23130000D01*
%TO.C,C301*%
X54761252Y-37015000D02*
X54238748Y-37015000D01*
X54761252Y-38485000D02*
X54238748Y-38485000D01*
%TO.C,TP101*%
X91650000Y-29550000D02*
X95850000Y-29550000D01*
X95850000Y-31950000D01*
X91650000Y-31950000D01*
X91650000Y-29550000D01*
%TO.C,R306*%
X64846359Y-34620000D02*
X65153641Y-34620000D01*
X64846359Y-35380000D02*
X65153641Y-35380000D01*
%TO.C,R301*%
X51846359Y-35120000D02*
X52153641Y-35120000D01*
X51846359Y-35880000D02*
X52153641Y-35880000D01*
%TO.C,C102*%
X55390000Y-23357836D02*
X55390000Y-23142164D01*
X56110000Y-23357836D02*
X56110000Y-23142164D01*
%TO.C,R106*%
X48403641Y-25620000D02*
X48096359Y-25620000D01*
X48403641Y-26380000D02*
X48096359Y-26380000D01*
%TO.C,D102*%
X49552500Y-25355000D02*
X49552500Y-26825000D01*
X49552500Y-26825000D02*
X51837500Y-26825000D01*
X51837500Y-25355000D02*
X49552500Y-25355000D01*
%TO.C,R303*%
X67610000Y-40336359D02*
X67610000Y-40643641D01*
X68370000Y-40336359D02*
X68370000Y-40643641D01*
%TO.C,R305*%
X54370000Y-44403641D02*
X54370000Y-44096359D01*
X55130000Y-44403641D02*
X55130000Y-44096359D01*
%TO.C,C302*%
X59488748Y-31515000D02*
X60011252Y-31515000D01*
X59488748Y-32985000D02*
X60011252Y-32985000D01*
%TO.C,C202*%
X61640000Y-56857836D02*
X61640000Y-56642164D01*
X62360000Y-56857836D02*
X62360000Y-56642164D01*
%TO.C,C303*%
X62090000Y-24154437D02*
X62090000Y-29910000D01*
X62090000Y-29910000D02*
X64440000Y-29910000D01*
X63154437Y-23090000D02*
X62090000Y-24154437D01*
X63154437Y-23090000D02*
X64440000Y-23090000D01*
X67845563Y-23090000D02*
X66560000Y-23090000D01*
X67845563Y-23090000D02*
X68910000Y-24154437D01*
X68910000Y-24154437D02*
X68910000Y-29910000D01*
X68910000Y-29910000D02*
X66560000Y-29910000D01*
%TO.C,C201*%
X57607836Y-56640000D02*
X57392164Y-56640000D01*
X57607836Y-57360000D02*
X57392164Y-57360000D01*
D13*
%TO.C,J202*%
X95683537Y-51750000D02*
X97313537Y-51750000D01*
X95683537Y-52530000D02*
X95683537Y-51750000D01*
X95683537Y-68970000D02*
X95683537Y-69750000D01*
X95683537Y-69750000D02*
X97313537Y-69750000D01*
X98583537Y-68980000D02*
X98583537Y-52520000D01*
D15*
X94333537Y-53000000D02*
G75*
G02*
X94133537Y-53000000I-100000J0D01*
G01*
X94133537Y-53000000D02*
G75*
G02*
X94333537Y-53000000I100000J0D01*
G01*
D12*
%TO.C,D103*%
X49552500Y-28515000D02*
X49552500Y-29985000D01*
X49552500Y-29985000D02*
X51837500Y-29985000D01*
X51837500Y-28515000D02*
X49552500Y-28515000D01*
%TO.C,C203*%
X65890000Y-60122164D02*
X65890000Y-60337836D01*
X66610000Y-60122164D02*
X66610000Y-60337836D01*
D16*
%TO.C,D301*%
X88827999Y-21813000D02*
X88827999Y-22472260D01*
X88827999Y-25347740D02*
X88827999Y-26007000D01*
X88827999Y-26007000D02*
X94672001Y-26007000D01*
X94672001Y-21813000D02*
X88827999Y-21813000D01*
X94672001Y-22472260D02*
X94672001Y-21813000D01*
X94672001Y-26007000D02*
X94672001Y-25347740D01*
X95053001Y-23910000D02*
X96323001Y-23910000D01*
X95307001Y-24545000D02*
X95307001Y-23275000D01*
X96069001Y-23910000D02*
X95307001Y-23275000D01*
X96069001Y-23910000D02*
X95307001Y-23402000D01*
X96069001Y-23910000D02*
X95307001Y-23529000D01*
X96069001Y-23910000D02*
X95307001Y-23656000D01*
X96069001Y-23910000D02*
X95307001Y-23783000D01*
X96069001Y-23910000D02*
X95307001Y-24037000D01*
X96069001Y-23910000D02*
X95307001Y-24164000D01*
X96069001Y-23910000D02*
X95307001Y-24291000D01*
X96069001Y-23910000D02*
X95307001Y-24418000D01*
X96069001Y-23910000D02*
X95307001Y-24545000D01*
X96069001Y-24545000D02*
X96069001Y-23275000D01*
D12*
%TO.C,U201*%
X59000000Y-58140000D02*
X56800000Y-58140000D01*
X59000000Y-58140000D02*
X61200000Y-58140000D01*
X59000000Y-63360000D02*
X56800000Y-63360000D01*
X59000000Y-63360000D02*
X61200000Y-63360000D01*
X56100000Y-58340000D02*
X55860000Y-58010000D01*
X56340000Y-58010000D01*
X56100000Y-58340000D01*
G36*
X56100000Y-58340000D02*
G01*
X55860000Y-58010000D01*
X56340000Y-58010000D01*
X56100000Y-58340000D01*
G37*
D16*
%TO.C,U101*%
X55001500Y-26127800D02*
X55001500Y-28981800D01*
X55001500Y-28981800D02*
X56155961Y-28981800D01*
X55354461Y-26127800D02*
X55001500Y-26127800D01*
X56816361Y-26127800D02*
X56502541Y-26127800D01*
X58354461Y-26127800D02*
X58040641Y-26127800D01*
X58701041Y-28981800D02*
X59855502Y-28981800D01*
X59855502Y-26127800D02*
X59502541Y-26127800D01*
X59855502Y-28981800D02*
X59855502Y-26127800D01*
X61125501Y-25416600D02*
G75*
G02*
X60871501Y-25416600I-127000J0D01*
G01*
X60871501Y-25416600D02*
G75*
G02*
X61125501Y-25416600I127000J0D01*
G01*
%TD*%
M02*
