M48
; DRILL file {KiCad 9.0.3} date 2026-09-10T02:15:21-0400
; FORMAT={-:-/ absolute / metric / decimal}
; #@! TF.CreationDate,2026-09-10T02:15:21-04:00
; #@! TF.GenerationSoftware,Kicad,Pcbnew,9.0.3
; #@! TF.FileFunction,Plated,1,2,PTH
FMAT,2
METRIC
; #@! TA.AperFunction,Plated,PTH,ViaDrill
T1C0.300
; #@! TA.AperFunction,Plated,PTH,ComponentDrill
T2C0.800
; #@! TA.AperFunction,Plated,PTH,ComponentDrill
T3C1.000
%
G90
G05
T1
X47.0Y-22.75
X47.0Y-26.0
X47.0Y-29.32
X50.75Y-35.5
X52.5Y-38.25
X52.75Y-31.5
X54.476Y-36.524
X54.5Y-61.75
X54.75Y-34.0
X54.75Y-45.5
X54.75Y-60.75
X55.25Y-63.5
X55.75Y-21.75
X56.5Y-52.5
X57.5Y-24.25
X57.5Y-38.0
X58.75Y-57.0
X59.0Y-21.75
X61.75Y-32.25
X62.25Y-55.5
X63.25Y-58.75
X66.25Y-33.75
X66.25Y-35.0
X66.25Y-61.5
X67.0Y-58.75
X67.25Y-31.25
X67.5Y-60.25
X67.5Y-61.0
X67.5Y-61.75
X70.965Y-64.485
X71.034Y-57.5
X71.794Y-64.672
X71.864Y-57.306
X72.603Y-64.935
X72.671Y-57.038
X73.403Y-65.222
X73.477Y-56.769
X74.234Y-65.4
X74.284Y-56.5
X75.04Y-65.669
X75.171Y-56.288
X75.847Y-65.938
X75.977Y-56.019
X76.654Y-66.205
X76.784Y-55.75
X77.457Y-66.483
X77.614Y-55.556
X78.286Y-66.671
X78.421Y-55.288
X79.101Y-66.913
X79.227Y-55.019
X79.948Y-66.983
X80.034Y-54.75
X80.781Y-67.151
X80.977Y-54.519
X81.621Y-67.278
X81.784Y-54.25
X82.574Y-67.376
X82.656Y-54.127
X83.78Y-54.05
X83.783Y-67.45
X88.25Y-44.75
T2
X93.75Y-36.757
X93.75Y-40.257
T3
X47.0Y-37.34
X47.0Y-39.88
X47.0Y-42.42
X47.0Y-44.96
X47.0Y-47.5
X47.0Y-50.04
X47.0Y-52.58
X47.0Y-55.12
X47.0Y-57.66
M30
