%TF.GenerationSoftware,KiCad,Pcbnew,9.0.3*%
%TF.CreationDate,2026-09-10T02:15:17-04:00*%
%TF.ProjectId,EEOP_Testbed,45454f50-5f54-4657-9374-6265642e6b69,rev?*%
%TF.SameCoordinates,Original*%
%TF.FileFunction,Copper,L1,Top*%
%TF.FilePolarity,Positive*%
%FSLAX46Y46*%
G04 Gerber Fmt 4.6, Leading zero omitted, Abs format (unit mm)*
G04 Created by KiCad (PCBNEW 9.0.3) date 2026-09-10 02:15:17*
%MOMM*%
%LPD*%
G01*
G04 APERTURE LIST*
G04 Aperture macros list*
%AMRoundRect*
0 Rectangle with rounded corners*
0 $1 Rounding radius*
0 $2 $3 $4 $5 $6 $7 $8 $9 X,Y pos of 4 corners*
0 Add a 4 corners polygon primitive as box body*
4,1,4,$2,$3,$4,$5,$6,$7,$8,$9,$2,$3,0*
0 Add four circle primitives for the rounded corners*
1,1,$1+$1,$2,$3*
1,1,$1+$1,$4,$5*
1,1,$1+$1,$6,$7*
1,1,$1+$1,$8,$9*
0 Add four rect primitives between the rounded corners*
20,1,$1+$1,$2,$3,$4,$5,0*
20,1,$1+$1,$4,$5,$6,$7,0*
20,1,$1+$1,$6,$7,$8,$9,0*
20,1,$1+$1,$8,$9,$2,$3,0*%
G04 Aperture macros list end*
%TA.AperFunction,EtchedComponent*%
%ADD10C,0.000000*%
%TD*%
%TA.AperFunction,SMDPad,CuDef*%
%ADD11RoundRect,0.150000X-0.825000X-0.150000X0.825000X-0.150000X0.825000X0.150000X-0.825000X0.150000X0*%
%TD*%
%TA.AperFunction,SMDPad,CuDef*%
%ADD12R,1.790000X3.430000*%
%TD*%
%TA.AperFunction,SMDPad,CuDef*%
%ADD13RoundRect,0.075000X-0.650000X-0.075000X0.650000X-0.075000X0.650000X0.075000X-0.650000X0.075000X0*%
%TD*%
%TA.AperFunction,HeatsinkPad*%
%ADD14R,1.680000X1.880000*%
%TD*%
%TA.AperFunction,SMDPad,CuDef*%
%ADD15RoundRect,0.135000X0.135000X0.185000X-0.135000X0.185000X-0.135000X-0.185000X0.135000X-0.185000X0*%
%TD*%
%TA.AperFunction,SMDPad,CuDef*%
%ADD16RoundRect,0.218750X-0.218750X-0.256250X0.218750X-0.256250X0.218750X0.256250X-0.218750X0.256250X0*%
%TD*%
%TA.AperFunction,SMDPad,CuDef*%
%ADD17RoundRect,0.135000X-0.135000X-0.185000X0.135000X-0.185000X0.135000X0.185000X-0.135000X0.185000X0*%
%TD*%
%TA.AperFunction,SMDPad,CuDef*%
%ADD18RoundRect,0.140000X0.170000X-0.140000X0.170000X0.140000X-0.170000X0.140000X-0.170000X-0.140000X0*%
%TD*%
%TA.AperFunction,SMDPad,CuDef*%
%ADD19RoundRect,0.137500X-0.137500X0.737500X-0.137500X-0.737500X0.137500X-0.737500X0.137500X0.737500X0*%
%TD*%
%TA.AperFunction,SMDPad,CuDef*%
%ADD20RoundRect,0.137500X-0.737500X0.137500X-0.737500X-0.137500X0.737500X-0.137500X0.737500X0.137500X0*%
%TD*%
%TA.AperFunction,SMDPad,CuDef*%
%ADD21RoundRect,0.140000X0.140000X0.170000X-0.140000X0.170000X-0.140000X-0.170000X0.140000X-0.170000X0*%
%TD*%
%TA.AperFunction,ComponentPad*%
%ADD22RoundRect,0.250000X-0.550000X0.550000X-0.550000X-0.550000X0.550000X-0.550000X0.550000X0.550000X0*%
%TD*%
%TA.AperFunction,ComponentPad*%
%ADD23C,1.600000*%
%TD*%
%TA.AperFunction,SMDPad,CuDef*%
%ADD24RoundRect,0.250000X-1.650000X-0.750000X1.650000X-0.750000X1.650000X0.750000X-1.650000X0.750000X0*%
%TD*%
%TA.AperFunction,SMDPad,CuDef*%
%ADD25RoundRect,0.135000X-0.185000X0.135000X-0.185000X-0.135000X0.185000X-0.135000X0.185000X0.135000X0*%
%TD*%
%TA.AperFunction,ComponentPad*%
%ADD26R,1.700000X1.700000*%
%TD*%
%TA.AperFunction,ComponentPad*%
%ADD27C,1.700000*%
%TD*%
%TA.AperFunction,SMDPad,CuDef*%
%ADD28RoundRect,0.250000X0.250000X0.475000X-0.250000X0.475000X-0.250000X-0.475000X0.250000X-0.475000X0*%
%TD*%
%TA.AperFunction,SMDPad,CuDef*%
%ADD29RoundRect,0.135000X0.185000X-0.135000X0.185000X0.135000X-0.185000X0.135000X-0.185000X-0.135000X0*%
%TD*%
%TA.AperFunction,SMDPad,CuDef*%
%ADD30RoundRect,0.250000X-0.250000X-0.475000X0.250000X-0.475000X0.250000X0.475000X-0.250000X0.475000X0*%
%TD*%
%TA.AperFunction,SMDPad,CuDef*%
%ADD31RoundRect,0.250000X-0.550000X1.412500X-0.550000X-1.412500X0.550000X-1.412500X0.550000X1.412500X0*%
%TD*%
%TA.AperFunction,SMDPad,CuDef*%
%ADD32R,0.800000X0.300000*%
%TD*%
%TA.AperFunction,SMDPad,CuDef*%
%ADD33R,0.800000X0.400000*%
%TD*%
%TA.AperFunction,SMDPad,CuDef*%
%ADD34RoundRect,0.140000X-0.170000X0.140000X-0.170000X-0.140000X0.170000X-0.140000X0.170000X0.140000X0*%
%TD*%
%TA.AperFunction,SMDPad,CuDef*%
%ADD35R,2.180400X2.210000*%
%TD*%
%TA.AperFunction,SMDPad,CuDef*%
%ADD36RoundRect,0.100000X-0.637500X-0.100000X0.637500X-0.100000X0.637500X0.100000X-0.637500X0.100000X0*%
%TD*%
%TA.AperFunction,SMDPad,CuDef*%
%ADD37R,0.482600X1.422400*%
%TD*%
%TA.AperFunction,SMDPad,CuDef*%
%ADD38R,0.558800X1.422400*%
%TD*%
%TA.AperFunction,ViaPad*%
%ADD39C,0.600000*%
%TD*%
%TA.AperFunction,Conductor*%
%ADD40C,0.200000*%
%TD*%
%TA.AperFunction,Conductor*%
%ADD41C,0.300000*%
%TD*%
%TA.AperFunction,Conductor*%
%ADD42C,0.150000*%
%TD*%
G04 APERTURE END LIST*
D10*
%TA.AperFunction,EtchedComponent*%
%TO.C,U101*%
G36*
X57707901Y-26772000D02*
G01*
X58368301Y-27381600D01*
X58368301Y-29667600D01*
X56488701Y-29667600D01*
X56488701Y-27381600D01*
X57149101Y-26746600D01*
X57149101Y-26254800D01*
X57707901Y-26254800D01*
X57707901Y-26772000D01*
G37*
%TD.AperFunction*%
%TD*%
D11*
%TO.P,Q301,1*%
%TO.N,Net-(U301-SOURCE)*%
X57275000Y-41095000D03*
%TO.P,Q301,2*%
X57275000Y-42365000D03*
%TO.P,Q301,3*%
X57275000Y-43635000D03*
%TO.P,Q301,4*%
%TO.N,Net-(U301-GATE)*%
X57275000Y-44905000D03*
%TO.P,Q301,5*%
%TO.N,Net-(Q301-Pad5)*%
X62225000Y-44905000D03*
%TO.P,Q301,6*%
X62225000Y-43635000D03*
%TO.P,Q301,7*%
X62225000Y-42365000D03*
%TO.P,Q301,8*%
X62225000Y-41095000D03*
%TD*%
D12*
%TO.P,U302,P$1*%
%TO.N,Net-(D301-A)*%
X85750000Y-24000000D03*
%TO.P,U302,P$2*%
%TO.N,N/C*%
X83250000Y-24000000D03*
%TO.P,U302,P$3*%
%TO.N,unconnected-(U302-PadP$3)*%
X80750000Y-24000000D03*
%TO.P,U302,P$4*%
%TO.N,unconnected-(U302-PadP$4)*%
X78250000Y-24000000D03*
%TO.P,U302,P$5*%
%TO.N,+5V*%
X75750000Y-24000000D03*
%TO.P,U302,P$6*%
X73250000Y-24000000D03*
%TO.P,U302,P$7*%
%TO.N,Net-(Q301-Pad5)*%
X73250000Y-44320000D03*
%TO.P,U302,P$8*%
X75750000Y-44320000D03*
%TO.P,U302,P$9*%
%TO.N,unconnected-(U302-PadP$9)*%
X78250000Y-44320000D03*
%TO.P,U302,P$10*%
%TO.N,unconnected-(U302-PadP$10)*%
X80750000Y-44320000D03*
%TO.P,U302,P$11*%
%TO.N,N/C*%
X83250000Y-44320000D03*
%TO.P,U302,P$12*%
%TO.N,GND*%
X85750000Y-44320000D03*
%TD*%
D13*
%TO.P,U301,1,VTRANS*%
%TO.N,+5V*%
X57600000Y-35220000D03*
%TO.P,U301,2,DONE*%
%TO.N,/DONE*%
X57600000Y-35720000D03*
%TO.P,U301,3,CHARGE*%
%TO.N,/CHARGE*%
X57600000Y-36220000D03*
%TO.P,U301,4,VCC*%
%TO.N,+5V*%
X57600000Y-36720000D03*
%TO.P,U301,5,GND*%
%TO.N,GND*%
X57600000Y-37220000D03*
%TO.P,U301,6,SOURCE*%
%TO.N,Net-(U301-SOURCE)*%
X61900000Y-37220000D03*
%TO.P,U301,7,GATE*%
%TO.N,Net-(U301-GATE)*%
X61900000Y-36720000D03*
%TO.P,U301,8,RDCM*%
%TO.N,Net-(U301-RDCM)*%
X61900000Y-36220000D03*
%TO.P,U301,9,RVOUT*%
%TO.N,Net-(U301-RVOUT)*%
X61900000Y-35720000D03*
%TO.P,U301,10,RBG*%
%TO.N,Net-(U301-RBG)*%
X61900000Y-35220000D03*
D14*
%TO.P,U301,11,EPAD*%
%TO.N,unconnected-(U301-EPAD-Pad11)*%
X59750000Y-36220000D03*
%TD*%
D15*
%TO.P,R101,1*%
%TO.N,Net-(D103-K)*%
X48760000Y-29320000D03*
%TO.P,R101,2*%
%TO.N,GND*%
X47740000Y-29320000D03*
%TD*%
D16*
%TO.P,D101,1,K*%
%TO.N,Net-(D101-K)*%
X50250000Y-22750000D03*
%TO.P,D101,2,A*%
%TO.N,+3.3V*%
X51825000Y-22750000D03*
%TD*%
D17*
%TO.P,R308,1*%
%TO.N,GND*%
X57490000Y-52750000D03*
%TO.P,R308,2*%
%TO.N,/VREF*%
X58510000Y-52750000D03*
%TD*%
D18*
%TO.P,C101,1*%
%TO.N,+5V*%
X59000000Y-23730000D03*
%TO.P,C101,2*%
%TO.N,GND*%
X59000000Y-22770000D03*
%TD*%
D17*
%TO.P,R307,1*%
%TO.N,/VREF*%
X61240000Y-52750000D03*
%TO.P,R307,2*%
%TO.N,VPP*%
X62260000Y-52750000D03*
%TD*%
D19*
%TO.P,U202,1,HVOUT41*%
%TO.N,/EEOP_Driver/OUT41*%
X89233537Y-52625000D03*
%TO.P,U202,2,HVOUT42*%
%TO.N,/EEOP_Driver/OUT42*%
X88433537Y-52625000D03*
%TO.P,U202,3,HVOUT43*%
%TO.N,/EEOP_Driver/OUT43*%
X87633537Y-52625000D03*
%TO.P,U202,4,HVOUT44*%
%TO.N,/EEOP_Driver/OUT44*%
X86833537Y-52625000D03*
%TO.P,U202,5,HVOUT45*%
%TO.N,/EEOP_Driver/OUT45*%
X86033537Y-52625000D03*
%TO.P,U202,6,HVOUT46*%
%TO.N,/EEOP_Driver/OUT46*%
X85233537Y-52625000D03*
%TO.P,U202,7,HVOUT47*%
%TO.N,/EEOP_Driver/OUT47*%
X84433537Y-52625000D03*
%TO.P,U202,8,HVOUT48*%
%TO.N,/EEOP_Driver/OUT48*%
X83633537Y-52625000D03*
%TO.P,U202,9,HVOUT49*%
%TO.N,/EEOP_Driver/OUT49*%
X82833537Y-52625000D03*
%TO.P,U202,10,HVOUT50*%
%TO.N,/EEOP_Driver/OUT50*%
X82033537Y-52625000D03*
%TO.P,U202,11,HVOUT51*%
%TO.N,/EEOP_Driver/OUT51*%
X81233537Y-52625000D03*
%TO.P,U202,12,HVOUT52*%
%TO.N,/EEOP_Driver/OUT52*%
X80433537Y-52625000D03*
%TO.P,U202,13,HVOUT53*%
%TO.N,/EEOP_Driver/OUT53*%
X79633537Y-52625000D03*
%TO.P,U202,14,HVOUT54*%
%TO.N,/EEOP_Driver/OUT54*%
X78833537Y-52625000D03*
%TO.P,U202,15,HVOUT55*%
%TO.N,/EEOP_Driver/OUT55*%
X78033537Y-52625000D03*
%TO.P,U202,16,HVOUT56*%
%TO.N,/EEOP_Driver/OUT56*%
X77233537Y-52625000D03*
%TO.P,U202,17,HVOUT57*%
%TO.N,/EEOP_Driver/OUT57*%
X76433537Y-52625000D03*
%TO.P,U202,18,HVOUT58*%
%TO.N,/EEOP_Driver/OUT58*%
X75633537Y-52625000D03*
%TO.P,U202,19,HVOUT59*%
%TO.N,/EEOP_Driver/OUT59*%
X74833537Y-52625000D03*
%TO.P,U202,20,HVOUT60*%
%TO.N,/EEOP_Driver/OUT60*%
X74033537Y-52625000D03*
%TO.P,U202,21,HVOUT61*%
%TO.N,/EEOP_Driver/OUT61*%
X73233537Y-52625000D03*
%TO.P,U202,22,HVOUT62*%
%TO.N,/EEOP_Driver/OUT62*%
X72433537Y-52625000D03*
%TO.P,U202,23,HVOUT63*%
%TO.N,/EEOP_Driver/OUT63*%
X71633537Y-52625000D03*
%TO.P,U202,24,HVOUT64*%
%TO.N,/EEOP_Driver/OUT64*%
X70833537Y-52625000D03*
D20*
%TO.P,U202,25,VPP*%
%TO.N,VPP*%
X68908537Y-54750000D03*
%TO.P,U202,26,DIOA*%
%TO.N,/EEOP_Driver/DINout*%
X68908537Y-55550000D03*
%TO.P,U202,27,NC*%
%TO.N,unconnected-(U202-NC-Pad27)*%
X68908537Y-56350000D03*
%TO.P,U202,28,NC*%
%TO.N,unconnected-(U202-NC-Pad28)*%
X68908537Y-57150000D03*
%TO.P,U202,29,\u002ABL*%
%TO.N,/EEOP_Driver/BLout*%
X68908537Y-57950000D03*
%TO.P,U202,30,\u002APOL*%
%TO.N,VBUS*%
X68908537Y-58750000D03*
%TO.P,U202,31,VDD*%
X68908537Y-59550000D03*
%TO.P,U202,32,DIR*%
%TO.N,GND*%
X68908537Y-60350000D03*
%TO.P,U202,33,GND*%
X68908537Y-61150000D03*
%TO.P,U202,34,HVGND*%
X68908537Y-61950000D03*
%TO.P,U202,35,NC*%
%TO.N,unconnected-(U202-NC-Pad35)*%
X68908537Y-62750000D03*
%TO.P,U202,36,NC*%
%TO.N,unconnected-(U202-NC-Pad36)*%
X68908537Y-63550000D03*
%TO.P,U202,37,CLK*%
%TO.N,/EEOP_Driver/CLKout*%
X68908537Y-64350000D03*
%TO.P,U202,38,\u002ALE*%
%TO.N,/EEOP_Driver/LEout*%
X68908537Y-65150000D03*
%TO.P,U202,39,DIOB*%
%TO.N,unconnected-(U202-DIOB-Pad39)*%
X68908537Y-65950000D03*
%TO.P,U202,40,VPP*%
%TO.N,VPP*%
X68908537Y-66750000D03*
D19*
%TO.P,U202,41,HVOUT1*%
%TO.N,/EEOP_Driver/OUT1*%
X70833537Y-68875000D03*
%TO.P,U202,42,HVOUT2*%
%TO.N,/EEOP_Driver/OUT2*%
X71633537Y-68875000D03*
%TO.P,U202,43,HVOUT3*%
%TO.N,/EEOP_Driver/OUT3*%
X72433537Y-68875000D03*
%TO.P,U202,44,HVOUT4*%
%TO.N,/EEOP_Driver/OUT4*%
X73233537Y-68875000D03*
%TO.P,U202,45,HVOUT5*%
%TO.N,/EEOP_Driver/OUT5*%
X74033537Y-68875000D03*
%TO.P,U202,46,HVOUT6*%
%TO.N,/EEOP_Driver/OUT6*%
X74833537Y-68875000D03*
%TO.P,U202,47,HVOUT7*%
%TO.N,/EEOP_Driver/OUT7*%
X75633537Y-68875000D03*
%TO.P,U202,48,HVOUT8*%
%TO.N,/EEOP_Driver/OUT8*%
X76433537Y-68875000D03*
%TO.P,U202,49,HVOUT9*%
%TO.N,/EEOP_Driver/OUT9*%
X77233537Y-68875000D03*
%TO.P,U202,50,HVOUT10*%
%TO.N,/EEOP_Driver/OUT10*%
X78033537Y-68875000D03*
%TO.P,U202,51,HVOUT11*%
%TO.N,/EEOP_Driver/OUT11*%
X78833537Y-68875000D03*
%TO.P,U202,52,HVOUT12*%
%TO.N,/EEOP_Driver/OUT12*%
X79633537Y-68875000D03*
%TO.P,U202,53,HVOUT13*%
%TO.N,/EEOP_Driver/OUT13*%
X80433537Y-68875000D03*
%TO.P,U202,54,HVOUT14*%
%TO.N,/EEOP_Driver/OUT14*%
X81233537Y-68875000D03*
%TO.P,U202,55,HVOUT15*%
%TO.N,/EEOP_Driver/OUT15*%
X82033537Y-68875000D03*
%TO.P,U202,56,HVOUT16*%
%TO.N,/EEOP_Driver/OUT16*%
X82833537Y-68875000D03*
%TO.P,U202,57,HVOUT17*%
%TO.N,/EEOP_Driver/OUT17*%
X83633537Y-68875000D03*
%TO.P,U202,58,HVOUT18*%
%TO.N,/EEOP_Driver/OUT18*%
X84433537Y-68875000D03*
%TO.P,U202,59,HVOUT19*%
%TO.N,/EEOP_Driver/OUT19*%
X85233537Y-68875000D03*
%TO.P,U202,60,HVOUT20*%
%TO.N,/EEOP_Driver/OUT20*%
X86033537Y-68875000D03*
%TO.P,U202,61,HVOUT21*%
%TO.N,/EEOP_Driver/OUT21*%
X86833537Y-68875000D03*
%TO.P,U202,62,HVOUT22*%
%TO.N,/EEOP_Driver/OUT22*%
X87633537Y-68875000D03*
%TO.P,U202,63,HVOUT23*%
%TO.N,/EEOP_Driver/OUT23*%
X88433537Y-68875000D03*
%TO.P,U202,64,HVOUT24*%
%TO.N,/EEOP_Driver/OUT24*%
X89233537Y-68875000D03*
D20*
%TO.P,U202,65,HVOUT25*%
%TO.N,/EEOP_Driver/OUT25*%
X91158537Y-66750000D03*
%TO.P,U202,66,HVOUT26*%
%TO.N,/EEOP_Driver/OUT26*%
X91158537Y-65950000D03*
%TO.P,U202,67,HVOUT27*%
%TO.N,/EEOP_Driver/OUT27*%
X91158537Y-65150000D03*
%TO.P,U202,68,HVOUT28*%
%TO.N,/EEOP_Driver/OUT28*%
X91158537Y-64350000D03*
%TO.P,U202,69,HVOUT29*%
%TO.N,/EEOP_Driver/OUT29*%
X91158537Y-63550000D03*
%TO.P,U202,70,HVOUT30*%
%TO.N,/EEOP_Driver/OUT30*%
X91158537Y-62750000D03*
%TO.P,U202,71,HVOUT31*%
%TO.N,/EEOP_Driver/OUT31*%
X91158537Y-61950000D03*
%TO.P,U202,72,HVOUT32*%
%TO.N,/EEOP_Driver/OUT32*%
X91158537Y-61150000D03*
%TO.P,U202,73,HVOUT33*%
%TO.N,/EEOP_Driver/OUT33*%
X91158537Y-60350000D03*
%TO.P,U202,74,HVOUT34*%
%TO.N,/EEOP_Driver/OUT34*%
X91158537Y-59550000D03*
%TO.P,U202,75,HVOUT35*%
%TO.N,/EEOP_Driver/OUT35*%
X91158537Y-58750000D03*
%TO.P,U202,76,HVOUT36*%
%TO.N,/EEOP_Driver/OUT36*%
X91158537Y-57950000D03*
%TO.P,U202,77,HVOUT37*%
%TO.N,/EEOP_Driver/OUT37*%
X91158537Y-57150000D03*
%TO.P,U202,78,HVOUT38*%
%TO.N,/EEOP_Driver/OUT38*%
X91158537Y-56350000D03*
%TO.P,U202,79,HVOUT39*%
%TO.N,/EEOP_Driver/OUT39*%
X91158537Y-55550000D03*
%TO.P,U202,80,HVOUT40*%
%TO.N,/EEOP_Driver/OUT40*%
X91158537Y-54750000D03*
%TD*%
D21*
%TO.P,C304,1*%
%TO.N,GND*%
X65480000Y-33750000D03*
%TO.P,C304,2*%
%TO.N,Net-(U301-RBG)*%
X64520000Y-33750000D03*
%TD*%
D22*
%TO.P,C305,1*%
%TO.N,VPP*%
X93750000Y-36757349D03*
D23*
%TO.P,C305,2*%
%TO.N,GND*%
X93750000Y-40257349D03*
%TD*%
D24*
%TO.P,TP302,1,1*%
%TO.N,Net-(U301-SOURCE)*%
X59750000Y-48750000D03*
%TD*%
D25*
%TO.P,R302,1*%
%TO.N,+5V*%
X55500000Y-34740000D03*
%TO.P,R302,2*%
%TO.N,/DONE*%
X55500000Y-35760000D03*
%TD*%
%TO.P,R304,1*%
%TO.N,Net-(U301-RDCM)*%
X66000000Y-39980000D03*
%TO.P,R304,2*%
%TO.N,Net-(Q301-Pad5)*%
X66000000Y-41000000D03*
%TD*%
D26*
%TO.P,J101,1,Pin_1*%
%TO.N,VBUS*%
X47000000Y-37340000D03*
D27*
%TO.P,J101,2,Pin_2*%
%TO.N,+3.3V*%
X47000000Y-39880000D03*
%TO.P,J101,3,Pin_3*%
%TO.N,GND*%
X47000000Y-42420000D03*
%TO.P,J101,4,Pin_4*%
%TO.N,/CHARGE*%
X47000000Y-44960000D03*
%TO.P,J101,5,Pin_5*%
%TO.N,/VREF*%
X47000000Y-47500000D03*
%TO.P,J101,6,Pin_6*%
%TO.N,/EEOP_Driver/CLK*%
X47000000Y-50040000D03*
%TO.P,J101,7,Pin_7*%
%TO.N,/EEOP_Driver/DIN*%
X47000000Y-52580000D03*
%TO.P,J101,8,Pin_8*%
%TO.N,/EEOP_Driver/LE*%
X47000000Y-55120000D03*
%TO.P,J101,9,Pin_9*%
%TO.N,/EEOP_Driver/BL*%
X47000000Y-57660000D03*
%TD*%
D15*
%TO.P,R105,1*%
%TO.N,Net-(D101-K)*%
X48760000Y-22750000D03*
%TO.P,R105,2*%
%TO.N,GND*%
X47740000Y-22750000D03*
%TD*%
D28*
%TO.P,C301,1*%
%TO.N,+5V*%
X55450000Y-37750000D03*
%TO.P,C301,2*%
%TO.N,GND*%
X53550000Y-37750000D03*
%TD*%
D24*
%TO.P,TP101,1,1*%
%TO.N,VPP*%
X93750000Y-30750000D03*
%TD*%
D17*
%TO.P,R306,1*%
%TO.N,Net-(U301-RBG)*%
X64490000Y-35000000D03*
%TO.P,R306,2*%
%TO.N,GND*%
X65510000Y-35000000D03*
%TD*%
%TO.P,R301,1*%
%TO.N,GND*%
X51490000Y-35500000D03*
%TO.P,R301,2*%
%TO.N,/CHARGE*%
X52510000Y-35500000D03*
%TD*%
D18*
%TO.P,C102,1*%
%TO.N,VBUS*%
X55750000Y-23730000D03*
%TO.P,C102,2*%
%TO.N,GND*%
X55750000Y-22770000D03*
%TD*%
D15*
%TO.P,R106,1*%
%TO.N,Net-(D102-K)*%
X48760000Y-26000000D03*
%TO.P,R106,2*%
%TO.N,GND*%
X47740000Y-26000000D03*
%TD*%
D16*
%TO.P,D102,1,K*%
%TO.N,Net-(D102-K)*%
X50250000Y-26090000D03*
%TO.P,D102,2,A*%
%TO.N,/CHARGE*%
X51825000Y-26090000D03*
%TD*%
D25*
%TO.P,R303,1*%
%TO.N,Net-(U301-RVOUT)*%
X67990000Y-39980000D03*
%TO.P,R303,2*%
%TO.N,Net-(Q301-Pad5)*%
X67990000Y-41000000D03*
%TD*%
D29*
%TO.P,R305,1*%
%TO.N,GND*%
X54750000Y-44760000D03*
%TO.P,R305,2*%
%TO.N,Net-(U301-SOURCE)*%
X54750000Y-43740000D03*
%TD*%
D30*
%TO.P,C302,1*%
%TO.N,+5V*%
X58800000Y-32250000D03*
%TO.P,C302,2*%
%TO.N,GND*%
X60700000Y-32250000D03*
%TD*%
D18*
%TO.P,C202,1*%
%TO.N,VBUS*%
X62000000Y-57230000D03*
%TO.P,C202,2*%
%TO.N,GND*%
X62000000Y-56270000D03*
%TD*%
D31*
%TO.P,C303,1*%
%TO.N,+5V*%
X65500000Y-23962500D03*
%TO.P,C303,2*%
%TO.N,GND*%
X65500000Y-29037500D03*
%TD*%
D21*
%TO.P,C201,1*%
%TO.N,GND*%
X57980000Y-57000000D03*
%TO.P,C201,2*%
%TO.N,+3.3V*%
X57020000Y-57000000D03*
%TD*%
D32*
%TO.P,J202,1,Pin_1*%
%TO.N,/EEOP_Driver/OUT48*%
X95533537Y-53000000D03*
%TO.P,J202,2,Pin_2*%
%TO.N,/EEOP_Driver/OUT47*%
X95533537Y-53500000D03*
%TO.P,J202,3,Pin_3*%
%TO.N,/EEOP_Driver/OUT46*%
X95533537Y-54000000D03*
%TO.P,J202,4,Pin_4*%
%TO.N,/EEOP_Driver/OUT45*%
X95533537Y-54500000D03*
%TO.P,J202,5,Pin_5*%
%TO.N,/EEOP_Driver/OUT44*%
X95533537Y-55000000D03*
%TO.P,J202,6,Pin_6*%
%TO.N,/EEOP_Driver/OUT43*%
X95533537Y-55500000D03*
%TO.P,J202,7,Pin_7*%
%TO.N,/EEOP_Driver/OUT42*%
X95533537Y-56000000D03*
%TO.P,J202,8,Pin_8*%
%TO.N,/EEOP_Driver/OUT41*%
X95533537Y-56500000D03*
%TO.P,J202,9,Pin_9*%
%TO.N,/EEOP_Driver/OUT40*%
X95533537Y-57000000D03*
%TO.P,J202,10,Pin_10*%
%TO.N,/EEOP_Driver/OUT39*%
X95533537Y-57500000D03*
%TO.P,J202,11,Pin_11*%
%TO.N,/EEOP_Driver/OUT38*%
X95533537Y-58000000D03*
%TO.P,J202,12,Pin_12*%
%TO.N,/EEOP_Driver/OUT37*%
X95533537Y-58500000D03*
%TO.P,J202,13,Pin_13*%
%TO.N,/EEOP_Driver/OUT36*%
X95533537Y-59000000D03*
%TO.P,J202,14,Pin_14*%
%TO.N,/EEOP_Driver/OUT35*%
X95533537Y-59500000D03*
%TO.P,J202,15,Pin_15*%
%TO.N,/EEOP_Driver/OUT34*%
X95533537Y-60000000D03*
%TO.P,J202,16,Pin_16*%
%TO.N,/EEOP_Driver/OUT33*%
X95533537Y-60500000D03*
%TO.P,J202,17,Pin_17*%
%TO.N,/EEOP_Driver/OUT32*%
X95533537Y-61000000D03*
%TO.P,J202,18,Pin_18*%
%TO.N,/EEOP_Driver/OUT31*%
X95533537Y-61500000D03*
%TO.P,J202,19,Pin_19*%
%TO.N,/EEOP_Driver/OUT30*%
X95533537Y-62000000D03*
%TO.P,J202,20,Pin_20*%
%TO.N,/EEOP_Driver/OUT29*%
X95533537Y-62500000D03*
%TO.P,J202,21,Pin_21*%
%TO.N,/EEOP_Driver/OUT28*%
X95533537Y-63000000D03*
%TO.P,J202,22,Pin_22*%
%TO.N,/EEOP_Driver/OUT27*%
X95533537Y-63500000D03*
%TO.P,J202,23,Pin_23*%
%TO.N,/EEOP_Driver/OUT26*%
X95533537Y-64000000D03*
%TO.P,J202,24,Pin_24*%
%TO.N,/EEOP_Driver/OUT25*%
X95533537Y-64500000D03*
%TO.P,J202,25,Pin_25*%
%TO.N,/EEOP_Driver/OUT24*%
X95533537Y-65000000D03*
%TO.P,J202,26,Pin_26*%
%TO.N,/EEOP_Driver/OUT23*%
X95533537Y-65500000D03*
%TO.P,J202,27,Pin_27*%
%TO.N,/EEOP_Driver/OUT22*%
X95533537Y-66000000D03*
%TO.P,J202,28,Pin_28*%
%TO.N,/EEOP_Driver/OUT21*%
X95533537Y-66500000D03*
%TO.P,J202,29,Pin_29*%
%TO.N,/EEOP_Driver/OUT20*%
X95533537Y-67000000D03*
%TO.P,J202,30,Pin_30*%
%TO.N,/EEOP_Driver/OUT19*%
X95533537Y-67500000D03*
%TO.P,J202,31,Pin_31*%
%TO.N,/EEOP_Driver/OUT18*%
X95533537Y-68000000D03*
%TO.P,J202,32,Pin_32*%
%TO.N,/EEOP_Driver/OUT17*%
X95533537Y-68500000D03*
D33*
%TO.P,J202,S1*%
%TO.N,N/C*%
X98033537Y-52000000D03*
%TO.P,J202,S2*%
X98033537Y-69500000D03*
%TD*%
D16*
%TO.P,D103,1,K*%
%TO.N,Net-(D103-K)*%
X50250000Y-29250000D03*
%TO.P,D103,2,A*%
%TO.N,/DONE*%
X51825000Y-29250000D03*
%TD*%
D34*
%TO.P,C203,1*%
%TO.N,VBUS*%
X66250000Y-59750000D03*
%TO.P,C203,2*%
%TO.N,GND*%
X66250000Y-60710000D03*
%TD*%
D35*
%TO.P,D301,1,K*%
%TO.N,VPP*%
X93607200Y-23910000D03*
%TO.P,D301,2,A*%
%TO.N,Net-(D301-A)*%
X89892800Y-23910000D03*
%TD*%
D36*
%TO.P,U201,1,VCCA*%
%TO.N,+3.3V*%
X56137500Y-58800000D03*
%TO.P,U201,2,A1*%
%TO.N,/EEOP_Driver/DIN*%
X56137500Y-59450000D03*
%TO.P,U201,3,A2*%
%TO.N,/EEOP_Driver/BL*%
X56137500Y-60100000D03*
%TO.P,U201,4,A3*%
%TO.N,/EEOP_Driver/CLK*%
X56137500Y-60750000D03*
%TO.P,U201,5,A4*%
%TO.N,/EEOP_Driver/LE*%
X56137500Y-61400000D03*
%TO.P,U201,6,NC*%
%TO.N,unconnected-(U201-NC-Pad6)*%
X56137500Y-62050000D03*
%TO.P,U201,7,GND*%
%TO.N,GND*%
X56137500Y-62700000D03*
%TO.P,U201,8,OE*%
%TO.N,+3.3V*%
X61862500Y-62700000D03*
%TO.P,U201,9,NC*%
%TO.N,unconnected-(U201-NC-Pad9)*%
X61862500Y-62050000D03*
%TO.P,U201,10,B4*%
%TO.N,/EEOP_Driver/LEout*%
X61862500Y-61400000D03*
%TO.P,U201,11,B3*%
%TO.N,/EEOP_Driver/CLKout*%
X61862500Y-60750000D03*
%TO.P,U201,12,B2*%
%TO.N,/EEOP_Driver/BLout*%
X61862500Y-60100000D03*
%TO.P,U201,13,B1*%
%TO.N,/EEOP_Driver/DINout*%
X61862500Y-59450000D03*
%TO.P,U201,14,VCCB*%
%TO.N,VBUS*%
X61862500Y-58800000D03*
%TD*%
D37*
%TO.P,U101,1,OUTPUT*%
%TO.N,+5V*%
X58928501Y-25543600D03*
D38*
%TO.P,U101,2,GND*%
%TO.N,GND*%
X57428501Y-25543600D03*
D37*
%TO.P,U101,3,INPUT*%
%TO.N,VBUS*%
X55928501Y-25543600D03*
%TD*%
D39*
%TO.N,GND*%
X56500000Y-52500000D03*
X62250000Y-55500000D03*
X67500000Y-61750000D03*
X66250000Y-35000000D03*
X57500000Y-24250000D03*
X54750000Y-45500000D03*
X52500000Y-38250000D03*
X57500000Y-38000000D03*
X67500000Y-61000000D03*
X66250000Y-33750000D03*
X50750000Y-35500000D03*
X47000000Y-29320000D03*
X47000000Y-26000000D03*
X66250000Y-61500000D03*
X58750000Y-57000000D03*
X47000000Y-22750000D03*
X61750000Y-32250000D03*
X88250000Y-44750000D03*
X67500000Y-60250000D03*
X67250000Y-31250000D03*
X59000000Y-21750000D03*
X55250000Y-63500000D03*
X55750000Y-21750000D03*
%TO.N,+5V*%
X54750000Y-34000000D03*
X54475565Y-36524435D03*
%TO.N,VBUS*%
X67000000Y-58750000D03*
X52750000Y-31500000D03*
X63250000Y-58750000D03*
%TO.N,/EEOP_Driver/CLK*%
X54750000Y-60750000D03*
%TO.N,/EEOP_Driver/LE*%
X54500000Y-61750000D03*
%TO.N,/EEOP_Driver/OUT56*%
X77614387Y-55556383D03*
%TO.N,/EEOP_Driver/OUT52*%
X80977154Y-54518794D03*
%TO.N,/EEOP_Driver/OUT51*%
X81783537Y-54250000D03*
%TO.N,/EEOP_Driver/OUT54*%
X79227154Y-55018794D03*
%TO.N,/EEOP_Driver/OUT55*%
X78420771Y-55287589D03*
%TO.N,/EEOP_Driver/OUT53*%
X80033537Y-54750000D03*
%TO.N,/EEOP_Driver/OUT50*%
X82656342Y-54127195D03*
%TO.N,/EEOP_Driver/OUT49*%
X83779799Y-54050000D03*
%TO.N,/EEOP_Driver/OUT10*%
X78285751Y-66671191D03*
%TO.N,/EEOP_Driver/OUT13*%
X80780849Y-67151151D03*
%TO.N,/EEOP_Driver/OUT61*%
X73477154Y-56768794D03*
%TO.N,/EEOP_Driver/OUT15*%
X82573880Y-67375774D03*
%TO.N,/EEOP_Driver/OUT8*%
X76653504Y-66205092D03*
%TO.N,/EEOP_Driver/OUT2*%
X71794300Y-64672163D03*
%TO.N,/EEOP_Driver/OUT1*%
X70965261Y-64484549D03*
%TO.N,/EEOP_Driver/OUT57*%
X76783537Y-55750000D03*
%TO.N,/EEOP_Driver/OUT16*%
X83783433Y-67450000D03*
%TO.N,/EEOP_Driver/OUT62*%
X72670771Y-57037589D03*
%TO.N,/EEOP_Driver/OUT59*%
X75170771Y-56287589D03*
%TO.N,/EEOP_Driver/OUT5*%
X74233850Y-65400226D03*
%TO.N,/EEOP_Driver/OUT12*%
X79947717Y-66982642D03*
%TO.N,/EEOP_Driver/OUT14*%
X81621276Y-67278377D03*
%TO.N,/EEOP_Driver/OUT7*%
X75846512Y-65938130D03*
%TO.N,/EEOP_Driver/OUT3*%
X72602597Y-64935147D03*
%TO.N,/EEOP_Driver/OUT58*%
X75977154Y-56018794D03*
%TO.N,/EEOP_Driver/OUT64*%
X71033537Y-57500000D03*
%TO.N,/EEOP_Driver/OUT9*%
X77456942Y-66482568D03*
%TO.N,/EEOP_Driver/OUT63*%
X71864387Y-57306383D03*
%TO.N,/EEOP_Driver/OUT6*%
X75040331Y-65668727D03*
%TO.N,/EEOP_Driver/OUT4*%
X73402754Y-65221945D03*
%TO.N,/EEOP_Driver/OUT60*%
X74283537Y-56500000D03*
%TO.N,/EEOP_Driver/OUT11*%
X79100548Y-66913286D03*
%TD*%
D40*
%TO.N,Net-(U301-GATE)*%
X63402900Y-36720000D02*
X61900000Y-36720000D01*
X64000000Y-38000000D02*
X64000000Y-37317100D01*
X63500000Y-38000000D02*
X64000000Y-38000000D01*
X60800000Y-41921824D02*
X60800000Y-40700000D01*
X64000000Y-37317100D02*
X63402900Y-36720000D01*
X57816824Y-44905000D02*
X60800000Y-41921824D01*
X60800000Y-40700000D02*
X63500000Y-38000000D01*
X57125000Y-44905000D02*
X57816824Y-44905000D01*
%TO.N,Net-(U301-SOURCE)*%
X61750000Y-37370000D02*
X61900000Y-37220000D01*
X59505000Y-41095000D02*
X61750000Y-38850000D01*
X57125000Y-41095000D02*
X59505000Y-41095000D01*
X61750000Y-38850000D02*
X61750000Y-37370000D01*
X57125000Y-43635000D02*
X57125000Y-41095000D01*
X57850000Y-48750000D02*
X59750000Y-48750000D01*
X55994000Y-45194000D02*
X55994000Y-46894000D01*
X55800000Y-45000000D02*
X55994000Y-45194000D01*
X55994000Y-46894000D02*
X57850000Y-48750000D01*
X55800000Y-44790000D02*
X55800000Y-45000000D01*
X54750000Y-43740000D02*
X55800000Y-44790000D01*
%TO.N,VPP*%
X70300000Y-55300000D02*
X69750000Y-54750000D01*
X69750000Y-54750000D02*
X68908537Y-54750000D01*
X70300000Y-66233536D02*
X70300000Y-55300000D01*
X69783536Y-66750000D02*
X70300000Y-66233536D01*
X68908537Y-66750000D02*
X69783536Y-66750000D01*
%TO.N,GND*%
X47740000Y-26000000D02*
X47000000Y-26000000D01*
X57600000Y-37900000D02*
X57500000Y-38000000D01*
X67600000Y-60350000D02*
X67500000Y-60250000D01*
X57428501Y-24321499D02*
X57500000Y-24250000D01*
X57980000Y-57000000D02*
X58750000Y-57000000D01*
X87820000Y-44320000D02*
X88250000Y-44750000D01*
X55750000Y-22770000D02*
X55750000Y-21750000D01*
X65510000Y-35000000D02*
X66250000Y-35000000D01*
X67250000Y-30787500D02*
X67250000Y-31250000D01*
X53000000Y-37750000D02*
X52500000Y-38250000D01*
X67650000Y-61150000D02*
X67500000Y-61000000D01*
X65500000Y-29037500D02*
X67250000Y-30787500D01*
X56137500Y-62700000D02*
X56050000Y-62700000D01*
X53550000Y-37750000D02*
X53000000Y-37750000D01*
X66250000Y-60710000D02*
X66250000Y-61500000D01*
X56750000Y-52750000D02*
X56500000Y-52500000D01*
X47740000Y-29320000D02*
X47000000Y-29320000D01*
X68908537Y-61150000D02*
X67650000Y-61150000D01*
X59000000Y-22770000D02*
X59000000Y-21750000D01*
X65480000Y-33750000D02*
X66250000Y-33750000D01*
X85750000Y-44320000D02*
X87820000Y-44320000D01*
X54750000Y-44760000D02*
X54750000Y-45500000D01*
X47740000Y-22750000D02*
X47000000Y-22750000D01*
X68908537Y-61950000D02*
X67700000Y-61950000D01*
X57600000Y-37220000D02*
X57600000Y-37900000D01*
X62000000Y-56270000D02*
X62000000Y-55750000D01*
X60700000Y-32250000D02*
X61750000Y-32250000D01*
X51490000Y-35500000D02*
X50750000Y-35500000D01*
X68908537Y-60350000D02*
X67600000Y-60350000D01*
X57428501Y-25543600D02*
X57428501Y-24321499D01*
X62000000Y-55750000D02*
X62250000Y-55500000D01*
X56050000Y-62700000D02*
X55250000Y-63500000D01*
X67700000Y-61950000D02*
X67500000Y-61750000D01*
X57490000Y-52750000D02*
X56750000Y-52750000D01*
D41*
%TO.N,+5V*%
X54760000Y-34000000D02*
X55500000Y-34740000D01*
X59000000Y-23730000D02*
X59000000Y-25472101D01*
D40*
X55500000Y-34740000D02*
X55490000Y-34740000D01*
D41*
X58928501Y-25543600D02*
X58928501Y-25678501D01*
X59000000Y-25472101D02*
X58928501Y-25543600D01*
X58800000Y-32250000D02*
X58800000Y-34020000D01*
X54750000Y-34000000D02*
X54760000Y-34000000D01*
X58928501Y-25543600D02*
X63918900Y-25543600D01*
X55980000Y-35220000D02*
X55500000Y-34740000D01*
X55450000Y-37750000D02*
X55450000Y-37498870D01*
X58928501Y-25678501D02*
X58800000Y-25807002D01*
X55450000Y-37498870D02*
X54475565Y-36524435D01*
X63918900Y-25543600D02*
X65500000Y-23962500D01*
X58800000Y-25807002D02*
X58800000Y-32250000D01*
X57600000Y-35220000D02*
X55980000Y-35220000D01*
X58800000Y-34020000D02*
X57600000Y-35220000D01*
X56480000Y-36720000D02*
X55450000Y-37750000D01*
X73212500Y-23962500D02*
X73250000Y-24000000D01*
X65500000Y-23962500D02*
X73212500Y-23962500D01*
X73250000Y-24000000D02*
X75750000Y-24000000D01*
X57600000Y-36720000D02*
X56480000Y-36720000D01*
D40*
%TO.N,VPP*%
X93607200Y-23910000D02*
X94595200Y-24898000D01*
X90000000Y-40507349D02*
X90000000Y-45250000D01*
X93750000Y-30750000D02*
X93750000Y-36757349D01*
X94595200Y-29904800D02*
X93750000Y-30750000D01*
X68908537Y-51750000D02*
X68500000Y-51750000D01*
X68500000Y-51750000D02*
X67500000Y-52750000D01*
X87250000Y-48000000D02*
X72500000Y-48000000D01*
X94595200Y-24898000D02*
X94595200Y-29904800D01*
X93750000Y-36757349D02*
X90000000Y-40507349D01*
X67500000Y-52750000D02*
X62260000Y-52750000D01*
X72500000Y-48000000D02*
X68908537Y-51591463D01*
X68908537Y-51591463D02*
X68908537Y-51750000D01*
X90000000Y-45250000D02*
X87250000Y-48000000D01*
X68908537Y-51750000D02*
X68908537Y-54750000D01*
%TO.N,VBUS*%
X67000000Y-58750000D02*
X67000000Y-59000000D01*
X61912500Y-58750000D02*
X61862500Y-58800000D01*
D41*
X55928501Y-28321499D02*
X55928501Y-25543600D01*
X55928501Y-25543600D02*
X55928501Y-23908501D01*
D40*
X68908537Y-58750000D02*
X67000000Y-58750000D01*
D41*
X52750000Y-31500000D02*
X55928501Y-28321499D01*
D40*
X62000000Y-57230000D02*
X62000000Y-58662500D01*
D41*
X55928501Y-23908501D02*
X55750000Y-23730000D01*
D40*
X62000000Y-58662500D02*
X61862500Y-58800000D01*
X68908537Y-59550000D02*
X68908537Y-58750000D01*
X67000000Y-59000000D02*
X66250000Y-59750000D01*
X63250000Y-58750000D02*
X61912500Y-58750000D01*
%TO.N,+3.3V*%
X57300000Y-58800000D02*
X56137500Y-58800000D01*
X56687240Y-57000000D02*
X56137500Y-57549740D01*
X47238760Y-48651000D02*
X46523240Y-48651000D01*
X56137500Y-57549740D02*
X47238760Y-48651000D01*
X45601000Y-47728760D02*
X45601000Y-41279000D01*
X56137500Y-58800000D02*
X56137500Y-57549740D01*
X46836057Y-25314000D02*
X45849000Y-26301057D01*
X45601000Y-41279000D02*
X47000000Y-39880000D01*
X49261000Y-25314000D02*
X46836057Y-25314000D01*
X61862500Y-62700000D02*
X61200000Y-62700000D01*
X61200000Y-62700000D02*
X57300000Y-58800000D01*
X45849000Y-38729000D02*
X47000000Y-39880000D01*
X45849000Y-26301057D02*
X45849000Y-38729000D01*
X46523240Y-48651000D02*
X45601000Y-47728760D01*
X51825000Y-22750000D02*
X49261000Y-25314000D01*
X57020000Y-57000000D02*
X56687240Y-57000000D01*
%TO.N,/EEOP_Driver/CLK*%
X54750000Y-60750000D02*
X56137500Y-60750000D01*
%TO.N,/EEOP_Driver/LE*%
X54500000Y-61750000D02*
X54550000Y-61750000D01*
X54550000Y-61750000D02*
X54900000Y-61400000D01*
X54900000Y-61400000D02*
X56137500Y-61400000D01*
%TO.N,/EEOP_Driver/BL*%
X49440000Y-60100000D02*
X56137500Y-60100000D01*
X47000000Y-57660000D02*
X49440000Y-60100000D01*
%TO.N,/EEOP_Driver/DIN*%
X47000000Y-52580000D02*
X53870000Y-59450000D01*
X53870000Y-59450000D02*
X56137500Y-59450000D01*
%TO.N,/CHARGE*%
X54723095Y-35923435D02*
X54000000Y-35923435D01*
X57600000Y-36220000D02*
X55980340Y-36220000D01*
X55130660Y-36331000D02*
X54723095Y-35923435D01*
X49500000Y-40288840D02*
X49500000Y-42460000D01*
X54000000Y-35923435D02*
X53865405Y-35923435D01*
X51825000Y-26090000D02*
X50988500Y-26926500D01*
X50988500Y-26926500D02*
X50988500Y-33978500D01*
X55980340Y-36220000D02*
X55869340Y-36331000D01*
X50988500Y-33978500D02*
X52510000Y-35500000D01*
X53865405Y-35923435D02*
X49500000Y-40288840D01*
X55869340Y-36331000D02*
X55130660Y-36331000D01*
X54000000Y-35923435D02*
X53576565Y-35500000D01*
X49500000Y-42460000D02*
X47000000Y-44960000D01*
X53576565Y-35500000D02*
X52510000Y-35500000D01*
%TO.N,/VREF*%
X51250000Y-51750000D02*
X47000000Y-47500000D01*
X58510000Y-52750000D02*
X57510000Y-51750000D01*
X61240000Y-52750000D02*
X58510000Y-52750000D01*
X57510000Y-51750000D02*
X51250000Y-51750000D01*
D42*
%TO.N,/EEOP_Driver/OUT56*%
X77233537Y-55175533D02*
X77233537Y-52625000D01*
X77614387Y-55556383D02*
X77233537Y-55175533D01*
%TO.N,/EEOP_Driver/OUT48*%
X86506239Y-49018000D02*
X83633537Y-51890702D01*
X83633537Y-51890702D02*
X83633537Y-52625000D01*
X91551537Y-49018000D02*
X86506239Y-49018000D01*
X95533537Y-53000000D02*
X91551537Y-49018000D01*
%TO.N,/EEOP_Driver/OUT32*%
X91308537Y-61000000D02*
X91158537Y-61150000D01*
X95533537Y-61000000D02*
X91308537Y-61000000D01*
%TO.N,/EEOP_Driver/OUT52*%
X80533537Y-52725000D02*
X80433537Y-52625000D01*
X80533537Y-54075177D02*
X80533537Y-52725000D01*
X80977154Y-54518794D02*
X80533537Y-54075177D01*
%TO.N,/EEOP_Driver/OUT41*%
X92091835Y-54149000D02*
X91932537Y-54149000D01*
X95533537Y-56500000D02*
X94350637Y-56500000D01*
X91932537Y-54149000D02*
X90408537Y-52625000D01*
X92359537Y-54416702D02*
X92091835Y-54149000D01*
X92359537Y-54508900D02*
X92359537Y-54416702D01*
X94350637Y-56500000D02*
X92359537Y-54508900D01*
X90408537Y-52625000D02*
X89233537Y-52625000D01*
%TO.N,/EEOP_Driver/OUT38*%
X92091835Y-56549000D02*
X92082537Y-56549000D01*
X92082537Y-56549000D02*
X91883537Y-56350000D01*
X95533537Y-58000000D02*
X93533537Y-58000000D01*
X91883537Y-56350000D02*
X91158537Y-56350000D01*
X92359537Y-56826000D02*
X92359537Y-56816702D01*
X92359537Y-56816702D02*
X92091835Y-56549000D01*
X93533537Y-58000000D02*
X92359537Y-56826000D01*
%TO.N,/EEOP_Driver/OUT51*%
X81783537Y-54250000D02*
X81233537Y-53700000D01*
X81233537Y-53700000D02*
X81233537Y-52625000D01*
%TO.N,/EEOP_Driver/OUT42*%
X90574637Y-52224000D02*
X90507537Y-52224000D01*
X94417737Y-56000000D02*
X92760537Y-54342800D01*
X88433537Y-51750001D02*
X88433537Y-52625000D01*
X92098637Y-53748000D02*
X90574637Y-52224000D01*
X95533537Y-56000000D02*
X94417737Y-56000000D01*
X89707537Y-51424000D02*
X88759538Y-51424000D01*
X88759538Y-51424000D02*
X88433537Y-51750001D01*
X92760537Y-54342800D02*
X92760537Y-54250602D01*
X90507537Y-52224000D02*
X89707537Y-51424000D01*
X92760537Y-54250602D02*
X92257935Y-53748000D01*
X92257935Y-53748000D02*
X92098637Y-53748000D01*
%TO.N,/EEOP_Driver/OUT31*%
X95533537Y-61500000D02*
X92342835Y-61500000D01*
X91892835Y-61950000D02*
X91158537Y-61950000D01*
X92342835Y-61500000D02*
X91892835Y-61950000D01*
%TO.N,/EEOP_Driver/OUT54*%
X78833537Y-54625177D02*
X78833537Y-52625000D01*
X79227154Y-55018794D02*
X78833537Y-54625177D01*
%TO.N,/EEOP_Driver/OUT55*%
X78033537Y-54900355D02*
X78033537Y-52625000D01*
X78420771Y-55287589D02*
X78033537Y-54900355D01*
%TO.N,/EEOP_Driver/OUT39*%
X92083537Y-55550000D02*
X91158537Y-55550000D01*
X94033537Y-57500000D02*
X92083537Y-55550000D01*
X95533537Y-57500000D02*
X94033537Y-57500000D01*
%TO.N,/EEOP_Driver/OUT33*%
X91308537Y-60500000D02*
X91158537Y-60350000D01*
X95533537Y-60500000D02*
X91308537Y-60500000D01*
%TO.N,/EEOP_Driver/OUT35*%
X92550636Y-59500000D02*
X92359537Y-59308901D01*
X91357537Y-58949000D02*
X91158537Y-58750000D01*
X92359537Y-59216702D02*
X92091835Y-58949000D01*
X92091835Y-58949000D02*
X91357537Y-58949000D01*
X95533537Y-59500000D02*
X92550636Y-59500000D01*
X92359537Y-59308901D02*
X92359537Y-59216702D01*
%TO.N,/EEOP_Driver/OUT34*%
X92033536Y-59550000D02*
X91158537Y-59550000D01*
X92483536Y-60000000D02*
X92033536Y-59550000D01*
X95533537Y-60000000D02*
X92483536Y-60000000D01*
%TO.N,/EEOP_Driver/OUT45*%
X94711235Y-54500000D02*
X90432235Y-50221000D01*
X87562538Y-50221000D02*
X86033537Y-51750001D01*
X86033537Y-51750001D02*
X86033537Y-52625000D01*
X90432235Y-50221000D02*
X87562538Y-50221000D01*
X95533537Y-54500000D02*
X94711235Y-54500000D01*
%TO.N,/EEOP_Driver/OUT27*%
X92091835Y-64951000D02*
X92082537Y-64951000D01*
X92359537Y-64674000D02*
X92359537Y-64683298D01*
X95533537Y-63500000D02*
X93533537Y-63500000D01*
X91883537Y-65150000D02*
X91158537Y-65150000D01*
X92082537Y-64951000D02*
X91883537Y-65150000D01*
X92359537Y-64683298D02*
X92091835Y-64951000D01*
X93533537Y-63500000D02*
X92359537Y-64674000D01*
%TO.N,/EEOP_Driver/OUT47*%
X90769637Y-49419000D02*
X86905239Y-49419000D01*
X86905239Y-49419000D02*
X84433537Y-51890702D01*
X94850637Y-53500000D02*
X90769637Y-49419000D01*
X95533537Y-53500000D02*
X94850637Y-53500000D01*
X84433537Y-51890702D02*
X84433537Y-52625000D01*
%TO.N,/EEOP_Driver/OUT53*%
X80033537Y-54750000D02*
X79633537Y-54350000D01*
X79633537Y-54350000D02*
X79633537Y-52625000D01*
%TO.N,/EEOP_Driver/OUT36*%
X91983537Y-57950000D02*
X91158537Y-57950000D01*
X93033537Y-59000000D02*
X91983537Y-57950000D01*
X95533537Y-59000000D02*
X93033537Y-59000000D01*
%TO.N,/EEOP_Driver/OUT26*%
X92033536Y-65950000D02*
X91158537Y-65950000D01*
X93983536Y-64000000D02*
X92033536Y-65950000D01*
X95533537Y-64000000D02*
X93983536Y-64000000D01*
%TO.N,/EEOP_Driver/OUT29*%
X93033537Y-62500000D02*
X91983537Y-63550000D01*
X91983537Y-63550000D02*
X91158537Y-63550000D01*
X95533537Y-62500000D02*
X93033537Y-62500000D01*
%TO.N,/EEOP_Driver/OUT44*%
X90039737Y-50622000D02*
X87961538Y-50622000D01*
X87961538Y-50622000D02*
X86833537Y-51750001D01*
X86833537Y-51750001D02*
X86833537Y-52625000D01*
X93562537Y-54010600D02*
X93562537Y-53918402D01*
X92590135Y-52946000D02*
X92430837Y-52946000D01*
X93562537Y-53918402D02*
X92590135Y-52946000D01*
X95533537Y-55000000D02*
X94551937Y-55000000D01*
X90839737Y-51422000D02*
X90039737Y-50622000D01*
X90906837Y-51422000D02*
X90839737Y-51422000D01*
X94551937Y-55000000D02*
X93562537Y-54010600D01*
X92430837Y-52946000D02*
X90906837Y-51422000D01*
%TO.N,/EEOP_Driver/OUT50*%
X82033537Y-53504389D02*
X82033537Y-52625000D01*
X82656342Y-54127195D02*
X82033537Y-53504389D01*
%TO.N,/EEOP_Driver/OUT40*%
X92033537Y-54750000D02*
X91158537Y-54750000D01*
X95533537Y-57000000D02*
X94283537Y-57000000D01*
X94283537Y-57000000D02*
X92033537Y-54750000D01*
%TO.N,/EEOP_Driver/OUT28*%
X93283537Y-63000000D02*
X91933537Y-64350000D01*
X95533537Y-63000000D02*
X93283537Y-63000000D01*
X91933537Y-64350000D02*
X91158537Y-64350000D01*
%TO.N,/EEOP_Driver/OUT43*%
X90740737Y-51823000D02*
X90673637Y-51823000D01*
X93161537Y-54084502D02*
X92424035Y-53347000D01*
X94484837Y-55500000D02*
X93161537Y-54176700D01*
X87633537Y-51750001D02*
X87633537Y-52625000D01*
X93161537Y-54176700D02*
X93161537Y-54084502D01*
X89873637Y-51023000D02*
X88360538Y-51023000D01*
X90673637Y-51823000D02*
X89873637Y-51023000D01*
X92424035Y-53347000D02*
X92264737Y-53347000D01*
X88360538Y-51023000D02*
X87633537Y-51750001D01*
X92264737Y-53347000D02*
X90740737Y-51823000D01*
X95533537Y-55500000D02*
X94484837Y-55500000D01*
%TO.N,/EEOP_Driver/OUT37*%
X91933537Y-57150000D02*
X91158537Y-57150000D01*
X93283537Y-58500000D02*
X91933537Y-57150000D01*
X95533537Y-58500000D02*
X93283537Y-58500000D01*
%TO.N,/EEOP_Driver/OUT25*%
X94283537Y-64500000D02*
X92033537Y-66750000D01*
X92033537Y-66750000D02*
X91158537Y-66750000D01*
X95533537Y-64500000D02*
X94283537Y-64500000D01*
%TO.N,/EEOP_Driver/OUT46*%
X87304239Y-49820000D02*
X85233537Y-51890702D01*
X85233537Y-51890702D02*
X85233537Y-52625000D01*
X95533537Y-54000000D02*
X94783537Y-54000000D01*
X94783537Y-54000000D02*
X90603537Y-49820000D01*
X90603537Y-49820000D02*
X87304239Y-49820000D01*
%TO.N,/EEOP_Driver/OUT49*%
X83524239Y-54050000D02*
X82833537Y-53359298D01*
X82833537Y-53359298D02*
X82833537Y-52625000D01*
X83779799Y-54050000D02*
X83524239Y-54050000D01*
%TO.N,/EEOP_Driver/OUT30*%
X91892835Y-62750000D02*
X91158537Y-62750000D01*
X92642835Y-62000000D02*
X91892835Y-62750000D01*
X95533537Y-62000000D02*
X92642835Y-62000000D01*
%TO.N,/EEOP_Driver/OUT10*%
X78033537Y-66923405D02*
X78033537Y-68875000D01*
X78285751Y-66671191D02*
X78033537Y-66923405D01*
%TO.N,/EEOP_Driver/OUT13*%
X80433537Y-67498463D02*
X80433537Y-68875000D01*
X80780849Y-67151151D02*
X80433537Y-67498463D01*
%TO.N,/EEOP_Driver/OUT17*%
X90935737Y-72482000D02*
X86365538Y-72482000D01*
X86365538Y-72482000D02*
X83633537Y-69749999D01*
X95533537Y-68500000D02*
X94917737Y-68500000D01*
X83633537Y-69749999D02*
X83633537Y-68875000D01*
X94917737Y-68500000D02*
X90935737Y-72482000D01*
%TO.N,/EEOP_Driver/OUT61*%
X73477154Y-56768794D02*
X73233537Y-56525177D01*
X73233537Y-56525177D02*
X73233537Y-52625000D01*
%TO.N,/EEOP_Driver/OUT15*%
X82407763Y-67375774D02*
X82033537Y-67750000D01*
X82033537Y-67750000D02*
X82033537Y-68875000D01*
X82573880Y-67375774D02*
X82407763Y-67375774D01*
%TO.N,/EEOP_Driver/OUT8*%
X76433537Y-66425059D02*
X76433537Y-68875000D01*
X76653504Y-66205092D02*
X76433537Y-66425059D01*
%TO.N,/EEOP_Driver/OUT18*%
X95533537Y-68000000D02*
X94850637Y-68000000D01*
X90769637Y-72081000D02*
X86764538Y-72081000D01*
X86764538Y-72081000D02*
X84433537Y-69749999D01*
X94850637Y-68000000D02*
X90769637Y-72081000D01*
X84433537Y-69749999D02*
X84433537Y-68875000D01*
%TO.N,/EEOP_Driver/OUT23*%
X94417737Y-65500000D02*
X92760537Y-67157200D01*
X92760537Y-67157200D02*
X92760537Y-67249398D01*
X90507537Y-69276000D02*
X89707537Y-70076000D01*
X89634537Y-70076000D02*
X89600686Y-70042149D01*
X92760537Y-67249398D02*
X92257935Y-67752000D01*
X95533537Y-65500000D02*
X94417737Y-65500000D01*
X89566835Y-70076000D02*
X88900239Y-70076000D01*
X92257935Y-67752000D02*
X92098637Y-67752000D01*
X89707537Y-70076000D02*
X89634537Y-70076000D01*
X88900239Y-70076000D02*
X88632537Y-69808298D01*
X88632537Y-69808298D02*
X88632537Y-69074000D01*
X89600686Y-70042149D02*
X89566835Y-70076000D01*
X92098637Y-67752000D02*
X90574637Y-69276000D01*
X90574637Y-69276000D02*
X90507537Y-69276000D01*
X88632537Y-69074000D02*
X88433537Y-68875000D01*
%TO.N,/EEOP_Driver/OUT21*%
X90266135Y-70878000D02*
X87961538Y-70878000D01*
X86833537Y-69749999D02*
X86833537Y-68875000D01*
X87961538Y-70878000D02*
X86833537Y-69749999D01*
X95533537Y-66500000D02*
X94644135Y-66500000D01*
X94644135Y-66500000D02*
X90266135Y-70878000D01*
%TO.N,/EEOP_Driver/OUT2*%
X71794300Y-64672163D02*
X71633537Y-64832926D01*
X71633537Y-64832926D02*
X71633537Y-68875000D01*
%TO.N,/EEOP_Driver/OUT22*%
X95533537Y-66000000D02*
X94484837Y-66000000D01*
X87633537Y-69774398D02*
X87633537Y-68875000D01*
X89873637Y-70477000D02*
X88336139Y-70477000D01*
X93161537Y-67323300D02*
X93161537Y-67415498D01*
X88336139Y-70477000D02*
X87633537Y-69774398D01*
X94484837Y-66000000D02*
X93161537Y-67323300D01*
X92264737Y-68153000D02*
X90740737Y-69677000D01*
X90673637Y-69677000D02*
X89873637Y-70477000D01*
X90740737Y-69677000D02*
X90673637Y-69677000D01*
X92424035Y-68153000D02*
X92264737Y-68153000D01*
X93161537Y-67415498D02*
X92424035Y-68153000D01*
%TO.N,/EEOP_Driver/OUT1*%
X70833537Y-64616273D02*
X70833537Y-68875000D01*
X70965261Y-64484549D02*
X70833537Y-64616273D01*
%TO.N,/EEOP_Driver/OUT20*%
X90432235Y-71279000D02*
X87703239Y-71279000D01*
X87703239Y-71279000D02*
X86033537Y-69609298D01*
X94711235Y-67000000D02*
X90432235Y-71279000D01*
X95533537Y-67000000D02*
X94711235Y-67000000D01*
X86033537Y-69609298D02*
X86033537Y-68875000D01*
%TO.N,/EEOP_Driver/OUT57*%
X76783537Y-55750000D02*
X76433537Y-55400000D01*
X76433537Y-55400000D02*
X76433537Y-52625000D01*
%TO.N,/EEOP_Driver/OUT16*%
X82833537Y-68000001D02*
X82833537Y-68875000D01*
X83783433Y-67450000D02*
X83383538Y-67450000D01*
X83383538Y-67450000D02*
X82833537Y-68000001D01*
%TO.N,/EEOP_Driver/OUT62*%
X72670771Y-57037589D02*
X72433537Y-56800355D01*
X72433537Y-56800355D02*
X72433537Y-52625000D01*
%TO.N,/EEOP_Driver/OUT59*%
X74833537Y-55950355D02*
X74833537Y-52625000D01*
X75170771Y-56287589D02*
X74833537Y-55950355D01*
%TO.N,/EEOP_Driver/OUT5*%
X74233850Y-65400226D02*
X74033537Y-65600539D01*
X74033537Y-65600539D02*
X74033537Y-68875000D01*
%TO.N,/EEOP_Driver/OUT24*%
X92359537Y-66991100D02*
X92359537Y-67083298D01*
X94350637Y-65000000D02*
X92359537Y-66991100D01*
X91932537Y-67351000D02*
X90408537Y-68875000D01*
X95533537Y-65000000D02*
X94350637Y-65000000D01*
X92091835Y-67351000D02*
X91932537Y-67351000D01*
X92359537Y-67083298D02*
X92091835Y-67351000D01*
X90408537Y-68875000D02*
X89233537Y-68875000D01*
%TO.N,/EEOP_Driver/OUT12*%
X79633537Y-67296822D02*
X79633537Y-68875000D01*
X79947717Y-66982642D02*
X79633537Y-67296822D01*
%TO.N,/EEOP_Driver/OUT14*%
X81621276Y-67278377D02*
X81233537Y-67666116D01*
X81233537Y-67666116D02*
X81233537Y-68875000D01*
%TO.N,/EEOP_Driver/OUT7*%
X75846512Y-65938130D02*
X75633537Y-66151105D01*
X75633537Y-66151105D02*
X75633537Y-68875000D01*
%TO.N,/EEOP_Driver/OUT3*%
X72433537Y-65104207D02*
X72433537Y-68875000D01*
X72602597Y-64935147D02*
X72433537Y-65104207D01*
%TO.N,/EEOP_Driver/OUT58*%
X75977154Y-56018794D02*
X75633537Y-55675177D01*
X75633537Y-55675177D02*
X75633537Y-52625000D01*
%TO.N,/EEOP_Driver/OUT19*%
X94783537Y-67500000D02*
X90603537Y-71680000D01*
X95533537Y-67500000D02*
X94783537Y-67500000D01*
X85233537Y-69609298D02*
X85233537Y-68875000D01*
X87304239Y-71680000D02*
X85233537Y-69609298D01*
X90603537Y-71680000D02*
X87304239Y-71680000D01*
%TO.N,/EEOP_Driver/OUT64*%
X70833537Y-57300000D02*
X70833537Y-52625000D01*
X71033537Y-57500000D02*
X70833537Y-57300000D01*
%TO.N,/EEOP_Driver/OUT9*%
X77456942Y-66482568D02*
X77233537Y-66705973D01*
X77233537Y-66705973D02*
X77233537Y-68875000D01*
%TO.N,/EEOP_Driver/OUT63*%
X71864387Y-57306383D02*
X71633537Y-57075533D01*
X71633537Y-57075533D02*
X71633537Y-52625000D01*
%TO.N,/EEOP_Driver/OUT6*%
X74833537Y-65875521D02*
X74833537Y-68875000D01*
X75040331Y-65668727D02*
X74833537Y-65875521D01*
%TO.N,/EEOP_Driver/OUT4*%
X73233537Y-65391162D02*
X73233537Y-68875000D01*
X73402754Y-65221945D02*
X73233537Y-65391162D01*
%TO.N,/EEOP_Driver/OUT60*%
X74283537Y-56500000D02*
X74033537Y-56250000D01*
X74033537Y-56250000D02*
X74033537Y-52625000D01*
%TO.N,/EEOP_Driver/OUT11*%
X78833537Y-67180297D02*
X78833537Y-68875000D01*
X79100548Y-66913286D02*
X78833537Y-67180297D01*
D40*
%TO.N,/EEOP_Driver/LEout*%
X68150000Y-65150000D02*
X68908537Y-65150000D01*
X61862500Y-61400000D02*
X64400000Y-61400000D01*
X64400000Y-61400000D02*
X68150000Y-65150000D01*
%TO.N,/EEOP_Driver/DINout*%
X64309593Y-59450000D02*
X68209593Y-55550000D01*
X61862500Y-59450000D02*
X64309593Y-59450000D01*
X68209593Y-55550000D02*
X68908537Y-55550000D01*
%TO.N,/EEOP_Driver/CLKout*%
X68209593Y-64350000D02*
X68908537Y-64350000D01*
X61862500Y-60750000D02*
X64609593Y-60750000D01*
X64609593Y-60750000D02*
X68209593Y-64350000D01*
%TO.N,/EEOP_Driver/BLout*%
X66609593Y-57950000D02*
X68908537Y-57950000D01*
X64459593Y-60100000D02*
X66609593Y-57950000D01*
X61862500Y-60100000D02*
X64459593Y-60100000D01*
%TO.N,Net-(U301-RBG)*%
X63050000Y-35220000D02*
X64520000Y-33750000D01*
X61900000Y-35220000D02*
X63050000Y-35220000D01*
X61900000Y-35220000D02*
X64270000Y-35220000D01*
X64270000Y-35220000D02*
X64490000Y-35000000D01*
%TO.N,Net-(D301-A)*%
X89802800Y-24000000D02*
X89892800Y-23910000D01*
X85750000Y-24000000D02*
X89802800Y-24000000D01*
%TO.N,Net-(U301-SOURCE)*%
X54855000Y-43635000D02*
X54750000Y-43740000D01*
X57125000Y-43635000D02*
X54855000Y-43635000D01*
X57010000Y-43750000D02*
X57125000Y-43635000D01*
%TO.N,Net-(Q301-Pad5)*%
X65905000Y-41095000D02*
X66000000Y-41000000D01*
X62375000Y-41095000D02*
X65905000Y-41095000D01*
X73250000Y-44320000D02*
X71310000Y-44320000D01*
X62375000Y-41095000D02*
X62375000Y-44905000D01*
X71310000Y-44320000D02*
X67990000Y-41000000D01*
X73250000Y-44320000D02*
X75750000Y-44320000D01*
X67990000Y-41000000D02*
X66000000Y-41000000D01*
%TO.N,Net-(U301-RVOUT)*%
X63730000Y-35720000D02*
X67990000Y-39980000D01*
X61900000Y-35720000D02*
X63730000Y-35720000D01*
%TO.N,Net-(U301-RDCM)*%
X66000000Y-38750000D02*
X66000000Y-39980000D01*
X63470000Y-36220000D02*
X66000000Y-38750000D01*
X61900000Y-36220000D02*
X63470000Y-36220000D01*
%TO.N,Net-(D101-K)*%
X48760000Y-22750000D02*
X50250000Y-22750000D01*
%TO.N,Net-(D102-K)*%
X50160000Y-26000000D02*
X50250000Y-26090000D01*
X48760000Y-26000000D02*
X50160000Y-26000000D01*
%TO.N,Net-(D103-K)*%
X50180000Y-29320000D02*
X50250000Y-29250000D01*
X48760000Y-29320000D02*
X50180000Y-29320000D01*
%TO.N,/DONE*%
X57560000Y-35760000D02*
X57600000Y-35720000D01*
X55500000Y-35760000D02*
X57560000Y-35760000D01*
X51825000Y-32085000D02*
X55500000Y-35760000D01*
X51825000Y-29250000D02*
X51825000Y-32085000D01*
%TD*%
M02*
