%TF.GenerationSoftware,KiCad,Pcbnew,9.0.3*%
%TF.CreationDate,2026-09-10T02:15:17-04:00*%
%TF.ProjectId,EEOP_Testbed,45454f50-5f54-4657-9374-6265642e6b69,rev?*%
%TF.SameCoordinates,Original*%
%TF.FileFunction,Soldermask,Bot*%
%TF.FilePolarity,Negative*%
%FSLAX46Y46*%
G04 Gerber Fmt 4.6, Leading zero omitted, Abs format (unit mm)*
G04 Created by KiCad (PCBNEW 9.0.3) date 2026-09-10 02:15:17*
%MOMM*%
%LPD*%
G01*
G04 APERTURE LIST*
G04 Aperture macros list*
%AMRoundRect*
0 Rectangle with rounded corners*
0 $1 Rounding radius*
0 $2 $3 $4 $5 $6 $7 $8 $9 X,Y pos of 4 corners*
0 Add a 4 corners polygon primitive as box body*
4,1,4,$2,$3,$4,$5,$6,$7,$8,$9,$2,$3,0*
0 Add four circle primitives for the rounded corners*
1,1,$1+$1,$2,$3*
1,1,$1+$1,$4,$5*
1,1,$1+$1,$6,$7*
1,1,$1+$1,$8,$9*
0 Add four rect primitives between the rounded corners*
20,1,$1+$1,$2,$3,$4,$5,0*
20,1,$1+$1,$4,$5,$6,$7,0*
20,1,$1+$1,$6,$7,$8,$9,0*
20,1,$1+$1,$8,$9,$2,$3,0*%
G04 Aperture macros list end*
%ADD10RoundRect,0.250000X-0.550000X0.550000X-0.550000X-0.550000X0.550000X-0.550000X0.550000X0.550000X0*%
%ADD11C,1.600000*%
%ADD12R,1.700000X1.700000*%
%ADD13C,1.700000*%
%ADD14R,0.800000X0.300000*%
%ADD15R,0.800000X0.400000*%
G04 APERTURE END LIST*
D10*
%TO.C,C305*%
X93750000Y-36757349D03*
D11*
X93750000Y-40257349D03*
%TD*%
D12*
%TO.C,J101*%
X47000000Y-37340000D03*
D13*
X47000000Y-39880000D03*
X47000000Y-42420000D03*
X47000000Y-44960000D03*
X47000000Y-47500000D03*
X47000000Y-50040000D03*
X47000000Y-52580000D03*
X47000000Y-55120000D03*
X47000000Y-57660000D03*
%TD*%
D14*
%TO.C,J201*%
X95533537Y-68500000D03*
X95533537Y-68000000D03*
X95533537Y-67500000D03*
X95533537Y-67000000D03*
X95533537Y-66500000D03*
X95533537Y-66000000D03*
X95533537Y-65500000D03*
X95533537Y-65000000D03*
X95533537Y-64500000D03*
X95533537Y-64000000D03*
X95533537Y-63500000D03*
X95533537Y-63000000D03*
X95533537Y-62500000D03*
X95533537Y-62000000D03*
X95533537Y-61500000D03*
X95533537Y-61000000D03*
X95533537Y-60500000D03*
X95533537Y-60000000D03*
X95533537Y-59500000D03*
X95533537Y-59000000D03*
X95533537Y-58500000D03*
X95533537Y-58000000D03*
X95533537Y-57500000D03*
X95533537Y-57000000D03*
X95533537Y-56500000D03*
X95533537Y-56000000D03*
X95533537Y-55500000D03*
X95533537Y-55000000D03*
X95533537Y-54500000D03*
X95533537Y-54000000D03*
X95533537Y-53500000D03*
X95533537Y-53000000D03*
D15*
X98033537Y-69500000D03*
X98033537Y-52000000D03*
%TD*%
M02*
