%TF.GenerationSoftware,KiCad,Pcbnew,9.0.3*%
%TF.CreationDate,2026-09-12T12:39:45-04:00*%
%TF.ProjectId,Microcoder,4d696372-6f63-46f6-9465-722e6b696361,rev?*%
%TF.SameCoordinates,Original*%
%TF.FileFunction,Copper,L1,Top*%
%TF.FilePolarity,Positive*%
%FSLAX46Y46*%
G04 Gerber Fmt 4.6, Leading zero omitted, Abs format (unit mm)*
G04 Created by KiCad (PCBNEW 9.0.3) date 2026-09-12 12:39:45*
%MOMM*%
%LPD*%
G01*
G04 APERTURE LIST*
G04 Aperture macros list*
%AMRoundRect*
0 Rectangle with rounded corners*
0 $1 Rounding radius*
0 $2 $3 $4 $5 $6 $7 $8 $9 X,Y pos of 4 corners*
0 Add a 4 corners polygon primitive as box body*
4,1,4,$2,$3,$4,$5,$6,$7,$8,$9,$2,$3,0*
0 Add four circle primitives for the rounded corners*
1,1,$1+$1,$2,$3*
1,1,$1+$1,$4,$5*
1,1,$1+$1,$6,$7*
1,1,$1+$1,$8,$9*
0 Add four rect primitives between the rounded corners*
20,1,$1+$1,$2,$3,$4,$5,0*
20,1,$1+$1,$4,$5,$6,$7,0*
20,1,$1+$1,$6,$7,$8,$9,0*
20,1,$1+$1,$8,$9,$2,$3,0*%
G04 Aperture macros list end*
%TA.AperFunction,SMDPad,CuDef*%
%ADD10RoundRect,0.150000X-0.825000X-0.150000X0.825000X-0.150000X0.825000X0.150000X-0.825000X0.150000X0*%
%TD*%
%TA.AperFunction,SMDPad,CuDef*%
%ADD11R,0.609600X1.549400*%
%TD*%
%TA.AperFunction,SMDPad,CuDef*%
%ADD12R,1.193800X1.803400*%
%TD*%
%TA.AperFunction,SMDPad,CuDef*%
%ADD13RoundRect,0.135000X0.135000X0.185000X-0.135000X0.185000X-0.135000X-0.185000X0.135000X-0.185000X0*%
%TD*%
%TA.AperFunction,SMDPad,CuDef*%
%ADD14RoundRect,0.250000X-0.475000X0.250000X-0.475000X-0.250000X0.475000X-0.250000X0.475000X0.250000X0*%
%TD*%
%TA.AperFunction,SMDPad,CuDef*%
%ADD15RoundRect,0.140000X0.140000X0.170000X-0.140000X0.170000X-0.140000X-0.170000X0.140000X-0.170000X0*%
%TD*%
%TA.AperFunction,ViaPad*%
%ADD16C,0.600000*%
%TD*%
%TA.AperFunction,Conductor*%
%ADD17C,0.200000*%
%TD*%
G04 APERTURE END LIST*
D10*
%TO.P,IC101,1,VDD5V*%
%TO.N,+3.3V*%
X-2475000Y1905000D03*
%TO.P,IC101,2,VDD3V3*%
X-2475000Y635000D03*
%TO.P,IC101,3,OUT*%
%TO.N,unconnected-(IC101-OUT-Pad3)*%
X-2475000Y-635000D03*
%TO.P,IC101,4,GND*%
%TO.N,GND*%
X-2475000Y-1905000D03*
%TO.P,IC101,5,PGO*%
%TO.N,unconnected-(IC101-PGO-Pad5)*%
X2475000Y-1905000D03*
%TO.P,IC101,6,SDA*%
%TO.N,/SDA*%
X2475000Y-635000D03*
%TO.P,IC101,7,SCL*%
%TO.N,/SCL*%
X2475000Y635000D03*
%TO.P,IC101,8,DIR*%
%TO.N,GND*%
X2475000Y1905000D03*
%TD*%
D11*
%TO.P,J101,1,Pin_1*%
%TO.N,/SCL*%
X-1500000Y-3948500D03*
%TO.P,J101,2,Pin_2*%
%TO.N,/SDA*%
X-499999Y-3948500D03*
%TO.P,J101,3,Pin_3*%
%TO.N,+3.3V*%
X499999Y-3948500D03*
%TO.P,J101,4,Pin_4*%
%TO.N,GND*%
X1500000Y-3948500D03*
D12*
%TO.P,J101,5*%
%TO.N,N/C*%
X-2799999Y-7773499D03*
%TO.P,J101,6*%
X2799999Y-7773499D03*
%TD*%
D13*
%TO.P,R102,1*%
%TO.N,+3.3V*%
X5260000Y750000D03*
%TO.P,R102,2*%
%TO.N,/SCL*%
X4240000Y750000D03*
%TD*%
D14*
%TO.P,C101,1*%
%TO.N,+3.3V*%
X-4750000Y200000D03*
%TO.P,C101,2*%
%TO.N,GND*%
X-4750000Y-1700000D03*
%TD*%
D13*
%TO.P,R101,1*%
%TO.N,+3.3V*%
X5260000Y-750000D03*
%TO.P,R101,2*%
%TO.N,/SDA*%
X4240000Y-750000D03*
%TD*%
D15*
%TO.P,C102,1*%
%TO.N,+3.3V*%
X-4270000Y2000000D03*
%TO.P,C102,2*%
%TO.N,GND*%
X-5230000Y2000000D03*
%TD*%
D16*
%TO.N,GND*%
X3996122Y1560779D03*
X-5250000Y1250000D03*
X1750000Y-2750000D03*
X-4750000Y-2750000D03*
X-2500000Y-2750000D03*
%TD*%
D17*
%TO.N,GND*%
X3651901Y1905000D02*
X2475000Y1905000D01*
X3996122Y1560779D02*
X3651901Y1905000D01*
%TO.N,+3.3V*%
X-2910000Y200000D02*
X-2475000Y635000D01*
X-4750000Y200000D02*
X-2910000Y200000D01*
%TO.N,GND*%
X-2475000Y-2725000D02*
X-2500000Y-2750000D01*
X-5230000Y1270000D02*
X-5250000Y1250000D01*
X-2475000Y-1905000D02*
X-2475000Y-2725000D01*
X1500000Y-3948500D02*
X1500000Y-3000000D01*
X1500000Y-3000000D02*
X1750000Y-2750000D01*
X-4750000Y-1700000D02*
X-4750000Y-2750000D01*
X-5230000Y2000000D02*
X-5230000Y1270000D01*
%TO.N,/SCL*%
X2475000Y635000D02*
X4125000Y635000D01*
X1865000Y635000D02*
X-1500000Y-2730000D01*
X2475000Y635000D02*
X1865000Y635000D01*
X-1500000Y-2730000D02*
X-1500000Y-3948500D01*
X4125000Y635000D02*
X4240000Y750000D01*
%TO.N,/SDA*%
X2475000Y-635000D02*
X4125000Y-635000D01*
X4125000Y-635000D02*
X4240000Y-750000D01*
X-499999Y-2635000D02*
X-499999Y-3948500D01*
X1500001Y-635000D02*
X-499999Y-2635000D01*
X2475000Y-635000D02*
X1500001Y-635000D01*
%TD*%
%TA.AperFunction,Conductor*%
%TO.N,+3.3V*%
G36*
X5708691Y2730593D02*
G01*
X5744655Y2681093D01*
X5749500Y2650500D01*
X5749500Y1625119D01*
X5730593Y1566928D01*
X5681093Y1530964D01*
X5622880Y1530050D01*
X5510000Y1562844D01*
X5510000Y-1562844D01*
X5622880Y-1530050D01*
X5684035Y-1531972D01*
X5732381Y-1569473D01*
X5749500Y-1625119D01*
X5749500Y-1945210D01*
X5744751Y-1975505D01*
X3790650Y-8054929D01*
X3754843Y-8104542D01*
X3696712Y-8123634D01*
X3638462Y-8104910D01*
X3602342Y-8055524D01*
X3597399Y-8024634D01*
X3597399Y-6852052D01*
X3597397Y-6852040D01*
X3594610Y-6838030D01*
X3585766Y-6793568D01*
X3541451Y-6727247D01*
X3541447Y-6727244D01*
X3475132Y-6682933D01*
X3475130Y-6682932D01*
X3475127Y-6682931D01*
X3475126Y-6682931D01*
X3416657Y-6671300D01*
X3416647Y-6671299D01*
X2183351Y-6671299D01*
X2183350Y-6671299D01*
X2183340Y-6671300D01*
X2124871Y-6682931D01*
X2124865Y-6682933D01*
X2058550Y-6727244D01*
X2058544Y-6727250D01*
X2014233Y-6793565D01*
X2014231Y-6793571D01*
X2002600Y-6852040D01*
X2002599Y-6852052D01*
X2002599Y-8650500D01*
X1983692Y-8708691D01*
X1934192Y-8744655D01*
X1903599Y-8749500D01*
X-1903599Y-8749500D01*
X-1961790Y-8730593D01*
X-1997754Y-8681093D01*
X-2002599Y-8650500D01*
X-2002599Y-6852052D01*
X-2002600Y-6852040D01*
X-2014231Y-6793571D01*
X-2014233Y-6793565D01*
X-2058544Y-6727250D01*
X-2058550Y-6727244D01*
X-2124865Y-6682933D01*
X-2124871Y-6682931D01*
X-2183340Y-6671300D01*
X-2183350Y-6671299D01*
X-2183351Y-6671299D01*
X-3416647Y-6671299D01*
X-3416657Y-6671300D01*
X-3475126Y-6682931D01*
X-3475127Y-6682931D01*
X-3475130Y-6682932D01*
X-3475132Y-6682933D01*
X-3541447Y-6727244D01*
X-3541451Y-6727247D01*
X-3585766Y-6793568D01*
X-3594610Y-6838030D01*
X-3597397Y-6852040D01*
X-3597399Y-6852052D01*
X-3597399Y-8024635D01*
X-3616306Y-8082826D01*
X-3665806Y-8118790D01*
X-3726992Y-8118790D01*
X-3776492Y-8082826D01*
X-3790650Y-8054930D01*
X-5587273Y-2465435D01*
X-5587079Y-2404250D01*
X-5550959Y-2354864D01*
X-5492709Y-2336140D01*
X-5445645Y-2351597D01*
X-5444445Y-2349325D01*
X-5437884Y-2352791D01*
X-5437882Y-2352793D01*
X-5309699Y-2397646D01*
X-5287667Y-2399712D01*
X-5231498Y-2423968D01*
X-5200313Y-2476610D01*
X-5206025Y-2537528D01*
X-5211177Y-2547781D01*
X-5214768Y-2554002D01*
X-5216392Y-2556814D01*
X-5250500Y-2684108D01*
X-5250500Y-2815892D01*
X-5216392Y-2943186D01*
X-5216390Y-2943188D01*
X-5216390Y-2943190D01*
X-5162795Y-3036018D01*
X-5150500Y-3057314D01*
X-5057314Y-3150500D01*
X-5007092Y-3179496D01*
X-4943189Y-3216390D01*
X-4943188Y-3216390D01*
X-4943186Y-3216392D01*
X-4815892Y-3250500D01*
X-4815890Y-3250500D01*
X-4684110Y-3250500D01*
X-4684108Y-3250500D01*
X-4556814Y-3216392D01*
X-4556811Y-3216390D01*
X-4556809Y-3216390D01*
X-4442690Y-3150503D01*
X-4442688Y-3150501D01*
X-4442686Y-3150500D01*
X-4349500Y-3057314D01*
X-4349498Y-3057311D01*
X-4349496Y-3057309D01*
X-4283609Y-2943190D01*
X-4267752Y-2884011D01*
X-4249500Y-2815892D01*
X-4249500Y-2684108D01*
X-4283608Y-2556814D01*
X-4283608Y-2556813D01*
X-4283609Y-2556811D01*
X-4288825Y-2547777D01*
X-4301544Y-2487928D01*
X-4276657Y-2432033D01*
X-4223668Y-2401442D01*
X-4212342Y-2399713D01*
X-4190301Y-2397646D01*
X-4062118Y-2352793D01*
X-4062117Y-2352792D01*
X-4062116Y-2352792D01*
X-3952855Y-2272154D01*
X-3952853Y-2272152D01*
X-3952850Y-2272150D01*
X-3952847Y-2272146D01*
X-3952845Y-2272144D01*
X-3872207Y-2162883D01*
X-3841244Y-2074397D01*
X-3804178Y-2025716D01*
X-3745578Y-2008120D01*
X-3687826Y-2028329D01*
X-3652982Y-2078623D01*
X-3649837Y-2092807D01*
X-3640573Y-2156393D01*
X-3589198Y-2261483D01*
X-3506483Y-2344198D01*
X-3401393Y-2395573D01*
X-3333260Y-2405500D01*
X-3050504Y-2405500D01*
X-2992313Y-2424407D01*
X-2956349Y-2473907D01*
X-2956349Y-2535093D01*
X-2964766Y-2553998D01*
X-2966392Y-2556814D01*
X-3000500Y-2684108D01*
X-3000500Y-2815892D01*
X-2966392Y-2943186D01*
X-2966390Y-2943188D01*
X-2966390Y-2943190D01*
X-2912795Y-3036018D01*
X-2900500Y-3057314D01*
X-2807314Y-3150500D01*
X-2757092Y-3179496D01*
X-2693189Y-3216390D01*
X-2693188Y-3216390D01*
X-2693186Y-3216392D01*
X-2565892Y-3250500D01*
X-2565890Y-3250500D01*
X-2434110Y-3250500D01*
X-2434108Y-3250500D01*
X-2306814Y-3216392D01*
X-2306811Y-3216390D01*
X-2306809Y-3216390D01*
X-2192690Y-3150503D01*
X-2192688Y-3150501D01*
X-2192686Y-3150500D01*
X-2174301Y-3132115D01*
X-2119787Y-3104340D01*
X-2059355Y-3113911D01*
X-2016090Y-3157176D01*
X-2005300Y-3202121D01*
X-2005300Y-4742948D01*
X-1993667Y-4801431D01*
X-1949352Y-4867752D01*
X-1883031Y-4912067D01*
X-1824548Y-4923700D01*
X-1824547Y-4923700D01*
X-1175453Y-4923700D01*
X-1175452Y-4923700D01*
X-1175446Y-4923698D01*
X-1175441Y-4923698D01*
X-1161431Y-4920911D01*
X-1116969Y-4912067D01*
X-1054998Y-4870659D01*
X-996114Y-4854051D01*
X-944998Y-4870660D01*
X-883030Y-4912067D01*
X-824547Y-4923700D01*
X-824546Y-4923700D01*
X-328844Y-4923700D01*
X-270653Y-4942607D01*
X-249591Y-4963371D01*
X-161993Y-5080384D01*
X-161985Y-5080392D01*
X-46891Y-5166552D01*
X-46889Y-5166553D01*
X87817Y-5216796D01*
X87828Y-5216798D01*
X147375Y-5223200D01*
X249998Y-5223200D01*
X249999Y-5223199D01*
X249999Y-2673801D01*
X749999Y-2673801D01*
X749999Y-5223199D01*
X750000Y-5223200D01*
X852623Y-5223200D01*
X912169Y-5216798D01*
X912180Y-5216796D01*
X1046887Y-5166553D01*
X1046889Y-5166552D01*
X1161983Y-5080392D01*
X1161991Y-5080384D01*
X1249589Y-4963371D01*
X1299598Y-4928118D01*
X1328842Y-4923700D01*
X1824547Y-4923700D01*
X1824548Y-4923700D01*
X1883031Y-4912067D01*
X1949352Y-4867752D01*
X1993667Y-4801431D01*
X2005300Y-4742948D01*
X2005300Y-3237687D01*
X2024207Y-3179496D01*
X2054803Y-3151949D01*
X2057314Y-3150500D01*
X2150500Y-3057314D01*
X2162795Y-3036018D01*
X2216390Y-2943190D01*
X2216390Y-2943188D01*
X2216392Y-2943186D01*
X2250500Y-2815892D01*
X2250500Y-2684108D01*
X2216392Y-2556814D01*
X2214767Y-2554000D01*
X2214283Y-2551722D01*
X2213908Y-2550816D01*
X2214075Y-2550746D01*
X2202046Y-2494153D01*
X2226931Y-2438257D01*
X2279919Y-2407664D01*
X2300504Y-2405500D01*
X3333257Y-2405500D01*
X3333260Y-2405500D01*
X3401393Y-2395573D01*
X3506483Y-2344198D01*
X3589198Y-2261483D01*
X3640573Y-2156393D01*
X3650500Y-2088260D01*
X3650500Y-1721740D01*
X3640573Y-1653607D01*
X3589198Y-1548517D01*
X3506483Y-1465802D01*
X3506481Y-1465801D01*
X3401395Y-1414427D01*
X3374139Y-1410456D01*
X3333260Y-1404500D01*
X1616740Y-1404500D01*
X1582673Y-1409463D01*
X1548604Y-1414427D01*
X1443518Y-1465801D01*
X1360801Y-1548518D01*
X1309427Y-1653604D01*
X1309427Y-1653607D01*
X1299500Y-1721740D01*
X1299500Y-2088260D01*
X1300165Y-2092823D01*
X1309427Y-2156395D01*
X1360801Y-2261481D01*
X1360802Y-2261483D01*
X1375750Y-2276431D01*
X1403526Y-2330946D01*
X1393955Y-2391378D01*
X1375750Y-2416435D01*
X1349501Y-2442684D01*
X1349496Y-2442690D01*
X1283609Y-2556809D01*
X1283608Y-2556814D01*
X1250547Y-2680203D01*
X1249500Y-2684109D01*
X1249500Y-2684343D01*
X1249448Y-2684502D01*
X1248653Y-2690542D01*
X1247533Y-2690394D01*
X1230593Y-2742534D01*
X1181093Y-2778498D01*
X1119907Y-2778498D01*
X1091171Y-2763596D01*
X1046889Y-2730447D01*
X1046887Y-2730446D01*
X912180Y-2680203D01*
X912169Y-2680201D01*
X852623Y-2673800D01*
X750000Y-2673800D01*
X749999Y-2673801D01*
X249999Y-2673801D01*
X249998Y-2673800D01*
X147372Y-2673800D01*
X133726Y-2675267D01*
X73848Y-2662687D01*
X32799Y-2617315D01*
X26260Y-2556480D01*
X53139Y-2506831D01*
X1421918Y-1138052D01*
X1476433Y-1110277D01*
X1535400Y-1119117D01*
X1548604Y-1125572D01*
X1548605Y-1125572D01*
X1548607Y-1125573D01*
X1616740Y-1135500D01*
X1616743Y-1135500D01*
X3333257Y-1135500D01*
X3333260Y-1135500D01*
X3401393Y-1125573D01*
X3506483Y-1074198D01*
X3589198Y-991483D01*
X3589200Y-991477D01*
X3593965Y-984806D01*
X3595198Y-985686D01*
X3631334Y-948331D01*
X3691599Y-937757D01*
X3746569Y-964626D01*
X3773782Y-1015910D01*
X3773813Y-1015902D01*
X3773856Y-1016049D01*
X3775248Y-1018673D01*
X3775886Y-1022829D01*
X3775919Y-1023078D01*
X3775932Y-1023175D01*
X3825933Y-1130401D01*
X3825934Y-1130402D01*
X3825935Y-1130404D01*
X3909596Y-1214065D01*
X3909597Y-1214065D01*
X3909598Y-1214066D01*
X4016824Y-1264067D01*
X4016825Y-1264067D01*
X4016827Y-1264068D01*
X4065684Y-1270500D01*
X4065685Y-1270500D01*
X4414314Y-1270500D01*
X4414316Y-1270500D01*
X4463173Y-1264068D01*
X4474859Y-1258618D01*
X4535584Y-1251160D01*
X4589099Y-1280821D01*
X4601912Y-1297947D01*
X4619263Y-1327287D01*
X4732714Y-1440738D01*
X4870804Y-1522404D01*
X5009999Y-1562844D01*
X5010000Y-1562844D01*
X5010000Y1562844D01*
X5009999Y1562844D01*
X4870804Y1522404D01*
X4870803Y1522404D01*
X4732714Y1440738D01*
X4651643Y1359667D01*
X4597126Y1331890D01*
X4536694Y1341461D01*
X4493429Y1384726D01*
X4483858Y1445158D01*
X4486013Y1455295D01*
X4488829Y1465801D01*
X4496622Y1494887D01*
X4496622Y1626671D01*
X4462514Y1753965D01*
X4441651Y1790100D01*
X4396625Y1868088D01*
X4396624Y1868088D01*
X4396622Y1868093D01*
X4303436Y1961279D01*
X4189311Y2027169D01*
X4189310Y2027169D01*
X4189308Y2027171D01*
X4062014Y2061279D01*
X3961599Y2061279D01*
X3957455Y2062625D01*
X3953213Y2061635D01*
X3936281Y2069504D01*
X3903408Y2080186D01*
X3896833Y2085403D01*
X3894132Y2087739D01*
X3836412Y2145460D01*
X3817475Y2156393D01*
X3767890Y2185021D01*
X3691463Y2205500D01*
X3678365Y2205500D01*
X3620174Y2224407D01*
X3594389Y2255108D01*
X3593965Y2254806D01*
X3590115Y2260197D01*
X3589423Y2261022D01*
X3589198Y2261483D01*
X3506483Y2344198D01*
X3401393Y2395573D01*
X3333260Y2405500D01*
X1616740Y2405500D01*
X1548607Y2395573D01*
X1548605Y2395572D01*
X1548604Y2395572D01*
X1497285Y2370483D01*
X1443517Y2344198D01*
X1360802Y2261483D01*
X1360801Y2261481D01*
X1309427Y2156395D01*
X1309224Y2155000D01*
X1299500Y2088260D01*
X1299500Y2088256D01*
X1299500Y1721743D01*
X1309427Y1653604D01*
X1360801Y1548518D01*
X1443518Y1465801D01*
X1548604Y1414427D01*
X1582673Y1409463D01*
X1616740Y1404500D01*
X1616743Y1404500D01*
X3333257Y1404500D01*
X3333260Y1404500D01*
X3401393Y1414427D01*
X3401399Y1414428D01*
X3408742Y1416697D01*
X3409209Y1415183D01*
X3415416Y1419197D01*
X3436786Y1418036D01*
X3457982Y1421030D01*
X3466679Y1416412D01*
X3476511Y1415879D01*
X3490932Y1403538D01*
X3512025Y1392342D01*
X3523988Y1377284D01*
X3529358Y1368980D01*
X3529730Y1367593D01*
X3595622Y1253465D01*
X3619519Y1229567D01*
X3625224Y1220747D01*
X3630519Y1200834D01*
X3639876Y1182470D01*
X3638206Y1171928D01*
X3640948Y1161617D01*
X3633527Y1142394D01*
X3630303Y1122038D01*
X3622756Y1114492D01*
X3618914Y1104537D01*
X3601609Y1093346D01*
X3587037Y1078774D01*
X3576496Y1077104D01*
X3567536Y1071310D01*
X3546960Y1072427D01*
X3526605Y1069204D01*
X3510052Y1074431D01*
X3506441Y1074628D01*
X3504540Y1076172D01*
X3498615Y1078044D01*
X3401393Y1125573D01*
X3333260Y1135500D01*
X1616740Y1135500D01*
X1548607Y1125573D01*
X1548605Y1125572D01*
X1548604Y1125572D01*
X1525940Y1114492D01*
X1443517Y1074198D01*
X1360802Y991483D01*
X1360801Y991481D01*
X1309427Y886395D01*
X1309427Y886393D01*
X1299500Y818260D01*
X1299500Y818256D01*
X1299500Y535479D01*
X1280593Y477288D01*
X1270504Y465475D01*
X-1130496Y-1935525D01*
X-1185013Y-1963302D01*
X-1245445Y-1953731D01*
X-1288710Y-1910466D01*
X-1299500Y-1865521D01*
X-1299500Y-1721743D01*
X-1302677Y-1699939D01*
X-1309427Y-1653607D01*
X-1309427Y-1653604D01*
X-1360801Y-1548518D01*
X-1443518Y-1465801D01*
X-1548604Y-1414427D01*
X-1582673Y-1409463D01*
X-1616740Y-1404500D01*
X-3333260Y-1404500D01*
X-3374139Y-1410456D01*
X-3401395Y-1414427D01*
X-3506481Y-1465801D01*
X-3506483Y-1465802D01*
X-3589198Y-1548517D01*
X-3626646Y-1625119D01*
X-3636559Y-1645396D01*
X-3679103Y-1689370D01*
X-3739368Y-1699939D01*
X-3794337Y-1673066D01*
X-3823012Y-1619016D01*
X-3824500Y-1601915D01*
X-3824500Y-1395725D01*
X-3827353Y-1365305D01*
X-3827355Y-1365296D01*
X-3872207Y-1237116D01*
X-3952845Y-1127855D01*
X-3952855Y-1127845D01*
X-4062116Y-1047207D01*
X-4190296Y-1002355D01*
X-4190305Y-1002353D01*
X-4220725Y-999500D01*
X-4220734Y-999500D01*
X-5279266Y-999500D01*
X-5279274Y-999500D01*
X-5309694Y-1002353D01*
X-5309703Y-1002355D01*
X-5437883Y-1047207D01*
X-5547144Y-1127845D01*
X-5547146Y-1127847D01*
X-5547150Y-1127850D01*
X-5547152Y-1127853D01*
X-5547154Y-1127855D01*
X-5570845Y-1159955D01*
X-5620613Y-1195548D01*
X-5681796Y-1195090D01*
X-5731026Y-1158757D01*
X-5749500Y-1101167D01*
X-5749500Y-785061D01*
X-5730593Y-726870D01*
X-5681093Y-690906D01*
X-5619907Y-690906D01*
X-5598527Y-700801D01*
X-5544125Y-734356D01*
X-5377693Y-789506D01*
X-5274986Y-799999D01*
X-5000001Y-799999D01*
X-5000000Y-799998D01*
X-5000000Y101000D01*
X-4981093Y159191D01*
X-4931593Y195155D01*
X-4901000Y200000D01*
X-4599000Y200000D01*
X-4540809Y181093D01*
X-4504845Y131593D01*
X-4500000Y101000D01*
X-4500000Y-799998D01*
X-4499999Y-799999D01*
X-4225013Y-799999D01*
X-4122312Y-789507D01*
X-4122300Y-789504D01*
X-3955875Y-734356D01*
X-3801748Y-639290D01*
X-3800228Y-641753D01*
X-3753700Y-624421D01*
X-3694759Y-640843D01*
X-3656728Y-688773D01*
X-3650500Y-723332D01*
X-3650500Y-818260D01*
X-3640573Y-886393D01*
X-3589198Y-991483D01*
X-3506483Y-1074198D01*
X-3401393Y-1125573D01*
X-3333260Y-1135500D01*
X-3333257Y-1135500D01*
X-1616743Y-1135500D01*
X-1616740Y-1135500D01*
X-1548607Y-1125573D01*
X-1548605Y-1125572D01*
X-1548604Y-1125572D01*
X-1471899Y-1088073D01*
X-1443517Y-1074198D01*
X-1360802Y-991483D01*
X-1357538Y-984806D01*
X-1309427Y-886395D01*
X-1306118Y-863682D01*
X-1299500Y-818260D01*
X-1299500Y-451740D01*
X-1309427Y-383607D01*
X-1309427Y-383604D01*
X-1360801Y-278518D01*
X-1360803Y-278515D01*
X-1383277Y-256041D01*
X-1411053Y-201524D01*
X-1401481Y-141092D01*
X-1363667Y-100825D01*
X-1248445Y-32683D01*
X-1132314Y83447D01*
X-1048719Y224798D01*
X-1048719Y224799D01*
X-1002901Y382506D01*
X-1002899Y382513D01*
X-1002704Y385000D01*
X-2376000Y385000D01*
X-2434191Y403907D01*
X-2470155Y453407D01*
X-2475000Y484000D01*
X-2475000Y634999D01*
X-2475001Y635000D01*
X-2626000Y635000D01*
X-2684191Y653907D01*
X-2720155Y703407D01*
X-2725000Y734000D01*
X-2725000Y1654999D01*
X-2225000Y1654999D01*
X-2225000Y885001D01*
X-2224999Y885000D01*
X-1002704Y885000D01*
X-1002899Y887486D01*
X-1002901Y887493D01*
X-1048719Y1045200D01*
X-1048719Y1045201D01*
X-1132314Y1186552D01*
X-1145759Y1199998D01*
X-1173535Y1254516D01*
X-1163961Y1314948D01*
X-1145759Y1340002D01*
X-1132314Y1353447D01*
X-1048719Y1494798D01*
X-1048719Y1494799D01*
X-1002901Y1652506D01*
X-1002899Y1652513D01*
X-1002704Y1655000D01*
X-2224999Y1655000D01*
X-2225000Y1654999D01*
X-2725000Y1654999D01*
X-2725001Y1655000D01*
X-3956000Y1655000D01*
X-4014191Y1673907D01*
X-4050155Y1723407D01*
X-4054247Y1749246D01*
X-4055001Y1750000D01*
X-4171000Y1750000D01*
X-4229191Y1768907D01*
X-4265155Y1818407D01*
X-4270000Y1849000D01*
X-4270000Y2151000D01*
X-4251093Y2209191D01*
X-4201593Y2245155D01*
X-4171000Y2250000D01*
X-3484000Y2250000D01*
X-3425809Y2231093D01*
X-3389845Y2181593D01*
X-3385752Y2155753D01*
X-3384999Y2155000D01*
X-1002704Y2155000D01*
X-1002899Y2157486D01*
X-1002901Y2157493D01*
X-1048719Y2315200D01*
X-1048719Y2315201D01*
X-1132314Y2456552D01*
X-1252849Y2577087D01*
X-1251860Y2578075D01*
X-1282309Y2622878D01*
X-1280388Y2684034D01*
X-1242888Y2732380D01*
X-1187240Y2749500D01*
X5650500Y2749500D01*
X5708691Y2730593D01*
G37*
%TD.AperFunction*%
%TD*%
M02*
