%TF.GenerationSoftware,KiCad,Pcbnew,9.0.3*%
%TF.CreationDate,2026-09-12T02:00:34-04:00*%
%TF.ProjectId,Microcoder-panel,4d696372-6f63-46f6-9465-722d70616e65,rev?*%
%TF.SameCoordinates,Original*%
%TF.FileFunction,Legend,Top*%
%TF.FilePolarity,Positive*%
%FSLAX46Y46*%
G04 Gerber Fmt 4.6, Leading zero omitted, Abs format (unit mm)*
G04 Created by KiCad (PCBNEW 9.0.3) date 2026-09-12 02:00:34*
%MOMM*%
%LPD*%
G01*
G04 APERTURE LIST*
%ADD10C,0.150000*%
%ADD11C,0.120000*%
%ADD12C,0.508000*%
%ADD13C,0.152400*%
%ADD14C,0.100000*%
G04 APERTURE END LIST*
D10*
X12714285Y-31403319D02*
X12714285Y-32117604D01*
X12714285Y-32117604D02*
X12666666Y-32260461D01*
X12666666Y-32260461D02*
X12571428Y-32355700D01*
X12571428Y-32355700D02*
X12428571Y-32403319D01*
X12428571Y-32403319D02*
X12333333Y-32403319D01*
X13714285Y-32403319D02*
X13142857Y-32403319D01*
X13428571Y-32403319D02*
X13428571Y-31403319D01*
X13428571Y-31403319D02*
X13333333Y-31546176D01*
X13333333Y-31546176D02*
X13238095Y-31641414D01*
X13238095Y-31641414D02*
X13142857Y-31689033D01*
X14095238Y-31498557D02*
X14142857Y-31450938D01*
X14142857Y-31450938D02*
X14238095Y-31403319D01*
X14238095Y-31403319D02*
X14476190Y-31403319D01*
X14476190Y-31403319D02*
X14571428Y-31450938D01*
X14571428Y-31450938D02*
X14619047Y-31498557D01*
X14619047Y-31498557D02*
X14666666Y-31593795D01*
X14666666Y-31593795D02*
X14666666Y-31689033D01*
X14666666Y-31689033D02*
X14619047Y-31831890D01*
X14619047Y-31831890D02*
X14047619Y-32403319D01*
X14047619Y-32403319D02*
X14666666Y-32403319D01*
X15571428Y-31403319D02*
X15095238Y-31403319D01*
X15095238Y-31403319D02*
X15047619Y-31879509D01*
X15047619Y-31879509D02*
X15095238Y-31831890D01*
X15095238Y-31831890D02*
X15190476Y-31784271D01*
X15190476Y-31784271D02*
X15428571Y-31784271D01*
X15428571Y-31784271D02*
X15523809Y-31831890D01*
X15523809Y-31831890D02*
X15571428Y-31879509D01*
X15571428Y-31879509D02*
X15619047Y-31974747D01*
X15619047Y-31974747D02*
X15619047Y-32212842D01*
X15619047Y-32212842D02*
X15571428Y-32308080D01*
X15571428Y-32308080D02*
X15523809Y-32355700D01*
X15523809Y-32355700D02*
X15428571Y-32403319D01*
X15428571Y-32403319D02*
X15190476Y-32403319D01*
X15190476Y-32403319D02*
X15095238Y-32355700D01*
X15095238Y-32355700D02*
X15047619Y-32308080D01*
X-1285714Y-31403319D02*
X-1285714Y-32117604D01*
X-1285714Y-32117604D02*
X-1333333Y-32260461D01*
X-1333333Y-32260461D02*
X-1428571Y-32355700D01*
X-1428571Y-32355700D02*
X-1571428Y-32403319D01*
X-1571428Y-32403319D02*
X-1666666Y-32403319D01*
X-285714Y-32403319D02*
X-857142Y-32403319D01*
X-571428Y-32403319D02*
X-571428Y-31403319D01*
X-571428Y-31403319D02*
X-666666Y-31546176D01*
X-666666Y-31546176D02*
X-761904Y-31641414D01*
X-761904Y-31641414D02*
X-857142Y-31689033D01*
X95238Y-31498557D02*
X142857Y-31450938D01*
X142857Y-31450938D02*
X238095Y-31403319D01*
X238095Y-31403319D02*
X476190Y-31403319D01*
X476190Y-31403319D02*
X571428Y-31450938D01*
X571428Y-31450938D02*
X619047Y-31498557D01*
X619047Y-31498557D02*
X666666Y-31593795D01*
X666666Y-31593795D02*
X666666Y-31689033D01*
X666666Y-31689033D02*
X619047Y-31831890D01*
X619047Y-31831890D02*
X47619Y-32403319D01*
X47619Y-32403319D02*
X666666Y-32403319D01*
X1523809Y-31736652D02*
X1523809Y-32403319D01*
X1285714Y-31355700D02*
X1047619Y-32069985D01*
X1047619Y-32069985D02*
X1666666Y-32069985D01*
X-15285714Y-31403319D02*
X-15285714Y-32117604D01*
X-15285714Y-32117604D02*
X-15333333Y-32260461D01*
X-15333333Y-32260461D02*
X-15428571Y-32355700D01*
X-15428571Y-32355700D02*
X-15571428Y-32403319D01*
X-15571428Y-32403319D02*
X-15666666Y-32403319D01*
X-14285714Y-32403319D02*
X-14857142Y-32403319D01*
X-14571428Y-32403319D02*
X-14571428Y-31403319D01*
X-14571428Y-31403319D02*
X-14666666Y-31546176D01*
X-14666666Y-31546176D02*
X-14761904Y-31641414D01*
X-14761904Y-31641414D02*
X-14857142Y-31689033D01*
X-13904761Y-31498557D02*
X-13857142Y-31450938D01*
X-13857142Y-31450938D02*
X-13761904Y-31403319D01*
X-13761904Y-31403319D02*
X-13523809Y-31403319D01*
X-13523809Y-31403319D02*
X-13428571Y-31450938D01*
X-13428571Y-31450938D02*
X-13380952Y-31498557D01*
X-13380952Y-31498557D02*
X-13333333Y-31593795D01*
X-13333333Y-31593795D02*
X-13333333Y-31689033D01*
X-13333333Y-31689033D02*
X-13380952Y-31831890D01*
X-13380952Y-31831890D02*
X-13952380Y-32403319D01*
X-13952380Y-32403319D02*
X-13333333Y-32403319D01*
X-12999999Y-31403319D02*
X-12380952Y-31403319D01*
X-12380952Y-31403319D02*
X-12714285Y-31784271D01*
X-12714285Y-31784271D02*
X-12571428Y-31784271D01*
X-12571428Y-31784271D02*
X-12476190Y-31831890D01*
X-12476190Y-31831890D02*
X-12428571Y-31879509D01*
X-12428571Y-31879509D02*
X-12380952Y-31974747D01*
X-12380952Y-31974747D02*
X-12380952Y-32212842D01*
X-12380952Y-32212842D02*
X-12428571Y-32308080D01*
X-12428571Y-32308080D02*
X-12476190Y-32355700D01*
X-12476190Y-32355700D02*
X-12571428Y-32403319D01*
X-12571428Y-32403319D02*
X-12857142Y-32403319D01*
X-12857142Y-32403319D02*
X-12952380Y-32355700D01*
X-12952380Y-32355700D02*
X-12999999Y-32308080D01*
X-29285714Y-31403319D02*
X-29285714Y-32117604D01*
X-29285714Y-32117604D02*
X-29333333Y-32260461D01*
X-29333333Y-32260461D02*
X-29428571Y-32355700D01*
X-29428571Y-32355700D02*
X-29571428Y-32403319D01*
X-29571428Y-32403319D02*
X-29666666Y-32403319D01*
X-28285714Y-32403319D02*
X-28857142Y-32403319D01*
X-28571428Y-32403319D02*
X-28571428Y-31403319D01*
X-28571428Y-31403319D02*
X-28666666Y-31546176D01*
X-28666666Y-31546176D02*
X-28761904Y-31641414D01*
X-28761904Y-31641414D02*
X-28857142Y-31689033D01*
X-27904761Y-31498557D02*
X-27857142Y-31450938D01*
X-27857142Y-31450938D02*
X-27761904Y-31403319D01*
X-27761904Y-31403319D02*
X-27523809Y-31403319D01*
X-27523809Y-31403319D02*
X-27428571Y-31450938D01*
X-27428571Y-31450938D02*
X-27380952Y-31498557D01*
X-27380952Y-31498557D02*
X-27333333Y-31593795D01*
X-27333333Y-31593795D02*
X-27333333Y-31689033D01*
X-27333333Y-31689033D02*
X-27380952Y-31831890D01*
X-27380952Y-31831890D02*
X-27952380Y-32403319D01*
X-27952380Y-32403319D02*
X-27333333Y-32403319D01*
X-26952380Y-31498557D02*
X-26904761Y-31450938D01*
X-26904761Y-31450938D02*
X-26809523Y-31403319D01*
X-26809523Y-31403319D02*
X-26571428Y-31403319D01*
X-26571428Y-31403319D02*
X-26476190Y-31450938D01*
X-26476190Y-31450938D02*
X-26428571Y-31498557D01*
X-26428571Y-31498557D02*
X-26380952Y-31593795D01*
X-26380952Y-31593795D02*
X-26380952Y-31689033D01*
X-26380952Y-31689033D02*
X-26428571Y-31831890D01*
X-26428571Y-31831890D02*
X-26999999Y-32403319D01*
X-26999999Y-32403319D02*
X-26380952Y-32403319D01*
X26714285Y-17403319D02*
X26714285Y-18117604D01*
X26714285Y-18117604D02*
X26666666Y-18260461D01*
X26666666Y-18260461D02*
X26571428Y-18355700D01*
X26571428Y-18355700D02*
X26428571Y-18403319D01*
X26428571Y-18403319D02*
X26333333Y-18403319D01*
X27714285Y-18403319D02*
X27142857Y-18403319D01*
X27428571Y-18403319D02*
X27428571Y-17403319D01*
X27428571Y-17403319D02*
X27333333Y-17546176D01*
X27333333Y-17546176D02*
X27238095Y-17641414D01*
X27238095Y-17641414D02*
X27142857Y-17689033D01*
X28095238Y-17498557D02*
X28142857Y-17450938D01*
X28142857Y-17450938D02*
X28238095Y-17403319D01*
X28238095Y-17403319D02*
X28476190Y-17403319D01*
X28476190Y-17403319D02*
X28571428Y-17450938D01*
X28571428Y-17450938D02*
X28619047Y-17498557D01*
X28619047Y-17498557D02*
X28666666Y-17593795D01*
X28666666Y-17593795D02*
X28666666Y-17689033D01*
X28666666Y-17689033D02*
X28619047Y-17831890D01*
X28619047Y-17831890D02*
X28047619Y-18403319D01*
X28047619Y-18403319D02*
X28666666Y-18403319D01*
X29619047Y-18403319D02*
X29047619Y-18403319D01*
X29333333Y-18403319D02*
X29333333Y-17403319D01*
X29333333Y-17403319D02*
X29238095Y-17546176D01*
X29238095Y-17546176D02*
X29142857Y-17641414D01*
X29142857Y-17641414D02*
X29047619Y-17689033D01*
X12714285Y-17403319D02*
X12714285Y-18117604D01*
X12714285Y-18117604D02*
X12666666Y-18260461D01*
X12666666Y-18260461D02*
X12571428Y-18355700D01*
X12571428Y-18355700D02*
X12428571Y-18403319D01*
X12428571Y-18403319D02*
X12333333Y-18403319D01*
X13714285Y-18403319D02*
X13142857Y-18403319D01*
X13428571Y-18403319D02*
X13428571Y-17403319D01*
X13428571Y-17403319D02*
X13333333Y-17546176D01*
X13333333Y-17546176D02*
X13238095Y-17641414D01*
X13238095Y-17641414D02*
X13142857Y-17689033D01*
X14095238Y-17498557D02*
X14142857Y-17450938D01*
X14142857Y-17450938D02*
X14238095Y-17403319D01*
X14238095Y-17403319D02*
X14476190Y-17403319D01*
X14476190Y-17403319D02*
X14571428Y-17450938D01*
X14571428Y-17450938D02*
X14619047Y-17498557D01*
X14619047Y-17498557D02*
X14666666Y-17593795D01*
X14666666Y-17593795D02*
X14666666Y-17689033D01*
X14666666Y-17689033D02*
X14619047Y-17831890D01*
X14619047Y-17831890D02*
X14047619Y-18403319D01*
X14047619Y-18403319D02*
X14666666Y-18403319D01*
X15285714Y-17403319D02*
X15380952Y-17403319D01*
X15380952Y-17403319D02*
X15476190Y-17450938D01*
X15476190Y-17450938D02*
X15523809Y-17498557D01*
X15523809Y-17498557D02*
X15571428Y-17593795D01*
X15571428Y-17593795D02*
X15619047Y-17784271D01*
X15619047Y-17784271D02*
X15619047Y-18022366D01*
X15619047Y-18022366D02*
X15571428Y-18212842D01*
X15571428Y-18212842D02*
X15523809Y-18308080D01*
X15523809Y-18308080D02*
X15476190Y-18355700D01*
X15476190Y-18355700D02*
X15380952Y-18403319D01*
X15380952Y-18403319D02*
X15285714Y-18403319D01*
X15285714Y-18403319D02*
X15190476Y-18355700D01*
X15190476Y-18355700D02*
X15142857Y-18308080D01*
X15142857Y-18308080D02*
X15095238Y-18212842D01*
X15095238Y-18212842D02*
X15047619Y-18022366D01*
X15047619Y-18022366D02*
X15047619Y-17784271D01*
X15047619Y-17784271D02*
X15095238Y-17593795D01*
X15095238Y-17593795D02*
X15142857Y-17498557D01*
X15142857Y-17498557D02*
X15190476Y-17450938D01*
X15190476Y-17450938D02*
X15285714Y-17403319D01*
X-1285714Y-17403319D02*
X-1285714Y-18117604D01*
X-1285714Y-18117604D02*
X-1333333Y-18260461D01*
X-1333333Y-18260461D02*
X-1428571Y-18355700D01*
X-1428571Y-18355700D02*
X-1571428Y-18403319D01*
X-1571428Y-18403319D02*
X-1666666Y-18403319D01*
X-285714Y-18403319D02*
X-857142Y-18403319D01*
X-571428Y-18403319D02*
X-571428Y-17403319D01*
X-571428Y-17403319D02*
X-666666Y-17546176D01*
X-666666Y-17546176D02*
X-761904Y-17641414D01*
X-761904Y-17641414D02*
X-857142Y-17689033D01*
X666666Y-18403319D02*
X95238Y-18403319D01*
X380952Y-18403319D02*
X380952Y-17403319D01*
X380952Y-17403319D02*
X285714Y-17546176D01*
X285714Y-17546176D02*
X190476Y-17641414D01*
X190476Y-17641414D02*
X95238Y-17689033D01*
X1142857Y-18403319D02*
X1333333Y-18403319D01*
X1333333Y-18403319D02*
X1428571Y-18355700D01*
X1428571Y-18355700D02*
X1476190Y-18308080D01*
X1476190Y-18308080D02*
X1571428Y-18165223D01*
X1571428Y-18165223D02*
X1619047Y-17974747D01*
X1619047Y-17974747D02*
X1619047Y-17593795D01*
X1619047Y-17593795D02*
X1571428Y-17498557D01*
X1571428Y-17498557D02*
X1523809Y-17450938D01*
X1523809Y-17450938D02*
X1428571Y-17403319D01*
X1428571Y-17403319D02*
X1238095Y-17403319D01*
X1238095Y-17403319D02*
X1142857Y-17450938D01*
X1142857Y-17450938D02*
X1095238Y-17498557D01*
X1095238Y-17498557D02*
X1047619Y-17593795D01*
X1047619Y-17593795D02*
X1047619Y-17831890D01*
X1047619Y-17831890D02*
X1095238Y-17927128D01*
X1095238Y-17927128D02*
X1142857Y-17974747D01*
X1142857Y-17974747D02*
X1238095Y-18022366D01*
X1238095Y-18022366D02*
X1428571Y-18022366D01*
X1428571Y-18022366D02*
X1523809Y-17974747D01*
X1523809Y-17974747D02*
X1571428Y-17927128D01*
X1571428Y-17927128D02*
X1619047Y-17831890D01*
X-15285714Y-17403319D02*
X-15285714Y-18117604D01*
X-15285714Y-18117604D02*
X-15333333Y-18260461D01*
X-15333333Y-18260461D02*
X-15428571Y-18355700D01*
X-15428571Y-18355700D02*
X-15571428Y-18403319D01*
X-15571428Y-18403319D02*
X-15666666Y-18403319D01*
X-14285714Y-18403319D02*
X-14857142Y-18403319D01*
X-14571428Y-18403319D02*
X-14571428Y-17403319D01*
X-14571428Y-17403319D02*
X-14666666Y-17546176D01*
X-14666666Y-17546176D02*
X-14761904Y-17641414D01*
X-14761904Y-17641414D02*
X-14857142Y-17689033D01*
X-13333333Y-18403319D02*
X-13904761Y-18403319D01*
X-13619047Y-18403319D02*
X-13619047Y-17403319D01*
X-13619047Y-17403319D02*
X-13714285Y-17546176D01*
X-13714285Y-17546176D02*
X-13809523Y-17641414D01*
X-13809523Y-17641414D02*
X-13904761Y-17689033D01*
X-12761904Y-17831890D02*
X-12857142Y-17784271D01*
X-12857142Y-17784271D02*
X-12904761Y-17736652D01*
X-12904761Y-17736652D02*
X-12952380Y-17641414D01*
X-12952380Y-17641414D02*
X-12952380Y-17593795D01*
X-12952380Y-17593795D02*
X-12904761Y-17498557D01*
X-12904761Y-17498557D02*
X-12857142Y-17450938D01*
X-12857142Y-17450938D02*
X-12761904Y-17403319D01*
X-12761904Y-17403319D02*
X-12571428Y-17403319D01*
X-12571428Y-17403319D02*
X-12476190Y-17450938D01*
X-12476190Y-17450938D02*
X-12428571Y-17498557D01*
X-12428571Y-17498557D02*
X-12380952Y-17593795D01*
X-12380952Y-17593795D02*
X-12380952Y-17641414D01*
X-12380952Y-17641414D02*
X-12428571Y-17736652D01*
X-12428571Y-17736652D02*
X-12476190Y-17784271D01*
X-12476190Y-17784271D02*
X-12571428Y-17831890D01*
X-12571428Y-17831890D02*
X-12761904Y-17831890D01*
X-12761904Y-17831890D02*
X-12857142Y-17879509D01*
X-12857142Y-17879509D02*
X-12904761Y-17927128D01*
X-12904761Y-17927128D02*
X-12952380Y-18022366D01*
X-12952380Y-18022366D02*
X-12952380Y-18212842D01*
X-12952380Y-18212842D02*
X-12904761Y-18308080D01*
X-12904761Y-18308080D02*
X-12857142Y-18355700D01*
X-12857142Y-18355700D02*
X-12761904Y-18403319D01*
X-12761904Y-18403319D02*
X-12571428Y-18403319D01*
X-12571428Y-18403319D02*
X-12476190Y-18355700D01*
X-12476190Y-18355700D02*
X-12428571Y-18308080D01*
X-12428571Y-18308080D02*
X-12380952Y-18212842D01*
X-12380952Y-18212842D02*
X-12380952Y-18022366D01*
X-12380952Y-18022366D02*
X-12428571Y-17927128D01*
X-12428571Y-17927128D02*
X-12476190Y-17879509D01*
X-12476190Y-17879509D02*
X-12571428Y-17831890D01*
X-29285714Y-17403319D02*
X-29285714Y-18117604D01*
X-29285714Y-18117604D02*
X-29333333Y-18260461D01*
X-29333333Y-18260461D02*
X-29428571Y-18355700D01*
X-29428571Y-18355700D02*
X-29571428Y-18403319D01*
X-29571428Y-18403319D02*
X-29666666Y-18403319D01*
X-28285714Y-18403319D02*
X-28857142Y-18403319D01*
X-28571428Y-18403319D02*
X-28571428Y-17403319D01*
X-28571428Y-17403319D02*
X-28666666Y-17546176D01*
X-28666666Y-17546176D02*
X-28761904Y-17641414D01*
X-28761904Y-17641414D02*
X-28857142Y-17689033D01*
X-27333333Y-18403319D02*
X-27904761Y-18403319D01*
X-27619047Y-18403319D02*
X-27619047Y-17403319D01*
X-27619047Y-17403319D02*
X-27714285Y-17546176D01*
X-27714285Y-17546176D02*
X-27809523Y-17641414D01*
X-27809523Y-17641414D02*
X-27904761Y-17689033D01*
X-26999999Y-17403319D02*
X-26333333Y-17403319D01*
X-26333333Y-17403319D02*
X-26761904Y-18403319D01*
X26714285Y-3403319D02*
X26714285Y-4117604D01*
X26714285Y-4117604D02*
X26666666Y-4260461D01*
X26666666Y-4260461D02*
X26571428Y-4355700D01*
X26571428Y-4355700D02*
X26428571Y-4403319D01*
X26428571Y-4403319D02*
X26333333Y-4403319D01*
X27714285Y-4403319D02*
X27142857Y-4403319D01*
X27428571Y-4403319D02*
X27428571Y-3403319D01*
X27428571Y-3403319D02*
X27333333Y-3546176D01*
X27333333Y-3546176D02*
X27238095Y-3641414D01*
X27238095Y-3641414D02*
X27142857Y-3689033D01*
X28666666Y-4403319D02*
X28095238Y-4403319D01*
X28380952Y-4403319D02*
X28380952Y-3403319D01*
X28380952Y-3403319D02*
X28285714Y-3546176D01*
X28285714Y-3546176D02*
X28190476Y-3641414D01*
X28190476Y-3641414D02*
X28095238Y-3689033D01*
X29523809Y-3403319D02*
X29333333Y-3403319D01*
X29333333Y-3403319D02*
X29238095Y-3450938D01*
X29238095Y-3450938D02*
X29190476Y-3498557D01*
X29190476Y-3498557D02*
X29095238Y-3641414D01*
X29095238Y-3641414D02*
X29047619Y-3831890D01*
X29047619Y-3831890D02*
X29047619Y-4212842D01*
X29047619Y-4212842D02*
X29095238Y-4308080D01*
X29095238Y-4308080D02*
X29142857Y-4355700D01*
X29142857Y-4355700D02*
X29238095Y-4403319D01*
X29238095Y-4403319D02*
X29428571Y-4403319D01*
X29428571Y-4403319D02*
X29523809Y-4355700D01*
X29523809Y-4355700D02*
X29571428Y-4308080D01*
X29571428Y-4308080D02*
X29619047Y-4212842D01*
X29619047Y-4212842D02*
X29619047Y-3974747D01*
X29619047Y-3974747D02*
X29571428Y-3879509D01*
X29571428Y-3879509D02*
X29523809Y-3831890D01*
X29523809Y-3831890D02*
X29428571Y-3784271D01*
X29428571Y-3784271D02*
X29238095Y-3784271D01*
X29238095Y-3784271D02*
X29142857Y-3831890D01*
X29142857Y-3831890D02*
X29095238Y-3879509D01*
X29095238Y-3879509D02*
X29047619Y-3974747D01*
X12714285Y-3403319D02*
X12714285Y-4117604D01*
X12714285Y-4117604D02*
X12666666Y-4260461D01*
X12666666Y-4260461D02*
X12571428Y-4355700D01*
X12571428Y-4355700D02*
X12428571Y-4403319D01*
X12428571Y-4403319D02*
X12333333Y-4403319D01*
X13714285Y-4403319D02*
X13142857Y-4403319D01*
X13428571Y-4403319D02*
X13428571Y-3403319D01*
X13428571Y-3403319D02*
X13333333Y-3546176D01*
X13333333Y-3546176D02*
X13238095Y-3641414D01*
X13238095Y-3641414D02*
X13142857Y-3689033D01*
X14666666Y-4403319D02*
X14095238Y-4403319D01*
X14380952Y-4403319D02*
X14380952Y-3403319D01*
X14380952Y-3403319D02*
X14285714Y-3546176D01*
X14285714Y-3546176D02*
X14190476Y-3641414D01*
X14190476Y-3641414D02*
X14095238Y-3689033D01*
X15571428Y-3403319D02*
X15095238Y-3403319D01*
X15095238Y-3403319D02*
X15047619Y-3879509D01*
X15047619Y-3879509D02*
X15095238Y-3831890D01*
X15095238Y-3831890D02*
X15190476Y-3784271D01*
X15190476Y-3784271D02*
X15428571Y-3784271D01*
X15428571Y-3784271D02*
X15523809Y-3831890D01*
X15523809Y-3831890D02*
X15571428Y-3879509D01*
X15571428Y-3879509D02*
X15619047Y-3974747D01*
X15619047Y-3974747D02*
X15619047Y-4212842D01*
X15619047Y-4212842D02*
X15571428Y-4308080D01*
X15571428Y-4308080D02*
X15523809Y-4355700D01*
X15523809Y-4355700D02*
X15428571Y-4403319D01*
X15428571Y-4403319D02*
X15190476Y-4403319D01*
X15190476Y-4403319D02*
X15095238Y-4355700D01*
X15095238Y-4355700D02*
X15047619Y-4308080D01*
X-1285714Y-3403319D02*
X-1285714Y-4117604D01*
X-1285714Y-4117604D02*
X-1333333Y-4260461D01*
X-1333333Y-4260461D02*
X-1428571Y-4355700D01*
X-1428571Y-4355700D02*
X-1571428Y-4403319D01*
X-1571428Y-4403319D02*
X-1666666Y-4403319D01*
X-285714Y-4403319D02*
X-857142Y-4403319D01*
X-571428Y-4403319D02*
X-571428Y-3403319D01*
X-571428Y-3403319D02*
X-666666Y-3546176D01*
X-666666Y-3546176D02*
X-761904Y-3641414D01*
X-761904Y-3641414D02*
X-857142Y-3689033D01*
X666666Y-4403319D02*
X95238Y-4403319D01*
X380952Y-4403319D02*
X380952Y-3403319D01*
X380952Y-3403319D02*
X285714Y-3546176D01*
X285714Y-3546176D02*
X190476Y-3641414D01*
X190476Y-3641414D02*
X95238Y-3689033D01*
X1523809Y-3736652D02*
X1523809Y-4403319D01*
X1285714Y-3355700D02*
X1047619Y-4069985D01*
X1047619Y-4069985D02*
X1666666Y-4069985D01*
X-15285714Y-3403319D02*
X-15285714Y-4117604D01*
X-15285714Y-4117604D02*
X-15333333Y-4260461D01*
X-15333333Y-4260461D02*
X-15428571Y-4355700D01*
X-15428571Y-4355700D02*
X-15571428Y-4403319D01*
X-15571428Y-4403319D02*
X-15666666Y-4403319D01*
X-14285714Y-4403319D02*
X-14857142Y-4403319D01*
X-14571428Y-4403319D02*
X-14571428Y-3403319D01*
X-14571428Y-3403319D02*
X-14666666Y-3546176D01*
X-14666666Y-3546176D02*
X-14761904Y-3641414D01*
X-14761904Y-3641414D02*
X-14857142Y-3689033D01*
X-13333333Y-4403319D02*
X-13904761Y-4403319D01*
X-13619047Y-4403319D02*
X-13619047Y-3403319D01*
X-13619047Y-3403319D02*
X-13714285Y-3546176D01*
X-13714285Y-3546176D02*
X-13809523Y-3641414D01*
X-13809523Y-3641414D02*
X-13904761Y-3689033D01*
X-12999999Y-3403319D02*
X-12380952Y-3403319D01*
X-12380952Y-3403319D02*
X-12714285Y-3784271D01*
X-12714285Y-3784271D02*
X-12571428Y-3784271D01*
X-12571428Y-3784271D02*
X-12476190Y-3831890D01*
X-12476190Y-3831890D02*
X-12428571Y-3879509D01*
X-12428571Y-3879509D02*
X-12380952Y-3974747D01*
X-12380952Y-3974747D02*
X-12380952Y-4212842D01*
X-12380952Y-4212842D02*
X-12428571Y-4308080D01*
X-12428571Y-4308080D02*
X-12476190Y-4355700D01*
X-12476190Y-4355700D02*
X-12571428Y-4403319D01*
X-12571428Y-4403319D02*
X-12857142Y-4403319D01*
X-12857142Y-4403319D02*
X-12952380Y-4355700D01*
X-12952380Y-4355700D02*
X-12999999Y-4308080D01*
X-29285714Y-3403319D02*
X-29285714Y-4117604D01*
X-29285714Y-4117604D02*
X-29333333Y-4260461D01*
X-29333333Y-4260461D02*
X-29428571Y-4355700D01*
X-29428571Y-4355700D02*
X-29571428Y-4403319D01*
X-29571428Y-4403319D02*
X-29666666Y-4403319D01*
X-28285714Y-4403319D02*
X-28857142Y-4403319D01*
X-28571428Y-4403319D02*
X-28571428Y-3403319D01*
X-28571428Y-3403319D02*
X-28666666Y-3546176D01*
X-28666666Y-3546176D02*
X-28761904Y-3641414D01*
X-28761904Y-3641414D02*
X-28857142Y-3689033D01*
X-27333333Y-4403319D02*
X-27904761Y-4403319D01*
X-27619047Y-4403319D02*
X-27619047Y-3403319D01*
X-27619047Y-3403319D02*
X-27714285Y-3546176D01*
X-27714285Y-3546176D02*
X-27809523Y-3641414D01*
X-27809523Y-3641414D02*
X-27904761Y-3689033D01*
X-26952380Y-3498557D02*
X-26904761Y-3450938D01*
X-26904761Y-3450938D02*
X-26809523Y-3403319D01*
X-26809523Y-3403319D02*
X-26571428Y-3403319D01*
X-26571428Y-3403319D02*
X-26476190Y-3450938D01*
X-26476190Y-3450938D02*
X-26428571Y-3498557D01*
X-26428571Y-3498557D02*
X-26380952Y-3593795D01*
X-26380952Y-3593795D02*
X-26380952Y-3689033D01*
X-26380952Y-3689033D02*
X-26428571Y-3831890D01*
X-26428571Y-3831890D02*
X-26999999Y-4403319D01*
X-26999999Y-4403319D02*
X-26380952Y-4403319D01*
X26714285Y10596680D02*
X26714285Y9882395D01*
X26714285Y9882395D02*
X26666666Y9739538D01*
X26666666Y9739538D02*
X26571428Y9644300D01*
X26571428Y9644300D02*
X26428571Y9596680D01*
X26428571Y9596680D02*
X26333333Y9596680D01*
X27714285Y9596680D02*
X27142857Y9596680D01*
X27428571Y9596680D02*
X27428571Y10596680D01*
X27428571Y10596680D02*
X27333333Y10453823D01*
X27333333Y10453823D02*
X27238095Y10358585D01*
X27238095Y10358585D02*
X27142857Y10310966D01*
X28666666Y9596680D02*
X28095238Y9596680D01*
X28380952Y9596680D02*
X28380952Y10596680D01*
X28380952Y10596680D02*
X28285714Y10453823D01*
X28285714Y10453823D02*
X28190476Y10358585D01*
X28190476Y10358585D02*
X28095238Y10310966D01*
X29619047Y9596680D02*
X29047619Y9596680D01*
X29333333Y9596680D02*
X29333333Y10596680D01*
X29333333Y10596680D02*
X29238095Y10453823D01*
X29238095Y10453823D02*
X29142857Y10358585D01*
X29142857Y10358585D02*
X29047619Y10310966D01*
X12714285Y10596680D02*
X12714285Y9882395D01*
X12714285Y9882395D02*
X12666666Y9739538D01*
X12666666Y9739538D02*
X12571428Y9644300D01*
X12571428Y9644300D02*
X12428571Y9596680D01*
X12428571Y9596680D02*
X12333333Y9596680D01*
X13714285Y9596680D02*
X13142857Y9596680D01*
X13428571Y9596680D02*
X13428571Y10596680D01*
X13428571Y10596680D02*
X13333333Y10453823D01*
X13333333Y10453823D02*
X13238095Y10358585D01*
X13238095Y10358585D02*
X13142857Y10310966D01*
X14666666Y9596680D02*
X14095238Y9596680D01*
X14380952Y9596680D02*
X14380952Y10596680D01*
X14380952Y10596680D02*
X14285714Y10453823D01*
X14285714Y10453823D02*
X14190476Y10358585D01*
X14190476Y10358585D02*
X14095238Y10310966D01*
X15285714Y10596680D02*
X15380952Y10596680D01*
X15380952Y10596680D02*
X15476190Y10549061D01*
X15476190Y10549061D02*
X15523809Y10501442D01*
X15523809Y10501442D02*
X15571428Y10406204D01*
X15571428Y10406204D02*
X15619047Y10215728D01*
X15619047Y10215728D02*
X15619047Y9977633D01*
X15619047Y9977633D02*
X15571428Y9787157D01*
X15571428Y9787157D02*
X15523809Y9691919D01*
X15523809Y9691919D02*
X15476190Y9644300D01*
X15476190Y9644300D02*
X15380952Y9596680D01*
X15380952Y9596680D02*
X15285714Y9596680D01*
X15285714Y9596680D02*
X15190476Y9644300D01*
X15190476Y9644300D02*
X15142857Y9691919D01*
X15142857Y9691919D02*
X15095238Y9787157D01*
X15095238Y9787157D02*
X15047619Y9977633D01*
X15047619Y9977633D02*
X15047619Y10215728D01*
X15047619Y10215728D02*
X15095238Y10406204D01*
X15095238Y10406204D02*
X15142857Y10501442D01*
X15142857Y10501442D02*
X15190476Y10549061D01*
X15190476Y10549061D02*
X15285714Y10596680D01*
X-1285714Y10596680D02*
X-1285714Y9882395D01*
X-1285714Y9882395D02*
X-1333333Y9739538D01*
X-1333333Y9739538D02*
X-1428571Y9644300D01*
X-1428571Y9644300D02*
X-1571428Y9596680D01*
X-1571428Y9596680D02*
X-1666666Y9596680D01*
X-285714Y9596680D02*
X-857142Y9596680D01*
X-571428Y9596680D02*
X-571428Y10596680D01*
X-571428Y10596680D02*
X-666666Y10453823D01*
X-666666Y10453823D02*
X-761904Y10358585D01*
X-761904Y10358585D02*
X-857142Y10310966D01*
X333333Y10596680D02*
X428571Y10596680D01*
X428571Y10596680D02*
X523809Y10549061D01*
X523809Y10549061D02*
X571428Y10501442D01*
X571428Y10501442D02*
X619047Y10406204D01*
X619047Y10406204D02*
X666666Y10215728D01*
X666666Y10215728D02*
X666666Y9977633D01*
X666666Y9977633D02*
X619047Y9787157D01*
X619047Y9787157D02*
X571428Y9691919D01*
X571428Y9691919D02*
X523809Y9644300D01*
X523809Y9644300D02*
X428571Y9596680D01*
X428571Y9596680D02*
X333333Y9596680D01*
X333333Y9596680D02*
X238095Y9644300D01*
X238095Y9644300D02*
X190476Y9691919D01*
X190476Y9691919D02*
X142857Y9787157D01*
X142857Y9787157D02*
X95238Y9977633D01*
X95238Y9977633D02*
X95238Y10215728D01*
X95238Y10215728D02*
X142857Y10406204D01*
X142857Y10406204D02*
X190476Y10501442D01*
X190476Y10501442D02*
X238095Y10549061D01*
X238095Y10549061D02*
X333333Y10596680D01*
X1142857Y9596680D02*
X1333333Y9596680D01*
X1333333Y9596680D02*
X1428571Y9644300D01*
X1428571Y9644300D02*
X1476190Y9691919D01*
X1476190Y9691919D02*
X1571428Y9834776D01*
X1571428Y9834776D02*
X1619047Y10025252D01*
X1619047Y10025252D02*
X1619047Y10406204D01*
X1619047Y10406204D02*
X1571428Y10501442D01*
X1571428Y10501442D02*
X1523809Y10549061D01*
X1523809Y10549061D02*
X1428571Y10596680D01*
X1428571Y10596680D02*
X1238095Y10596680D01*
X1238095Y10596680D02*
X1142857Y10549061D01*
X1142857Y10549061D02*
X1095238Y10501442D01*
X1095238Y10501442D02*
X1047619Y10406204D01*
X1047619Y10406204D02*
X1047619Y10168109D01*
X1047619Y10168109D02*
X1095238Y10072871D01*
X1095238Y10072871D02*
X1142857Y10025252D01*
X1142857Y10025252D02*
X1238095Y9977633D01*
X1238095Y9977633D02*
X1428571Y9977633D01*
X1428571Y9977633D02*
X1523809Y10025252D01*
X1523809Y10025252D02*
X1571428Y10072871D01*
X1571428Y10072871D02*
X1619047Y10168109D01*
X-15285714Y10596680D02*
X-15285714Y9882395D01*
X-15285714Y9882395D02*
X-15333333Y9739538D01*
X-15333333Y9739538D02*
X-15428571Y9644300D01*
X-15428571Y9644300D02*
X-15571428Y9596680D01*
X-15571428Y9596680D02*
X-15666666Y9596680D01*
X-14285714Y9596680D02*
X-14857142Y9596680D01*
X-14571428Y9596680D02*
X-14571428Y10596680D01*
X-14571428Y10596680D02*
X-14666666Y10453823D01*
X-14666666Y10453823D02*
X-14761904Y10358585D01*
X-14761904Y10358585D02*
X-14857142Y10310966D01*
X-13666666Y10596680D02*
X-13571428Y10596680D01*
X-13571428Y10596680D02*
X-13476190Y10549061D01*
X-13476190Y10549061D02*
X-13428571Y10501442D01*
X-13428571Y10501442D02*
X-13380952Y10406204D01*
X-13380952Y10406204D02*
X-13333333Y10215728D01*
X-13333333Y10215728D02*
X-13333333Y9977633D01*
X-13333333Y9977633D02*
X-13380952Y9787157D01*
X-13380952Y9787157D02*
X-13428571Y9691919D01*
X-13428571Y9691919D02*
X-13476190Y9644300D01*
X-13476190Y9644300D02*
X-13571428Y9596680D01*
X-13571428Y9596680D02*
X-13666666Y9596680D01*
X-13666666Y9596680D02*
X-13761904Y9644300D01*
X-13761904Y9644300D02*
X-13809523Y9691919D01*
X-13809523Y9691919D02*
X-13857142Y9787157D01*
X-13857142Y9787157D02*
X-13904761Y9977633D01*
X-13904761Y9977633D02*
X-13904761Y10215728D01*
X-13904761Y10215728D02*
X-13857142Y10406204D01*
X-13857142Y10406204D02*
X-13809523Y10501442D01*
X-13809523Y10501442D02*
X-13761904Y10549061D01*
X-13761904Y10549061D02*
X-13666666Y10596680D01*
X-12761904Y10168109D02*
X-12857142Y10215728D01*
X-12857142Y10215728D02*
X-12904761Y10263347D01*
X-12904761Y10263347D02*
X-12952380Y10358585D01*
X-12952380Y10358585D02*
X-12952380Y10406204D01*
X-12952380Y10406204D02*
X-12904761Y10501442D01*
X-12904761Y10501442D02*
X-12857142Y10549061D01*
X-12857142Y10549061D02*
X-12761904Y10596680D01*
X-12761904Y10596680D02*
X-12571428Y10596680D01*
X-12571428Y10596680D02*
X-12476190Y10549061D01*
X-12476190Y10549061D02*
X-12428571Y10501442D01*
X-12428571Y10501442D02*
X-12380952Y10406204D01*
X-12380952Y10406204D02*
X-12380952Y10358585D01*
X-12380952Y10358585D02*
X-12428571Y10263347D01*
X-12428571Y10263347D02*
X-12476190Y10215728D01*
X-12476190Y10215728D02*
X-12571428Y10168109D01*
X-12571428Y10168109D02*
X-12761904Y10168109D01*
X-12761904Y10168109D02*
X-12857142Y10120490D01*
X-12857142Y10120490D02*
X-12904761Y10072871D01*
X-12904761Y10072871D02*
X-12952380Y9977633D01*
X-12952380Y9977633D02*
X-12952380Y9787157D01*
X-12952380Y9787157D02*
X-12904761Y9691919D01*
X-12904761Y9691919D02*
X-12857142Y9644300D01*
X-12857142Y9644300D02*
X-12761904Y9596680D01*
X-12761904Y9596680D02*
X-12571428Y9596680D01*
X-12571428Y9596680D02*
X-12476190Y9644300D01*
X-12476190Y9644300D02*
X-12428571Y9691919D01*
X-12428571Y9691919D02*
X-12380952Y9787157D01*
X-12380952Y9787157D02*
X-12380952Y9977633D01*
X-12380952Y9977633D02*
X-12428571Y10072871D01*
X-12428571Y10072871D02*
X-12476190Y10120490D01*
X-12476190Y10120490D02*
X-12571428Y10168109D01*
X-29285714Y10596680D02*
X-29285714Y9882395D01*
X-29285714Y9882395D02*
X-29333333Y9739538D01*
X-29333333Y9739538D02*
X-29428571Y9644300D01*
X-29428571Y9644300D02*
X-29571428Y9596680D01*
X-29571428Y9596680D02*
X-29666666Y9596680D01*
X-28285714Y9596680D02*
X-28857142Y9596680D01*
X-28571428Y9596680D02*
X-28571428Y10596680D01*
X-28571428Y10596680D02*
X-28666666Y10453823D01*
X-28666666Y10453823D02*
X-28761904Y10358585D01*
X-28761904Y10358585D02*
X-28857142Y10310966D01*
X-27666666Y10596680D02*
X-27571428Y10596680D01*
X-27571428Y10596680D02*
X-27476190Y10549061D01*
X-27476190Y10549061D02*
X-27428571Y10501442D01*
X-27428571Y10501442D02*
X-27380952Y10406204D01*
X-27380952Y10406204D02*
X-27333333Y10215728D01*
X-27333333Y10215728D02*
X-27333333Y9977633D01*
X-27333333Y9977633D02*
X-27380952Y9787157D01*
X-27380952Y9787157D02*
X-27428571Y9691919D01*
X-27428571Y9691919D02*
X-27476190Y9644300D01*
X-27476190Y9644300D02*
X-27571428Y9596680D01*
X-27571428Y9596680D02*
X-27666666Y9596680D01*
X-27666666Y9596680D02*
X-27761904Y9644300D01*
X-27761904Y9644300D02*
X-27809523Y9691919D01*
X-27809523Y9691919D02*
X-27857142Y9787157D01*
X-27857142Y9787157D02*
X-27904761Y9977633D01*
X-27904761Y9977633D02*
X-27904761Y10215728D01*
X-27904761Y10215728D02*
X-27857142Y10406204D01*
X-27857142Y10406204D02*
X-27809523Y10501442D01*
X-27809523Y10501442D02*
X-27761904Y10549061D01*
X-27761904Y10549061D02*
X-27666666Y10596680D01*
X-26999999Y10596680D02*
X-26333333Y10596680D01*
X-26333333Y10596680D02*
X-26761904Y9596680D01*
X26714285Y24596680D02*
X26714285Y23882395D01*
X26714285Y23882395D02*
X26666666Y23739538D01*
X26666666Y23739538D02*
X26571428Y23644300D01*
X26571428Y23644300D02*
X26428571Y23596680D01*
X26428571Y23596680D02*
X26333333Y23596680D01*
X27714285Y23596680D02*
X27142857Y23596680D01*
X27428571Y23596680D02*
X27428571Y24596680D01*
X27428571Y24596680D02*
X27333333Y24453823D01*
X27333333Y24453823D02*
X27238095Y24358585D01*
X27238095Y24358585D02*
X27142857Y24310966D01*
X28333333Y24596680D02*
X28428571Y24596680D01*
X28428571Y24596680D02*
X28523809Y24549061D01*
X28523809Y24549061D02*
X28571428Y24501442D01*
X28571428Y24501442D02*
X28619047Y24406204D01*
X28619047Y24406204D02*
X28666666Y24215728D01*
X28666666Y24215728D02*
X28666666Y23977633D01*
X28666666Y23977633D02*
X28619047Y23787157D01*
X28619047Y23787157D02*
X28571428Y23691919D01*
X28571428Y23691919D02*
X28523809Y23644300D01*
X28523809Y23644300D02*
X28428571Y23596680D01*
X28428571Y23596680D02*
X28333333Y23596680D01*
X28333333Y23596680D02*
X28238095Y23644300D01*
X28238095Y23644300D02*
X28190476Y23691919D01*
X28190476Y23691919D02*
X28142857Y23787157D01*
X28142857Y23787157D02*
X28095238Y23977633D01*
X28095238Y23977633D02*
X28095238Y24215728D01*
X28095238Y24215728D02*
X28142857Y24406204D01*
X28142857Y24406204D02*
X28190476Y24501442D01*
X28190476Y24501442D02*
X28238095Y24549061D01*
X28238095Y24549061D02*
X28333333Y24596680D01*
X29523809Y24596680D02*
X29333333Y24596680D01*
X29333333Y24596680D02*
X29238095Y24549061D01*
X29238095Y24549061D02*
X29190476Y24501442D01*
X29190476Y24501442D02*
X29095238Y24358585D01*
X29095238Y24358585D02*
X29047619Y24168109D01*
X29047619Y24168109D02*
X29047619Y23787157D01*
X29047619Y23787157D02*
X29095238Y23691919D01*
X29095238Y23691919D02*
X29142857Y23644300D01*
X29142857Y23644300D02*
X29238095Y23596680D01*
X29238095Y23596680D02*
X29428571Y23596680D01*
X29428571Y23596680D02*
X29523809Y23644300D01*
X29523809Y23644300D02*
X29571428Y23691919D01*
X29571428Y23691919D02*
X29619047Y23787157D01*
X29619047Y23787157D02*
X29619047Y24025252D01*
X29619047Y24025252D02*
X29571428Y24120490D01*
X29571428Y24120490D02*
X29523809Y24168109D01*
X29523809Y24168109D02*
X29428571Y24215728D01*
X29428571Y24215728D02*
X29238095Y24215728D01*
X29238095Y24215728D02*
X29142857Y24168109D01*
X29142857Y24168109D02*
X29095238Y24120490D01*
X29095238Y24120490D02*
X29047619Y24025252D01*
X12714285Y24596680D02*
X12714285Y23882395D01*
X12714285Y23882395D02*
X12666666Y23739538D01*
X12666666Y23739538D02*
X12571428Y23644300D01*
X12571428Y23644300D02*
X12428571Y23596680D01*
X12428571Y23596680D02*
X12333333Y23596680D01*
X13714285Y23596680D02*
X13142857Y23596680D01*
X13428571Y23596680D02*
X13428571Y24596680D01*
X13428571Y24596680D02*
X13333333Y24453823D01*
X13333333Y24453823D02*
X13238095Y24358585D01*
X13238095Y24358585D02*
X13142857Y24310966D01*
X14333333Y24596680D02*
X14428571Y24596680D01*
X14428571Y24596680D02*
X14523809Y24549061D01*
X14523809Y24549061D02*
X14571428Y24501442D01*
X14571428Y24501442D02*
X14619047Y24406204D01*
X14619047Y24406204D02*
X14666666Y24215728D01*
X14666666Y24215728D02*
X14666666Y23977633D01*
X14666666Y23977633D02*
X14619047Y23787157D01*
X14619047Y23787157D02*
X14571428Y23691919D01*
X14571428Y23691919D02*
X14523809Y23644300D01*
X14523809Y23644300D02*
X14428571Y23596680D01*
X14428571Y23596680D02*
X14333333Y23596680D01*
X14333333Y23596680D02*
X14238095Y23644300D01*
X14238095Y23644300D02*
X14190476Y23691919D01*
X14190476Y23691919D02*
X14142857Y23787157D01*
X14142857Y23787157D02*
X14095238Y23977633D01*
X14095238Y23977633D02*
X14095238Y24215728D01*
X14095238Y24215728D02*
X14142857Y24406204D01*
X14142857Y24406204D02*
X14190476Y24501442D01*
X14190476Y24501442D02*
X14238095Y24549061D01*
X14238095Y24549061D02*
X14333333Y24596680D01*
X15571428Y24596680D02*
X15095238Y24596680D01*
X15095238Y24596680D02*
X15047619Y24120490D01*
X15047619Y24120490D02*
X15095238Y24168109D01*
X15095238Y24168109D02*
X15190476Y24215728D01*
X15190476Y24215728D02*
X15428571Y24215728D01*
X15428571Y24215728D02*
X15523809Y24168109D01*
X15523809Y24168109D02*
X15571428Y24120490D01*
X15571428Y24120490D02*
X15619047Y24025252D01*
X15619047Y24025252D02*
X15619047Y23787157D01*
X15619047Y23787157D02*
X15571428Y23691919D01*
X15571428Y23691919D02*
X15523809Y23644300D01*
X15523809Y23644300D02*
X15428571Y23596680D01*
X15428571Y23596680D02*
X15190476Y23596680D01*
X15190476Y23596680D02*
X15095238Y23644300D01*
X15095238Y23644300D02*
X15047619Y23691919D01*
X-1285714Y24596680D02*
X-1285714Y23882395D01*
X-1285714Y23882395D02*
X-1333333Y23739538D01*
X-1333333Y23739538D02*
X-1428571Y23644300D01*
X-1428571Y23644300D02*
X-1571428Y23596680D01*
X-1571428Y23596680D02*
X-1666666Y23596680D01*
X-285714Y23596680D02*
X-857142Y23596680D01*
X-571428Y23596680D02*
X-571428Y24596680D01*
X-571428Y24596680D02*
X-666666Y24453823D01*
X-666666Y24453823D02*
X-761904Y24358585D01*
X-761904Y24358585D02*
X-857142Y24310966D01*
X333333Y24596680D02*
X428571Y24596680D01*
X428571Y24596680D02*
X523809Y24549061D01*
X523809Y24549061D02*
X571428Y24501442D01*
X571428Y24501442D02*
X619047Y24406204D01*
X619047Y24406204D02*
X666666Y24215728D01*
X666666Y24215728D02*
X666666Y23977633D01*
X666666Y23977633D02*
X619047Y23787157D01*
X619047Y23787157D02*
X571428Y23691919D01*
X571428Y23691919D02*
X523809Y23644300D01*
X523809Y23644300D02*
X428571Y23596680D01*
X428571Y23596680D02*
X333333Y23596680D01*
X333333Y23596680D02*
X238095Y23644300D01*
X238095Y23644300D02*
X190476Y23691919D01*
X190476Y23691919D02*
X142857Y23787157D01*
X142857Y23787157D02*
X95238Y23977633D01*
X95238Y23977633D02*
X95238Y24215728D01*
X95238Y24215728D02*
X142857Y24406204D01*
X142857Y24406204D02*
X190476Y24501442D01*
X190476Y24501442D02*
X238095Y24549061D01*
X238095Y24549061D02*
X333333Y24596680D01*
X1523809Y24263347D02*
X1523809Y23596680D01*
X1285714Y24644300D02*
X1047619Y23930014D01*
X1047619Y23930014D02*
X1666666Y23930014D01*
X-15285714Y24596680D02*
X-15285714Y23882395D01*
X-15285714Y23882395D02*
X-15333333Y23739538D01*
X-15333333Y23739538D02*
X-15428571Y23644300D01*
X-15428571Y23644300D02*
X-15571428Y23596680D01*
X-15571428Y23596680D02*
X-15666666Y23596680D01*
X-14285714Y23596680D02*
X-14857142Y23596680D01*
X-14571428Y23596680D02*
X-14571428Y24596680D01*
X-14571428Y24596680D02*
X-14666666Y24453823D01*
X-14666666Y24453823D02*
X-14761904Y24358585D01*
X-14761904Y24358585D02*
X-14857142Y24310966D01*
X-13666666Y24596680D02*
X-13571428Y24596680D01*
X-13571428Y24596680D02*
X-13476190Y24549061D01*
X-13476190Y24549061D02*
X-13428571Y24501442D01*
X-13428571Y24501442D02*
X-13380952Y24406204D01*
X-13380952Y24406204D02*
X-13333333Y24215728D01*
X-13333333Y24215728D02*
X-13333333Y23977633D01*
X-13333333Y23977633D02*
X-13380952Y23787157D01*
X-13380952Y23787157D02*
X-13428571Y23691919D01*
X-13428571Y23691919D02*
X-13476190Y23644300D01*
X-13476190Y23644300D02*
X-13571428Y23596680D01*
X-13571428Y23596680D02*
X-13666666Y23596680D01*
X-13666666Y23596680D02*
X-13761904Y23644300D01*
X-13761904Y23644300D02*
X-13809523Y23691919D01*
X-13809523Y23691919D02*
X-13857142Y23787157D01*
X-13857142Y23787157D02*
X-13904761Y23977633D01*
X-13904761Y23977633D02*
X-13904761Y24215728D01*
X-13904761Y24215728D02*
X-13857142Y24406204D01*
X-13857142Y24406204D02*
X-13809523Y24501442D01*
X-13809523Y24501442D02*
X-13761904Y24549061D01*
X-13761904Y24549061D02*
X-13666666Y24596680D01*
X-12999999Y24596680D02*
X-12380952Y24596680D01*
X-12380952Y24596680D02*
X-12714285Y24215728D01*
X-12714285Y24215728D02*
X-12571428Y24215728D01*
X-12571428Y24215728D02*
X-12476190Y24168109D01*
X-12476190Y24168109D02*
X-12428571Y24120490D01*
X-12428571Y24120490D02*
X-12380952Y24025252D01*
X-12380952Y24025252D02*
X-12380952Y23787157D01*
X-12380952Y23787157D02*
X-12428571Y23691919D01*
X-12428571Y23691919D02*
X-12476190Y23644300D01*
X-12476190Y23644300D02*
X-12571428Y23596680D01*
X-12571428Y23596680D02*
X-12857142Y23596680D01*
X-12857142Y23596680D02*
X-12952380Y23644300D01*
X-12952380Y23644300D02*
X-12999999Y23691919D01*
X-29285714Y24596680D02*
X-29285714Y23882395D01*
X-29285714Y23882395D02*
X-29333333Y23739538D01*
X-29333333Y23739538D02*
X-29428571Y23644300D01*
X-29428571Y23644300D02*
X-29571428Y23596680D01*
X-29571428Y23596680D02*
X-29666666Y23596680D01*
X-28285714Y23596680D02*
X-28857142Y23596680D01*
X-28571428Y23596680D02*
X-28571428Y24596680D01*
X-28571428Y24596680D02*
X-28666666Y24453823D01*
X-28666666Y24453823D02*
X-28761904Y24358585D01*
X-28761904Y24358585D02*
X-28857142Y24310966D01*
X-27666666Y24596680D02*
X-27571428Y24596680D01*
X-27571428Y24596680D02*
X-27476190Y24549061D01*
X-27476190Y24549061D02*
X-27428571Y24501442D01*
X-27428571Y24501442D02*
X-27380952Y24406204D01*
X-27380952Y24406204D02*
X-27333333Y24215728D01*
X-27333333Y24215728D02*
X-27333333Y23977633D01*
X-27333333Y23977633D02*
X-27380952Y23787157D01*
X-27380952Y23787157D02*
X-27428571Y23691919D01*
X-27428571Y23691919D02*
X-27476190Y23644300D01*
X-27476190Y23644300D02*
X-27571428Y23596680D01*
X-27571428Y23596680D02*
X-27666666Y23596680D01*
X-27666666Y23596680D02*
X-27761904Y23644300D01*
X-27761904Y23644300D02*
X-27809523Y23691919D01*
X-27809523Y23691919D02*
X-27857142Y23787157D01*
X-27857142Y23787157D02*
X-27904761Y23977633D01*
X-27904761Y23977633D02*
X-27904761Y24215728D01*
X-27904761Y24215728D02*
X-27857142Y24406204D01*
X-27857142Y24406204D02*
X-27809523Y24501442D01*
X-27809523Y24501442D02*
X-27761904Y24549061D01*
X-27761904Y24549061D02*
X-27666666Y24596680D01*
X-26952380Y24501442D02*
X-26904761Y24549061D01*
X-26904761Y24549061D02*
X-26809523Y24596680D01*
X-26809523Y24596680D02*
X-26571428Y24596680D01*
X-26571428Y24596680D02*
X-26476190Y24549061D01*
X-26476190Y24549061D02*
X-26428571Y24501442D01*
X-26428571Y24501442D02*
X-26380952Y24406204D01*
X-26380952Y24406204D02*
X-26380952Y24310966D01*
X-26380952Y24310966D02*
X-26428571Y24168109D01*
X-26428571Y24168109D02*
X-26999999Y23596680D01*
X-26999999Y23596680D02*
X-26380952Y23596680D01*
X26714285Y-31403319D02*
X26714285Y-32117604D01*
X26714285Y-32117604D02*
X26666666Y-32260461D01*
X26666666Y-32260461D02*
X26571428Y-32355700D01*
X26571428Y-32355700D02*
X26428571Y-32403319D01*
X26428571Y-32403319D02*
X26333333Y-32403319D01*
X27714285Y-32403319D02*
X27142857Y-32403319D01*
X27428571Y-32403319D02*
X27428571Y-31403319D01*
X27428571Y-31403319D02*
X27333333Y-31546176D01*
X27333333Y-31546176D02*
X27238095Y-31641414D01*
X27238095Y-31641414D02*
X27142857Y-31689033D01*
X28333333Y-31403319D02*
X28428571Y-31403319D01*
X28428571Y-31403319D02*
X28523809Y-31450938D01*
X28523809Y-31450938D02*
X28571428Y-31498557D01*
X28571428Y-31498557D02*
X28619047Y-31593795D01*
X28619047Y-31593795D02*
X28666666Y-31784271D01*
X28666666Y-31784271D02*
X28666666Y-32022366D01*
X28666666Y-32022366D02*
X28619047Y-32212842D01*
X28619047Y-32212842D02*
X28571428Y-32308080D01*
X28571428Y-32308080D02*
X28523809Y-32355700D01*
X28523809Y-32355700D02*
X28428571Y-32403319D01*
X28428571Y-32403319D02*
X28333333Y-32403319D01*
X28333333Y-32403319D02*
X28238095Y-32355700D01*
X28238095Y-32355700D02*
X28190476Y-32308080D01*
X28190476Y-32308080D02*
X28142857Y-32212842D01*
X28142857Y-32212842D02*
X28095238Y-32022366D01*
X28095238Y-32022366D02*
X28095238Y-31784271D01*
X28095238Y-31784271D02*
X28142857Y-31593795D01*
X28142857Y-31593795D02*
X28190476Y-31498557D01*
X28190476Y-31498557D02*
X28238095Y-31450938D01*
X28238095Y-31450938D02*
X28333333Y-31403319D01*
X29619047Y-32403319D02*
X29047619Y-32403319D01*
X29333333Y-32403319D02*
X29333333Y-31403319D01*
X29333333Y-31403319D02*
X29238095Y-31546176D01*
X29238095Y-31546176D02*
X29142857Y-31641414D01*
X29142857Y-31641414D02*
X29047619Y-31689033D01*
D11*
%TO.C,C150*%
X9357836Y-26360000D02*
X9142164Y-26360000D01*
X9357836Y-25640000D02*
X9142164Y-25640000D01*
%TO.C,C149*%
X9985000Y-28488748D02*
X9985000Y-29011252D01*
X8515000Y-28488748D02*
X8515000Y-29011252D01*
%TO.C,R175*%
X18903641Y-26380000D02*
X18596359Y-26380000D01*
X18903641Y-25620000D02*
X18596359Y-25620000D01*
%TO.C,R174*%
X18903641Y-27630000D02*
X18596359Y-27630000D01*
X18903641Y-26870000D02*
X18596359Y-26870000D01*
D12*
%TO.C,J125*%
X9478800Y-31948500D02*
G75*
G02*
X8716800Y-31948500I-381000J0D01*
G01*
X8716800Y-31948500D02*
G75*
G02*
X9478800Y-31948500I381000J0D01*
G01*
D13*
X17124200Y-34539059D02*
X17124200Y-31396500D01*
X17124200Y-31396500D02*
X16137540Y-31396500D01*
X12129641Y-36603499D02*
X15870359Y-36603499D01*
X11862460Y-31396500D02*
X10875800Y-31396500D01*
X10875800Y-31396500D02*
X10875800Y-34539059D01*
D11*
%TO.C,R173*%
X18903641Y-29130000D02*
X18596359Y-29130000D01*
X18903641Y-28370000D02*
X18596359Y-28370000D01*
%TO.C,IC125*%
X11300000Y-25535000D02*
X11060000Y-25205000D01*
X11540000Y-25205000D01*
X11300000Y-25535000D01*
G36*
X11300000Y-25535000D02*
G01*
X11060000Y-25205000D01*
X11540000Y-25205000D01*
X11300000Y-25535000D01*
G37*
X14000000Y-30560000D02*
X15950000Y-30560000D01*
X14000000Y-30560000D02*
X12050000Y-30560000D01*
X14000000Y-25440000D02*
X15950000Y-25440000D01*
X14000000Y-25440000D02*
X12050000Y-25440000D01*
%TO.C,C148*%
X-4642164Y-26360000D02*
X-4857836Y-26360000D01*
X-4642164Y-25640000D02*
X-4857836Y-25640000D01*
%TO.C,C147*%
X-4015000Y-28488748D02*
X-4015000Y-29011252D01*
X-5485000Y-28488748D02*
X-5485000Y-29011252D01*
%TO.C,R172*%
X4903641Y-26380000D02*
X4596359Y-26380000D01*
X4903641Y-25620000D02*
X4596359Y-25620000D01*
%TO.C,R171*%
X4903641Y-27630000D02*
X4596359Y-27630000D01*
X4903641Y-26870000D02*
X4596359Y-26870000D01*
D12*
%TO.C,J124*%
X-4521200Y-31948500D02*
G75*
G02*
X-5283200Y-31948500I-381000J0D01*
G01*
X-5283200Y-31948500D02*
G75*
G02*
X-4521200Y-31948500I381000J0D01*
G01*
D13*
X3124200Y-34539059D02*
X3124200Y-31396500D01*
X3124200Y-31396500D02*
X2137540Y-31396500D01*
X-1870359Y-36603499D02*
X1870359Y-36603499D01*
X-2137540Y-31396500D02*
X-3124200Y-31396500D01*
X-3124200Y-31396500D02*
X-3124200Y-34539059D01*
D11*
%TO.C,R170*%
X4903641Y-29130000D02*
X4596359Y-29130000D01*
X4903641Y-28370000D02*
X4596359Y-28370000D01*
%TO.C,IC124*%
X-2700000Y-25535000D02*
X-2940000Y-25205000D01*
X-2460000Y-25205000D01*
X-2700000Y-25535000D01*
G36*
X-2700000Y-25535000D02*
G01*
X-2940000Y-25205000D01*
X-2460000Y-25205000D01*
X-2700000Y-25535000D01*
G37*
X0Y-30560000D02*
X1950000Y-30560000D01*
X0Y-30560000D02*
X-1950000Y-30560000D01*
X0Y-25440000D02*
X1950000Y-25440000D01*
X0Y-25440000D02*
X-1950000Y-25440000D01*
%TO.C,C146*%
X-18642164Y-26360000D02*
X-18857836Y-26360000D01*
X-18642164Y-25640000D02*
X-18857836Y-25640000D01*
%TO.C,C145*%
X-18015000Y-28488748D02*
X-18015000Y-29011252D01*
X-19485000Y-28488748D02*
X-19485000Y-29011252D01*
%TO.C,R169*%
X-9096359Y-26380000D02*
X-9403641Y-26380000D01*
X-9096359Y-25620000D02*
X-9403641Y-25620000D01*
%TO.C,R168*%
X-9096359Y-27630000D02*
X-9403641Y-27630000D01*
X-9096359Y-26870000D02*
X-9403641Y-26870000D01*
D12*
%TO.C,J123*%
X-18521200Y-31948500D02*
G75*
G02*
X-19283200Y-31948500I-381000J0D01*
G01*
X-19283200Y-31948500D02*
G75*
G02*
X-18521200Y-31948500I381000J0D01*
G01*
D13*
X-10875800Y-34539059D02*
X-10875800Y-31396500D01*
X-10875800Y-31396500D02*
X-11862460Y-31396500D01*
X-15870359Y-36603499D02*
X-12129641Y-36603499D01*
X-16137540Y-31396500D02*
X-17124200Y-31396500D01*
X-17124200Y-31396500D02*
X-17124200Y-34539059D01*
D11*
%TO.C,R167*%
X-9096359Y-29130000D02*
X-9403641Y-29130000D01*
X-9096359Y-28370000D02*
X-9403641Y-28370000D01*
%TO.C,IC123*%
X-16700000Y-25535000D02*
X-16940000Y-25205000D01*
X-16460000Y-25205000D01*
X-16700000Y-25535000D01*
G36*
X-16700000Y-25535000D02*
G01*
X-16940000Y-25205000D01*
X-16460000Y-25205000D01*
X-16700000Y-25535000D01*
G37*
X-14000000Y-30560000D02*
X-12050000Y-30560000D01*
X-14000000Y-30560000D02*
X-15950000Y-30560000D01*
X-14000000Y-25440000D02*
X-12050000Y-25440000D01*
X-14000000Y-25440000D02*
X-15950000Y-25440000D01*
%TO.C,C144*%
X-32642164Y-26360000D02*
X-32857836Y-26360000D01*
X-32642164Y-25640000D02*
X-32857836Y-25640000D01*
%TO.C,C143*%
X-32015000Y-28488748D02*
X-32015000Y-29011252D01*
X-33485000Y-28488748D02*
X-33485000Y-29011252D01*
%TO.C,R166*%
X-23096359Y-26380000D02*
X-23403641Y-26380000D01*
X-23096359Y-25620000D02*
X-23403641Y-25620000D01*
%TO.C,R165*%
X-23096359Y-27630000D02*
X-23403641Y-27630000D01*
X-23096359Y-26870000D02*
X-23403641Y-26870000D01*
D12*
%TO.C,J122*%
X-32521200Y-31948500D02*
G75*
G02*
X-33283200Y-31948500I-381000J0D01*
G01*
X-33283200Y-31948500D02*
G75*
G02*
X-32521200Y-31948500I381000J0D01*
G01*
D13*
X-24875800Y-34539059D02*
X-24875800Y-31396500D01*
X-24875800Y-31396500D02*
X-25862460Y-31396500D01*
X-29870359Y-36603499D02*
X-26129641Y-36603499D01*
X-30137540Y-31396500D02*
X-31124200Y-31396500D01*
X-31124200Y-31396500D02*
X-31124200Y-34539059D01*
D11*
%TO.C,R164*%
X-23096359Y-29130000D02*
X-23403641Y-29130000D01*
X-23096359Y-28370000D02*
X-23403641Y-28370000D01*
%TO.C,IC122*%
X-30700000Y-25535000D02*
X-30940000Y-25205000D01*
X-30460000Y-25205000D01*
X-30700000Y-25535000D01*
G36*
X-30700000Y-25535000D02*
G01*
X-30940000Y-25205000D01*
X-30460000Y-25205000D01*
X-30700000Y-25535000D01*
G37*
X-28000000Y-30560000D02*
X-26050000Y-30560000D01*
X-28000000Y-30560000D02*
X-29950000Y-30560000D01*
X-28000000Y-25440000D02*
X-26050000Y-25440000D01*
X-28000000Y-25440000D02*
X-29950000Y-25440000D01*
%TO.C,C142*%
X23357836Y-12360000D02*
X23142164Y-12360000D01*
X23357836Y-11640000D02*
X23142164Y-11640000D01*
%TO.C,C141*%
X23985000Y-14488748D02*
X23985000Y-15011252D01*
X22515000Y-14488748D02*
X22515000Y-15011252D01*
%TO.C,R163*%
X32903641Y-12380000D02*
X32596359Y-12380000D01*
X32903641Y-11620000D02*
X32596359Y-11620000D01*
%TO.C,R162*%
X32903641Y-13630000D02*
X32596359Y-13630000D01*
X32903641Y-12870000D02*
X32596359Y-12870000D01*
D12*
%TO.C,J121*%
X23478800Y-17948500D02*
G75*
G02*
X22716800Y-17948500I-381000J0D01*
G01*
X22716800Y-17948500D02*
G75*
G02*
X23478800Y-17948500I381000J0D01*
G01*
D13*
X31124200Y-20539059D02*
X31124200Y-17396500D01*
X31124200Y-17396500D02*
X30137540Y-17396500D01*
X26129641Y-22603499D02*
X29870359Y-22603499D01*
X25862460Y-17396500D02*
X24875800Y-17396500D01*
X24875800Y-17396500D02*
X24875800Y-20539059D01*
D11*
%TO.C,R161*%
X32903641Y-15130000D02*
X32596359Y-15130000D01*
X32903641Y-14370000D02*
X32596359Y-14370000D01*
%TO.C,IC121*%
X25300000Y-11535000D02*
X25060000Y-11205000D01*
X25540000Y-11205000D01*
X25300000Y-11535000D01*
G36*
X25300000Y-11535000D02*
G01*
X25060000Y-11205000D01*
X25540000Y-11205000D01*
X25300000Y-11535000D01*
G37*
X28000000Y-16560000D02*
X29950000Y-16560000D01*
X28000000Y-16560000D02*
X26050000Y-16560000D01*
X28000000Y-11440000D02*
X29950000Y-11440000D01*
X28000000Y-11440000D02*
X26050000Y-11440000D01*
%TO.C,C140*%
X9357836Y-12360000D02*
X9142164Y-12360000D01*
X9357836Y-11640000D02*
X9142164Y-11640000D01*
%TO.C,C139*%
X9985000Y-14488748D02*
X9985000Y-15011252D01*
X8515000Y-14488748D02*
X8515000Y-15011252D01*
%TO.C,R160*%
X18903641Y-12380000D02*
X18596359Y-12380000D01*
X18903641Y-11620000D02*
X18596359Y-11620000D01*
%TO.C,R159*%
X18903641Y-13630000D02*
X18596359Y-13630000D01*
X18903641Y-12870000D02*
X18596359Y-12870000D01*
D12*
%TO.C,J120*%
X9478800Y-17948500D02*
G75*
G02*
X8716800Y-17948500I-381000J0D01*
G01*
X8716800Y-17948500D02*
G75*
G02*
X9478800Y-17948500I381000J0D01*
G01*
D13*
X17124200Y-20539059D02*
X17124200Y-17396500D01*
X17124200Y-17396500D02*
X16137540Y-17396500D01*
X12129641Y-22603499D02*
X15870359Y-22603499D01*
X11862460Y-17396500D02*
X10875800Y-17396500D01*
X10875800Y-17396500D02*
X10875800Y-20539059D01*
D11*
%TO.C,R158*%
X18903641Y-15130000D02*
X18596359Y-15130000D01*
X18903641Y-14370000D02*
X18596359Y-14370000D01*
%TO.C,IC120*%
X11300000Y-11535000D02*
X11060000Y-11205000D01*
X11540000Y-11205000D01*
X11300000Y-11535000D01*
G36*
X11300000Y-11535000D02*
G01*
X11060000Y-11205000D01*
X11540000Y-11205000D01*
X11300000Y-11535000D01*
G37*
X14000000Y-16560000D02*
X15950000Y-16560000D01*
X14000000Y-16560000D02*
X12050000Y-16560000D01*
X14000000Y-11440000D02*
X15950000Y-11440000D01*
X14000000Y-11440000D02*
X12050000Y-11440000D01*
%TO.C,C138*%
X-4642164Y-12360000D02*
X-4857836Y-12360000D01*
X-4642164Y-11640000D02*
X-4857836Y-11640000D01*
%TO.C,C137*%
X-4015000Y-14488748D02*
X-4015000Y-15011252D01*
X-5485000Y-14488748D02*
X-5485000Y-15011252D01*
%TO.C,R157*%
X4903641Y-12380000D02*
X4596359Y-12380000D01*
X4903641Y-11620000D02*
X4596359Y-11620000D01*
%TO.C,R156*%
X4903641Y-13630000D02*
X4596359Y-13630000D01*
X4903641Y-12870000D02*
X4596359Y-12870000D01*
D12*
%TO.C,J119*%
X-4521200Y-17948500D02*
G75*
G02*
X-5283200Y-17948500I-381000J0D01*
G01*
X-5283200Y-17948500D02*
G75*
G02*
X-4521200Y-17948500I381000J0D01*
G01*
D13*
X3124200Y-20539059D02*
X3124200Y-17396500D01*
X3124200Y-17396500D02*
X2137540Y-17396500D01*
X-1870359Y-22603499D02*
X1870359Y-22603499D01*
X-2137540Y-17396500D02*
X-3124200Y-17396500D01*
X-3124200Y-17396500D02*
X-3124200Y-20539059D01*
D11*
%TO.C,R155*%
X4903641Y-15130000D02*
X4596359Y-15130000D01*
X4903641Y-14370000D02*
X4596359Y-14370000D01*
%TO.C,IC119*%
X-2700000Y-11535000D02*
X-2940000Y-11205000D01*
X-2460000Y-11205000D01*
X-2700000Y-11535000D01*
G36*
X-2700000Y-11535000D02*
G01*
X-2940000Y-11205000D01*
X-2460000Y-11205000D01*
X-2700000Y-11535000D01*
G37*
X0Y-16560000D02*
X1950000Y-16560000D01*
X0Y-16560000D02*
X-1950000Y-16560000D01*
X0Y-11440000D02*
X1950000Y-11440000D01*
X0Y-11440000D02*
X-1950000Y-11440000D01*
%TO.C,C136*%
X-18642164Y-12360000D02*
X-18857836Y-12360000D01*
X-18642164Y-11640000D02*
X-18857836Y-11640000D01*
%TO.C,C135*%
X-18015000Y-14488748D02*
X-18015000Y-15011252D01*
X-19485000Y-14488748D02*
X-19485000Y-15011252D01*
%TO.C,R154*%
X-9096359Y-12380000D02*
X-9403641Y-12380000D01*
X-9096359Y-11620000D02*
X-9403641Y-11620000D01*
%TO.C,R153*%
X-9096359Y-13630000D02*
X-9403641Y-13630000D01*
X-9096359Y-12870000D02*
X-9403641Y-12870000D01*
D12*
%TO.C,J118*%
X-18521200Y-17948500D02*
G75*
G02*
X-19283200Y-17948500I-381000J0D01*
G01*
X-19283200Y-17948500D02*
G75*
G02*
X-18521200Y-17948500I381000J0D01*
G01*
D13*
X-10875800Y-20539059D02*
X-10875800Y-17396500D01*
X-10875800Y-17396500D02*
X-11862460Y-17396500D01*
X-15870359Y-22603499D02*
X-12129641Y-22603499D01*
X-16137540Y-17396500D02*
X-17124200Y-17396500D01*
X-17124200Y-17396500D02*
X-17124200Y-20539059D01*
D11*
%TO.C,R152*%
X-9096359Y-15130000D02*
X-9403641Y-15130000D01*
X-9096359Y-14370000D02*
X-9403641Y-14370000D01*
%TO.C,IC118*%
X-16700000Y-11535000D02*
X-16940000Y-11205000D01*
X-16460000Y-11205000D01*
X-16700000Y-11535000D01*
G36*
X-16700000Y-11535000D02*
G01*
X-16940000Y-11205000D01*
X-16460000Y-11205000D01*
X-16700000Y-11535000D01*
G37*
X-14000000Y-16560000D02*
X-12050000Y-16560000D01*
X-14000000Y-16560000D02*
X-15950000Y-16560000D01*
X-14000000Y-11440000D02*
X-12050000Y-11440000D01*
X-14000000Y-11440000D02*
X-15950000Y-11440000D01*
%TO.C,C134*%
X-32642164Y-12360000D02*
X-32857836Y-12360000D01*
X-32642164Y-11640000D02*
X-32857836Y-11640000D01*
%TO.C,C133*%
X-32015000Y-14488748D02*
X-32015000Y-15011252D01*
X-33485000Y-14488748D02*
X-33485000Y-15011252D01*
%TO.C,R151*%
X-23096359Y-12380000D02*
X-23403641Y-12380000D01*
X-23096359Y-11620000D02*
X-23403641Y-11620000D01*
%TO.C,R150*%
X-23096359Y-13630000D02*
X-23403641Y-13630000D01*
X-23096359Y-12870000D02*
X-23403641Y-12870000D01*
D12*
%TO.C,J117*%
X-32521200Y-17948500D02*
G75*
G02*
X-33283200Y-17948500I-381000J0D01*
G01*
X-33283200Y-17948500D02*
G75*
G02*
X-32521200Y-17948500I381000J0D01*
G01*
D13*
X-24875800Y-20539059D02*
X-24875800Y-17396500D01*
X-24875800Y-17396500D02*
X-25862460Y-17396500D01*
X-29870359Y-22603499D02*
X-26129641Y-22603499D01*
X-30137540Y-17396500D02*
X-31124200Y-17396500D01*
X-31124200Y-17396500D02*
X-31124200Y-20539059D01*
D11*
%TO.C,R149*%
X-23096359Y-15130000D02*
X-23403641Y-15130000D01*
X-23096359Y-14370000D02*
X-23403641Y-14370000D01*
%TO.C,IC117*%
X-30700000Y-11535000D02*
X-30940000Y-11205000D01*
X-30460000Y-11205000D01*
X-30700000Y-11535000D01*
G36*
X-30700000Y-11535000D02*
G01*
X-30940000Y-11205000D01*
X-30460000Y-11205000D01*
X-30700000Y-11535000D01*
G37*
X-28000000Y-16560000D02*
X-26050000Y-16560000D01*
X-28000000Y-16560000D02*
X-29950000Y-16560000D01*
X-28000000Y-11440000D02*
X-26050000Y-11440000D01*
X-28000000Y-11440000D02*
X-29950000Y-11440000D01*
%TO.C,C132*%
X23357836Y1640000D02*
X23142164Y1640000D01*
X23357836Y2360000D02*
X23142164Y2360000D01*
%TO.C,C131*%
X23985000Y-488748D02*
X23985000Y-1011252D01*
X22515000Y-488748D02*
X22515000Y-1011252D01*
%TO.C,R148*%
X32903641Y1620000D02*
X32596359Y1620000D01*
X32903641Y2380000D02*
X32596359Y2380000D01*
%TO.C,R147*%
X32903641Y370000D02*
X32596359Y370000D01*
X32903641Y1130000D02*
X32596359Y1130000D01*
D12*
%TO.C,J116*%
X23478800Y-3948500D02*
G75*
G02*
X22716800Y-3948500I-381000J0D01*
G01*
X22716800Y-3948500D02*
G75*
G02*
X23478800Y-3948500I381000J0D01*
G01*
D13*
X31124200Y-6539059D02*
X31124200Y-3396500D01*
X31124200Y-3396500D02*
X30137540Y-3396500D01*
X26129641Y-8603499D02*
X29870359Y-8603499D01*
X25862460Y-3396500D02*
X24875800Y-3396500D01*
X24875800Y-3396500D02*
X24875800Y-6539059D01*
D11*
%TO.C,R146*%
X32903641Y-1130000D02*
X32596359Y-1130000D01*
X32903641Y-370000D02*
X32596359Y-370000D01*
%TO.C,IC116*%
X25300000Y2465000D02*
X25060000Y2795000D01*
X25540000Y2795000D01*
X25300000Y2465000D01*
G36*
X25300000Y2465000D02*
G01*
X25060000Y2795000D01*
X25540000Y2795000D01*
X25300000Y2465000D01*
G37*
X28000000Y-2560000D02*
X29950000Y-2560000D01*
X28000000Y-2560000D02*
X26050000Y-2560000D01*
X28000000Y2560000D02*
X29950000Y2560000D01*
X28000000Y2560000D02*
X26050000Y2560000D01*
%TO.C,C130*%
X9357836Y1640000D02*
X9142164Y1640000D01*
X9357836Y2360000D02*
X9142164Y2360000D01*
%TO.C,C129*%
X9985000Y-488748D02*
X9985000Y-1011252D01*
X8515000Y-488748D02*
X8515000Y-1011252D01*
%TO.C,R145*%
X18903641Y1620000D02*
X18596359Y1620000D01*
X18903641Y2380000D02*
X18596359Y2380000D01*
%TO.C,R144*%
X18903641Y370000D02*
X18596359Y370000D01*
X18903641Y1130000D02*
X18596359Y1130000D01*
D12*
%TO.C,J115*%
X9478800Y-3948500D02*
G75*
G02*
X8716800Y-3948500I-381000J0D01*
G01*
X8716800Y-3948500D02*
G75*
G02*
X9478800Y-3948500I381000J0D01*
G01*
D13*
X17124200Y-6539059D02*
X17124200Y-3396500D01*
X17124200Y-3396500D02*
X16137540Y-3396500D01*
X12129641Y-8603499D02*
X15870359Y-8603499D01*
X11862460Y-3396500D02*
X10875800Y-3396500D01*
X10875800Y-3396500D02*
X10875800Y-6539059D01*
D11*
%TO.C,R143*%
X18903641Y-1130000D02*
X18596359Y-1130000D01*
X18903641Y-370000D02*
X18596359Y-370000D01*
%TO.C,IC115*%
X11300000Y2465000D02*
X11060000Y2795000D01*
X11540000Y2795000D01*
X11300000Y2465000D01*
G36*
X11300000Y2465000D02*
G01*
X11060000Y2795000D01*
X11540000Y2795000D01*
X11300000Y2465000D01*
G37*
X14000000Y-2560000D02*
X15950000Y-2560000D01*
X14000000Y-2560000D02*
X12050000Y-2560000D01*
X14000000Y2560000D02*
X15950000Y2560000D01*
X14000000Y2560000D02*
X12050000Y2560000D01*
%TO.C,C128*%
X-4642164Y1640000D02*
X-4857836Y1640000D01*
X-4642164Y2360000D02*
X-4857836Y2360000D01*
%TO.C,C127*%
X-4015000Y-488748D02*
X-4015000Y-1011252D01*
X-5485000Y-488748D02*
X-5485000Y-1011252D01*
%TO.C,R142*%
X4903641Y1620000D02*
X4596359Y1620000D01*
X4903641Y2380000D02*
X4596359Y2380000D01*
%TO.C,R141*%
X4903641Y370000D02*
X4596359Y370000D01*
X4903641Y1130000D02*
X4596359Y1130000D01*
D12*
%TO.C,J114*%
X-4521200Y-3948500D02*
G75*
G02*
X-5283200Y-3948500I-381000J0D01*
G01*
X-5283200Y-3948500D02*
G75*
G02*
X-4521200Y-3948500I381000J0D01*
G01*
D13*
X3124200Y-6539059D02*
X3124200Y-3396500D01*
X3124200Y-3396500D02*
X2137540Y-3396500D01*
X-1870359Y-8603499D02*
X1870359Y-8603499D01*
X-2137540Y-3396500D02*
X-3124200Y-3396500D01*
X-3124200Y-3396500D02*
X-3124200Y-6539059D01*
D11*
%TO.C,R140*%
X4903641Y-1130000D02*
X4596359Y-1130000D01*
X4903641Y-370000D02*
X4596359Y-370000D01*
%TO.C,IC114*%
X-2700000Y2465000D02*
X-2940000Y2795000D01*
X-2460000Y2795000D01*
X-2700000Y2465000D01*
G36*
X-2700000Y2465000D02*
G01*
X-2940000Y2795000D01*
X-2460000Y2795000D01*
X-2700000Y2465000D01*
G37*
X0Y-2560000D02*
X1950000Y-2560000D01*
X0Y-2560000D02*
X-1950000Y-2560000D01*
X0Y2560000D02*
X1950000Y2560000D01*
X0Y2560000D02*
X-1950000Y2560000D01*
%TO.C,C126*%
X-18642164Y1640000D02*
X-18857836Y1640000D01*
X-18642164Y2360000D02*
X-18857836Y2360000D01*
%TO.C,C125*%
X-18015000Y-488748D02*
X-18015000Y-1011252D01*
X-19485000Y-488748D02*
X-19485000Y-1011252D01*
%TO.C,R139*%
X-9096359Y1620000D02*
X-9403641Y1620000D01*
X-9096359Y2380000D02*
X-9403641Y2380000D01*
%TO.C,R138*%
X-9096359Y370000D02*
X-9403641Y370000D01*
X-9096359Y1130000D02*
X-9403641Y1130000D01*
D12*
%TO.C,J113*%
X-18521200Y-3948500D02*
G75*
G02*
X-19283200Y-3948500I-381000J0D01*
G01*
X-19283200Y-3948500D02*
G75*
G02*
X-18521200Y-3948500I381000J0D01*
G01*
D13*
X-10875800Y-6539059D02*
X-10875800Y-3396500D01*
X-10875800Y-3396500D02*
X-11862460Y-3396500D01*
X-15870359Y-8603499D02*
X-12129641Y-8603499D01*
X-16137540Y-3396500D02*
X-17124200Y-3396500D01*
X-17124200Y-3396500D02*
X-17124200Y-6539059D01*
D11*
%TO.C,R137*%
X-9096359Y-1130000D02*
X-9403641Y-1130000D01*
X-9096359Y-370000D02*
X-9403641Y-370000D01*
%TO.C,IC113*%
X-16700000Y2465000D02*
X-16940000Y2795000D01*
X-16460000Y2795000D01*
X-16700000Y2465000D01*
G36*
X-16700000Y2465000D02*
G01*
X-16940000Y2795000D01*
X-16460000Y2795000D01*
X-16700000Y2465000D01*
G37*
X-14000000Y-2560000D02*
X-12050000Y-2560000D01*
X-14000000Y-2560000D02*
X-15950000Y-2560000D01*
X-14000000Y2560000D02*
X-12050000Y2560000D01*
X-14000000Y2560000D02*
X-15950000Y2560000D01*
%TO.C,C124*%
X-32642164Y1640000D02*
X-32857836Y1640000D01*
X-32642164Y2360000D02*
X-32857836Y2360000D01*
%TO.C,C123*%
X-32015000Y-488748D02*
X-32015000Y-1011252D01*
X-33485000Y-488748D02*
X-33485000Y-1011252D01*
%TO.C,R136*%
X-23096359Y1620000D02*
X-23403641Y1620000D01*
X-23096359Y2380000D02*
X-23403641Y2380000D01*
%TO.C,R135*%
X-23096359Y370000D02*
X-23403641Y370000D01*
X-23096359Y1130000D02*
X-23403641Y1130000D01*
D12*
%TO.C,J112*%
X-32521200Y-3948500D02*
G75*
G02*
X-33283200Y-3948500I-381000J0D01*
G01*
X-33283200Y-3948500D02*
G75*
G02*
X-32521200Y-3948500I381000J0D01*
G01*
D13*
X-24875800Y-6539059D02*
X-24875800Y-3396500D01*
X-24875800Y-3396500D02*
X-25862460Y-3396500D01*
X-29870359Y-8603499D02*
X-26129641Y-8603499D01*
X-30137540Y-3396500D02*
X-31124200Y-3396500D01*
X-31124200Y-3396500D02*
X-31124200Y-6539059D01*
D11*
%TO.C,R134*%
X-23096359Y-1130000D02*
X-23403641Y-1130000D01*
X-23096359Y-370000D02*
X-23403641Y-370000D01*
%TO.C,IC112*%
X-30700000Y2465000D02*
X-30940000Y2795000D01*
X-30460000Y2795000D01*
X-30700000Y2465000D01*
G36*
X-30700000Y2465000D02*
G01*
X-30940000Y2795000D01*
X-30460000Y2795000D01*
X-30700000Y2465000D01*
G37*
X-28000000Y-2560000D02*
X-26050000Y-2560000D01*
X-28000000Y-2560000D02*
X-29950000Y-2560000D01*
X-28000000Y2560000D02*
X-26050000Y2560000D01*
X-28000000Y2560000D02*
X-29950000Y2560000D01*
%TO.C,C122*%
X23357836Y15640000D02*
X23142164Y15640000D01*
X23357836Y16360000D02*
X23142164Y16360000D01*
%TO.C,C121*%
X23985000Y13511252D02*
X23985000Y12988748D01*
X22515000Y13511252D02*
X22515000Y12988748D01*
%TO.C,R133*%
X32903641Y15620000D02*
X32596359Y15620000D01*
X32903641Y16380000D02*
X32596359Y16380000D01*
%TO.C,R132*%
X32903641Y14370000D02*
X32596359Y14370000D01*
X32903641Y15130000D02*
X32596359Y15130000D01*
D12*
%TO.C,J111*%
X23478800Y10051500D02*
G75*
G02*
X22716800Y10051500I-381000J0D01*
G01*
X22716800Y10051500D02*
G75*
G02*
X23478800Y10051500I381000J0D01*
G01*
D13*
X31124200Y7460941D02*
X31124200Y10603500D01*
X31124200Y10603500D02*
X30137540Y10603500D01*
X26129641Y5396501D02*
X29870359Y5396501D01*
X25862460Y10603500D02*
X24875800Y10603500D01*
X24875800Y10603500D02*
X24875800Y7460941D01*
D11*
%TO.C,R131*%
X32903641Y12870000D02*
X32596359Y12870000D01*
X32903641Y13630000D02*
X32596359Y13630000D01*
%TO.C,IC111*%
X25300000Y16465000D02*
X25060000Y16795000D01*
X25540000Y16795000D01*
X25300000Y16465000D01*
G36*
X25300000Y16465000D02*
G01*
X25060000Y16795000D01*
X25540000Y16795000D01*
X25300000Y16465000D01*
G37*
X28000000Y11440000D02*
X29950000Y11440000D01*
X28000000Y11440000D02*
X26050000Y11440000D01*
X28000000Y16560000D02*
X29950000Y16560000D01*
X28000000Y16560000D02*
X26050000Y16560000D01*
%TO.C,C120*%
X9357836Y15640000D02*
X9142164Y15640000D01*
X9357836Y16360000D02*
X9142164Y16360000D01*
%TO.C,C119*%
X9985000Y13511252D02*
X9985000Y12988748D01*
X8515000Y13511252D02*
X8515000Y12988748D01*
%TO.C,R130*%
X18903641Y15620000D02*
X18596359Y15620000D01*
X18903641Y16380000D02*
X18596359Y16380000D01*
%TO.C,R129*%
X18903641Y14370000D02*
X18596359Y14370000D01*
X18903641Y15130000D02*
X18596359Y15130000D01*
D12*
%TO.C,J110*%
X9478800Y10051500D02*
G75*
G02*
X8716800Y10051500I-381000J0D01*
G01*
X8716800Y10051500D02*
G75*
G02*
X9478800Y10051500I381000J0D01*
G01*
D13*
X17124200Y7460941D02*
X17124200Y10603500D01*
X17124200Y10603500D02*
X16137540Y10603500D01*
X12129641Y5396501D02*
X15870359Y5396501D01*
X11862460Y10603500D02*
X10875800Y10603500D01*
X10875800Y10603500D02*
X10875800Y7460941D01*
D11*
%TO.C,R128*%
X18903641Y12870000D02*
X18596359Y12870000D01*
X18903641Y13630000D02*
X18596359Y13630000D01*
%TO.C,IC110*%
X11300000Y16465000D02*
X11060000Y16795000D01*
X11540000Y16795000D01*
X11300000Y16465000D01*
G36*
X11300000Y16465000D02*
G01*
X11060000Y16795000D01*
X11540000Y16795000D01*
X11300000Y16465000D01*
G37*
X14000000Y11440000D02*
X15950000Y11440000D01*
X14000000Y11440000D02*
X12050000Y11440000D01*
X14000000Y16560000D02*
X15950000Y16560000D01*
X14000000Y16560000D02*
X12050000Y16560000D01*
%TO.C,C118*%
X-4642164Y15640000D02*
X-4857836Y15640000D01*
X-4642164Y16360000D02*
X-4857836Y16360000D01*
%TO.C,C117*%
X-4015000Y13511252D02*
X-4015000Y12988748D01*
X-5485000Y13511252D02*
X-5485000Y12988748D01*
%TO.C,R127*%
X4903641Y15620000D02*
X4596359Y15620000D01*
X4903641Y16380000D02*
X4596359Y16380000D01*
%TO.C,R126*%
X4903641Y14370000D02*
X4596359Y14370000D01*
X4903641Y15130000D02*
X4596359Y15130000D01*
D12*
%TO.C,J109*%
X-4521200Y10051500D02*
G75*
G02*
X-5283200Y10051500I-381000J0D01*
G01*
X-5283200Y10051500D02*
G75*
G02*
X-4521200Y10051500I381000J0D01*
G01*
D13*
X3124200Y7460941D02*
X3124200Y10603500D01*
X3124200Y10603500D02*
X2137540Y10603500D01*
X-1870359Y5396501D02*
X1870359Y5396501D01*
X-2137540Y10603500D02*
X-3124200Y10603500D01*
X-3124200Y10603500D02*
X-3124200Y7460941D01*
D11*
%TO.C,R125*%
X4903641Y12870000D02*
X4596359Y12870000D01*
X4903641Y13630000D02*
X4596359Y13630000D01*
%TO.C,IC109*%
X-2700000Y16465000D02*
X-2940000Y16795000D01*
X-2460000Y16795000D01*
X-2700000Y16465000D01*
G36*
X-2700000Y16465000D02*
G01*
X-2940000Y16795000D01*
X-2460000Y16795000D01*
X-2700000Y16465000D01*
G37*
X0Y11440000D02*
X1950000Y11440000D01*
X0Y11440000D02*
X-1950000Y11440000D01*
X0Y16560000D02*
X1950000Y16560000D01*
X0Y16560000D02*
X-1950000Y16560000D01*
%TO.C,C116*%
X-18642164Y15640000D02*
X-18857836Y15640000D01*
X-18642164Y16360000D02*
X-18857836Y16360000D01*
%TO.C,C115*%
X-18015000Y13511252D02*
X-18015000Y12988748D01*
X-19485000Y13511252D02*
X-19485000Y12988748D01*
%TO.C,R124*%
X-9096359Y15620000D02*
X-9403641Y15620000D01*
X-9096359Y16380000D02*
X-9403641Y16380000D01*
%TO.C,R123*%
X-9096359Y14370000D02*
X-9403641Y14370000D01*
X-9096359Y15130000D02*
X-9403641Y15130000D01*
D12*
%TO.C,J108*%
X-18521200Y10051500D02*
G75*
G02*
X-19283200Y10051500I-381000J0D01*
G01*
X-19283200Y10051500D02*
G75*
G02*
X-18521200Y10051500I381000J0D01*
G01*
D13*
X-10875800Y7460941D02*
X-10875800Y10603500D01*
X-10875800Y10603500D02*
X-11862460Y10603500D01*
X-15870359Y5396501D02*
X-12129641Y5396501D01*
X-16137540Y10603500D02*
X-17124200Y10603500D01*
X-17124200Y10603500D02*
X-17124200Y7460941D01*
D11*
%TO.C,R122*%
X-9096359Y12870000D02*
X-9403641Y12870000D01*
X-9096359Y13630000D02*
X-9403641Y13630000D01*
%TO.C,IC108*%
X-16700000Y16465000D02*
X-16940000Y16795000D01*
X-16460000Y16795000D01*
X-16700000Y16465000D01*
G36*
X-16700000Y16465000D02*
G01*
X-16940000Y16795000D01*
X-16460000Y16795000D01*
X-16700000Y16465000D01*
G37*
X-14000000Y11440000D02*
X-12050000Y11440000D01*
X-14000000Y11440000D02*
X-15950000Y11440000D01*
X-14000000Y16560000D02*
X-12050000Y16560000D01*
X-14000000Y16560000D02*
X-15950000Y16560000D01*
%TO.C,C114*%
X-32642164Y15640000D02*
X-32857836Y15640000D01*
X-32642164Y16360000D02*
X-32857836Y16360000D01*
%TO.C,C113*%
X-32015000Y13511252D02*
X-32015000Y12988748D01*
X-33485000Y13511252D02*
X-33485000Y12988748D01*
%TO.C,R121*%
X-23096359Y15620000D02*
X-23403641Y15620000D01*
X-23096359Y16380000D02*
X-23403641Y16380000D01*
%TO.C,R120*%
X-23096359Y14370000D02*
X-23403641Y14370000D01*
X-23096359Y15130000D02*
X-23403641Y15130000D01*
D12*
%TO.C,J107*%
X-32521200Y10051500D02*
G75*
G02*
X-33283200Y10051500I-381000J0D01*
G01*
X-33283200Y10051500D02*
G75*
G02*
X-32521200Y10051500I381000J0D01*
G01*
D13*
X-24875800Y7460941D02*
X-24875800Y10603500D01*
X-24875800Y10603500D02*
X-25862460Y10603500D01*
X-29870359Y5396501D02*
X-26129641Y5396501D01*
X-30137540Y10603500D02*
X-31124200Y10603500D01*
X-31124200Y10603500D02*
X-31124200Y7460941D01*
D11*
%TO.C,R119*%
X-23096359Y12870000D02*
X-23403641Y12870000D01*
X-23096359Y13630000D02*
X-23403641Y13630000D01*
%TO.C,IC107*%
X-30700000Y16465000D02*
X-30940000Y16795000D01*
X-30460000Y16795000D01*
X-30700000Y16465000D01*
G36*
X-30700000Y16465000D02*
G01*
X-30940000Y16795000D01*
X-30460000Y16795000D01*
X-30700000Y16465000D01*
G37*
X-28000000Y11440000D02*
X-26050000Y11440000D01*
X-28000000Y11440000D02*
X-29950000Y11440000D01*
X-28000000Y16560000D02*
X-26050000Y16560000D01*
X-28000000Y16560000D02*
X-29950000Y16560000D01*
%TO.C,C112*%
X23357836Y29640000D02*
X23142164Y29640000D01*
X23357836Y30360000D02*
X23142164Y30360000D01*
%TO.C,C111*%
X23985000Y27511252D02*
X23985000Y26988748D01*
X22515000Y27511252D02*
X22515000Y26988748D01*
%TO.C,R118*%
X32903641Y29620000D02*
X32596359Y29620000D01*
X32903641Y30380000D02*
X32596359Y30380000D01*
%TO.C,R117*%
X32903641Y28370000D02*
X32596359Y28370000D01*
X32903641Y29130000D02*
X32596359Y29130000D01*
D12*
%TO.C,J106*%
X23478800Y24051500D02*
G75*
G02*
X22716800Y24051500I-381000J0D01*
G01*
X22716800Y24051500D02*
G75*
G02*
X23478800Y24051500I381000J0D01*
G01*
D13*
X31124200Y21460941D02*
X31124200Y24603500D01*
X31124200Y24603500D02*
X30137540Y24603500D01*
X26129641Y19396501D02*
X29870359Y19396501D01*
X25862460Y24603500D02*
X24875800Y24603500D01*
X24875800Y24603500D02*
X24875800Y21460941D01*
D11*
%TO.C,R116*%
X32903641Y26870000D02*
X32596359Y26870000D01*
X32903641Y27630000D02*
X32596359Y27630000D01*
%TO.C,IC106*%
X25300000Y30465000D02*
X25060000Y30795000D01*
X25540000Y30795000D01*
X25300000Y30465000D01*
G36*
X25300000Y30465000D02*
G01*
X25060000Y30795000D01*
X25540000Y30795000D01*
X25300000Y30465000D01*
G37*
X28000000Y25440000D02*
X29950000Y25440000D01*
X28000000Y25440000D02*
X26050000Y25440000D01*
X28000000Y30560000D02*
X29950000Y30560000D01*
X28000000Y30560000D02*
X26050000Y30560000D01*
%TO.C,C110*%
X9357836Y29640000D02*
X9142164Y29640000D01*
X9357836Y30360000D02*
X9142164Y30360000D01*
%TO.C,C109*%
X9985000Y27511252D02*
X9985000Y26988748D01*
X8515000Y27511252D02*
X8515000Y26988748D01*
%TO.C,R115*%
X18903641Y29620000D02*
X18596359Y29620000D01*
X18903641Y30380000D02*
X18596359Y30380000D01*
%TO.C,R114*%
X18903641Y28370000D02*
X18596359Y28370000D01*
X18903641Y29130000D02*
X18596359Y29130000D01*
D12*
%TO.C,J105*%
X9478800Y24051500D02*
G75*
G02*
X8716800Y24051500I-381000J0D01*
G01*
X8716800Y24051500D02*
G75*
G02*
X9478800Y24051500I381000J0D01*
G01*
D13*
X17124200Y21460941D02*
X17124200Y24603500D01*
X17124200Y24603500D02*
X16137540Y24603500D01*
X12129641Y19396501D02*
X15870359Y19396501D01*
X11862460Y24603500D02*
X10875800Y24603500D01*
X10875800Y24603500D02*
X10875800Y21460941D01*
D11*
%TO.C,R113*%
X18903641Y26870000D02*
X18596359Y26870000D01*
X18903641Y27630000D02*
X18596359Y27630000D01*
%TO.C,IC105*%
X11300000Y30465000D02*
X11060000Y30795000D01*
X11540000Y30795000D01*
X11300000Y30465000D01*
G36*
X11300000Y30465000D02*
G01*
X11060000Y30795000D01*
X11540000Y30795000D01*
X11300000Y30465000D01*
G37*
X14000000Y25440000D02*
X15950000Y25440000D01*
X14000000Y25440000D02*
X12050000Y25440000D01*
X14000000Y30560000D02*
X15950000Y30560000D01*
X14000000Y30560000D02*
X12050000Y30560000D01*
%TO.C,C108*%
X-4642164Y29640000D02*
X-4857836Y29640000D01*
X-4642164Y30360000D02*
X-4857836Y30360000D01*
%TO.C,C107*%
X-4015000Y27511252D02*
X-4015000Y26988748D01*
X-5485000Y27511252D02*
X-5485000Y26988748D01*
%TO.C,R112*%
X4903641Y29620000D02*
X4596359Y29620000D01*
X4903641Y30380000D02*
X4596359Y30380000D01*
%TO.C,R111*%
X4903641Y28370000D02*
X4596359Y28370000D01*
X4903641Y29130000D02*
X4596359Y29130000D01*
D12*
%TO.C,J104*%
X-4521200Y24051500D02*
G75*
G02*
X-5283200Y24051500I-381000J0D01*
G01*
X-5283200Y24051500D02*
G75*
G02*
X-4521200Y24051500I381000J0D01*
G01*
D13*
X3124200Y21460941D02*
X3124200Y24603500D01*
X3124200Y24603500D02*
X2137540Y24603500D01*
X-1870359Y19396501D02*
X1870359Y19396501D01*
X-2137540Y24603500D02*
X-3124200Y24603500D01*
X-3124200Y24603500D02*
X-3124200Y21460941D01*
D11*
%TO.C,R110*%
X4903641Y26870000D02*
X4596359Y26870000D01*
X4903641Y27630000D02*
X4596359Y27630000D01*
%TO.C,IC104*%
X-2700000Y30465000D02*
X-2940000Y30795000D01*
X-2460000Y30795000D01*
X-2700000Y30465000D01*
G36*
X-2700000Y30465000D02*
G01*
X-2940000Y30795000D01*
X-2460000Y30795000D01*
X-2700000Y30465000D01*
G37*
X0Y25440000D02*
X1950000Y25440000D01*
X0Y25440000D02*
X-1950000Y25440000D01*
X0Y30560000D02*
X1950000Y30560000D01*
X0Y30560000D02*
X-1950000Y30560000D01*
%TO.C,C106*%
X-18642164Y29640000D02*
X-18857836Y29640000D01*
X-18642164Y30360000D02*
X-18857836Y30360000D01*
%TO.C,C105*%
X-18015000Y27511252D02*
X-18015000Y26988748D01*
X-19485000Y27511252D02*
X-19485000Y26988748D01*
%TO.C,R109*%
X-9096359Y29620000D02*
X-9403641Y29620000D01*
X-9096359Y30380000D02*
X-9403641Y30380000D01*
%TO.C,R108*%
X-9096359Y28370000D02*
X-9403641Y28370000D01*
X-9096359Y29130000D02*
X-9403641Y29130000D01*
D12*
%TO.C,J103*%
X-18521200Y24051500D02*
G75*
G02*
X-19283200Y24051500I-381000J0D01*
G01*
X-19283200Y24051500D02*
G75*
G02*
X-18521200Y24051500I381000J0D01*
G01*
D13*
X-10875800Y21460941D02*
X-10875800Y24603500D01*
X-10875800Y24603500D02*
X-11862460Y24603500D01*
X-15870359Y19396501D02*
X-12129641Y19396501D01*
X-16137540Y24603500D02*
X-17124200Y24603500D01*
X-17124200Y24603500D02*
X-17124200Y21460941D01*
D11*
%TO.C,R107*%
X-9096359Y26870000D02*
X-9403641Y26870000D01*
X-9096359Y27630000D02*
X-9403641Y27630000D01*
%TO.C,IC103*%
X-16700000Y30465000D02*
X-16940000Y30795000D01*
X-16460000Y30795000D01*
X-16700000Y30465000D01*
G36*
X-16700000Y30465000D02*
G01*
X-16940000Y30795000D01*
X-16460000Y30795000D01*
X-16700000Y30465000D01*
G37*
X-14000000Y25440000D02*
X-12050000Y25440000D01*
X-14000000Y25440000D02*
X-15950000Y25440000D01*
X-14000000Y30560000D02*
X-12050000Y30560000D01*
X-14000000Y30560000D02*
X-15950000Y30560000D01*
%TO.C,C104*%
X-32642164Y29640000D02*
X-32857836Y29640000D01*
X-32642164Y30360000D02*
X-32857836Y30360000D01*
%TO.C,C103*%
X-32015000Y27511252D02*
X-32015000Y26988748D01*
X-33485000Y27511252D02*
X-33485000Y26988748D01*
%TO.C,R106*%
X-23096359Y29620000D02*
X-23403641Y29620000D01*
X-23096359Y30380000D02*
X-23403641Y30380000D01*
%TO.C,R105*%
X-23096359Y28370000D02*
X-23403641Y28370000D01*
X-23096359Y29130000D02*
X-23403641Y29130000D01*
D12*
%TO.C,J102*%
X-32521200Y24051500D02*
G75*
G02*
X-33283200Y24051500I-381000J0D01*
G01*
X-33283200Y24051500D02*
G75*
G02*
X-32521200Y24051500I381000J0D01*
G01*
D13*
X-24875800Y21460941D02*
X-24875800Y24603500D01*
X-24875800Y24603500D02*
X-25862460Y24603500D01*
X-29870359Y19396501D02*
X-26129641Y19396501D01*
X-30137540Y24603500D02*
X-31124200Y24603500D01*
X-31124200Y24603500D02*
X-31124200Y21460941D01*
D11*
%TO.C,R104*%
X-23096359Y26870000D02*
X-23403641Y26870000D01*
X-23096359Y27630000D02*
X-23403641Y27630000D01*
%TO.C,IC102*%
X-30700000Y30465000D02*
X-30940000Y30795000D01*
X-30460000Y30795000D01*
X-30700000Y30465000D01*
G36*
X-30700000Y30465000D02*
G01*
X-30940000Y30795000D01*
X-30460000Y30795000D01*
X-30700000Y30465000D01*
G37*
X-28000000Y25440000D02*
X-26050000Y25440000D01*
X-28000000Y25440000D02*
X-29950000Y25440000D01*
X-28000000Y30560000D02*
X-26050000Y30560000D01*
X-28000000Y30560000D02*
X-29950000Y30560000D01*
D14*
%TO.C,mouse-bite-2mm-slot15*%
X2000000Y3000000D02*
G75*
G02*
X2000000Y5000000I0J1000000D01*
G01*
X-2000000Y5000000D02*
G75*
G02*
X-2000000Y3000000I0J-1000000D01*
G01*
D11*
%TO.C,IC101*%
X25300000Y-25535000D02*
X25060000Y-25205000D01*
X25540000Y-25205000D01*
X25300000Y-25535000D01*
G36*
X25300000Y-25535000D02*
G01*
X25060000Y-25205000D01*
X25540000Y-25205000D01*
X25300000Y-25535000D01*
G37*
X28000000Y-30560000D02*
X29950000Y-30560000D01*
X28000000Y-30560000D02*
X26050000Y-30560000D01*
X28000000Y-25440000D02*
X29950000Y-25440000D01*
X28000000Y-25440000D02*
X26050000Y-25440000D01*
%TO.C,R101*%
X32903641Y-29130000D02*
X32596359Y-29130000D01*
X32903641Y-28370000D02*
X32596359Y-28370000D01*
D12*
%TO.C,J101*%
X23478800Y-31948500D02*
G75*
G02*
X22716800Y-31948500I-381000J0D01*
G01*
X22716800Y-31948500D02*
G75*
G02*
X23478800Y-31948500I381000J0D01*
G01*
D13*
X31124200Y-34539059D02*
X31124200Y-31396500D01*
X31124200Y-31396500D02*
X30137540Y-31396500D01*
X26129641Y-36603499D02*
X29870359Y-36603499D01*
X25862460Y-31396500D02*
X24875800Y-31396500D01*
X24875800Y-31396500D02*
X24875800Y-34539059D01*
D11*
%TO.C,R102*%
X32903641Y-27630000D02*
X32596359Y-27630000D01*
X32903641Y-26870000D02*
X32596359Y-26870000D01*
%TO.C,R103*%
X32903641Y-26380000D02*
X32596359Y-26380000D01*
X32903641Y-25620000D02*
X32596359Y-25620000D01*
%TO.C,C101*%
X23985000Y-28488748D02*
X23985000Y-29011252D01*
X22515000Y-28488748D02*
X22515000Y-29011252D01*
%TO.C,C102*%
X23357836Y-26360000D02*
X23142164Y-26360000D01*
X23357836Y-25640000D02*
X23142164Y-25640000D01*
D14*
%TO.C,mouse-bite-2mm-slot7*%
X12000000Y19000000D02*
G75*
G02*
X12000000Y17000000I0J-1000000D01*
G01*
X16000000Y17000000D02*
G75*
G02*
X16000000Y19000000I0J1000000D01*
G01*
%TO.C,mouse-bite-2mm-slot9*%
X26000000Y19000000D02*
G75*
G02*
X26000000Y17000000I0J-1000000D01*
G01*
X30000000Y17000000D02*
G75*
G02*
X30000000Y19000000I0J1000000D01*
G01*
%TO.C,mouse-bite-2mm-slot30*%
X20000000Y-1500000D02*
G75*
G02*
X22000000Y-1500000I1000000J0D01*
G01*
X22000000Y2500000D02*
G75*
G02*
X20000000Y2500000I-1000000J0D01*
G01*
%TO.C,mouse-bite-2mm-slot37*%
X12000000Y-23000000D02*
G75*
G02*
X12000000Y-25000000I0J-1000000D01*
G01*
X16000000Y-25000000D02*
G75*
G02*
X16000000Y-23000000I0J1000000D01*
G01*
%TO.C,mouse-bite-2mm-slot11*%
X-30000000Y5000000D02*
G75*
G02*
X-30000000Y3000000I0J-1000000D01*
G01*
X-26000000Y3000000D02*
G75*
G02*
X-26000000Y5000000I0J1000000D01*
G01*
%TO.C,mouse-bite-2mm-slot36*%
X-8000000Y-15500000D02*
G75*
G02*
X-6000000Y-15500000I1000000J0D01*
G01*
X-6000000Y-11500000D02*
G75*
G02*
X-8000000Y-11500000I-1000000J0D01*
G01*
%TO.C,mouse-bite-2mm-slot39*%
X26000000Y-23000000D02*
G75*
G02*
X26000000Y-25000000I0J-1000000D01*
G01*
X30000000Y-25000000D02*
G75*
G02*
X30000000Y-23000000I0J1000000D01*
G01*
%TO.C,mouse-bite-2mm-slot*%
X26000000Y-37000000D02*
G75*
G02*
X26000000Y-39000000I0J-1000000D01*
G01*
X30000000Y-39000000D02*
G75*
G02*
X30000000Y-37000000I0J1000000D01*
G01*
%TO.C,mouse-bite-2mm-slot27*%
X12000000Y-9000000D02*
G75*
G02*
X12000000Y-11000000I0J-1000000D01*
G01*
X16000000Y-11000000D02*
G75*
G02*
X16000000Y-9000000I0J1000000D01*
G01*
%TO.C,mouse-bite-2mm-slot*%
X-30000000Y33000000D02*
G75*
G02*
X-30000000Y31000000I0J-1000000D01*
G01*
X-26000000Y31000000D02*
G75*
G02*
X-26000000Y33000000I0J1000000D01*
G01*
X20000000Y-29500000D02*
G75*
G02*
X22000000Y-29500000I1000000J0D01*
G01*
X22000000Y-25500000D02*
G75*
G02*
X20000000Y-25500000I-1000000J0D01*
G01*
%TO.C,mouse-bite-2mm-slot35*%
X-2000000Y-23000000D02*
G75*
G02*
X-2000000Y-25000000I0J-1000000D01*
G01*
X2000000Y-25000000D02*
G75*
G02*
X2000000Y-23000000I0J1000000D01*
G01*
%TO.C,mouse-bite-2mm-slot43*%
X12000000Y33000000D02*
G75*
G02*
X12000000Y31000000I0J-1000000D01*
G01*
X16000000Y31000000D02*
G75*
G02*
X16000000Y33000000I0J1000000D01*
G01*
X-16000000Y-37000000D02*
G75*
G02*
X-16000000Y-39000000I0J-1000000D01*
G01*
X-12000000Y-39000000D02*
G75*
G02*
X-12000000Y-37000000I0J1000000D01*
G01*
%TO.C,mouse-bite-2mm-slot14*%
X-22000000Y12500000D02*
G75*
G02*
X-20000000Y12500000I1000000J0D01*
G01*
X-20000000Y16500000D02*
G75*
G02*
X-22000000Y16500000I-1000000J0D01*
G01*
%TO.C,mouse-bite-2mm-slot25*%
X-2000000Y-9000000D02*
G75*
G02*
X-2000000Y-11000000I0J-1000000D01*
G01*
X2000000Y-11000000D02*
G75*
G02*
X2000000Y-9000000I0J1000000D01*
G01*
%TO.C,mouse-bite-2mm-slot31*%
X-30000000Y-23000000D02*
G75*
G02*
X-30000000Y-25000000I0J-1000000D01*
G01*
X-26000000Y-25000000D02*
G75*
G02*
X-26000000Y-23000000I0J1000000D01*
G01*
%TO.C,mouse-bite-2mm-slot21*%
X-30000000Y-9000000D02*
G75*
G02*
X-30000000Y-11000000I0J-1000000D01*
G01*
X-26000000Y-11000000D02*
G75*
G02*
X-26000000Y-9000000I0J1000000D01*
G01*
%TO.C,mouse-bite-2mm-slot40*%
X20000000Y-15500000D02*
G75*
G02*
X22000000Y-15500000I1000000J0D01*
G01*
X22000000Y-11500000D02*
G75*
G02*
X20000000Y-11500000I-1000000J0D01*
G01*
%TO.C,mouse-bite-2mm-slot41*%
X26000000Y33000000D02*
G75*
G02*
X26000000Y31000000I0J-1000000D01*
G01*
X30000000Y31000000D02*
G75*
G02*
X30000000Y33000000I0J1000000D01*
G01*
%TO.C,mouse-bite-2mm-slot44*%
X-22000000Y-29500000D02*
G75*
G02*
X-20000000Y-29500000I1000000J0D01*
G01*
X-20000000Y-25500000D02*
G75*
G02*
X-22000000Y-25500000I-1000000J0D01*
G01*
%TO.C,mouse-bite-2mm-slot34*%
X-22000000Y-15500000D02*
G75*
G02*
X-20000000Y-15500000I1000000J0D01*
G01*
X-20000000Y-11500000D02*
G75*
G02*
X-22000000Y-11500000I-1000000J0D01*
G01*
%TO.C,mouse-bite-2mm-slot28*%
X6000000Y-1500000D02*
G75*
G02*
X8000000Y-1500000I1000000J0D01*
G01*
X8000000Y2500000D02*
G75*
G02*
X6000000Y2500000I-1000000J0D01*
G01*
%TO.C,mouse-bite-2mm-slot38*%
X6000000Y-15500000D02*
G75*
G02*
X8000000Y-15500000I1000000J0D01*
G01*
X8000000Y-11500000D02*
G75*
G02*
X6000000Y-11500000I-1000000J0D01*
G01*
%TO.C,mouse-bite-2mm-slot45*%
X-2000000Y33000000D02*
G75*
G02*
X-2000000Y31000000I0J-1000000D01*
G01*
X2000000Y31000000D02*
G75*
G02*
X2000000Y33000000I0J1000000D01*
G01*
%TO.C,mouse-bite-2mm-slot48*%
X6000000Y-29500000D02*
G75*
G02*
X8000000Y-29500000I1000000J0D01*
G01*
X8000000Y-25500000D02*
G75*
G02*
X6000000Y-25500000I-1000000J0D01*
G01*
%TO.C,mouse-bite-2mm-slot5*%
X-2000000Y19000000D02*
G75*
G02*
X-2000000Y17000000I0J-1000000D01*
G01*
X2000000Y17000000D02*
G75*
G02*
X2000000Y19000000I0J1000000D01*
G01*
%TO.C,mouse-bite-2mm-slot1*%
X-30000000Y19000000D02*
G75*
G02*
X-30000000Y17000000I0J-1000000D01*
G01*
X-26000000Y17000000D02*
G75*
G02*
X-26000000Y19000000I0J1000000D01*
G01*
%TO.C,mouse-bite-2mm-slot47*%
X-16000000Y33000000D02*
G75*
G02*
X-16000000Y31000000I0J-1000000D01*
G01*
X-12000000Y31000000D02*
G75*
G02*
X-12000000Y33000000I0J1000000D01*
G01*
%TO.C,mouse-bite-2mm-slot17*%
X12000000Y5000000D02*
G75*
G02*
X12000000Y3000000I0J-1000000D01*
G01*
X16000000Y3000000D02*
G75*
G02*
X16000000Y5000000I0J1000000D01*
G01*
%TO.C,mouse-bite-2mm-slot20*%
X20000000Y12500000D02*
G75*
G02*
X22000000Y12500000I1000000J0D01*
G01*
X22000000Y16500000D02*
G75*
G02*
X20000000Y16500000I-1000000J0D01*
G01*
%TO.C,mouse-bite-2mm-slot6*%
X-8000000Y26500000D02*
G75*
G02*
X-6000000Y26500000I1000000J0D01*
G01*
X-6000000Y30500000D02*
G75*
G02*
X-8000000Y30500000I-1000000J0D01*
G01*
%TO.C,mouse-bite-2mm-slot3*%
X-16000000Y19000000D02*
G75*
G02*
X-16000000Y17000000I0J-1000000D01*
G01*
X-12000000Y17000000D02*
G75*
G02*
X-12000000Y19000000I0J1000000D01*
G01*
%TO.C,mouse-bite-2mm-slot45*%
X-2000000Y-37000000D02*
G75*
G02*
X-2000000Y-39000000I0J-1000000D01*
G01*
X2000000Y-39000000D02*
G75*
G02*
X2000000Y-37000000I0J1000000D01*
G01*
%TO.C,mouse-bite-2mm-slot47*%
X12000000Y-37000000D02*
G75*
G02*
X12000000Y-39000000I0J-1000000D01*
G01*
X16000000Y-39000000D02*
G75*
G02*
X16000000Y-37000000I0J1000000D01*
G01*
%TO.C,mouse-bite-2mm-slot29*%
X26000000Y-9000000D02*
G75*
G02*
X26000000Y-11000000I0J-1000000D01*
G01*
X30000000Y-11000000D02*
G75*
G02*
X30000000Y-9000000I0J1000000D01*
G01*
%TO.C,mouse-bite-2mm-slot10*%
X20000000Y26500000D02*
G75*
G02*
X22000000Y26500000I1000000J0D01*
G01*
X22000000Y30500000D02*
G75*
G02*
X20000000Y30500000I-1000000J0D01*
G01*
%TO.C,mouse-bite-2mm-slot33*%
X-16000000Y-23000000D02*
G75*
G02*
X-16000000Y-25000000I0J-1000000D01*
G01*
X-12000000Y-25000000D02*
G75*
G02*
X-12000000Y-23000000I0J1000000D01*
G01*
%TO.C,mouse-bite-2mm-slot19*%
X26000000Y5000000D02*
G75*
G02*
X26000000Y3000000I0J-1000000D01*
G01*
X30000000Y3000000D02*
G75*
G02*
X30000000Y5000000I0J1000000D01*
G01*
%TO.C,mouse-bite-2mm-slot4*%
X-22000000Y26500000D02*
G75*
G02*
X-20000000Y26500000I1000000J0D01*
G01*
X-20000000Y30500000D02*
G75*
G02*
X-22000000Y30500000I-1000000J0D01*
G01*
%TO.C,mouse-bite-2mm-slot46*%
X-8000000Y-29500000D02*
G75*
G02*
X-6000000Y-29500000I1000000J0D01*
G01*
X-6000000Y-25500000D02*
G75*
G02*
X-8000000Y-25500000I-1000000J0D01*
G01*
%TO.C,mouse-bite-2mm-slot8*%
X6000000Y26500000D02*
G75*
G02*
X8000000Y26500000I1000000J0D01*
G01*
X8000000Y30500000D02*
G75*
G02*
X6000000Y30500000I-1000000J0D01*
G01*
%TO.C,mouse-bite-2mm-slot18*%
X6000000Y12500000D02*
G75*
G02*
X8000000Y12500000I1000000J0D01*
G01*
X8000000Y16500000D02*
G75*
G02*
X6000000Y16500000I-1000000J0D01*
G01*
%TO.C,mouse-bite-2mm-slot41*%
X-30000000Y-37000000D02*
G75*
G02*
X-30000000Y-39000000I0J-1000000D01*
G01*
X-26000000Y-39000000D02*
G75*
G02*
X-26000000Y-37000000I0J1000000D01*
G01*
%TO.C,mouse-bite-2mm-slot24*%
X-22000000Y-1500000D02*
G75*
G02*
X-20000000Y-1500000I1000000J0D01*
G01*
X-20000000Y2500000D02*
G75*
G02*
X-22000000Y2500000I-1000000J0D01*
G01*
%TO.C,mouse-bite-2mm-slot13*%
X-16000000Y5000000D02*
G75*
G02*
X-16000000Y3000000I0J-1000000D01*
G01*
X-12000000Y3000000D02*
G75*
G02*
X-12000000Y5000000I0J1000000D01*
G01*
%TO.C,mouse-bite-2mm-slot26*%
X-8000000Y-1500000D02*
G75*
G02*
X-6000000Y-1500000I1000000J0D01*
G01*
X-6000000Y2500000D02*
G75*
G02*
X-8000000Y2500000I-1000000J0D01*
G01*
%TO.C,mouse-bite-2mm-slot16*%
X-8000000Y12500000D02*
G75*
G02*
X-6000000Y12500000I1000000J0D01*
G01*
X-6000000Y16500000D02*
G75*
G02*
X-8000000Y16500000I-1000000J0D01*
G01*
%TO.C,mouse-bite-2mm-slot23*%
X-16000000Y-9000000D02*
G75*
G02*
X-16000000Y-11000000I0J-1000000D01*
G01*
X-12000000Y-11000000D02*
G75*
G02*
X-12000000Y-9000000I0J1000000D01*
G01*
%TD*%
M02*
