%TF.GenerationSoftware,KiCad,Pcbnew,9.0.3*%
%TF.CreationDate,2026-09-12T02:00:34-04:00*%
%TF.ProjectId,Microcoder-panel,4d696372-6f63-46f6-9465-722d70616e65,rev?*%
%TF.SameCoordinates,Original*%
%TF.FileFunction,Profile,NP*%
%FSLAX46Y46*%
G04 Gerber Fmt 4.6, Leading zero omitted, Abs format (unit mm)*
G04 Created by KiCad (PCBNEW 9.0.3) date 2026-09-12 02:00:34*
%MOMM*%
%LPD*%
G01*
G04 APERTURE LIST*
%TA.AperFunction,Profile*%
%ADD10C,0.050000*%
%TD*%
G04 APERTURE END LIST*
D10*
X-34000000Y30500000D02*
X-34000000Y26500000D01*
X-34000000Y16500000D02*
X-34000000Y12500000D01*
X-34000000Y2500000D02*
X-34000000Y-1500000D01*
X-34000000Y-11500000D02*
X-34000000Y-15500000D01*
X-34000000Y-25500000D02*
X-34000000Y-29500000D01*
X34000000Y-25500000D02*
X34000000Y-29500000D01*
X34000000Y-11500000D02*
X34000000Y-15500000D01*
X34000000Y2500000D02*
X34000000Y-1500000D01*
X34000000Y16500000D02*
X34000000Y12500000D01*
X34000000Y30500000D02*
X34000000Y26500000D01*
X8000000Y-30000000D02*
X8000000Y-29500000D01*
X20000000Y-29500000D02*
X20000000Y-30000000D01*
X20000000Y-25000000D02*
X20000000Y-25500000D01*
X8000000Y-25500000D02*
X8000000Y-25000000D01*
X8000000Y-25000000D02*
X12000000Y-25000000D01*
X16000000Y-37000000D02*
X17750000Y-37000000D01*
X16000000Y-25000000D02*
X20000000Y-25000000D01*
X12000000Y-37000000D02*
X10250000Y-37000000D01*
X17750000Y-37000000D02*
X20000000Y-30000000D01*
X8000000Y-30000000D02*
X10250000Y-37000000D01*
X-6000000Y-30000000D02*
X-6000000Y-29500000D01*
X6000000Y-29500000D02*
X6000000Y-30000000D01*
X6000000Y-25000000D02*
X6000000Y-25500000D01*
X-6000000Y-25500000D02*
X-6000000Y-25000000D01*
X-6000000Y-25000000D02*
X-2000000Y-25000000D01*
X2000000Y-37000000D02*
X3750000Y-37000000D01*
X2000000Y-25000000D02*
X6000000Y-25000000D01*
X-2000000Y-37000000D02*
X-3750000Y-37000000D01*
X3750000Y-37000000D02*
X6000000Y-30000000D01*
X-6000000Y-30000000D02*
X-3750000Y-37000000D01*
X-20000000Y-30000000D02*
X-20000000Y-29500000D01*
X-8000000Y-29500000D02*
X-8000000Y-30000000D01*
X-8000000Y-25000000D02*
X-8000000Y-25500000D01*
X-20000000Y-25500000D02*
X-20000000Y-25000000D01*
X-20000000Y-25000000D02*
X-16000000Y-25000000D01*
X-12000000Y-37000000D02*
X-10250000Y-37000000D01*
X-12000000Y-25000000D02*
X-8000000Y-25000000D01*
X-16000000Y-37000000D02*
X-17750000Y-37000000D01*
X-10250000Y-37000000D02*
X-8000000Y-30000000D01*
X-20000000Y-30000000D02*
X-17750000Y-37000000D01*
X-34000000Y-30000000D02*
X-34000000Y-29500000D01*
X-22000000Y-29500000D02*
X-22000000Y-30000000D01*
X-22000000Y-25000000D02*
X-22000000Y-25500000D01*
X-34000000Y-25500000D02*
X-34000000Y-25000000D01*
X-34000000Y-25000000D02*
X-30000000Y-25000000D01*
X-26000000Y-37000000D02*
X-24250000Y-37000000D01*
X-26000000Y-25000000D02*
X-22000000Y-25000000D01*
X-30000000Y-37000000D02*
X-31750000Y-37000000D01*
X-24250000Y-37000000D02*
X-22000000Y-30000000D01*
X-34000000Y-30000000D02*
X-31750000Y-37000000D01*
X22000000Y-16000000D02*
X22000000Y-15500000D01*
X34000000Y-15500000D02*
X34000000Y-16000000D01*
X34000000Y-11000000D02*
X34000000Y-11500000D01*
X22000000Y-11500000D02*
X22000000Y-11000000D01*
X22000000Y-11000000D02*
X26000000Y-11000000D01*
X30000000Y-23000000D02*
X31750000Y-23000000D01*
X30000000Y-11000000D02*
X34000000Y-11000000D01*
X26000000Y-23000000D02*
X24250000Y-23000000D01*
X31750000Y-23000000D02*
X34000000Y-16000000D01*
X22000000Y-16000000D02*
X24250000Y-23000000D01*
X8000000Y-16000000D02*
X8000000Y-15500000D01*
X20000000Y-15500000D02*
X20000000Y-16000000D01*
X20000000Y-11000000D02*
X20000000Y-11500000D01*
X8000000Y-11500000D02*
X8000000Y-11000000D01*
X8000000Y-11000000D02*
X12000000Y-11000000D01*
X16000000Y-23000000D02*
X17750000Y-23000000D01*
X16000000Y-11000000D02*
X20000000Y-11000000D01*
X12000000Y-23000000D02*
X10250000Y-23000000D01*
X17750000Y-23000000D02*
X20000000Y-16000000D01*
X8000000Y-16000000D02*
X10250000Y-23000000D01*
X-6000000Y-16000000D02*
X-6000000Y-15500000D01*
X6000000Y-15500000D02*
X6000000Y-16000000D01*
X6000000Y-11000000D02*
X6000000Y-11500000D01*
X-6000000Y-11500000D02*
X-6000000Y-11000000D01*
X-6000000Y-11000000D02*
X-2000000Y-11000000D01*
X2000000Y-23000000D02*
X3750000Y-23000000D01*
X2000000Y-11000000D02*
X6000000Y-11000000D01*
X-2000000Y-23000000D02*
X-3750000Y-23000000D01*
X3750000Y-23000000D02*
X6000000Y-16000000D01*
X-6000000Y-16000000D02*
X-3750000Y-23000000D01*
X-20000000Y-16000000D02*
X-20000000Y-15500000D01*
X-8000000Y-15500000D02*
X-8000000Y-16000000D01*
X-8000000Y-11000000D02*
X-8000000Y-11500000D01*
X-20000000Y-11500000D02*
X-20000000Y-11000000D01*
X-20000000Y-11000000D02*
X-16000000Y-11000000D01*
X-12000000Y-23000000D02*
X-10250000Y-23000000D01*
X-12000000Y-11000000D02*
X-8000000Y-11000000D01*
X-16000000Y-23000000D02*
X-17750000Y-23000000D01*
X-10250000Y-23000000D02*
X-8000000Y-16000000D01*
X-20000000Y-16000000D02*
X-17750000Y-23000000D01*
X-34000000Y-16000000D02*
X-34000000Y-15500000D01*
X-22000000Y-15500000D02*
X-22000000Y-16000000D01*
X-22000000Y-11000000D02*
X-22000000Y-11500000D01*
X-34000000Y-11500000D02*
X-34000000Y-11000000D01*
X-34000000Y-11000000D02*
X-30000000Y-11000000D01*
X-26000000Y-23000000D02*
X-24250000Y-23000000D01*
X-26000000Y-11000000D02*
X-22000000Y-11000000D01*
X-30000000Y-23000000D02*
X-31750000Y-23000000D01*
X-24250000Y-23000000D02*
X-22000000Y-16000000D01*
X-34000000Y-16000000D02*
X-31750000Y-23000000D01*
X22000000Y-2000000D02*
X22000000Y-1500000D01*
X34000000Y-1500000D02*
X34000000Y-2000000D01*
X34000000Y3000000D02*
X34000000Y2500000D01*
X22000000Y2500000D02*
X22000000Y3000000D01*
X22000000Y3000000D02*
X26000000Y3000000D01*
X30000000Y-9000000D02*
X31750000Y-9000000D01*
X30000000Y3000000D02*
X34000000Y3000000D01*
X26000000Y-9000000D02*
X24250000Y-9000000D01*
X31750000Y-9000000D02*
X34000000Y-2000000D01*
X22000000Y-2000000D02*
X24250000Y-9000000D01*
X8000000Y-2000000D02*
X8000000Y-1500000D01*
X20000000Y-1500000D02*
X20000000Y-2000000D01*
X20000000Y3000000D02*
X20000000Y2500000D01*
X8000000Y2500000D02*
X8000000Y3000000D01*
X8000000Y3000000D02*
X12000000Y3000000D01*
X16000000Y-9000000D02*
X17750000Y-9000000D01*
X16000000Y3000000D02*
X20000000Y3000000D01*
X12000000Y-9000000D02*
X10250000Y-9000000D01*
X17750000Y-9000000D02*
X20000000Y-2000000D01*
X8000000Y-2000000D02*
X10250000Y-9000000D01*
X-6000000Y-2000000D02*
X-6000000Y-1500000D01*
X6000000Y-1500000D02*
X6000000Y-2000000D01*
X6000000Y3000000D02*
X6000000Y2500000D01*
X-6000000Y2500000D02*
X-6000000Y3000000D01*
X-6000000Y3000000D02*
X-2000000Y3000000D01*
X2000000Y-9000000D02*
X3750000Y-9000000D01*
X2000000Y3000000D02*
X6000000Y3000000D01*
X-2000000Y-9000000D02*
X-3750000Y-9000000D01*
X3750000Y-9000000D02*
X6000000Y-2000000D01*
X-6000000Y-2000000D02*
X-3750000Y-9000000D01*
X-20000000Y-2000000D02*
X-20000000Y-1500000D01*
X-8000000Y-1500000D02*
X-8000000Y-2000000D01*
X-8000000Y3000000D02*
X-8000000Y2500000D01*
X-20000000Y2500000D02*
X-20000000Y3000000D01*
X-20000000Y3000000D02*
X-16000000Y3000000D01*
X-12000000Y-9000000D02*
X-10250000Y-9000000D01*
X-12000000Y3000000D02*
X-8000000Y3000000D01*
X-16000000Y-9000000D02*
X-17750000Y-9000000D01*
X-10250000Y-9000000D02*
X-8000000Y-2000000D01*
X-20000000Y-2000000D02*
X-17750000Y-9000000D01*
X-34000000Y-2000000D02*
X-34000000Y-1500000D01*
X-22000000Y-1500000D02*
X-22000000Y-2000000D01*
X-22000000Y3000000D02*
X-22000000Y2500000D01*
X-34000000Y2500000D02*
X-34000000Y3000000D01*
X-34000000Y3000000D02*
X-30000000Y3000000D01*
X-26000000Y-9000000D02*
X-24250000Y-9000000D01*
X-26000000Y3000000D02*
X-22000000Y3000000D01*
X-30000000Y-9000000D02*
X-31750000Y-9000000D01*
X-24250000Y-9000000D02*
X-22000000Y-2000000D01*
X-34000000Y-2000000D02*
X-31750000Y-9000000D01*
X22000000Y12000000D02*
X22000000Y12500000D01*
X34000000Y12500000D02*
X34000000Y12000000D01*
X34000000Y17000000D02*
X34000000Y16500000D01*
X22000000Y16500000D02*
X22000000Y17000000D01*
X22000000Y17000000D02*
X26000000Y17000000D01*
X30000000Y5000000D02*
X31750000Y5000000D01*
X30000000Y17000000D02*
X34000000Y17000000D01*
X26000000Y5000000D02*
X24250000Y5000000D01*
X31750000Y5000000D02*
X34000000Y12000000D01*
X22000000Y12000000D02*
X24250000Y5000000D01*
X8000000Y12000000D02*
X8000000Y12500000D01*
X20000000Y12500000D02*
X20000000Y12000000D01*
X20000000Y17000000D02*
X20000000Y16500000D01*
X8000000Y16500000D02*
X8000000Y17000000D01*
X8000000Y17000000D02*
X12000000Y17000000D01*
X16000000Y5000000D02*
X17750000Y5000000D01*
X16000000Y17000000D02*
X20000000Y17000000D01*
X12000000Y5000000D02*
X10250000Y5000000D01*
X17750000Y5000000D02*
X20000000Y12000000D01*
X8000000Y12000000D02*
X10250000Y5000000D01*
X-6000000Y12000000D02*
X-6000000Y12500000D01*
X6000000Y12500000D02*
X6000000Y12000000D01*
X6000000Y17000000D02*
X6000000Y16500000D01*
X-6000000Y16500000D02*
X-6000000Y17000000D01*
X-6000000Y17000000D02*
X-2000000Y17000000D01*
X2000000Y5000000D02*
X3750000Y5000000D01*
X2000000Y17000000D02*
X6000000Y17000000D01*
X-2000000Y5000000D02*
X-3750000Y5000000D01*
X3750000Y5000000D02*
X6000000Y12000000D01*
X-6000000Y12000000D02*
X-3750000Y5000000D01*
X-20000000Y12000000D02*
X-20000000Y12500000D01*
X-8000000Y12500000D02*
X-8000000Y12000000D01*
X-8000000Y17000000D02*
X-8000000Y16500000D01*
X-20000000Y16500000D02*
X-20000000Y17000000D01*
X-20000000Y17000000D02*
X-16000000Y17000000D01*
X-12000000Y5000000D02*
X-10250000Y5000000D01*
X-12000000Y17000000D02*
X-8000000Y17000000D01*
X-16000000Y5000000D02*
X-17750000Y5000000D01*
X-10250000Y5000000D02*
X-8000000Y12000000D01*
X-20000000Y12000000D02*
X-17750000Y5000000D01*
X-34000000Y12000000D02*
X-34000000Y12500000D01*
X-22000000Y12500000D02*
X-22000000Y12000000D01*
X-22000000Y17000000D02*
X-22000000Y16500000D01*
X-34000000Y16500000D02*
X-34000000Y17000000D01*
X-34000000Y17000000D02*
X-30000000Y17000000D01*
X-26000000Y5000000D02*
X-24250000Y5000000D01*
X-26000000Y17000000D02*
X-22000000Y17000000D01*
X-30000000Y5000000D02*
X-31750000Y5000000D01*
X-24250000Y5000000D02*
X-22000000Y12000000D01*
X-34000000Y12000000D02*
X-31750000Y5000000D01*
X22000000Y26000000D02*
X22000000Y26500000D01*
X34000000Y26500000D02*
X34000000Y26000000D01*
X34000000Y31000000D02*
X34000000Y30500000D01*
X22000000Y30500000D02*
X22000000Y31000000D01*
X22000000Y31000000D02*
X26000000Y31000000D01*
X30000000Y19000000D02*
X31750000Y19000000D01*
X30000000Y31000000D02*
X34000000Y31000000D01*
X26000000Y19000000D02*
X24250000Y19000000D01*
X31750000Y19000000D02*
X34000000Y26000000D01*
X22000000Y26000000D02*
X24250000Y19000000D01*
X8000000Y26000000D02*
X8000000Y26500000D01*
X20000000Y26500000D02*
X20000000Y26000000D01*
X20000000Y31000000D02*
X20000000Y30500000D01*
X8000000Y30500000D02*
X8000000Y31000000D01*
X8000000Y31000000D02*
X12000000Y31000000D01*
X16000000Y19000000D02*
X17750000Y19000000D01*
X16000000Y31000000D02*
X20000000Y31000000D01*
X12000000Y19000000D02*
X10250000Y19000000D01*
X17750000Y19000000D02*
X20000000Y26000000D01*
X8000000Y26000000D02*
X10250000Y19000000D01*
X-6000000Y26000000D02*
X-6000000Y26500000D01*
X6000000Y26500000D02*
X6000000Y26000000D01*
X6000000Y31000000D02*
X6000000Y30500000D01*
X-6000000Y30500000D02*
X-6000000Y31000000D01*
X-6000000Y31000000D02*
X-2000000Y31000000D01*
X2000000Y19000000D02*
X3750000Y19000000D01*
X2000000Y31000000D02*
X6000000Y31000000D01*
X-2000000Y19000000D02*
X-3750000Y19000000D01*
X3750000Y19000000D02*
X6000000Y26000000D01*
X-6000000Y26000000D02*
X-3750000Y19000000D01*
X-20000000Y26000000D02*
X-20000000Y26500000D01*
X-8000000Y26500000D02*
X-8000000Y26000000D01*
X-8000000Y31000000D02*
X-8000000Y30500000D01*
X-20000000Y30500000D02*
X-20000000Y31000000D01*
X-20000000Y31000000D02*
X-16000000Y31000000D01*
X-12000000Y19000000D02*
X-10250000Y19000000D01*
X-12000000Y31000000D02*
X-8000000Y31000000D01*
X-16000000Y19000000D02*
X-17750000Y19000000D01*
X-10250000Y19000000D02*
X-8000000Y26000000D01*
X-20000000Y26000000D02*
X-17750000Y19000000D01*
X-34000000Y26000000D02*
X-34000000Y26500000D01*
X-22000000Y26500000D02*
X-22000000Y26000000D01*
X-22000000Y31000000D02*
X-22000000Y30500000D01*
X-34000000Y30500000D02*
X-34000000Y31000000D01*
X-34000000Y31000000D02*
X-30000000Y31000000D01*
X-26000000Y19000000D02*
X-24250000Y19000000D01*
X-26000000Y31000000D02*
X-22000000Y31000000D01*
X-30000000Y19000000D02*
X-31750000Y19000000D01*
X-24250000Y19000000D02*
X-22000000Y26000000D01*
X-34000000Y26000000D02*
X-31750000Y19000000D01*
X22000000Y-25500000D02*
X22000000Y-25000000D01*
X22000000Y-30000000D02*
X22000000Y-29500000D01*
X34000000Y-29500000D02*
X34000000Y-30000000D01*
X34000000Y-25000000D02*
X34000000Y-25500000D01*
X30000000Y-25000000D02*
X34000000Y-25000000D01*
X22000000Y-25000000D02*
X26000000Y-25000000D01*
X26000000Y-37000000D02*
X24250000Y-37000000D01*
X30000000Y-37000000D02*
X31750000Y-37000000D01*
X-2000000Y5000000D02*
G75*
G02*
X-2000000Y3000000I0J-1000000D01*
G01*
X2000000Y3000000D02*
G75*
G02*
X2000000Y5000000I0J1000000D01*
G01*
X22000000Y-30000000D02*
X24250000Y-37000000D01*
X31750000Y-37000000D02*
X34000000Y-30000000D01*
X30000000Y-11000000D02*
G75*
G02*
X30000000Y-9000000I0J1000000D01*
G01*
X2000000Y33000000D02*
X12000000Y33000000D01*
X-30000000Y-23000000D02*
G75*
G02*
X-30000000Y-25000000I0J-1000000D01*
G01*
X6000000Y12500000D02*
G75*
G02*
X8000000Y12500000I1000000J0D01*
G01*
X-26000000Y17000000D02*
G75*
G02*
X-26000000Y19000000I0J1000000D01*
G01*
X-22000000Y26500000D02*
G75*
G02*
X-20000000Y26500000I1000000J0D01*
G01*
X-8000000Y26500000D02*
G75*
G02*
X-6000000Y26500000I1000000J0D01*
G01*
X-22000000Y-1500000D02*
G75*
G02*
X-20000000Y-1500000I1000000J0D01*
G01*
X-6000000Y-11500000D02*
G75*
G02*
X-8000000Y-11500000I-1000000J0D01*
G01*
X30000000Y31000000D02*
G75*
G02*
X30000000Y33000000I0J1000000D01*
G01*
X22000000Y30500000D02*
G75*
G02*
X20000000Y30500000I-1000000J0D01*
G01*
X26000000Y-9000000D02*
G75*
G02*
X26000000Y-11000000I0J-1000000D01*
G01*
X16000000Y3000000D02*
G75*
G02*
X16000000Y5000000I0J1000000D01*
G01*
X-6000000Y2500000D02*
G75*
G02*
X-8000000Y2500000I-1000000J0D01*
G01*
X16000000Y33000000D02*
X26000000Y33000000D01*
X34000000Y37000000D02*
X-34000000Y37000000D01*
X-12000000Y17000000D02*
G75*
G02*
X-12000000Y19000000I0J1000000D01*
G01*
X22000000Y16500000D02*
G75*
G02*
X20000000Y16500000I-1000000J0D01*
G01*
X-6000000Y16500000D02*
G75*
G02*
X-8000000Y16500000I-1000000J0D01*
G01*
X8000000Y16500000D02*
G75*
G02*
X6000000Y16500000I-1000000J0D01*
G01*
X-20000000Y-11500000D02*
G75*
G02*
X-22000000Y-11500000I-1000000J0D01*
G01*
X-26000000Y-39000000D02*
G75*
G02*
X-26000000Y-37000000I0J1000000D01*
G01*
X-30000000Y-39000000D02*
X-34000000Y-39000000D01*
X34000000Y33000000D02*
X34000000Y37000000D01*
X20000000Y26500000D02*
G75*
G02*
X22000000Y26500000I1000000J0D01*
G01*
X-8000000Y12500000D02*
G75*
G02*
X-6000000Y12500000I1000000J0D01*
G01*
X-8000000Y-15500000D02*
G75*
G02*
X-6000000Y-15500000I1000000J0D01*
G01*
X-2000000Y19000000D02*
G75*
G02*
X-2000000Y17000000I0J-1000000D01*
G01*
X2000000Y31000000D02*
G75*
G02*
X2000000Y33000000I0J1000000D01*
G01*
X16000000Y17000000D02*
G75*
G02*
X16000000Y19000000I0J1000000D01*
G01*
X26000000Y-37000000D02*
G75*
G02*
X26000000Y-39000000I0J-1000000D01*
G01*
X-16000000Y-9000000D02*
G75*
G02*
X-16000000Y-11000000I0J-1000000D01*
G01*
X16000000Y-39000000D02*
G75*
G02*
X16000000Y-37000000I0J1000000D01*
G01*
X-34000000Y37000000D02*
X-34000000Y33000000D01*
X26000000Y5000000D02*
G75*
G02*
X26000000Y3000000I0J-1000000D01*
G01*
X6000000Y-29500000D02*
G75*
G02*
X8000000Y-29500000I1000000J0D01*
G01*
X-6000000Y30500000D02*
G75*
G02*
X-8000000Y30500000I-1000000J0D01*
G01*
X-26000000Y31000000D02*
G75*
G02*
X-26000000Y33000000I0J1000000D01*
G01*
X-16000000Y-37000000D02*
G75*
G02*
X-16000000Y-39000000I0J-1000000D01*
G01*
X-26000000Y-25000000D02*
G75*
G02*
X-26000000Y-23000000I0J1000000D01*
G01*
X16000000Y31000000D02*
G75*
G02*
X16000000Y33000000I0J1000000D01*
G01*
X26000000Y-39000000D02*
X16000000Y-39000000D01*
X34000000Y-43000000D02*
X34000000Y-39000000D01*
X6000000Y-1500000D02*
G75*
G02*
X8000000Y-1500000I1000000J0D01*
G01*
X-20000000Y30500000D02*
G75*
G02*
X-22000000Y30500000I-1000000J0D01*
G01*
X-2000000Y-39000000D02*
X-12000000Y-39000000D01*
X-2000000Y33000000D02*
G75*
G02*
X-2000000Y31000000I0J-1000000D01*
G01*
X-16000000Y-39000000D02*
X-26000000Y-39000000D01*
X12000000Y-37000000D02*
G75*
G02*
X12000000Y-39000000I0J-1000000D01*
G01*
X-34000000Y33000000D02*
X-30000000Y33000000D01*
X-12000000Y-39000000D02*
G75*
G02*
X-12000000Y-37000000I0J1000000D01*
G01*
X8000000Y2500000D02*
G75*
G02*
X6000000Y2500000I-1000000J0D01*
G01*
X26000000Y-23000000D02*
G75*
G02*
X26000000Y-25000000I0J-1000000D01*
G01*
X-16000000Y-23000000D02*
G75*
G02*
X-16000000Y-25000000I0J-1000000D01*
G01*
X12000000Y5000000D02*
G75*
G02*
X12000000Y3000000I0J-1000000D01*
G01*
X-16000000Y33000000D02*
G75*
G02*
X-16000000Y31000000I0J-1000000D01*
G01*
X-2000000Y-23000000D02*
G75*
G02*
X-2000000Y-25000000I0J-1000000D01*
G01*
X-22000000Y-15500000D02*
G75*
G02*
X-20000000Y-15500000I1000000J0D01*
G01*
X-22000000Y-29500000D02*
G75*
G02*
X-20000000Y-29500000I1000000J0D01*
G01*
X30000000Y3000000D02*
G75*
G02*
X30000000Y5000000I0J1000000D01*
G01*
X-2000000Y-9000000D02*
G75*
G02*
X-2000000Y-11000000I0J-1000000D01*
G01*
X22000000Y-25500000D02*
G75*
G02*
X20000000Y-25500000I-1000000J0D01*
G01*
X2000000Y-11000000D02*
G75*
G02*
X2000000Y-9000000I0J1000000D01*
G01*
X20000000Y-1500000D02*
G75*
G02*
X22000000Y-1500000I1000000J0D01*
G01*
X-16000000Y19000000D02*
G75*
G02*
X-16000000Y17000000I0J-1000000D01*
G01*
X34000000Y-39000000D02*
X30000000Y-39000000D01*
X8000000Y30500000D02*
G75*
G02*
X6000000Y30500000I-1000000J0D01*
G01*
X16000000Y-11000000D02*
G75*
G02*
X16000000Y-9000000I0J1000000D01*
G01*
X8000000Y-11500000D02*
G75*
G02*
X6000000Y-11500000I-1000000J0D01*
G01*
X12000000Y-9000000D02*
G75*
G02*
X12000000Y-11000000I0J-1000000D01*
G01*
X30000000Y-25000000D02*
G75*
G02*
X30000000Y-23000000I0J1000000D01*
G01*
X-12000000Y33000000D02*
X-2000000Y33000000D01*
X20000000Y-15500000D02*
G75*
G02*
X22000000Y-15500000I1000000J0D01*
G01*
X6000000Y-15500000D02*
G75*
G02*
X8000000Y-15500000I1000000J0D01*
G01*
X12000000Y19000000D02*
G75*
G02*
X12000000Y17000000I0J-1000000D01*
G01*
X2000000Y17000000D02*
G75*
G02*
X2000000Y19000000I0J1000000D01*
G01*
X-8000000Y-1500000D02*
G75*
G02*
X-6000000Y-1500000I1000000J0D01*
G01*
X22000000Y2500000D02*
G75*
G02*
X20000000Y2500000I-1000000J0D01*
G01*
X12000000Y33000000D02*
G75*
G02*
X12000000Y31000000I0J-1000000D01*
G01*
X-34000000Y-39000000D02*
X-34000000Y-43000000D01*
X-30000000Y5000000D02*
G75*
G02*
X-30000000Y3000000I0J-1000000D01*
G01*
X-30000000Y-9000000D02*
G75*
G02*
X-30000000Y-11000000I0J-1000000D01*
G01*
X-26000000Y-11000000D02*
G75*
G02*
X-26000000Y-9000000I0J1000000D01*
G01*
X-22000000Y12500000D02*
G75*
G02*
X-20000000Y12500000I1000000J0D01*
G01*
X26000000Y33000000D02*
G75*
G02*
X26000000Y31000000I0J-1000000D01*
G01*
X30000000Y-39000000D02*
G75*
G02*
X30000000Y-37000000I0J1000000D01*
G01*
X30000000Y17000000D02*
G75*
G02*
X30000000Y19000000I0J1000000D01*
G01*
X30000000Y33000000D02*
X34000000Y33000000D01*
X2000000Y-25000000D02*
G75*
G02*
X2000000Y-23000000I0J1000000D01*
G01*
X6000000Y26500000D02*
G75*
G02*
X8000000Y26500000I1000000J0D01*
G01*
X2000000Y-39000000D02*
G75*
G02*
X2000000Y-37000000I0J1000000D01*
G01*
X12000000Y-39000000D02*
X2000000Y-39000000D01*
X16000000Y-25000000D02*
G75*
G02*
X16000000Y-23000000I0J1000000D01*
G01*
X8000000Y-25500000D02*
G75*
G02*
X6000000Y-25500000I-1000000J0D01*
G01*
X26000000Y19000000D02*
G75*
G02*
X26000000Y17000000I0J-1000000D01*
G01*
X-30000000Y19000000D02*
G75*
G02*
X-30000000Y17000000I0J-1000000D01*
G01*
X-20000000Y2500000D02*
G75*
G02*
X-22000000Y2500000I-1000000J0D01*
G01*
X-26000000Y33000000D02*
X-16000000Y33000000D01*
X-8000000Y-29500000D02*
G75*
G02*
X-6000000Y-29500000I1000000J0D01*
G01*
X-16000000Y5000000D02*
G75*
G02*
X-16000000Y3000000I0J-1000000D01*
G01*
X-6000000Y-25500000D02*
G75*
G02*
X-8000000Y-25500000I-1000000J0D01*
G01*
X-20000000Y-25500000D02*
G75*
G02*
X-22000000Y-25500000I-1000000J0D01*
G01*
X20000000Y12500000D02*
G75*
G02*
X22000000Y12500000I1000000J0D01*
G01*
X-12000000Y-25000000D02*
G75*
G02*
X-12000000Y-23000000I0J1000000D01*
G01*
X-20000000Y16500000D02*
G75*
G02*
X-22000000Y16500000I-1000000J0D01*
G01*
X-26000000Y3000000D02*
G75*
G02*
X-26000000Y5000000I0J1000000D01*
G01*
X-12000000Y31000000D02*
G75*
G02*
X-12000000Y33000000I0J1000000D01*
G01*
X12000000Y-23000000D02*
G75*
G02*
X12000000Y-25000000I0J-1000000D01*
G01*
X-12000000Y3000000D02*
G75*
G02*
X-12000000Y5000000I0J1000000D01*
G01*
X-34000000Y-43000000D02*
X34000000Y-43000000D01*
X-30000000Y-37000000D02*
G75*
G02*
X-30000000Y-39000000I0J-1000000D01*
G01*
X-12000000Y-11000000D02*
G75*
G02*
X-12000000Y-9000000I0J1000000D01*
G01*
X20000000Y-29500000D02*
G75*
G02*
X22000000Y-29500000I1000000J0D01*
G01*
X-2000000Y-37000000D02*
G75*
G02*
X-2000000Y-39000000I0J-1000000D01*
G01*
X-30000000Y33000000D02*
G75*
G02*
X-30000000Y31000000I0J-1000000D01*
G01*
X22000000Y-11500000D02*
G75*
G02*
X20000000Y-11500000I-1000000J0D01*
G01*
M02*
