%TF.GenerationSoftware,KiCad,Pcbnew,9.0.3*%
%TF.CreationDate,2026-09-10T02:21:04-04:00*%
%TF.ProjectId,Microcoder-panel,4d696372-6f63-46f6-9465-722d70616e65,rev?*%
%TF.SameCoordinates,Original*%
%TF.FileFunction,Soldermask,Top*%
%TF.FilePolarity,Negative*%
%FSLAX46Y46*%
G04 Gerber Fmt 4.6, Leading zero omitted, Abs format (unit mm)*
G04 Created by KiCad (PCBNEW 9.0.3) date 2026-09-10 02:21:04*
%MOMM*%
%LPD*%
G01*
G04 APERTURE LIST*
G04 Aperture macros list*
%AMRoundRect*
0 Rectangle with rounded corners*
0 $1 Rounding radius*
0 $2 $3 $4 $5 $6 $7 $8 $9 X,Y pos of 4 corners*
0 Add a 4 corners polygon primitive as box body*
4,1,4,$2,$3,$4,$5,$6,$7,$8,$9,$2,$3,0*
0 Add four circle primitives for the rounded corners*
1,1,$1+$1,$2,$3*
1,1,$1+$1,$4,$5*
1,1,$1+$1,$6,$7*
1,1,$1+$1,$8,$9*
0 Add four rect primitives between the rounded corners*
20,1,$1+$1,$2,$3,$4,$5,0*
20,1,$1+$1,$4,$5,$6,$7,0*
20,1,$1+$1,$6,$7,$8,$9,0*
20,1,$1+$1,$8,$9,$2,$3,0*%
G04 Aperture macros list end*
%ADD10RoundRect,0.250000X-0.475000X0.250000X-0.475000X-0.250000X0.475000X-0.250000X0.475000X0.250000X0*%
%ADD11RoundRect,0.150000X-0.825000X-0.150000X0.825000X-0.150000X0.825000X0.150000X-0.825000X0.150000X0*%
%ADD12RoundRect,0.135000X0.135000X0.185000X-0.135000X0.185000X-0.135000X-0.185000X0.135000X-0.185000X0*%
%ADD13C,0.500000*%
%ADD14RoundRect,0.140000X0.140000X0.170000X-0.140000X0.170000X-0.140000X-0.170000X0.140000X-0.170000X0*%
%ADD15R,0.609600X1.549400*%
%ADD16R,1.193800X1.803400*%
G04 APERTURE END LIST*
D10*
%TO.C,C145*%
X-18750000Y-27800000D03*
X-18750000Y-29700000D03*
%TD*%
D11*
%TO.C,IC101*%
X25525000Y-26095000D03*
X25525000Y-27365000D03*
X25525000Y-28635000D03*
X25525000Y-29905000D03*
X30475000Y-29905000D03*
X30475000Y-28635000D03*
X30475000Y-27365000D03*
X30475000Y-26095000D03*
%TD*%
D12*
%TO.C,R114*%
X19260000Y28750000D03*
X18240000Y28750000D03*
%TD*%
D11*
%TO.C,IC108*%
X-16475000Y15905000D03*
X-16475000Y14635000D03*
X-16475000Y13365000D03*
X-16475000Y12095000D03*
X-11525000Y12095000D03*
X-11525000Y13365000D03*
X-11525000Y14635000D03*
X-11525000Y15905000D03*
%TD*%
D13*
%TO.C,mouse-bite-2mm-slot7*%
X13250000Y18750000D03*
X13250000Y17250000D03*
X14000000Y18750000D03*
X14000000Y17250000D03*
X14750000Y18750000D03*
X14750000Y17250000D03*
%TD*%
D12*
%TO.C,R158*%
X19260000Y-14750000D03*
X18240000Y-14750000D03*
%TD*%
%TO.C,R122*%
X-8740000Y13250000D03*
X-9760000Y13250000D03*
%TD*%
%TO.C,R146*%
X33260000Y-750000D03*
X32240000Y-750000D03*
%TD*%
D14*
%TO.C,C124*%
X-32270000Y2000000D03*
X-33230000Y2000000D03*
%TD*%
D12*
%TO.C,R129*%
X19260000Y14750000D03*
X18240000Y14750000D03*
%TD*%
%TO.C,R165*%
X-22740000Y-27250000D03*
X-23760000Y-27250000D03*
%TD*%
D11*
%TO.C,IC116*%
X25525000Y1905000D03*
X25525000Y635000D03*
X25525000Y-635000D03*
X25525000Y-1905000D03*
X30475000Y-1905000D03*
X30475000Y-635000D03*
X30475000Y635000D03*
X30475000Y1905000D03*
%TD*%
%TO.C,IC109*%
X-2475000Y15905000D03*
X-2475000Y14635000D03*
X-2475000Y13365000D03*
X-2475000Y12095000D03*
X2475000Y12095000D03*
X2475000Y13365000D03*
X2475000Y14635000D03*
X2475000Y15905000D03*
%TD*%
D13*
%TO.C,mouse-bite-2mm-slot9*%
X27250000Y18750000D03*
X27250000Y17250000D03*
X28000000Y18750000D03*
X28000000Y17250000D03*
X28750000Y18750000D03*
X28750000Y17250000D03*
%TD*%
D12*
%TO.C,R105*%
X-22740000Y28750000D03*
X-23760000Y28750000D03*
%TD*%
D15*
%TO.C,J101*%
X26500000Y-31948500D03*
X27500001Y-31948500D03*
X28499999Y-31948500D03*
X29500000Y-31948500D03*
D16*
X25200001Y-35773499D03*
X30799999Y-35773499D03*
%TD*%
D14*
%TO.C,C136*%
X-18270000Y-12000000D03*
X-19230000Y-12000000D03*
%TD*%
D10*
%TO.C,C123*%
X-32750000Y200000D03*
X-32750000Y-1700000D03*
%TD*%
D12*
%TO.C,R170*%
X5260000Y-28750000D03*
X4240000Y-28750000D03*
%TD*%
%TO.C,R106*%
X-22740000Y30000000D03*
X-23760000Y30000000D03*
%TD*%
%TO.C,R107*%
X-8740000Y27250000D03*
X-9760000Y27250000D03*
%TD*%
D13*
%TO.C,mouse-bite-2mm-slot30*%
X20250000Y-250000D03*
X21750000Y-250000D03*
X20250000Y500000D03*
X21750000Y500000D03*
X20250000Y1250000D03*
X21750000Y1250000D03*
%TD*%
D12*
%TO.C,R148*%
X33260000Y2000000D03*
X32240000Y2000000D03*
%TD*%
D13*
%TO.C,mouse-bite-2mm-slot37*%
X13250000Y-23250000D03*
X13250000Y-24750000D03*
X14000000Y-23250000D03*
X14000000Y-24750000D03*
X14750000Y-23250000D03*
X14750000Y-24750000D03*
%TD*%
D12*
%TO.C,R112*%
X5260000Y30000000D03*
X4240000Y30000000D03*
%TD*%
%TO.C,R161*%
X33260000Y-14750000D03*
X32240000Y-14750000D03*
%TD*%
D13*
%TO.C,mouse-bite-2mm-slot11*%
X-28750000Y4750000D03*
X-28750000Y3250000D03*
X-28000000Y4750000D03*
X-28000000Y3250000D03*
X-27250000Y4750000D03*
X-27250000Y3250000D03*
%TD*%
%TO.C,mouse-bite-2mm-slot15*%
X-750000Y4750000D03*
X-750000Y3250000D03*
X0Y4750000D03*
X0Y3250000D03*
X750000Y4750000D03*
X750000Y3250000D03*
%TD*%
D15*
%TO.C,J117*%
X-29500000Y-17948500D03*
X-28499999Y-17948500D03*
X-27500001Y-17948500D03*
X-26500000Y-17948500D03*
D16*
X-30799999Y-21773499D03*
X-25200001Y-21773499D03*
%TD*%
D12*
%TO.C,R173*%
X19260000Y-28750000D03*
X18240000Y-28750000D03*
%TD*%
D15*
%TO.C,J105*%
X12500000Y24051500D03*
X13500001Y24051500D03*
X14499999Y24051500D03*
X15500000Y24051500D03*
D16*
X11200001Y20226501D03*
X16799999Y20226501D03*
%TD*%
D15*
%TO.C,J106*%
X26500000Y24051500D03*
X27500001Y24051500D03*
X28499999Y24051500D03*
X29500000Y24051500D03*
D16*
X25200001Y20226501D03*
X30799999Y20226501D03*
%TD*%
D12*
%TO.C,R102*%
X33260000Y-27250000D03*
X32240000Y-27250000D03*
%TD*%
D14*
%TO.C,C140*%
X9730000Y-12000000D03*
X8770000Y-12000000D03*
%TD*%
D13*
%TO.C,mouse-bite-2mm-slot36*%
X-7750000Y-14250000D03*
X-6250000Y-14250000D03*
X-7750000Y-13500000D03*
X-6250000Y-13500000D03*
X-7750000Y-12750000D03*
X-6250000Y-12750000D03*
%TD*%
%TO.C,mouse-bite-2mm-slot39*%
X27250000Y-23250000D03*
X27250000Y-24750000D03*
X28000000Y-23250000D03*
X28000000Y-24750000D03*
X28750000Y-23250000D03*
X28750000Y-24750000D03*
%TD*%
D15*
%TO.C,J107*%
X-29500000Y10051500D03*
X-28499999Y10051500D03*
X-27500001Y10051500D03*
X-26500000Y10051500D03*
D16*
X-30799999Y6226501D03*
X-25200001Y6226501D03*
%TD*%
D11*
%TO.C,IC110*%
X11525000Y15905000D03*
X11525000Y14635000D03*
X11525000Y13365000D03*
X11525000Y12095000D03*
X16475000Y12095000D03*
X16475000Y13365000D03*
X16475000Y14635000D03*
X16475000Y15905000D03*
%TD*%
D12*
%TO.C,R164*%
X-22740000Y-28750000D03*
X-23760000Y-28750000D03*
%TD*%
D14*
%TO.C,C144*%
X-32270000Y-26000000D03*
X-33230000Y-26000000D03*
%TD*%
D10*
%TO.C,C111*%
X23250000Y28200000D03*
X23250000Y26300000D03*
%TD*%
D12*
%TO.C,R118*%
X33260000Y30000000D03*
X32240000Y30000000D03*
%TD*%
D15*
%TO.C,J104*%
X-1500000Y24051500D03*
X-499999Y24051500D03*
X499999Y24051500D03*
X1500000Y24051500D03*
D16*
X-2799999Y20226501D03*
X2799999Y20226501D03*
%TD*%
D14*
%TO.C,C118*%
X-4270000Y16000000D03*
X-5230000Y16000000D03*
%TD*%
D13*
%TO.C,mouse-bite-2mm-slot*%
X27250000Y-37250000D03*
X27250000Y-38750000D03*
X28000000Y-37250000D03*
X28000000Y-38750000D03*
X28750000Y-37250000D03*
X28750000Y-38750000D03*
%TD*%
D11*
%TO.C,IC118*%
X-16475000Y-12095000D03*
X-16475000Y-13365000D03*
X-16475000Y-14635000D03*
X-16475000Y-15905000D03*
X-11525000Y-15905000D03*
X-11525000Y-14635000D03*
X-11525000Y-13365000D03*
X-11525000Y-12095000D03*
%TD*%
D12*
%TO.C,R156*%
X5260000Y-13250000D03*
X4240000Y-13250000D03*
%TD*%
D15*
%TO.C,J114*%
X-1500000Y-3948500D03*
X-499999Y-3948500D03*
X499999Y-3948500D03*
X1500000Y-3948500D03*
D16*
X-2799999Y-7773499D03*
X2799999Y-7773499D03*
%TD*%
D14*
%TO.C,C146*%
X-18270000Y-26000000D03*
X-19230000Y-26000000D03*
%TD*%
D13*
%TO.C,mouse-bite-2mm-slot27*%
X13250000Y-9250000D03*
X13250000Y-10750000D03*
X14000000Y-9250000D03*
X14000000Y-10750000D03*
X14750000Y-9250000D03*
X14750000Y-10750000D03*
%TD*%
D12*
%TO.C,R104*%
X-22740000Y27250000D03*
X-23760000Y27250000D03*
%TD*%
D15*
%TO.C,J121*%
X26500000Y-17948500D03*
X27500001Y-17948500D03*
X28499999Y-17948500D03*
X29500000Y-17948500D03*
D16*
X25200001Y-21773499D03*
X30799999Y-21773499D03*
%TD*%
D13*
%TO.C,mouse-bite-2mm-slot*%
X-27250000Y31250000D03*
X-27250000Y32750000D03*
X-28000000Y31250000D03*
X-28000000Y32750000D03*
X-28750000Y31250000D03*
X-28750000Y32750000D03*
%TD*%
D12*
%TO.C,R152*%
X-8740000Y-14750000D03*
X-9760000Y-14750000D03*
%TD*%
D11*
%TO.C,IC102*%
X-30475000Y29905000D03*
X-30475000Y28635000D03*
X-30475000Y27365000D03*
X-30475000Y26095000D03*
X-25525000Y26095000D03*
X-25525000Y27365000D03*
X-25525000Y28635000D03*
X-25525000Y29905000D03*
%TD*%
D13*
%TO.C,mouse-bite-2mm-slot*%
X20250000Y-28250000D03*
X21750000Y-28250000D03*
X20250000Y-27500000D03*
X21750000Y-27500000D03*
X20250000Y-26750000D03*
X21750000Y-26750000D03*
%TD*%
D10*
%TO.C,C133*%
X-32750000Y-13800000D03*
X-32750000Y-15700000D03*
%TD*%
D12*
%TO.C,R155*%
X5260000Y-14750000D03*
X4240000Y-14750000D03*
%TD*%
D15*
%TO.C,J110*%
X12500000Y10051500D03*
X13500001Y10051500D03*
X14499999Y10051500D03*
X15500000Y10051500D03*
D16*
X11200001Y6226501D03*
X16799999Y6226501D03*
%TD*%
D12*
%TO.C,R140*%
X5260000Y-750000D03*
X4240000Y-750000D03*
%TD*%
%TO.C,R126*%
X5260000Y14750000D03*
X4240000Y14750000D03*
%TD*%
D13*
%TO.C,mouse-bite-2mm-slot35*%
X-750000Y-23250000D03*
X-750000Y-24750000D03*
X0Y-23250000D03*
X0Y-24750000D03*
X750000Y-23250000D03*
X750000Y-24750000D03*
%TD*%
D14*
%TO.C,C150*%
X9730000Y-26000000D03*
X8770000Y-26000000D03*
%TD*%
D15*
%TO.C,J102*%
X-29500000Y24051500D03*
X-28499999Y24051500D03*
X-27500001Y24051500D03*
X-26500000Y24051500D03*
D16*
X-30799999Y20226501D03*
X-25200001Y20226501D03*
%TD*%
D13*
%TO.C,mouse-bite-2mm-slot43*%
X14750000Y31250000D03*
X14750000Y32750000D03*
X14000000Y31250000D03*
X14000000Y32750000D03*
X13250000Y31250000D03*
X13250000Y32750000D03*
%TD*%
D12*
%TO.C,R124*%
X-8740000Y16000000D03*
X-9760000Y16000000D03*
%TD*%
D10*
%TO.C,C131*%
X23250000Y200000D03*
X23250000Y-1700000D03*
%TD*%
D13*
%TO.C,mouse-bite-2mm-slot43*%
X-14750000Y-37250000D03*
X-14750000Y-38750000D03*
X-14000000Y-37250000D03*
X-14000000Y-38750000D03*
X-13250000Y-37250000D03*
X-13250000Y-38750000D03*
%TD*%
%TO.C,mouse-bite-2mm-slot14*%
X-21750000Y13750000D03*
X-20250000Y13750000D03*
X-21750000Y14500000D03*
X-20250000Y14500000D03*
X-21750000Y15250000D03*
X-20250000Y15250000D03*
%TD*%
D10*
%TO.C,C129*%
X9250000Y200000D03*
X9250000Y-1700000D03*
%TD*%
D12*
%TO.C,R147*%
X33260000Y750000D03*
X32240000Y750000D03*
%TD*%
%TO.C,R168*%
X-8740000Y-27250000D03*
X-9760000Y-27250000D03*
%TD*%
D15*
%TO.C,J103*%
X-15500000Y24051500D03*
X-14499999Y24051500D03*
X-13500001Y24051500D03*
X-12500000Y24051500D03*
D16*
X-16799999Y20226501D03*
X-11200001Y20226501D03*
%TD*%
D11*
%TO.C,IC117*%
X-30475000Y-12095000D03*
X-30475000Y-13365000D03*
X-30475000Y-14635000D03*
X-30475000Y-15905000D03*
X-25525000Y-15905000D03*
X-25525000Y-14635000D03*
X-25525000Y-13365000D03*
X-25525000Y-12095000D03*
%TD*%
D12*
%TO.C,R174*%
X19260000Y-27250000D03*
X18240000Y-27250000D03*
%TD*%
%TO.C,R141*%
X5260000Y750000D03*
X4240000Y750000D03*
%TD*%
D13*
%TO.C,mouse-bite-2mm-slot25*%
X-750000Y-9250000D03*
X-750000Y-10750000D03*
X0Y-9250000D03*
X0Y-10750000D03*
X750000Y-9250000D03*
X750000Y-10750000D03*
%TD*%
%TO.C,mouse-bite-2mm-slot31*%
X-28750000Y-23250000D03*
X-28750000Y-24750000D03*
X-28000000Y-23250000D03*
X-28000000Y-24750000D03*
X-27250000Y-23250000D03*
X-27250000Y-24750000D03*
%TD*%
D12*
%TO.C,R151*%
X-22740000Y-12000000D03*
X-23760000Y-12000000D03*
%TD*%
D13*
%TO.C,mouse-bite-2mm-slot21*%
X-28750000Y-9250000D03*
X-28750000Y-10750000D03*
X-28000000Y-9250000D03*
X-28000000Y-10750000D03*
X-27250000Y-9250000D03*
X-27250000Y-10750000D03*
%TD*%
D12*
%TO.C,R117*%
X33260000Y28750000D03*
X32240000Y28750000D03*
%TD*%
%TO.C,R159*%
X19260000Y-13250000D03*
X18240000Y-13250000D03*
%TD*%
D13*
%TO.C,mouse-bite-2mm-slot40*%
X20250000Y-14250000D03*
X21750000Y-14250000D03*
X20250000Y-13500000D03*
X21750000Y-13500000D03*
X20250000Y-12750000D03*
X21750000Y-12750000D03*
%TD*%
%TO.C,mouse-bite-2mm-slot41*%
X28750000Y31250000D03*
X28750000Y32750000D03*
X28000000Y31250000D03*
X28000000Y32750000D03*
X27250000Y31250000D03*
X27250000Y32750000D03*
%TD*%
D12*
%TO.C,R154*%
X-8740000Y-12000000D03*
X-9760000Y-12000000D03*
%TD*%
D11*
%TO.C,IC114*%
X-2475000Y1905000D03*
X-2475000Y635000D03*
X-2475000Y-635000D03*
X-2475000Y-1905000D03*
X2475000Y-1905000D03*
X2475000Y-635000D03*
X2475000Y635000D03*
X2475000Y1905000D03*
%TD*%
%TO.C,IC123*%
X-16475000Y-26095000D03*
X-16475000Y-27365000D03*
X-16475000Y-28635000D03*
X-16475000Y-29905000D03*
X-11525000Y-29905000D03*
X-11525000Y-28635000D03*
X-11525000Y-27365000D03*
X-11525000Y-26095000D03*
%TD*%
D12*
%TO.C,R166*%
X-22740000Y-26000000D03*
X-23760000Y-26000000D03*
%TD*%
D10*
%TO.C,C107*%
X-4750000Y28200000D03*
X-4750000Y26300000D03*
%TD*%
%TO.C,C105*%
X-18750000Y28200000D03*
X-18750000Y26300000D03*
%TD*%
D12*
%TO.C,R136*%
X-22740000Y2000000D03*
X-23760000Y2000000D03*
%TD*%
%TO.C,R113*%
X19260000Y27250000D03*
X18240000Y27250000D03*
%TD*%
D11*
%TO.C,IC107*%
X-30475000Y15905000D03*
X-30475000Y14635000D03*
X-30475000Y13365000D03*
X-30475000Y12095000D03*
X-25525000Y12095000D03*
X-25525000Y13365000D03*
X-25525000Y14635000D03*
X-25525000Y15905000D03*
%TD*%
D10*
%TO.C,C103*%
X-32750000Y28200000D03*
X-32750000Y26300000D03*
%TD*%
D14*
%TO.C,C110*%
X9730000Y30000000D03*
X8770000Y30000000D03*
%TD*%
D12*
%TO.C,R133*%
X33260000Y16000000D03*
X32240000Y16000000D03*
%TD*%
D14*
%TO.C,C114*%
X-32270000Y16000000D03*
X-33230000Y16000000D03*
%TD*%
%TO.C,C148*%
X-4270000Y-26000000D03*
X-5230000Y-26000000D03*
%TD*%
D13*
%TO.C,mouse-bite-2mm-slot44*%
X-21750000Y-28250000D03*
X-20250000Y-28250000D03*
X-21750000Y-27500000D03*
X-20250000Y-27500000D03*
X-21750000Y-26750000D03*
X-20250000Y-26750000D03*
%TD*%
D12*
%TO.C,R135*%
X-22740000Y750000D03*
X-23760000Y750000D03*
%TD*%
D15*
%TO.C,J125*%
X12500000Y-31948500D03*
X13500001Y-31948500D03*
X14499999Y-31948500D03*
X15500000Y-31948500D03*
D16*
X11200001Y-35773499D03*
X16799999Y-35773499D03*
%TD*%
D15*
%TO.C,J115*%
X12500000Y-3948500D03*
X13500001Y-3948500D03*
X14499999Y-3948500D03*
X15500000Y-3948500D03*
D16*
X11200001Y-7773499D03*
X16799999Y-7773499D03*
%TD*%
D10*
%TO.C,C101*%
X23250000Y-27800000D03*
X23250000Y-29700000D03*
%TD*%
D12*
%TO.C,R171*%
X5260000Y-27250000D03*
X4240000Y-27250000D03*
%TD*%
%TO.C,R115*%
X19260000Y30000000D03*
X18240000Y30000000D03*
%TD*%
%TO.C,R125*%
X5260000Y13250000D03*
X4240000Y13250000D03*
%TD*%
D13*
%TO.C,mouse-bite-2mm-slot34*%
X-21750000Y-14250000D03*
X-20250000Y-14250000D03*
X-21750000Y-13500000D03*
X-20250000Y-13500000D03*
X-21750000Y-12750000D03*
X-20250000Y-12750000D03*
%TD*%
D12*
%TO.C,R157*%
X5260000Y-12000000D03*
X4240000Y-12000000D03*
%TD*%
%TO.C,R116*%
X33260000Y27250000D03*
X32240000Y27250000D03*
%TD*%
%TO.C,R172*%
X5260000Y-26000000D03*
X4240000Y-26000000D03*
%TD*%
%TO.C,R144*%
X19260000Y750000D03*
X18240000Y750000D03*
%TD*%
D13*
%TO.C,mouse-bite-2mm-slot28*%
X6250000Y-250000D03*
X7750000Y-250000D03*
X6250000Y500000D03*
X7750000Y500000D03*
X6250000Y1250000D03*
X7750000Y1250000D03*
%TD*%
D12*
%TO.C,R175*%
X19260000Y-26000000D03*
X18240000Y-26000000D03*
%TD*%
%TO.C,R109*%
X-8740000Y30000000D03*
X-9760000Y30000000D03*
%TD*%
D11*
%TO.C,IC105*%
X11525000Y29905000D03*
X11525000Y28635000D03*
X11525000Y27365000D03*
X11525000Y26095000D03*
X16475000Y26095000D03*
X16475000Y27365000D03*
X16475000Y28635000D03*
X16475000Y29905000D03*
%TD*%
D14*
%TO.C,C130*%
X9730000Y2000000D03*
X8770000Y2000000D03*
%TD*%
D10*
%TO.C,C125*%
X-18750000Y200000D03*
X-18750000Y-1700000D03*
%TD*%
D14*
%TO.C,C120*%
X9730000Y16000000D03*
X8770000Y16000000D03*
%TD*%
D12*
%TO.C,R108*%
X-8740000Y28750000D03*
X-9760000Y28750000D03*
%TD*%
D13*
%TO.C,mouse-bite-2mm-slot38*%
X6250000Y-14250000D03*
X7750000Y-14250000D03*
X6250000Y-13500000D03*
X7750000Y-13500000D03*
X6250000Y-12750000D03*
X7750000Y-12750000D03*
%TD*%
D11*
%TO.C,IC103*%
X-16475000Y29905000D03*
X-16475000Y28635000D03*
X-16475000Y27365000D03*
X-16475000Y26095000D03*
X-11525000Y26095000D03*
X-11525000Y27365000D03*
X-11525000Y28635000D03*
X-11525000Y29905000D03*
%TD*%
D12*
%TO.C,R139*%
X-8740000Y2000000D03*
X-9760000Y2000000D03*
%TD*%
D13*
%TO.C,mouse-bite-2mm-slot45*%
X750000Y31250000D03*
X750000Y32750000D03*
X0Y31250000D03*
X0Y32750000D03*
X-750000Y31250000D03*
X-750000Y32750000D03*
%TD*%
D12*
%TO.C,R119*%
X-22740000Y13250000D03*
X-23760000Y13250000D03*
%TD*%
D14*
%TO.C,C132*%
X23730000Y2000000D03*
X22770000Y2000000D03*
%TD*%
D12*
%TO.C,R103*%
X33260000Y-26000000D03*
X32240000Y-26000000D03*
%TD*%
%TO.C,R162*%
X33260000Y-13250000D03*
X32240000Y-13250000D03*
%TD*%
D15*
%TO.C,J116*%
X26500000Y-3948500D03*
X27500001Y-3948500D03*
X28499999Y-3948500D03*
X29500000Y-3948500D03*
D16*
X25200001Y-7773499D03*
X30799999Y-7773499D03*
%TD*%
D12*
%TO.C,R153*%
X-8740000Y-13250000D03*
X-9760000Y-13250000D03*
%TD*%
%TO.C,R138*%
X-8740000Y750000D03*
X-9760000Y750000D03*
%TD*%
D13*
%TO.C,mouse-bite-2mm-slot48*%
X6250000Y-28250000D03*
X7750000Y-28250000D03*
X6250000Y-27500000D03*
X7750000Y-27500000D03*
X6250000Y-26750000D03*
X7750000Y-26750000D03*
%TD*%
D12*
%TO.C,R101*%
X33260000Y-28750000D03*
X32240000Y-28750000D03*
%TD*%
%TO.C,R167*%
X-8740000Y-28750000D03*
X-9760000Y-28750000D03*
%TD*%
%TO.C,R110*%
X5260000Y27250000D03*
X4240000Y27250000D03*
%TD*%
D10*
%TO.C,C149*%
X9250000Y-27800000D03*
X9250000Y-29700000D03*
%TD*%
D13*
%TO.C,mouse-bite-2mm-slot5*%
X-750000Y18750000D03*
X-750000Y17250000D03*
X0Y18750000D03*
X0Y17250000D03*
X750000Y18750000D03*
X750000Y17250000D03*
%TD*%
D12*
%TO.C,R127*%
X5260000Y16000000D03*
X4240000Y16000000D03*
%TD*%
D15*
%TO.C,J113*%
X-15500000Y-3948500D03*
X-14499999Y-3948500D03*
X-13500001Y-3948500D03*
X-12500000Y-3948500D03*
D16*
X-16799999Y-7773499D03*
X-11200001Y-7773499D03*
%TD*%
D11*
%TO.C,IC115*%
X11525000Y1905000D03*
X11525000Y635000D03*
X11525000Y-635000D03*
X11525000Y-1905000D03*
X16475000Y-1905000D03*
X16475000Y-635000D03*
X16475000Y635000D03*
X16475000Y1905000D03*
%TD*%
D13*
%TO.C,mouse-bite-2mm-slot1*%
X-28750000Y18750000D03*
X-28750000Y17250000D03*
X-28000000Y18750000D03*
X-28000000Y17250000D03*
X-27250000Y18750000D03*
X-27250000Y17250000D03*
%TD*%
D11*
%TO.C,IC124*%
X-2475000Y-26095000D03*
X-2475000Y-27365000D03*
X-2475000Y-28635000D03*
X-2475000Y-29905000D03*
X2475000Y-29905000D03*
X2475000Y-28635000D03*
X2475000Y-27365000D03*
X2475000Y-26095000D03*
%TD*%
D14*
%TO.C,C116*%
X-18270000Y16000000D03*
X-19230000Y16000000D03*
%TD*%
D13*
%TO.C,mouse-bite-2mm-slot47*%
X-13250000Y31250000D03*
X-13250000Y32750000D03*
X-14000000Y31250000D03*
X-14000000Y32750000D03*
X-14750000Y31250000D03*
X-14750000Y32750000D03*
%TD*%
D14*
%TO.C,C102*%
X23730000Y-26000000D03*
X22770000Y-26000000D03*
%TD*%
D10*
%TO.C,C141*%
X23250000Y-13800000D03*
X23250000Y-15700000D03*
%TD*%
D15*
%TO.C,J118*%
X-15500000Y-17948500D03*
X-14499999Y-17948500D03*
X-13500001Y-17948500D03*
X-12500000Y-17948500D03*
D16*
X-16799999Y-21773499D03*
X-11200001Y-21773499D03*
%TD*%
D13*
%TO.C,mouse-bite-2mm-slot17*%
X13250000Y4750000D03*
X13250000Y3250000D03*
X14000000Y4750000D03*
X14000000Y3250000D03*
X14750000Y4750000D03*
X14750000Y3250000D03*
%TD*%
D12*
%TO.C,R143*%
X19260000Y-750000D03*
X18240000Y-750000D03*
%TD*%
%TO.C,R149*%
X-22740000Y-14750000D03*
X-23760000Y-14750000D03*
%TD*%
%TO.C,R132*%
X33260000Y14750000D03*
X32240000Y14750000D03*
%TD*%
D14*
%TO.C,C128*%
X-4270000Y2000000D03*
X-5230000Y2000000D03*
%TD*%
D13*
%TO.C,mouse-bite-2mm-slot20*%
X20250000Y13750000D03*
X21750000Y13750000D03*
X20250000Y14500000D03*
X21750000Y14500000D03*
X20250000Y15250000D03*
X21750000Y15250000D03*
%TD*%
D12*
%TO.C,R123*%
X-8740000Y14750000D03*
X-9760000Y14750000D03*
%TD*%
D10*
%TO.C,C143*%
X-32750000Y-27800000D03*
X-32750000Y-29700000D03*
%TD*%
D11*
%TO.C,IC119*%
X-2475000Y-12095000D03*
X-2475000Y-13365000D03*
X-2475000Y-14635000D03*
X-2475000Y-15905000D03*
X2475000Y-15905000D03*
X2475000Y-14635000D03*
X2475000Y-13365000D03*
X2475000Y-12095000D03*
%TD*%
D10*
%TO.C,C121*%
X23250000Y14200000D03*
X23250000Y12300000D03*
%TD*%
%TO.C,C139*%
X9250000Y-13800000D03*
X9250000Y-15700000D03*
%TD*%
D12*
%TO.C,R130*%
X19260000Y16000000D03*
X18240000Y16000000D03*
%TD*%
D11*
%TO.C,IC125*%
X11525000Y-26095000D03*
X11525000Y-27365000D03*
X11525000Y-28635000D03*
X11525000Y-29905000D03*
X16475000Y-29905000D03*
X16475000Y-28635000D03*
X16475000Y-27365000D03*
X16475000Y-26095000D03*
%TD*%
D12*
%TO.C,R169*%
X-8740000Y-26000000D03*
X-9760000Y-26000000D03*
%TD*%
D11*
%TO.C,IC112*%
X-30475000Y1905000D03*
X-30475000Y635000D03*
X-30475000Y-635000D03*
X-30475000Y-1905000D03*
X-25525000Y-1905000D03*
X-25525000Y-635000D03*
X-25525000Y635000D03*
X-25525000Y1905000D03*
%TD*%
D15*
%TO.C,J111*%
X26500000Y10051500D03*
X27500001Y10051500D03*
X28499999Y10051500D03*
X29500000Y10051500D03*
D16*
X25200001Y6226501D03*
X30799999Y6226501D03*
%TD*%
D13*
%TO.C,mouse-bite-2mm-slot6*%
X-7750000Y27750000D03*
X-6250000Y27750000D03*
X-7750000Y28500000D03*
X-6250000Y28500000D03*
X-7750000Y29250000D03*
X-6250000Y29250000D03*
%TD*%
%TO.C,mouse-bite-2mm-slot3*%
X-14750000Y18750000D03*
X-14750000Y17250000D03*
X-14000000Y18750000D03*
X-14000000Y17250000D03*
X-13250000Y18750000D03*
X-13250000Y17250000D03*
%TD*%
D14*
%TO.C,C138*%
X-4270000Y-12000000D03*
X-5230000Y-12000000D03*
%TD*%
D11*
%TO.C,IC111*%
X25525000Y15905000D03*
X25525000Y14635000D03*
X25525000Y13365000D03*
X25525000Y12095000D03*
X30475000Y12095000D03*
X30475000Y13365000D03*
X30475000Y14635000D03*
X30475000Y15905000D03*
%TD*%
D15*
%TO.C,J112*%
X-29500000Y-3948500D03*
X-28499999Y-3948500D03*
X-27500001Y-3948500D03*
X-26500000Y-3948500D03*
D16*
X-30799999Y-7773499D03*
X-25200001Y-7773499D03*
%TD*%
D15*
%TO.C,J122*%
X-29500000Y-31948500D03*
X-28499999Y-31948500D03*
X-27500001Y-31948500D03*
X-26500000Y-31948500D03*
D16*
X-30799999Y-35773499D03*
X-25200001Y-35773499D03*
%TD*%
D13*
%TO.C,mouse-bite-2mm-slot45*%
X-750000Y-37250000D03*
X-750000Y-38750000D03*
X0Y-37250000D03*
X0Y-38750000D03*
X750000Y-37250000D03*
X750000Y-38750000D03*
%TD*%
D15*
%TO.C,J123*%
X-15500000Y-31948500D03*
X-14499999Y-31948500D03*
X-13500001Y-31948500D03*
X-12500000Y-31948500D03*
D16*
X-16799999Y-35773499D03*
X-11200001Y-35773499D03*
%TD*%
D10*
%TO.C,C119*%
X9250000Y14200000D03*
X9250000Y12300000D03*
%TD*%
D14*
%TO.C,C126*%
X-18270000Y2000000D03*
X-19230000Y2000000D03*
%TD*%
D10*
%TO.C,C137*%
X-4750000Y-13800000D03*
X-4750000Y-15700000D03*
%TD*%
D13*
%TO.C,mouse-bite-2mm-slot47*%
X13250000Y-37250000D03*
X13250000Y-38750000D03*
X14000000Y-37250000D03*
X14000000Y-38750000D03*
X14750000Y-37250000D03*
X14750000Y-38750000D03*
%TD*%
D10*
%TO.C,C135*%
X-18750000Y-13800000D03*
X-18750000Y-15700000D03*
%TD*%
%TO.C,C117*%
X-4750000Y14200000D03*
X-4750000Y12300000D03*
%TD*%
D12*
%TO.C,R120*%
X-22740000Y14750000D03*
X-23760000Y14750000D03*
%TD*%
D14*
%TO.C,C122*%
X23730000Y16000000D03*
X22770000Y16000000D03*
%TD*%
D13*
%TO.C,mouse-bite-2mm-slot29*%
X27250000Y-9250000D03*
X27250000Y-10750000D03*
X28000000Y-9250000D03*
X28000000Y-10750000D03*
X28750000Y-9250000D03*
X28750000Y-10750000D03*
%TD*%
%TO.C,mouse-bite-2mm-slot10*%
X20250000Y27750000D03*
X21750000Y27750000D03*
X20250000Y28500000D03*
X21750000Y28500000D03*
X20250000Y29250000D03*
X21750000Y29250000D03*
%TD*%
D14*
%TO.C,C112*%
X23730000Y30000000D03*
X22770000Y30000000D03*
%TD*%
D15*
%TO.C,J108*%
X-15500000Y10051500D03*
X-14499999Y10051500D03*
X-13500001Y10051500D03*
X-12500000Y10051500D03*
D16*
X-16799999Y6226501D03*
X-11200001Y6226501D03*
%TD*%
D10*
%TO.C,C113*%
X-32750000Y14200000D03*
X-32750000Y12300000D03*
%TD*%
D15*
%TO.C,J120*%
X12500000Y-17948500D03*
X13500001Y-17948500D03*
X14499999Y-17948500D03*
X15500000Y-17948500D03*
D16*
X11200001Y-21773499D03*
X16799999Y-21773499D03*
%TD*%
D13*
%TO.C,mouse-bite-2mm-slot33*%
X-14750000Y-23250000D03*
X-14750000Y-24750000D03*
X-14000000Y-23250000D03*
X-14000000Y-24750000D03*
X-13250000Y-23250000D03*
X-13250000Y-24750000D03*
%TD*%
D12*
%TO.C,R145*%
X19260000Y2000000D03*
X18240000Y2000000D03*
%TD*%
D11*
%TO.C,IC106*%
X25525000Y29905000D03*
X25525000Y28635000D03*
X25525000Y27365000D03*
X25525000Y26095000D03*
X30475000Y26095000D03*
X30475000Y27365000D03*
X30475000Y28635000D03*
X30475000Y29905000D03*
%TD*%
D13*
%TO.C,mouse-bite-2mm-slot19*%
X27250000Y4750000D03*
X27250000Y3250000D03*
X28000000Y4750000D03*
X28000000Y3250000D03*
X28750000Y4750000D03*
X28750000Y3250000D03*
%TD*%
D14*
%TO.C,C106*%
X-18270000Y30000000D03*
X-19230000Y30000000D03*
%TD*%
D13*
%TO.C,mouse-bite-2mm-slot4*%
X-21750000Y27750000D03*
X-20250000Y27750000D03*
X-21750000Y28500000D03*
X-20250000Y28500000D03*
X-21750000Y29250000D03*
X-20250000Y29250000D03*
%TD*%
%TO.C,mouse-bite-2mm-slot46*%
X-7750000Y-28250000D03*
X-6250000Y-28250000D03*
X-7750000Y-27500000D03*
X-6250000Y-27500000D03*
X-7750000Y-26750000D03*
X-6250000Y-26750000D03*
%TD*%
D10*
%TO.C,C147*%
X-4750000Y-27800000D03*
X-4750000Y-29700000D03*
%TD*%
%TO.C,C115*%
X-18750000Y14200000D03*
X-18750000Y12300000D03*
%TD*%
D12*
%TO.C,R163*%
X33260000Y-12000000D03*
X32240000Y-12000000D03*
%TD*%
D13*
%TO.C,mouse-bite-2mm-slot8*%
X6250000Y27750000D03*
X7750000Y27750000D03*
X6250000Y28500000D03*
X7750000Y28500000D03*
X6250000Y29250000D03*
X7750000Y29250000D03*
%TD*%
D11*
%TO.C,IC104*%
X-2475000Y29905000D03*
X-2475000Y28635000D03*
X-2475000Y27365000D03*
X-2475000Y26095000D03*
X2475000Y26095000D03*
X2475000Y27365000D03*
X2475000Y28635000D03*
X2475000Y29905000D03*
%TD*%
D14*
%TO.C,C142*%
X23730000Y-12000000D03*
X22770000Y-12000000D03*
%TD*%
D12*
%TO.C,R111*%
X5260000Y28750000D03*
X4240000Y28750000D03*
%TD*%
D13*
%TO.C,mouse-bite-2mm-slot18*%
X6250000Y13750000D03*
X7750000Y13750000D03*
X6250000Y14500000D03*
X7750000Y14500000D03*
X6250000Y15250000D03*
X7750000Y15250000D03*
%TD*%
D12*
%TO.C,R131*%
X33260000Y13250000D03*
X32240000Y13250000D03*
%TD*%
D11*
%TO.C,IC113*%
X-16475000Y1905000D03*
X-16475000Y635000D03*
X-16475000Y-635000D03*
X-16475000Y-1905000D03*
X-11525000Y-1905000D03*
X-11525000Y-635000D03*
X-11525000Y635000D03*
X-11525000Y1905000D03*
%TD*%
D12*
%TO.C,R134*%
X-22740000Y-750000D03*
X-23760000Y-750000D03*
%TD*%
D11*
%TO.C,IC120*%
X11525000Y-12095000D03*
X11525000Y-13365000D03*
X11525000Y-14635000D03*
X11525000Y-15905000D03*
X16475000Y-15905000D03*
X16475000Y-14635000D03*
X16475000Y-13365000D03*
X16475000Y-12095000D03*
%TD*%
%TO.C,IC122*%
X-30475000Y-26095000D03*
X-30475000Y-27365000D03*
X-30475000Y-28635000D03*
X-30475000Y-29905000D03*
X-25525000Y-29905000D03*
X-25525000Y-28635000D03*
X-25525000Y-27365000D03*
X-25525000Y-26095000D03*
%TD*%
D13*
%TO.C,mouse-bite-2mm-slot41*%
X-28750000Y-37250000D03*
X-28750000Y-38750000D03*
X-28000000Y-37250000D03*
X-28000000Y-38750000D03*
X-27250000Y-37250000D03*
X-27250000Y-38750000D03*
%TD*%
%TO.C,mouse-bite-2mm-slot24*%
X-21750000Y-250000D03*
X-20250000Y-250000D03*
X-21750000Y500000D03*
X-20250000Y500000D03*
X-21750000Y1250000D03*
X-20250000Y1250000D03*
%TD*%
%TO.C,mouse-bite-2mm-slot13*%
X-14750000Y4750000D03*
X-14750000Y3250000D03*
X-14000000Y4750000D03*
X-14000000Y3250000D03*
X-13250000Y4750000D03*
X-13250000Y3250000D03*
%TD*%
D10*
%TO.C,C109*%
X9250000Y28200000D03*
X9250000Y26300000D03*
%TD*%
D12*
%TO.C,R142*%
X5260000Y2000000D03*
X4240000Y2000000D03*
%TD*%
%TO.C,R137*%
X-8740000Y-750000D03*
X-9760000Y-750000D03*
%TD*%
D13*
%TO.C,mouse-bite-2mm-slot26*%
X-7750000Y-250000D03*
X-6250000Y-250000D03*
X-7750000Y500000D03*
X-6250000Y500000D03*
X-7750000Y1250000D03*
X-6250000Y1250000D03*
%TD*%
D14*
%TO.C,C108*%
X-4270000Y30000000D03*
X-5230000Y30000000D03*
%TD*%
D11*
%TO.C,IC121*%
X25525000Y-12095000D03*
X25525000Y-13365000D03*
X25525000Y-14635000D03*
X25525000Y-15905000D03*
X30475000Y-15905000D03*
X30475000Y-14635000D03*
X30475000Y-13365000D03*
X30475000Y-12095000D03*
%TD*%
D12*
%TO.C,R150*%
X-22740000Y-13250000D03*
X-23760000Y-13250000D03*
%TD*%
D13*
%TO.C,mouse-bite-2mm-slot16*%
X-7750000Y13750000D03*
X-6250000Y13750000D03*
X-7750000Y14500000D03*
X-6250000Y14500000D03*
X-7750000Y15250000D03*
X-6250000Y15250000D03*
%TD*%
D14*
%TO.C,C134*%
X-32270000Y-12000000D03*
X-33230000Y-12000000D03*
%TD*%
D15*
%TO.C,J119*%
X-1500000Y-17948500D03*
X-499999Y-17948500D03*
X499999Y-17948500D03*
X1500000Y-17948500D03*
D16*
X-2799999Y-21773499D03*
X2799999Y-21773499D03*
%TD*%
D10*
%TO.C,C127*%
X-4750000Y200000D03*
X-4750000Y-1700000D03*
%TD*%
D12*
%TO.C,R160*%
X19260000Y-12000000D03*
X18240000Y-12000000D03*
%TD*%
%TO.C,R128*%
X19260000Y13250000D03*
X18240000Y13250000D03*
%TD*%
%TO.C,R121*%
X-22740000Y16000000D03*
X-23760000Y16000000D03*
%TD*%
D15*
%TO.C,J124*%
X-1500000Y-31948500D03*
X-499999Y-31948500D03*
X499999Y-31948500D03*
X1500000Y-31948500D03*
D16*
X-2799999Y-35773499D03*
X2799999Y-35773499D03*
%TD*%
D15*
%TO.C,J109*%
X-1500000Y10051500D03*
X-499999Y10051500D03*
X499999Y10051500D03*
X1500000Y10051500D03*
D16*
X-2799999Y6226501D03*
X2799999Y6226501D03*
%TD*%
D14*
%TO.C,C104*%
X-32270000Y30000000D03*
X-33230000Y30000000D03*
%TD*%
D13*
%TO.C,mouse-bite-2mm-slot23*%
X-14750000Y-9250000D03*
X-14750000Y-10750000D03*
X-14000000Y-9250000D03*
X-14000000Y-10750000D03*
X-13250000Y-9250000D03*
X-13250000Y-10750000D03*
%TD*%
M02*
