%TF.GenerationSoftware,KiCad,Pcbnew,9.0.3*%
%TF.CreationDate,2026-09-12T02:00:34-04:00*%
%TF.ProjectId,Microcoder-panel,4d696372-6f63-46f6-9465-722d70616e65,rev?*%
%TF.SameCoordinates,Original*%
%TF.FileFunction,Copper,L2,Bot*%
%TF.FilePolarity,Positive*%
%FSLAX46Y46*%
G04 Gerber Fmt 4.6, Leading zero omitted, Abs format (unit mm)*
G04 Created by KiCad (PCBNEW 9.0.3) date 2026-09-12 02:00:34*
%MOMM*%
%LPD*%
G01*
G04 APERTURE LIST*
%TA.AperFunction,ViaPad*%
%ADD10C,0.600000*%
%TD*%
G04 APERTURE END LIST*
D10*
%TO.N,GND*%
X11500000Y-30750000D03*
X15500000Y-30750000D03*
X8750000Y-26750000D03*
X9250000Y-30750000D03*
X-2500000Y-30750000D03*
X1500000Y-30750000D03*
X-5250000Y-26750000D03*
X-4750000Y-30750000D03*
X-16500000Y-30750000D03*
X-12500000Y-30750000D03*
X-19250000Y-26750000D03*
X-18750000Y-30750000D03*
X-30500000Y-30750000D03*
X-26500000Y-30750000D03*
X-33250000Y-26750000D03*
X-32750000Y-30750000D03*
X25500000Y-16750000D03*
X29500000Y-16750000D03*
X22750000Y-12750000D03*
X23250000Y-16750000D03*
X11500000Y-16750000D03*
X15500000Y-16750000D03*
X8750000Y-12750000D03*
X9250000Y-16750000D03*
X-2500000Y-16750000D03*
X1500000Y-16750000D03*
X-5250000Y-12750000D03*
X-4750000Y-16750000D03*
X-16500000Y-16750000D03*
X-12500000Y-16750000D03*
X-19250000Y-12750000D03*
X-18750000Y-16750000D03*
X-30500000Y-16750000D03*
X-26500000Y-16750000D03*
X-33250000Y-12750000D03*
X-32750000Y-16750000D03*
X25500000Y-2750000D03*
X29500000Y-2750000D03*
X22750000Y1250000D03*
X23250000Y-2750000D03*
X11500000Y-2750000D03*
X15500000Y-2750000D03*
X8750000Y1250000D03*
X9250000Y-2750000D03*
X-2500000Y-2750000D03*
X1500000Y-2750000D03*
X-5250000Y1250000D03*
X-4750000Y-2750000D03*
X-16500000Y-2750000D03*
X-12500000Y-2750000D03*
X-19250000Y1250000D03*
X-18750000Y-2750000D03*
X-30500000Y-2750000D03*
X-26500000Y-2750000D03*
X-33250000Y1250000D03*
X-32750000Y-2750000D03*
X25500000Y11250000D03*
X29500000Y11250000D03*
X22750000Y15250000D03*
X23250000Y11250000D03*
X11500000Y11250000D03*
X15500000Y11250000D03*
X8750000Y15250000D03*
X9250000Y11250000D03*
X-2500000Y11250000D03*
X1500000Y11250000D03*
X-5250000Y15250000D03*
X-4750000Y11250000D03*
X-16500000Y11250000D03*
X-12500000Y11250000D03*
X-19250000Y15250000D03*
X-18750000Y11250000D03*
X-30500000Y11250000D03*
X-26500000Y11250000D03*
X-33250000Y15250000D03*
X-32750000Y11250000D03*
X25500000Y25250000D03*
X29500000Y25250000D03*
X22750000Y29250000D03*
X23250000Y25250000D03*
X11500000Y25250000D03*
X15500000Y25250000D03*
X8750000Y29250000D03*
X9250000Y25250000D03*
X-2500000Y25250000D03*
X1500000Y25250000D03*
X-5250000Y29250000D03*
X-4750000Y25250000D03*
X-16500000Y25250000D03*
X-12500000Y25250000D03*
X-19250000Y29250000D03*
X-18750000Y25250000D03*
X-30500000Y25250000D03*
X-26500000Y25250000D03*
X-33250000Y29250000D03*
X-32750000Y25250000D03*
X23250000Y-30750000D03*
X22750000Y-26750000D03*
X29500000Y-30750000D03*
X25500000Y-30750000D03*
%TD*%
%TA.AperFunction,Conductor*%
%TO.N,GND*%
G36*
X19692539Y-25270185D02*
G01*
X19738294Y-25322989D01*
X19749500Y-25374500D01*
X19749500Y-29941290D01*
X19743552Y-29979235D01*
X17595056Y-36663445D01*
X17555801Y-36721245D01*
X17491528Y-36748646D01*
X17477004Y-36749500D01*
X10522995Y-36749500D01*
X10455956Y-36729815D01*
X10410201Y-36677011D01*
X10404943Y-36663445D01*
X8256448Y-29979235D01*
X8250500Y-29941290D01*
X8250500Y-25374500D01*
X8270185Y-25307461D01*
X8322989Y-25261706D01*
X8374500Y-25250500D01*
X19625500Y-25250500D01*
X19692539Y-25270185D01*
G37*
%TD.AperFunction*%
%TD*%
%TA.AperFunction,Conductor*%
%TO.N,GND*%
G36*
X5692539Y-25270185D02*
G01*
X5738294Y-25322989D01*
X5749500Y-25374500D01*
X5749500Y-29941290D01*
X5743552Y-29979235D01*
X3595056Y-36663445D01*
X3555801Y-36721245D01*
X3491528Y-36748646D01*
X3477004Y-36749500D01*
X-3477005Y-36749500D01*
X-3544044Y-36729815D01*
X-3589799Y-36677011D01*
X-3595057Y-36663445D01*
X-5743552Y-29979235D01*
X-5749500Y-29941290D01*
X-5749500Y-25374500D01*
X-5729815Y-25307461D01*
X-5677011Y-25261706D01*
X-5625500Y-25250500D01*
X5625500Y-25250500D01*
X5692539Y-25270185D01*
G37*
%TD.AperFunction*%
%TD*%
%TA.AperFunction,Conductor*%
%TO.N,GND*%
G36*
X-8307461Y-25270185D02*
G01*
X-8261706Y-25322989D01*
X-8250500Y-25374500D01*
X-8250500Y-29941290D01*
X-8256448Y-29979235D01*
X-10404944Y-36663445D01*
X-10444199Y-36721245D01*
X-10508472Y-36748646D01*
X-10522996Y-36749500D01*
X-17477005Y-36749500D01*
X-17544044Y-36729815D01*
X-17589799Y-36677011D01*
X-17595057Y-36663445D01*
X-19743552Y-29979235D01*
X-19749500Y-29941290D01*
X-19749500Y-25374500D01*
X-19729815Y-25307461D01*
X-19677011Y-25261706D01*
X-19625500Y-25250500D01*
X-8374500Y-25250500D01*
X-8307461Y-25270185D01*
G37*
%TD.AperFunction*%
%TD*%
%TA.AperFunction,Conductor*%
%TO.N,GND*%
G36*
X-22307461Y-25270185D02*
G01*
X-22261706Y-25322989D01*
X-22250500Y-25374500D01*
X-22250500Y-29941290D01*
X-22256448Y-29979235D01*
X-24404944Y-36663445D01*
X-24444199Y-36721245D01*
X-24508472Y-36748646D01*
X-24522996Y-36749500D01*
X-31477005Y-36749500D01*
X-31544044Y-36729815D01*
X-31589799Y-36677011D01*
X-31595057Y-36663445D01*
X-33743552Y-29979235D01*
X-33749500Y-29941290D01*
X-33749500Y-25374500D01*
X-33729815Y-25307461D01*
X-33677011Y-25261706D01*
X-33625500Y-25250500D01*
X-22374500Y-25250500D01*
X-22307461Y-25270185D01*
G37*
%TD.AperFunction*%
%TD*%
%TA.AperFunction,Conductor*%
%TO.N,GND*%
G36*
X33692539Y-11270185D02*
G01*
X33738294Y-11322989D01*
X33749500Y-11374500D01*
X33749500Y-15941290D01*
X33743552Y-15979235D01*
X31595056Y-22663445D01*
X31555801Y-22721245D01*
X31491528Y-22748646D01*
X31477004Y-22749500D01*
X24522995Y-22749500D01*
X24455956Y-22729815D01*
X24410201Y-22677011D01*
X24404943Y-22663445D01*
X22256448Y-15979235D01*
X22250500Y-15941290D01*
X22250500Y-11374500D01*
X22270185Y-11307461D01*
X22322989Y-11261706D01*
X22374500Y-11250500D01*
X33625500Y-11250500D01*
X33692539Y-11270185D01*
G37*
%TD.AperFunction*%
%TD*%
%TA.AperFunction,Conductor*%
%TO.N,GND*%
G36*
X19692539Y-11270185D02*
G01*
X19738294Y-11322989D01*
X19749500Y-11374500D01*
X19749500Y-15941290D01*
X19743552Y-15979235D01*
X17595056Y-22663445D01*
X17555801Y-22721245D01*
X17491528Y-22748646D01*
X17477004Y-22749500D01*
X10522995Y-22749500D01*
X10455956Y-22729815D01*
X10410201Y-22677011D01*
X10404943Y-22663445D01*
X8256448Y-15979235D01*
X8250500Y-15941290D01*
X8250500Y-11374500D01*
X8270185Y-11307461D01*
X8322989Y-11261706D01*
X8374500Y-11250500D01*
X19625500Y-11250500D01*
X19692539Y-11270185D01*
G37*
%TD.AperFunction*%
%TD*%
%TA.AperFunction,Conductor*%
%TO.N,GND*%
G36*
X5692539Y-11270185D02*
G01*
X5738294Y-11322989D01*
X5749500Y-11374500D01*
X5749500Y-15941290D01*
X5743552Y-15979235D01*
X3595056Y-22663445D01*
X3555801Y-22721245D01*
X3491528Y-22748646D01*
X3477004Y-22749500D01*
X-3477005Y-22749500D01*
X-3544044Y-22729815D01*
X-3589799Y-22677011D01*
X-3595057Y-22663445D01*
X-5743552Y-15979235D01*
X-5749500Y-15941290D01*
X-5749500Y-11374500D01*
X-5729815Y-11307461D01*
X-5677011Y-11261706D01*
X-5625500Y-11250500D01*
X5625500Y-11250500D01*
X5692539Y-11270185D01*
G37*
%TD.AperFunction*%
%TD*%
%TA.AperFunction,Conductor*%
%TO.N,GND*%
G36*
X-8307461Y-11270185D02*
G01*
X-8261706Y-11322989D01*
X-8250500Y-11374500D01*
X-8250500Y-15941290D01*
X-8256448Y-15979235D01*
X-10404944Y-22663445D01*
X-10444199Y-22721245D01*
X-10508472Y-22748646D01*
X-10522996Y-22749500D01*
X-17477005Y-22749500D01*
X-17544044Y-22729815D01*
X-17589799Y-22677011D01*
X-17595057Y-22663445D01*
X-19743552Y-15979235D01*
X-19749500Y-15941290D01*
X-19749500Y-11374500D01*
X-19729815Y-11307461D01*
X-19677011Y-11261706D01*
X-19625500Y-11250500D01*
X-8374500Y-11250500D01*
X-8307461Y-11270185D01*
G37*
%TD.AperFunction*%
%TD*%
%TA.AperFunction,Conductor*%
%TO.N,GND*%
G36*
X-22307461Y-11270185D02*
G01*
X-22261706Y-11322989D01*
X-22250500Y-11374500D01*
X-22250500Y-15941290D01*
X-22256448Y-15979235D01*
X-24404944Y-22663445D01*
X-24444199Y-22721245D01*
X-24508472Y-22748646D01*
X-24522996Y-22749500D01*
X-31477005Y-22749500D01*
X-31544044Y-22729815D01*
X-31589799Y-22677011D01*
X-31595057Y-22663445D01*
X-33743552Y-15979235D01*
X-33749500Y-15941290D01*
X-33749500Y-11374500D01*
X-33729815Y-11307461D01*
X-33677011Y-11261706D01*
X-33625500Y-11250500D01*
X-22374500Y-11250500D01*
X-22307461Y-11270185D01*
G37*
%TD.AperFunction*%
%TD*%
%TA.AperFunction,Conductor*%
%TO.N,GND*%
G36*
X33692539Y2729815D02*
G01*
X33738294Y2677011D01*
X33749500Y2625500D01*
X33749500Y-1941290D01*
X33743552Y-1979235D01*
X31595056Y-8663445D01*
X31555801Y-8721245D01*
X31491528Y-8748646D01*
X31477004Y-8749500D01*
X24522995Y-8749500D01*
X24455956Y-8729815D01*
X24410201Y-8677011D01*
X24404943Y-8663445D01*
X22256448Y-1979235D01*
X22250500Y-1941290D01*
X22250500Y2625500D01*
X22270185Y2692539D01*
X22322989Y2738294D01*
X22374500Y2749500D01*
X33625500Y2749500D01*
X33692539Y2729815D01*
G37*
%TD.AperFunction*%
%TD*%
%TA.AperFunction,Conductor*%
%TO.N,GND*%
G36*
X19692539Y2729815D02*
G01*
X19738294Y2677011D01*
X19749500Y2625500D01*
X19749500Y-1941290D01*
X19743552Y-1979235D01*
X17595056Y-8663445D01*
X17555801Y-8721245D01*
X17491528Y-8748646D01*
X17477004Y-8749500D01*
X10522995Y-8749500D01*
X10455956Y-8729815D01*
X10410201Y-8677011D01*
X10404943Y-8663445D01*
X8256448Y-1979235D01*
X8250500Y-1941290D01*
X8250500Y2625500D01*
X8270185Y2692539D01*
X8322989Y2738294D01*
X8374500Y2749500D01*
X19625500Y2749500D01*
X19692539Y2729815D01*
G37*
%TD.AperFunction*%
%TD*%
%TA.AperFunction,Conductor*%
%TO.N,GND*%
G36*
X5692539Y2729815D02*
G01*
X5738294Y2677011D01*
X5749500Y2625500D01*
X5749500Y-1941290D01*
X5743552Y-1979235D01*
X3595056Y-8663445D01*
X3555801Y-8721245D01*
X3491528Y-8748646D01*
X3477004Y-8749500D01*
X-3477005Y-8749500D01*
X-3544044Y-8729815D01*
X-3589799Y-8677011D01*
X-3595057Y-8663445D01*
X-5743552Y-1979235D01*
X-5749500Y-1941290D01*
X-5749500Y2625500D01*
X-5729815Y2692539D01*
X-5677011Y2738294D01*
X-5625500Y2749500D01*
X5625500Y2749500D01*
X5692539Y2729815D01*
G37*
%TD.AperFunction*%
%TD*%
%TA.AperFunction,Conductor*%
%TO.N,GND*%
G36*
X-8307461Y2729815D02*
G01*
X-8261706Y2677011D01*
X-8250500Y2625500D01*
X-8250500Y-1941290D01*
X-8256448Y-1979235D01*
X-10404944Y-8663445D01*
X-10444199Y-8721245D01*
X-10508472Y-8748646D01*
X-10522996Y-8749500D01*
X-17477005Y-8749500D01*
X-17544044Y-8729815D01*
X-17589799Y-8677011D01*
X-17595057Y-8663445D01*
X-19743552Y-1979235D01*
X-19749500Y-1941290D01*
X-19749500Y2625500D01*
X-19729815Y2692539D01*
X-19677011Y2738294D01*
X-19625500Y2749500D01*
X-8374500Y2749500D01*
X-8307461Y2729815D01*
G37*
%TD.AperFunction*%
%TD*%
%TA.AperFunction,Conductor*%
%TO.N,GND*%
G36*
X-22307461Y2729815D02*
G01*
X-22261706Y2677011D01*
X-22250500Y2625500D01*
X-22250500Y-1941290D01*
X-22256448Y-1979235D01*
X-24404944Y-8663445D01*
X-24444199Y-8721245D01*
X-24508472Y-8748646D01*
X-24522996Y-8749500D01*
X-31477005Y-8749500D01*
X-31544044Y-8729815D01*
X-31589799Y-8677011D01*
X-31595057Y-8663445D01*
X-33743552Y-1979235D01*
X-33749500Y-1941290D01*
X-33749500Y2625500D01*
X-33729815Y2692539D01*
X-33677011Y2738294D01*
X-33625500Y2749500D01*
X-22374500Y2749500D01*
X-22307461Y2729815D01*
G37*
%TD.AperFunction*%
%TD*%
%TA.AperFunction,Conductor*%
%TO.N,GND*%
G36*
X33692539Y16729815D02*
G01*
X33738294Y16677011D01*
X33749500Y16625500D01*
X33749500Y12058710D01*
X33743552Y12020765D01*
X31595056Y5336555D01*
X31555801Y5278755D01*
X31491528Y5251354D01*
X31477004Y5250500D01*
X24522995Y5250500D01*
X24455956Y5270185D01*
X24410201Y5322989D01*
X24404943Y5336555D01*
X22256448Y12020765D01*
X22250500Y12058710D01*
X22250500Y16625500D01*
X22270185Y16692539D01*
X22322989Y16738294D01*
X22374500Y16749500D01*
X33625500Y16749500D01*
X33692539Y16729815D01*
G37*
%TD.AperFunction*%
%TD*%
%TA.AperFunction,Conductor*%
%TO.N,GND*%
G36*
X19692539Y16729815D02*
G01*
X19738294Y16677011D01*
X19749500Y16625500D01*
X19749500Y12058710D01*
X19743552Y12020765D01*
X17595056Y5336555D01*
X17555801Y5278755D01*
X17491528Y5251354D01*
X17477004Y5250500D01*
X10522995Y5250500D01*
X10455956Y5270185D01*
X10410201Y5322989D01*
X10404943Y5336555D01*
X8256448Y12020765D01*
X8250500Y12058710D01*
X8250500Y16625500D01*
X8270185Y16692539D01*
X8322989Y16738294D01*
X8374500Y16749500D01*
X19625500Y16749500D01*
X19692539Y16729815D01*
G37*
%TD.AperFunction*%
%TD*%
%TA.AperFunction,Conductor*%
%TO.N,GND*%
G36*
X5692539Y16729815D02*
G01*
X5738294Y16677011D01*
X5749500Y16625500D01*
X5749500Y12058710D01*
X5743552Y12020765D01*
X3595056Y5336555D01*
X3555801Y5278755D01*
X3491528Y5251354D01*
X3477004Y5250500D01*
X-3477005Y5250500D01*
X-3544044Y5270185D01*
X-3589799Y5322989D01*
X-3595057Y5336555D01*
X-5743552Y12020765D01*
X-5749500Y12058710D01*
X-5749500Y16625500D01*
X-5729815Y16692539D01*
X-5677011Y16738294D01*
X-5625500Y16749500D01*
X5625500Y16749500D01*
X5692539Y16729815D01*
G37*
%TD.AperFunction*%
%TD*%
%TA.AperFunction,Conductor*%
%TO.N,GND*%
G36*
X-8307461Y16729815D02*
G01*
X-8261706Y16677011D01*
X-8250500Y16625500D01*
X-8250500Y12058710D01*
X-8256448Y12020765D01*
X-10404944Y5336555D01*
X-10444199Y5278755D01*
X-10508472Y5251354D01*
X-10522996Y5250500D01*
X-17477005Y5250500D01*
X-17544044Y5270185D01*
X-17589799Y5322989D01*
X-17595057Y5336555D01*
X-19743552Y12020765D01*
X-19749500Y12058710D01*
X-19749500Y16625500D01*
X-19729815Y16692539D01*
X-19677011Y16738294D01*
X-19625500Y16749500D01*
X-8374500Y16749500D01*
X-8307461Y16729815D01*
G37*
%TD.AperFunction*%
%TD*%
%TA.AperFunction,Conductor*%
%TO.N,GND*%
G36*
X-22307461Y16729815D02*
G01*
X-22261706Y16677011D01*
X-22250500Y16625500D01*
X-22250500Y12058710D01*
X-22256448Y12020765D01*
X-24404944Y5336555D01*
X-24444199Y5278755D01*
X-24508472Y5251354D01*
X-24522996Y5250500D01*
X-31477005Y5250500D01*
X-31544044Y5270185D01*
X-31589799Y5322989D01*
X-31595057Y5336555D01*
X-33743552Y12020765D01*
X-33749500Y12058710D01*
X-33749500Y16625500D01*
X-33729815Y16692539D01*
X-33677011Y16738294D01*
X-33625500Y16749500D01*
X-22374500Y16749500D01*
X-22307461Y16729815D01*
G37*
%TD.AperFunction*%
%TD*%
%TA.AperFunction,Conductor*%
%TO.N,GND*%
G36*
X33692539Y30729815D02*
G01*
X33738294Y30677011D01*
X33749500Y30625500D01*
X33749500Y26058710D01*
X33743552Y26020765D01*
X31595056Y19336555D01*
X31555801Y19278755D01*
X31491528Y19251354D01*
X31477004Y19250500D01*
X24522995Y19250500D01*
X24455956Y19270185D01*
X24410201Y19322989D01*
X24404943Y19336555D01*
X22256448Y26020765D01*
X22250500Y26058710D01*
X22250500Y30625500D01*
X22270185Y30692539D01*
X22322989Y30738294D01*
X22374500Y30749500D01*
X33625500Y30749500D01*
X33692539Y30729815D01*
G37*
%TD.AperFunction*%
%TD*%
%TA.AperFunction,Conductor*%
%TO.N,GND*%
G36*
X19692539Y30729815D02*
G01*
X19738294Y30677011D01*
X19749500Y30625500D01*
X19749500Y26058710D01*
X19743552Y26020765D01*
X17595056Y19336555D01*
X17555801Y19278755D01*
X17491528Y19251354D01*
X17477004Y19250500D01*
X10522995Y19250500D01*
X10455956Y19270185D01*
X10410201Y19322989D01*
X10404943Y19336555D01*
X8256448Y26020765D01*
X8250500Y26058710D01*
X8250500Y30625500D01*
X8270185Y30692539D01*
X8322989Y30738294D01*
X8374500Y30749500D01*
X19625500Y30749500D01*
X19692539Y30729815D01*
G37*
%TD.AperFunction*%
%TD*%
%TA.AperFunction,Conductor*%
%TO.N,GND*%
G36*
X5692539Y30729815D02*
G01*
X5738294Y30677011D01*
X5749500Y30625500D01*
X5749500Y26058710D01*
X5743552Y26020765D01*
X3595056Y19336555D01*
X3555801Y19278755D01*
X3491528Y19251354D01*
X3477004Y19250500D01*
X-3477005Y19250500D01*
X-3544044Y19270185D01*
X-3589799Y19322989D01*
X-3595057Y19336555D01*
X-5743552Y26020765D01*
X-5749500Y26058710D01*
X-5749500Y30625500D01*
X-5729815Y30692539D01*
X-5677011Y30738294D01*
X-5625500Y30749500D01*
X5625500Y30749500D01*
X5692539Y30729815D01*
G37*
%TD.AperFunction*%
%TD*%
%TA.AperFunction,Conductor*%
%TO.N,GND*%
G36*
X-8307461Y30729815D02*
G01*
X-8261706Y30677011D01*
X-8250500Y30625500D01*
X-8250500Y26058710D01*
X-8256448Y26020765D01*
X-10404944Y19336555D01*
X-10444199Y19278755D01*
X-10508472Y19251354D01*
X-10522996Y19250500D01*
X-17477005Y19250500D01*
X-17544044Y19270185D01*
X-17589799Y19322989D01*
X-17595057Y19336555D01*
X-19743552Y26020765D01*
X-19749500Y26058710D01*
X-19749500Y30625500D01*
X-19729815Y30692539D01*
X-19677011Y30738294D01*
X-19625500Y30749500D01*
X-8374500Y30749500D01*
X-8307461Y30729815D01*
G37*
%TD.AperFunction*%
%TD*%
%TA.AperFunction,Conductor*%
%TO.N,GND*%
G36*
X-22307461Y30729815D02*
G01*
X-22261706Y30677011D01*
X-22250500Y30625500D01*
X-22250500Y26058710D01*
X-22256448Y26020765D01*
X-24404944Y19336555D01*
X-24444199Y19278755D01*
X-24508472Y19251354D01*
X-24522996Y19250500D01*
X-31477005Y19250500D01*
X-31544044Y19270185D01*
X-31589799Y19322989D01*
X-31595057Y19336555D01*
X-33743552Y26020765D01*
X-33749500Y26058710D01*
X-33749500Y30625500D01*
X-33729815Y30692539D01*
X-33677011Y30738294D01*
X-33625500Y30749500D01*
X-22374500Y30749500D01*
X-22307461Y30729815D01*
G37*
%TD.AperFunction*%
%TD*%
%TA.AperFunction,Conductor*%
%TO.N,GND*%
G36*
X33692539Y-25270185D02*
G01*
X33738294Y-25322989D01*
X33749500Y-25374500D01*
X33749500Y-29941290D01*
X33743552Y-29979235D01*
X31595056Y-36663445D01*
X31555801Y-36721245D01*
X31491528Y-36748646D01*
X31477004Y-36749500D01*
X24522995Y-36749500D01*
X24455956Y-36729815D01*
X24410201Y-36677011D01*
X24404943Y-36663445D01*
X22256448Y-29979235D01*
X22250500Y-29941290D01*
X22250500Y-25374500D01*
X22270185Y-25307461D01*
X22322989Y-25261706D01*
X22374500Y-25250500D01*
X33625500Y-25250500D01*
X33692539Y-25270185D01*
G37*
%TD.AperFunction*%
%TD*%
M02*
