M48
; DRILL file {KiCad 9.0.3} date 2026-09-10T02:21:08-0400
; FORMAT={-:-/ absolute / metric / decimal}
; #@! TF.CreationDate,2026-09-10T02:21:08-04:00
; #@! TF.GenerationSoftware,Kicad,Pcbnew,9.0.3
; #@! TF.FileFunction,NonPlated,1,2,NPTH
FMAT,2
METRIC
; #@! TA.AperFunction,NonPlated,NPTH,ComponentDrill
T1C0.500
%
G90
G05
T1
X-28.75Y32.75
X-28.75Y31.25
X-28.75Y18.75
X-28.75Y17.25
X-28.75Y4.75
X-28.75Y3.25
X-28.75Y-9.25
X-28.75Y-10.75
X-28.75Y-23.25
X-28.75Y-24.75
X-28.75Y-37.25
X-28.75Y-38.75
X-28.0Y32.75
X-28.0Y31.25
X-28.0Y18.75
X-28.0Y17.25
X-28.0Y4.75
X-28.0Y3.25
X-28.0Y-9.25
X-28.0Y-10.75
X-28.0Y-23.25
X-28.0Y-24.75
X-28.0Y-37.25
X-28.0Y-38.75
X-27.25Y32.75
X-27.25Y31.25
X-27.25Y18.75
X-27.25Y17.25
X-27.25Y4.75
X-27.25Y3.25
X-27.25Y-9.25
X-27.25Y-10.75
X-27.25Y-23.25
X-27.25Y-24.75
X-27.25Y-37.25
X-27.25Y-38.75
X-21.75Y29.25
X-21.75Y28.5
X-21.75Y27.75
X-21.75Y15.25
X-21.75Y14.5
X-21.75Y13.75
X-21.75Y1.25
X-21.75Y0.5
X-21.75Y-0.25
X-21.75Y-12.75
X-21.75Y-13.5
X-21.75Y-14.25
X-21.75Y-26.75
X-21.75Y-27.5
X-21.75Y-28.25
X-20.25Y29.25
X-20.25Y28.5
X-20.25Y27.75
X-20.25Y15.25
X-20.25Y14.5
X-20.25Y13.75
X-20.25Y1.25
X-20.25Y0.5
X-20.25Y-0.25
X-20.25Y-12.75
X-20.25Y-13.5
X-20.25Y-14.25
X-20.25Y-26.75
X-20.25Y-27.5
X-20.25Y-28.25
X-14.75Y32.75
X-14.75Y31.25
X-14.75Y18.75
X-14.75Y17.25
X-14.75Y4.75
X-14.75Y3.25
X-14.75Y-9.25
X-14.75Y-10.75
X-14.75Y-23.25
X-14.75Y-24.75
X-14.75Y-37.25
X-14.75Y-38.75
X-14.0Y32.75
X-14.0Y31.25
X-14.0Y18.75
X-14.0Y17.25
X-14.0Y4.75
X-14.0Y3.25
X-14.0Y-9.25
X-14.0Y-10.75
X-14.0Y-23.25
X-14.0Y-24.75
X-14.0Y-37.25
X-14.0Y-38.75
X-13.25Y32.75
X-13.25Y31.25
X-13.25Y18.75
X-13.25Y17.25
X-13.25Y4.75
X-13.25Y3.25
X-13.25Y-9.25
X-13.25Y-10.75
X-13.25Y-23.25
X-13.25Y-24.75
X-13.25Y-37.25
X-13.25Y-38.75
X-7.75Y29.25
X-7.75Y28.5
X-7.75Y27.75
X-7.75Y15.25
X-7.75Y14.5
X-7.75Y13.75
X-7.75Y1.25
X-7.75Y0.5
X-7.75Y-0.25
X-7.75Y-12.75
X-7.75Y-13.5
X-7.75Y-14.25
X-7.75Y-26.75
X-7.75Y-27.5
X-7.75Y-28.25
X-6.25Y29.25
X-6.25Y28.5
X-6.25Y27.75
X-6.25Y15.25
X-6.25Y14.5
X-6.25Y13.75
X-6.25Y1.25
X-6.25Y0.5
X-6.25Y-0.25
X-6.25Y-12.75
X-6.25Y-13.5
X-6.25Y-14.25
X-6.25Y-26.75
X-6.25Y-27.5
X-6.25Y-28.25
X-0.75Y32.75
X-0.75Y31.25
X-0.75Y18.75
X-0.75Y17.25
X-0.75Y4.75
X-0.75Y3.25
X-0.75Y-9.25
X-0.75Y-10.75
X-0.75Y-23.25
X-0.75Y-24.75
X-0.75Y-37.25
X-0.75Y-38.75
X0.0Y32.75
X0.0Y31.25
X0.0Y18.75
X0.0Y17.25
X0.0Y4.75
X0.0Y3.25
X0.0Y-9.25
X0.0Y-10.75
X0.0Y-23.25
X0.0Y-24.75
X0.0Y-37.25
X0.0Y-38.75
X0.75Y32.75
X0.75Y31.25
X0.75Y18.75
X0.75Y17.25
X0.75Y4.75
X0.75Y3.25
X0.75Y-9.25
X0.75Y-10.75
X0.75Y-23.25
X0.75Y-24.75
X0.75Y-37.25
X0.75Y-38.75
X6.25Y29.25
X6.25Y28.5
X6.25Y27.75
X6.25Y15.25
X6.25Y14.5
X6.25Y13.75
X6.25Y1.25
X6.25Y0.5
X6.25Y-0.25
X6.25Y-12.75
X6.25Y-13.5
X6.25Y-14.25
X6.25Y-26.75
X6.25Y-27.5
X6.25Y-28.25
X7.75Y29.25
X7.75Y28.5
X7.75Y27.75
X7.75Y15.25
X7.75Y14.5
X7.75Y13.75
X7.75Y1.25
X7.75Y0.5
X7.75Y-0.25
X7.75Y-12.75
X7.75Y-13.5
X7.75Y-14.25
X7.75Y-26.75
X7.75Y-27.5
X7.75Y-28.25
X13.25Y32.75
X13.25Y31.25
X13.25Y18.75
X13.25Y17.25
X13.25Y4.75
X13.25Y3.25
X13.25Y-9.25
X13.25Y-10.75
X13.25Y-23.25
X13.25Y-24.75
X13.25Y-37.25
X13.25Y-38.75
X14.0Y32.75
X14.0Y31.25
X14.0Y18.75
X14.0Y17.25
X14.0Y4.75
X14.0Y3.25
X14.0Y-9.25
X14.0Y-10.75
X14.0Y-23.25
X14.0Y-24.75
X14.0Y-37.25
X14.0Y-38.75
X14.75Y32.75
X14.75Y31.25
X14.75Y18.75
X14.75Y17.25
X14.75Y4.75
X14.75Y3.25
X14.75Y-9.25
X14.75Y-10.75
X14.75Y-23.25
X14.75Y-24.75
X14.75Y-37.25
X14.75Y-38.75
X20.25Y29.25
X20.25Y28.5
X20.25Y27.75
X20.25Y15.25
X20.25Y14.5
X20.25Y13.75
X20.25Y1.25
X20.25Y0.5
X20.25Y-0.25
X20.25Y-12.75
X20.25Y-13.5
X20.25Y-14.25
X20.25Y-26.75
X20.25Y-27.5
X20.25Y-28.25
X21.75Y29.25
X21.75Y28.5
X21.75Y27.75
X21.75Y15.25
X21.75Y14.5
X21.75Y13.75
X21.75Y1.25
X21.75Y0.5
X21.75Y-0.25
X21.75Y-12.75
X21.75Y-13.5
X21.75Y-14.25
X21.75Y-26.75
X21.75Y-27.5
X21.75Y-28.25
X27.25Y32.75
X27.25Y31.25
X27.25Y18.75
X27.25Y17.25
X27.25Y4.75
X27.25Y3.25
X27.25Y-9.25
X27.25Y-10.75
X27.25Y-23.25
X27.25Y-24.75
X27.25Y-37.25
X27.25Y-38.75
X28.0Y32.75
X28.0Y31.25
X28.0Y18.75
X28.0Y17.25
X28.0Y4.75
X28.0Y3.25
X28.0Y-9.25
X28.0Y-10.75
X28.0Y-23.25
X28.0Y-24.75
X28.0Y-37.25
X28.0Y-38.75
X28.75Y32.75
X28.75Y31.25
X28.75Y18.75
X28.75Y17.25
X28.75Y4.75
X28.75Y3.25
X28.75Y-9.25
X28.75Y-10.75
X28.75Y-23.25
X28.75Y-24.75
X28.75Y-37.25
X28.75Y-38.75
M30
