M48
; DRILL file {KiCad 9.0.3} date 2026-09-12T02:23:57-0400
; FORMAT={-:-/ absolute / metric / decimal}
; #@! TF.CreationDate,2026-09-12T02:23:57-04:00
; #@! TF.GenerationSoftware,Kicad,Pcbnew,9.0.3
; #@! TF.FileFunction,NonPlated,1,2,NPTH
FMAT,2
METRIC
; #@! TA.AperFunction,NonPlated,NPTH,ComponentDrill
T1C0.500
; #@! TA.AperFunction,NonPlated,NPTH,ComponentDrill
T2C0.650
; #@! TA.AperFunction,NonPlated,NPTH,ComponentDrill
T3C2.200
; #@! TA.AperFunction,NonPlated,NPTH,ComponentDrill
T4C2.700
%
G90
G05
T1
X26.0Y-22.25
X26.0Y-23.75
X26.0Y-36.25
X26.0Y-37.75
X26.0Y-50.25
X26.0Y-51.75
X26.0Y-64.25
X26.0Y-65.75
X26.0Y-78.25
X26.0Y-79.75
X26.0Y-92.25
X26.0Y-93.75
X26.75Y-22.25
X26.75Y-23.75
X26.75Y-36.25
X26.75Y-37.75
X26.75Y-50.25
X26.75Y-51.75
X26.75Y-64.25
X26.75Y-65.75
X26.75Y-78.25
X26.75Y-79.75
X26.75Y-92.25
X26.75Y-93.75
X27.5Y-22.25
X27.5Y-23.75
X27.5Y-36.25
X27.5Y-37.75
X27.5Y-50.25
X27.5Y-51.75
X27.5Y-64.25
X27.5Y-65.75
X27.5Y-78.25
X27.5Y-79.75
X27.5Y-92.25
X27.5Y-93.75
X33.0Y-25.75
X33.0Y-26.5
X33.0Y-27.25
X33.0Y-39.75
X33.0Y-40.5
X33.0Y-41.25
X33.0Y-53.75
X33.0Y-54.5
X33.0Y-55.25
X33.0Y-67.75
X33.0Y-68.5
X33.0Y-69.25
X33.0Y-81.75
X33.0Y-82.5
X33.0Y-83.25
X34.5Y-25.75
X34.5Y-26.5
X34.5Y-27.25
X34.5Y-39.75
X34.5Y-40.5
X34.5Y-41.25
X34.5Y-53.75
X34.5Y-54.5
X34.5Y-55.25
X34.5Y-67.75
X34.5Y-68.5
X34.5Y-69.25
X34.5Y-81.75
X34.5Y-82.5
X34.5Y-83.25
X40.0Y-22.25
X40.0Y-23.75
X40.0Y-36.25
X40.0Y-37.75
X40.0Y-50.25
X40.0Y-51.75
X40.0Y-64.25
X40.0Y-65.75
X40.0Y-78.25
X40.0Y-79.75
X40.0Y-92.25
X40.0Y-93.75
X40.75Y-22.25
X40.75Y-23.75
X40.75Y-36.25
X40.75Y-37.75
X40.75Y-50.25
X40.75Y-51.75
X40.75Y-64.25
X40.75Y-65.75
X40.75Y-78.25
X40.75Y-79.75
X40.75Y-92.25
X40.75Y-93.75
X41.5Y-22.25
X41.5Y-23.75
X41.5Y-36.25
X41.5Y-37.75
X41.5Y-50.25
X41.5Y-51.75
X41.5Y-64.25
X41.5Y-65.75
X41.5Y-78.25
X41.5Y-79.75
X41.5Y-92.25
X41.5Y-93.75
X47.0Y-25.75
X47.0Y-26.5
X47.0Y-27.25
X47.0Y-39.75
X47.0Y-40.5
X47.0Y-41.25
X47.0Y-53.75
X47.0Y-54.5
X47.0Y-55.25
X47.0Y-67.75
X47.0Y-68.5
X47.0Y-69.25
X47.0Y-81.75
X47.0Y-82.5
X47.0Y-83.25
X48.5Y-25.75
X48.5Y-26.5
X48.5Y-27.25
X48.5Y-39.75
X48.5Y-40.5
X48.5Y-41.25
X48.5Y-53.75
X48.5Y-54.5
X48.5Y-55.25
X48.5Y-67.75
X48.5Y-68.5
X48.5Y-69.25
X48.5Y-81.75
X48.5Y-82.5
X48.5Y-83.25
X54.0Y-22.25
X54.0Y-23.75
X54.0Y-36.25
X54.0Y-37.75
X54.0Y-50.25
X54.0Y-51.75
X54.0Y-64.25
X54.0Y-65.75
X54.0Y-78.25
X54.0Y-79.75
X54.0Y-92.25
X54.0Y-93.75
X54.75Y-22.25
X54.75Y-23.75
X54.75Y-36.25
X54.75Y-37.75
X54.75Y-50.25
X54.75Y-51.75
X54.75Y-64.25
X54.75Y-65.75
X54.75Y-78.25
X54.75Y-79.75
X54.75Y-92.25
X54.75Y-93.75
X55.5Y-22.25
X55.5Y-23.75
X55.5Y-36.25
X55.5Y-37.75
X55.5Y-50.25
X55.5Y-51.75
X55.5Y-64.25
X55.5Y-65.75
X55.5Y-78.25
X55.5Y-79.75
X55.5Y-92.25
X55.5Y-93.75
X61.0Y-25.75
X61.0Y-26.5
X61.0Y-27.25
X61.0Y-39.75
X61.0Y-40.5
X61.0Y-41.25
X61.0Y-53.75
X61.0Y-54.5
X61.0Y-55.25
X61.0Y-67.75
X61.0Y-68.5
X61.0Y-69.25
X61.0Y-81.75
X61.0Y-82.5
X61.0Y-83.25
X62.5Y-25.75
X62.5Y-26.5
X62.5Y-27.25
X62.5Y-39.75
X62.5Y-40.5
X62.5Y-41.25
X62.5Y-53.75
X62.5Y-54.5
X62.5Y-55.25
X62.5Y-67.75
X62.5Y-68.5
X62.5Y-69.25
X62.5Y-81.75
X62.5Y-82.5
X62.5Y-83.25
X68.0Y-22.25
X68.0Y-23.75
X68.0Y-36.25
X68.0Y-37.75
X68.0Y-50.25
X68.0Y-51.75
X68.0Y-64.25
X68.0Y-65.75
X68.0Y-78.25
X68.0Y-79.75
X68.0Y-92.25
X68.0Y-93.75
X68.75Y-22.25
X68.75Y-23.75
X68.75Y-36.25
X68.75Y-37.75
X68.75Y-50.25
X68.75Y-51.75
X68.75Y-64.25
X68.75Y-65.75
X68.75Y-78.25
X68.75Y-79.75
X68.75Y-92.25
X68.75Y-93.75
X69.5Y-22.25
X69.5Y-23.75
X69.5Y-36.25
X69.5Y-37.75
X69.5Y-50.25
X69.5Y-51.75
X69.5Y-64.25
X69.5Y-65.75
X69.5Y-78.25
X69.5Y-79.75
X69.5Y-92.25
X69.5Y-93.75
X75.0Y-25.75
X75.0Y-26.5
X75.0Y-27.25
X75.0Y-39.75
X75.0Y-40.5
X75.0Y-41.25
X75.0Y-53.75
X75.0Y-54.5
X75.0Y-55.25
X75.0Y-67.75
X75.0Y-68.5
X75.0Y-69.25
X75.0Y-81.75
X75.0Y-82.5
X75.0Y-83.25
X76.5Y-25.75
X76.5Y-26.5
X76.5Y-27.25
X76.5Y-39.75
X76.5Y-40.5
X76.5Y-41.25
X76.5Y-53.75
X76.5Y-54.5
X76.5Y-55.25
X76.5Y-67.75
X76.5Y-68.5
X76.5Y-69.25
X76.5Y-81.75
X76.5Y-82.5
X76.5Y-83.25
X82.0Y-22.25
X82.0Y-23.75
X82.0Y-36.25
X82.0Y-37.75
X82.0Y-50.25
X82.0Y-51.75
X82.0Y-64.25
X82.0Y-65.75
X82.0Y-78.25
X82.0Y-79.75
X82.0Y-92.25
X82.0Y-93.75
X82.75Y-22.25
X82.75Y-23.75
X82.75Y-36.25
X82.75Y-37.75
X82.75Y-50.25
X82.75Y-51.75
X82.75Y-64.25
X82.75Y-65.75
X82.75Y-78.25
X82.75Y-79.75
X82.75Y-92.25
X82.75Y-93.75
X83.5Y-22.25
X83.5Y-23.75
X83.5Y-36.25
X83.5Y-37.75
X83.5Y-50.25
X83.5Y-51.75
X83.5Y-64.25
X83.5Y-65.75
X83.5Y-78.25
X83.5Y-79.75
X83.5Y-92.25
X83.5Y-93.75
T2
X118.1Y-122.52
X118.1Y-128.3
T3
X115.42Y-117.27
X115.42Y-139.77
X151.42Y-146.77
X160.67Y-110.27
T4
X25.729Y-122.979
X25.729Y-147.021
X49.771Y-122.979
X49.771Y-147.021
M30
