%TF.GenerationSoftware,KiCad,Pcbnew,9.0.3*%
%TF.CreationDate,2026-09-12T02:23:41-04:00*%
%TF.ProjectId,Combined_Stencil3,436f6d62-696e-4656-945f-5374656e6369,rev?*%
%TF.SameCoordinates,Original*%
%TF.FileFunction,Soldermask,Bot*%
%TF.FilePolarity,Negative*%
%FSLAX46Y46*%
G04 Gerber Fmt 4.6, Leading zero omitted, Abs format (unit mm)*
G04 Created by KiCad (PCBNEW 9.0.3) date 2026-09-12 02:23:41*
%MOMM*%
%LPD*%
G01*
G04 APERTURE LIST*
G04 Aperture macros list*
%AMRoundRect*
0 Rectangle with rounded corners*
0 $1 Rounding radius*
0 $2 $3 $4 $5 $6 $7 $8 $9 X,Y pos of 4 corners*
0 Add a 4 corners polygon primitive as box body*
4,1,4,$2,$3,$4,$5,$6,$7,$8,$9,$2,$3,0*
0 Add four circle primitives for the rounded corners*
1,1,$1+$1,$2,$3*
1,1,$1+$1,$4,$5*
1,1,$1+$1,$6,$7*
1,1,$1+$1,$8,$9*
0 Add four rect primitives between the rounded corners*
20,1,$1+$1,$2,$3,$4,$5,0*
20,1,$1+$1,$4,$5,$6,$7,0*
20,1,$1+$1,$6,$7,$8,$9,0*
20,1,$1+$1,$8,$9,$2,$3,0*%
G04 Aperture macros list end*
%ADD10R,0.800000X0.400000*%
%ADD11R,0.800000X0.300000*%
%ADD12C,1.600000*%
%ADD13RoundRect,0.250000X-0.550000X0.550000X-0.550000X-0.550000X0.550000X-0.550000X0.550000X0.550000X0*%
%ADD14C,1.700000*%
%ADD15R,1.700000X1.700000*%
%ADD16C,4.000000*%
%ADD17RoundRect,0.760000X1.140000X1.140000X-1.140000X1.140000X-1.140000X-1.140000X1.140000X-1.140000X0*%
%ADD18C,2.200000*%
%ADD19O,2.004000X1.204000*%
%ADD20O,2.304000X1.204000*%
%ADD21C,0.650000*%
%ADD22C,2.700000*%
%ADD23RoundRect,0.250000X-0.725000X0.600000X-0.725000X-0.600000X0.725000X-0.600000X0.725000X0.600000X0*%
%ADD24O,1.950000X1.700000*%
%ADD25C,0.500000*%
G04 APERTURE END LIST*
D10*
%TO.C,J201*%
X167783537Y-55000000D03*
X167783537Y-72500000D03*
D11*
X165283537Y-56000000D03*
X165283537Y-56500000D03*
X165283537Y-57000000D03*
X165283537Y-57500000D03*
X165283537Y-58000000D03*
X165283537Y-58500000D03*
X165283537Y-59000000D03*
X165283537Y-59500000D03*
X165283537Y-60000000D03*
X165283537Y-60500000D03*
X165283537Y-61000000D03*
X165283537Y-61500000D03*
X165283537Y-62000000D03*
X165283537Y-62500000D03*
X165283537Y-63000000D03*
X165283537Y-63500000D03*
X165283537Y-64000000D03*
X165283537Y-64500000D03*
X165283537Y-65000000D03*
X165283537Y-65500000D03*
X165283537Y-66000000D03*
X165283537Y-66500000D03*
X165283537Y-67000000D03*
X165283537Y-67500000D03*
X165283537Y-68000000D03*
X165283537Y-68500000D03*
X165283537Y-69000000D03*
X165283537Y-69500000D03*
X165283537Y-70000000D03*
X165283537Y-70500000D03*
X165283537Y-71000000D03*
X165283537Y-71500000D03*
%TD*%
D12*
%TO.C,C305*%
X163500000Y-43257349D03*
D13*
X163500000Y-39757349D03*
%TD*%
D14*
%TO.C,J101*%
X116750000Y-60660000D03*
X116750000Y-58120000D03*
X116750000Y-55580000D03*
X116750000Y-53040000D03*
X116750000Y-50500000D03*
X116750000Y-47960000D03*
X116750000Y-45420000D03*
X116750000Y-42880000D03*
D15*
X116750000Y-40340000D03*
%TD*%
D16*
%TO.C,J102*%
X115170000Y-145770000D03*
D17*
X120170000Y-145770000D03*
%TD*%
D18*
%TO.C,REF\u002A\u002A*%
X160670000Y-110270000D03*
%TD*%
D16*
%TO.C,J109*%
X115170000Y-111270000D03*
D17*
X120170000Y-111270000D03*
%TD*%
D18*
%TO.C,REF\u002A\u002A*%
X151420000Y-146770000D03*
%TD*%
%TO.C,REF\u002A\u002A*%
X115420000Y-117270000D03*
%TD*%
%TO.C,REF\u002A\u002A*%
X115420000Y-139770000D03*
%TD*%
D19*
%TO.C,J101*%
X114420000Y-129730000D03*
X114420000Y-121090000D03*
D20*
X118600000Y-129730000D03*
X118600000Y-121090000D03*
D21*
X118100000Y-128300000D03*
X118100000Y-122520000D03*
%TD*%
D22*
%TO.C,REF\u002A\u002A*%
X25729000Y-122979000D03*
%TD*%
%TO.C,REF\u002A\u002A*%
X49771000Y-147021000D03*
%TD*%
%TO.C,REF\u002A\u002A*%
X49771000Y-122979000D03*
%TD*%
%TO.C,REF\u002A\u002A*%
X25729000Y-147021000D03*
%TD*%
D15*
%TO.C,J103*%
X139170000Y-142520000D03*
D14*
X136630000Y-142520000D03*
X134090000Y-142520000D03*
X131550000Y-142520000D03*
X129010000Y-142520000D03*
X126470000Y-142520000D03*
X123930000Y-142520000D03*
%TD*%
D23*
%TO.C,J108*%
X161670000Y-125270000D03*
D24*
X161670000Y-127770000D03*
X161670000Y-130270000D03*
%TD*%
D15*
%TO.C,J110*%
X139170000Y-114770000D03*
D14*
X136630000Y-114770000D03*
X134090000Y-114770000D03*
X131550000Y-114770000D03*
X129010000Y-114770000D03*
X126470000Y-114770000D03*
X123930000Y-114770000D03*
%TD*%
D23*
%TO.C,J105*%
X161670000Y-138770000D03*
D24*
X161670000Y-141270000D03*
X161670000Y-143770000D03*
%TD*%
D25*
%TO.C,mouse-bite-2mm-slot33*%
X40000000Y-78250000D03*
X40000000Y-79750000D03*
X40750000Y-78250000D03*
X40750000Y-79750000D03*
X41500000Y-78250000D03*
X41500000Y-79750000D03*
%TD*%
%TO.C,mouse-bite-2mm-slot45*%
X55500000Y-23750000D03*
X55500000Y-22250000D03*
X54750000Y-23750000D03*
X54750000Y-22250000D03*
X54000000Y-23750000D03*
X54000000Y-22250000D03*
%TD*%
%TO.C,mouse-bite-2mm-slot36*%
X47000000Y-69250000D03*
X48500000Y-69250000D03*
X47000000Y-68500000D03*
X48500000Y-68500000D03*
X47000000Y-67750000D03*
X48500000Y-67750000D03*
%TD*%
%TO.C,mouse-bite-2mm-slot31*%
X26000000Y-78250000D03*
X26000000Y-79750000D03*
X26750000Y-78250000D03*
X26750000Y-79750000D03*
X27500000Y-78250000D03*
X27500000Y-79750000D03*
%TD*%
%TO.C,mouse-bite-2mm-slot41*%
X26000000Y-92250000D03*
X26000000Y-93750000D03*
X26750000Y-92250000D03*
X26750000Y-93750000D03*
X27500000Y-92250000D03*
X27500000Y-93750000D03*
%TD*%
%TO.C,mouse-bite-2mm-slot21*%
X26000000Y-64250000D03*
X26000000Y-65750000D03*
X26750000Y-64250000D03*
X26750000Y-65750000D03*
X27500000Y-64250000D03*
X27500000Y-65750000D03*
%TD*%
%TO.C,mouse-bite-2mm-slot13*%
X40000000Y-50250000D03*
X40000000Y-51750000D03*
X40750000Y-50250000D03*
X40750000Y-51750000D03*
X41500000Y-50250000D03*
X41500000Y-51750000D03*
%TD*%
%TO.C,mouse-bite-2mm-slot37*%
X68000000Y-78250000D03*
X68000000Y-79750000D03*
X68750000Y-78250000D03*
X68750000Y-79750000D03*
X69500000Y-78250000D03*
X69500000Y-79750000D03*
%TD*%
%TO.C,mouse-bite-2mm-slot5*%
X54000000Y-36250000D03*
X54000000Y-37750000D03*
X54750000Y-36250000D03*
X54750000Y-37750000D03*
X55500000Y-36250000D03*
X55500000Y-37750000D03*
%TD*%
%TO.C,mouse-bite-2mm-slot11*%
X26000000Y-50250000D03*
X26000000Y-51750000D03*
X26750000Y-50250000D03*
X26750000Y-51750000D03*
X27500000Y-50250000D03*
X27500000Y-51750000D03*
%TD*%
%TO.C,mouse-bite-2mm-slot39*%
X82000000Y-78250000D03*
X82000000Y-79750000D03*
X82750000Y-78250000D03*
X82750000Y-79750000D03*
X83500000Y-78250000D03*
X83500000Y-79750000D03*
%TD*%
%TO.C,mouse-bite-2mm-slot40*%
X75000000Y-69250000D03*
X76500000Y-69250000D03*
X75000000Y-68500000D03*
X76500000Y-68500000D03*
X75000000Y-67750000D03*
X76500000Y-67750000D03*
%TD*%
%TO.C,mouse-bite-2mm-slot3*%
X40000000Y-36250000D03*
X40000000Y-37750000D03*
X40750000Y-36250000D03*
X40750000Y-37750000D03*
X41500000Y-36250000D03*
X41500000Y-37750000D03*
%TD*%
%TO.C,mouse-bite-2mm-slot6*%
X47000000Y-27250000D03*
X48500000Y-27250000D03*
X47000000Y-26500000D03*
X48500000Y-26500000D03*
X47000000Y-25750000D03*
X48500000Y-25750000D03*
%TD*%
%TO.C,mouse-bite-2mm-slot48*%
X61000000Y-83250000D03*
X62500000Y-83250000D03*
X61000000Y-82500000D03*
X62500000Y-82500000D03*
X61000000Y-81750000D03*
X62500000Y-81750000D03*
%TD*%
%TO.C,mouse-bite-2mm-slot45*%
X54000000Y-92250000D03*
X54000000Y-93750000D03*
X54750000Y-92250000D03*
X54750000Y-93750000D03*
X55500000Y-92250000D03*
X55500000Y-93750000D03*
%TD*%
%TO.C,mouse-bite-2mm-slot44*%
X33000000Y-83250000D03*
X34500000Y-83250000D03*
X33000000Y-82500000D03*
X34500000Y-82500000D03*
X33000000Y-81750000D03*
X34500000Y-81750000D03*
%TD*%
%TO.C,mouse-bite-2mm-slot17*%
X68000000Y-50250000D03*
X68000000Y-51750000D03*
X68750000Y-50250000D03*
X68750000Y-51750000D03*
X69500000Y-50250000D03*
X69500000Y-51750000D03*
%TD*%
%TO.C,mouse-bite-2mm-slot14*%
X33000000Y-41250000D03*
X34500000Y-41250000D03*
X33000000Y-40500000D03*
X34500000Y-40500000D03*
X33000000Y-39750000D03*
X34500000Y-39750000D03*
%TD*%
%TO.C,mouse-bite-2mm-slot25*%
X54000000Y-64250000D03*
X54000000Y-65750000D03*
X54750000Y-64250000D03*
X54750000Y-65750000D03*
X55500000Y-64250000D03*
X55500000Y-65750000D03*
%TD*%
%TO.C,mouse-bite-2mm-slot47*%
X41500000Y-23750000D03*
X41500000Y-22250000D03*
X40750000Y-23750000D03*
X40750000Y-22250000D03*
X40000000Y-23750000D03*
X40000000Y-22250000D03*
%TD*%
%TO.C,mouse-bite-2mm-slot10*%
X75000000Y-27250000D03*
X76500000Y-27250000D03*
X75000000Y-26500000D03*
X76500000Y-26500000D03*
X75000000Y-25750000D03*
X76500000Y-25750000D03*
%TD*%
%TO.C,mouse-bite-2mm-slot*%
X75000000Y-83250000D03*
X76500000Y-83250000D03*
X75000000Y-82500000D03*
X76500000Y-82500000D03*
X75000000Y-81750000D03*
X76500000Y-81750000D03*
%TD*%
%TO.C,mouse-bite-2mm-slot*%
X27500000Y-23750000D03*
X27500000Y-22250000D03*
X26750000Y-23750000D03*
X26750000Y-22250000D03*
X26000000Y-23750000D03*
X26000000Y-22250000D03*
%TD*%
%TO.C,mouse-bite-2mm-slot18*%
X61000000Y-41250000D03*
X62500000Y-41250000D03*
X61000000Y-40500000D03*
X62500000Y-40500000D03*
X61000000Y-39750000D03*
X62500000Y-39750000D03*
%TD*%
%TO.C,mouse-bite-2mm-slot41*%
X83500000Y-23750000D03*
X83500000Y-22250000D03*
X82750000Y-23750000D03*
X82750000Y-22250000D03*
X82000000Y-23750000D03*
X82000000Y-22250000D03*
%TD*%
%TO.C,mouse-bite-2mm-slot38*%
X61000000Y-69250000D03*
X62500000Y-69250000D03*
X61000000Y-68500000D03*
X62500000Y-68500000D03*
X61000000Y-67750000D03*
X62500000Y-67750000D03*
%TD*%
%TO.C,mouse-bite-2mm-slot4*%
X33000000Y-27250000D03*
X34500000Y-27250000D03*
X33000000Y-26500000D03*
X34500000Y-26500000D03*
X33000000Y-25750000D03*
X34500000Y-25750000D03*
%TD*%
%TO.C,mouse-bite-2mm-slot7*%
X68000000Y-36250000D03*
X68000000Y-37750000D03*
X68750000Y-36250000D03*
X68750000Y-37750000D03*
X69500000Y-36250000D03*
X69500000Y-37750000D03*
%TD*%
%TO.C,mouse-bite-2mm-slot19*%
X82000000Y-50250000D03*
X82000000Y-51750000D03*
X82750000Y-50250000D03*
X82750000Y-51750000D03*
X83500000Y-50250000D03*
X83500000Y-51750000D03*
%TD*%
%TO.C,mouse-bite-2mm-slot43*%
X69500000Y-23750000D03*
X69500000Y-22250000D03*
X68750000Y-23750000D03*
X68750000Y-22250000D03*
X68000000Y-23750000D03*
X68000000Y-22250000D03*
%TD*%
%TO.C,mouse-bite-2mm-slot16*%
X47000000Y-41250000D03*
X48500000Y-41250000D03*
X47000000Y-40500000D03*
X48500000Y-40500000D03*
X47000000Y-39750000D03*
X48500000Y-39750000D03*
%TD*%
%TO.C,mouse-bite-2mm-slot27*%
X68000000Y-64250000D03*
X68000000Y-65750000D03*
X68750000Y-64250000D03*
X68750000Y-65750000D03*
X69500000Y-64250000D03*
X69500000Y-65750000D03*
%TD*%
%TO.C,mouse-bite-2mm-slot1*%
X26000000Y-36250000D03*
X26000000Y-37750000D03*
X26750000Y-36250000D03*
X26750000Y-37750000D03*
X27500000Y-36250000D03*
X27500000Y-37750000D03*
%TD*%
%TO.C,mouse-bite-2mm-slot8*%
X61000000Y-27250000D03*
X62500000Y-27250000D03*
X61000000Y-26500000D03*
X62500000Y-26500000D03*
X61000000Y-25750000D03*
X62500000Y-25750000D03*
%TD*%
%TO.C,mouse-bite-2mm-slot9*%
X82000000Y-36250000D03*
X82000000Y-37750000D03*
X82750000Y-36250000D03*
X82750000Y-37750000D03*
X83500000Y-36250000D03*
X83500000Y-37750000D03*
%TD*%
%TO.C,mouse-bite-2mm-slot20*%
X75000000Y-41250000D03*
X76500000Y-41250000D03*
X75000000Y-40500000D03*
X76500000Y-40500000D03*
X75000000Y-39750000D03*
X76500000Y-39750000D03*
%TD*%
%TO.C,mouse-bite-2mm-slot29*%
X82000000Y-64250000D03*
X82000000Y-65750000D03*
X82750000Y-64250000D03*
X82750000Y-65750000D03*
X83500000Y-64250000D03*
X83500000Y-65750000D03*
%TD*%
%TO.C,mouse-bite-2mm-slot24*%
X33000000Y-55250000D03*
X34500000Y-55250000D03*
X33000000Y-54500000D03*
X34500000Y-54500000D03*
X33000000Y-53750000D03*
X34500000Y-53750000D03*
%TD*%
%TO.C,mouse-bite-2mm-slot35*%
X54000000Y-78250000D03*
X54000000Y-79750000D03*
X54750000Y-78250000D03*
X54750000Y-79750000D03*
X55500000Y-78250000D03*
X55500000Y-79750000D03*
%TD*%
%TO.C,mouse-bite-2mm-slot34*%
X33000000Y-69250000D03*
X34500000Y-69250000D03*
X33000000Y-68500000D03*
X34500000Y-68500000D03*
X33000000Y-67750000D03*
X34500000Y-67750000D03*
%TD*%
%TO.C,mouse-bite-2mm-slot23*%
X40000000Y-64250000D03*
X40000000Y-65750000D03*
X40750000Y-64250000D03*
X40750000Y-65750000D03*
X41500000Y-64250000D03*
X41500000Y-65750000D03*
%TD*%
%TO.C,mouse-bite-2mm-slot30*%
X75000000Y-55250000D03*
X76500000Y-55250000D03*
X75000000Y-54500000D03*
X76500000Y-54500000D03*
X75000000Y-53750000D03*
X76500000Y-53750000D03*
%TD*%
%TO.C,mouse-bite-2mm-slot47*%
X68000000Y-92250000D03*
X68000000Y-93750000D03*
X68750000Y-92250000D03*
X68750000Y-93750000D03*
X69500000Y-92250000D03*
X69500000Y-93750000D03*
%TD*%
%TO.C,mouse-bite-2mm-slot46*%
X47000000Y-83250000D03*
X48500000Y-83250000D03*
X47000000Y-82500000D03*
X48500000Y-82500000D03*
X47000000Y-81750000D03*
X48500000Y-81750000D03*
%TD*%
%TO.C,mouse-bite-2mm-slot15*%
X54000000Y-50250000D03*
X54000000Y-51750000D03*
X54750000Y-50250000D03*
X54750000Y-51750000D03*
X55500000Y-50250000D03*
X55500000Y-51750000D03*
%TD*%
%TO.C,mouse-bite-2mm-slot26*%
X47000000Y-55250000D03*
X48500000Y-55250000D03*
X47000000Y-54500000D03*
X48500000Y-54500000D03*
X47000000Y-53750000D03*
X48500000Y-53750000D03*
%TD*%
%TO.C,mouse-bite-2mm-slot28*%
X61000000Y-55250000D03*
X62500000Y-55250000D03*
X61000000Y-54500000D03*
X62500000Y-54500000D03*
X61000000Y-53750000D03*
X62500000Y-53750000D03*
%TD*%
%TO.C,mouse-bite-2mm-slot*%
X82000000Y-92250000D03*
X82000000Y-93750000D03*
X82750000Y-92250000D03*
X82750000Y-93750000D03*
X83500000Y-92250000D03*
X83500000Y-93750000D03*
%TD*%
%TO.C,mouse-bite-2mm-slot43*%
X40000000Y-92250000D03*
X40000000Y-93750000D03*
X40750000Y-92250000D03*
X40750000Y-93750000D03*
X41500000Y-92250000D03*
X41500000Y-93750000D03*
%TD*%
M02*
