%TF.GenerationSoftware,KiCad,Pcbnew,9.0.3*%
%TF.CreationDate,2026-09-12T02:23:41-04:00*%
%TF.ProjectId,Combined_Stencil3,436f6d62-696e-4656-945f-5374656e6369,rev?*%
%TF.SameCoordinates,Original*%
%TF.FileFunction,Profile,NP*%
%FSLAX46Y46*%
G04 Gerber Fmt 4.6, Leading zero omitted, Abs format (unit mm)*
G04 Created by KiCad (PCBNEW 9.0.3) date 2026-09-12 02:23:41*
%MOMM*%
%LPD*%
G01*
G04 APERTURE LIST*
%TA.AperFunction,Profile*%
%ADD10C,0.050000*%
%TD*%
%TA.AperFunction,Profile*%
%ADD11C,0.100000*%
%TD*%
G04 APERTURE END LIST*
D10*
X114750000Y-23000000D02*
X169750000Y-23000000D01*
X169750000Y-78000000D01*
X114750000Y-78000000D01*
X114750000Y-23000000D01*
X49750000Y-150000000D02*
X25750000Y-150000000D01*
X25750000Y-150000000D02*
G75*
G02*
X22750000Y-147000000I1J3000001D01*
G01*
X52750000Y-123000000D02*
X52750000Y-147000000D01*
X49750000Y-120000000D02*
G75*
G02*
X52750000Y-123000000I-1J-3000001D01*
G01*
X22750000Y-123000000D02*
G75*
G02*
X25750000Y-120000000I3000001J-1D01*
G01*
X25750000Y-120000000D02*
X49750000Y-120000000D01*
X52750000Y-147000000D02*
G75*
G02*
X49750000Y-150000000I-3000001J1D01*
G01*
X22750000Y-147000000D02*
X22750000Y-123000000D01*
D11*
X111420000Y-107520000D02*
X169420000Y-107520000D01*
X169420000Y-149520000D01*
X111420000Y-149520000D01*
X111420000Y-107520000D01*
D10*
X34750000Y-38500000D02*
X34750000Y-38000000D01*
X46750000Y-42500000D02*
X46750000Y-43000000D01*
X38750000Y-50000000D02*
X37000000Y-50000000D01*
X42750000Y-38000000D02*
X46750000Y-38000000D01*
X34750000Y-38000000D02*
X38750000Y-38000000D01*
X46750000Y-38000000D02*
X46750000Y-38500000D01*
X44500000Y-50000000D02*
X46750000Y-43000000D01*
X34750000Y-43000000D02*
X34750000Y-42500000D01*
X42750000Y-50000000D02*
X44500000Y-50000000D01*
X34750000Y-43000000D02*
X37000000Y-50000000D01*
X20750000Y-43000000D02*
X20750000Y-42500000D01*
X32750000Y-42500000D02*
X32750000Y-43000000D01*
X32750000Y-38000000D02*
X32750000Y-38500000D01*
X20750000Y-38500000D02*
X20750000Y-38000000D01*
X24750000Y-50000000D02*
X23000000Y-50000000D01*
X20750000Y-43000000D02*
X23000000Y-50000000D01*
X20750000Y-38000000D02*
X24750000Y-38000000D01*
X28750000Y-38000000D02*
X32750000Y-38000000D01*
X28750000Y-50000000D02*
X30500000Y-50000000D01*
X30500000Y-50000000D02*
X32750000Y-43000000D01*
X88750000Y-28500000D02*
X88750000Y-29000000D01*
X76750000Y-24000000D02*
X80750000Y-24000000D01*
X76750000Y-24500000D02*
X76750000Y-24000000D01*
X88750000Y-24000000D02*
X88750000Y-24500000D01*
X76750000Y-29000000D02*
X76750000Y-28500000D01*
X42750000Y-80000000D02*
X46750000Y-80000000D01*
X34750000Y-85000000D02*
X34750000Y-84500000D01*
X34750000Y-80500000D02*
X34750000Y-80000000D01*
X46750000Y-80000000D02*
X46750000Y-80500000D01*
X34750000Y-80000000D02*
X38750000Y-80000000D01*
X34750000Y-85000000D02*
X37000000Y-92000000D01*
X44500000Y-92000000D02*
X46750000Y-85000000D01*
X46750000Y-84500000D02*
X46750000Y-85000000D01*
X38750000Y-92000000D02*
X37000000Y-92000000D01*
X42750000Y-92000000D02*
X44500000Y-92000000D01*
X20750000Y-85000000D02*
X20750000Y-84500000D01*
X32750000Y-84500000D02*
X32750000Y-85000000D01*
X20750000Y-80000000D02*
X24750000Y-80000000D01*
X28750000Y-80000000D02*
X32750000Y-80000000D01*
X28750000Y-92000000D02*
X30500000Y-92000000D01*
X24750000Y-92000000D02*
X23000000Y-92000000D01*
X30500000Y-92000000D02*
X32750000Y-85000000D01*
X20750000Y-80500000D02*
X20750000Y-80000000D01*
X20750000Y-85000000D02*
X23000000Y-92000000D01*
X32750000Y-80000000D02*
X32750000Y-80500000D01*
X84750000Y-66000000D02*
X88750000Y-66000000D01*
X76750000Y-71000000D02*
X79000000Y-78000000D01*
X88750000Y-66000000D02*
X88750000Y-66500000D01*
X80750000Y-78000000D02*
X79000000Y-78000000D01*
X76750000Y-71000000D02*
X76750000Y-70500000D01*
X76750000Y-66500000D02*
X76750000Y-66000000D01*
X76750000Y-66000000D02*
X80750000Y-66000000D01*
X84750000Y-78000000D02*
X86500000Y-78000000D01*
X88750000Y-70500000D02*
X88750000Y-71000000D01*
X86500000Y-78000000D02*
X88750000Y-71000000D01*
X74750000Y-70500000D02*
X74750000Y-71000000D01*
X62750000Y-66500000D02*
X62750000Y-66000000D01*
X62750000Y-66000000D02*
X66750000Y-66000000D01*
X74750000Y-66000000D02*
X74750000Y-66500000D01*
X66750000Y-78000000D02*
X65000000Y-78000000D01*
X70750000Y-66000000D02*
X74750000Y-66000000D01*
X62750000Y-71000000D02*
X62750000Y-70500000D01*
X70750000Y-78000000D02*
X72500000Y-78000000D01*
X62750000Y-71000000D02*
X65000000Y-78000000D01*
X72500000Y-78000000D02*
X74750000Y-71000000D01*
X48750000Y-80500000D02*
X48750000Y-80000000D01*
X58500000Y-92000000D02*
X60750000Y-85000000D01*
X56750000Y-92000000D02*
X58500000Y-92000000D01*
X52750000Y-92000000D02*
X51000000Y-92000000D01*
X48750000Y-85000000D02*
X51000000Y-92000000D01*
X56750000Y-80000000D02*
X60750000Y-80000000D01*
X60750000Y-80000000D02*
X60750000Y-80500000D01*
X60750000Y-84500000D02*
X60750000Y-85000000D01*
X48750000Y-85000000D02*
X48750000Y-84500000D01*
X48750000Y-80000000D02*
X52750000Y-80000000D01*
X42750000Y-80000000D02*
G75*
G02*
X42750000Y-78000000I0J1000000D01*
G01*
X38750000Y-78000000D02*
G75*
G02*
X38750000Y-80000000I0J-1000000D01*
G01*
X52750000Y-22000000D02*
G75*
G02*
X52750000Y-24000000I0J-1000000D01*
G01*
X56750000Y-24000000D02*
G75*
G02*
X56750000Y-22000000I0J1000000D01*
G01*
X46750000Y-70500000D02*
G75*
G02*
X48750000Y-70500000I1000000J0D01*
G01*
X48750000Y-66500000D02*
G75*
G02*
X46750000Y-66500000I-1000000J0D01*
G01*
X24750000Y-78000000D02*
G75*
G02*
X24750000Y-80000000I0J-1000000D01*
G01*
X28750000Y-80000000D02*
G75*
G02*
X28750000Y-78000000I0J1000000D01*
G01*
X24750000Y-92000000D02*
G75*
G02*
X24750000Y-94000000I0J-1000000D01*
G01*
X28750000Y-94000000D02*
G75*
G02*
X28750000Y-92000000I0J1000000D01*
G01*
X28750000Y-66000000D02*
G75*
G02*
X28750000Y-64000000I0J1000000D01*
G01*
X24750000Y-64000000D02*
G75*
G02*
X24750000Y-66000000I0J-1000000D01*
G01*
X42750000Y-52000000D02*
G75*
G02*
X42750000Y-50000000I0J1000000D01*
G01*
X38750000Y-50000000D02*
G75*
G02*
X38750000Y-52000000I0J-1000000D01*
G01*
X66750000Y-78000000D02*
G75*
G02*
X66750000Y-80000000I0J-1000000D01*
G01*
X70750000Y-80000000D02*
G75*
G02*
X70750000Y-78000000I0J1000000D01*
G01*
X56750000Y-38000000D02*
G75*
G02*
X56750000Y-36000000I0J1000000D01*
G01*
X52750000Y-36000000D02*
G75*
G02*
X52750000Y-38000000I0J-1000000D01*
G01*
X24750000Y-50000000D02*
G75*
G02*
X24750000Y-52000000I0J-1000000D01*
G01*
X28750000Y-52000000D02*
G75*
G02*
X28750000Y-50000000I0J1000000D01*
G01*
X84750000Y-80000000D02*
G75*
G02*
X84750000Y-78000000I0J1000000D01*
G01*
X80750000Y-78000000D02*
G75*
G02*
X80750000Y-80000000I0J-1000000D01*
G01*
X76750000Y-66500000D02*
G75*
G02*
X74750000Y-66500000I-1000000J0D01*
G01*
X74750000Y-70500000D02*
G75*
G02*
X76750000Y-70500000I1000000J0D01*
G01*
X34750000Y-24500000D02*
X34750000Y-24000000D01*
X34750000Y-24000000D02*
X38750000Y-24000000D01*
X34750000Y-29000000D02*
X37000000Y-36000000D01*
X42750000Y-36000000D02*
X44500000Y-36000000D01*
X44500000Y-36000000D02*
X46750000Y-29000000D01*
X34750000Y-29000000D02*
X34750000Y-28500000D01*
X46750000Y-28500000D02*
X46750000Y-29000000D01*
X46750000Y-24000000D02*
X46750000Y-24500000D01*
X38750000Y-36000000D02*
X37000000Y-36000000D01*
X42750000Y-24000000D02*
X46750000Y-24000000D01*
X34750000Y-52500000D02*
X34750000Y-52000000D01*
X42750000Y-64000000D02*
X44500000Y-64000000D01*
X42750000Y-52000000D02*
X46750000Y-52000000D01*
X34750000Y-57000000D02*
X37000000Y-64000000D01*
X34750000Y-57000000D02*
X34750000Y-56500000D01*
X34750000Y-52000000D02*
X38750000Y-52000000D01*
X46750000Y-56500000D02*
X46750000Y-57000000D01*
X46750000Y-52000000D02*
X46750000Y-52500000D01*
X38750000Y-64000000D02*
X37000000Y-64000000D01*
X44500000Y-64000000D02*
X46750000Y-57000000D01*
X72500000Y-64000000D02*
X74750000Y-57000000D01*
X62750000Y-52500000D02*
X62750000Y-52000000D01*
X62750000Y-52000000D02*
X66750000Y-52000000D01*
X70750000Y-64000000D02*
X72500000Y-64000000D01*
X66750000Y-64000000D02*
X65000000Y-64000000D01*
X62750000Y-57000000D02*
X65000000Y-64000000D01*
X70750000Y-52000000D02*
X74750000Y-52000000D01*
X48750000Y-57000000D02*
X48750000Y-56500000D01*
X48750000Y-52000000D02*
X52750000Y-52000000D01*
X52750000Y-64000000D02*
X51000000Y-64000000D01*
X58500000Y-64000000D02*
X60750000Y-57000000D01*
X48750000Y-57000000D02*
X51000000Y-64000000D01*
X60750000Y-56500000D02*
X60750000Y-57000000D01*
X60750000Y-52000000D02*
X60750000Y-52500000D01*
X56750000Y-64000000D02*
X58500000Y-64000000D01*
X48750000Y-52500000D02*
X48750000Y-52000000D01*
X56750000Y-52000000D02*
X60750000Y-52000000D01*
X56750000Y-50000000D02*
X58500000Y-50000000D01*
X58500000Y-50000000D02*
X60750000Y-43000000D01*
X60750000Y-42500000D02*
X60750000Y-43000000D01*
X48750000Y-38500000D02*
X48750000Y-38000000D01*
X52750000Y-50000000D02*
X51000000Y-50000000D01*
X48750000Y-38000000D02*
X52750000Y-38000000D01*
X48750000Y-43000000D02*
X51000000Y-50000000D01*
X60750000Y-38000000D02*
X60750000Y-38500000D01*
X56750000Y-38000000D02*
X60750000Y-38000000D01*
X48750000Y-43000000D02*
X48750000Y-42500000D01*
X62750000Y-38000000D02*
X66750000Y-38000000D01*
X62750000Y-43000000D02*
X65000000Y-50000000D01*
X62750000Y-43000000D02*
X62750000Y-42500000D01*
X74750000Y-38000000D02*
X74750000Y-38500000D01*
X66750000Y-50000000D02*
X65000000Y-50000000D01*
X72500000Y-50000000D02*
X74750000Y-43000000D01*
X62750000Y-38500000D02*
X62750000Y-38000000D01*
X70750000Y-38000000D02*
X74750000Y-38000000D01*
X74750000Y-42500000D02*
X74750000Y-43000000D01*
X70750000Y-50000000D02*
X72500000Y-50000000D01*
X20750000Y-24000000D02*
X24750000Y-24000000D01*
X76750000Y-85000000D02*
X76750000Y-84500000D01*
X28750000Y-24000000D02*
X32750000Y-24000000D01*
X88750000Y-84500000D02*
X88750000Y-85000000D01*
X28750000Y-36000000D02*
X30500000Y-36000000D01*
X24750000Y-36000000D02*
X23000000Y-36000000D01*
X32750000Y-24000000D02*
X32750000Y-24500000D01*
X20750000Y-24500000D02*
X20750000Y-24000000D01*
X88750000Y-80000000D02*
X88750000Y-80500000D01*
X32750000Y-28500000D02*
X32750000Y-29000000D01*
X30500000Y-36000000D02*
X32750000Y-29000000D01*
X76750000Y-80500000D02*
X76750000Y-80000000D01*
X20750000Y-29000000D02*
X20750000Y-28500000D01*
X20750000Y-29000000D02*
X23000000Y-36000000D01*
X76750000Y-80000000D02*
X80750000Y-80000000D01*
X84750000Y-92000000D02*
X86500000Y-92000000D01*
X84750000Y-80000000D02*
X88750000Y-80000000D01*
X80750000Y-92000000D02*
X79000000Y-92000000D01*
X24750000Y-64000000D02*
X23000000Y-64000000D01*
X20750000Y-57000000D02*
X23000000Y-64000000D01*
X32750000Y-56500000D02*
X32750000Y-57000000D01*
X30500000Y-64000000D02*
X32750000Y-57000000D01*
X20750000Y-52500000D02*
X20750000Y-52000000D01*
X20750000Y-57000000D02*
X20750000Y-56500000D01*
X32750000Y-52000000D02*
X32750000Y-52500000D01*
X20750000Y-52000000D02*
X24750000Y-52000000D01*
X28750000Y-64000000D02*
X30500000Y-64000000D01*
X28750000Y-52000000D02*
X32750000Y-52000000D01*
X84750000Y-38000000D02*
X88750000Y-38000000D01*
X76750000Y-43000000D02*
X76750000Y-42500000D01*
X88750000Y-42500000D02*
X88750000Y-43000000D01*
X76750000Y-38500000D02*
X76750000Y-38000000D01*
X84750000Y-50000000D02*
X86500000Y-50000000D01*
X88750000Y-38000000D02*
X88750000Y-38500000D01*
X76750000Y-38000000D02*
X80750000Y-38000000D01*
X86500000Y-50000000D02*
X88750000Y-43000000D01*
X76750000Y-43000000D02*
X79000000Y-50000000D01*
X80750000Y-50000000D02*
X79000000Y-50000000D01*
X86500000Y-92000000D02*
X88750000Y-85000000D01*
X76750000Y-85000000D02*
X79000000Y-92000000D01*
X20750000Y-24500000D02*
X20750000Y-28500000D01*
X20750000Y-38500000D02*
X20750000Y-42500000D01*
X20750000Y-52500000D02*
X20750000Y-56500000D01*
X20750000Y-80500000D02*
X20750000Y-84500000D01*
X88750000Y-66500000D02*
X88750000Y-70500000D01*
X88750000Y-52500000D02*
X88750000Y-56500000D01*
X88750000Y-38500000D02*
X88750000Y-42500000D01*
X88750000Y-24500000D02*
X88750000Y-28500000D01*
X20750000Y-66500000D02*
X20750000Y-70500000D01*
X88750000Y-80500000D02*
X88750000Y-84500000D01*
X74750000Y-80000000D02*
X74750000Y-80500000D01*
X62750000Y-80000000D02*
X66750000Y-80000000D01*
X72500000Y-92000000D02*
X74750000Y-85000000D01*
X70750000Y-80000000D02*
X74750000Y-80000000D01*
X62750000Y-80500000D02*
X62750000Y-80000000D01*
X74750000Y-84500000D02*
X74750000Y-85000000D01*
X62750000Y-85000000D02*
X62750000Y-84500000D01*
X66750000Y-92000000D02*
X65000000Y-92000000D01*
X62750000Y-85000000D02*
X65000000Y-92000000D01*
X70750000Y-92000000D02*
X72500000Y-92000000D01*
X38750000Y-78000000D02*
X37000000Y-78000000D01*
X34750000Y-71000000D02*
X37000000Y-78000000D01*
X46750000Y-66000000D02*
X46750000Y-66500000D01*
X34750000Y-66000000D02*
X38750000Y-66000000D01*
X42750000Y-66000000D02*
X46750000Y-66000000D01*
X44500000Y-78000000D02*
X46750000Y-71000000D01*
X34750000Y-66500000D02*
X34750000Y-66000000D01*
X46750000Y-70500000D02*
X46750000Y-71000000D01*
X42750000Y-78000000D02*
X44500000Y-78000000D01*
X34750000Y-71000000D02*
X34750000Y-70500000D01*
X20750000Y-66000000D02*
X24750000Y-66000000D01*
X20750000Y-66500000D02*
X20750000Y-66000000D01*
X32750000Y-70500000D02*
X32750000Y-71000000D01*
X32750000Y-66000000D02*
X32750000Y-66500000D01*
X28750000Y-78000000D02*
X30500000Y-78000000D01*
X28750000Y-66000000D02*
X32750000Y-66000000D01*
X20750000Y-71000000D02*
X20750000Y-70500000D01*
X24750000Y-78000000D02*
X23000000Y-78000000D01*
X30500000Y-78000000D02*
X32750000Y-71000000D01*
X20750000Y-71000000D02*
X23000000Y-78000000D01*
X88750000Y-52000000D02*
X88750000Y-52500000D01*
X76750000Y-57000000D02*
X76750000Y-56500000D01*
X76750000Y-52500000D02*
X76750000Y-52000000D01*
X88750000Y-56500000D02*
X88750000Y-57000000D01*
X84750000Y-64000000D02*
X86500000Y-64000000D01*
X86500000Y-64000000D02*
X88750000Y-57000000D01*
X80750000Y-64000000D02*
X79000000Y-64000000D01*
X76750000Y-57000000D02*
X79000000Y-64000000D01*
X76750000Y-52000000D02*
X80750000Y-52000000D01*
X84750000Y-52000000D02*
X88750000Y-52000000D01*
X74750000Y-56500000D02*
X74750000Y-57000000D01*
X74750000Y-52000000D02*
X74750000Y-52500000D01*
X62750000Y-57000000D02*
X62750000Y-56500000D01*
X52750000Y-78000000D02*
X51000000Y-78000000D01*
X56750000Y-66000000D02*
X60750000Y-66000000D01*
X56750000Y-78000000D02*
X58500000Y-78000000D01*
X60750000Y-70500000D02*
X60750000Y-71000000D01*
X60750000Y-66000000D02*
X60750000Y-66500000D01*
X48750000Y-66500000D02*
X48750000Y-66000000D01*
X48750000Y-66000000D02*
X52750000Y-66000000D01*
X48750000Y-71000000D02*
X48750000Y-70500000D01*
X58500000Y-78000000D02*
X60750000Y-71000000D01*
X48750000Y-71000000D02*
X51000000Y-78000000D01*
X62750000Y-29000000D02*
X62750000Y-28500000D01*
X74750000Y-28500000D02*
X74750000Y-29000000D01*
X74750000Y-24000000D02*
X74750000Y-24500000D01*
X70750000Y-24000000D02*
X74750000Y-24000000D01*
X62750000Y-24500000D02*
X62750000Y-24000000D01*
X66750000Y-36000000D02*
X65000000Y-36000000D01*
X62750000Y-24000000D02*
X66750000Y-24000000D01*
X70750000Y-36000000D02*
X72500000Y-36000000D01*
X72500000Y-36000000D02*
X74750000Y-29000000D01*
X62750000Y-29000000D02*
X65000000Y-36000000D01*
X60750000Y-24000000D02*
X60750000Y-24500000D01*
X48750000Y-24500000D02*
X48750000Y-24000000D01*
X48750000Y-24000000D02*
X52750000Y-24000000D01*
X56750000Y-36000000D02*
X58500000Y-36000000D01*
X56750000Y-24000000D02*
X60750000Y-24000000D01*
X48750000Y-29000000D02*
X48750000Y-28500000D01*
X58500000Y-36000000D02*
X60750000Y-29000000D01*
X48750000Y-29000000D02*
X51000000Y-36000000D01*
X60750000Y-28500000D02*
X60750000Y-29000000D01*
X52750000Y-36000000D02*
X51000000Y-36000000D01*
X84750000Y-24000000D02*
X88750000Y-24000000D01*
X86500000Y-36000000D02*
X88750000Y-29000000D01*
X76750000Y-29000000D02*
X79000000Y-36000000D01*
X84750000Y-36000000D02*
X86500000Y-36000000D01*
X80750000Y-36000000D02*
X79000000Y-36000000D01*
X20750000Y-98000000D02*
X88750000Y-98000000D01*
X28750000Y-22000000D02*
X38750000Y-22000000D01*
X66750000Y-94000000D02*
X56750000Y-94000000D01*
X84750000Y-22000000D02*
X88750000Y-22000000D01*
X42750000Y-22000000D02*
X52750000Y-22000000D01*
X20750000Y-94000000D02*
X20750000Y-98000000D01*
X88750000Y-94000000D02*
X84750000Y-94000000D01*
X38750000Y-94000000D02*
X28750000Y-94000000D01*
X20750000Y-22000000D02*
X24750000Y-22000000D01*
X52750000Y-94000000D02*
X42750000Y-94000000D01*
X88750000Y-98000000D02*
X88750000Y-94000000D01*
X80750000Y-94000000D02*
X70750000Y-94000000D01*
X20750000Y-18000000D02*
X20750000Y-22000000D01*
X88750000Y-22000000D02*
X88750000Y-18000000D01*
X88750000Y-18000000D02*
X20750000Y-18000000D01*
X24750000Y-94000000D02*
X20750000Y-94000000D01*
X70750000Y-22000000D02*
X80750000Y-22000000D01*
X56750000Y-22000000D02*
X66750000Y-22000000D01*
X38750000Y-36000000D02*
G75*
G02*
X38750000Y-38000000I0J-1000000D01*
G01*
X42750000Y-38000000D02*
G75*
G02*
X42750000Y-36000000I0J1000000D01*
G01*
X48750000Y-24500000D02*
G75*
G02*
X46750000Y-24500000I-1000000J0D01*
G01*
X46750000Y-28500000D02*
G75*
G02*
X48750000Y-28500000I1000000J0D01*
G01*
X62750000Y-80500000D02*
G75*
G02*
X60750000Y-80500000I-1000000J0D01*
G01*
X60750000Y-84500000D02*
G75*
G02*
X62750000Y-84500000I1000000J0D01*
G01*
X52750000Y-92000000D02*
G75*
G02*
X52750000Y-94000000I0J-1000000D01*
G01*
X56750000Y-94000000D02*
G75*
G02*
X56750000Y-92000000I0J1000000D01*
G01*
X34750000Y-80500000D02*
G75*
G02*
X32750000Y-80500000I-1000000J0D01*
G01*
X32750000Y-84500000D02*
G75*
G02*
X34750000Y-84500000I1000000J0D01*
G01*
X66750000Y-50000000D02*
G75*
G02*
X66750000Y-52000000I0J-1000000D01*
G01*
X70750000Y-52000000D02*
G75*
G02*
X70750000Y-50000000I0J1000000D01*
G01*
X34750000Y-38500000D02*
G75*
G02*
X32750000Y-38500000I-1000000J0D01*
G01*
X32750000Y-42500000D02*
G75*
G02*
X34750000Y-42500000I1000000J0D01*
G01*
X56750000Y-66000000D02*
G75*
G02*
X56750000Y-64000000I0J1000000D01*
G01*
X52750000Y-64000000D02*
G75*
G02*
X52750000Y-66000000I0J-1000000D01*
G01*
X42750000Y-24000000D02*
G75*
G02*
X42750000Y-22000000I0J1000000D01*
G01*
X38750000Y-22000000D02*
G75*
G02*
X38750000Y-24000000I0J-1000000D01*
G01*
X74750000Y-28500000D02*
G75*
G02*
X76750000Y-28500000I1000000J0D01*
G01*
X76750000Y-24500000D02*
G75*
G02*
X74750000Y-24500000I-1000000J0D01*
G01*
X76750000Y-80500000D02*
G75*
G02*
X74750000Y-80500000I-1000000J0D01*
G01*
X74750000Y-84500000D02*
G75*
G02*
X76750000Y-84500000I1000000J0D01*
G01*
X28750000Y-24000000D02*
G75*
G02*
X28750000Y-22000000I0J1000000D01*
G01*
X24750000Y-22000000D02*
G75*
G02*
X24750000Y-24000000I0J-1000000D01*
G01*
X62750000Y-38500000D02*
G75*
G02*
X60750000Y-38500000I-1000000J0D01*
G01*
X60750000Y-42500000D02*
G75*
G02*
X62750000Y-42500000I1000000J0D01*
G01*
X80750000Y-22000000D02*
G75*
G02*
X80750000Y-24000000I0J-1000000D01*
G01*
X84750000Y-24000000D02*
G75*
G02*
X84750000Y-22000000I0J1000000D01*
G01*
X62750000Y-66500000D02*
G75*
G02*
X60750000Y-66500000I-1000000J0D01*
G01*
X60750000Y-70500000D02*
G75*
G02*
X62750000Y-70500000I1000000J0D01*
G01*
X34750000Y-24500000D02*
G75*
G02*
X32750000Y-24500000I-1000000J0D01*
G01*
X32750000Y-28500000D02*
G75*
G02*
X34750000Y-28500000I1000000J0D01*
G01*
X66750000Y-36000000D02*
G75*
G02*
X66750000Y-38000000I0J-1000000D01*
G01*
X70750000Y-38000000D02*
G75*
G02*
X70750000Y-36000000I0J1000000D01*
G01*
X80750000Y-50000000D02*
G75*
G02*
X80750000Y-52000000I0J-1000000D01*
G01*
X84750000Y-52000000D02*
G75*
G02*
X84750000Y-50000000I0J1000000D01*
G01*
X70750000Y-24000000D02*
G75*
G02*
X70750000Y-22000000I0J1000000D01*
G01*
X66750000Y-22000000D02*
G75*
G02*
X66750000Y-24000000I0J-1000000D01*
G01*
X46750000Y-42500000D02*
G75*
G02*
X48750000Y-42500000I1000000J0D01*
G01*
X48750000Y-38500000D02*
G75*
G02*
X46750000Y-38500000I-1000000J0D01*
G01*
X70750000Y-66000000D02*
G75*
G02*
X70750000Y-64000000I0J1000000D01*
G01*
X66750000Y-64000000D02*
G75*
G02*
X66750000Y-66000000I0J-1000000D01*
G01*
X24750000Y-36000000D02*
G75*
G02*
X24750000Y-38000000I0J-1000000D01*
G01*
X28750000Y-38000000D02*
G75*
G02*
X28750000Y-36000000I0J1000000D01*
G01*
X62750000Y-24500000D02*
G75*
G02*
X60750000Y-24500000I-1000000J0D01*
G01*
X60750000Y-28500000D02*
G75*
G02*
X62750000Y-28500000I1000000J0D01*
G01*
X80750000Y-36000000D02*
G75*
G02*
X80750000Y-38000000I0J-1000000D01*
G01*
X84750000Y-38000000D02*
G75*
G02*
X84750000Y-36000000I0J1000000D01*
G01*
X74750000Y-42500000D02*
G75*
G02*
X76750000Y-42500000I1000000J0D01*
G01*
X76750000Y-38500000D02*
G75*
G02*
X74750000Y-38500000I-1000000J0D01*
G01*
X80750000Y-64000000D02*
G75*
G02*
X80750000Y-66000000I0J-1000000D01*
G01*
X84750000Y-66000000D02*
G75*
G02*
X84750000Y-64000000I0J1000000D01*
G01*
X34750000Y-52500000D02*
G75*
G02*
X32750000Y-52500000I-1000000J0D01*
G01*
X32750000Y-56500000D02*
G75*
G02*
X34750000Y-56500000I1000000J0D01*
G01*
X52750000Y-78000000D02*
G75*
G02*
X52750000Y-80000000I0J-1000000D01*
G01*
X56750000Y-80000000D02*
G75*
G02*
X56750000Y-78000000I0J1000000D01*
G01*
X34750000Y-66500000D02*
G75*
G02*
X32750000Y-66500000I-1000000J0D01*
G01*
X32750000Y-70500000D02*
G75*
G02*
X34750000Y-70500000I1000000J0D01*
G01*
X42750000Y-66000000D02*
G75*
G02*
X42750000Y-64000000I0J1000000D01*
G01*
X38750000Y-64000000D02*
G75*
G02*
X38750000Y-66000000I0J-1000000D01*
G01*
X76750000Y-52500000D02*
G75*
G02*
X74750000Y-52500000I-1000000J0D01*
G01*
X74750000Y-56500000D02*
G75*
G02*
X76750000Y-56500000I1000000J0D01*
G01*
X66750000Y-92000000D02*
G75*
G02*
X66750000Y-94000000I0J-1000000D01*
G01*
X70750000Y-94000000D02*
G75*
G02*
X70750000Y-92000000I0J1000000D01*
G01*
X48750000Y-80500000D02*
G75*
G02*
X46750000Y-80500000I-1000000J0D01*
G01*
X46750000Y-84500000D02*
G75*
G02*
X48750000Y-84500000I1000000J0D01*
G01*
X52750000Y-50000000D02*
G75*
G02*
X52750000Y-52000000I0J-1000000D01*
G01*
X56750000Y-52000000D02*
G75*
G02*
X56750000Y-50000000I0J1000000D01*
G01*
X46750000Y-56500000D02*
G75*
G02*
X48750000Y-56500000I1000000J0D01*
G01*
X48750000Y-52500000D02*
G75*
G02*
X46750000Y-52500000I-1000000J0D01*
G01*
X62750000Y-52500000D02*
G75*
G02*
X60750000Y-52500000I-1000000J0D01*
G01*
X60750000Y-56500000D02*
G75*
G02*
X62750000Y-56500000I1000000J0D01*
G01*
X84750000Y-94000000D02*
G75*
G02*
X84750000Y-92000000I0J1000000D01*
G01*
X80750000Y-92000000D02*
G75*
G02*
X80750000Y-94000000I0J-1000000D01*
G01*
X42750000Y-94000000D02*
G75*
G02*
X42750000Y-92000000I0J1000000D01*
G01*
X38750000Y-92000000D02*
G75*
G02*
X38750000Y-94000000I0J-1000000D01*
G01*
M02*
