%TF.GenerationSoftware,KiCad,Pcbnew,9.0.3*%
%TF.CreationDate,2026-09-12T02:23:41-04:00*%
%TF.ProjectId,Combined_Stencil3,436f6d62-696e-4656-945f-5374656e6369,rev?*%
%TF.SameCoordinates,Original*%
%TF.FileFunction,Paste,Top*%
%TF.FilePolarity,Positive*%
%FSLAX46Y46*%
G04 Gerber Fmt 4.6, Leading zero omitted, Abs format (unit mm)*
G04 Created by KiCad (PCBNEW 9.0.3) date 2026-09-12 02:23:41*
%MOMM*%
%LPD*%
G01*
G04 APERTURE LIST*
G04 Aperture macros list*
%AMRoundRect*
0 Rectangle with rounded corners*
0 $1 Rounding radius*
0 $2 $3 $4 $5 $6 $7 $8 $9 X,Y pos of 4 corners*
0 Add a 4 corners polygon primitive as box body*
4,1,4,$2,$3,$4,$5,$6,$7,$8,$9,$2,$3,0*
0 Add four circle primitives for the rounded corners*
1,1,$1+$1,$2,$3*
1,1,$1+$1,$4,$5*
1,1,$1+$1,$6,$7*
1,1,$1+$1,$8,$9*
0 Add four rect primitives between the rounded corners*
20,1,$1+$1,$2,$3,$4,$5,0*
20,1,$1+$1,$4,$5,$6,$7,0*
20,1,$1+$1,$6,$7,$8,$9,0*
20,1,$1+$1,$8,$9,$2,$3,0*%
G04 Aperture macros list end*
%ADD10C,0.010000*%
%ADD11C,0.000000*%
%ADD12RoundRect,0.135000X-0.135000X-0.185000X0.135000X-0.185000X0.135000X0.185000X-0.135000X0.185000X0*%
%ADD13R,2.180400X2.210000*%
%ADD14RoundRect,0.140000X0.140000X0.170000X-0.140000X0.170000X-0.140000X-0.170000X0.140000X-0.170000X0*%
%ADD15RoundRect,0.140000X0.170000X-0.140000X0.170000X0.140000X-0.170000X0.140000X-0.170000X-0.140000X0*%
%ADD16RoundRect,0.135000X-0.185000X0.135000X-0.185000X-0.135000X0.185000X-0.135000X0.185000X0.135000X0*%
%ADD17RoundRect,0.218750X-0.218750X-0.256250X0.218750X-0.256250X0.218750X0.256250X-0.218750X0.256250X0*%
%ADD18RoundRect,0.250000X-0.250000X-0.475000X0.250000X-0.475000X0.250000X0.475000X-0.250000X0.475000X0*%
%ADD19RoundRect,0.135000X0.185000X-0.135000X0.185000X0.135000X-0.185000X0.135000X-0.185000X-0.135000X0*%
%ADD20RoundRect,0.250000X-0.550000X1.412500X-0.550000X-1.412500X0.550000X-1.412500X0.550000X1.412500X0*%
%ADD21R,0.800000X0.400000*%
%ADD22RoundRect,0.135000X0.135000X0.185000X-0.135000X0.185000X-0.135000X-0.185000X0.135000X-0.185000X0*%
%ADD23RoundRect,0.140000X-0.170000X0.140000X-0.170000X-0.140000X0.170000X-0.140000X0.170000X0.140000X0*%
%ADD24RoundRect,0.100000X-0.637500X-0.100000X0.637500X-0.100000X0.637500X0.100000X-0.637500X0.100000X0*%
%ADD25R,1.790000X3.430000*%
%ADD26RoundRect,0.250000X-1.650000X-0.750000X1.650000X-0.750000X1.650000X0.750000X-1.650000X0.750000X0*%
%ADD27R,0.482600X1.422400*%
%ADD28R,0.558800X1.422400*%
%ADD29RoundRect,0.137500X-0.737500X0.137500X-0.737500X-0.137500X0.737500X-0.137500X0.737500X0.137500X0*%
%ADD30RoundRect,0.137500X-0.137500X0.737500X-0.137500X-0.737500X0.137500X-0.737500X0.137500X0.737500X0*%
%ADD31RoundRect,0.075000X-0.650000X-0.075000X0.650000X-0.075000X0.650000X0.075000X-0.650000X0.075000X0*%
%ADD32RoundRect,0.170000X-0.170000X-0.210000X0.170000X-0.210000X0.170000X0.210000X-0.170000X0.210000X0*%
%ADD33RoundRect,0.150000X-0.825000X-0.150000X0.825000X-0.150000X0.825000X0.150000X-0.825000X0.150000X0*%
%ADD34RoundRect,0.250000X0.250000X0.475000X-0.250000X0.475000X-0.250000X-0.475000X0.250000X-0.475000X0*%
%ADD35R,0.900000X0.900000*%
%ADD36R,0.900000X1.500000*%
%ADD37R,1.500000X0.900000*%
%ADD38R,1.803400X1.193800*%
%ADD39R,1.549400X0.609600*%
%ADD40R,4.500000X4.500000*%
%ADD41R,0.900000X0.300000*%
%ADD42R,0.300000X0.900000*%
%ADD43RoundRect,0.218750X0.218750X0.256250X-0.218750X0.256250X-0.218750X-0.256250X0.218750X-0.256250X0*%
%ADD44R,1.320800X0.508000*%
%ADD45RoundRect,0.250000X-0.312500X-0.625000X0.312500X-0.625000X0.312500X0.625000X-0.312500X0.625000X0*%
%ADD46RoundRect,0.250000X0.475000X-0.250000X0.475000X0.250000X-0.475000X0.250000X-0.475000X-0.250000X0*%
%ADD47R,0.800000X1.700000*%
%ADD48RoundRect,0.140000X-0.140000X-0.170000X0.140000X-0.170000X0.140000X0.170000X-0.140000X0.170000X0*%
%ADD49RoundRect,0.150000X0.512500X0.150000X-0.512500X0.150000X-0.512500X-0.150000X0.512500X-0.150000X0*%
%ADD50R,1.473200X0.355600*%
%ADD51RoundRect,0.112500X-0.112500X0.187500X-0.112500X-0.187500X0.112500X-0.187500X0.112500X0.187500X0*%
%ADD52R,1.150000X0.300000*%
%ADD53R,1.150000X0.600000*%
%ADD54R,1.473200X0.558800*%
%ADD55R,0.609600X1.549400*%
%ADD56R,1.193800X1.803400*%
%ADD57RoundRect,0.250000X-0.475000X0.250000X-0.475000X-0.250000X0.475000X-0.250000X0.475000X0.250000X0*%
G04 APERTURE END LIST*
D10*
%TO.C,J202*%
X165533537Y-71625000D02*
X164883537Y-71625000D01*
X164883537Y-71375000D01*
X165533537Y-71375000D01*
X165533537Y-71625000D01*
G36*
X165533537Y-71625000D02*
G01*
X164883537Y-71625000D01*
X164883537Y-71375000D01*
X165533537Y-71375000D01*
X165533537Y-71625000D01*
G37*
X165533537Y-71125000D02*
X164883537Y-71125000D01*
X164883537Y-70875000D01*
X165533537Y-70875000D01*
X165533537Y-71125000D01*
G36*
X165533537Y-71125000D02*
G01*
X164883537Y-71125000D01*
X164883537Y-70875000D01*
X165533537Y-70875000D01*
X165533537Y-71125000D01*
G37*
X165533537Y-70625000D02*
X164883537Y-70625000D01*
X164883537Y-70375000D01*
X165533537Y-70375000D01*
X165533537Y-70625000D01*
G36*
X165533537Y-70625000D02*
G01*
X164883537Y-70625000D01*
X164883537Y-70375000D01*
X165533537Y-70375000D01*
X165533537Y-70625000D01*
G37*
X165533537Y-70125000D02*
X164883537Y-70125000D01*
X164883537Y-69875000D01*
X165533537Y-69875000D01*
X165533537Y-70125000D01*
G36*
X165533537Y-70125000D02*
G01*
X164883537Y-70125000D01*
X164883537Y-69875000D01*
X165533537Y-69875000D01*
X165533537Y-70125000D01*
G37*
X165533537Y-69625000D02*
X164883537Y-69625000D01*
X164883537Y-69375000D01*
X165533537Y-69375000D01*
X165533537Y-69625000D01*
G36*
X165533537Y-69625000D02*
G01*
X164883537Y-69625000D01*
X164883537Y-69375000D01*
X165533537Y-69375000D01*
X165533537Y-69625000D01*
G37*
X165533537Y-69125000D02*
X164883537Y-69125000D01*
X164883537Y-68875000D01*
X165533537Y-68875000D01*
X165533537Y-69125000D01*
G36*
X165533537Y-69125000D02*
G01*
X164883537Y-69125000D01*
X164883537Y-68875000D01*
X165533537Y-68875000D01*
X165533537Y-69125000D01*
G37*
X165533537Y-68625000D02*
X164883537Y-68625000D01*
X164883537Y-68375000D01*
X165533537Y-68375000D01*
X165533537Y-68625000D01*
G36*
X165533537Y-68625000D02*
G01*
X164883537Y-68625000D01*
X164883537Y-68375000D01*
X165533537Y-68375000D01*
X165533537Y-68625000D01*
G37*
X165533537Y-68125000D02*
X164883537Y-68125000D01*
X164883537Y-67875000D01*
X165533537Y-67875000D01*
X165533537Y-68125000D01*
G36*
X165533537Y-68125000D02*
G01*
X164883537Y-68125000D01*
X164883537Y-67875000D01*
X165533537Y-67875000D01*
X165533537Y-68125000D01*
G37*
X165533537Y-67625000D02*
X164883537Y-67625000D01*
X164883537Y-67375000D01*
X165533537Y-67375000D01*
X165533537Y-67625000D01*
G36*
X165533537Y-67625000D02*
G01*
X164883537Y-67625000D01*
X164883537Y-67375000D01*
X165533537Y-67375000D01*
X165533537Y-67625000D01*
G37*
X165533537Y-67125000D02*
X164883537Y-67125000D01*
X164883537Y-66875000D01*
X165533537Y-66875000D01*
X165533537Y-67125000D01*
G36*
X165533537Y-67125000D02*
G01*
X164883537Y-67125000D01*
X164883537Y-66875000D01*
X165533537Y-66875000D01*
X165533537Y-67125000D01*
G37*
X165533537Y-66625000D02*
X164883537Y-66625000D01*
X164883537Y-66375000D01*
X165533537Y-66375000D01*
X165533537Y-66625000D01*
G36*
X165533537Y-66625000D02*
G01*
X164883537Y-66625000D01*
X164883537Y-66375000D01*
X165533537Y-66375000D01*
X165533537Y-66625000D01*
G37*
X165533537Y-66125000D02*
X164883537Y-66125000D01*
X164883537Y-65875000D01*
X165533537Y-65875000D01*
X165533537Y-66125000D01*
G36*
X165533537Y-66125000D02*
G01*
X164883537Y-66125000D01*
X164883537Y-65875000D01*
X165533537Y-65875000D01*
X165533537Y-66125000D01*
G37*
X165533537Y-65625000D02*
X164883537Y-65625000D01*
X164883537Y-65375000D01*
X165533537Y-65375000D01*
X165533537Y-65625000D01*
G36*
X165533537Y-65625000D02*
G01*
X164883537Y-65625000D01*
X164883537Y-65375000D01*
X165533537Y-65375000D01*
X165533537Y-65625000D01*
G37*
X165533537Y-65125000D02*
X164883537Y-65125000D01*
X164883537Y-64875000D01*
X165533537Y-64875000D01*
X165533537Y-65125000D01*
G36*
X165533537Y-65125000D02*
G01*
X164883537Y-65125000D01*
X164883537Y-64875000D01*
X165533537Y-64875000D01*
X165533537Y-65125000D01*
G37*
X165533537Y-64625000D02*
X164883537Y-64625000D01*
X164883537Y-64375000D01*
X165533537Y-64375000D01*
X165533537Y-64625000D01*
G36*
X165533537Y-64625000D02*
G01*
X164883537Y-64625000D01*
X164883537Y-64375000D01*
X165533537Y-64375000D01*
X165533537Y-64625000D01*
G37*
X165533537Y-64125000D02*
X164883537Y-64125000D01*
X164883537Y-63875000D01*
X165533537Y-63875000D01*
X165533537Y-64125000D01*
G36*
X165533537Y-64125000D02*
G01*
X164883537Y-64125000D01*
X164883537Y-63875000D01*
X165533537Y-63875000D01*
X165533537Y-64125000D01*
G37*
X165533537Y-63625000D02*
X164883537Y-63625000D01*
X164883537Y-63375000D01*
X165533537Y-63375000D01*
X165533537Y-63625000D01*
G36*
X165533537Y-63625000D02*
G01*
X164883537Y-63625000D01*
X164883537Y-63375000D01*
X165533537Y-63375000D01*
X165533537Y-63625000D01*
G37*
X165533537Y-63125000D02*
X164883537Y-63125000D01*
X164883537Y-62875000D01*
X165533537Y-62875000D01*
X165533537Y-63125000D01*
G36*
X165533537Y-63125000D02*
G01*
X164883537Y-63125000D01*
X164883537Y-62875000D01*
X165533537Y-62875000D01*
X165533537Y-63125000D01*
G37*
X165533537Y-62625000D02*
X164883537Y-62625000D01*
X164883537Y-62375000D01*
X165533537Y-62375000D01*
X165533537Y-62625000D01*
G36*
X165533537Y-62625000D02*
G01*
X164883537Y-62625000D01*
X164883537Y-62375000D01*
X165533537Y-62375000D01*
X165533537Y-62625000D01*
G37*
X165533537Y-62125000D02*
X164883537Y-62125000D01*
X164883537Y-61875000D01*
X165533537Y-61875000D01*
X165533537Y-62125000D01*
G36*
X165533537Y-62125000D02*
G01*
X164883537Y-62125000D01*
X164883537Y-61875000D01*
X165533537Y-61875000D01*
X165533537Y-62125000D01*
G37*
X165533537Y-61625000D02*
X164883537Y-61625000D01*
X164883537Y-61375000D01*
X165533537Y-61375000D01*
X165533537Y-61625000D01*
G36*
X165533537Y-61625000D02*
G01*
X164883537Y-61625000D01*
X164883537Y-61375000D01*
X165533537Y-61375000D01*
X165533537Y-61625000D01*
G37*
X165533537Y-61125000D02*
X164883537Y-61125000D01*
X164883537Y-60875000D01*
X165533537Y-60875000D01*
X165533537Y-61125000D01*
G36*
X165533537Y-61125000D02*
G01*
X164883537Y-61125000D01*
X164883537Y-60875000D01*
X165533537Y-60875000D01*
X165533537Y-61125000D01*
G37*
X165533537Y-60625000D02*
X164883537Y-60625000D01*
X164883537Y-60375000D01*
X165533537Y-60375000D01*
X165533537Y-60625000D01*
G36*
X165533537Y-60625000D02*
G01*
X164883537Y-60625000D01*
X164883537Y-60375000D01*
X165533537Y-60375000D01*
X165533537Y-60625000D01*
G37*
X165533537Y-60125000D02*
X164883537Y-60125000D01*
X164883537Y-59875000D01*
X165533537Y-59875000D01*
X165533537Y-60125000D01*
G36*
X165533537Y-60125000D02*
G01*
X164883537Y-60125000D01*
X164883537Y-59875000D01*
X165533537Y-59875000D01*
X165533537Y-60125000D01*
G37*
X165533537Y-59625000D02*
X164883537Y-59625000D01*
X164883537Y-59375000D01*
X165533537Y-59375000D01*
X165533537Y-59625000D01*
G36*
X165533537Y-59625000D02*
G01*
X164883537Y-59625000D01*
X164883537Y-59375000D01*
X165533537Y-59375000D01*
X165533537Y-59625000D01*
G37*
X165533537Y-59125000D02*
X164883537Y-59125000D01*
X164883537Y-58875000D01*
X165533537Y-58875000D01*
X165533537Y-59125000D01*
G36*
X165533537Y-59125000D02*
G01*
X164883537Y-59125000D01*
X164883537Y-58875000D01*
X165533537Y-58875000D01*
X165533537Y-59125000D01*
G37*
X165533537Y-58625000D02*
X164883537Y-58625000D01*
X164883537Y-58375000D01*
X165533537Y-58375000D01*
X165533537Y-58625000D01*
G36*
X165533537Y-58625000D02*
G01*
X164883537Y-58625000D01*
X164883537Y-58375000D01*
X165533537Y-58375000D01*
X165533537Y-58625000D01*
G37*
X165533537Y-58125000D02*
X164883537Y-58125000D01*
X164883537Y-57875000D01*
X165533537Y-57875000D01*
X165533537Y-58125000D01*
G36*
X165533537Y-58125000D02*
G01*
X164883537Y-58125000D01*
X164883537Y-57875000D01*
X165533537Y-57875000D01*
X165533537Y-58125000D01*
G37*
X165533537Y-57625000D02*
X164883537Y-57625000D01*
X164883537Y-57375000D01*
X165533537Y-57375000D01*
X165533537Y-57625000D01*
G36*
X165533537Y-57625000D02*
G01*
X164883537Y-57625000D01*
X164883537Y-57375000D01*
X165533537Y-57375000D01*
X165533537Y-57625000D01*
G37*
X165533537Y-57125000D02*
X164883537Y-57125000D01*
X164883537Y-56875000D01*
X165533537Y-56875000D01*
X165533537Y-57125000D01*
G36*
X165533537Y-57125000D02*
G01*
X164883537Y-57125000D01*
X164883537Y-56875000D01*
X165533537Y-56875000D01*
X165533537Y-57125000D01*
G37*
X165533537Y-56625000D02*
X164883537Y-56625000D01*
X164883537Y-56375000D01*
X165533537Y-56375000D01*
X165533537Y-56625000D01*
G36*
X165533537Y-56625000D02*
G01*
X164883537Y-56625000D01*
X164883537Y-56375000D01*
X165533537Y-56375000D01*
X165533537Y-56625000D01*
G37*
X165533537Y-56125000D02*
X164883537Y-56125000D01*
X164883537Y-55875000D01*
X165533537Y-55875000D01*
X165533537Y-56125000D01*
G36*
X165533537Y-56125000D02*
G01*
X164883537Y-56125000D01*
X164883537Y-55875000D01*
X165533537Y-55875000D01*
X165533537Y-56125000D01*
G37*
D11*
%TO.C,U101*%
G36*
X127457901Y-29772000D02*
G01*
X128092901Y-30407000D01*
X128092901Y-32515200D01*
X126264101Y-32515200D01*
X126264101Y-30407000D01*
X126899101Y-29772000D01*
X126899101Y-29254800D01*
X127457901Y-29254800D01*
X127457901Y-29772000D01*
G37*
%TD*%
D12*
%TO.C,R301*%
X122260000Y-38500000D03*
X121240000Y-38500000D03*
%TD*%
%TO.C,R306*%
X135260000Y-38000000D03*
X134240000Y-38000000D03*
%TD*%
D13*
%TO.C,D301*%
X159642800Y-26910000D03*
X163357200Y-26910000D03*
%TD*%
D14*
%TO.C,C201*%
X126770000Y-60000000D03*
X127730000Y-60000000D03*
%TD*%
D15*
%TO.C,C202*%
X131750000Y-59270000D03*
X131750000Y-60230000D03*
%TD*%
D16*
%TO.C,R303*%
X137740000Y-44000000D03*
X137740000Y-42980000D03*
%TD*%
D17*
%TO.C,D102*%
X121575000Y-29090000D03*
X120000000Y-29090000D03*
%TD*%
D18*
%TO.C,C302*%
X130450000Y-35250000D03*
X128550000Y-35250000D03*
%TD*%
D19*
%TO.C,R305*%
X124500000Y-46740000D03*
X124500000Y-47760000D03*
%TD*%
D20*
%TO.C,C303*%
X135250000Y-32037500D03*
X135250000Y-26962500D03*
%TD*%
D21*
%TO.C,J202*%
X167783537Y-72500000D03*
X167783537Y-55000000D03*
%TD*%
D22*
%TO.C,R106*%
X117490000Y-29000000D03*
X118510000Y-29000000D03*
%TD*%
D17*
%TO.C,D103*%
X121575000Y-32250000D03*
X120000000Y-32250000D03*
%TD*%
D23*
%TO.C,C203*%
X136000000Y-63710000D03*
X136000000Y-62750000D03*
%TD*%
D24*
%TO.C,U201*%
X131612500Y-61800000D03*
X131612500Y-62450000D03*
X131612500Y-63100000D03*
X131612500Y-63750000D03*
X131612500Y-64400000D03*
X131612500Y-65050000D03*
X131612500Y-65700000D03*
X125887500Y-65700000D03*
X125887500Y-65050000D03*
X125887500Y-64400000D03*
X125887500Y-63750000D03*
X125887500Y-63100000D03*
X125887500Y-62450000D03*
X125887500Y-61800000D03*
%TD*%
D25*
%TO.C,U302*%
X155500000Y-47320000D03*
X153000000Y-47320000D03*
X150500000Y-47320000D03*
X148000000Y-47320000D03*
X145500000Y-47320000D03*
X143000000Y-47320000D03*
X143000000Y-27000000D03*
X145500000Y-27000000D03*
X148000000Y-27000000D03*
X150500000Y-27000000D03*
X153000000Y-27000000D03*
X155500000Y-27000000D03*
%TD*%
D12*
%TO.C,R308*%
X128260000Y-55750000D03*
X127240000Y-55750000D03*
%TD*%
D17*
%TO.C,D101*%
X121575000Y-25750000D03*
X120000000Y-25750000D03*
%TD*%
D26*
%TO.C,TP302*%
X129500000Y-51750000D03*
%TD*%
D27*
%TO.C,U101*%
X125678501Y-28543600D03*
D28*
X127178501Y-28543600D03*
D27*
X128678501Y-28543600D03*
%TD*%
D29*
%TO.C,U202*%
X160908537Y-57750000D03*
X160908537Y-58550000D03*
X160908537Y-59350000D03*
X160908537Y-60150000D03*
X160908537Y-60950000D03*
X160908537Y-61750000D03*
X160908537Y-62550000D03*
X160908537Y-63350000D03*
X160908537Y-64150000D03*
X160908537Y-64950000D03*
X160908537Y-65750000D03*
X160908537Y-66550000D03*
X160908537Y-67350000D03*
X160908537Y-68150000D03*
X160908537Y-68950000D03*
X160908537Y-69750000D03*
D30*
X158983537Y-71875000D03*
X158183537Y-71875000D03*
X157383537Y-71875000D03*
X156583537Y-71875000D03*
X155783537Y-71875000D03*
X154983537Y-71875000D03*
X154183537Y-71875000D03*
X153383537Y-71875000D03*
X152583537Y-71875000D03*
X151783537Y-71875000D03*
X150983537Y-71875000D03*
X150183537Y-71875000D03*
X149383537Y-71875000D03*
X148583537Y-71875000D03*
X147783537Y-71875000D03*
X146983537Y-71875000D03*
X146183537Y-71875000D03*
X145383537Y-71875000D03*
X144583537Y-71875000D03*
X143783537Y-71875000D03*
X142983537Y-71875000D03*
X142183537Y-71875000D03*
X141383537Y-71875000D03*
X140583537Y-71875000D03*
D29*
X138658537Y-69750000D03*
X138658537Y-68950000D03*
X138658537Y-68150000D03*
X138658537Y-67350000D03*
X138658537Y-66550000D03*
X138658537Y-65750000D03*
X138658537Y-64950000D03*
X138658537Y-64150000D03*
X138658537Y-63350000D03*
X138658537Y-62550000D03*
X138658537Y-61750000D03*
X138658537Y-60950000D03*
X138658537Y-60150000D03*
X138658537Y-59350000D03*
X138658537Y-58550000D03*
X138658537Y-57750000D03*
D30*
X140583537Y-55625000D03*
X141383537Y-55625000D03*
X142183537Y-55625000D03*
X142983537Y-55625000D03*
X143783537Y-55625000D03*
X144583537Y-55625000D03*
X145383537Y-55625000D03*
X146183537Y-55625000D03*
X146983537Y-55625000D03*
X147783537Y-55625000D03*
X148583537Y-55625000D03*
X149383537Y-55625000D03*
X150183537Y-55625000D03*
X150983537Y-55625000D03*
X151783537Y-55625000D03*
X152583537Y-55625000D03*
X153383537Y-55625000D03*
X154183537Y-55625000D03*
X154983537Y-55625000D03*
X155783537Y-55625000D03*
X156583537Y-55625000D03*
X157383537Y-55625000D03*
X158183537Y-55625000D03*
X158983537Y-55625000D03*
%TD*%
D16*
%TO.C,R304*%
X135750000Y-44000000D03*
X135750000Y-42980000D03*
%TD*%
D15*
%TO.C,C101*%
X128750000Y-25770000D03*
X128750000Y-26730000D03*
%TD*%
D12*
%TO.C,R307*%
X132010000Y-55750000D03*
X130990000Y-55750000D03*
%TD*%
D31*
%TO.C,U301*%
X131650000Y-38220000D03*
X131650000Y-38720000D03*
X131650000Y-39220000D03*
X131650000Y-39720000D03*
X131650000Y-40220000D03*
X127350000Y-40220000D03*
X127350000Y-39720000D03*
X127350000Y-39220000D03*
X127350000Y-38720000D03*
X127350000Y-38220000D03*
D32*
X129920000Y-39690000D03*
X129920000Y-38750000D03*
X129080000Y-39690000D03*
X129080000Y-38750000D03*
%TD*%
D22*
%TO.C,R101*%
X117490000Y-32320000D03*
X118510000Y-32320000D03*
%TD*%
D33*
%TO.C,Q301*%
X131975000Y-44095000D03*
X131975000Y-45365000D03*
X131975000Y-46635000D03*
X131975000Y-47905000D03*
X127025000Y-47905000D03*
X127025000Y-46635000D03*
X127025000Y-45365000D03*
X127025000Y-44095000D03*
%TD*%
D14*
%TO.C,C304*%
X134270000Y-36750000D03*
X135230000Y-36750000D03*
%TD*%
D15*
%TO.C,C102*%
X125500000Y-25770000D03*
X125500000Y-26730000D03*
%TD*%
D34*
%TO.C,C301*%
X123300000Y-40750000D03*
X125200000Y-40750000D03*
%TD*%
D16*
%TO.C,R302*%
X125250000Y-38760000D03*
X125250000Y-37740000D03*
%TD*%
D22*
%TO.C,R105*%
X117490000Y-25750000D03*
X118510000Y-25750000D03*
%TD*%
D26*
%TO.C,TP101*%
X163500000Y-33750000D03*
%TD*%
D15*
%TO.C,C111*%
X138074600Y-109040000D03*
X138074600Y-110000000D03*
%TD*%
D35*
%TO.C,IC101*%
X140720000Y-128620000D03*
X140720000Y-130020000D03*
X140720000Y-131420000D03*
X139320000Y-131420000D03*
X137920000Y-131420000D03*
X137920000Y-130020000D03*
X137920000Y-128620000D03*
X139320000Y-128620000D03*
X139320000Y-130020000D03*
D36*
X131600000Y-119770000D03*
X132870000Y-119770000D03*
X134140000Y-119770000D03*
X135410000Y-119770000D03*
X136680000Y-119770000D03*
X137950000Y-119770000D03*
X139220000Y-119770000D03*
X140490000Y-119770000D03*
X141760000Y-119770000D03*
X143030000Y-119770000D03*
X144300000Y-119770000D03*
X145570000Y-119770000D03*
X146840000Y-119770000D03*
X148110000Y-119770000D03*
D37*
X149360000Y-121535000D03*
X149360000Y-122805000D03*
X149360000Y-124075000D03*
X149360000Y-125345000D03*
X149360000Y-126615000D03*
X149360000Y-127885000D03*
X149360000Y-129155000D03*
X149360000Y-130425000D03*
X149360000Y-131695000D03*
X149360000Y-132965000D03*
X149360000Y-134235000D03*
X149360000Y-135505000D03*
D36*
X148110000Y-137270000D03*
X146840000Y-137270000D03*
X145570000Y-137270000D03*
X144300000Y-137270000D03*
X143030000Y-137270000D03*
X141760000Y-137270000D03*
X140490000Y-137270000D03*
X139220000Y-137270000D03*
X137950000Y-137270000D03*
X136680000Y-137270000D03*
X135410000Y-137270000D03*
X134140000Y-137270000D03*
X132870000Y-137270000D03*
X131600000Y-137270000D03*
%TD*%
D12*
%TO.C,R207*%
X154190000Y-132420000D03*
X153170000Y-132420000D03*
%TD*%
D38*
%TO.C,J107*%
X168193499Y-115970001D03*
X168193499Y-121569999D03*
D39*
X164368500Y-117270000D03*
X164368500Y-118270001D03*
X164368500Y-119269999D03*
X164368500Y-120270000D03*
%TD*%
D12*
%TO.C,R206*%
X168680000Y-139520000D03*
X167660000Y-139520000D03*
%TD*%
D14*
%TO.C,C105*%
X116495000Y-135520000D03*
X117455000Y-135520000D03*
%TD*%
D40*
%TO.C,IC201*%
X156420000Y-141170000D03*
D41*
X153520000Y-143170000D03*
X153520000Y-142670000D03*
X153520000Y-142170000D03*
X153520000Y-141670000D03*
X153520000Y-141170000D03*
X153520000Y-140670000D03*
X153520000Y-140170000D03*
X153520000Y-139670000D03*
X153520000Y-139170000D03*
D42*
X154420000Y-138270000D03*
X154920000Y-138270000D03*
X155420000Y-138270000D03*
X155920000Y-138270000D03*
X156420000Y-138270000D03*
X156920000Y-138270000D03*
X157420000Y-138270000D03*
X157920000Y-138270000D03*
X158420000Y-138270000D03*
D41*
X159320000Y-139170000D03*
X159320000Y-139670000D03*
X159320000Y-140170000D03*
X159320000Y-140670000D03*
X159320000Y-141170000D03*
X159320000Y-141670000D03*
X159320000Y-142170000D03*
X159320000Y-142670000D03*
X159320000Y-143170000D03*
D42*
X158420000Y-144070000D03*
X157920000Y-144070000D03*
X157420000Y-144070000D03*
X156920000Y-144070000D03*
X156420000Y-144070000D03*
X155920000Y-144070000D03*
X155420000Y-144070000D03*
X154920000Y-144070000D03*
X154420000Y-144070000D03*
%TD*%
D43*
%TO.C,D201*%
X153420000Y-133920000D03*
X154995000Y-133920000D03*
%TD*%
D34*
%TO.C,C206*%
X158770000Y-134920000D03*
X160670000Y-134920000D03*
%TD*%
D15*
%TO.C,C109*%
X148324600Y-109010000D03*
X148324600Y-109970000D03*
%TD*%
D12*
%TO.C,R102*%
X122040000Y-124270000D03*
X121020000Y-124270000D03*
%TD*%
%TO.C,R311*%
X157420000Y-120670000D03*
X156400000Y-120670000D03*
%TD*%
D14*
%TO.C,C307*%
X158420000Y-132020000D03*
X159380000Y-132020000D03*
%TD*%
D44*
%TO.C,U102*%
X141874600Y-110720001D03*
X141874600Y-108819999D03*
X144465400Y-108819999D03*
X144465400Y-109770000D03*
X144465400Y-110720001D03*
%TD*%
D45*
%TO.C,R213*%
X166882500Y-141520000D03*
X163957500Y-141520000D03*
%TD*%
D22*
%TO.C,R301*%
X163520000Y-134270000D03*
X164540000Y-134270000D03*
%TD*%
D46*
%TO.C,C112*%
X139824600Y-108570000D03*
X139824600Y-110470000D03*
%TD*%
D14*
%TO.C,C210*%
X156170000Y-136920000D03*
X157130000Y-136920000D03*
%TD*%
%TO.C,C209*%
X158420000Y-136920000D03*
X159380000Y-136920000D03*
%TD*%
D47*
%TO.C,SW102*%
X130120000Y-146520000D03*
X126720000Y-146520000D03*
%TD*%
D12*
%TO.C,R110*%
X139930000Y-139620000D03*
X138910000Y-139620000D03*
%TD*%
D14*
%TO.C,C305*%
X165690000Y-125770000D03*
X166650000Y-125770000D03*
%TD*%
%TO.C,C203*%
X165690000Y-147770000D03*
X166650000Y-147770000D03*
%TD*%
%TO.C,C302*%
X157960000Y-133020000D03*
X158920000Y-133020000D03*
%TD*%
D43*
%TO.C,D301*%
X153420000Y-120670000D03*
X154995000Y-120670000D03*
%TD*%
D12*
%TO.C,R104*%
X117455000Y-134420000D03*
X116435000Y-134420000D03*
%TD*%
D47*
%TO.C,SW101*%
X130120000Y-110770000D03*
X126720000Y-110770000D03*
%TD*%
D43*
%TO.C,D103*%
X144549599Y-114770000D03*
X146124599Y-114770000D03*
%TD*%
D14*
%TO.C,C207*%
X158420000Y-145420000D03*
X159380000Y-145420000D03*
%TD*%
D22*
%TO.C,R303*%
X163520000Y-130020000D03*
X164540000Y-130020000D03*
%TD*%
D45*
%TO.C,R314*%
X166882500Y-124020000D03*
X163957500Y-124020000D03*
%TD*%
D19*
%TO.C,R106*%
X132920000Y-110260000D03*
X132920000Y-111280000D03*
%TD*%
D12*
%TO.C,R103*%
X121640000Y-127120000D03*
X120620000Y-127120000D03*
%TD*%
D22*
%TO.C,R309*%
X153170000Y-123520000D03*
X154190000Y-123520000D03*
%TD*%
D14*
%TO.C,C301*%
X156210000Y-132020000D03*
X157170000Y-132020000D03*
%TD*%
D19*
%TO.C,R107*%
X131670000Y-146010000D03*
X131670000Y-147030000D03*
%TD*%
D12*
%TO.C,R108*%
X148374599Y-112770000D03*
X147354599Y-112770000D03*
%TD*%
D14*
%TO.C,C202*%
X157960000Y-146420000D03*
X158920000Y-146420000D03*
%TD*%
D40*
%TO.C,IC301*%
X156420000Y-127770000D03*
D41*
X153520000Y-129770000D03*
X153520000Y-129270000D03*
X153520000Y-128770000D03*
X153520000Y-128270000D03*
X153520000Y-127770000D03*
X153520000Y-127270000D03*
X153520000Y-126770000D03*
X153520000Y-126270000D03*
X153520000Y-125770000D03*
D42*
X154420000Y-124870000D03*
X154920000Y-124870000D03*
X155420000Y-124870000D03*
X155920000Y-124870000D03*
X156420000Y-124870000D03*
X156920000Y-124870000D03*
X157420000Y-124870000D03*
X157920000Y-124870000D03*
X158420000Y-124870000D03*
D41*
X159320000Y-125770000D03*
X159320000Y-126270000D03*
X159320000Y-126770000D03*
X159320000Y-127270000D03*
X159320000Y-127770000D03*
X159320000Y-128270000D03*
X159320000Y-128770000D03*
X159320000Y-129270000D03*
X159320000Y-129770000D03*
D42*
X158420000Y-130670000D03*
X157920000Y-130670000D03*
X157420000Y-130670000D03*
X156920000Y-130670000D03*
X156420000Y-130670000D03*
X155920000Y-130670000D03*
X155420000Y-130670000D03*
X154920000Y-130670000D03*
X154420000Y-130670000D03*
%TD*%
D14*
%TO.C,C303*%
X165690000Y-134270000D03*
X166650000Y-134270000D03*
%TD*%
D12*
%TO.C,R306*%
X168680000Y-125770000D03*
X167660000Y-125770000D03*
%TD*%
D22*
%TO.C,R209*%
X153170000Y-136920000D03*
X154190000Y-136920000D03*
%TD*%
D12*
%TO.C,R204*%
X168680000Y-143520000D03*
X167660000Y-143520000D03*
%TD*%
D14*
%TO.C,C205*%
X165690000Y-139520000D03*
X166650000Y-139520000D03*
%TD*%
D12*
%TO.C,R302*%
X168680000Y-134270000D03*
X167660000Y-134270000D03*
%TD*%
D19*
%TO.C,R310*%
X155170000Y-122520000D03*
X155170000Y-123540000D03*
%TD*%
D12*
%TO.C,R109*%
X148394599Y-114770000D03*
X147374599Y-114770000D03*
%TD*%
D46*
%TO.C,C108*%
X146574600Y-108570000D03*
X146574600Y-110470000D03*
%TD*%
D23*
%TO.C,C107*%
X131670000Y-111250000D03*
X131670000Y-110290000D03*
%TD*%
D12*
%TO.C,R202*%
X168680000Y-147770000D03*
X167660000Y-147770000D03*
%TD*%
D38*
%TO.C,J104*%
X168193499Y-108470001D03*
X168193499Y-114069999D03*
D39*
X164368500Y-109770000D03*
X164368500Y-110770001D03*
X164368500Y-111769999D03*
X164368500Y-112770000D03*
%TD*%
D45*
%TO.C,R212*%
X166882500Y-145770000D03*
X163957500Y-145770000D03*
%TD*%
D12*
%TO.C,R101*%
X133670000Y-140020000D03*
X132650000Y-140020000D03*
%TD*%
D22*
%TO.C,R201*%
X163520000Y-147770000D03*
X164540000Y-147770000D03*
%TD*%
D18*
%TO.C,C103*%
X128170000Y-140020000D03*
X126270000Y-140020000D03*
%TD*%
D22*
%TO.C,R205*%
X163520000Y-139520000D03*
X164540000Y-139520000D03*
%TD*%
D12*
%TO.C,R304*%
X168680000Y-130020000D03*
X167660000Y-130020000D03*
%TD*%
D14*
%TO.C,C204*%
X165690000Y-143520000D03*
X166650000Y-143520000D03*
%TD*%
%TO.C,C106*%
X116420000Y-131320000D03*
X117380000Y-131320000D03*
%TD*%
D12*
%TO.C,R307*%
X154170000Y-119170000D03*
X153150000Y-119170000D03*
%TD*%
D18*
%TO.C,C104*%
X120920000Y-137520000D03*
X119020000Y-137520000D03*
%TD*%
D45*
%TO.C,R312*%
X166882500Y-132270000D03*
X163957500Y-132270000D03*
%TD*%
D34*
%TO.C,C306*%
X158770000Y-121520000D03*
X160670000Y-121520000D03*
%TD*%
D12*
%TO.C,R308*%
X154170000Y-122170000D03*
X153150000Y-122170000D03*
%TD*%
D48*
%TO.C,C101*%
X135630000Y-140020000D03*
X134670000Y-140020000D03*
%TD*%
D43*
%TO.C,D102*%
X144549599Y-112770000D03*
X146124599Y-112770000D03*
%TD*%
D14*
%TO.C,C304*%
X165670000Y-130020000D03*
X166630000Y-130020000D03*
%TD*%
D23*
%TO.C,C208*%
X149170000Y-144250000D03*
X149170000Y-143290000D03*
%TD*%
D14*
%TO.C,C310*%
X156170000Y-123520000D03*
X157130000Y-123520000D03*
%TD*%
D49*
%TO.C,U101*%
X118980000Y-134420000D03*
X118980000Y-133470000D03*
X118980000Y-132520000D03*
X121255000Y-132520000D03*
X121255000Y-133470000D03*
X121255000Y-134420000D03*
%TD*%
D50*
%TO.C,U301*%
X150749000Y-114694998D03*
X150749000Y-114044999D03*
X150749000Y-113394998D03*
X150749000Y-112744999D03*
X150749000Y-112094998D03*
X150749000Y-111444999D03*
X150749000Y-110794998D03*
X150749000Y-110144999D03*
X150749000Y-109494998D03*
X150749000Y-108845000D03*
X156591000Y-108845002D03*
X156591000Y-109495001D03*
X156591000Y-110145002D03*
X156591000Y-110795001D03*
X156591000Y-111445002D03*
X156591000Y-112095001D03*
X156591000Y-112744999D03*
X156591000Y-113395001D03*
X156591000Y-114044999D03*
X156591000Y-114695000D03*
%TD*%
D19*
%TO.C,R210*%
X155170000Y-135920000D03*
X155170000Y-136940000D03*
%TD*%
D50*
%TO.C,U201*%
X141749000Y-147194998D03*
X141749000Y-146544999D03*
X141749000Y-145894998D03*
X141749000Y-145244999D03*
X141749000Y-144594998D03*
X141749000Y-143944999D03*
X141749000Y-143294998D03*
X141749000Y-142644999D03*
X141749000Y-141994998D03*
X141749000Y-141345000D03*
X147591000Y-141345002D03*
X147591000Y-141995001D03*
X147591000Y-142645002D03*
X147591000Y-143295001D03*
X147591000Y-143945002D03*
X147591000Y-144595001D03*
X147591000Y-145244999D03*
X147591000Y-145895001D03*
X147591000Y-146544999D03*
X147591000Y-147195000D03*
%TD*%
D12*
%TO.C,R208*%
X154190000Y-135420000D03*
X153170000Y-135420000D03*
%TD*%
D15*
%TO.C,C308*%
X158840000Y-112770000D03*
X158840000Y-113730000D03*
%TD*%
D22*
%TO.C,R305*%
X163520000Y-125770000D03*
X164540000Y-125770000D03*
%TD*%
D45*
%TO.C,R313*%
X166882500Y-128020000D03*
X163957500Y-128020000D03*
%TD*%
D23*
%TO.C,C110*%
X132920000Y-147000000D03*
X132920000Y-146040000D03*
%TD*%
D45*
%TO.C,R214*%
X166882500Y-137520000D03*
X163957500Y-137520000D03*
%TD*%
D12*
%TO.C,R105*%
X117455000Y-132420000D03*
X116435000Y-132420000D03*
%TD*%
D48*
%TO.C,C113*%
X136400000Y-148520000D03*
X135440000Y-148520000D03*
%TD*%
D22*
%TO.C,R203*%
X163520000Y-143520000D03*
X164540000Y-143520000D03*
%TD*%
D51*
%TO.C,D101*%
X121670000Y-123120000D03*
X121670000Y-121020000D03*
%TD*%
D48*
%TO.C,C102*%
X131670000Y-140020000D03*
X130710000Y-140020000D03*
%TD*%
D52*
%TO.C,J101*%
X119175000Y-123660000D03*
X119175000Y-124660000D03*
X119175000Y-126160000D03*
X119175000Y-127160000D03*
D53*
X119175000Y-127810000D03*
X119175000Y-128610000D03*
D52*
X119175000Y-126660000D03*
X119175000Y-125660000D03*
X119175000Y-125160000D03*
X119175000Y-124160000D03*
D53*
X119175000Y-123010000D03*
X119175000Y-122210000D03*
%TD*%
D12*
%TO.C,R211*%
X157170000Y-134020000D03*
X156150000Y-134020000D03*
%TD*%
D14*
%TO.C,C309*%
X158420000Y-123520000D03*
X159380000Y-123520000D03*
%TD*%
%TO.C,C201*%
X156200000Y-145420000D03*
X157160000Y-145420000D03*
%TD*%
D54*
%TO.C,U103*%
X135476200Y-146970001D03*
X135476200Y-145069999D03*
X137863800Y-145069999D03*
X137863800Y-146020000D03*
X137863800Y-146970001D03*
%TD*%
D22*
%TO.C,R103*%
X39260000Y-139500000D03*
X38240000Y-139500000D03*
%TD*%
%TO.C,R102*%
X43260000Y-133000000D03*
X42240000Y-133000000D03*
%TD*%
D43*
%TO.C,D101*%
X38537500Y-123000000D03*
X36962500Y-123000000D03*
%TD*%
D12*
%TO.C,R101*%
X39952500Y-123000000D03*
X40972500Y-123000000D03*
%TD*%
D34*
%TO.C,C101*%
X32950000Y-133000000D03*
X31050000Y-133000000D03*
%TD*%
D14*
%TO.C,C102*%
X33230000Y-134750000D03*
X32270000Y-134750000D03*
%TD*%
D33*
%TO.C,IC101*%
X35275000Y-133095000D03*
X35275000Y-134365000D03*
X35275000Y-135635000D03*
X35275000Y-136905000D03*
X40225000Y-136905000D03*
X40225000Y-135635000D03*
X40225000Y-134365000D03*
X40225000Y-133095000D03*
%TD*%
D12*
%TO.C,R104*%
X35490000Y-139500000D03*
X36510000Y-139500000D03*
%TD*%
D55*
%TO.C,J101*%
X36250000Y-144948500D03*
X37250001Y-144948500D03*
X38249999Y-144948500D03*
X39250000Y-144948500D03*
D56*
X34950001Y-148773499D03*
X40549999Y-148773499D03*
%TD*%
D14*
%TO.C,C102*%
X78480000Y-81000000D03*
X77520000Y-81000000D03*
%TD*%
D57*
%TO.C,C101*%
X78000000Y-82800000D03*
X78000000Y-84700000D03*
%TD*%
D22*
%TO.C,R103*%
X88010000Y-81000000D03*
X86990000Y-81000000D03*
%TD*%
%TO.C,R102*%
X88010000Y-82250000D03*
X86990000Y-82250000D03*
%TD*%
D55*
%TO.C,J101*%
X81250000Y-86948500D03*
X82250001Y-86948500D03*
X83249999Y-86948500D03*
X84250000Y-86948500D03*
D56*
X79950001Y-90773499D03*
X85549999Y-90773499D03*
%TD*%
D22*
%TO.C,R101*%
X88010000Y-83750000D03*
X86990000Y-83750000D03*
%TD*%
D33*
%TO.C,IC101*%
X80275000Y-81095000D03*
X80275000Y-82365000D03*
X80275000Y-83635000D03*
X80275000Y-84905000D03*
X85225000Y-84905000D03*
X85225000Y-83635000D03*
X85225000Y-82365000D03*
X85225000Y-81095000D03*
%TD*%
D14*
%TO.C,C150*%
X64480000Y-81000000D03*
X63520000Y-81000000D03*
%TD*%
D57*
%TO.C,C149*%
X64000000Y-82800000D03*
X64000000Y-84700000D03*
%TD*%
D33*
%TO.C,IC125*%
X66275000Y-81095000D03*
X66275000Y-82365000D03*
X66275000Y-83635000D03*
X66275000Y-84905000D03*
X71225000Y-84905000D03*
X71225000Y-83635000D03*
X71225000Y-82365000D03*
X71225000Y-81095000D03*
%TD*%
D22*
%TO.C,R175*%
X74010000Y-81000000D03*
X72990000Y-81000000D03*
%TD*%
D55*
%TO.C,J125*%
X67250000Y-86948500D03*
X68250001Y-86948500D03*
X69249999Y-86948500D03*
X70250000Y-86948500D03*
D56*
X65950001Y-90773499D03*
X71549999Y-90773499D03*
%TD*%
D22*
%TO.C,R173*%
X74010000Y-83750000D03*
X72990000Y-83750000D03*
%TD*%
%TO.C,R174*%
X74010000Y-82250000D03*
X72990000Y-82250000D03*
%TD*%
D57*
%TO.C,C147*%
X50000000Y-82800000D03*
X50000000Y-84700000D03*
%TD*%
D22*
%TO.C,R170*%
X60010000Y-83750000D03*
X58990000Y-83750000D03*
%TD*%
D14*
%TO.C,C146*%
X36480000Y-81000000D03*
X35520000Y-81000000D03*
%TD*%
D22*
%TO.C,R172*%
X60010000Y-81000000D03*
X58990000Y-81000000D03*
%TD*%
D57*
%TO.C,C145*%
X36000000Y-82800000D03*
X36000000Y-84700000D03*
%TD*%
D55*
%TO.C,J124*%
X53250000Y-86948500D03*
X54250001Y-86948500D03*
X55249999Y-86948500D03*
X56250000Y-86948500D03*
D56*
X51950001Y-90773499D03*
X57549999Y-90773499D03*
%TD*%
D33*
%TO.C,IC124*%
X52275000Y-81095000D03*
X52275000Y-82365000D03*
X52275000Y-83635000D03*
X52275000Y-84905000D03*
X57225000Y-84905000D03*
X57225000Y-83635000D03*
X57225000Y-82365000D03*
X57225000Y-81095000D03*
%TD*%
D22*
%TO.C,R169*%
X46010000Y-81000000D03*
X44990000Y-81000000D03*
%TD*%
D14*
%TO.C,C148*%
X50480000Y-81000000D03*
X49520000Y-81000000D03*
%TD*%
D22*
%TO.C,R171*%
X60010000Y-82250000D03*
X58990000Y-82250000D03*
%TD*%
D14*
%TO.C,C144*%
X22480000Y-81000000D03*
X21520000Y-81000000D03*
%TD*%
D22*
%TO.C,R165*%
X32010000Y-82250000D03*
X30990000Y-82250000D03*
%TD*%
%TO.C,R168*%
X46010000Y-82250000D03*
X44990000Y-82250000D03*
%TD*%
%TO.C,R166*%
X32010000Y-81000000D03*
X30990000Y-81000000D03*
%TD*%
D55*
%TO.C,J123*%
X39250000Y-86948500D03*
X40250001Y-86948500D03*
X41249999Y-86948500D03*
X42250000Y-86948500D03*
D56*
X37950001Y-90773499D03*
X43549999Y-90773499D03*
%TD*%
D22*
%TO.C,R167*%
X46010000Y-83750000D03*
X44990000Y-83750000D03*
%TD*%
D57*
%TO.C,C143*%
X22000000Y-82800000D03*
X22000000Y-84700000D03*
%TD*%
D33*
%TO.C,IC123*%
X38275000Y-81095000D03*
X38275000Y-82365000D03*
X38275000Y-83635000D03*
X38275000Y-84905000D03*
X43225000Y-84905000D03*
X43225000Y-83635000D03*
X43225000Y-82365000D03*
X43225000Y-81095000D03*
%TD*%
D22*
%TO.C,R164*%
X32010000Y-83750000D03*
X30990000Y-83750000D03*
%TD*%
D55*
%TO.C,J121*%
X81250000Y-72948500D03*
X82250001Y-72948500D03*
X83249999Y-72948500D03*
X84250000Y-72948500D03*
D56*
X79950001Y-76773499D03*
X85549999Y-76773499D03*
%TD*%
D22*
%TO.C,R163*%
X88010000Y-67000000D03*
X86990000Y-67000000D03*
%TD*%
D33*
%TO.C,IC122*%
X24275000Y-81095000D03*
X24275000Y-82365000D03*
X24275000Y-83635000D03*
X24275000Y-84905000D03*
X29225000Y-84905000D03*
X29225000Y-83635000D03*
X29225000Y-82365000D03*
X29225000Y-81095000D03*
%TD*%
D57*
%TO.C,C141*%
X78000000Y-68800000D03*
X78000000Y-70700000D03*
%TD*%
D22*
%TO.C,R161*%
X88010000Y-69750000D03*
X86990000Y-69750000D03*
%TD*%
%TO.C,R162*%
X88010000Y-68250000D03*
X86990000Y-68250000D03*
%TD*%
D14*
%TO.C,C142*%
X78480000Y-67000000D03*
X77520000Y-67000000D03*
%TD*%
D55*
%TO.C,J122*%
X25250000Y-86948500D03*
X26250001Y-86948500D03*
X27249999Y-86948500D03*
X28250000Y-86948500D03*
D56*
X23950001Y-90773499D03*
X29549999Y-90773499D03*
%TD*%
D22*
%TO.C,R158*%
X74010000Y-69750000D03*
X72990000Y-69750000D03*
%TD*%
D14*
%TO.C,C140*%
X64480000Y-67000000D03*
X63520000Y-67000000D03*
%TD*%
D22*
%TO.C,R160*%
X74010000Y-67000000D03*
X72990000Y-67000000D03*
%TD*%
%TO.C,R159*%
X74010000Y-68250000D03*
X72990000Y-68250000D03*
%TD*%
D57*
%TO.C,C139*%
X64000000Y-68800000D03*
X64000000Y-70700000D03*
%TD*%
D22*
%TO.C,R155*%
X60010000Y-69750000D03*
X58990000Y-69750000D03*
%TD*%
%TO.C,R156*%
X60010000Y-68250000D03*
X58990000Y-68250000D03*
%TD*%
D55*
%TO.C,J120*%
X67250000Y-72948500D03*
X68250001Y-72948500D03*
X69249999Y-72948500D03*
X70250000Y-72948500D03*
D56*
X65950001Y-76773499D03*
X71549999Y-76773499D03*
%TD*%
D33*
%TO.C,IC121*%
X80275000Y-67095000D03*
X80275000Y-68365000D03*
X80275000Y-69635000D03*
X80275000Y-70905000D03*
X85225000Y-70905000D03*
X85225000Y-69635000D03*
X85225000Y-68365000D03*
X85225000Y-67095000D03*
%TD*%
%TO.C,IC120*%
X66275000Y-67095000D03*
X66275000Y-68365000D03*
X66275000Y-69635000D03*
X66275000Y-70905000D03*
X71225000Y-70905000D03*
X71225000Y-69635000D03*
X71225000Y-68365000D03*
X71225000Y-67095000D03*
%TD*%
D57*
%TO.C,C137*%
X50000000Y-68800000D03*
X50000000Y-70700000D03*
%TD*%
D22*
%TO.C,R157*%
X60010000Y-67000000D03*
X58990000Y-67000000D03*
%TD*%
D14*
%TO.C,C138*%
X50480000Y-67000000D03*
X49520000Y-67000000D03*
%TD*%
D55*
%TO.C,J119*%
X53250000Y-72948500D03*
X54250001Y-72948500D03*
X55249999Y-72948500D03*
X56250000Y-72948500D03*
D56*
X51950001Y-76773499D03*
X57549999Y-76773499D03*
%TD*%
D14*
%TO.C,C136*%
X36480000Y-67000000D03*
X35520000Y-67000000D03*
%TD*%
D57*
%TO.C,C133*%
X22000000Y-68800000D03*
X22000000Y-70700000D03*
%TD*%
D22*
%TO.C,R154*%
X46010000Y-67000000D03*
X44990000Y-67000000D03*
%TD*%
%TO.C,R153*%
X46010000Y-68250000D03*
X44990000Y-68250000D03*
%TD*%
D55*
%TO.C,J118*%
X39250000Y-72948500D03*
X40250001Y-72948500D03*
X41249999Y-72948500D03*
X42250000Y-72948500D03*
D56*
X37950001Y-76773499D03*
X43549999Y-76773499D03*
%TD*%
D22*
%TO.C,R152*%
X46010000Y-69750000D03*
X44990000Y-69750000D03*
%TD*%
D14*
%TO.C,C134*%
X22480000Y-67000000D03*
X21520000Y-67000000D03*
%TD*%
D33*
%TO.C,IC118*%
X38275000Y-67095000D03*
X38275000Y-68365000D03*
X38275000Y-69635000D03*
X38275000Y-70905000D03*
X43225000Y-70905000D03*
X43225000Y-69635000D03*
X43225000Y-68365000D03*
X43225000Y-67095000D03*
%TD*%
%TO.C,IC119*%
X52275000Y-67095000D03*
X52275000Y-68365000D03*
X52275000Y-69635000D03*
X52275000Y-70905000D03*
X57225000Y-70905000D03*
X57225000Y-69635000D03*
X57225000Y-68365000D03*
X57225000Y-67095000D03*
%TD*%
D57*
%TO.C,C135*%
X36000000Y-68800000D03*
X36000000Y-70700000D03*
%TD*%
D55*
%TO.C,J117*%
X25250000Y-72948500D03*
X26250001Y-72948500D03*
X27249999Y-72948500D03*
X28250000Y-72948500D03*
D56*
X23950001Y-76773499D03*
X29549999Y-76773499D03*
%TD*%
D22*
%TO.C,R151*%
X32010000Y-67000000D03*
X30990000Y-67000000D03*
%TD*%
%TO.C,R150*%
X32010000Y-68250000D03*
X30990000Y-68250000D03*
%TD*%
D33*
%TO.C,IC117*%
X24275000Y-67095000D03*
X24275000Y-68365000D03*
X24275000Y-69635000D03*
X24275000Y-70905000D03*
X29225000Y-70905000D03*
X29225000Y-69635000D03*
X29225000Y-68365000D03*
X29225000Y-67095000D03*
%TD*%
D22*
%TO.C,R146*%
X88010000Y-55750000D03*
X86990000Y-55750000D03*
%TD*%
D14*
%TO.C,C132*%
X78480000Y-53000000D03*
X77520000Y-53000000D03*
%TD*%
D57*
%TO.C,C131*%
X78000000Y-54800000D03*
X78000000Y-56700000D03*
%TD*%
D22*
%TO.C,R148*%
X88010000Y-53000000D03*
X86990000Y-53000000D03*
%TD*%
%TO.C,R147*%
X88010000Y-54250000D03*
X86990000Y-54250000D03*
%TD*%
D33*
%TO.C,IC116*%
X80275000Y-53095000D03*
X80275000Y-54365000D03*
X80275000Y-55635000D03*
X80275000Y-56905000D03*
X85225000Y-56905000D03*
X85225000Y-55635000D03*
X85225000Y-54365000D03*
X85225000Y-53095000D03*
%TD*%
D55*
%TO.C,J116*%
X81250000Y-58948500D03*
X82250001Y-58948500D03*
X83249999Y-58948500D03*
X84250000Y-58948500D03*
D56*
X79950001Y-62773499D03*
X85549999Y-62773499D03*
%TD*%
D22*
%TO.C,R149*%
X32010000Y-69750000D03*
X30990000Y-69750000D03*
%TD*%
%TO.C,R144*%
X74010000Y-54250000D03*
X72990000Y-54250000D03*
%TD*%
%TO.C,R145*%
X74010000Y-53000000D03*
X72990000Y-53000000D03*
%TD*%
%TO.C,R143*%
X74010000Y-55750000D03*
X72990000Y-55750000D03*
%TD*%
D33*
%TO.C,IC115*%
X66275000Y-53095000D03*
X66275000Y-54365000D03*
X66275000Y-55635000D03*
X66275000Y-56905000D03*
X71225000Y-56905000D03*
X71225000Y-55635000D03*
X71225000Y-54365000D03*
X71225000Y-53095000D03*
%TD*%
D14*
%TO.C,C128*%
X50480000Y-53000000D03*
X49520000Y-53000000D03*
%TD*%
D55*
%TO.C,J115*%
X67250000Y-58948500D03*
X68250001Y-58948500D03*
X69249999Y-58948500D03*
X70250000Y-58948500D03*
D56*
X65950001Y-62773499D03*
X71549999Y-62773499D03*
%TD*%
D22*
%TO.C,R142*%
X60010000Y-53000000D03*
X58990000Y-53000000D03*
%TD*%
D57*
%TO.C,C129*%
X64000000Y-54800000D03*
X64000000Y-56700000D03*
%TD*%
D14*
%TO.C,C130*%
X64480000Y-53000000D03*
X63520000Y-53000000D03*
%TD*%
D22*
%TO.C,R138*%
X46010000Y-54250000D03*
X44990000Y-54250000D03*
%TD*%
D33*
%TO.C,IC114*%
X52275000Y-53095000D03*
X52275000Y-54365000D03*
X52275000Y-55635000D03*
X52275000Y-56905000D03*
X57225000Y-56905000D03*
X57225000Y-55635000D03*
X57225000Y-54365000D03*
X57225000Y-53095000D03*
%TD*%
D22*
%TO.C,R141*%
X60010000Y-54250000D03*
X58990000Y-54250000D03*
%TD*%
%TO.C,R140*%
X60010000Y-55750000D03*
X58990000Y-55750000D03*
%TD*%
D57*
%TO.C,C125*%
X36000000Y-54800000D03*
X36000000Y-56700000D03*
%TD*%
%TO.C,C127*%
X50000000Y-54800000D03*
X50000000Y-56700000D03*
%TD*%
D55*
%TO.C,J114*%
X53250000Y-58948500D03*
X54250001Y-58948500D03*
X55249999Y-58948500D03*
X56250000Y-58948500D03*
D56*
X51950001Y-62773499D03*
X57549999Y-62773499D03*
%TD*%
D22*
%TO.C,R139*%
X46010000Y-53000000D03*
X44990000Y-53000000D03*
%TD*%
D14*
%TO.C,C126*%
X36480000Y-53000000D03*
X35520000Y-53000000D03*
%TD*%
D55*
%TO.C,J113*%
X39250000Y-58948500D03*
X40250001Y-58948500D03*
X41249999Y-58948500D03*
X42250000Y-58948500D03*
D56*
X37950001Y-62773499D03*
X43549999Y-62773499D03*
%TD*%
D33*
%TO.C,IC102*%
X24275000Y-25095000D03*
X24275000Y-26365000D03*
X24275000Y-27635000D03*
X24275000Y-28905000D03*
X29225000Y-28905000D03*
X29225000Y-27635000D03*
X29225000Y-26365000D03*
X29225000Y-25095000D03*
%TD*%
D22*
%TO.C,R105*%
X32010000Y-26250000D03*
X30990000Y-26250000D03*
%TD*%
D55*
%TO.C,J102*%
X25250000Y-30948500D03*
X26250001Y-30948500D03*
X27249999Y-30948500D03*
X28250000Y-30948500D03*
D56*
X23950001Y-34773499D03*
X29549999Y-34773499D03*
%TD*%
D22*
%TO.C,R104*%
X32010000Y-27750000D03*
X30990000Y-27750000D03*
%TD*%
%TO.C,R106*%
X32010000Y-25000000D03*
X30990000Y-25000000D03*
%TD*%
D57*
%TO.C,C123*%
X22000000Y-54800000D03*
X22000000Y-56700000D03*
%TD*%
D22*
%TO.C,R135*%
X32010000Y-54250000D03*
X30990000Y-54250000D03*
%TD*%
D33*
%TO.C,IC112*%
X24275000Y-53095000D03*
X24275000Y-54365000D03*
X24275000Y-55635000D03*
X24275000Y-56905000D03*
X29225000Y-56905000D03*
X29225000Y-55635000D03*
X29225000Y-54365000D03*
X29225000Y-53095000D03*
%TD*%
D22*
%TO.C,R134*%
X32010000Y-55750000D03*
X30990000Y-55750000D03*
%TD*%
%TO.C,R136*%
X32010000Y-53000000D03*
X30990000Y-53000000D03*
%TD*%
D14*
%TO.C,C122*%
X78480000Y-39000000D03*
X77520000Y-39000000D03*
%TD*%
D22*
%TO.C,R137*%
X46010000Y-55750000D03*
X44990000Y-55750000D03*
%TD*%
D33*
%TO.C,IC113*%
X38275000Y-53095000D03*
X38275000Y-54365000D03*
X38275000Y-55635000D03*
X38275000Y-56905000D03*
X43225000Y-56905000D03*
X43225000Y-55635000D03*
X43225000Y-54365000D03*
X43225000Y-53095000D03*
%TD*%
D14*
%TO.C,C124*%
X22480000Y-53000000D03*
X21520000Y-53000000D03*
%TD*%
D55*
%TO.C,J112*%
X25250000Y-58948500D03*
X26250001Y-58948500D03*
X27249999Y-58948500D03*
X28250000Y-58948500D03*
D56*
X23950001Y-62773499D03*
X29549999Y-62773499D03*
%TD*%
D55*
%TO.C,J111*%
X81250000Y-44948500D03*
X82250001Y-44948500D03*
X83249999Y-44948500D03*
X84250000Y-44948500D03*
D56*
X79950001Y-48773499D03*
X85549999Y-48773499D03*
%TD*%
D22*
%TO.C,R131*%
X88010000Y-41750000D03*
X86990000Y-41750000D03*
%TD*%
D14*
%TO.C,C120*%
X64480000Y-39000000D03*
X63520000Y-39000000D03*
%TD*%
D55*
%TO.C,J110*%
X67250000Y-44948500D03*
X68250001Y-44948500D03*
X69249999Y-44948500D03*
X70250000Y-44948500D03*
D56*
X65950001Y-48773499D03*
X71549999Y-48773499D03*
%TD*%
D22*
%TO.C,R128*%
X74010000Y-41750000D03*
X72990000Y-41750000D03*
%TD*%
%TO.C,R130*%
X74010000Y-39000000D03*
X72990000Y-39000000D03*
%TD*%
D57*
%TO.C,C121*%
X78000000Y-40800000D03*
X78000000Y-42700000D03*
%TD*%
D22*
%TO.C,R133*%
X88010000Y-39000000D03*
X86990000Y-39000000D03*
%TD*%
%TO.C,R132*%
X88010000Y-40250000D03*
X86990000Y-40250000D03*
%TD*%
%TO.C,R129*%
X74010000Y-40250000D03*
X72990000Y-40250000D03*
%TD*%
D33*
%TO.C,IC111*%
X80275000Y-39095000D03*
X80275000Y-40365000D03*
X80275000Y-41635000D03*
X80275000Y-42905000D03*
X85225000Y-42905000D03*
X85225000Y-41635000D03*
X85225000Y-40365000D03*
X85225000Y-39095000D03*
%TD*%
D57*
%TO.C,C119*%
X64000000Y-40800000D03*
X64000000Y-42700000D03*
%TD*%
D22*
%TO.C,R127*%
X60010000Y-39000000D03*
X58990000Y-39000000D03*
%TD*%
D14*
%TO.C,C118*%
X50480000Y-39000000D03*
X49520000Y-39000000D03*
%TD*%
D55*
%TO.C,J109*%
X53250000Y-44948500D03*
X54250001Y-44948500D03*
X55249999Y-44948500D03*
X56250000Y-44948500D03*
D56*
X51950001Y-48773499D03*
X57549999Y-48773499D03*
%TD*%
D57*
%TO.C,C117*%
X50000000Y-40800000D03*
X50000000Y-42700000D03*
%TD*%
D22*
%TO.C,R126*%
X60010000Y-40250000D03*
X58990000Y-40250000D03*
%TD*%
D57*
%TO.C,C115*%
X36000000Y-40800000D03*
X36000000Y-42700000D03*
%TD*%
D14*
%TO.C,C116*%
X36480000Y-39000000D03*
X35520000Y-39000000D03*
%TD*%
D22*
%TO.C,R125*%
X60010000Y-41750000D03*
X58990000Y-41750000D03*
%TD*%
D33*
%TO.C,IC110*%
X66275000Y-39095000D03*
X66275000Y-40365000D03*
X66275000Y-41635000D03*
X66275000Y-42905000D03*
X71225000Y-42905000D03*
X71225000Y-41635000D03*
X71225000Y-40365000D03*
X71225000Y-39095000D03*
%TD*%
%TO.C,IC109*%
X52275000Y-39095000D03*
X52275000Y-40365000D03*
X52275000Y-41635000D03*
X52275000Y-42905000D03*
X57225000Y-42905000D03*
X57225000Y-41635000D03*
X57225000Y-40365000D03*
X57225000Y-39095000D03*
%TD*%
D22*
%TO.C,R123*%
X46010000Y-40250000D03*
X44990000Y-40250000D03*
%TD*%
%TO.C,R122*%
X46010000Y-41750000D03*
X44990000Y-41750000D03*
%TD*%
D55*
%TO.C,J107*%
X25250000Y-44948500D03*
X26250001Y-44948500D03*
X27249999Y-44948500D03*
X28250000Y-44948500D03*
D56*
X23950001Y-48773499D03*
X29549999Y-48773499D03*
%TD*%
D33*
%TO.C,IC108*%
X38275000Y-39095000D03*
X38275000Y-40365000D03*
X38275000Y-41635000D03*
X38275000Y-42905000D03*
X43225000Y-42905000D03*
X43225000Y-41635000D03*
X43225000Y-40365000D03*
X43225000Y-39095000D03*
%TD*%
D22*
%TO.C,R121*%
X32010000Y-39000000D03*
X30990000Y-39000000D03*
%TD*%
D57*
%TO.C,C113*%
X22000000Y-40800000D03*
X22000000Y-42700000D03*
%TD*%
D14*
%TO.C,C114*%
X22480000Y-39000000D03*
X21520000Y-39000000D03*
%TD*%
D22*
%TO.C,R120*%
X32010000Y-40250000D03*
X30990000Y-40250000D03*
%TD*%
%TO.C,R124*%
X46010000Y-39000000D03*
X44990000Y-39000000D03*
%TD*%
D55*
%TO.C,J108*%
X39250000Y-44948500D03*
X40250001Y-44948500D03*
X41249999Y-44948500D03*
X42250000Y-44948500D03*
D56*
X37950001Y-48773499D03*
X43549999Y-48773499D03*
%TD*%
D33*
%TO.C,IC107*%
X24275000Y-39095000D03*
X24275000Y-40365000D03*
X24275000Y-41635000D03*
X24275000Y-42905000D03*
X29225000Y-42905000D03*
X29225000Y-41635000D03*
X29225000Y-40365000D03*
X29225000Y-39095000D03*
%TD*%
D22*
%TO.C,R118*%
X88010000Y-25000000D03*
X86990000Y-25000000D03*
%TD*%
D33*
%TO.C,IC106*%
X80275000Y-25095000D03*
X80275000Y-26365000D03*
X80275000Y-27635000D03*
X80275000Y-28905000D03*
X85225000Y-28905000D03*
X85225000Y-27635000D03*
X85225000Y-26365000D03*
X85225000Y-25095000D03*
%TD*%
D14*
%TO.C,C110*%
X64480000Y-25000000D03*
X63520000Y-25000000D03*
%TD*%
%TO.C,C112*%
X78480000Y-25000000D03*
X77520000Y-25000000D03*
%TD*%
D22*
%TO.C,R117*%
X88010000Y-26250000D03*
X86990000Y-26250000D03*
%TD*%
%TO.C,R116*%
X88010000Y-27750000D03*
X86990000Y-27750000D03*
%TD*%
D55*
%TO.C,J106*%
X81250000Y-30948500D03*
X82250001Y-30948500D03*
X83249999Y-30948500D03*
X84250000Y-30948500D03*
D56*
X79950001Y-34773499D03*
X85549999Y-34773499D03*
%TD*%
D22*
%TO.C,R119*%
X32010000Y-41750000D03*
X30990000Y-41750000D03*
%TD*%
D57*
%TO.C,C111*%
X78000000Y-26800000D03*
X78000000Y-28700000D03*
%TD*%
%TO.C,C109*%
X64000000Y-26800000D03*
X64000000Y-28700000D03*
%TD*%
D22*
%TO.C,R112*%
X60010000Y-25000000D03*
X58990000Y-25000000D03*
%TD*%
%TO.C,R114*%
X74010000Y-26250000D03*
X72990000Y-26250000D03*
%TD*%
%TO.C,R111*%
X60010000Y-26250000D03*
X58990000Y-26250000D03*
%TD*%
D14*
%TO.C,C108*%
X50480000Y-25000000D03*
X49520000Y-25000000D03*
%TD*%
D55*
%TO.C,J105*%
X67250000Y-30948500D03*
X68250001Y-30948500D03*
X69249999Y-30948500D03*
X70250000Y-30948500D03*
D56*
X65950001Y-34773499D03*
X71549999Y-34773499D03*
%TD*%
D22*
%TO.C,R113*%
X74010000Y-27750000D03*
X72990000Y-27750000D03*
%TD*%
D33*
%TO.C,IC105*%
X66275000Y-25095000D03*
X66275000Y-26365000D03*
X66275000Y-27635000D03*
X66275000Y-28905000D03*
X71225000Y-28905000D03*
X71225000Y-27635000D03*
X71225000Y-26365000D03*
X71225000Y-25095000D03*
%TD*%
D57*
%TO.C,C107*%
X50000000Y-26800000D03*
X50000000Y-28700000D03*
%TD*%
D22*
%TO.C,R115*%
X74010000Y-25000000D03*
X72990000Y-25000000D03*
%TD*%
%TO.C,R110*%
X60010000Y-27750000D03*
X58990000Y-27750000D03*
%TD*%
D33*
%TO.C,IC104*%
X52275000Y-25095000D03*
X52275000Y-26365000D03*
X52275000Y-27635000D03*
X52275000Y-28905000D03*
X57225000Y-28905000D03*
X57225000Y-27635000D03*
X57225000Y-26365000D03*
X57225000Y-25095000D03*
%TD*%
D22*
%TO.C,R108*%
X46010000Y-26250000D03*
X44990000Y-26250000D03*
%TD*%
%TO.C,R109*%
X46010000Y-25000000D03*
X44990000Y-25000000D03*
%TD*%
D57*
%TO.C,C105*%
X36000000Y-26800000D03*
X36000000Y-28700000D03*
%TD*%
D14*
%TO.C,C104*%
X22480000Y-25000000D03*
X21520000Y-25000000D03*
%TD*%
%TO.C,C106*%
X36480000Y-25000000D03*
X35520000Y-25000000D03*
%TD*%
D57*
%TO.C,C103*%
X22000000Y-26800000D03*
X22000000Y-28700000D03*
%TD*%
D55*
%TO.C,J104*%
X53250000Y-30948500D03*
X54250001Y-30948500D03*
X55249999Y-30948500D03*
X56250000Y-30948500D03*
D56*
X51950001Y-34773499D03*
X57549999Y-34773499D03*
%TD*%
D55*
%TO.C,J103*%
X39250000Y-30948500D03*
X40250001Y-30948500D03*
X41249999Y-30948500D03*
X42250000Y-30948500D03*
D56*
X37950001Y-34773499D03*
X43549999Y-34773499D03*
%TD*%
D33*
%TO.C,IC103*%
X38275000Y-25095000D03*
X38275000Y-26365000D03*
X38275000Y-27635000D03*
X38275000Y-28905000D03*
X43225000Y-28905000D03*
X43225000Y-27635000D03*
X43225000Y-26365000D03*
X43225000Y-25095000D03*
%TD*%
D22*
%TO.C,R107*%
X46010000Y-27750000D03*
X44990000Y-27750000D03*
%TD*%
M02*
