%TF.GenerationSoftware,KiCad,Pcbnew,9.0.3*%
%TF.CreationDate,2026-09-12T02:23:41-04:00*%
%TF.ProjectId,Combined_Stencil3,436f6d62-696e-4656-945f-5374656e6369,rev?*%
%TF.SameCoordinates,Original*%
%TF.FileFunction,Paste,Bot*%
%TF.FilePolarity,Positive*%
%FSLAX46Y46*%
G04 Gerber Fmt 4.6, Leading zero omitted, Abs format (unit mm)*
G04 Created by KiCad (PCBNEW 9.0.3) date 2026-09-12 02:23:41*
%MOMM*%
%LPD*%
G01*
G04 APERTURE LIST*
%ADD10C,0.010000*%
%ADD11R,0.800000X0.400000*%
G04 APERTURE END LIST*
D10*
%TO.C,J201*%
X165533537Y-71625000D02*
X164883537Y-71625000D01*
X164883537Y-71375000D01*
X165533537Y-71375000D01*
X165533537Y-71625000D01*
G36*
X165533537Y-71625000D02*
G01*
X164883537Y-71625000D01*
X164883537Y-71375000D01*
X165533537Y-71375000D01*
X165533537Y-71625000D01*
G37*
X165533537Y-71125000D02*
X164883537Y-71125000D01*
X164883537Y-70875000D01*
X165533537Y-70875000D01*
X165533537Y-71125000D01*
G36*
X165533537Y-71125000D02*
G01*
X164883537Y-71125000D01*
X164883537Y-70875000D01*
X165533537Y-70875000D01*
X165533537Y-71125000D01*
G37*
X165533537Y-70625000D02*
X164883537Y-70625000D01*
X164883537Y-70375000D01*
X165533537Y-70375000D01*
X165533537Y-70625000D01*
G36*
X165533537Y-70625000D02*
G01*
X164883537Y-70625000D01*
X164883537Y-70375000D01*
X165533537Y-70375000D01*
X165533537Y-70625000D01*
G37*
X165533537Y-70125000D02*
X164883537Y-70125000D01*
X164883537Y-69875000D01*
X165533537Y-69875000D01*
X165533537Y-70125000D01*
G36*
X165533537Y-70125000D02*
G01*
X164883537Y-70125000D01*
X164883537Y-69875000D01*
X165533537Y-69875000D01*
X165533537Y-70125000D01*
G37*
X165533537Y-69625000D02*
X164883537Y-69625000D01*
X164883537Y-69375000D01*
X165533537Y-69375000D01*
X165533537Y-69625000D01*
G36*
X165533537Y-69625000D02*
G01*
X164883537Y-69625000D01*
X164883537Y-69375000D01*
X165533537Y-69375000D01*
X165533537Y-69625000D01*
G37*
X165533537Y-69125000D02*
X164883537Y-69125000D01*
X164883537Y-68875000D01*
X165533537Y-68875000D01*
X165533537Y-69125000D01*
G36*
X165533537Y-69125000D02*
G01*
X164883537Y-69125000D01*
X164883537Y-68875000D01*
X165533537Y-68875000D01*
X165533537Y-69125000D01*
G37*
X165533537Y-68625000D02*
X164883537Y-68625000D01*
X164883537Y-68375000D01*
X165533537Y-68375000D01*
X165533537Y-68625000D01*
G36*
X165533537Y-68625000D02*
G01*
X164883537Y-68625000D01*
X164883537Y-68375000D01*
X165533537Y-68375000D01*
X165533537Y-68625000D01*
G37*
X165533537Y-68125000D02*
X164883537Y-68125000D01*
X164883537Y-67875000D01*
X165533537Y-67875000D01*
X165533537Y-68125000D01*
G36*
X165533537Y-68125000D02*
G01*
X164883537Y-68125000D01*
X164883537Y-67875000D01*
X165533537Y-67875000D01*
X165533537Y-68125000D01*
G37*
X165533537Y-67625000D02*
X164883537Y-67625000D01*
X164883537Y-67375000D01*
X165533537Y-67375000D01*
X165533537Y-67625000D01*
G36*
X165533537Y-67625000D02*
G01*
X164883537Y-67625000D01*
X164883537Y-67375000D01*
X165533537Y-67375000D01*
X165533537Y-67625000D01*
G37*
X165533537Y-67125000D02*
X164883537Y-67125000D01*
X164883537Y-66875000D01*
X165533537Y-66875000D01*
X165533537Y-67125000D01*
G36*
X165533537Y-67125000D02*
G01*
X164883537Y-67125000D01*
X164883537Y-66875000D01*
X165533537Y-66875000D01*
X165533537Y-67125000D01*
G37*
X165533537Y-66625000D02*
X164883537Y-66625000D01*
X164883537Y-66375000D01*
X165533537Y-66375000D01*
X165533537Y-66625000D01*
G36*
X165533537Y-66625000D02*
G01*
X164883537Y-66625000D01*
X164883537Y-66375000D01*
X165533537Y-66375000D01*
X165533537Y-66625000D01*
G37*
X165533537Y-66125000D02*
X164883537Y-66125000D01*
X164883537Y-65875000D01*
X165533537Y-65875000D01*
X165533537Y-66125000D01*
G36*
X165533537Y-66125000D02*
G01*
X164883537Y-66125000D01*
X164883537Y-65875000D01*
X165533537Y-65875000D01*
X165533537Y-66125000D01*
G37*
X165533537Y-65625000D02*
X164883537Y-65625000D01*
X164883537Y-65375000D01*
X165533537Y-65375000D01*
X165533537Y-65625000D01*
G36*
X165533537Y-65625000D02*
G01*
X164883537Y-65625000D01*
X164883537Y-65375000D01*
X165533537Y-65375000D01*
X165533537Y-65625000D01*
G37*
X165533537Y-65125000D02*
X164883537Y-65125000D01*
X164883537Y-64875000D01*
X165533537Y-64875000D01*
X165533537Y-65125000D01*
G36*
X165533537Y-65125000D02*
G01*
X164883537Y-65125000D01*
X164883537Y-64875000D01*
X165533537Y-64875000D01*
X165533537Y-65125000D01*
G37*
X165533537Y-64625000D02*
X164883537Y-64625000D01*
X164883537Y-64375000D01*
X165533537Y-64375000D01*
X165533537Y-64625000D01*
G36*
X165533537Y-64625000D02*
G01*
X164883537Y-64625000D01*
X164883537Y-64375000D01*
X165533537Y-64375000D01*
X165533537Y-64625000D01*
G37*
X165533537Y-64125000D02*
X164883537Y-64125000D01*
X164883537Y-63875000D01*
X165533537Y-63875000D01*
X165533537Y-64125000D01*
G36*
X165533537Y-64125000D02*
G01*
X164883537Y-64125000D01*
X164883537Y-63875000D01*
X165533537Y-63875000D01*
X165533537Y-64125000D01*
G37*
X165533537Y-63625000D02*
X164883537Y-63625000D01*
X164883537Y-63375000D01*
X165533537Y-63375000D01*
X165533537Y-63625000D01*
G36*
X165533537Y-63625000D02*
G01*
X164883537Y-63625000D01*
X164883537Y-63375000D01*
X165533537Y-63375000D01*
X165533537Y-63625000D01*
G37*
X165533537Y-63125000D02*
X164883537Y-63125000D01*
X164883537Y-62875000D01*
X165533537Y-62875000D01*
X165533537Y-63125000D01*
G36*
X165533537Y-63125000D02*
G01*
X164883537Y-63125000D01*
X164883537Y-62875000D01*
X165533537Y-62875000D01*
X165533537Y-63125000D01*
G37*
X165533537Y-62625000D02*
X164883537Y-62625000D01*
X164883537Y-62375000D01*
X165533537Y-62375000D01*
X165533537Y-62625000D01*
G36*
X165533537Y-62625000D02*
G01*
X164883537Y-62625000D01*
X164883537Y-62375000D01*
X165533537Y-62375000D01*
X165533537Y-62625000D01*
G37*
X165533537Y-62125000D02*
X164883537Y-62125000D01*
X164883537Y-61875000D01*
X165533537Y-61875000D01*
X165533537Y-62125000D01*
G36*
X165533537Y-62125000D02*
G01*
X164883537Y-62125000D01*
X164883537Y-61875000D01*
X165533537Y-61875000D01*
X165533537Y-62125000D01*
G37*
X165533537Y-61625000D02*
X164883537Y-61625000D01*
X164883537Y-61375000D01*
X165533537Y-61375000D01*
X165533537Y-61625000D01*
G36*
X165533537Y-61625000D02*
G01*
X164883537Y-61625000D01*
X164883537Y-61375000D01*
X165533537Y-61375000D01*
X165533537Y-61625000D01*
G37*
X165533537Y-61125000D02*
X164883537Y-61125000D01*
X164883537Y-60875000D01*
X165533537Y-60875000D01*
X165533537Y-61125000D01*
G36*
X165533537Y-61125000D02*
G01*
X164883537Y-61125000D01*
X164883537Y-60875000D01*
X165533537Y-60875000D01*
X165533537Y-61125000D01*
G37*
X165533537Y-60625000D02*
X164883537Y-60625000D01*
X164883537Y-60375000D01*
X165533537Y-60375000D01*
X165533537Y-60625000D01*
G36*
X165533537Y-60625000D02*
G01*
X164883537Y-60625000D01*
X164883537Y-60375000D01*
X165533537Y-60375000D01*
X165533537Y-60625000D01*
G37*
X165533537Y-60125000D02*
X164883537Y-60125000D01*
X164883537Y-59875000D01*
X165533537Y-59875000D01*
X165533537Y-60125000D01*
G36*
X165533537Y-60125000D02*
G01*
X164883537Y-60125000D01*
X164883537Y-59875000D01*
X165533537Y-59875000D01*
X165533537Y-60125000D01*
G37*
X165533537Y-59625000D02*
X164883537Y-59625000D01*
X164883537Y-59375000D01*
X165533537Y-59375000D01*
X165533537Y-59625000D01*
G36*
X165533537Y-59625000D02*
G01*
X164883537Y-59625000D01*
X164883537Y-59375000D01*
X165533537Y-59375000D01*
X165533537Y-59625000D01*
G37*
X165533537Y-59125000D02*
X164883537Y-59125000D01*
X164883537Y-58875000D01*
X165533537Y-58875000D01*
X165533537Y-59125000D01*
G36*
X165533537Y-59125000D02*
G01*
X164883537Y-59125000D01*
X164883537Y-58875000D01*
X165533537Y-58875000D01*
X165533537Y-59125000D01*
G37*
X165533537Y-58625000D02*
X164883537Y-58625000D01*
X164883537Y-58375000D01*
X165533537Y-58375000D01*
X165533537Y-58625000D01*
G36*
X165533537Y-58625000D02*
G01*
X164883537Y-58625000D01*
X164883537Y-58375000D01*
X165533537Y-58375000D01*
X165533537Y-58625000D01*
G37*
X165533537Y-58125000D02*
X164883537Y-58125000D01*
X164883537Y-57875000D01*
X165533537Y-57875000D01*
X165533537Y-58125000D01*
G36*
X165533537Y-58125000D02*
G01*
X164883537Y-58125000D01*
X164883537Y-57875000D01*
X165533537Y-57875000D01*
X165533537Y-58125000D01*
G37*
X165533537Y-57625000D02*
X164883537Y-57625000D01*
X164883537Y-57375000D01*
X165533537Y-57375000D01*
X165533537Y-57625000D01*
G36*
X165533537Y-57625000D02*
G01*
X164883537Y-57625000D01*
X164883537Y-57375000D01*
X165533537Y-57375000D01*
X165533537Y-57625000D01*
G37*
X165533537Y-57125000D02*
X164883537Y-57125000D01*
X164883537Y-56875000D01*
X165533537Y-56875000D01*
X165533537Y-57125000D01*
G36*
X165533537Y-57125000D02*
G01*
X164883537Y-57125000D01*
X164883537Y-56875000D01*
X165533537Y-56875000D01*
X165533537Y-57125000D01*
G37*
X165533537Y-56625000D02*
X164883537Y-56625000D01*
X164883537Y-56375000D01*
X165533537Y-56375000D01*
X165533537Y-56625000D01*
G36*
X165533537Y-56625000D02*
G01*
X164883537Y-56625000D01*
X164883537Y-56375000D01*
X165533537Y-56375000D01*
X165533537Y-56625000D01*
G37*
X165533537Y-56125000D02*
X164883537Y-56125000D01*
X164883537Y-55875000D01*
X165533537Y-55875000D01*
X165533537Y-56125000D01*
G36*
X165533537Y-56125000D02*
G01*
X164883537Y-56125000D01*
X164883537Y-55875000D01*
X165533537Y-55875000D01*
X165533537Y-56125000D01*
G37*
%TD*%
D11*
%TO.C,J201*%
X167783537Y-55000000D03*
X167783537Y-72500000D03*
%TD*%
M02*
