M48
; DRILL file {KiCad 9.0.3} date 2026-09-12T02:23:57-0400
; FORMAT={-:-/ absolute / metric / decimal}
; #@! TF.CreationDate,2026-09-12T02:23:57-04:00
; #@! TF.GenerationSoftware,Kicad,Pcbnew,9.0.3
; #@! TF.FileFunction,Plated,1,2,PTH
FMAT,2
METRIC
; #@! TA.AperFunction,Plated,PTH,ViaDrill
T1C0.300
; #@! TA.AperFunction,Plated,PTH,ViaDrill
T2C0.400
; #@! TA.AperFunction,Plated,PTH,ComponentDrill
T3C0.600
; #@! TA.AperFunction,Plated,PTH,ComponentDrill
T4C0.800
; #@! TA.AperFunction,Plated,PTH,ComponentDrill
T5C0.950
; #@! TA.AperFunction,Plated,PTH,ComponentDrill
T6C1.000
; #@! TA.AperFunction,Plated,PTH,ComponentDrill
T7C2.700
%
G90
G05
T1
X21.5Y-25.75
X21.5Y-39.75
X21.5Y-53.75
X21.5Y-67.75
X21.5Y-81.75
X22.0Y-29.75
X22.0Y-43.75
X22.0Y-57.75
X22.0Y-71.75
X22.0Y-85.75
X24.25Y-29.75
X24.25Y-43.75
X24.25Y-57.75
X24.25Y-71.75
X24.25Y-85.75
X28.25Y-29.75
X28.25Y-43.75
X28.25Y-57.75
X28.25Y-71.75
X28.25Y-85.75
X29.75Y-133.0
X31.25Y-134.75
X33.5Y-137.0
X35.5Y-25.75
X35.5Y-39.75
X35.5Y-53.75
X35.5Y-67.75
X35.5Y-81.75
X36.0Y-29.75
X36.0Y-43.75
X36.0Y-57.75
X36.0Y-71.75
X36.0Y-85.75
X38.25Y-29.75
X38.25Y-43.75
X38.25Y-57.75
X38.25Y-71.75
X38.25Y-85.75
X39.25Y-143.75
X40.25Y-127.75
X41.712Y-123.0
X42.25Y-29.75
X42.25Y-43.75
X42.25Y-57.75
X42.25Y-71.75
X42.25Y-85.75
X49.5Y-25.75
X49.5Y-39.75
X49.5Y-53.75
X49.5Y-67.75
X49.5Y-81.75
X50.0Y-29.75
X50.0Y-43.75
X50.0Y-57.75
X50.0Y-71.75
X50.0Y-85.75
X52.25Y-29.75
X52.25Y-43.75
X52.25Y-57.75
X52.25Y-71.75
X52.25Y-85.75
X56.25Y-29.75
X56.25Y-43.75
X56.25Y-57.75
X56.25Y-71.75
X56.25Y-85.75
X63.5Y-25.75
X63.5Y-39.75
X63.5Y-53.75
X63.5Y-67.75
X63.5Y-81.75
X64.0Y-29.75
X64.0Y-43.75
X64.0Y-57.75
X64.0Y-71.75
X64.0Y-85.75
X66.25Y-29.75
X66.25Y-43.75
X66.25Y-57.75
X66.25Y-71.75
X66.25Y-85.75
X70.25Y-29.75
X70.25Y-43.75
X70.25Y-57.75
X70.25Y-71.75
X70.25Y-85.75
X77.5Y-25.75
X77.5Y-39.75
X77.5Y-53.75
X77.5Y-67.75
X77.5Y-81.75
X78.0Y-29.75
X78.0Y-43.75
X78.0Y-57.75
X78.0Y-71.75
X78.0Y-85.75
X80.25Y-29.75
X80.25Y-43.75
X80.25Y-57.75
X80.25Y-71.75
X80.25Y-85.75
X84.25Y-29.75
X84.25Y-43.75
X84.25Y-57.75
X84.25Y-71.75
X84.25Y-85.75
X115.67Y-132.52
X115.67Y-134.52
X116.42Y-136.32
X116.534Y-130.62
X116.75Y-25.75
X116.75Y-29.0
X116.75Y-32.32
X118.02Y-137.92
X119.67Y-117.52
X120.22Y-121.92
X120.22Y-128.92
X120.42Y-140.52
X120.5Y-38.5
X121.62Y-127.92
X122.25Y-41.25
X122.42Y-133.52
X122.422Y-125.146
X122.5Y-34.5
X124.226Y-39.524
X124.25Y-64.75
X124.5Y-37.0
X124.5Y-48.5
X124.5Y-63.75
X125.0Y-66.5
X125.02Y-139.72
X125.5Y-24.75
X125.67Y-110.77
X125.67Y-146.77
X125.92Y-128.27
X126.17Y-121.77
X126.25Y-55.5
X127.02Y-148.82
X127.25Y-27.25
X127.25Y-41.0
X127.42Y-133.77
X127.72Y-116.12
X128.5Y-60.0
X128.75Y-24.75
X129.82Y-139.62
X131.5Y-35.25
X131.67Y-112.27
X131.92Y-121.27
X131.92Y-135.72
X132.0Y-58.5
X132.085Y-116.704
X132.62Y-112.29
X133.0Y-61.75
X133.42Y-147.77
X133.433Y-118.521
X133.67Y-110.27
X134.12Y-125.42
X135.48Y-144.27
X135.67Y-139.02
X136.0Y-36.75
X136.0Y-38.0
X136.0Y-64.5
X136.75Y-61.75
X136.92Y-131.42
X137.0Y-34.25
X137.02Y-128.62
X137.25Y-63.25
X137.25Y-64.0
X137.25Y-64.75
X137.42Y-148.52
X138.17Y-108.27
X138.42Y-144.27
X140.269Y-121.02
X140.42Y-144.52
X140.521Y-142.373
X140.715Y-67.485
X140.784Y-60.5
X140.945Y-108.14
X141.544Y-67.672
X141.614Y-60.306
X141.62Y-128.62
X141.62Y-131.42
X141.835Y-111.435
X142.353Y-67.935
X142.421Y-60.038
X142.746Y-122.444
X143.153Y-68.222
X143.227Y-59.769
X143.295Y-123.395
X143.67Y-112.77
X143.984Y-68.4
X144.034Y-59.5
X144.596Y-143.346
X144.79Y-68.669
X144.92Y-133.72
X144.921Y-59.288
X145.444Y-141.695
X145.482Y-142.92
X145.597Y-68.938
X145.727Y-59.019
X145.749Y-144.791
X146.2Y-130.0
X146.22Y-146.32
X146.32Y-144.12
X146.404Y-69.205
X146.42Y-142.02
X146.534Y-58.75
X146.67Y-136.02
X147.207Y-69.483
X147.364Y-58.556
X147.67Y-136.02
X147.92Y-126.615
X148.02Y-147.92
X148.036Y-69.671
X148.118Y-123.346
X148.17Y-129.27
X148.171Y-58.288
X148.175Y-108.27
X148.52Y-139.52
X148.851Y-69.913
X148.977Y-58.019
X149.17Y-142.27
X149.2Y-112.778
X149.2Y-114.778
X149.32Y-120.52
X149.42Y-109.27
X149.42Y-112.02
X149.698Y-69.983
X149.784Y-57.75
X150.531Y-70.151
X150.727Y-57.519
X151.371Y-70.278
X151.534Y-57.25
X152.32Y-117.52
X152.324Y-70.376
X152.37Y-140.07
X152.406Y-57.127
X152.624Y-128.17
X152.663Y-126.811
X152.82Y-112.977
X153.12Y-147.62
X153.133Y-111.938
X153.22Y-138.32
X153.53Y-57.05
X153.533Y-70.45
X153.62Y-115.52
X153.92Y-124.27
X153.92Y-137.77
X155.02Y-119.22
X155.06Y-129.18
X155.08Y-126.41
X155.12Y-139.88
X155.204Y-145.32
X155.22Y-115.72
X155.388Y-132.02
X155.42Y-112.27
X155.52Y-117.52
X155.988Y-136.111
X156.044Y-122.546
X156.92Y-119.77
X156.92Y-133.02
X157.67Y-115.27
X157.68Y-139.82
X157.7Y-142.44
X157.79Y-111.495
X157.79Y-110.695
X157.81Y-126.4
X157.82Y-129.12
X157.92Y-109.27
X157.92Y-114.02
X157.944Y-113.196
X158.0Y-47.75
X159.67Y-117.27
X159.756Y-113.854
X159.994Y-144.837
X160.17Y-132.02
X160.17Y-136.77
X160.228Y-129.42
X160.38Y-142.91
X160.92Y-123.31
X161.05Y-145.14
X161.42Y-115.77
X161.67Y-135.02
X161.92Y-122.02
X162.07Y-120.37
X162.07Y-121.17
X162.92Y-132.27
X163.12Y-109.77
X163.17Y-110.77
X163.17Y-117.27
X163.67Y-114.52
X164.42Y-126.606
X164.667Y-130.84
X164.92Y-140.27
X165.346Y-144.246
X165.506Y-130.83
X165.514Y-126.579
X165.715Y-140.358
X166.17Y-144.27
T2
X159.17Y-130.77
X159.17Y-138.27
X159.17Y-144.27
X159.42Y-124.77
X167.96Y-141.54
X168.02Y-145.78
X168.05Y-128.02
X168.06Y-132.27
X168.17Y-124.02
X168.42Y-136.52
T4
X163.5Y-39.757
X163.5Y-43.257
T5
X161.67Y-125.27
X161.67Y-127.77
X161.67Y-130.27
X161.67Y-138.77
X161.67Y-141.27
X161.67Y-143.77
T6
X116.75Y-40.34
X116.75Y-42.88
X116.75Y-45.42
X116.75Y-47.96
X116.75Y-50.5
X116.75Y-53.04
X116.75Y-55.58
X116.75Y-58.12
X116.75Y-60.66
X123.93Y-114.77
X123.93Y-142.52
X126.47Y-114.77
X126.47Y-142.52
X129.01Y-114.77
X129.01Y-142.52
X131.55Y-114.77
X131.55Y-142.52
X134.09Y-114.77
X134.09Y-142.52
X136.63Y-114.77
X136.63Y-142.52
X139.17Y-114.77
X139.17Y-142.52
T7
X115.17Y-111.27
X115.17Y-145.77
X120.17Y-111.27
X120.17Y-145.77
T3
G00X114.82Y-121.09
M15
G01X114.02Y-121.09
M16
G05
G00X114.82Y-129.73
M15
G01X114.02Y-129.73
M16
G05
G00X119.15Y-121.09
M15
G01X118.05Y-121.09
M16
G05
G00X119.15Y-129.73
M15
G01X118.05Y-129.73
M16
G05
M30
