%TF.GenerationSoftware,KiCad,Pcbnew,9.0.3*%
%TF.CreationDate,2026-09-12T02:10:33-04:00*%
%TF.ProjectId,Hydra_Encoder,48796472-615f-4456-9e63-6f6465722e6b,rev?*%
%TF.SameCoordinates,Original*%
%TF.FileFunction,Copper,L1,Top*%
%TF.FilePolarity,Positive*%
%FSLAX46Y46*%
G04 Gerber Fmt 4.6, Leading zero omitted, Abs format (unit mm)*
G04 Created by KiCad (PCBNEW 9.0.3) date 2026-09-12 02:10:33*
%MOMM*%
%LPD*%
G01*
G04 APERTURE LIST*
G04 Aperture macros list*
%AMRoundRect*
0 Rectangle with rounded corners*
0 $1 Rounding radius*
0 $2 $3 $4 $5 $6 $7 $8 $9 X,Y pos of 4 corners*
0 Add a 4 corners polygon primitive as box body*
4,1,4,$2,$3,$4,$5,$6,$7,$8,$9,$2,$3,0*
0 Add four circle primitives for the rounded corners*
1,1,$1+$1,$2,$3*
1,1,$1+$1,$4,$5*
1,1,$1+$1,$6,$7*
1,1,$1+$1,$8,$9*
0 Add four rect primitives between the rounded corners*
20,1,$1+$1,$2,$3,$4,$5,0*
20,1,$1+$1,$4,$5,$6,$7,0*
20,1,$1+$1,$6,$7,$8,$9,0*
20,1,$1+$1,$8,$9,$2,$3,0*%
%AMFreePoly0*
4,1,23,0.500000,-0.750000,0.000000,-0.750000,0.000000,-0.745722,-0.065263,-0.745722,-0.191342,-0.711940,-0.304381,-0.646677,-0.396677,-0.554381,-0.461940,-0.441342,-0.495722,-0.315263,-0.495722,-0.250000,-0.500000,-0.250000,-0.500000,0.250000,-0.495722,0.250000,-0.495722,0.315263,-0.461940,0.441342,-0.396677,0.554381,-0.304381,0.646677,-0.191342,0.711940,-0.065263,0.745722,0.000000,0.745722,
0.000000,0.750000,0.500000,0.750000,0.500000,-0.750000,0.500000,-0.750000,$1*%
%AMFreePoly1*
4,1,23,0.000000,0.745722,0.065263,0.745722,0.191342,0.711940,0.304381,0.646677,0.396677,0.554381,0.461940,0.441342,0.495722,0.315263,0.495722,0.250000,0.500000,0.250000,0.500000,-0.250000,0.495722,-0.250000,0.495722,-0.315263,0.461940,-0.441342,0.396677,-0.554381,0.304381,-0.646677,0.191342,-0.711940,0.065263,-0.745722,0.000000,-0.745722,0.000000,-0.750000,-0.500000,-0.750000,
-0.500000,0.750000,0.000000,0.750000,0.000000,0.745722,0.000000,0.745722,$1*%
G04 Aperture macros list end*
%TA.AperFunction,SMDPad,CuDef*%
%ADD10RoundRect,0.150000X-0.825000X-0.150000X0.825000X-0.150000X0.825000X0.150000X-0.825000X0.150000X0*%
%TD*%
%TA.AperFunction,SMDPad,CuDef*%
%ADD11RoundRect,0.135000X-0.135000X-0.185000X0.135000X-0.185000X0.135000X0.185000X-0.135000X0.185000X0*%
%TD*%
%TA.AperFunction,SMDPad,CuDef*%
%ADD12R,0.609600X1.549400*%
%TD*%
%TA.AperFunction,SMDPad,CuDef*%
%ADD13R,1.193800X1.803400*%
%TD*%
%TA.AperFunction,SMDPad,CuDef*%
%ADD14RoundRect,0.250000X0.250000X0.475000X-0.250000X0.475000X-0.250000X-0.475000X0.250000X-0.475000X0*%
%TD*%
%TA.AperFunction,SMDPad,CuDef*%
%ADD15RoundRect,0.218750X0.218750X0.256250X-0.218750X0.256250X-0.218750X-0.256250X0.218750X-0.256250X0*%
%TD*%
%TA.AperFunction,SMDPad,CuDef*%
%ADD16RoundRect,0.135000X0.135000X0.185000X-0.135000X0.185000X-0.135000X-0.185000X0.135000X-0.185000X0*%
%TD*%
%TA.AperFunction,SMDPad,CuDef*%
%ADD17FreePoly0,270.000000*%
%TD*%
%TA.AperFunction,SMDPad,CuDef*%
%ADD18FreePoly1,270.000000*%
%TD*%
%TA.AperFunction,SMDPad,CuDef*%
%ADD19RoundRect,0.140000X0.140000X0.170000X-0.140000X0.170000X-0.140000X-0.170000X0.140000X-0.170000X0*%
%TD*%
%TA.AperFunction,ViaPad*%
%ADD20C,0.600000*%
%TD*%
%TA.AperFunction,Conductor*%
%ADD21C,0.200000*%
%TD*%
G04 APERTURE END LIST*
D10*
%TO.P,IC101,1,VDD5V*%
%TO.N,+3.3V*%
X-2475000Y1905000D03*
%TO.P,IC101,2,VDD3V3*%
X-2475000Y635000D03*
%TO.P,IC101,3,OUT*%
%TO.N,unconnected-(IC101-OUT-Pad3)*%
X-2475000Y-635000D03*
%TO.P,IC101,4,GND*%
%TO.N,GND*%
X-2475000Y-1905000D03*
%TO.P,IC101,5,PGO*%
%TO.N,unconnected-(IC101-PGO-Pad5)*%
X2475000Y-1905000D03*
%TO.P,IC101,6,SDA*%
%TO.N,/SDA*%
X2475000Y-635000D03*
%TO.P,IC101,7,SCL*%
%TO.N,/SCL*%
X2475000Y635000D03*
%TO.P,IC101,8,DIR*%
%TO.N,Net-(IC101-DIR)*%
X2475000Y1905000D03*
%TD*%
D11*
%TO.P,R101,1*%
%TO.N,Net-(D101-K)*%
X2202500Y12000000D03*
%TO.P,R101,2*%
%TO.N,GND*%
X3222500Y12000000D03*
%TD*%
D12*
%TO.P,J101,1,Pin_1*%
%TO.N,/SCL*%
X-1500000Y-9948500D03*
%TO.P,J101,2,Pin_2*%
%TO.N,/SDA*%
X-499999Y-9948500D03*
%TO.P,J101,3,Pin_3*%
%TO.N,+3.3V*%
X499999Y-9948500D03*
%TO.P,J101,4,Pin_4*%
%TO.N,GND*%
X1500000Y-9948500D03*
D13*
%TO.P,J101,5*%
%TO.N,N/C*%
X-2799999Y-13773499D03*
%TO.P,J101,6*%
X2799999Y-13773499D03*
%TD*%
D11*
%TO.P,R104,1*%
%TO.N,+3.3V*%
X-2260000Y-4500000D03*
%TO.P,R104,2*%
%TO.N,/SCL*%
X-1240000Y-4500000D03*
%TD*%
D14*
%TO.P,C101,1*%
%TO.N,+3.3V*%
X-4800000Y2000000D03*
%TO.P,C101,2*%
%TO.N,GND*%
X-6700000Y2000000D03*
%TD*%
D15*
%TO.P,D101,1,K*%
%TO.N,Net-(D101-K)*%
X787500Y12000000D03*
%TO.P,D101,2,A*%
%TO.N,+3.3V*%
X-787500Y12000000D03*
%TD*%
D16*
%TO.P,R102,1*%
%TO.N,+3.3V*%
X5510000Y2000000D03*
%TO.P,R102,2*%
%TO.N,Net-(IC101-DIR)*%
X4490000Y2000000D03*
%TD*%
D17*
%TO.P,JP101,1,A*%
%TO.N,GND*%
X2500000Y5900000D03*
D18*
%TO.P,JP101,2,B*%
%TO.N,Net-(IC101-DIR)*%
X2500000Y4600000D03*
%TD*%
D16*
%TO.P,R103,1*%
%TO.N,+3.3V*%
X1510000Y-4500000D03*
%TO.P,R103,2*%
%TO.N,/SDA*%
X490000Y-4500000D03*
%TD*%
D19*
%TO.P,C102,1*%
%TO.N,+3.3V*%
X-4520000Y250000D03*
%TO.P,C102,2*%
%TO.N,GND*%
X-5480000Y250000D03*
%TD*%
D20*
%TO.N,GND*%
X1500000Y-8750000D03*
X3962500Y12000000D03*
X-6500000Y250000D03*
X-8000000Y2000000D03*
X-4250000Y-2000000D03*
X2500000Y7250000D03*
%TD*%
D21*
%TO.N,/SDA*%
X1500001Y-635000D02*
X2475000Y-635000D01*
X490000Y-1645001D02*
X1500001Y-635000D01*
X490000Y-4500000D02*
X490000Y-1645001D01*
X-499999Y-9948500D02*
X-499999Y-5489999D01*
X-499999Y-5489999D02*
X490000Y-4500000D01*
%TO.N,/SCL*%
X-1240000Y-9688500D02*
X-1500000Y-9948500D01*
X-1240000Y-4500000D02*
X-1240000Y-9688500D01*
X-1240000Y-2286968D02*
X-1240000Y-4500000D01*
X1681968Y635000D02*
X-1240000Y-2286968D01*
X2475000Y635000D02*
X1681968Y635000D01*
%TO.N,GND*%
X1500000Y-9948500D02*
X1500000Y-8750000D01*
X-6700000Y2000000D02*
X-8000000Y2000000D01*
X-4155000Y-1905000D02*
X-4250000Y-2000000D01*
X2500000Y5900000D02*
X2500000Y7250000D01*
X3222500Y12000000D02*
X3962500Y12000000D01*
X-5480000Y250000D02*
X-6500000Y250000D01*
X-2475000Y-1905000D02*
X-4155000Y-1905000D01*
%TO.N,Net-(IC101-DIR)*%
X4395000Y1905000D02*
X4490000Y2000000D01*
X2500000Y1930000D02*
X2475000Y1905000D01*
X2475000Y1905000D02*
X4395000Y1905000D01*
X2500000Y4600000D02*
X2500000Y1930000D01*
%TO.N,Net-(D101-K)*%
X787500Y12000000D02*
X2202500Y12000000D01*
%TD*%
%TA.AperFunction,Conductor*%
%TO.N,+3.3V*%
G36*
X12003472Y14749305D02*
G01*
X12300893Y14732602D01*
X12314711Y14731045D01*
X12604953Y14681730D01*
X12618510Y14678636D01*
X12901413Y14597133D01*
X12914537Y14592540D01*
X13186527Y14479879D01*
X13199056Y14473846D01*
X13456726Y14331436D01*
X13468500Y14324038D01*
X13708604Y14153676D01*
X13719476Y14145006D01*
X13938997Y13948830D01*
X13948830Y13938997D01*
X14145006Y13719476D01*
X14153676Y13708604D01*
X14324038Y13468500D01*
X14331436Y13456726D01*
X14473846Y13199056D01*
X14479879Y13186527D01*
X14592540Y12914537D01*
X14597133Y12901413D01*
X14678636Y12618510D01*
X14681730Y12604953D01*
X14731045Y12314711D01*
X14732602Y12300893D01*
X14749305Y12003472D01*
X14749500Y11996519D01*
X14749500Y-11996519D01*
X14749305Y-12003472D01*
X14732602Y-12300893D01*
X14731045Y-12314711D01*
X14681730Y-12604953D01*
X14678636Y-12618510D01*
X14597133Y-12901413D01*
X14592540Y-12914537D01*
X14479879Y-13186527D01*
X14473846Y-13199056D01*
X14331436Y-13456726D01*
X14324038Y-13468500D01*
X14153676Y-13708604D01*
X14145006Y-13719476D01*
X13948830Y-13938997D01*
X13938997Y-13948830D01*
X13719476Y-14145006D01*
X13708604Y-14153676D01*
X13468500Y-14324038D01*
X13456726Y-14331436D01*
X13199056Y-14473846D01*
X13186527Y-14479879D01*
X12914537Y-14592540D01*
X12901413Y-14597133D01*
X12618510Y-14678636D01*
X12604953Y-14681730D01*
X12314711Y-14731045D01*
X12300893Y-14732602D01*
X12003472Y-14749305D01*
X11996519Y-14749500D01*
X3771399Y-14749500D01*
X3704360Y-14729815D01*
X3658605Y-14677011D01*
X3647399Y-14625500D01*
X3647399Y-12847122D01*
X3647398Y-12847120D01*
X3632866Y-12774063D01*
X3632865Y-12774059D01*
X3577500Y-12691198D01*
X3494639Y-12635833D01*
X3494638Y-12635832D01*
X3494634Y-12635831D01*
X3421576Y-12621299D01*
X3421573Y-12621299D01*
X2178425Y-12621299D01*
X2178422Y-12621299D01*
X2105363Y-12635831D01*
X2105359Y-12635832D01*
X2022498Y-12691198D01*
X1967132Y-12774059D01*
X1967131Y-12774063D01*
X1952599Y-12847120D01*
X1952599Y-14625500D01*
X1932914Y-14692539D01*
X1880110Y-14738294D01*
X1828599Y-14749500D01*
X-1828599Y-14749500D01*
X-1895638Y-14729815D01*
X-1941393Y-14677011D01*
X-1952599Y-14625500D01*
X-1952599Y-12847120D01*
X-1967131Y-12774063D01*
X-1967132Y-12774059D01*
X-2022498Y-12691198D01*
X-2105359Y-12635832D01*
X-2105363Y-12635831D01*
X-2178422Y-12621299D01*
X-2178425Y-12621299D01*
X-3421573Y-12621299D01*
X-3421576Y-12621299D01*
X-3494634Y-12635831D01*
X-3494638Y-12635832D01*
X-3494639Y-12635833D01*
X-3577500Y-12691198D01*
X-3632865Y-12774059D01*
X-3632866Y-12774063D01*
X-3647398Y-12847120D01*
X-3647399Y-12847122D01*
X-3647399Y-14625500D01*
X-3667084Y-14692539D01*
X-3719888Y-14738294D01*
X-3771399Y-14749500D01*
X-11996519Y-14749500D01*
X-12003472Y-14749305D01*
X-12300893Y-14732602D01*
X-12314711Y-14731045D01*
X-12604953Y-14681730D01*
X-12618510Y-14678636D01*
X-12901413Y-14597133D01*
X-12914537Y-14592540D01*
X-13186527Y-14479879D01*
X-13199056Y-14473846D01*
X-13456732Y-14331433D01*
X-13468506Y-14324035D01*
X-13500118Y-14301605D01*
X-13708605Y-14153674D01*
X-13719471Y-14145010D01*
X-13938997Y-13948830D01*
X-13948830Y-13938997D01*
X-14145010Y-13719471D01*
X-14153676Y-13708604D01*
X-14324039Y-13468500D01*
X-14331433Y-13456732D01*
X-14473846Y-13199056D01*
X-14479879Y-13186527D01*
X-14592540Y-12914537D01*
X-14597133Y-12901413D01*
X-14678636Y-12618510D01*
X-14681730Y-12604953D01*
X-14731045Y-12314711D01*
X-14732602Y-12300893D01*
X-14749305Y-12003472D01*
X-14749500Y-11996519D01*
X-14749500Y-11895038D01*
X-13621500Y-11895038D01*
X-13621500Y-12146962D01*
X-13582090Y-12395785D01*
X-13504241Y-12635379D01*
X-13389870Y-12859845D01*
X-13241793Y-13063656D01*
X-13063656Y-13241793D01*
X-12859845Y-13389870D01*
X-12635379Y-13504241D01*
X-12395785Y-13582090D01*
X-12146962Y-13621500D01*
X-12146961Y-13621500D01*
X-11895039Y-13621500D01*
X-11895038Y-13621500D01*
X-11646215Y-13582090D01*
X-11406621Y-13504241D01*
X-11406618Y-13504239D01*
X-11406616Y-13504239D01*
X-11313379Y-13456732D01*
X-11182155Y-13389870D01*
X-11156117Y-13370952D01*
X-10978350Y-13241798D01*
X-10978345Y-13241794D01*
X-10800205Y-13063654D01*
X-10800201Y-13063649D01*
X-10652132Y-12859848D01*
X-10645647Y-12847122D01*
X-10566200Y-12691198D01*
X-10537760Y-12635383D01*
X-10459910Y-12395785D01*
X-10445982Y-12307846D01*
X-10420500Y-12146962D01*
X-10420500Y-11895038D01*
X10420500Y-11895038D01*
X10420500Y-12146962D01*
X10445982Y-12307846D01*
X10459910Y-12395785D01*
X10537760Y-12635383D01*
X10566200Y-12691198D01*
X10645647Y-12847122D01*
X10652132Y-12859848D01*
X10800201Y-13063649D01*
X10800205Y-13063654D01*
X10978345Y-13241794D01*
X10978350Y-13241798D01*
X11156117Y-13370952D01*
X11182155Y-13389870D01*
X11313379Y-13456732D01*
X11406616Y-13504239D01*
X11406618Y-13504239D01*
X11406621Y-13504241D01*
X11646215Y-13582090D01*
X11895038Y-13621500D01*
X11895039Y-13621500D01*
X12146961Y-13621500D01*
X12146962Y-13621500D01*
X12395785Y-13582090D01*
X12635379Y-13504241D01*
X12859845Y-13389870D01*
X13063656Y-13241793D01*
X13241793Y-13063656D01*
X13389870Y-12859845D01*
X13504241Y-12635379D01*
X13582090Y-12395785D01*
X13621500Y-12146962D01*
X13621500Y-11895038D01*
X13582090Y-11646215D01*
X13504241Y-11406621D01*
X13504239Y-11406618D01*
X13504239Y-11406616D01*
X13410783Y-11223200D01*
X13389870Y-11182155D01*
X13370952Y-11156117D01*
X13241798Y-10978350D01*
X13241794Y-10978345D01*
X13063654Y-10800205D01*
X13063649Y-10800201D01*
X12859848Y-10652132D01*
X12859847Y-10652131D01*
X12859845Y-10652130D01*
X12789747Y-10616413D01*
X12635383Y-10537760D01*
X12395785Y-10459910D01*
X12146962Y-10420500D01*
X11895038Y-10420500D01*
X11770626Y-10440205D01*
X11646214Y-10459910D01*
X11406616Y-10537760D01*
X11182151Y-10652132D01*
X10978350Y-10800201D01*
X10978345Y-10800205D01*
X10800205Y-10978345D01*
X10800201Y-10978350D01*
X10652132Y-11182151D01*
X10537760Y-11406616D01*
X10459910Y-11646214D01*
X10459910Y-11646215D01*
X10420500Y-11895038D01*
X-10420500Y-11895038D01*
X-10459910Y-11646215D01*
X-10459910Y-11646214D01*
X-10537760Y-11406616D01*
X-10652132Y-11182151D01*
X-10800201Y-10978350D01*
X-10800205Y-10978345D01*
X-10978345Y-10800205D01*
X-10978350Y-10800201D01*
X-11182151Y-10652132D01*
X-11406616Y-10537760D01*
X-11646214Y-10459910D01*
X-11770626Y-10440205D01*
X-11895038Y-10420500D01*
X-12146962Y-10420500D01*
X-12395785Y-10459910D01*
X-12635383Y-10537760D01*
X-12789747Y-10616413D01*
X-12859845Y-10652130D01*
X-12859847Y-10652131D01*
X-12859848Y-10652132D01*
X-13063649Y-10800201D01*
X-13063654Y-10800205D01*
X-13241794Y-10978345D01*
X-13241798Y-10978350D01*
X-13370952Y-11156117D01*
X-13389870Y-11182155D01*
X-13410783Y-11223200D01*
X-13504239Y-11406616D01*
X-13504239Y-11406618D01*
X-13504241Y-11406621D01*
X-13582090Y-11646215D01*
X-13621500Y-11895038D01*
X-14749500Y-11895038D01*
X-14749500Y-4750000D01*
X-3029931Y-4750000D01*
X-3027167Y-4785122D01*
X-3027166Y-4785128D01*
X-2982407Y-4939188D01*
X-2982406Y-4939191D01*
X-2900738Y-5077285D01*
X-2900731Y-5077294D01*
X-2787294Y-5190731D01*
X-2787285Y-5190738D01*
X-2649194Y-5272404D01*
X-2510000Y-5312843D01*
X-2510000Y-4750000D01*
X-3029931Y-4750000D01*
X-14749500Y-4750000D01*
X-14749500Y-4250000D01*
X-3029931Y-4250000D01*
X-2510000Y-4250000D01*
X-2510000Y-3687154D01*
X-2510001Y-3687153D01*
X-2649188Y-3727591D01*
X-2649191Y-3727593D01*
X-2787285Y-3809261D01*
X-2787294Y-3809268D01*
X-2900731Y-3922705D01*
X-2900738Y-3922714D01*
X-2982406Y-4060808D01*
X-2982407Y-4060811D01*
X-3027166Y-4214871D01*
X-3027167Y-4214877D01*
X-3029931Y-4250000D01*
X-14749500Y-4250000D01*
X-14749500Y2072475D01*
X-8550500Y2072475D01*
X-8550500Y1927525D01*
X-8512984Y1787515D01*
X-8512982Y1787512D01*
X-8512982Y1787511D01*
X-8440511Y1661988D01*
X-8440509Y1661985D01*
X-8440506Y1661982D01*
X-8338017Y1559493D01*
X-8338011Y1559488D01*
X-8212488Y1487017D01*
X-8212489Y1487017D01*
X-8212485Y1487016D01*
X-8072475Y1449500D01*
X-8072472Y1449500D01*
X-7927528Y1449500D01*
X-7927525Y1449500D01*
X-7787515Y1487016D01*
X-7787511Y1487017D01*
X-7661988Y1559488D01*
X-7655539Y1564438D01*
X-7654747Y1563406D01*
X-7600734Y1592895D01*
X-7531043Y1587904D01*
X-7475113Y1546028D01*
X-7450702Y1480561D01*
X-7450563Y1478339D01*
X-7450499Y1477149D01*
X-7450499Y1477128D01*
X-7450497Y1477112D01*
X-7444091Y1417516D01*
X-7393797Y1282671D01*
X-7393793Y1282664D01*
X-7307547Y1167455D01*
X-7307544Y1167452D01*
X-7192335Y1081206D01*
X-7192328Y1081202D01*
X-7057486Y1030910D01*
X-7057483Y1030909D01*
X-6997873Y1024500D01*
X-6997864Y1024500D01*
X-6678365Y1024500D01*
X-6611326Y1004815D01*
X-6565571Y952011D01*
X-6555627Y882853D01*
X-6584652Y819297D01*
X-6643430Y781523D01*
X-6646199Y780745D01*
X-6712485Y762984D01*
X-6838015Y690509D01*
X-6940509Y588015D01*
X-7012984Y462485D01*
X-7050500Y322475D01*
X-7050500Y177525D01*
X-7012984Y37515D01*
X-6940509Y-88015D01*
X-6838015Y-190509D01*
X-6712488Y-262982D01*
X-6712487Y-262982D01*
X-6712485Y-262984D01*
X-6572475Y-300500D01*
X-6572472Y-300500D01*
X-6427528Y-300500D01*
X-6427525Y-300500D01*
X-6287515Y-262984D01*
X-6287512Y-262982D01*
X-6287511Y-262982D01*
X-6161988Y-190511D01*
X-6161986Y-190510D01*
X-6161985Y-190509D01*
X-6119544Y-148068D01*
X-6058221Y-114583D01*
X-5988529Y-119567D01*
X-5944181Y-148068D01*
X-5939860Y-152388D01*
X-5939859Y-152391D01*
X-5852391Y-239859D01*
X-5742175Y-296017D01*
X-5742172Y-296017D01*
X-5742171Y-296018D01*
X-5717650Y-299901D01*
X-5650735Y-310500D01*
X-5309266Y-310499D01*
X-5309262Y-310499D01*
X-5273830Y-304886D01*
X-5255413Y-301970D01*
X-5186121Y-310924D01*
X-5148334Y-336762D01*
X-5055379Y-429717D01*
X-5055374Y-429721D01*
X-4916195Y-512031D01*
X-4770000Y-554503D01*
X-4770000Y126000D01*
X-4750315Y193039D01*
X-4697511Y238794D01*
X-4646000Y250000D01*
X-4394000Y250000D01*
X-4326961Y230315D01*
X-4281206Y177511D01*
X-4270000Y126000D01*
X-4270000Y-554504D01*
X-4123804Y-512031D01*
X-3984625Y-429721D01*
X-3984616Y-429714D01*
X-3911869Y-356967D01*
X-3850546Y-323482D01*
X-3780854Y-328466D01*
X-3724921Y-370338D01*
X-3700504Y-435802D01*
X-3700550Y-448609D01*
X-3700500Y-448609D01*
X-3700499Y-453480D01*
X-3700500Y-453481D01*
X-3700499Y-816518D01*
X-3685646Y-910304D01*
X-3628050Y-1023342D01*
X-3538342Y-1113050D01*
X-3447145Y-1159516D01*
X-3396352Y-1207490D01*
X-3379557Y-1275311D01*
X-3402094Y-1341445D01*
X-3447145Y-1380482D01*
X-3538342Y-1426950D01*
X-3538343Y-1426951D01*
X-3538347Y-1426954D01*
X-3629574Y-1518181D01*
X-3656501Y-1532884D01*
X-3682320Y-1549477D01*
X-3688520Y-1550368D01*
X-3690897Y-1551666D01*
X-3717255Y-1554500D01*
X-3887404Y-1554500D01*
X-3949403Y-1537887D01*
X-4037515Y-1487016D01*
X-4177525Y-1449500D01*
X-4322475Y-1449500D01*
X-4462485Y-1487016D01*
X-4462488Y-1487017D01*
X-4588011Y-1559488D01*
X-4588017Y-1559493D01*
X-4690506Y-1661982D01*
X-4690511Y-1661988D01*
X-4726014Y-1723482D01*
X-4762984Y-1787515D01*
X-4800500Y-1927525D01*
X-4800500Y-2072475D01*
X-4762984Y-2212485D01*
X-4690509Y-2338015D01*
X-4588015Y-2440509D01*
X-4462488Y-2512982D01*
X-4462487Y-2512982D01*
X-4462485Y-2512984D01*
X-4322475Y-2550500D01*
X-4322472Y-2550500D01*
X-4177528Y-2550500D01*
X-4177525Y-2550500D01*
X-4037515Y-2512984D01*
X-4037512Y-2512982D01*
X-4037511Y-2512982D01*
X-3911988Y-2440511D01*
X-3911986Y-2440510D01*
X-3911985Y-2440509D01*
X-3809491Y-2338015D01*
X-3807522Y-2334605D01*
X-3805110Y-2332306D01*
X-3804545Y-2331569D01*
X-3804429Y-2331657D01*
X-3756952Y-2286394D01*
X-3688344Y-2273176D01*
X-3623481Y-2299149D01*
X-3612466Y-2308925D01*
X-3538342Y-2383050D01*
X-3425304Y-2440646D01*
X-3425302Y-2440646D01*
X-3425301Y-2440647D01*
X-3359508Y-2451067D01*
X-3331519Y-2455500D01*
X-1714499Y-2455499D01*
X-1647461Y-2475184D01*
X-1601706Y-2527987D01*
X-1590500Y-2579499D01*
X-1590500Y-3675972D01*
X-1610185Y-3743011D01*
X-1662989Y-3788766D01*
X-1732147Y-3798710D01*
X-1777621Y-3782704D01*
X-1870808Y-3727593D01*
X-1870811Y-3727591D01*
X-2009998Y-3687153D01*
X-2010000Y-3687154D01*
X-2010000Y-5312844D01*
X-1870807Y-5272405D01*
X-1777622Y-5217295D01*
X-1709898Y-5200112D01*
X-1643635Y-5222272D01*
X-1599872Y-5276737D01*
X-1590500Y-5324027D01*
X-1590500Y-8799300D01*
X-1610185Y-8866339D01*
X-1662989Y-8912094D01*
X-1714500Y-8923300D01*
X-1829477Y-8923300D01*
X-1902535Y-8937832D01*
X-1902539Y-8937833D01*
X-1902540Y-8937834D01*
X-1985401Y-8993199D01*
X-2030427Y-9060587D01*
X-2040766Y-9076060D01*
X-2040767Y-9076064D01*
X-2055299Y-9149121D01*
X-2055300Y-9149123D01*
X-2055300Y-9149126D01*
X-2055300Y-10747874D01*
X-2040766Y-10820940D01*
X-1985401Y-10903801D01*
X-1902540Y-10959166D01*
X-1829477Y-10973699D01*
X-1829476Y-10973700D01*
X-1829474Y-10973700D01*
X-1170524Y-10973700D01*
X-1170521Y-10973699D01*
X-1097464Y-10959167D01*
X-1097462Y-10959166D01*
X-1097460Y-10959166D01*
X-1068888Y-10940075D01*
X-1002213Y-10919198D01*
X-934832Y-10937682D01*
X-931138Y-10940056D01*
X-902539Y-10959166D01*
X-829476Y-10973699D01*
X-829475Y-10973700D01*
X-303927Y-10973700D01*
X-236888Y-10993385D01*
X-204660Y-11023389D01*
X-161991Y-11080386D01*
X-161986Y-11080391D01*
X-46894Y-11166550D01*
X-46887Y-11166554D01*
X87819Y-11216796D01*
X87826Y-11216798D01*
X147354Y-11223199D01*
X147371Y-11223200D01*
X249999Y-11223200D01*
X249999Y-8713236D01*
X749999Y-8713236D01*
X749999Y-11223200D01*
X852627Y-11223200D01*
X852643Y-11223199D01*
X912171Y-11216798D01*
X912178Y-11216796D01*
X1046885Y-11166554D01*
X1046892Y-11166550D01*
X1161984Y-11080391D01*
X1161989Y-11080386D01*
X1204658Y-11023389D01*
X1260592Y-10981518D01*
X1303925Y-10973700D01*
X1829476Y-10973700D01*
X1829477Y-10973699D01*
X1902540Y-10959166D01*
X1985401Y-10903801D01*
X2040766Y-10820940D01*
X2055300Y-10747874D01*
X2055300Y-9149126D01*
X2055300Y-9149123D01*
X2040766Y-9076059D01*
X2030428Y-9060587D01*
X2009550Y-8993910D01*
X2013753Y-8959611D01*
X2050500Y-8822475D01*
X2050500Y-8677525D01*
X2012984Y-8537515D01*
X1940509Y-8411985D01*
X1838015Y-8309491D01*
X1838013Y-8309490D01*
X1838011Y-8309488D01*
X1712488Y-8237017D01*
X1712489Y-8237017D01*
X1701006Y-8233940D01*
X1572475Y-8199500D01*
X1427525Y-8199500D01*
X1298993Y-8233940D01*
X1287511Y-8237017D01*
X1161988Y-8309488D01*
X1161982Y-8309493D01*
X1059493Y-8411982D01*
X1059488Y-8411988D01*
X987017Y-8537511D01*
X975125Y-8581894D01*
X970326Y-8589766D01*
X969207Y-8598918D01*
X952428Y-8619128D01*
X938759Y-8641554D01*
X930467Y-8645581D01*
X924577Y-8652677D01*
X892789Y-8668013D01*
X749999Y-8713236D01*
X249999Y-8713236D01*
X249999Y-8673800D01*
X147354Y-8673800D01*
X87826Y-8680201D01*
X87819Y-8680203D01*
X17834Y-8706306D01*
X-51858Y-8711290D01*
X-113181Y-8677805D01*
X-146665Y-8616482D01*
X-149499Y-8590124D01*
X-149499Y-5686543D01*
X-129814Y-5619504D01*
X-113180Y-5598862D01*
X378863Y-5106819D01*
X440186Y-5073334D01*
X466544Y-5070500D01*
X661577Y-5070500D01*
X661582Y-5070500D01*
X736518Y-5059582D01*
X736521Y-5059580D01*
X736524Y-5059580D01*
X745721Y-5056739D01*
X746307Y-5058637D01*
X803095Y-5048931D01*
X867397Y-5076262D01*
X876386Y-5084412D01*
X982705Y-5190731D01*
X982714Y-5190738D01*
X1120805Y-5272404D01*
X1260000Y-5312844D01*
X1260000Y-5312843D01*
X1760000Y-5312843D01*
X1899194Y-5272404D01*
X2037285Y-5190738D01*
X2037294Y-5190731D01*
X2150731Y-5077294D01*
X2150738Y-5077285D01*
X2232406Y-4939191D01*
X2232407Y-4939188D01*
X2277166Y-4785128D01*
X2277167Y-4785122D01*
X2279931Y-4750000D01*
X1760000Y-4750000D01*
X1760000Y-5312843D01*
X1260000Y-5312843D01*
X1260000Y-3687154D01*
X1760000Y-3687154D01*
X1760000Y-4250000D01*
X2279931Y-4250000D01*
X2277167Y-4214877D01*
X2277166Y-4214871D01*
X2232407Y-4060811D01*
X2232406Y-4060808D01*
X2150738Y-3922714D01*
X2150731Y-3922705D01*
X2037294Y-3809268D01*
X2037285Y-3809261D01*
X1899191Y-3727593D01*
X1899188Y-3727591D01*
X1760001Y-3687153D01*
X1760000Y-3687154D01*
X1260000Y-3687154D01*
X1259998Y-3687153D01*
X1120811Y-3727591D01*
X1120808Y-3727593D01*
X1027621Y-3782704D01*
X959897Y-3799887D01*
X893634Y-3777727D01*
X849871Y-3723261D01*
X840500Y-3675972D01*
X840500Y-1841544D01*
X860185Y-1774505D01*
X876815Y-1753867D01*
X1044063Y-1586619D01*
X1105385Y-1553135D01*
X1175077Y-1558119D01*
X1231010Y-1599991D01*
X1255427Y-1665455D01*
X1254216Y-1693698D01*
X1249500Y-1723474D01*
X1249500Y-2086517D01*
X1260292Y-2154657D01*
X1264354Y-2180304D01*
X1321950Y-2293342D01*
X1321952Y-2293344D01*
X1321954Y-2293347D01*
X1411652Y-2383045D01*
X1411654Y-2383046D01*
X1411658Y-2383050D01*
X1508022Y-2432150D01*
X1524698Y-2440647D01*
X1618475Y-2455499D01*
X1618481Y-2455500D01*
X3331518Y-2455499D01*
X3425304Y-2440646D01*
X3538342Y-2383050D01*
X3628050Y-2293342D01*
X3685646Y-2180304D01*
X3685646Y-2180302D01*
X3685647Y-2180301D01*
X3700499Y-2086524D01*
X3700500Y-2086519D01*
X3700499Y-1723482D01*
X3685646Y-1629696D01*
X3628050Y-1516658D01*
X3628046Y-1516654D01*
X3628045Y-1516652D01*
X3538347Y-1426954D01*
X3538343Y-1426951D01*
X3538342Y-1426950D01*
X3535599Y-1425552D01*
X3447147Y-1380483D01*
X3396352Y-1332509D01*
X3379557Y-1264687D01*
X3402095Y-1198553D01*
X3447145Y-1159517D01*
X3538342Y-1113050D01*
X3628050Y-1023342D01*
X3685646Y-910304D01*
X3685646Y-910302D01*
X3685647Y-910301D01*
X3700499Y-816524D01*
X3700500Y-816519D01*
X3700499Y-453482D01*
X3685646Y-359696D01*
X3628050Y-246658D01*
X3628046Y-246654D01*
X3628045Y-246652D01*
X3538347Y-156954D01*
X3538343Y-156951D01*
X3538342Y-156950D01*
X3447145Y-110483D01*
X3396352Y-62510D01*
X3379557Y5311D01*
X3402094Y71445D01*
X3447145Y110482D01*
X3538342Y156950D01*
X3538343Y156951D01*
X3538347Y156954D01*
X3628045Y246652D01*
X3628046Y246654D01*
X3628050Y246658D01*
X3685646Y359696D01*
X3685647Y359698D01*
X3700499Y453475D01*
X3700500Y453481D01*
X3700499Y816518D01*
X3685646Y910304D01*
X3628050Y1023342D01*
X3538342Y1113050D01*
X3447145Y1159516D01*
X3396352Y1207490D01*
X3379557Y1275311D01*
X3402094Y1341445D01*
X3447146Y1380483D01*
X3538342Y1426950D01*
X3538343Y1426951D01*
X3538347Y1426954D01*
X3629574Y1518181D01*
X3690897Y1551666D01*
X3717255Y1554500D01*
X4018959Y1554500D01*
X4085998Y1534815D01*
X4106640Y1518181D01*
X4127897Y1496923D01*
X4127900Y1496921D01*
X4243478Y1440419D01*
X4243480Y1440418D01*
X4243482Y1440418D01*
X4318418Y1429500D01*
X4318423Y1429500D01*
X4661577Y1429500D01*
X4661582Y1429500D01*
X4736518Y1440418D01*
X4736523Y1440419D01*
X4745720Y1443261D01*
X4746305Y1441367D01*
X4803127Y1451065D01*
X4867422Y1423717D01*
X4876387Y1415587D01*
X4982705Y1309268D01*
X4982714Y1309261D01*
X5120808Y1227593D01*
X5120811Y1227591D01*
X5259998Y1187153D01*
X5260000Y1187154D01*
X5760000Y1187154D01*
X5760001Y1187153D01*
X5899188Y1227591D01*
X5899191Y1227593D01*
X6037285Y1309261D01*
X6037294Y1309268D01*
X6150731Y1422705D01*
X6150738Y1422714D01*
X6232406Y1560808D01*
X6232407Y1560811D01*
X6277166Y1714871D01*
X6277167Y1714877D01*
X6279931Y1750000D01*
X5760000Y1750000D01*
X5760000Y1187154D01*
X5260000Y1187154D01*
X5260000Y2250000D01*
X5760000Y2250000D01*
X6279931Y2250000D01*
X6277167Y2285122D01*
X6277166Y2285128D01*
X6232407Y2439188D01*
X6232406Y2439191D01*
X6150738Y2577285D01*
X6150731Y2577294D01*
X6037294Y2690731D01*
X6037285Y2690738D01*
X5899194Y2772404D01*
X5760000Y2812843D01*
X5760000Y2250000D01*
X5260000Y2250000D01*
X5260000Y2812844D01*
X5120805Y2772404D01*
X4982714Y2690738D01*
X4982705Y2690731D01*
X4876386Y2584412D01*
X4815063Y2550927D01*
X4745371Y2555911D01*
X4737628Y2559239D01*
X4736524Y2559580D01*
X4736521Y2559580D01*
X4736518Y2559582D01*
X4661582Y2570500D01*
X4318418Y2570500D01*
X4243482Y2559582D01*
X4243478Y2559580D01*
X4127900Y2503078D01*
X4127897Y2503076D01*
X4036924Y2412103D01*
X3994362Y2325040D01*
X3983415Y2313059D01*
X3976674Y2298297D01*
X3960333Y2287795D01*
X3947234Y2273458D01*
X3930938Y2268905D01*
X3917896Y2260523D01*
X3882961Y2255500D01*
X3717255Y2255500D01*
X3650216Y2275185D01*
X3629574Y2291819D01*
X3538347Y2383045D01*
X3538342Y2383050D01*
X3425304Y2440646D01*
X3425302Y2440646D01*
X3425301Y2440647D01*
X3358147Y2451282D01*
X3331519Y2455500D01*
X2974499Y2455499D01*
X2907461Y2475183D01*
X2861706Y2527987D01*
X2850500Y2579499D01*
X2850500Y3749629D01*
X2870185Y3816668D01*
X2922989Y3862423D01*
X2942400Y3869402D01*
X2978652Y3879116D01*
X3009128Y3887282D01*
X3070734Y3912800D01*
X3070750Y3912808D01*
X3184749Y3978626D01*
X3184752Y3978628D01*
X3184757Y3978631D01*
X3184765Y3978637D01*
X3237671Y4019233D01*
X3237678Y4019239D01*
X3330760Y4112321D01*
X3330766Y4112328D01*
X3371362Y4165234D01*
X3371369Y4165243D01*
X3375505Y4172406D01*
X3437191Y4279249D01*
X3437199Y4279265D01*
X3462717Y4340873D01*
X3462719Y4340877D01*
X3496794Y4468044D01*
X3505500Y4534174D01*
X3505500Y5100000D01*
X3486051Y5197776D01*
X3486047Y5197781D01*
X3484077Y5202540D01*
X3476604Y5272009D01*
X3484077Y5297460D01*
X3486048Y5302219D01*
X3486051Y5302224D01*
X3505499Y5399995D01*
X3505500Y5399997D01*
X3505500Y5965826D01*
X3496794Y6031956D01*
X3462719Y6159123D01*
X3437195Y6220743D01*
X3371369Y6334757D01*
X3330765Y6387673D01*
X3237673Y6480765D01*
X3184757Y6521369D01*
X3070743Y6587195D01*
X3070737Y6587197D01*
X3070734Y6587199D01*
X3051195Y6595292D01*
X3009123Y6612719D01*
X2942404Y6630596D01*
X2918629Y6645088D01*
X2893297Y6656657D01*
X2889206Y6663022D01*
X2882746Y6666960D01*
X2870577Y6692009D01*
X2855523Y6715435D01*
X2853977Y6726181D01*
X2852217Y6729806D01*
X2850500Y6750370D01*
X2850500Y6770614D01*
X2870185Y6837653D01*
X2886819Y6858295D01*
X2940506Y6911982D01*
X2940509Y6911985D01*
X3012984Y7037515D01*
X3050500Y7177525D01*
X3050500Y7322475D01*
X3012984Y7462485D01*
X2940509Y7588015D01*
X2838015Y7690509D01*
X2712488Y7762982D01*
X2712487Y7762982D01*
X2712485Y7762984D01*
X2572475Y7800500D01*
X2427525Y7800500D01*
X2287515Y7762984D01*
X2287512Y7762982D01*
X2287511Y7762982D01*
X2161988Y7690511D01*
X2161985Y7690509D01*
X2161982Y7690506D01*
X2059493Y7588017D01*
X2059488Y7588011D01*
X1987017Y7462488D01*
X1987016Y7462485D01*
X1949500Y7322475D01*
X1949500Y7177525D01*
X1982583Y7054055D01*
X1987017Y7037511D01*
X2059488Y6911988D01*
X2059493Y6911982D01*
X2113181Y6858295D01*
X2127884Y6831367D01*
X2144477Y6805549D01*
X2145368Y6799348D01*
X2146666Y6796972D01*
X2149500Y6770614D01*
X2149500Y6750370D01*
X2129815Y6683331D01*
X2077011Y6637576D01*
X2057602Y6630598D01*
X1990877Y6612719D01*
X1990875Y6612718D01*
X1990874Y6612718D01*
X1929265Y6587199D01*
X1929249Y6587191D01*
X1822406Y6525505D01*
X1815243Y6521369D01*
X1815234Y6521362D01*
X1762328Y6480766D01*
X1762321Y6480760D01*
X1669239Y6387678D01*
X1669235Y6387673D01*
X1628631Y6334757D01*
X1628628Y6334752D01*
X1628626Y6334749D01*
X1562808Y6220750D01*
X1562800Y6220734D01*
X1537282Y6159126D01*
X1503205Y6031952D01*
X1494500Y5965826D01*
X1494500Y5399995D01*
X1513947Y5302228D01*
X1515926Y5297452D01*
X1523394Y5227982D01*
X1515926Y5202548D01*
X1513947Y5197771D01*
X1494500Y5100004D01*
X1494500Y4534173D01*
X1503205Y4468047D01*
X1537282Y4340873D01*
X1562800Y4279265D01*
X1562808Y4279249D01*
X1628626Y4165250D01*
X1628637Y4165234D01*
X1669233Y4112328D01*
X1669239Y4112321D01*
X1762321Y4019239D01*
X1762328Y4019233D01*
X1815234Y3978637D01*
X1815250Y3978626D01*
X1929249Y3912808D01*
X1929265Y3912800D01*
X1990871Y3887282D01*
X2030946Y3876544D01*
X2057596Y3869403D01*
X2117255Y3833038D01*
X2147783Y3770191D01*
X2149500Y3749629D01*
X2149500Y2579499D01*
X2129815Y2512460D01*
X2077011Y2466705D01*
X2025500Y2455499D01*
X1618482Y2455499D01*
X1524696Y2440646D01*
X1411658Y2383050D01*
X1411654Y2383046D01*
X1411652Y2383045D01*
X1321954Y2293347D01*
X1321952Y2293344D01*
X1321950Y2293342D01*
X1299866Y2250000D01*
X1264352Y2180301D01*
X1249500Y2086524D01*
X1249500Y1723482D01*
X1260347Y1654998D01*
X1264354Y1629696D01*
X1312699Y1534815D01*
X1321951Y1516657D01*
X1321954Y1516652D01*
X1411652Y1426954D01*
X1411659Y1426949D01*
X1502852Y1380483D01*
X1553648Y1332508D01*
X1570442Y1264687D01*
X1547904Y1198552D01*
X1502852Y1159516D01*
X1411658Y1113050D01*
X1411656Y1113048D01*
X1411652Y1113045D01*
X1321954Y1023347D01*
X1321952Y1023344D01*
X1321950Y1023342D01*
X1287672Y956067D01*
X1264352Y910301D01*
X1249500Y816524D01*
X1249500Y749576D01*
X1229815Y682537D01*
X1213181Y661895D01*
X-1080908Y-1632194D01*
X-1142231Y-1665679D01*
X-1211923Y-1660695D01*
X-1267856Y-1618823D01*
X-1279069Y-1600814D01*
X-1321950Y-1516658D01*
X-1321951Y-1516657D01*
X-1321954Y-1516652D01*
X-1411652Y-1426954D01*
X-1411659Y-1426949D01*
X-1502852Y-1380483D01*
X-1553648Y-1332508D01*
X-1570442Y-1264687D01*
X-1547904Y-1198552D01*
X-1502852Y-1159516D01*
X-1411658Y-1113050D01*
X-1411655Y-1113047D01*
X-1411652Y-1113045D01*
X-1321954Y-1023347D01*
X-1321952Y-1023344D01*
X-1321950Y-1023342D01*
X-1264354Y-910304D01*
X-1264352Y-910301D01*
X-1249500Y-816524D01*
X-1249500Y-453482D01*
X-1264354Y-359697D01*
X-1264353Y-359697D01*
X-1264354Y-359696D01*
X-1321950Y-246658D01*
X-1321951Y-246657D01*
X-1327689Y-238759D01*
X-1324757Y-236629D01*
X-1349550Y-191171D01*
X-1344531Y-121482D01*
X-1302632Y-65569D01*
X-1291491Y-58140D01*
X-1248444Y-32682D01*
X-1248438Y-32678D01*
X-1132321Y83438D01*
X-1132314Y83447D01*
X-1048718Y224801D01*
X-1002899Y382513D01*
X-1002704Y384998D01*
X-1002705Y385000D01*
X-2351000Y385000D01*
X-2418039Y404685D01*
X-2463794Y457489D01*
X-2475000Y509000D01*
X-2475000Y635000D01*
X-2601000Y635000D01*
X-2668039Y654685D01*
X-2713794Y707489D01*
X-2725000Y759000D01*
X-2725000Y885000D01*
X-2225000Y885000D01*
X-1002705Y885000D01*
X-1002704Y885001D01*
X-1002899Y887486D01*
X-1048718Y1045198D01*
X-1132314Y1186552D01*
X-1137100Y1192722D01*
X-1134753Y1194542D01*
X-1161564Y1243642D01*
X-1156580Y1313334D01*
X-1135541Y1346069D01*
X-1137100Y1347278D01*
X-1132314Y1353447D01*
X-1048718Y1494801D01*
X-1002899Y1652513D01*
X-1002704Y1654998D01*
X-1002705Y1655000D01*
X-2225000Y1655000D01*
X-2225000Y885000D01*
X-2725000Y885000D01*
X-2725000Y1655000D01*
X-3956000Y1655000D01*
X-4023039Y1674685D01*
X-4068794Y1727489D01*
X-4071937Y1741937D01*
X-4080000Y1750000D01*
X-4676000Y1750000D01*
X-4743039Y1769685D01*
X-4788794Y1822489D01*
X-4800000Y1874000D01*
X-4800000Y2000000D01*
X-4926000Y2000000D01*
X-4993039Y2019685D01*
X-5038794Y2072489D01*
X-5050000Y2124000D01*
X-5050000Y3224998D01*
X-4550000Y3224998D01*
X-4550000Y2250000D01*
X-3794000Y2250000D01*
X-3726961Y2230315D01*
X-3681206Y2177511D01*
X-3678062Y2163062D01*
X-3670000Y2155000D01*
X-2725000Y2155000D01*
X-2225000Y2155000D01*
X-1002705Y2155000D01*
X-1002704Y2155001D01*
X-1002899Y2157486D01*
X-1048718Y2315198D01*
X-1132314Y2456552D01*
X-1132321Y2456561D01*
X-1248438Y2572678D01*
X-1248447Y2572685D01*
X-1389803Y2656282D01*
X-1389806Y2656283D01*
X-1547504Y2702099D01*
X-1547510Y2702100D01*
X-1584350Y2704999D01*
X-1584366Y2705000D01*
X-2225000Y2705000D01*
X-2225000Y2155000D01*
X-2725000Y2155000D01*
X-2725000Y2705000D01*
X-3365634Y2705000D01*
X-3365649Y2704999D01*
X-3402489Y2702100D01*
X-3402495Y2702099D01*
X-3560193Y2656283D01*
X-3560196Y2656282D01*
X-3644969Y2606148D01*
X-3712692Y2588965D01*
X-3778955Y2611125D01*
X-3822719Y2665591D01*
X-3825796Y2673875D01*
X-3865642Y2794121D01*
X-3865643Y2794124D01*
X-3957684Y2943345D01*
X-4081654Y3067315D01*
X-4230875Y3159356D01*
X-4230880Y3159358D01*
X-4397302Y3214505D01*
X-4397309Y3214506D01*
X-4500019Y3224999D01*
X-4550000Y3224998D01*
X-5050000Y3224998D01*
X-5050000Y3224999D01*
X-5099972Y3224999D01*
X-5099986Y3224998D01*
X-5202697Y3214505D01*
X-5369119Y3159358D01*
X-5369124Y3159356D01*
X-5518345Y3067315D01*
X-5642315Y2943345D01*
X-5734356Y2794124D01*
X-5734359Y2794117D01*
X-5764930Y2701860D01*
X-5804702Y2644415D01*
X-5869218Y2617591D01*
X-5937994Y2629906D01*
X-5989194Y2677448D01*
X-5998818Y2697529D01*
X-6006203Y2717329D01*
X-6006206Y2717335D01*
X-6092452Y2832544D01*
X-6092455Y2832547D01*
X-6207664Y2918793D01*
X-6207671Y2918797D01*
X-6252618Y2935561D01*
X-6342517Y2969091D01*
X-6402127Y2975500D01*
X-6997872Y2975499D01*
X-7057483Y2969091D01*
X-7192331Y2918796D01*
X-7307546Y2832546D01*
X-7393796Y2717331D01*
X-7444091Y2582483D01*
X-7450500Y2522873D01*
X-7450500Y2522859D01*
X-7450566Y2521638D01*
X-7450662Y2521365D01*
X-7450855Y2519572D01*
X-7451278Y2519617D01*
X-7473810Y2455748D01*
X-7528986Y2412885D01*
X-7598578Y2406656D01*
X-7655051Y2436196D01*
X-7655539Y2435562D01*
X-7659181Y2438357D01*
X-7660489Y2439041D01*
X-7661975Y2440500D01*
X-7661982Y2440506D01*
X-7661985Y2440509D01*
X-7661988Y2440511D01*
X-7787511Y2512982D01*
X-7787512Y2512982D01*
X-7787515Y2512984D01*
X-7927525Y2550500D01*
X-8072475Y2550500D01*
X-8212485Y2512984D01*
X-8338015Y2440509D01*
X-8440509Y2338015D01*
X-8512984Y2212485D01*
X-8550500Y2072475D01*
X-14749500Y2072475D01*
X-14749500Y11996519D01*
X-14749305Y12003471D01*
X-14741247Y12146962D01*
X-13621500Y12146962D01*
X-13621500Y11895038D01*
X-13582090Y11646215D01*
X-13504241Y11406621D01*
X-13504239Y11406616D01*
X-13489314Y11377325D01*
X-13389870Y11182155D01*
X-13389867Y11182151D01*
X-13241798Y10978350D01*
X-13241794Y10978345D01*
X-13063654Y10800205D01*
X-13063649Y10800201D01*
X-12859848Y10652132D01*
X-12859845Y10652130D01*
X-12789747Y10616413D01*
X-12635383Y10537760D01*
X-12395785Y10459910D01*
X-12146962Y10420500D01*
X-12146961Y10420500D01*
X-11895039Y10420500D01*
X-11895038Y10420500D01*
X-11770626Y10440205D01*
X-11646214Y10459910D01*
X-11406616Y10537760D01*
X-11182151Y10652132D01*
X-10978350Y10800201D01*
X-10978345Y10800205D01*
X-10800205Y10978345D01*
X-10800201Y10978350D01*
X-10652132Y11182151D01*
X-10537760Y11406616D01*
X-10459910Y11646214D01*
X-10452047Y11695864D01*
X-1724999Y11695864D01*
X-1724998Y11695847D01*
X-1714943Y11597416D01*
X-1662093Y11437927D01*
X-1662091Y11437922D01*
X-1573885Y11294919D01*
X-1455080Y11176114D01*
X-1312077Y11087908D01*
X-1312072Y11087906D01*
X-1152583Y11035057D01*
X-1054150Y11025000D01*
X-1037500Y11025000D01*
X-1037500Y11750000D01*
X-1724999Y11750000D01*
X-1724999Y11695864D01*
X-10452047Y11695864D01*
X-10450840Y11703482D01*
X-10420500Y11895038D01*
X-10420500Y12146962D01*
X-10445394Y12304137D01*
X-1725000Y12304137D01*
X-1725000Y12250000D01*
X-1037500Y12250000D01*
X-1037500Y12974998D01*
X-537500Y12974998D01*
X-537500Y11024999D01*
X-520856Y11025000D01*
X-422415Y11035057D01*
X-262927Y11087906D01*
X-262922Y11087908D01*
X-119919Y11176114D01*
X-1114Y11294919D01*
X49714Y11377325D01*
X101662Y11424050D01*
X170625Y11435271D01*
X229563Y11411495D01*
X341545Y11327666D01*
X341552Y11327662D01*
X467975Y11280509D01*
X523855Y11274500D01*
X523870Y11274500D01*
X1051144Y11274500D01*
X1107024Y11280509D01*
X1233447Y11327662D01*
X1233450Y11327664D01*
X1233453Y11327666D01*
X1341472Y11408528D01*
X1422336Y11516550D01*
X1441837Y11568834D01*
X1455107Y11586560D01*
X1464306Y11606703D01*
X1475637Y11613985D01*
X1483709Y11624767D01*
X1504454Y11632504D01*
X1523084Y11644477D01*
X1545002Y11647628D01*
X1549173Y11649184D01*
X1558019Y11649500D01*
X1641904Y11649500D01*
X1708943Y11629815D01*
X1740615Y11594229D01*
X1743456Y11596257D01*
X1749426Y11587895D01*
X1840397Y11496923D01*
X1840400Y11496921D01*
X1955978Y11440419D01*
X1955980Y11440418D01*
X1955982Y11440418D01*
X2030918Y11429500D01*
X2030923Y11429500D01*
X2374077Y11429500D01*
X2374082Y11429500D01*
X2449018Y11440418D01*
X2449019Y11440418D01*
X2449021Y11440419D01*
X2564599Y11496921D01*
X2564602Y11496923D01*
X2624819Y11557140D01*
X2686142Y11590625D01*
X2755834Y11585641D01*
X2800181Y11557140D01*
X2860397Y11496923D01*
X2860400Y11496921D01*
X2975978Y11440419D01*
X2975980Y11440418D01*
X2975982Y11440418D01*
X3050918Y11429500D01*
X3050923Y11429500D01*
X3394077Y11429500D01*
X3394082Y11429500D01*
X3469018Y11440418D01*
X3469019Y11440418D01*
X3469021Y11440419D01*
X3584599Y11496921D01*
X3585939Y11497878D01*
X3588072Y11498619D01*
X3593834Y11501436D01*
X3594174Y11500739D01*
X3651937Y11520813D01*
X3719858Y11504426D01*
X3719992Y11504349D01*
X3750012Y11487017D01*
X3750014Y11487016D01*
X3750015Y11487016D01*
X3890025Y11449500D01*
X3890028Y11449500D01*
X4034972Y11449500D01*
X4034975Y11449500D01*
X4174985Y11487016D01*
X4174988Y11487017D01*
X4300511Y11559488D01*
X4300517Y11559493D01*
X4403006Y11661982D01*
X4403009Y11661985D01*
X4403011Y11661988D01*
X4475482Y11787511D01*
X4475482Y11787512D01*
X4475484Y11787515D01*
X4513000Y11927525D01*
X4513000Y12072475D01*
X4493041Y12146961D01*
X10420500Y12146961D01*
X10420500Y11895038D01*
X10459910Y11646214D01*
X10537760Y11406616D01*
X10652132Y11182151D01*
X10800201Y10978350D01*
X10800205Y10978345D01*
X10978345Y10800205D01*
X10978350Y10800201D01*
X11182151Y10652132D01*
X11406616Y10537760D01*
X11646214Y10459910D01*
X11770626Y10440205D01*
X11895038Y10420500D01*
X11895039Y10420500D01*
X12146961Y10420500D01*
X12146962Y10420500D01*
X12395785Y10459910D01*
X12635383Y10537760D01*
X12789747Y10616413D01*
X12859845Y10652130D01*
X12859848Y10652132D01*
X13063649Y10800201D01*
X13063654Y10800205D01*
X13241794Y10978345D01*
X13241798Y10978350D01*
X13389867Y11182151D01*
X13389870Y11182155D01*
X13489314Y11377325D01*
X13504239Y11406616D01*
X13504241Y11406621D01*
X13582090Y11646215D01*
X13621500Y11895038D01*
X13621500Y12146962D01*
X13582090Y12395785D01*
X13504241Y12635379D01*
X13389870Y12859845D01*
X13241793Y13063656D01*
X13063656Y13241793D01*
X12859845Y13389870D01*
X12635379Y13504241D01*
X12395785Y13582090D01*
X12146962Y13621500D01*
X11895038Y13621500D01*
X11646215Y13582090D01*
X11406621Y13504241D01*
X11406618Y13504239D01*
X11406616Y13504239D01*
X11336487Y13468506D01*
X11182155Y13389870D01*
X11182151Y13389867D01*
X10978350Y13241798D01*
X10978345Y13241794D01*
X10800205Y13063654D01*
X10800201Y13063649D01*
X10682331Y12901413D01*
X10652130Y12859845D01*
X10616413Y12789747D01*
X10537760Y12635383D01*
X10488394Y12483450D01*
X10459910Y12395785D01*
X10424205Y12170351D01*
X10420500Y12146961D01*
X4493041Y12146961D01*
X4475484Y12212485D01*
X4403009Y12338015D01*
X4300515Y12440509D01*
X4174988Y12512982D01*
X4174987Y12512982D01*
X4174985Y12512984D01*
X4034975Y12550500D01*
X3890025Y12550500D01*
X3750015Y12512984D01*
X3729657Y12501230D01*
X3719994Y12495651D01*
X3652094Y12479178D01*
X3594158Y12499229D01*
X3593833Y12498563D01*
X3588375Y12501230D01*
X3586067Y12502030D01*
X3585939Y12502121D01*
X3584604Y12503073D01*
X3584602Y12503076D01*
X3469018Y12559582D01*
X3394082Y12570500D01*
X3050918Y12570500D01*
X2975982Y12559582D01*
X2975978Y12559580D01*
X2860400Y12503078D01*
X2860397Y12503076D01*
X2800181Y12442860D01*
X2738858Y12409375D01*
X2669166Y12414359D01*
X2624819Y12442860D01*
X2564602Y12503076D01*
X2564599Y12503078D01*
X2467595Y12550500D01*
X2449018Y12559582D01*
X2374082Y12570500D01*
X2030918Y12570500D01*
X1955982Y12559582D01*
X1955978Y12559580D01*
X1840400Y12503078D01*
X1840397Y12503076D01*
X1749426Y12412105D01*
X1743456Y12403743D01*
X1741141Y12405395D01*
X1735617Y12393297D01*
X1719264Y12382788D01*
X1706150Y12368441D01*
X1689862Y12363892D01*
X1676839Y12355523D01*
X1641904Y12350500D01*
X1558019Y12350500D01*
X1490980Y12370185D01*
X1445225Y12422989D01*
X1441837Y12431166D01*
X1422336Y12483449D01*
X1422336Y12483450D01*
X1341472Y12591472D01*
X1233450Y12672336D01*
X1107022Y12719491D01*
X1073023Y12723146D01*
X1051144Y12725499D01*
X1051130Y12725500D01*
X523870Y12725500D01*
X523855Y12725499D01*
X497318Y12722645D01*
X467978Y12719491D01*
X467975Y12719490D01*
X341552Y12672337D01*
X341551Y12672336D01*
X341550Y12672336D01*
X233528Y12591472D01*
X233527Y12591471D01*
X229564Y12588504D01*
X164099Y12564087D01*
X95826Y12578939D01*
X49714Y12622674D01*
X-1114Y12705080D01*
X-119919Y12823885D01*
X-262922Y12912091D01*
X-262927Y12912093D01*
X-422416Y12964942D01*
X-520856Y12974999D01*
X-537500Y12974998D01*
X-1037500Y12974998D01*
X-1037500Y12974999D01*
X-1054136Y12974999D01*
X-1054152Y12974998D01*
X-1152583Y12964943D01*
X-1312072Y12912093D01*
X-1312077Y12912091D01*
X-1455080Y12823885D01*
X-1573885Y12705080D01*
X-1662091Y12562077D01*
X-1662093Y12562072D01*
X-1714942Y12402583D01*
X-1724999Y12304150D01*
X-1725000Y12304137D01*
X-10445394Y12304137D01*
X-10459910Y12395785D01*
X-10488394Y12483450D01*
X-10537760Y12635383D01*
X-10616413Y12789747D01*
X-10652130Y12859845D01*
X-10682331Y12901413D01*
X-10800201Y13063649D01*
X-10800205Y13063654D01*
X-10978345Y13241794D01*
X-10978350Y13241798D01*
X-11182151Y13389867D01*
X-11182155Y13389870D01*
X-11336487Y13468506D01*
X-11406616Y13504239D01*
X-11406618Y13504239D01*
X-11406621Y13504241D01*
X-11646215Y13582090D01*
X-11895038Y13621500D01*
X-12146962Y13621500D01*
X-12395785Y13582090D01*
X-12635379Y13504241D01*
X-12859845Y13389870D01*
X-13063656Y13241793D01*
X-13241793Y13063656D01*
X-13389870Y12859845D01*
X-13504241Y12635379D01*
X-13582090Y12395785D01*
X-13621500Y12146962D01*
X-14741247Y12146962D01*
X-14740583Y12158786D01*
X-14740583Y12158787D01*
X-14739933Y12170351D01*
X-14737567Y12212488D01*
X-14732602Y12300893D01*
X-14731045Y12314711D01*
X-14681730Y12604953D01*
X-14678636Y12618510D01*
X-14597133Y12901413D01*
X-14592540Y12914537D01*
X-14479879Y13186527D01*
X-14473846Y13199056D01*
X-14331433Y13456732D01*
X-14324035Y13468506D01*
X-14298680Y13504241D01*
X-14153674Y13708605D01*
X-14145010Y13719471D01*
X-13948830Y13938997D01*
X-13938997Y13948830D01*
X-13719471Y14145010D01*
X-13708604Y14153676D01*
X-13468505Y14324035D01*
X-13456732Y14331433D01*
X-13199056Y14473846D01*
X-13186527Y14479879D01*
X-12914537Y14592540D01*
X-12901413Y14597133D01*
X-12618510Y14678636D01*
X-12604953Y14681730D01*
X-12314711Y14731045D01*
X-12300893Y14732602D01*
X-12003472Y14749305D01*
X-11996519Y14749500D01*
X-11955830Y14749500D01*
X11955830Y14749500D01*
X11996519Y14749500D01*
X12003472Y14749305D01*
G37*
%TD.AperFunction*%
%TD*%
M02*
