%TF.GenerationSoftware,KiCad,Pcbnew,9.0.3*%
%TF.CreationDate,2026-09-12T02:10:33-04:00*%
%TF.ProjectId,Hydra_Encoder,48796472-615f-4456-9e63-6f6465722e6b,rev?*%
%TF.SameCoordinates,Original*%
%TF.FileFunction,Copper,L2,Bot*%
%TF.FilePolarity,Positive*%
%FSLAX46Y46*%
G04 Gerber Fmt 4.6, Leading zero omitted, Abs format (unit mm)*
G04 Created by KiCad (PCBNEW 9.0.3) date 2026-09-12 02:10:33*
%MOMM*%
%LPD*%
G01*
G04 APERTURE LIST*
%TA.AperFunction,ViaPad*%
%ADD10C,0.600000*%
%TD*%
G04 APERTURE END LIST*
D10*
%TO.N,GND*%
X1500000Y-8750000D03*
X3962500Y12000000D03*
X-6500000Y250000D03*
X-8000000Y2000000D03*
X-4250000Y-2000000D03*
X2500000Y7250000D03*
%TD*%
%TA.AperFunction,Conductor*%
%TO.N,GND*%
G36*
X12003472Y14749305D02*
G01*
X12300893Y14732602D01*
X12314711Y14731045D01*
X12604953Y14681730D01*
X12618510Y14678636D01*
X12901413Y14597133D01*
X12914537Y14592540D01*
X13186527Y14479879D01*
X13199056Y14473846D01*
X13456726Y14331436D01*
X13468500Y14324038D01*
X13708604Y14153676D01*
X13719476Y14145006D01*
X13938997Y13948830D01*
X13948830Y13938997D01*
X14145006Y13719476D01*
X14153676Y13708604D01*
X14324038Y13468500D01*
X14331436Y13456726D01*
X14473846Y13199056D01*
X14479879Y13186527D01*
X14592540Y12914537D01*
X14597133Y12901413D01*
X14678636Y12618510D01*
X14681730Y12604953D01*
X14731045Y12314711D01*
X14732602Y12300893D01*
X14749305Y12003472D01*
X14749500Y11996519D01*
X14749500Y-11996519D01*
X14749305Y-12003472D01*
X14732602Y-12300893D01*
X14731045Y-12314711D01*
X14681730Y-12604953D01*
X14678636Y-12618510D01*
X14597133Y-12901413D01*
X14592540Y-12914537D01*
X14479879Y-13186527D01*
X14473846Y-13199056D01*
X14331436Y-13456726D01*
X14324038Y-13468500D01*
X14153676Y-13708604D01*
X14145006Y-13719476D01*
X13948830Y-13938997D01*
X13938997Y-13948830D01*
X13719476Y-14145006D01*
X13708604Y-14153676D01*
X13468500Y-14324038D01*
X13456726Y-14331436D01*
X13199056Y-14473846D01*
X13186527Y-14479879D01*
X12914537Y-14592540D01*
X12901413Y-14597133D01*
X12618510Y-14678636D01*
X12604953Y-14681730D01*
X12314711Y-14731045D01*
X12300893Y-14732602D01*
X12003472Y-14749305D01*
X11996519Y-14749500D01*
X-11996519Y-14749500D01*
X-12003472Y-14749305D01*
X-12300893Y-14732602D01*
X-12314711Y-14731045D01*
X-12604953Y-14681730D01*
X-12618510Y-14678636D01*
X-12901413Y-14597133D01*
X-12914537Y-14592540D01*
X-13186527Y-14479879D01*
X-13199056Y-14473846D01*
X-13456732Y-14331433D01*
X-13468506Y-14324035D01*
X-13500118Y-14301605D01*
X-13708605Y-14153674D01*
X-13719471Y-14145010D01*
X-13938997Y-13948830D01*
X-13948830Y-13938997D01*
X-14145010Y-13719471D01*
X-14153676Y-13708604D01*
X-14324039Y-13468500D01*
X-14331433Y-13456732D01*
X-14473846Y-13199056D01*
X-14479879Y-13186527D01*
X-14592540Y-12914537D01*
X-14597133Y-12901413D01*
X-14678636Y-12618510D01*
X-14681730Y-12604953D01*
X-14731045Y-12314711D01*
X-14732602Y-12300893D01*
X-14749305Y-12003472D01*
X-14749500Y-11996519D01*
X-14749500Y-11895038D01*
X-13621500Y-11895038D01*
X-13621500Y-12146962D01*
X-13582090Y-12395785D01*
X-13504241Y-12635379D01*
X-13389870Y-12859845D01*
X-13241793Y-13063656D01*
X-13063656Y-13241793D01*
X-12859845Y-13389870D01*
X-12635379Y-13504241D01*
X-12395785Y-13582090D01*
X-12146962Y-13621500D01*
X-12146961Y-13621500D01*
X-11895039Y-13621500D01*
X-11895038Y-13621500D01*
X-11646215Y-13582090D01*
X-11406621Y-13504241D01*
X-11406618Y-13504239D01*
X-11406616Y-13504239D01*
X-11313379Y-13456732D01*
X-11182155Y-13389870D01*
X-11156117Y-13370952D01*
X-10978350Y-13241798D01*
X-10978345Y-13241794D01*
X-10800205Y-13063654D01*
X-10800201Y-13063649D01*
X-10652132Y-12859848D01*
X-10537760Y-12635383D01*
X-10459910Y-12395785D01*
X-10445982Y-12307846D01*
X-10420500Y-12146962D01*
X-10420500Y-11895038D01*
X10420500Y-11895038D01*
X10420500Y-12146962D01*
X10445982Y-12307846D01*
X10459910Y-12395785D01*
X10537760Y-12635383D01*
X10652132Y-12859848D01*
X10800201Y-13063649D01*
X10800205Y-13063654D01*
X10978345Y-13241794D01*
X10978350Y-13241798D01*
X11156117Y-13370952D01*
X11182155Y-13389870D01*
X11313379Y-13456732D01*
X11406616Y-13504239D01*
X11406618Y-13504239D01*
X11406621Y-13504241D01*
X11646215Y-13582090D01*
X11895038Y-13621500D01*
X11895039Y-13621500D01*
X12146961Y-13621500D01*
X12146962Y-13621500D01*
X12395785Y-13582090D01*
X12635379Y-13504241D01*
X12859845Y-13389870D01*
X13063656Y-13241793D01*
X13241793Y-13063656D01*
X13389870Y-12859845D01*
X13504241Y-12635379D01*
X13582090Y-12395785D01*
X13621500Y-12146962D01*
X13621500Y-11895038D01*
X13582090Y-11646215D01*
X13504241Y-11406621D01*
X13504239Y-11406618D01*
X13504239Y-11406616D01*
X13462747Y-11325184D01*
X13389870Y-11182155D01*
X13370952Y-11156117D01*
X13241798Y-10978350D01*
X13241794Y-10978345D01*
X13063654Y-10800205D01*
X13063649Y-10800201D01*
X12859848Y-10652132D01*
X12859847Y-10652131D01*
X12859845Y-10652130D01*
X12789747Y-10616413D01*
X12635383Y-10537760D01*
X12395785Y-10459910D01*
X12146962Y-10420500D01*
X11895038Y-10420500D01*
X11770626Y-10440205D01*
X11646214Y-10459910D01*
X11406616Y-10537760D01*
X11182151Y-10652132D01*
X10978350Y-10800201D01*
X10978345Y-10800205D01*
X10800205Y-10978345D01*
X10800201Y-10978350D01*
X10652132Y-11182151D01*
X10537760Y-11406616D01*
X10459910Y-11646214D01*
X10459910Y-11646215D01*
X10420500Y-11895038D01*
X-10420500Y-11895038D01*
X-10459910Y-11646215D01*
X-10459910Y-11646214D01*
X-10537760Y-11406616D01*
X-10652132Y-11182151D01*
X-10800201Y-10978350D01*
X-10800205Y-10978345D01*
X-10978345Y-10800205D01*
X-10978350Y-10800201D01*
X-11182151Y-10652132D01*
X-11406616Y-10537760D01*
X-11646214Y-10459910D01*
X-11770626Y-10440205D01*
X-11895038Y-10420500D01*
X-12146962Y-10420500D01*
X-12395785Y-10459910D01*
X-12635383Y-10537760D01*
X-12789747Y-10616413D01*
X-12859845Y-10652130D01*
X-12859847Y-10652131D01*
X-12859848Y-10652132D01*
X-13063649Y-10800201D01*
X-13063654Y-10800205D01*
X-13241794Y-10978345D01*
X-13241798Y-10978350D01*
X-13370952Y-11156117D01*
X-13389870Y-11182155D01*
X-13462747Y-11325184D01*
X-13504239Y-11406616D01*
X-13504239Y-11406618D01*
X-13504241Y-11406621D01*
X-13582090Y-11646215D01*
X-13621500Y-11895038D01*
X-14749500Y-11895038D01*
X-14749500Y11996519D01*
X-14749305Y12003471D01*
X-14741247Y12146962D01*
X-13621500Y12146962D01*
X-13621500Y11895038D01*
X-13582090Y11646215D01*
X-13504241Y11406621D01*
X-13504239Y11406616D01*
X-13462747Y11325184D01*
X-13389870Y11182155D01*
X-13389867Y11182151D01*
X-13241798Y10978350D01*
X-13241794Y10978345D01*
X-13063654Y10800205D01*
X-13063649Y10800201D01*
X-12859848Y10652132D01*
X-12859845Y10652130D01*
X-12789747Y10616413D01*
X-12635383Y10537760D01*
X-12395785Y10459910D01*
X-12146962Y10420500D01*
X-12146961Y10420500D01*
X-11895039Y10420500D01*
X-11895038Y10420500D01*
X-11770626Y10440205D01*
X-11646214Y10459910D01*
X-11406616Y10537760D01*
X-11182151Y10652132D01*
X-10978350Y10800201D01*
X-10978345Y10800205D01*
X-10800205Y10978345D01*
X-10800201Y10978350D01*
X-10652132Y11182151D01*
X-10537760Y11406616D01*
X-10459910Y11646214D01*
X-10420500Y11895038D01*
X-10420500Y12146961D01*
X10420500Y12146961D01*
X10420500Y11895038D01*
X10459910Y11646214D01*
X10537760Y11406616D01*
X10652132Y11182151D01*
X10800201Y10978350D01*
X10800205Y10978345D01*
X10978345Y10800205D01*
X10978350Y10800201D01*
X11182151Y10652132D01*
X11406616Y10537760D01*
X11646214Y10459910D01*
X11770626Y10440205D01*
X11895038Y10420500D01*
X11895039Y10420500D01*
X12146961Y10420500D01*
X12146962Y10420500D01*
X12395785Y10459910D01*
X12635383Y10537760D01*
X12789747Y10616413D01*
X12859845Y10652130D01*
X12859848Y10652132D01*
X13063649Y10800201D01*
X13063654Y10800205D01*
X13241794Y10978345D01*
X13241798Y10978350D01*
X13389867Y11182151D01*
X13389870Y11182155D01*
X13462747Y11325184D01*
X13504239Y11406616D01*
X13504241Y11406621D01*
X13582090Y11646215D01*
X13621500Y11895038D01*
X13621500Y12146962D01*
X13582090Y12395785D01*
X13504241Y12635379D01*
X13389870Y12859845D01*
X13241793Y13063656D01*
X13063656Y13241793D01*
X12859845Y13389870D01*
X12635379Y13504241D01*
X12395785Y13582090D01*
X12146962Y13621500D01*
X11895038Y13621500D01*
X11646215Y13582090D01*
X11406621Y13504241D01*
X11406618Y13504239D01*
X11406616Y13504239D01*
X11336487Y13468506D01*
X11182155Y13389870D01*
X11182151Y13389867D01*
X10978350Y13241798D01*
X10978345Y13241794D01*
X10800205Y13063654D01*
X10800201Y13063649D01*
X10652132Y12859848D01*
X10537760Y12635383D01*
X10527873Y12604953D01*
X10459910Y12395785D01*
X10424205Y12170351D01*
X10420500Y12146961D01*
X-10420500Y12146961D01*
X-10424205Y12170351D01*
X-10459910Y12395785D01*
X-10527873Y12604953D01*
X-10537760Y12635383D01*
X-10652132Y12859848D01*
X-10800201Y13063649D01*
X-10800205Y13063654D01*
X-10978345Y13241794D01*
X-10978350Y13241798D01*
X-11182151Y13389867D01*
X-11182155Y13389870D01*
X-11336487Y13468506D01*
X-11406616Y13504239D01*
X-11406618Y13504239D01*
X-11406621Y13504241D01*
X-11646215Y13582090D01*
X-11895038Y13621500D01*
X-12146962Y13621500D01*
X-12395785Y13582090D01*
X-12635379Y13504241D01*
X-12859845Y13389870D01*
X-13063656Y13241793D01*
X-13241793Y13063656D01*
X-13389870Y12859845D01*
X-13504241Y12635379D01*
X-13582090Y12395785D01*
X-13621500Y12146962D01*
X-14741247Y12146962D01*
X-14740583Y12158786D01*
X-14740583Y12158787D01*
X-14739933Y12170351D01*
X-14732602Y12300893D01*
X-14731045Y12314711D01*
X-14681730Y12604953D01*
X-14678636Y12618510D01*
X-14597133Y12901413D01*
X-14592540Y12914537D01*
X-14479879Y13186527D01*
X-14473846Y13199056D01*
X-14331433Y13456732D01*
X-14324035Y13468506D01*
X-14298680Y13504241D01*
X-14153674Y13708605D01*
X-14145010Y13719471D01*
X-13948830Y13938997D01*
X-13938997Y13948830D01*
X-13719471Y14145010D01*
X-13708604Y14153676D01*
X-13468505Y14324035D01*
X-13456732Y14331433D01*
X-13199056Y14473846D01*
X-13186527Y14479879D01*
X-12914537Y14592540D01*
X-12901413Y14597133D01*
X-12618510Y14678636D01*
X-12604953Y14681730D01*
X-12314711Y14731045D01*
X-12300893Y14732602D01*
X-12003472Y14749305D01*
X-11996519Y14749500D01*
X-11955830Y14749500D01*
X11955830Y14749500D01*
X11996519Y14749500D01*
X12003472Y14749305D01*
G37*
%TD.AperFunction*%
%TD*%
M02*
